<svg xmlns="http://www.w3.org/2000/svg" viewBox="0 0 304 270"><style>/* <![CDATA[ */.chart-title{font-size:20px;fill:#43423e}.chart-subtitle{font-size:15px;fill:#74736c}.chart-source{font-size:10px;fill-opacity:.4}.axis .domain{fill:none;stroke:#74736c}.tick line{fill:none;stroke:#000;stroke-opacity:.2}.tick text{fill-opacity:.6;font-size:12px}.y.axis .tick line{stroke-dasharray:1}.y.axis .domain{fill:none;stroke-opacity:0}.y.axis .highlight-line{fill:none;stroke:#74736c}/* ]]> */</style><text class="chart-title" y="22">30年固定房屋抵押贷款利率</text><text class="chart-subtitle" y="42">Average prime offer, %</text><text class="chart-source" y="265">来源:彭博. 2018年5月3日</text><g transform="translate(1,100)"><g class="x axis" transform="translate(0,120)" fill="none" font-size="10" font-family="sans-serif" text-anchor="middle"><path class="domain" stroke="#000" d="M0.5,0V0.5H255.5V0"></path><g class="tick" opacity="1" transform="translate(18.703598670056717,0)"><line stroke="#000" y2="6"></line><text fill="#000" y="9" dy="0.71em">2006</text></g><g class="tick" opacity="1" transform="translate(55.110796010170155,0)"><line stroke="#000" y2="6"></line><text fill="#000" y="9" dy="0.71em">2008</text></g><g class="tick" opacity="1" transform="translate(91.56786622335224,0)"><line stroke="#000" y2="6"></line><text fill="#000" y="9" dy="0.71em">2010</text></g><g class="tick" opacity="1" transform="translate(127.97506356346567,0)"><line stroke="#000" y2="6"></line><text fill="#000" y="9" dy="0.71em">2012</text></g><g class="tick" opacity="1" transform="translate(164.43213377664776,0)"><line stroke="#000" y2="6"></line><text fill="#000" y="9" dy="0.71em">2014</text></g><g class="tick" opacity="1" transform="translate(200.8393311167612,0)"><line stroke="#000" y2="6"></line><text fill="#000" y="9" dy="0.71em">2016</text></g><g class="tick" opacity="1" transform="translate(237.29640132994328,0)"><line stroke="#000" y2="6"></line><text fill="#000" y="9" dy="0.71em">2018</text></g></g><g class="y axis" transform="translate(255,0)" fill="none" font-size="10" font-family="sans-serif" text-anchor="start"><path class="domain" stroke="#000" d="M0,120.5H0.5V0.5H0"></path><g class="tick" opacity="1" transform="translate(0,120.5)"><line stroke="#000" x2="-255"></line><text fill="#000" x="3" dy="0.32em">3</text></g><g class="tick" opacity="1" transform="translate(0,90.5)"><line stroke="#000" x2="-255"></line><text fill="#000" x="3" dy="0.32em">4</text></g><g class="tick" opacity="1" transform="translate(0,60.5)"><line stroke="#000" x2="-255"></line><text fill="#000" x="3" dy="0.32em">5</text></g><g class="tick" opacity="1" transform="translate(0,30.5)"><line stroke="#000" x2="-255"></line><text fill="#000" x="3" dy="0.32em">6</text></g><g class="tick" opacity="1" transform="translate(0,0.5)"><line stroke="#000" x2="-255"></line><text fill="#000" x="3" dy="0.32em">7</text></g></g><g><path d="M0.11637003716017993,33.89999999999999L0.46548014864071974,35.099999999999994L0.8145902601212596,36L1.1637003716017993,38.099999999999994L1.512810483082339,38.400000000000006L1.861920594562879,39.30000000000001L2.211030706043419,40.80000000000001L2.560140817523959,39.60000000000001L2.9092509290044983,37.5L3.2583610404850383,34.500000000000014L3.607471151965578,32.69999999999999L3.9565812634461177,29.400000000000006L4.305691374926657,27.599999999999994L4.654801486407197,26.69999999999999L5.003911597887737,30L5.353021709368276,30.599999999999994L5.702131820848816,34.500000000000014L6.051241932329356,34.80000000000001L6.400352043809896,35.69999999999999L6.749462155290437,35.39999999999999L7.098572266770977,36.900000000000006L7.447682378251516,38.7L7.796792489732056,39.900000000000006L8.145902601212596,41.69999999999999L8.495012712693134,39.60000000000001L8.844122824173676,41.39999999999999L9.193232935654214,42.599999999999994L9.542343047134755,39.900000000000006L9.891453158615294,38.400000000000006L10.240563270095835,36.900000000000006L10.589673381576374,35.39999999999999L10.938783493056913,33.60000000000001L11.287893604537453,31.80000000000001L11.637003716017993,34.500000000000014L11.986113827498533,35.39999999999999L12.335223938979073,36.900000000000006L12.684334050459611,36.900000000000006L13.033444161940153,36L13.382554273420691,34.19999999999999L13.731664384901233,31.200000000000003L14.080774496381771,29.099999999999994L14.429884607862313,27.30000000000001L14.778994719342851,25.499999999999986L15.128104830823391,24L15.477214942303931,19.19999999999999L15.82632505378447,17.69999999999999L16.17543516526501,17.10000000000001L16.524545276745553,19.80000000000001L16.87365538822609,20.700000000000017L17.22276549970663,18.60000000000001L17.57187561118717,19.500000000000014L17.92098572266771,20.39999999999999L18.27009583414825,21.900000000000006L18.61920594562879,22.200000000000003L18.968316057109327,23.700000000000003L19.31742616858987,25.499999999999986L19.66653628007041,24.900000000000006L20.01564639155095,21.599999999999994L20.364756503031487,21L20.71386661451203,20.099999999999994L21.06297672599257,20.39999999999999L21.412086837473105,21L21.761196948953646,17.10000000000001L22.110307060434188,17.69999999999999L22.45941717191473,18.60000000000001L22.808527283395264,17.999999999999986L23.157637394875806,15.299999999999997L23.506747506356348,13.5L23.855857617836886,12.300000000000011L24.204967729317424,11.100000000000009L24.554077840797966,10.499999999999986L24.903187952278508,11.100000000000009L25.252298063759046,10.499999999999986L25.601408175239584,10.199999999999989L25.950518286720126,8.700000000000003L26.299628398200664,9.900000000000006L26.648738509681205,9.600000000000009L26.997848621161747,7.200000000000003L27.346958732642282,5.099999999999994L27.696068844122824,4.800000000000011L28.045178955603365,6L28.394289067083907,4.500000000000014L28.74339917856444,7.5L29.092509290044983,10.199999999999989L29.441619401525525,12.300000000000011L29.790729513006063,13.5L30.1398396244866,14.400000000000006L30.488949735967143,15.599999999999994L30.838059847447685,14.700000000000003L31.187169958928223,15.599999999999994L31.53628007040876,16.5L31.885390181889303,19.500000000000014L32.23450029336984,20.099999999999994L32.58361040485038,17.400000000000006L32.93272051633092,17.69999999999999L33.281830627811466,16.799999999999983L33.630940739292,19.500000000000014L33.980050850772535,18.30000000000001L34.329160962253084,21.299999999999997L34.67827107373362,23.099999999999994L35.02738118521416,24.60000000000001L35.3764912966947,25.19999999999999L35.72560140817524,25.19999999999999L36.074711519655786,24.900000000000006L36.42382163113632,23.400000000000006L36.772931742616855,23.400000000000006L37.122041854097404,22.5L37.47115196557794,21.900000000000006L37.82026207705847,21.299999999999997L38.16937218853902,18.60000000000001L38.518482300019556,20.700000000000017L38.8675924115001,19.80000000000001L39.21670252298064,21.900000000000006L39.565812634461174,23.400000000000006L39.914922745941716,24.299999999999983L40.26403285742226,24.60000000000001L40.61314296890279,24L40.96225308038334,24L41.311363191863876,23.700000000000003L41.66047330334442,22.200000000000003L42.00958341482496,23.400000000000006L42.358693526305494,23.700000000000003L42.707803637786036,23.700000000000003L43.05691374926658,24L43.40602386074711,22.5L43.755133972227654,17.69999999999999L44.104244083708195,16.200000000000003L44.45335419518874,12.899999999999991L44.80246430666927,6.599999999999994L45.15157441814981,7.799999999999997L45.500684529630355,8.700000000000003L45.84979464111089,9.900000000000006L46.19890475259143,6.900000000000006L46.54801486407197,6.900000000000006L46.897124975552515,8.099999999999994L47.24623508703306,8.700000000000003L47.59534519851359,11.100000000000009L47.94445530999413,10.199999999999989L48.293565421474675,13.199999999999989L48.64267553295521,15L48.99178564443575,14.700000000000003L49.34089575591629,19.19999999999999L49.69000586739683,18.30000000000001L50.039115978877376,15.900000000000006L50.38822609035791,17.400000000000006L50.737336201838446,16.799999999999983L51.086446313318994,16.5L51.43555642479953,18.60000000000001L51.78466653628007,21L52.13377664776061,21.599999999999994L52.48288675924115,21.599999999999994L52.831996870721696,22.5L53.18110698220223,25.499999999999986L53.530217093682765,30L53.879327205163314,25.19999999999999L54.22843731664385,24.60000000000001L54.57754742812438,23.400000000000006L54.92665753960493,26.39999999999999L55.27576765108547,32.69999999999999L55.62487776256601,37.8L55.97398787404655,44.400000000000006L56.323097985527085,38.400000000000006L56.672208097007626,38.7L57.02131820848817,37.2L57.3704283199687,27.000000000000014L57.71953843144925,21.299999999999997L58.068648542929786,27.599999999999994L58.41775865441033,24.60000000000001L58.76686876589087,32.400000000000006L59.115978877371404,33.30000000000001L59.465088988851946,32.10000000000001L59.81419910033249,32.400000000000006L60.16330921181302,32.400000000000006L60.512419323293564,28.200000000000017L60.861529434774106,26.69999999999999L61.21063954625465,27.599999999999994L61.55974965773518,27.89999999999999L61.908859769215724,29.099999999999994L62.257969880696265,25.80000000000001L62.6070799921768,25.499999999999986L62.95619010365734,18.30000000000001L63.30530021513788,15.299999999999997L63.654410326618425,14.700000000000003L64.00352043809896,17.69999999999999L64.3526305495795,17.10000000000001L64.70174066106004,20.39999999999999L65.05085077254058,9.300000000000011L65.39996088402113,12.300000000000011L65.74907099550165,12.300000000000011L66.09818110698221,12.300000000000011L66.44729121846275,13.799999999999997L66.79640132994328,16.200000000000003L67.14551144142382,17.400000000000006L67.49462155290436,30L67.84373166438489,34.80000000000001L68.19284177586545,25.19999999999999L68.54195188734599,25.19999999999999L68.89106199882652,30L69.24017211030706,14.400000000000006L69.5892822217876,27.000000000000014L69.93839233326814,14.099999999999994L70.28750244474868,21.900000000000006L70.63661255622922,23.700000000000003L70.98572266770977,26.69999999999999L71.3348327791903,28.799999999999997L71.68394289067083,42.30000000000001L72.03305300215139,44.099999999999994L72.38216311363192,52.5L72.73127322511246,53.7L73.080383336593,55.19999999999999L73.42949344807353,58.20000000000001L73.77860355955407,59.40000000000001L74.12771367103463,54.60000000000001L74.47682378251515,55.19999999999999L74.8259338939957,50.39999999999999L75.17504400547624,53.400000000000006L75.52415411695678,57.000000000000014L75.87326422843731,56.1L76.22237433991786,53.7L76.5714844513984,57.300000000000004L76.92059456287893,58.8L77.26970467435947,62.699999999999996L77.61881478584002,64.80000000000001L77.96792489732056,62.10000000000001L78.3170350088011,63.9L78.66614512028164,64.19999999999999L79.01525523176217,64.80000000000001L79.36436534324271,62.999999999999986L79.71347545472325,62.699999999999996L80.0625855662038,63.6L80.41169567768434,60.900000000000006L80.76080578916488,49.500000000000014L81.10991590064542,40.499999999999986L81.45902601212595,46.79999999999998L81.80813612360649,45.599999999999994L82.15724623508704,48.60000000000001L82.50635634656757,52.2L82.85546645804811,54L83.20457656952865,52.2L83.55368668100918,50.70000000000002L83.90279679248974,51.900000000000006L84.25190690397028,49.500000000000014L84.60101701545081,54.60000000000001L84.95012712693135,54L85.29923723841189,55.80000000000001L85.64834734989242,56.1L85.99745746137297,57.000000000000014L86.34656757285352,57.300000000000004L86.69567768433406,60L87.04478779581459,62.10000000000001L87.39389790729513,60.59999999999999L87.74300801877567,58.20000000000001L88.09211813025621,57.300000000000004L88.44122824173675,58.8L88.7903383532173,60.900000000000006L89.13944846469782,63.30000000000001L89.48855857617836,64.80000000000001L89.83766868765892,66.9L90.18677879913945,63.9L90.53588891061999,60L90.88499902210053,56.69999999999999L91.23410913358106,54L91.5832192450616,55.499999999999986L91.93232935654216,56.4L92.2814394680227,58.50000000000001L92.63054957950322,59.099999999999994L92.97965969098377,57.89999999999999L93.32876980246431,59.099999999999994L93.67787991394484,60.3L94.02699002542539,56.69999999999999L94.37610013690593,59.099999999999994L94.72521024838646,59.7L95.074320359867,59.40000000000001L95.42343047134754,58.8L95.77254058282809,55.80000000000001L96.12165069430863,52.2L96.47076080578917,56.4L96.8198709172697,56.1L97.16898102875024,56.4L97.51809114023078,58.20000000000001L97.86720125171134,60.3L98.21631136319186,62.999999999999986L98.5654214746724,64.80000000000001L98.91453158615295,64.19999999999999L99.26364169763347,66.6L99.61275180911403,65.69999999999999L99.96186192059457,67.5L100.3109720320751,70.80000000000001L100.66008214355564,71.1L101.00919225503618,71.1L101.35830236651671,71.4L101.70741247799727,72.00000000000001L102.05652258947781,73.5L102.40563270095834,75L102.75474281243888,75.6L103.10385292391942,77.4L103.45296303539996,78.6L103.8020731468805,77.69999999999999L104.15118325836104,77.10000000000001L104.50029336984159,77.10000000000001L104.84940348132211,78.30000000000001L105.19851359280266,79.80000000000001L105.54762370428321,82.2L105.89673381576374,81.6L106.24584392724428,81L106.59495403872482,80.70000000000002L106.94406415020535,82.8L107.29317426168589,75.9L107.64228437316645,75.9L107.99139448464699,74.1L108.34050459612752,69.9L108.68961470760806,63.30000000000001L109.0387248190886,63.9L109.38783493056913,62.10000000000001L109.73694504204968,64.80000000000001L110.08605515353022,66.6L110.43516526501075,65.69999999999999L110.7842753764913,64.19999999999999L111.13338548797184,62.699999999999996L111.48249559945238,56.69999999999999L111.83160571093292,58.20000000000001L112.18071582241346,60L112.52982593389399,62.10000000000001L112.87893604537453,61.80000000000001L113.22804615685507,65.39999999999999L113.57715626833563,63.9L113.92626637981616,62.400000000000006L114.2753764912967,62.10000000000001L114.62448660277724,61.2L114.97359671425777,64.19999999999999L115.32270682573831,64.80000000000001L115.67181693721886,66.9L116.02092704869939,69.30000000000001L116.37003716017993,69.9L116.71914727166047,70.19999999999999L117.068257383141,72.00000000000001L117.41736749462156,73.5L117.7664776061021,73.19999999999999L118.11558771758263,72.89999999999999L118.46469782906317,72.89999999999999L118.81380794054371,70.19999999999999L119.16291805202425,72.89999999999999L119.5120281635048,72.6L119.86113827498534,71.4L120.21024838646588,76.2L120.5593584979464,78.6L120.90846860942695,83.7L121.25757872090749,81.6L121.60668883238803,81.6L121.95579894386857,84.60000000000001L122.30490905534911,85.49999999999999L122.65401916682964,85.49999999999999L123.00312927831018,87.89999999999999L123.35223938979074,89.7L123.70134950127127,84.29999999999998L124.05045961275181,84.60000000000001L124.39956972423235,84.9L124.74867983571289,88.20000000000002L125.09778994719342,88.5L125.44690005867398,88.20000000000002L125.79601017015452,88.8L126.14512028163504,88.20000000000002L126.49423039311559,88.5L126.84334050459613,89.7L127.19245061607666,90.9L127.54156072755721,89.7L127.89067083903774,90.6L128.2397809505183,91.5L128.58889106199882,91.5L128.93800117347936,88.8L129.2871112849599,91.8L129.63622139644045,91.8L129.98533150792096,91.8L130.33444161940153,89.4L130.68355173088207,90.9L131.0326618423626,91.5L131.38177195384316,90.3L131.73088206532367,85.49999999999999L132.0799921768042,88.5L132.42910228828478,88.8L132.7782123997653,91.8L133.12732251124586,90.9L133.47643262272638,91.8L133.82554273420692,92.69999999999999L134.1746528456875,93.3L134.523762957168,94.5L134.87287306864854,94.5L135.2219831801291,95.4L135.57109329160963,98.1L135.92020340309014,96.9L136.2693135145707,98.4L136.61842362605125,98.4L136.96753373753177,99.3L137.31664384901234,101.4L137.66575396049285,102.30000000000001L138.0148640719734,103.5L138.36397418345396,101.7L138.71308429493448,100.8L139.06219440641502,99.9L139.41130451789556,98.4L139.7604146293761,100.8L140.10952474085664,101.7L140.45863485233718,102L140.80774496381773,103.8L141.15685507529824,106.5L141.5059651867788,107.69999999999999L141.85507529825932,106.5L142.20418540973986,107.1L142.55329552122043,105.9L142.90240563270095,106.5L143.2515157441815,106.2L143.60062585566203,108L143.94973596714257,108.89999999999999L144.29884607862314,108.60000000000001L144.64795619010366,108L144.9970663015842,108.60000000000001L145.34617641306474,107.1L145.69528652454528,107.69999999999999L146.04439663602582,108L146.39350674750636,106.2L146.7426168589869,106.8L147.09172697046742,105.6L147.440837081948,102.30000000000001L147.7899471934285,102.30000000000001L148.13905730490904,102.30000000000001L148.48816741638962,101.4L148.83727752787013,102.9L149.18638763935067,102.6L149.5354977508312,99L149.88460786231175,102L150.2337179737923,101.1L150.58282808527284,102L150.93193819675338,105.3L151.2810483082339,105.9L151.63015841971446,106.2L151.979268531195,107.69999999999999L152.32837864267552,105.6L152.6774887541561,102.9L153.0265988656366,100.5L153.37570897711714,93.6L153.72481908859768,90.9L154.07392920007823,88.8L154.4230393115588,90L154.7721494230393,74.1L155.12125953451985,79.50000000000001L155.4703696460004,72.6L155.81947975748093,77.10000000000001L156.16858986896148,78.6L156.51769998044202,76.5L156.86681009192256,76.2L157.21592020340307,76.2L157.56503031488364,70.49999999999999L157.91414042636418,72.89999999999999L158.2632505378447,71.1L158.61236064932527,70.80000000000001L158.96147076080578,73.19999999999999L159.31058087228632,78.6L159.65969098376686,81.6L160.0088010952474,81.3L160.35791120672795,79.80000000000001L160.7070213182085,84L161.05613142968903,85.19999999999999L161.40524154116954,83.1L161.75435165265012,77.69999999999999L162.10346176413066,81.6L162.45257187561117,79.50000000000001L162.80168198709174,75L163.15079209857225,75.6L163.4999022100528,74.1L163.84901232153337,73.8L164.19812243301388,72.00000000000001L164.54723254449442,72.89999999999999L164.89634265597496,75.9L165.2454527674555,76.5L165.59456287893605,78.6L165.9436729904166,81.3L166.29278310189713,79.80000000000001L166.64189321337767,78.30000000000001L166.9910033248582,77.10000000000001L167.34011343633873,79.80000000000001L167.6892235478193,77.4L168.03833365929984,78.9L168.38744377078035,76.5L168.73655388226092,75.9L169.08566399374143,77.99999999999999L169.43477410522198,80.1L169.78388421670255,78.6L170.13299432818306,79.50000000000001L170.4821044396636,82.2L170.83121455114414,82.5L171.18032466262468,84.29999999999998L171.5294347741052,84.9L171.87854488558577,84.60000000000001L172.2276549970663,82.5L172.57676510854682,83.4L172.9258752200274,84.60000000000001L173.2749853315079,85.19999999999999L173.62409544298845,83.7L173.97320555446902,84.60000000000001L174.32231566594953,84.60000000000001L174.67142577743007,84.9L175.02053588891062,84L175.36964600039116,84.9L175.7187561118717,85.80000000000001L176.06786622335224,85.80000000000001L176.41697633483278,85.80000000000001L176.76608644631332,85.19999999999999L177.11519655779387,81.9L177.46430666927438,82.8L177.81341678075495,83.4L178.1625268922355,85.19999999999999L178.511637003716,89.7L178.86074711519657,91.2L179.2098572266771,89.4L179.55896733815763,88.20000000000002L179.9080774496382,88.5L180.2571875611187,89.1L180.60629767259925,89.7L180.9554077840798,92.1L181.30451789556034,90.9L181.65362800704088,94.5L182.00273811852142,93.6L182.35184823000196,92.4L182.70095834148248,96.6L183.05006845296305,98.7L183.39917856444356,99.3L183.7482886759241,98.7L184.09739878740467,100.5L184.44650889888518,97.8L184.79561901036573,95.7L185.14472912184627,94.5L185.4938392333268,96L185.84294934480735,92.69999999999999L186.1920594562879,95.1L186.54116956776843,97.8L186.89027967924898,97.5L187.23938979072952,98.7L187.58849990221006,98.1L187.9376100136906,99L188.28672012517114,98.1L188.63583023665166,94.5L188.98494034813223,93L189.33405045961274,93L189.68316057109328,92.4L190.03227068257385,92.4L190.38138079405437,87.30000000000001L190.7304909055349,88.20000000000002L191.07960101701545,87.6L191.428711128496,86.1L191.77782123997653,87.30000000000001L192.12693135145707,85.80000000000001L192.47604146293762,87.30000000000001L192.82515157441813,89.1L193.1742616858987,91.2L193.52337179737924,90.3L193.87248190885975,90.6L194.22159202034032,93.3L194.57070213182084,91.8L194.91981224330138,91.5L195.26892235478192,91.2L195.61803246626246,92.4L195.967142577743,93L196.31625268922355,95.7L196.6653628007041,93.9L197.0144729121846,94.80000000000001L197.36358302366517,95.7L197.7126931351457,92.4L198.06180324662625,89.1L198.4109133581068,89.4L198.7600234695873,89.7L199.10913358106788,90.6L199.45824369254842,90L199.80735380402893,89.4L200.1564639155095,89.7L200.50557402699002,88.20000000000002L200.85468413847056,89.4L201.20379424995113,90.9L201.55290436143164,94.2L201.90201447291219,94.80000000000001L202.25112458439273,96.9L202.60023469587327,99.3L202.94934480735378,99.3L203.29845491883435,99.9L203.6475650303149,99.6L203.9966751417954,98.4L204.34578525327598,96.9L204.6948953647565,97.5L205.04400547623703,97.5L205.3931155877176,101.1L205.74222569919812,101.4L206.09133581067866,100.8L206.4404459221592,98.7L206.78955603363974,100.19999999999999L207.13866614512028,101.7L207.48777625660082,101.1L207.83688636808137,99.6L208.18599647956188,99L208.53510659104245,100.8L208.88421670252296,102.6L209.23332681400353,101.7L209.58243692548407,104.4L209.9315470369646,106.5L210.28065714844516,106.2L210.62976725992567,105.3L210.9788773714062,104.4L211.32798748288678,105.9L211.6770975943673,105.3L212.02620770584784,105.9L212.37531781732838,105.6L212.72442792880892,105.6L213.07353804028946,105.3L213.42264815177,105.3L213.77175826325055,104.1L214.12086837473106,106.2L214.46997848621163,106.2L214.81908859769214,104.4L215.16819870917269,103.2L215.51730882065326,104.4L215.86641893213377,102.6L216.2155290436143,101.7L216.56463915509485,90.6L216.9137492665754,87.89999999999999L217.26285937805594,86.4L217.61196948953648,84.9L217.96107960101702,84L218.31018971249753,79.80000000000001L218.6592998239781,79.19999999999999L219.00840993545864,82.8L219.35752004693916,85.19999999999999L219.70663015841973,86.1L220.05574026990024,83.4L220.4048503813808,83.1L220.75396049286132,84L221.10307060434187,84.29999999999998L221.45218071582244,84L221.80129082730295,85.80000000000001L222.1504009387835,82.5L222.49951105026403,79.80000000000001L222.84862116174457,81.9L223.19773127322512,84.60000000000001L223.54684138470566,85.80000000000001L223.8959514961862,86.4L224.2450616076667,89.7L224.59417171914728,87.89999999999999L224.94328183062783,88.20000000000002L225.29239194210834,87.30000000000001L225.6415020535889,88.20000000000002L225.99061216506942,90.3L226.33972227654996,90.6L226.6888323880305,92.1L227.03794249951105,91.5L227.3870526109916,91.8L227.73616272247213,92.4L228.08527283395267,89.7L228.43438294543319,87.89999999999999L228.78349305691376,89.7L229.1326031683943,91.2L229.4817132798748,90.9L229.83082339135538,91.8L230.1799335028359,93.3L230.52904361431646,93L230.878153725797,94.2L231.22726383727752,95.4L231.5763739487581,95.4L231.9254840602386,93.9L232.27459417171914,93.6L232.6237042831997,93.3L232.97281439468023,91.5L233.32192450616077,92.4L233.6710346176413,90.6L234.02014472912185,90.6L234.36925484060237,92.1L234.71836495208294,90.3L235.06747506356348,91.2L235.416585175044,91.8L235.76569528652456,90.6L236.11480539800507,90.9L236.46391550948562,90.6L236.8130256209662,89.1L237.1621357324467,90.3L237.51124584392724,89.1L237.86035595540778,87.30000000000001L238.20946606688833,84.29999999999998L238.55857617836884,82.2L238.9076862898494,78.9L239.25679640132995,77.10000000000001L239.60590651281046,76.79999999999998L239.95501662429103,75.9L240.30412673577155,75L240.6532368472521,75.6L241.00234695873266,75.3L241.35145707021317,75.6L241.70056718169374,76.79999999999998L242.04967729317426,76.5L242.3987874046548,74.7L242.74789751613537,71.4L243.09700762761588,72.30000000000001" fill="none" stroke="#af516c" stroke-linejoin="round" stroke-linecap="round" stroke-width="2"></path></g></g></svg>