<svg xmlns="http://www.w3.org/2000/svg" viewBox="0 0 304 270"><style>/* <![CDATA[ */.chart-title{font-size:20px;fill:#43423e}.chart-subtitle{font-size:15px;fill:#74736c}.chart-source{font-size:10px;fill-opacity:.4}.axis .domain{fill:none;stroke:#74736c}.tick line{fill:none;stroke:#000;stroke-opacity:.2}.tick text{fill-opacity:.6;font-size:12px}.y.axis .tick line{stroke-dasharray:1}.y.axis .domain{fill:none;stroke-opacity:0}.y.axis .highlight-line{fill:none;stroke:#74736c}/* ]]> */</style><text class="chart-title" y="22">平均抵押率报价</text><text class="chart-subtitle" y="42">两年固定,75%贷款成数</text><text class="chart-source" y="265">来源:英格兰银行/彭博. 2018年5月1日</text><g transform="translate(1,100)"><g class="x axis" transform="translate(0,120)" fill="none" font-size="10" font-family="sans-serif" text-anchor="middle"><path class="domain" stroke="#000" d="M0.5,0V0.5H255.5V0"></path><g class="tick" opacity="1" transform="translate(18.703598670056717,0)"><line stroke="#000" y2="6"></line><text fill="#000" y="9" dy="0.71em">2006</text></g><g class="tick" opacity="1" transform="translate(55.110796010170155,0)"><line stroke="#000" y2="6"></line><text fill="#000" y="9" dy="0.71em">2008</text></g><g class="tick" opacity="1" transform="translate(91.56786622335224,0)"><line stroke="#000" y2="6"></line><text fill="#000" y="9" dy="0.71em">2010</text></g><g class="tick" opacity="1" transform="translate(127.97506356346567,0)"><line stroke="#000" y2="6"></line><text fill="#000" y="9" dy="0.71em">2012</text></g><g class="tick" opacity="1" transform="translate(164.43213377664776,0)"><line stroke="#000" y2="6"></line><text fill="#000" y="9" dy="0.71em">2014</text></g><g class="tick" opacity="1" transform="translate(200.8393311167612,0)"><line stroke="#000" y2="6"></line><text fill="#000" y="9" dy="0.71em">2016</text></g><g class="tick" opacity="1" transform="translate(237.29640132994328,0)"><line stroke="#000" y2="6"></line><text fill="#000" y="9" dy="0.71em">2018</text></g></g><g class="y axis" transform="translate(255,0)" fill="none" font-size="10" font-family="sans-serif" text-anchor="start"><path class="domain" stroke="#000" d="M0,120.5H0.5V0.5H0"></path><g class="tick" opacity="1" transform="translate(0,100.5)"><line stroke="#000" x2="-255"></line><text fill="#000" x="3" dy="0.32em">2</text></g><g class="tick" opacity="1" transform="translate(0,60.5)"><line stroke="#000" x2="-255"></line><text fill="#000" x="3" dy="0.32em">4</text></g><g class="tick" opacity="1" transform="translate(0,20.5)"><line stroke="#000" x2="-255"></line><text fill="#000" x="3" dy="0.32em">6</text></g></g><g><path d="M1.512810483082339,40.19999999999999L2.9092509290044983,38.599999999999994L4.4553099941326035,35.999999999999986L5.95149618619206,36.8L7.497555251320164,41.8L8.993741443379621,44.60000000000001L10.539800508507724,48.2L12.08585957363583,48.8L13.582045765695286,49.60000000000001L15.128104830823391,49.2L16.624291022882847,45.19999999999999L18.170350088010952,45.19999999999999L19.716409153139058,47.599999999999994L21.112849599061217,45.80000000000001L22.658908664189322,45.599999999999994L24.15509485624878,44.60000000000001L25.701153921376882,40L27.197340113436336,40L28.74339917856444,39.8L30.289458243692547,38.000000000000014L31.785644435752005,38.000000000000014L33.33170350088011,40.19999999999999L34.827889692939564,35.999999999999986L36.37394875806767,36.999999999999986L37.920007823195775,33.599999999999994L39.316448269117934,30.80000000000001L40.86250733424604,29L42.358693526305494,27.599999999999994L43.9047525914336,26L45.40093878349306,20.39999999999999L46.946997848621166,18.599999999999994L48.49305691374927,17.799999999999997L49.989243105808725,19L51.53530217093683,17.799999999999997L53.031488362996285,18.200000000000003L54.57754742812438,18.80000000000001L56.12360649325249,20.60000000000001L57.5699198122433,25.19999999999999L59.115978877371404,24.000000000000014L60.612165069430866,18.80000000000001L62.15822413455897,14.800000000000011L63.654410326618425,8.000000000000014L65.20046939174654,13L66.74652845687463,18.400000000000006L68.24271464893408,20.799999999999997L69.7887737140622,23.599999999999994L71.28495990612166,38.000000000000014L72.83101897124975,44.60000000000001L74.37707803637787,53.000000000000014L75.77351848230002,53.000000000000014L77.31957754742812,60.400000000000006L78.81576373948758,59.6L80.36182280461568,60.400000000000006L81.85800899667514,50.999999999999986L83.40406806180326,51.60000000000001L84.95012712693135,51.400000000000006L86.4463133189908,50.60000000000001L87.99237238411891,53.599999999999994L89.48855857617836,58.00000000000001L91.03461764130648,59L92.58067670643457,60.60000000000001L93.97711715235674,62.400000000000006L95.52317621748485,61.6L97.01936240954429,63.6L98.5654214746724,64.39999999999999L100.06160766673186,66.6L101.60766673185996,64.6L103.15372579698807,65.19999999999999L104.64991198904752,64L106.19597105417563,66.39999999999999L107.69215724623508,69.4L109.2382163113632,70L110.7842753764913,66L112.18071582241346,66L113.72677488754155,66.39999999999999L115.222961079601,66.8L116.76902014472913,69.80000000000001L118.26520633678858,72.80000000000001L119.81126540191669,77.19999999999999L121.35732446704479,80L122.85351065910424,81.6L124.39956972423235,79.19999999999999L125.8957559162918,77.19999999999999L127.44181498141991,75.6L128.987874046548,74.6L130.43418736553883,72.6L131.9802464306669,71.19999999999999L133.47643262272638,66.8L135.02249168785448,66.39999999999999L136.51867787991395,65.19999999999999L138.06473694504206,66.6L139.61079601017016,66.2L141.1069822022296,66.6L142.6530412673577,70.19999999999999L144.14922745941718,71.4L145.69528652454528,73L147.2413455896734,77.80000000000001L148.63778603559555,81.6L150.18384510072366,82L151.6800312927831,82.6L153.2260903579112,86.19999999999999L154.72227654997064,87.4L156.26833561509875,87.6L157.81439468022688,88.39999999999999L159.31058087228632,89.2L160.85663993741446,90.4L162.3528261294739,91.2L163.89888519460197,92L165.4449442597301,92.6L166.84138470565225,92.4L168.38744377078035,92.6L169.88362996283982,89.2L171.42968902796792,88.8L172.9258752200274,88L174.4719342851555,89.2L176.01799335028358,89.2L177.51417954234304,90.8L179.06023860747115,95.8L180.55642479953062,96.6L182.10248386465872,98.4L183.6485429297868,99.80000000000001L185.044983375709,100.8L186.5910424408371,100.2L188.08722863289654,101L189.63328769802465,102L191.12947389008409,103.4L192.6755329552122,102.6L194.22159202034032,101L195.71777821239976,101.8L197.26383727752787,102.6L198.7600234695873,101.6L200.30608253471542,102L201.85214159984355,101.4L203.29845491883435,101L204.84451398396246,102L206.34070017602193,103.2L207.88675924115,101.8L209.38294543320944,105L210.92900449833758,105.6L212.47506356346568,106.2L213.97124975552512,108.2L215.51730882065326,109.6L217.0134950127127,111.4L218.5595540778408,111L220.1056131429689,111L221.50205358889104,111.6L223.04811265401915,112.6L224.54429884607862,113L226.09035791120672,110.2L227.5865441032662,110.4L229.1326031683943,111.8L230.67866223352237,111.4L232.17484842558184,112L233.72090749070995,109L235.21709368276942,107.8L236.76315274789752,108.60000000000001L238.3092118130256,109.4L239.7056522589478,110.2L241.2517113240759,109.4" fill="none" stroke="#af516c" stroke-linejoin="round" stroke-linecap="round" stroke-width="2"></path></g></g></svg>