<svg xmlns="http://www.w3.org/2000/svg" viewBox="0 0 304 270"><style>/* <![CDATA[ */.chart-title{font-size:20px;fill:#43423e}.chart-subtitle{font-size:15px;fill:#74736c}.chart-source{font-size:10px;fill-opacity:.4}.axis .domain{fill:none;stroke:#74736c}.tick line{fill:none;stroke:#000;stroke-opacity:.2}.tick text{fill-opacity:.6;font-size:12px}.y.axis .tick line{stroke-dasharray:1}.y.axis .domain{fill:none;stroke-opacity:0}.y.axis .highlight-line{fill:none;stroke:#74736c}/* ]]> */</style><text class="chart-title" y="22">贸易差额</text><text class="chart-subtitle" y="42">10亿英镑</text><text class="chart-source" y="265">来源:英国国家统计局╱彭博. 2018年4月11日</text><g transform="translate(1,100)"><g class="x axis" transform="translate(0,120)" fill="none" font-size="10" font-family="sans-serif" text-anchor="middle"><path class="domain" stroke="#000" d="M0.5,0V0.5H255.5V0"></path><g class="tick" opacity="1" transform="translate(18.703598670056717,0)"><line stroke="#000" y2="6"></line><text fill="#000" y="9" dy="0.71em">2006</text></g><g class="tick" opacity="1" transform="translate(55.110796010170155,0)"><line stroke="#000" y2="6"></line><text fill="#000" y="9" dy="0.71em">2008</text></g><g class="tick" opacity="1" transform="translate(91.56786622335224,0)"><line stroke="#000" y2="6"></line><text fill="#000" y="9" dy="0.71em">2010</text></g><g class="tick" opacity="1" transform="translate(127.97506356346567,0)"><line stroke="#000" y2="6"></line><text fill="#000" y="9" dy="0.71em">2012</text></g><g class="tick" opacity="1" transform="translate(164.43213377664776,0)"><line stroke="#000" y2="6"></line><text fill="#000" y="9" dy="0.71em">2014</text></g><g class="tick" opacity="1" transform="translate(200.8393311167612,0)"><line stroke="#000" y2="6"></line><text fill="#000" y="9" dy="0.71em">2016</text></g><g class="tick" opacity="1" transform="translate(237.29640132994328,0)"><line stroke="#000" y2="6"></line><text fill="#000" y="9" dy="0.71em">2018</text></g></g><g class="y axis" transform="translate(255,0)" fill="none" font-size="10" font-family="sans-serif" text-anchor="start"><path class="domain" stroke="#000" d="M0,120.5H0.5V0.5H0"></path><g class="tick" opacity="1" transform="translate(0,120.5)"><line stroke="#000" x2="-255"></line><text fill="#000" x="3" dy="0.32em">-15</text></g><g class="tick" opacity="1" transform="translate(0,96.5)"><line stroke="#000" x2="-255"></line><text fill="#000" x="3" dy="0.32em">-10</text></g><g class="tick" opacity="1" transform="translate(0,72.5)"><line stroke="#000" x2="-255"></line><text fill="#000" x="3" dy="0.32em">-5</text></g><g class="tick" opacity="1" transform="translate(0,48.5)"><line stroke="#000" x2="-255"></line><text fill="#000" x="3" dy="0.32em">0</text></g><g class="tick" opacity="1" transform="translate(0,24.5)"><line stroke="#000" x2="-255"></line><text fill="#000" x="3" dy="0.32em">5</text></g><g class="tick" opacity="1" transform="translate(0,0.5)"><line stroke="#000" x2="-255"></line><text fill="#000" x="3" dy="0.32em">10</text></g><line class="highlight-line" x1="0" y1="48" x2="-255" y2="48"></line></g><g class="chart-key" transform="translate(0, -35)"><g class="key-element" transform="translate(0,0)"><text x="28" font-size="12">货物贸易馀额</text><line x1="0" x2="25" y1="-5" y2="-5" stroke-width="2" fill="none" stroke="#af516c"></line></g><g class="key-element" transform="translate(0,20)"><text x="28" font-size="12">服务贸易馀额</text><line x1="0" x2="25" y1="-5" y2="-5" stroke-width="2" fill="none" stroke="#76acb8"></line></g></g><g><path d="M1.512810483082339,76.0704L2.9092509290044983,74.66399999999999L4.4553099941326035,74.57759999999999L5.95149618619206,77.6832L7.497555251320164,74.92320000000001L8.993741443379621,73.0656L10.539800508507724,76.22399999999999L12.08585957363583,80.352L13.582045765695286,75.4848L15.128104830823391,72.8352L16.624291022882847,78.48479999999999L18.170350088010952,77.65440000000001L19.716409153139058,81.9168L21.112849599061217,80.3808L22.658908664189322,76.99199999999999L24.15509485624878,77.28960000000001L25.701153921376882,81.05279999999999L27.197340113436336,76.3152L28.74339917856444,79.9008L30.289458243692547,82.45439999999999L31.785644435752005,78.3648L33.33170350088011,78.31200000000001L34.827889692939564,80.64959999999999L36.37394875806767,80.6448L37.920007823195775,81.3936L39.316448269117934,83.9952L40.86250733424604,86.976L42.358693526305494,78.61919999999999L43.9047525914336,80.616L45.40093878349306,82.77600000000001L46.946997848621166,86.82239999999999L48.49305691374927,85.6128L49.989243105808725,88.392L51.53530217093683,85.6368L53.031488362996285,83.376L54.57754742812438,83.1216L56.12360649325249,86.664L57.5699198122433,86.3232L59.115978877371404,84.936L60.612165069430866,86.7168L62.15822413455897,85.776L63.654410326618425,89.64959999999999L65.20046939174654,88.2L66.74652845687463,86.184L68.24271464893408,80.7312L69.7887737140622,82.32L71.28495990612166,88.5984L72.83101897124975,83.0304L74.37707803637787,84.8112L75.77351848230002,82.4256L77.31957754742812,85.2336L78.81576373948758,84.3648L80.36182280461568,80.4288L81.85800899667514,82.5264L83.40406806180326,81.05279999999999L84.95012712693135,80.6832L86.4463133189908,83.1456L87.99237238411891,82.00800000000001L89.48855857617836,81.288L91.03461764130648,82.8192L92.58067670643457,85.5936L93.97711715235674,77.7072L95.52317621748485,88.1904L97.01936240954429,85.008L98.5654214746724,86.1408L100.06160766673186,83.4528L101.60766673185996,89.256L103.15372579698807,89.65440000000001L104.64991198904752,88.27680000000001L106.19597105417563,88.56960000000001L107.69215724623508,89.688L109.2382163113632,90.9264L110.7842753764913,79.848L112.18071582241346,74.74080000000001L113.72677488754155,82.0128L115.222961079601,79.9008L116.76902014472913,87.8928L118.26520633678858,86.7936L119.81126540191669,92.304L121.35732446704479,90.8592L122.85351065910424,95.35679999999999L124.39956972423235,85.488L125.8957559162918,92.4864L127.44181498141991,83.256L128.987874046548,86.65440000000001L130.43418736553883,85.8768L131.9802464306669,88.2672L133.47643262272638,99.8784L135.02249168785448,89.8272L136.51867787991395,96.9648L138.06473694504206,85.03200000000001L139.61079601017016,98.2944L141.1069822022296,90.384L142.6530412673577,95.0784L144.14922745941718,90.9408L145.69528652454528,90.4992L147.2413455896734,91.752L148.63778603559555,95.64959999999999L150.18384510072366,91.6848L151.6800312927831,91.4544L153.2260903579112,94.4976L154.72227654997064,94.9248L156.26833561509875,95.16L157.81439468022688,92.4336L159.31058087228632,98.9616L160.85663993741446,106.2336L162.3528261294739,106.40639999999999L163.89888519460197,91.8L165.4449442597301,97.0512L166.84138470565225,91.88159999999999L168.38744377078035,91.4352L169.88362996283982,97.4544L171.42968902796792,90.36L172.9258752200274,97.0368L174.4719342851555,101.2464L176.01799335028358,98.304L177.51417954234304,95.7552L179.06023860747115,93.6864L180.55642479953062,99.0864L182.10248386465872,113.688L183.6485429297868,99.05279999999999L185.044983375709,110.27040000000001L186.5910424408371,94.0944L188.08722863289654,94.17599999999999L189.63328769802465,89.0016L191.12947389008409,89.568L192.6755329552122,96.95519999999999L194.22159202034032,92.65440000000001L195.71777821239976,92.5824L197.26383727752787,105.048L198.7600234695873,95.3856L200.30608253471542,86.616L201.85214159984355,91.2576L203.29845491883435,100.99199999999999L204.84451398396246,105.4416L206.34070017602193,100.2336L207.88675924115,89.4048L209.38294543320944,101.40960000000001L210.92900449833758,104.8032L212.47506356346568,113.66879999999999L213.97124975552512,116.4192L215.51730882065326,94.5648L217.0134950127127,104.664L218.5595540778408,103.5168L220.1056131429689,102.048L221.50205358889104,100.43039999999999L223.04811265401915,106.8672L224.54429884607862,92.3904L226.09035791120672,99.7152L227.5865441032662,108.0192L229.1326031683943,101.4048L230.67866223352237,103.8L232.17484842558184,96.5664L233.72090749070995,103.4496L235.21709368276942,107.6016L236.76315274789752,104.5008L238.3092118130256,106.6944L239.7056522589478,96.9744" fill="none" stroke="#af516c" stroke-linejoin="round" stroke-linecap="round" stroke-width="2"></path><path d="M1.512810483082339,36.00480000000002L2.9092509290044983,36.03360000000001L4.4553099941326035,35.73119999999999L5.95149618619206,35.0784L7.497555251320164,34.343999999999994L8.993741443379621,33.734399999999994L10.539800508507724,33.35040000000001L12.08585957363583,33.25919999999999L13.582045765695286,33.45599999999999L15.128104830823391,33.758399999999995L16.624291022882847,33.53760000000001L18.170350088010952,32.6352L19.716409153139058,31.224000000000004L21.112849599061217,30.220799999999997L22.658908664189322,30.048000000000002L24.15509485624878,30.700800000000015L25.701153921376882,31.401600000000002L27.197340113436336,31.6464L28.74339917856444,31.3104L30.289458243692547,30.772800000000004L31.785644435752005,30.36L33.33170350088011,30.148799999999994L34.827889692939564,29.846400000000003L36.37394875806767,29.28479999999999L37.920007823195775,28.45920000000001L39.316448269117934,27.87360000000001L40.86250733424604,27.75840000000001L42.358693526305494,28.003200000000007L43.9047525914336,28.137600000000006L45.40093878349306,27.9456L46.946997848621166,27.451200000000014L48.49305691374927,26.740799999999993L49.989243105808725,25.92L51.53530217093683,25.348799999999997L53.031488362996285,25.896L54.57754742812438,27.78240000000001L56.12360649325249,30.50399999999999L57.5699198122433,32.203199999999995L59.115978877371404,31.9824L60.612165069430866,29.9568L62.15822413455897,28.180800000000005L63.654410326618425,27.82079999999999L65.20046939174654,29.020799999999994L66.74652845687463,29.5056L68.24271464893408,28.2384L69.7887737140622,25.382400000000004L71.28495990612166,23.25120000000001L72.83101897124975,23.078400000000002L74.37707803637787,24.940799999999996L75.77351848230002,27.2256L77.31957754742812,28.7808L78.81576373948758,29.0544L80.36182280461568,28.512L81.85800899667514,27.705600000000004L83.40406806180326,27.024L84.95012712693135,26.4144L86.4463133189908,25.80959999999999L87.99237238411891,25.29119999999999L89.48855857617836,25.252799999999993L91.03461764130648,25.775999999999996L92.58067670643457,26.755199999999988L93.97711715235674,27.340799999999987L95.52317621748485,27.158400000000015L97.01936240954429,26.227199999999996L98.5654214746724,25.6032L100.06160766673186,25.80959999999999L101.60766673185996,26.788799999999995L103.15372579698807,27.1344L104.64991198904752,26.236800000000002L106.19597105417563,24.148799999999994L107.69215724623508,22.339200000000005L109.2382163113632,21.60000000000001L110.7842753764913,21.99839999999999L112.18071582241346,22.24799999999999L113.72677488754155,21.753600000000006L115.222961079601,20.356800000000007L116.76902014472913,18.979200000000006L118.26520633678858,18.057600000000008L119.81126540191669,17.942399999999992L121.35732446704479,18.5184L122.85351065910424,19.6896L124.39956972423235,20.92320000000001L125.8957559162918,21.2256L127.44181498141991,20.188799999999986L128.987874046548,18.172799999999995L130.43418736553883,16.958399999999997L131.9802464306669,17.332800000000006L133.47643262272638,19.1952L135.02249168785448,20.601600000000005L136.51867787991395,20.51039999999999L138.06473694504206,18.686400000000006L139.61079601017016,16.977599999999995L141.1069822022296,16.478399999999993L142.6530412673577,17.28L144.14922745941718,17.1408L145.69528652454528,15.115200000000016L147.2413455896734,11.563199999999995L148.63778603559555,9.30240000000002L150.18384510072366,9.686400000000006L151.6800312927831,12.681600000000003L153.2260903579112,15.556799999999996L154.72227654997064,16.838400000000007L156.26833561509875,16.132800000000003L157.81439468022688,15L159.31058087228632,14.337600000000009L160.85663993741446,14.644800000000004L162.3528261294739,16.209599999999995L163.89888519460197,18.849599999999995L165.4449442597301,21.60000000000001L166.84138470565225,21.8784L168.38744377078035,18.921600000000012L169.88362996283982,13.425600000000003L171.42968902796792,9.441599999999994L172.9258752200274,8.803200000000004L174.4719342851555,11.558400000000006L176.01799335028358,14.025599999999997L177.51417954234304,14.337600000000009L179.06023860747115,11.990399999999994L180.55642479953062,9L182.10248386465872,6.8208000000000055L183.6485429297868,9.504000000000005L185.044983375709,10.6704L186.5910424408371,12.758400000000009L188.08722863289654,12.470399999999998L189.63328769802465,14.58720000000001L191.12947389008409,16.132800000000003L192.6755329552122,16.099199999999996L194.22159202034032,15.523200000000003L195.71777821239976,13.670399999999987L197.26383727752787,14.313599999999994L198.7600234695873,12.964799999999997L200.30608253471542,13.276799999999994L201.85214159984355,12.657600000000002L203.29845491883435,12.436800000000005L204.84451398396246,12.05279999999999L206.34070017602193,11.467199999999991L207.88675924115,11.063999999999993L209.38294543320944,11.030400000000014L210.92900449833758,11.236800000000002L212.47506356346568,10.809599999999989L213.97124975552512,9.460800000000006L215.51730882065326,7.401600000000002L217.0134950127127,5.865600000000001L218.5595540778408,5.390399999999985L220.1056131429689,6.2928L221.50205358889104,7.324799999999996L223.04811265401915,7.9680000000000035L224.54429884607862,7.847999999999985L226.09035791120672,7.0464000000000055L227.5865441032662,5.8559999999999945L229.1326031683943,4.574399999999997L230.67866223352237,3.5712000000000046L232.17484842558184,2.985600000000005L233.72090749070995,2.8703999999999894L235.21709368276942,3.009600000000006L236.76315274789752,3.235199999999992L238.3092118130256,3.460799999999992L239.7056522589478,3.657600000000002" fill="none" stroke="#76acb8" stroke-linejoin="round" stroke-linecap="round" stroke-width="2"></path></g></g></svg>