<svg xmlns="http://www.w3.org/2000/svg" viewBox="0 0 304 270"><style>/* <![CDATA[ */.chart-title{font-size:20px;fill:#43423e}.chart-subtitle{font-size:15px;fill:#74736c}.chart-source{font-size:10px;fill-opacity:.4}.axis .domain{fill:none;stroke:#74736c}.tick line{fill:none;stroke:#000;stroke-opacity:.2}.tick text{fill-opacity:.6;font-size:12px}.y.axis .tick line{stroke-dasharray:1}.y.axis .domain{fill:none;stroke-opacity:0}.y.axis .highlight-line{fill:none;stroke:#74736c}/* ]]> */</style><text class="chart-title" y="22">Brick deliveries</text><text class="chart-subtitle" y="42">百万</text><text class="chart-source" y="265">来源:CEIC╱国际结算银行. 2018年4月11日</text><g transform="translate(1,100)"><g class="x axis" transform="translate(0,120)" fill="none" font-size="10" font-family="sans-serif" text-anchor="middle"><path class="domain" stroke="#000" d="M0.5,0V0.5H255.5V0"></path><g class="tick" opacity="1" transform="translate(0.5,0)"><line stroke="#000" y2="6"></line><text fill="#000" y="9" dy="0.71em">2006</text></g><g class="tick" opacity="1" transform="translate(39.70598146588037,0)"><line stroke="#000" y2="6"></line><text fill="#000" y="9" dy="0.71em">2008</text></g><g class="tick" opacity="1" transform="translate(78.9656697556866,0)"><line stroke="#000" y2="6"></line><text fill="#000" y="9" dy="0.71em">2010</text></g><g class="tick" opacity="1" transform="translate(118.17165122156698,0)"><line stroke="#000" y2="6"></line><text fill="#000" y="9" dy="0.71em">2012</text></g><g class="tick" opacity="1" transform="translate(157.4313395113732,0)"><line stroke="#000" y2="6"></line><text fill="#000" y="9" dy="0.71em">2014</text></g><g class="tick" opacity="1" transform="translate(196.63732097725358,0)"><line stroke="#000" y2="6"></line><text fill="#000" y="9" dy="0.71em">2016</text></g><g class="tick" opacity="1" transform="translate(235.89700926705981,0)"><line stroke="#000" y2="6"></line><text fill="#000" y="9" dy="0.71em">2018</text></g></g><g class="y axis" transform="translate(255,0)" fill="none" font-size="10" font-family="sans-serif" text-anchor="start"><path class="domain" stroke="#000" d="M0,120.5H0.5V0.5H0"></path><g class="tick" opacity="1" transform="translate(0,119.89086294416244)"><line stroke="#000" x2="-255"></line><text fill="#000" x="3" dy="0.32em">50</text></g><g class="tick" opacity="1" transform="translate(0,89.43401015228426)"><line stroke="#000" x2="-255"></line><text fill="#000" x="3" dy="0.32em">100</text></g><g class="tick" opacity="1" transform="translate(0,58.977157360406096)"><line stroke="#000" x2="-255"></line><text fill="#000" x="3" dy="0.32em">150</text></g><g class="tick" opacity="1" transform="translate(0,28.52030456852792)"><line stroke="#000" x2="-255"></line><text fill="#000" x="3" dy="0.32em">200</text></g></g><g><path d="M4.851516427969671,35.93908629441624L6.462721145745577,24.365482233502547L8.127632687447347,0L9.738837405223252,21.92893401015229L11.40374894692502,23.14720812182742L13.06866048862679,9.746192893401016L14.679865206402697,30.456852791878177L16.344776748104465,29.238578680203034L17.95598146588037,57.25888324873096L19.62089300758214,54.213197969543145L21.28580454928391,43.248730964467L22.78959561920809,3.654822335025372L24.454507160909856,26.80203045685279L26.06571187868576,16.44670050761421L27.73062342038753,3.654822335025372L29.341828138163436,22.85055837563452L31.006739679865206,25.512487309644683L32.671651221566975,11.265380710659898L34.28285593934288,21.229644670050774L35.94776748104465,35.40670050761422L37.55897219882056,66.04812182741117L39.223883740522325,62.31776649746193L40.888795282224095,45.51593908629442L42.446293176074136,37.034314720812176L44.111204717775905,32.63329949238579L45.72240943555181,44.24101522842639L47.38732097725358,44.16365482233503L48.998525695029485,62.149035532994915L50.663437236731255,68.83126903553298L52.328348778433025,60.64263959390863L53.93955349620893,73.5794923857868L55.6044650379107,83.68629441624367L57.215669755686605,89.32203045685279L58.880581297388375,98.82456852791879L60.54549283909014,99.33015228426396L62.04928390901432,68.46700507614213L63.71419545071609,71.93238578680203L65.325400168492,75.58720812182742L66.99031171019377,62.47553299492385L68.60151642796967,59.03939086294416L70.26642796967145,71.6722842639594L71.93133951137321,59.809949238578675L73.54254422914912,64.89868020304569L75.20745577085088,77.54253807106599L76.81866048862679,94.0477157360406L78.48357203032856,109.968730964467L80.14848357203033,74.01197969543148L81.6522746419545,46.21827411167513L83.31718618365628,56.281827411167505L84.92839090143218,57.296649746192905L86.59330244313395,53.43654822335026L88.20450716090986,52.38335025380711L89.86941870261163,61.49969543147208L91.5343302443134,57.20467005076142L93.1455349620893,63.69258883248732L94.81044650379107,68.0966497461929L96.42165122156698,119.81299492385787L98.08656276326874,84L99.75147430497051,71.27878172588831L101.25526537489469,52.17015228426395L102.92017691659646,69.63106598984771L104.53138163437237,55.77319796954315L106.19629317607414,56.445076142131974L107.80749789385004,59.74659898477157L109.47240943555181,60.95634517766497L111.13732097725358,58.25969543147209L112.74852569502949,63.66700507614213L114.41343723673126,66.7784771573604L116.02464195450716,97.30355329949238L117.68955349620893,82.57035532994924L119.3544650379107,82.51431472081218L120.91196293176074,46.12020304568527L122.57687447346251,69.84852791878174L124.18807919123842,63.440406091370555L125.85299073294019,74.49563451776649L127.46419545071609,64.7153299492386L129.12910699241786,60.800406091370554L130.79401853411963,69.40020304568526L132.40522325189553,63.67918781725888L134.0701347935973,69.65969543147209L135.6813395113732,105.92406091370557L137.34625105307498,90.63472081218274L139.01116259477675,78.93258883248731L140.51495366470093,69.91918781725889L142.1798652064027,63.38436548223351L143.7910699241786,53.13137055837562L145.45598146588037,53.362233502538075L147.06718618365628,39.72182741116751L148.73209772535805,54.85401015228426L150.39700926705981,51.90395939086295L152.00821398483572,43.34558375634518L153.6731255265375,57.442842639593906L155.2843302443134,84.1297461928934L156.94924178601516,65.68507614213198L158.6141533277169,66.3003045685279L160.1179443976411,51.08162436548224L161.78285593934288,54.8838578680203L163.39406065711879,53.336649746192904L165.05897219882056,51.10842639593909L166.67017691659646,46.62517766497463L168.33508845829823,61.64588832487309L170,49.65258883248731L171.6112047177759,47.335431472081225L173.27611625947767,65.80324873096446L174.88732097725358,81.01522842639594L176.55223251895535,78.69197969543147L178.2171440606571,71.7033502538071L179.7209351305813,53.60710659898476L181.38584667228307,53.770964467005086L182.99705139005897,59.17766497461929L184.66196293176074,47.45908629441624L186.27316764953665,47.035126903553305L187.93807919123842,62.94578680203046L189.60299073294019,57.97583756345177L191.2141954507161,63.88751269035534L192.87910699241786,69.98741116751268L194.49031171019377,93.67431472081218L196.15522325189553,83.58213197969543L197.8201347935973,69.71451776649747L199.37763268744735,58.22253807106599L201.04254422914912,50.359187817258885L202.65374894692502,53.39573604060914L204.3186604886268,46.39796954314721L205.9298652064027,53.002233502538076L207.59477674810447,48.32406091370558L209.25968828980623,49.938883248730974L210.87089300758214,46.46862944162437L212.5358045492839,43.36142131979696L214.14700926705981,80.7015228426396L215.81192080876158,64.25238578680202L217.47683235046335,59.51329949238578L218.98062342038753,39.18213197969544L220.6455349620893,51.204060913705575L222.2567396798652,32.22761421319797L223.92165122156698,33.46172588832488L225.53285593934288,43.471065989847716L227.19776748104465,40.75370558375634L228.86267902274642,43.30355329949239L230.47388374052233,36.211370558375634L232.1387952822241,37.57827411167513L233.75,76.33279187817259L235.41491154170177,63.52142131979696L237.07982308340354,59.60893401015229" fill="none" stroke="#af516c" stroke-linejoin="round" stroke-linecap="round" stroke-width="2"></path></g></g></svg>