<svg xmlns="http://www.w3.org/2000/svg" viewBox="0 0 304 270"><style>/* <![CDATA[ */.chart-title{font-size:20px;fill:#43423e}.chart-subtitle{font-size:15px;fill:#74736c}.chart-source{font-size:10px;fill-opacity:.4}.axis .domain{fill:none;stroke:#74736c}.tick line{fill:none;stroke:#000;stroke-opacity:.2}.tick text{fill-opacity:.6;font-size:12px}.y.axis .tick line{stroke-dasharray:1}.y.axis .domain{fill:none;stroke-opacity:0}.y.axis .highlight-line{fill:none;stroke:#74736c}/* ]]> */</style><text class="chart-title" y="22">商业投资</text><text class="chart-subtitle" y="42">同比增长率％</text><text class="chart-source" y="265">来源:英国国家统计局╱彭博. 2018年5月7日</text><g transform="translate(1,100)"><g class="x axis" transform="translate(0,120)" fill="none" font-size="10" font-family="sans-serif" text-anchor="middle"><path class="domain" stroke="#000" d="M0.5,0V0.5H255.5V0"></path><g class="tick" opacity="1" transform="translate(0.5,0)"><line stroke="#000" y2="6"></line><text fill="#000" y="9" dy="0.71em">2006</text></g><g class="tick" opacity="1" transform="translate(42.970910335386726,0)"><line stroke="#000" y2="6"></line><text fill="#000" y="9" dy="0.71em">2008</text></g><g class="tick" opacity="1" transform="translate(85.5,0)"><line stroke="#000" y2="6"></line><text fill="#000" y="9" dy="0.71em">2010</text></g><g class="tick" opacity="1" transform="translate(127.97091033538673,0)"><line stroke="#000" y2="6"></line><text fill="#000" y="9" dy="0.71em">2012</text></g><g class="tick" opacity="1" transform="translate(170.5,0)"><line stroke="#000" y2="6"></line><text fill="#000" y="9" dy="0.71em">2014</text></g><g class="tick" opacity="1" transform="translate(212.97091033538672,0)"><line stroke="#000" y2="6"></line><text fill="#000" y="9" dy="0.71em">2016</text></g><g class="tick" opacity="1" transform="translate(255.5,0)"><line stroke="#000" y2="6"></line><text fill="#000" y="9" dy="0.71em">2018</text></g></g><g class="y axis" transform="translate(255,0)" fill="none" font-size="10" font-family="sans-serif" text-anchor="start"><path class="domain" stroke="#000" d="M0,120.5H0.5V0.5H0"></path><g class="tick" opacity="1" transform="translate(0,98)"><line stroke="#000" x2="-255"></line><text fill="#000" x="3" dy="0.32em">-5</text></g><g class="tick" opacity="1" transform="translate(0,60.5)"><line stroke="#000" x2="-255"></line><text fill="#000" x="3" dy="0.32em">0</text></g><g class="tick" opacity="1" transform="translate(0,23)"><line stroke="#000" x2="-255"></line><text fill="#000" x="3" dy="0.32em">5</text></g><line class="highlight-line" x1="0" y1="60" x2="-255" y2="60"></line></g><g><path d="M21.196668948208988,45.599999999999994L26.432808578599133,45.675L31.727127538215832,33.825L37.07962582705909,89.25L42.43212411590235,1.5750000000000028L47.72644307551905,112.2L53.02076203513575,28.875L58.37326032397901,89.85L63.72575861282227,96.825L68.9618982432124,107.325L74.25621720282912,115.8L79.60871549167237,71.55L84.96121378051564,63.224999999999994L90.19735341090578,14.474999999999994L95.49167237052247,64.35L100.84417065936573,24.075000000000003L106.19666894820898,38.175L111.43280857859914,91.125L116.72712753821584,44.925L122.07962582705909,30.14999999999999L127.43212411590235,34.875L132.72644307551906,50.175L138.02076203513576,80.475L143.37326032397903,41.775000000000006L148.7257586128223,7.7250000000000085L153.9618982432124,96.975L159.2562172028291,62.475L164.60871549167237,15.149999999999991L169.9612137805156,64.8L175.19735341090578,58.725L180.49167237052245,29.85000000000001L185.84417065936572,64.2L191.19666894820898,65.85L196.43280857859915,20.77499999999999L201.72712753821583,59.02499999999999L207.0796258270591,84.825L212.43212411590235,59.325L217.72644307551906,60.375L223.02076203513573,54.45L228.373260323979,50.25L233.72575861282226,60.75L238.96189824321243,57.74999999999999L244.2562172028291,51L249.60871549167237,54L254.96121378051564,57.74999999999999" fill="none" stroke="#af516c" stroke-linejoin="round" stroke-linecap="round" stroke-width="2"></path></g></g></svg>