<svg xmlns="http://www.w3.org/2000/svg" viewBox="0 0 304 270"><style>/* <![CDATA[ */.chart-title{font-size:20px;fill:#43423e}.chart-subtitle{font-size:15px;fill:#74736c}.chart-source{font-size:10px;fill-opacity:.4}.axis .domain{fill:none;stroke:#74736c}.tick line{fill:none;stroke:#000;stroke-opacity:.2}.tick text{fill-opacity:.6;font-size:12px}.y.axis .tick line{stroke-dasharray:1}.y.axis .domain{fill:none;stroke-opacity:0}.y.axis .highlight-line{fill:none;stroke:#74736c}/* ]]> */</style><text class="chart-title" y="22">中国官方采购经理指数(PMI)</text><text class="chart-subtitle" y="42"> </text><text class="chart-source" y="265">来源:CEIC. 2018年3月31日</text><g transform="translate(1,100)"><g class="x axis" transform="translate(0,120)" fill="none" font-size="10" font-family="sans-serif" text-anchor="middle"><path class="domain" stroke="#000" d="M0.5,0V0.5H255.5V0"></path><g class="tick" opacity="1" transform="translate(18.703598670056717,0)"><line stroke="#000" y2="6"></line><text fill="#000" y="9" dy="0.71em">2006</text></g><g class="tick" opacity="1" transform="translate(55.110796010170155,0)"><line stroke="#000" y2="6"></line><text fill="#000" y="9" dy="0.71em">2008</text></g><g class="tick" opacity="1" transform="translate(91.56786622335224,0)"><line stroke="#000" y2="6"></line><text fill="#000" y="9" dy="0.71em">2010</text></g><g class="tick" opacity="1" transform="translate(127.97506356346567,0)"><line stroke="#000" y2="6"></line><text fill="#000" y="9" dy="0.71em">2012</text></g><g class="tick" opacity="1" transform="translate(164.43213377664776,0)"><line stroke="#000" y2="6"></line><text fill="#000" y="9" dy="0.71em">2014</text></g><g class="tick" opacity="1" transform="translate(200.8393311167612,0)"><line stroke="#000" y2="6"></line><text fill="#000" y="9" dy="0.71em">2016</text></g><g class="tick" opacity="1" transform="translate(237.29640132994328,0)"><line stroke="#000" y2="6"></line><text fill="#000" y="9" dy="0.71em">2018</text></g></g><g class="y axis" transform="translate(255,0)" fill="none" font-size="10" font-family="sans-serif" text-anchor="start"><path class="domain" stroke="#000" d="M0,120.5H0.5V0.5H0"></path><g class="tick" opacity="1" transform="translate(0,110.9)"><line stroke="#000" x2="-255"></line><text fill="#000" x="3" dy="0.32em">40</text></g><g class="tick" opacity="1" transform="translate(0,86.9)"><line stroke="#000" x2="-255"></line><text fill="#000" x="3" dy="0.32em">45</text></g><g class="tick" opacity="1" transform="translate(0,62.900000000000006)"><line stroke="#000" x2="-255"></line><text fill="#000" x="3" dy="0.32em">50</text></g><g class="tick" opacity="1" transform="translate(0,38.89999999999999)"><line stroke="#000" x2="-255"></line><text fill="#000" x="3" dy="0.32em">55</text></g><g class="tick" opacity="1" transform="translate(0,14.900000000000006)"><line stroke="#000" x2="-255"></line><text fill="#000" x="3" dy="0.32em">60</text></g></g><g class="chart-key" transform="translate(0, -35)"><g class="key-element" transform="translate(0,0)"><text x="28" font-size="12">制造业</text><line x1="0" x2="25" y1="-5" y2="-5" stroke-width="2" fill="none" stroke="#af516c"></line></g><g class="key-element" transform="translate(0,20)"><text x="28" font-size="12">非制造业</text><line x1="0" x2="25" y1="-5" y2="-5" stroke-width="2" fill="none" stroke="#76acb8"></line></g></g><g><path d="M1.5626833561509876,40.8L2.959123802073147,24.480000000000004L4.505182867201252,30.23999999999998L6.001369059260709,48.480000000000004L7.547428124388813,54.23999999999998L9.043614316448268,57.12L10.589673381576374,49.91999999999999L12.135732446704479,37.91999999999999L13.631918638763935,42.72L15.17797770389204,42.72L16.674163895951498,41.760000000000005L18.220222961079603,52.31999999999999L19.76628202620771,52.31999999999999L21.162722472129865,36.96000000000002L22.70878153725797,23.519999999999996L24.204967729317424,39.360000000000014L25.75102679444553,42.72L27.247212986504987,50.88000000000001L28.793272051633092,47.51999999999998L30.339331116761198,28.799999999999997L31.835517308820652,39.839999999999975L33.381576373948754,36.96000000000002L34.877762566008215,39.360000000000014L36.42382163113632,37.91999999999999L37.969880696264426,47.51999999999998L39.36632114218658,33.11999999999999L40.91238020731468,21.11999999999999L42.408566399374145,35.03999999999999L43.95462546450225,40.8L45.450811656561704,46.56000000000002L46.99687072168981,43.2L48.542929786817915,33.11999999999999L50.039115978877376,47.03999999999999L51.58517504400548,36.480000000000004L53.081361236064936,36.96000000000002L54.62742030119304,48L56.173479366321146,46.08L57.61979268531195,22.080000000000013L59.165851750440055,18.239999999999995L60.66203794249951,46.56000000000002L62.208097007627615,52.8L63.704283199687076,70.08000000000001L65.25034226481517,70.08000000000001L66.79640132994328,56.639999999999986L68.29258752200275,88.32L69.83864658713084,116.16000000000001L71.3348327791903,104.63999999999999L72.88089184431841,84.96000000000001L74.4269509094465,67.2L75.82339135536867,50.88000000000001L77.36945042049676,45.599999999999994L78.86563661255623,47.51999999999998L80.41169567768434,47.03999999999999L81.90788186974379,46.56000000000002L83.4539409348719,43.2L85,41.760000000000005L86.49618619205947,37.43999999999998L88.04224525718756,37.43999999999998L89.53843144924701,30.719999999999985L91.08449051437512,34.56000000000002L92.63054957950322,52.8L94.02699002542539,37.91999999999999L95.57304909055348,35.03999999999999L97.06923528261295,43.68000000000001L98.61529434774106,52.31999999999999L100.1114805398005,56.639999999999986L101.65753960492862,54.23999999999998L103.2035986700567,44.16000000000001L104.69978486211618,39.839999999999975L106.24584392724428,37.43999999999998L107.74203011930373,43.68000000000001L109.28808918443184,48.480000000000004L110.83414824955995,51.83999999999999L112.2305886954821,46.08L113.7766477606102,48.480000000000004L115.27283395266967,52.8L116.81889301779776,58.08000000000001L118.31507920985722,59.039999999999985L119.86113827498534,58.08000000000001L121.40719734011343,56.639999999999986L122.9033835321729,60.480000000000004L124.449442597301,67.2L125.94562878936046,60.960000000000015L127.49168785448856,60L129.03774691961667,57.599999999999994L130.48406023860747,47.51999999999998L132.03011930373557,46.56000000000002L133.52630549579501,60.480000000000004L135.07236456092315,61.43999999999999L136.5685507529826,61.919999999999995L138.11460981811072,66.23999999999998L139.6606688832388,63.360000000000014L141.15685507529824,61.43999999999999L142.70291414042637,59.519999999999996L144.1991003324858,59.519999999999996L145.74515939761395,60.480000000000004L147.29121846274202,61.919999999999995L148.6876589086642,58.08000000000001L150.2337179737923,59.519999999999996L151.72990416585176,58.56000000000001L153.27596323097984,61.919999999999995L154.7721494230393,60.960000000000015L156.31820848816741,57.599999999999994L157.86426755329552,57.12L159.360453745355,55.68000000000001L160.90651281048306,55.68000000000001L162.40269900254253,57.599999999999994L163.94875806767064,60L165.49481713279874,61.43999999999999L166.8912575787209,60.960000000000015L168.43731664384902,60.480000000000004L169.93350283590848,58.56000000000001L171.4795619010366,57.599999999999994L172.97574809309603,54.23999999999998L174.52180715822414,57.12L176.06786622335224,57.12L177.56405241541168,58.56000000000001L179.1101114805398,60.960000000000015L180.60629767259925,61.919999999999995L182.1523567377274,63.360000000000014L183.69841580285546,62.88000000000001L185.09485624877763,61.919999999999995L186.6409153139057,61.919999999999995L188.13710150596518,61.43999999999999L189.68316057109328,61.43999999999999L191.17934676315275,62.400000000000006L192.72540582828086,63.83999999999998L194.27146489340896,63.360000000000014L195.7676510854684,63.360000000000014L197.3137101505965,64.32L198.80989634265597,63.83999999999998L200.35595540778408,65.28L201.90201447291219,67.2L203.348327791903,61.43999999999999L204.89438685703112,61.919999999999995L206.39057304909056,61.919999999999995L207.93663211421864,62.400000000000006L209.4328183062781,62.88000000000001L210.9788773714062,60.480000000000004L212.52493643653432,60.480000000000004L214.0211226285938,56.639999999999986L215.56718169372186,54.23999999999998L217.06336788578133,55.68000000000001L218.60942695090944,56.16000000000001L220.15548601603754,54.72L221.5519264619597,53.760000000000005L223.09798552708781,56.639999999999986L224.59417171914728,56.639999999999986L226.1402307842754,54.23999999999998L227.63641697633486,55.68000000000001L229.18247604146293,54.23999999999998L230.72853510659104,50.88000000000001L232.2247212986505,54.72L233.7707803637786,53.760000000000005L235.26696655583805,54.72L236.8130256209662,56.16000000000001L238.35908468609426,60.960000000000015L239.75552513201643,55.19999999999999" fill="none" stroke="#af516c" stroke-linejoin="round" stroke-linecap="round" stroke-width="2"></path><path d="M36.42382163113632,12.480000000000018L37.969880696264426,11.519999999999996L39.36632114218658,23.039999999999978L40.91238020731468,12.480000000000018L42.408566399374145,3.839999999999989L43.95462546450225,14.400000000000006L45.450811656561704,17.28L46.99687072168981,6.239999999999995L48.542929786817915,5.280000000000001L50.039115978877376,7.680000000000007L51.58517504400548,11.519999999999996L53.081361236064936,13.439999999999984L54.62742030119304,13.439999999999984L56.173479366321146,17.76000000000002L57.61979268531195,19.680000000000007L59.165851750440055,22.080000000000013L60.66203794249951,26.88000000000001L62.208097007627615,26.88000000000001L63.704283199687076,35.03999999999999L65.25034226481517,48.480000000000004L66.79640132994328,38.39999999999999L68.29258752200275,47.51999999999998L69.83864658713084,56.639999999999986L71.3348327791903,58.56000000000001L72.88089184431841,44.639999999999986L74.4269509094465,37.91999999999999L75.82339135536867,41.280000000000015L77.36945042049676,45.599999999999994L78.86563661255623,38.88000000000001L80.41169567768434,36.480000000000004L81.90788186974379,27.360000000000014L83.4539409348719,27.360000000000014L85,24.480000000000004L86.49618619205947,16.799999999999997L88.04224525718756,22.080000000000013L89.53843144924701,20.160000000000025L91.08449051437512,23.519999999999996L92.63054957950322,28.799999999999997L94.02699002542539,27.360000000000014L95.57304909055348,24.960000000000008L97.06923528261295,23.519999999999996L98.61529434774106,20.160000000000025L100.1114805398005,28.319999999999993L101.65753960492862,24L103.2035986700567,24.480000000000004L104.69978486211618,26.88000000000001L106.24584392724428,19.680000000000007L107.74203011930373,20.160000000000025L109.28808918443184,27.83999999999999L110.83414824955995,28.799999999999997L112.2305886954821,18.239999999999995L113.7766477606102,23.039999999999978L115.27283395266967,20.639999999999986L116.81889301779776,30.719999999999985L118.31507920985722,27.360000000000014L119.86113827498534,28.319999999999993L121.40719734011343,34.56000000000002L122.9033835321729,36L124.449442597301,34.08L125.94562878936046,32.16000000000001L127.49168785448856,35.03999999999999L129.03774691961667,27.360000000000014L130.48406023860747,24L132.03011930373557,33.11999999999999L133.52630549579501,37.43999999999998L135.07236456092315,30.23999999999998L136.5685507529826,35.519999999999996L138.11460981811072,32.16000000000001L139.6606688832388,44.639999999999986L141.15685507529824,36L142.70291414042637,35.519999999999996L144.1991003324858,33.11999999999999L145.74515939761395,32.639999999999986L147.29121846274202,40.8L148.6876589086642,35.519999999999996L150.2337179737923,40.8L151.72990416585176,41.760000000000005L153.27596323097984,43.68000000000001L154.7721494230393,42.72L156.31820848816741,43.68000000000001L157.86426755329552,36.480000000000004L159.360453745355,32.16000000000001L160.90651281048306,33.60000000000001L162.40269900254253,40.31999999999999L163.94875806767064,46.08L165.49481713279874,38.39999999999999L166.8912575787209,40.8L168.43731664384902,39.360000000000014L169.93350283590848,36L171.4795619010366,38.39999999999999L172.97574809309603,42.23999999999998L174.52180715822414,41.280000000000015L176.06786622335224,43.2L177.56405241541168,44.16000000000001L179.1101114805398,43.68000000000001L180.60629767259925,42.72L182.1523567377274,44.639999999999986L183.69841580285546,43.68000000000001L185.09485624877763,44.639999999999986L186.6409153139057,46.08L188.13710150596518,47.03999999999999L189.68316057109328,44.16000000000001L191.17934676315275,43.68000000000001L192.72540582828086,46.08L194.27146489340896,46.08L195.7676510854684,47.51999999999998L197.3137101505965,45.11999999999999L198.80989634265597,41.280000000000015L200.35595540778408,45.599999999999994L201.90201447291219,49.44L203.348327791903,44.16000000000001L204.89438685703112,45.599999999999994L206.39057304909056,47.51999999999998L207.93663211421864,44.639999999999986L209.4328183062781,43.68000000000001L210.9788773714062,45.599999999999994L212.52493643653432,44.639999999999986L214.0211226285938,43.2L215.56718169372186,39.839999999999975L217.06336788578133,40.8L218.60942695090944,40.31999999999999L220.15548601603754,42.23999999999998L221.5519264619597,37.91999999999999L223.09798552708781,43.2L224.59417171914728,40.8L226.1402307842754,38.88000000000001L227.63641697633486,40.8L229.18247604146293,46.08L230.72853510659104,36.480000000000004L232.2247212986505,41.760000000000005L233.7707803637786,39.360000000000014L235.26696655583805,38.39999999999999L236.8130256209662,36.96000000000002L238.35908468609426,41.280000000000015L239.75552513201643,40.31999999999999" fill="none" stroke="#76acb8" stroke-linejoin="round" stroke-linecap="round" stroke-width="2"></path></g></g></svg>