<svg xmlns="http://www.w3.org/2000/svg" viewBox="0 0 304 270"><style>/* <![CDATA[ */.chart-title{font-size:20px;fill:#43423e}.chart-subtitle{font-size:15px;fill:#74736c}.chart-source{font-size:10px;fill-opacity:.4}.axis .domain{fill:none;stroke:#74736c}.tick line{fill:none;stroke:#000;stroke-opacity:.2}.tick text{fill-opacity:.6;font-size:12px}.y.axis .tick line{stroke-dasharray:1}.y.axis .domain{fill:none;stroke-opacity:0}.y.axis .highlight-line{fill:none;stroke:#74736c}/* ]]> */</style><text class="chart-title" y="22">中国5年债券</text><text class="chart-subtitle" y="42">中国债券收益率 %</text><text class="chart-source" y="265">来源:CEIC/People's Bank of China. 2016年2月17日</text><g transform="translate(1,100)"><g class="x axis" transform="translate(0,120)" fill="none" font-size="10" font-family="sans-serif" text-anchor="middle"><path class="domain" stroke="#000" d="M0.5,0V0.5H255.5V0"></path><g class="tick" opacity="1" transform="translate(0.5,0)"><line stroke="#000" y2="6"></line><text fill="#000" y="9" dy="0.71em">2006</text></g><g class="tick" opacity="1" transform="translate(46.829019412643106,0)"><line stroke="#000" y2="6"></line><text fill="#000" y="9" dy="0.71em">2008</text></g><g class="tick" opacity="1" transform="translate(93.22150323544051,0)"><line stroke="#000" y2="6"></line><text fill="#000" y="9" dy="0.71em">2010</text></g><g class="tick" opacity="1" transform="translate(139.55052264808361,0)"><line stroke="#000" y2="6"></line><text fill="#000" y="9" dy="0.71em">2012</text></g><g class="tick" opacity="1" transform="translate(185.94300647088102,0)"><line stroke="#000" y2="6"></line><text fill="#000" y="9" dy="0.71em">2014</text></g><g class="tick" opacity="1" transform="translate(232.27202588352415,0)"><line stroke="#000" y2="6"></line><text fill="#000" y="9" dy="0.71em">2016</text></g></g><g class="y axis" transform="translate(255,0)" fill="none" font-size="10" font-family="sans-serif" text-anchor="start"><path class="domain" stroke="#000" d="M0,120.5H0.5V0.5H0"></path><g class="tick" opacity="1" transform="translate(0,120.5)"><line stroke="#000" x2="-255"></line><text fill="#000" x="3" dy="0.32em">1</text></g><g class="tick" opacity="1" transform="translate(0,90.5)"><line stroke="#000" x2="-255"></line><text fill="#000" x="3" dy="0.32em">2</text></g><g class="tick" opacity="1" transform="translate(0,60.5)"><line stroke="#000" x2="-255"></line><text fill="#000" x="3" dy="0.32em">3</text></g><g class="tick" opacity="1" transform="translate(0,30.5)"><line stroke="#000" x2="-255"></line><text fill="#000" x="3" dy="0.32em">4</text></g><g class="tick" opacity="1" transform="translate(0,0.5)"><line stroke="#000" x2="-255"></line><text fill="#000" x="3" dy="0.32em">5</text></g></g><g><path d="M3.7655550024888007,77.904L3.829019412643106,76.098L3.892483822797412,76.584L4.0828770532603285,75.666L4.146341463414634,76.476L4.20980587356894,77.169L4.273270283723246,77.48400000000001L4.336734693877552,77.145L4.527127924340468,76.70700000000001L4.590592334494774,76.836L4.654056744649079,76.78800000000001L4.717521154803385,77.03699999999999L4.780985564957691,77.53200000000001L4.971378795420607,77.229L5.034843205574913,77.463L5.161772025883525,74.136L5.22523643603783,74.319L5.479094076655052,72.21600000000001L5.542558486809358,72.31200000000001L5.606022896963664,74.799L5.669487307117969,72.22800000000001L5.859880537580886,74.565L5.923344947735192,74.115L5.986809357889498,73.74600000000001L6.050273768043803,74.064L6.113738178198108,74.34899999999999L6.304131408661025,72.14999999999999L6.367595818815331,71.52L6.431060228969637,71.373L6.494524639123942,71.17500000000001L6.557989049278247,70.749L6.748382279741165,69.84L6.811846689895471,69.918L6.8753111000497755,69.675L6.938775510204081,70.428L7.002239920358387,70.28999999999999L7.192633150821304,70.18199999999999L7.2560975609756095,69.46199999999999L7.319561971129915,69.654L7.38302638128422,70.719L7.446490791438526,71.892L7.509955201592832,72.21000000000001L7.573419611747138,72.654L8.081134892981582,72.71700000000001L8.14459930313589,73.38L8.208063713290194,72.996L8.2715281234445,73.33500000000001L8.334992533598806,72.507L8.525385764061722,72.012L8.588850174216027,74.331L8.652314584370334,75.573L8.715778994524639,75.52199999999999L8.779243404678946,75.52799999999999L8.969636635141862,75.555L9.033101045296167,75.375L9.096565455450474,75.63300000000001L9.160029865604779,75.558L9.223494275759084,75.423L9.413887506222,75.11699999999999L9.477351916376307,75.411L9.540816326530612,75.399L9.604280736684919,74.922L9.667745146839223,74.07900000000001L9.85813837730214,72.78899999999999L9.921602787456447,71.49300000000001L9.985067197610752,71.055L10.048531607765057,71.81700000000001L10.111996017919363,71.916L10.30238924838228,72.15599999999999L10.365853658536585,69.828L10.429318068690892,68.667L10.492782478845196,69.156L10.556246888999501,69.61500000000001L10.746640119462418,67.767L10.810104529616725,68.39699999999999L10.87356893977103,67.689L10.937033349925336,67.137L11.000497760079641,66.729L11.190890990542558,66.97200000000001L11.254355400696864,67.185L11.31781981085117,67.479L11.381284221005474,69.519L11.444748631159781,67.32900000000001L11.635141861622698,67.524L11.698606271777003,68.085L11.76207068193131,67.179L11.825535092085614,67.01400000000001L11.888999502239919,67.38900000000001L12.079392732702837,68.271L12.142857142857142,69.18299999999999L12.206321553011447,68.709L12.269785963165754,67.74000000000001L12.333250373320059,65.316L12.523643603782975,65.93700000000001L12.587108013937282,65.42099999999999L12.650572424091587,66.744L12.714036834245892,66.786L12.777501244400199,66.105L12.967894474863115,62.85600000000001L13.031358885017422,63.855L13.094823295171729,63.681L13.158287705326034,64.362L13.221752115480339,64.40100000000001L13.412145345943257,64.88999999999999L13.475609756097562,64.914L13.539074166251867,64.455L13.602538576406173,64.758L13.666002986560478,63.555L13.856396217023395,63.456L13.919860627177702,64.338L13.983325037332007,64.461L14.046789447486312,64.797L14.110253857640618,64.962L14.300647088103535,65.595L14.36411149825784,65.883L14.427575908412146,66.52199999999999L14.491040318566451,66.60300000000001L14.554504728720756,67.152L14.744897959183675,65.067L14.80836236933798,65.49L14.871826779492284,65.79299999999999L14.935291189646591,65.979L14.998755599800896,66.12899999999999L15.189148830263813,66.186L15.25261324041812,66.168L15.316077650572424,66.459L15.37954206072673,66.504L15.443006470881036,66.618L15.633399701343953,66.75899999999999L15.696864111498257,66.921L15.760328521652564,67.09200000000001L15.823792931806869,67.305L15.887257341961174,67.239L16.07765057242409,67.19399999999999L16.141114982578397,67.437L16.2045793927327,67.221L16.268043802887007,67.533L16.331508213041314,68.178L16.52190144350423,68.187L16.585365853658537,69.17099999999999L16.648830263812844,69.46799999999999L16.71229467396715,69.645L16.775759084121454,70.19999999999999L16.96615231458437,69.855L17.029616724738677,69.312L17.093081134892984,69.228L17.15654554504729,69.234L17.220009955201593,69.285L17.2834743653559,69.807L17.791189646590343,70.038L17.85465405674465,70.137L17.918118466898957,69.62400000000001L17.981582877053263,69.38400000000001L18.045047287207566,69.564L18.108511697361873,71.47200000000001L18.29890492782479,71.436L18.362369337979096,71.56200000000001L18.4258337481334,71.58600000000001L18.489298158287706,71.559L18.552762568442013,73.248L18.74315579890493,73.728L18.806620209059236,73.959L18.87008461921354,73.959L18.933549029367846,72.495L18.997013439522153,73.75200000000001L19.18740666998507,73.8L19.250871080139373,73.707L19.31433549029368,73.668L19.377799900447986,73.557L19.44126431060229,73.578L19.63165754106521,72.207L19.695121951219512,72.95400000000001L19.75858636137382,72.94200000000001L19.822050771528126,73.326L19.88551518168243,73.584L20.075908412145345,73.458L20.139372822299652,73.428L20.20283723245396,73.401L20.266301642608262,73.407L20.32976605276257,73.395L20.520159283225485,72.432L20.583623693379792,72.423L20.6470881035341,71.00999999999999L20.710552513688402,70.185L20.77401692384271,70.12200000000001L20.964410154305625,71.313L21.027874564459932,71.24099999999999L21.091338974614235,71.199L21.15480338476854,72.666L21.21826779492285,73.197L21.408661025385765,72.996L21.47212543554007,72.999L21.535589845694375,72.996L21.59905425584868,72.822L21.66251866600299,71.403L21.852911896465905,71.712L21.916376306620208,71.598L21.979840716774515,71.47200000000001L22.04330512692882,71.91L22.106769537083125,72.129L22.297162767546045,71.49000000000001L22.360627177700348,72.135L22.424091587854655,72.16499999999999L22.48755599800896,72.114L22.551020408163264,71.292L22.74141363862618,70.959L22.804878048780488,70.84200000000001L22.868342458934794,70.845L22.931806869089097,71.277L22.995271279243404,71.517L23.05873568939771,71.44200000000001L23.122200099552018,71.463L23.376057740169237,71.382L23.439522150323544,71.769L23.62991538078646,71.81700000000001L23.693379790940767,71.811L23.75684420109507,71.994L23.820308611249377,72.315L23.883773021403684,72.16499999999999L24.0741662518666,70.833L24.137630662020907,71.25900000000001L24.20109507217521,71.4L24.264559482329517,71.529L24.328023892483824,71.33099999999999L24.51841712294674,70.977L24.581881533101043,70.28099999999999L24.64534594325535,70.21199999999999L24.708810353409657,70.161L24.772274763563964,70.11000000000001L24.96266799402688,70.386L25.026132404181183,68.586L25.08959681433549,68.25L25.153061224489797,68.44200000000001L25.2165256346441,68.46600000000001L25.406918865107016,67.59899999999999L25.470383275261323,67.16999999999999L25.53384768541563,67.155L25.597312095569936,67.206L25.66077650572424,67.185L25.851169736187156,66.48L25.914634146341463,66.309L25.97809855649577,66.21L26.041562966650073,65.53200000000001L26.10502737680438,65.64000000000001L26.168491786958686,66.216L26.67620706819313,66.97200000000001L26.739671478347436,66.126L26.803135888501743,65.772L26.866600298656046,66.381L26.930064708810352,65.919L26.99352911896466,65.94300000000001L27.183922349427576,65.94L27.247386759581882,66.03L27.310851169736186,65.877L27.374315579890492,65.985L27.4377799900448,65.85900000000001L27.628173220507716,65.901L27.69163763066202,65.583L27.755102040816325,65.54400000000001L27.818566450970632,65.1L27.882030861124935,63.096000000000004L28.072424091587852,63.312L28.13588850174216,63.408L28.199352911896465,63.321L28.262817322050772,62.976000000000006L28.326281732205075,62.91L28.51667496266799,63.321L28.5801393728223,63.17999999999999L28.643603782976605,62.907000000000004L28.707068193130908,63.01499999999999L28.770532603285215,63.03L28.96092583374813,63.168L29.024390243902438,62.898L29.087854654056745,63.126000000000005L29.151319064211048,63.321L29.214783474365355,62.498999999999995L29.40517670482827,61.467000000000006L29.468641114982578,60.177L29.53210552513688,59.583L29.595569935291188,59.205L29.659034345445495,59.270999999999994L29.84942757590841,59.150999999999996L29.912891986062718,57.467999999999996L29.97635639621702,54.729L30.039820806371328,53.111999999999995L30.103285216525634,52.47L30.29367844698855,52.191L30.357142857142854,52.23299999999999L30.42060726729716,52.959L30.484071677451468,53.81699999999999L30.54753608760577,53.79600000000001L30.611000497760077,54.306L30.674464907914384,54.57900000000001L30.737929318068694,53.619L31.245644599303137,53.037000000000006L31.309109009457444,52.866L31.372573419611747,52.254000000000005L31.436037829766054,51.537000000000006L31.62643106022897,50.985L31.689895470383277,50.150999999999996L31.753359880537584,50.349000000000004L31.816824290691887,48.60000000000001L31.88028870084619,48.614999999999995L32.07068193130911,43.473L32.13414634146341,43.221000000000004L32.197610751617724,44.037000000000006L32.26107516177203,44.643L32.32453957192633,43.67700000000001L32.51493280238925,42.855000000000004L32.57839721254356,42.678L32.64186162269786,42.87599999999999L32.70532603285216,43.260000000000005L32.768790443006466,42.732L32.95918367346939,42.363L33.02264808362369,41.574L33.086112493778,42.07499999999999L33.1495769039323,41.661L33.21304131408661,40.092L33.403434544549526,39.144000000000005L33.46689895470384,37.69200000000001L33.53036336485813,37.458L33.59382777501244,37.128L33.657292185166746,35.631L33.84768541562967,35.22L33.91114982578397,33.159000000000006L33.974614235938276,33.242999999999995L34.03807864609258,28.529999999999987L34.10154305624689,28.464000000000013L34.291936286709806,28.269000000000005L34.35540069686411,28.143000000000015L34.41886510701841,28.433999999999997L34.48232951717272,28.314000000000007L34.545793927327026,28.305000000000007L34.73618715778995,28.305000000000007L34.799651567944245,28.77300000000001L34.863115978098556,28.75200000000001L34.92658038825286,29.448000000000008L34.99004479840717,28.79400000000001L35.18043802887008,28.871999999999986L35.24390243902439,29.790000000000006L35.30736684917869,29.450999999999993L35.370831259333,29.562000000000012L35.434295669487305,29.066999999999993L35.62468889995022,29.453999999999994L35.688153310104525,29.489999999999995L35.751617720258835,29.760000000000005L35.81508213041314,29.85000000000001L35.87854654056745,29.522999999999996L36.06893977103036,28.403999999999996L36.13240418118467,27.699000000000012L36.19586859133897,30.52799999999999L36.25933300149328,32.253L36.322797411647585,33.672L36.5131906421105,33.675L36.576655052264805,33.16199999999999L36.640119462419115,33.480000000000004L36.70358387257342,34.224000000000004L36.76704828272773,33.705L36.95744151319064,35.196L37.02090592334495,33.015L37.08437033349925,33.218999999999994L37.14783474365356,32.477999999999994L37.211299153807865,33.165000000000006L37.40169238427078,32.41499999999999L37.465156794425084,32.370000000000005L37.528621204579395,32.544L37.5920856147337,32.58L37.655550024888,32.178L37.845943255350925,32.721000000000004L37.90940766550523,34.662000000000006L37.97287207565954,35.001000000000005L38.03633648581384,36.672L38.099800895968144,37.03500000000001L38.29019412643106,36.59400000000001L38.35365853658537,36.756L38.417122946739674,35.907L38.48058735689398,35.94300000000001L38.54405176704828,35.81100000000001L38.734444997511204,35.42099999999999L38.79790940766551,36.738L38.86137381781982,35.739000000000004L38.924838227974114,35.94300000000001L38.988302638128424,31.77600000000001L39.17869586859134,33.635999999999996L39.24216027874565,30.855000000000004L39.30562468889995,29.778000000000006L39.36908909905426,30.272999999999996L39.43255350920856,24.992999999999995L39.622946739671484,20.74199999999999L39.68641114982579,21.084000000000003L39.74987555998009,22.39200000000001L39.81333997013439,22.530000000000015L39.876804380288704,23.84700000000001L40.06719761075162,23.74799999999999L40.13066202090592,25.74600000000001L40.194126431060226,26.52000000000001L40.25759084121454,26.91000000000001L40.32105525136884,27.783L40.38451966152315,30.072000000000003L40.44798407167745,29.625L40.95569935291189,24.465000000000003L41.0191637630662,25.19999999999999L41.082628173220506,25.817999999999998L41.146092583374816,26.682000000000002L41.20955699352912,25.694999999999993L41.399950223992036,26.697000000000003L41.46341463414634,25.926000000000016L41.52687904430065,25.436999999999998L41.59034345445495,24.239999999999995L41.65380786460926,24.11399999999999L41.84420109507217,23.001000000000005L41.90766550522648,21.480000000000004L41.971129915380786,21.813000000000002L42.034594325535096,21.489000000000004L42.0980587356894,20.988L42.288451966152316,21.737999999999985L42.35191637630662,22.260000000000005L42.41538078646093,22.055999999999997L42.47884519661523,21.575999999999993L42.54230960676954,20.801999999999992L42.73270283723245,20.285999999999987L42.79616724738676,19.671000000000006L42.859631657541065,19.391999999999996L42.923096067695376,17.751000000000005L42.98656047784967,17.183999999999997L43.176953708312595,16.682999999999993L43.2404181184669,16.658999999999992L43.30388252862121,16.145999999999987L43.36734693877551,15.815999999999988L43.430811348929815,16.007999999999996L43.62120457939273,15.344999999999999L43.68466898954704,15.572999999999993L43.748133399701345,16.37100000000001L43.81159780985565,16.5L43.87506222000995,17.813999999999993L44.065455450472875,18.680999999999997L44.12891986062718,18.98700000000001L44.19238427078149,19.766999999999996L44.255848680935785,18.548999999999992L44.319313091090095,18.377999999999986L44.50970632155301,17.92200000000001L44.57317073170732,17.198999999999984L44.63663514186162,17.71499999999999L44.70009955201593,18.212999999999994L44.76356396217023,18.569999999999993L44.953957192633155,18.510000000000005L45.01742160278746,18.581999999999994L45.08088601294176,18.776999999999987L45.144350423096064,17.718000000000004L45.207814833250374,17.673000000000002L45.39820806371329,16.989000000000004L45.461672473867594,17.048999999999992L45.5251368840219,17.367000000000004L45.58860129417621,18.150000000000006L45.65206570433051,16.77900000000001L45.842458934793434,17.319000000000003L45.90592334494773,17.036999999999992L45.96938775510204,18.26700000000001L46.032852165256344,19.308000000000007L46.096316575410654,19.41000000000001L46.15978098556496,20.75399999999999L46.41363862618218,19.47L46.47710303633649,19.676999999999992L46.54056744649079,19.47L46.73096067695371,19.305000000000007L46.79442508710801,19.688999999999993L46.85788949726232,19.494L46.92135390741662,19.710000000000008L46.984818317570934,20.087999999999994L47.17521154803384,20.292L47.23867595818815,20.598000000000013L47.30214036834246,20.592L47.36560477849677,20.277000000000015L47.42906918865107,20.50500000000001L47.61946241911399,20.057999999999993L47.68292682926829,20.646L47.7463912394226,21.83099999999999L47.8098556495769,23.253L47.87332005973121,23.058000000000007L48.06371329019412,24.99000000000001L48.12717770034843,25.78800000000001L48.190642110502736,26.471999999999994L48.25410652065705,27.728999999999985L48.31757093081135,31.152L48.38103534096565,33.94800000000001L48.444499751119956,32.184L48.507964161274266,30.714L48.57142857142857,31.733999999999995L49.079143852663016,31.382999999999996L49.142608262817326,31.341000000000008L49.20607267297162,31.007999999999996L49.396465903434546,30.302999999999997L49.45993031358885,29.814000000000007L49.52339472374316,28.79400000000001L49.586859133897455,29.897999999999996L49.650323544051766,30.198000000000008L49.84071677451468,30.312000000000012L49.90418118466899,29.988L49.967645594823296,30.224999999999994L50.0311100049776,29.71799999999999L50.0945744151319,29.111999999999995L50.284967645594826,28.790999999999997L50.34843205574913,28.733999999999995L50.41189646590343,28.013999999999996L50.475360876057735,27.89699999999999L50.538825286212045,27.78L50.72921851667496,27.942000000000007L50.79268292682927,27.927000000000007L50.85614733698357,28.263000000000005L50.91961174713788,28.39500000000001L50.98307615729218,28.409999999999997L51.173469387755105,28.400999999999996L51.2369337979094,28.503L51.30039820806371,28.947000000000003L51.363862618218015,29.814000000000007L51.427327028372325,30.239999999999995L51.617720258835234,30.977999999999994L51.681184668989545,33.543000000000006L51.74464907914385,33.626999999999995L51.80811348929816,34.149L51.87157789945246,33.89999999999999L52.06197112991538,33.672L52.12543554006969,33.351L52.18889995022399,33.519000000000005L52.2523643603783,33.80999999999999L52.50622200099552,33.771L52.569686411149824,33.55799999999999L52.633150821304135,33.57299999999999L52.69661523145844,33.666L52.76007964161275,33.837L52.95047287207566,34.176L53.01393728222997,34.176L53.07740169238427,33.882000000000005L53.14086610253858,34.33200000000001L53.204330512692884,35.081999999999994L53.3947237431558,34.437L53.458188153310104,34.80000000000001L53.521652563464414,34.69499999999999L53.58511697361872,33.759L53.64858138377303,34.27199999999999L53.83897461423594,34.31400000000001L53.90243902439025,33.897000000000006L53.96590343454455,33.224999999999994L54.21976107516177,35.82900000000001L54.28322548531608,33.735L54.346689895470384,33.429L54.410154305624694,31.36500000000001L54.473618715779,31.26599999999999L54.5370831259333,31.322999999999993L54.72747635639622,31.119L54.79094076655053,31.272000000000006L54.85440517670483,31.24799999999999L54.91786958685913,31.17L54.98133399701344,31.239000000000004L55.17172722747636,31.073999999999998L55.23519163763066,31.098L55.298656047784974,31.070999999999998L55.36212045793927,31.379999999999995L55.42558486809358,31.233000000000004L55.615978098556496,30.861000000000004L55.67944250871081,30.723L55.7429069188651,30.314999999999998L55.80637132901941,30.299999999999997L55.869835739173716,30.413999999999987L56.06022896963664,30.342L56.12369337979094,30.674999999999997L56.187157789945246,30.629999999999995L56.25062220009955,30.498000000000005L56.31408661025386,30.257999999999996L56.56794425087108,29.403000000000006L56.63140866102538,27.12299999999999L56.69487307117969,26.111999999999995L56.758337481333996,26.49600000000001L56.94873071179692,25.824000000000012L57.012195121951216,26.34299999999999L57.075659532105526,26.577000000000012L57.13912394225983,26.126999999999995L57.20258835241414,24.974999999999994L57.39298158287705,24.714000000000013L57.45644599303136,24.10499999999999L57.51991040318566,23.49000000000001L57.58337481333997,21.732L57.646839223494275,20.492999999999995L57.83723245395719,19.683000000000007L57.900696864111495,18.369000000000014L57.964161274265805,19.092L58.02762568442011,18.557999999999993L58.09109009457442,18.52499999999999L58.28148332503733,19.38600000000001L58.34494773519164,20.328000000000003L58.40841214534594,20.936999999999998L58.47187655550025,21.948000000000008L58.535340965654555,22.095000000000013L58.72573419611747,21.359999999999985L58.789198606271775,21.86099999999999L58.852663016426085,21.792L58.91612742658039,20.984999999999985L58.9795918367347,20.295L59.16998506719761,20.045999999999992L59.23344947735192,19.76400000000001L59.29691388750622,19.73100000000001L59.36037829766053,20.48400000000001L59.423842707814835,20.54100000000001L59.61423593827775,19.463999999999984L59.677700348432055,19.443000000000012L59.741164758586365,20.13899999999998L59.80462916874067,20.352000000000004L59.86809357889497,19.25399999999999L60.05848680935789,19.23600000000002L60.1219512195122,19.382999999999996L60.1854156296665,19.433999999999997L60.24888003982081,20.01299999999999L60.31234444997511,19.97699999999999L60.50273768043803,19.370999999999995L60.566202090592334,19.39800000000001L60.629666500746644,20.199000000000012L60.69313091090094,20.991L60.75659532105525,22.055999999999997L60.94698855151817,23.12400000000001L61.01045296167248,24.275999999999996L61.07391737182678,24.659999999999997L61.137381781981084,24.767999999999986L61.20084619213539,24.99000000000001L61.39123942259831,25.962000000000003L61.454703832752614,26.088000000000008L61.51816824290692,26.646000000000015L61.58163265306122,26.936999999999998L61.64509706321553,28.329000000000008L61.83549029367845,28.65599999999999L61.89895470383276,28.808999999999997L61.96241911398705,28.301999999999992L62.02588352414136,28.04100000000001L62.08934793429567,27.575999999999993L62.27974116475859,27.735L62.343205574912886,29.52900000000001L62.4066699850672,30.98100000000001L62.4701343952215,31.046999999999997L62.53359880537581,34.42200000000001L62.78745644599303,40.77900000000001L62.85092085614733,43.709999999999994L62.91438526630164,42.638999999999996L62.977849676455946,41.77199999999999L63.16824290691886,40.098L63.231707317073166,38.412000000000006L63.295171727227476,41.77799999999999L63.35863613738178,41.05199999999999L63.42210054753609,41.76599999999999L63.48556495769039,42.783L63.549029367844696,42.759L64.05674464907914,42.006L64.12020905923345,45.408L64.18367346938776,51.16499999999999L64.24713787954207,59.62499999999999L64.31060228969636,61.190999999999995L64.5009955201593,61.290000000000006L64.56445993031359,56.895L64.62792434046789,59.370000000000005L64.6913887506222,59.229L64.7548531607765,57.798L64.94524639123942,57L65.00871080139373,57.501000000000005L65.07217521154803,57.675L65.13563962170234,57.345000000000006L65.19910403185665,58.172999999999995L65.38949726231957,57.95700000000001L65.45296167247386,61.332L65.51642608262817,63.228L65.57989049278247,63.624L65.64335490293678,63.933L65.8337481333997,63.894L65.897212543554,62.853L65.96067695370832,64.122L66.02414136386263,64.83L66.08760577401692,66.993L66.27799900447984,69.819L66.34146341463415,70.068L66.40492782478844,71.097L66.46839223494275,74.706L66.53185664509706,72.23100000000001L66.72224987555998,69.345L66.78571428571429,70.84800000000001L66.8491786958686,67.833L66.9126431060229,69.57L66.97610751617721,68.54400000000001L67.16650074664011,70.08L67.22996515679442,69.68100000000001L67.29342956694873,71.73L67.35689397710304,75.387L67.42035838725734,73.821L67.61075161772027,74.26499999999999L67.67421602787456,75.726L67.73768043802887,75.714L67.80114484818318,77.355L67.86460925833748,83.169L68.0550024888004,82.626L68.11846689895471,81.60300000000001L68.181931309109,83.34L68.24539571926331,83.328L68.30886012941762,85.821L68.49925335988054,86.193L68.56271777003485,87.90899999999999L68.62618218018916,91.248L68.68964659034344,91.098L68.75311100049775,91.614L68.94350423096067,91.452L69.00696864111498,91.29899999999999L69.07043305126929,91.974L69.1338974614236,92.061L69.1973618715779,92.09700000000001L69.38775510204083,92.352L69.45121951219512,92.583L69.51468392234942,91.935L69.76854156296665,94.65299999999999L69.83200597312096,92.208L69.89547038327527,92.253L69.95893479342956,92.568L70.02239920358387,92.769L70.08586361373818,94.30199999999999L70.2762568442011,93.09L70.3397212543554,91.968L70.4031856645097,90.19200000000001L70.466650074664,84.438L70.53011448481831,81.69L70.72050771528123,80.658L70.78397212543554,74.637L70.84743653558985,75.261L70.91090094574416,78.393L70.97436535589846,79.332L71.03782976605277,80.652L71.5455450472872,79.542L71.60900945744152,77.11500000000001L71.67247386759583,72.552L71.73593827775012,68.84100000000001L71.79940268790443,65.78699999999999L71.86286709805874,67.956L72.05326032852165,68.80499999999999L72.11672473867596,69.55499999999999L72.18018914883027,72.612L72.24365355898456,74.76599999999999L72.30711796913887,74.76599999999999L72.49751119960179,73.86600000000001L72.5609756097561,73.10999999999999L72.62444001991041,75.23400000000001L72.68790443006472,75.147L72.75136884021902,75.531L72.94176207068193,75.189L73.00522648083623,76.14599999999999L73.06869089099054,76.55099999999999L73.13215530114485,76.69200000000001L73.19561971129916,75.291L73.38601294176208,74.703L73.44947735191639,74.454L73.51294176207068,73.00800000000001L73.57640617222499,73.12199999999999L73.63987058237929,72.93L73.8302638128422,72.87L73.89372822299651,73.30499999999999L73.95719263315083,74.208L74.02065704330512,74.25299999999999L74.08412145345943,74.631L74.27451468392235,74.742L74.33797909407666,75.159L74.40144350423097,75.219L74.46490791438526,75.42600000000002L74.52837232453956,73.926L74.71876555500249,72.987L74.78222996515679,72.444L74.8456943753111,72.537L74.90915878546541,72.327L74.97262319561972,72.066L75.16301642608263,72.528L75.22648083623695,72.90899999999999L75.28994524639123,75.756L75.35340965654554,75.777L75.41687406669985,74.679L75.67073170731707,74.49600000000001L75.73419611747138,73.062L75.79766052762568,72.81899999999999L75.86112493777999,72.63L76.05151816824291,72.738L76.1149825783972,72.834L76.17844698855151,71.445L76.24191139870582,71.364L76.30537580886012,72.867L76.49576903932305,72.645L76.55923344947735,73.275L76.62269785963166,73.011L76.68616226978597,72.783L76.74962667994028,72.54L76.94001991040318,72.14699999999999L77.00348432055749,71.958L77.06694873071179,72.249L77.1304131408661,71.862L77.38427078148332,72.732L77.44773519163763,73.677L77.51119960179194,72.837L77.57466401194624,73.22999999999999L77.63812842210055,73.518L77.82852165256345,73.464L77.89198606271776,73.803L77.95545047287207,74.112L78.01891488302638,74.295L78.08237929318068,74.601L78.27277252364361,74.862L78.3362369337979,75.237L78.39970134395222,75.363L78.46316575410653,75.327L78.52663016426084,74.91900000000001L78.71702339472374,74.631L78.78048780487805,74.937L78.84395221503235,74.946L79.09780985564957,77.148L79.16127426580388,74.78399999999999L79.22473867595819,74.36699999999999L79.2882030861125,75.45L79.3516674962668,75.018L79.4151319064211,73.887L79.60552513688401,73.54499999999999L79.66898954703832,73.512L79.73245395719263,73.55100000000002L79.79591836734694,72.993L79.85938277750124,73.107L80.04977600796417,73.05000000000001L80.11324041811847,72.894L80.17670482827278,72.684L80.24016923842707,72.735L80.30363364858138,73.19999999999999L80.4940268790443,72.828L80.55749128919861,72.69L80.62095569935292,71.844L80.68442010950722,72.237L80.74788451966153,71.86500000000001L80.93827775012444,72.264L81.00174216027875,72.036L81.06520657043305,71.289L81.12867098058736,70.779L81.19213539074165,69.387L81.38252862120459,68.583L81.44599303135888,68.697L81.50945744151319,68.226L81.5729218516675,67.2L81.63638626182181,66.13499999999999L81.82677949228473,66.02099999999999L81.89024390243902,64.185L81.95370831259332,62.22L82.01717272274763,60.342L82.08063713290194,57.936L82.27103036336486,57.300000000000004L82.33449477351917,57.245999999999995L82.39795918367348,59.067L82.46142359382777,60.255L82.52488800398208,59.286L82.71528123444499,59.75099999999999L82.7787456445993,60.156L82.84221005475361,59.34L82.90567446490792,59.037000000000006L82.96913887506221,58.36800000000001L83.15953210552514,57.300000000000004L83.22299651567944,56.649L83.28646092583375,57.035999999999994L83.34992533598806,57.321L83.41338974614237,58.233000000000004L83.60378297660527,56.08800000000001L83.66724738675958,55.845L83.73071179691388,56.547L83.79417620706819,56.313L83.8576406172225,56.187L84.04803384768542,55.866L84.11149825783973,55.638000000000005L84.17496266799404,56.26500000000001L84.23842707814833,56.574000000000005L84.30189148830264,57.663L84.49228471876555,57.971999999999994L84.55574912891986,58.458L84.61921353907417,58.67100000000001L84.68267794922848,58.809000000000005L84.74614235938277,59.028L84.9365355898457,59.25L85,59.55L85.06346441015431,60.312000000000005L85.12692882030862,61.400999999999996L85.19039323046292,61.257000000000005L85.38078646092583,61.224L85.44425087108014,61.005L85.50771528123444,61.32299999999999L85.57117969138875,60.738L85.63464410154306,60L85.82503733200598,60.099L85.88850174216029,60.76199999999999L85.9519661523146,61.077L86.01543056246888,61.167L86.07889497262319,61.400999999999996L86.2692882030861,61.056000000000004L86.33275261324042,59.132999999999996L86.39621702339473,59.43599999999999L86.45968143354904,59.496L86.52314584370333,59.529L86.65007466401195,59.811L86.71353907416626,59.586000000000006L86.77700348432056,59.562L86.84046789447486,59.382000000000005L87.41164758586362,59.622L87.47511199601793,59.62499999999999L87.60204081632654,58.48199999999999L87.66550522648083,57.282000000000004L87.72896963663514,56.553L87.79243404678944,54.738L87.85589845694375,54.855000000000004L88.04629168740667,54.611999999999995L88.10975609756098,55.443L88.17322050771529,55.473L88.2366849178696,55.00800000000001L88.30014932802389,54.66L88.49054255848681,54.977999999999994L88.5540069686411,54.47999999999999L88.61747137879541,54.105000000000004L88.68093578894972,54.06299999999999L88.74440019910404,54.684L88.93479342956695,54.233999999999995L88.99825783972126,54.303L89.06172224987556,54.227999999999994L89.12518666002987,53.358000000000004L89.18865107018418,53.322L89.37904430064708,53.169L89.44250871080139,52.863L89.5059731209557,54.024L89.56943753111,54.3L89.63290194126431,54.444L89.82329517172722,54.266999999999996L89.88675958188153,54.27600000000001L89.95022399203584,54.096000000000004L90.01368840219016,54.605999999999995L90.07715281234444,54.876000000000005L90.26754604280737,54.753L90.33101045296166,55.227000000000004L90.39447486311597,55.62899999999999L90.45793927327028,55.730999999999995L90.5214036834246,57.711000000000006L90.71179691388751,58.251L90.77526132404182,58.12800000000001L90.83872573419612,59.64900000000001L90.90219014435041,59.451L90.96565455450472,59.067L91.15604778496764,56.844L91.21951219512195,57.735L91.28297660527626,58.65899999999999L91.34644101543056,58.644000000000005L91.40990542558487,58.248000000000005L91.60029865604778,58.980000000000004L91.6637630662021,58.589999999999996L91.72722747635639,58.881L91.7906918865107,59.172L91.854156296665,59.04L92.04454952712793,58.782000000000004L92.10801393728222,58.644000000000005L92.17147834743653,58.617L92.23494275759084,58.605000000000004L92.29840716774515,57.687L92.48880039820807,57.617999999999995L92.55226480836237,57.989999999999995L92.61572921851666,58.68300000000001L92.67919362867097,58.65899999999999L92.9330512692882,58.571999999999996L92.99651567944251,57.633L93.05998008959682,57.687L93.12344449975112,57.37799999999999L93.18690890990543,56.529L93.37730214036833,57.04200000000001L93.44076655052264,57.062999999999995L93.50423096067695,56.157000000000004L93.56769537083126,56.846999999999994L93.63115978098556,57.111000000000004L93.82155301144849,57.40200000000001L93.88501742160278,57.282000000000004L93.94848183175709,57.558L94.0119462419114,56.946000000000005L94.07541065206571,57.074999999999996L94.26580388252862,56.513999999999996L94.32926829268293,57.462L94.39273270283722,58.089000000000006L94.45619711299153,57.558L94.51966152314584,57.537L94.71005475360876,58.931999999999995L94.77351916376307,59.342999999999996L94.83698357391738,59.315999999999995L94.90044798407169,59.559000000000005L94.96391239422599,59.64300000000001L95.1543056246889,59.38499999999999L95.2177700348432,59.355L95.28123444499751,59.327999999999996L95.34469885515182,59.403000000000006L95.40816326530613,59.16L95.91587854654057,58.854000000000006L95.97934295669486,59.244L96.04280736684917,58.935L96.10627177700349,58.563L96.1697361871578,59.805L96.23320059731209,60.822L96.2966650074664,62.085L96.48705823792932,63.714000000000006L96.55052264808363,64.227L96.61398705823794,65.286L96.67745146839223,65.862L96.74091587854653,67.125L96.93130910900946,67.437L96.99477351916376,67.536L97.05823792931807,67.58699999999999L97.12170233947238,67.311L97.18516674962669,67.23L97.3755599800896,67.428L97.43902439024392,67.236L97.5024888003982,68.061L97.56595321055251,67.69200000000001L97.62941762070682,67.69200000000001L97.81981085116973,67.761L97.88327526132404,66.87L97.94673967147835,66.357L98.01020408163265,66.336L98.07366849178696,66.312L98.26406172224988,64.65899999999999L98.32752613240417,64.338L98.39099054255848,64.584L98.4544549527128,65.013L98.51791936286709,65.079L98.77177700348432,66.312L98.83524141363863,64.755L98.89870582379294,63.275999999999996L98.96217023394725,62.831999999999994L99.15256346441015,63.012L99.21602787456446,62.526L99.27949228471876,63.693L99.34295669487307,63.443999999999996L99.40642110502738,63.417L99.5968143354903,64.506L99.6602787456446,65.685L99.72374315579891,65.97L99.78720756595321,66.09L99.85067197610752,66.97200000000001L100.04106520657042,66.87299999999999L100.10452961672473,67.062L100.16799402687904,68.574L100.23145843703335,69.117L100.29492284718765,69.273L100.54878048780488,68.643L100.61224489795919,68.985L100.6757093081135,69.20700000000001L100.7391737182678,70.656L100.92956694873071,69.987L100.99303135888502,69.85799999999999L101.05649576903932,71.16300000000001L101.11996017919363,71.34299999999999L101.18342458934794,71.148L101.37381781981085,73.602L101.43728222996516,74.679L101.50074664011947,76.491L101.56421105027377,74.81700000000001L101.62767546042807,74.151L101.81806869089098,74.13L101.88153310104529,73.971L101.9449975111996,74.07L102.00846192135391,73.815L102.07192633150821,74.06700000000001L102.26231956197114,74.07300000000001L102.32578397212544,72.285L102.38924838227975,71.87100000000001L102.45271279243404,72.22200000000001L102.51617720258835,72.576L102.70657043305127,72.9L102.77003484320558,72.78L102.83349925335988,71.73299999999999L102.89696366351419,70.557L102.9604280736685,70.203L103.0238924838228,70.30799999999999L103.0873568939771,70.311L103.34121453459431,69.999L103.40467894474862,66.009L103.59507217521154,65.658L103.65853658536585,66.25800000000001L103.72200099552016,65.013L103.78546540567447,65.31899999999999L103.84892981582877,66L104.0393230462917,67.67699999999999L104.10278745644598,69.48599999999999L104.16625186660029,69.888L104.2297162767546,70.038L104.29318068690891,70.368L104.48357391737183,70.668L104.54703832752614,71.844L104.61050273768043,71.97900000000001L104.67396714783474,71.74199999999999L104.73743155798905,71.937L104.92782478845196,71.89500000000001L104.99128919860627,72.49799999999999L105.05475360876058,72.61500000000001L105.11821801891487,72.63L105.18168242906918,72.81L105.3720756595321,72.762L105.43554006968641,72.438L105.49900447984072,71.793L105.56246888999503,72.14699999999999L105.62593330014933,70.75200000000001L105.81632653061224,69.81L105.87979094076654,69.285L105.94325535092085,69.321L106.00671976107516,69.26400000000001L106.07018417122947,68.95500000000001L106.26057740169239,68.535L106.3240418118467,68.082L106.387506222001,69.306L106.4509706321553,69.57900000000001L106.51443504230961,69.981L106.70482827277252,69.99600000000001L106.76829268292683,70.35300000000001L106.83175709308114,70.398L106.89522150323543,70.569L106.95868591338974,70.60499999999999L107.14907914385266,70.872L107.21254355400697,70.863L107.27600796416128,70.52700000000002L107.33947237431559,70.56L107.40293678446987,70.608L107.5933300149328,70.5L107.6567944250871,70.332L107.72025883524141,70.299L107.78372324539572,70.11000000000001L107.84718765555003,70.062L108.03758088601295,70.023L108.10104529616726,69.88499999999999L108.16450970632155,69.876L108.22797411647585,70.00200000000001L108.29143852663016,69.843L108.48183175709308,69.732L108.54529616724739,68.82L108.6087605774017,68.535L108.672224987556,68.39999999999999L108.7356893977103,68.22299999999998L108.92608262817323,67.884L108.98954703832753,67.371L109.05301144848183,67.221L109.11647585863614,66.888L109.17994026879045,66.75299999999999L109.30686908909905,66.453L109.37033349925336,66.35400000000001L109.43379790940767,66.441L109.6876555500249,66.33L109.7511199601792,66.34199999999998L109.8145843703335,66.396L109.8780487804878,66.024L109.94151319064211,65.907L110.00497760079641,66.3L110.51269288203086,65.688L110.57615729218517,66.03L110.70308611249378,65.12700000000001L110.76655052264807,64.962L110.83001493280238,64.752L110.8934793429567,64.95L110.956943753111,65.568L111.14733698357392,65.07L111.21080139372823,65.241L111.27426580388253,58.67700000000001L111.33773021403684,55.788L111.40119462419115,56.175000000000004L111.59158785465405,55.563L111.65505226480836,54.408L111.71851667496267,53.379000000000005L111.78198108511697,53.05200000000001L111.84544549527128,53.574L112.0358387257342,52.68899999999999L112.0993031358885,50.733000000000004L112.16276754604282,47.120999999999995L112.22623195619713,45.057L112.28969636635141,44.211L112.48008959681434,43.68599999999999L112.54355400696863,42.70500000000001L112.60701841712294,39.471000000000004L112.67048282727725,37.107L112.73394723743156,37.074L112.92434046789448,37.30799999999999L112.98780487804879,38.53200000000001L113.05126928820309,40.437L113.11473369835738,42.599999999999994L113.1781981085117,41.123999999999995L113.36859133897461,39.56100000000001L113.43205574912892,38.69699999999999L113.49552015928323,37.926L113.55898456943753,36.831L113.62244897959184,36.19199999999999L113.81284221005475,36.46799999999999L113.87630662020906,36.534000000000006L113.93977103036336,38.586L114.00323544051767,38.78699999999999L114.06669985067197,39.58500000000001L114.2570930811349,40.533L114.3205574912892,41.42100000000001L114.3840219014435,40.566L114.44748631159781,40.122L114.51095072175212,40.143L114.70134395221504,41.483999999999995L114.76480836236934,41.397000000000006L114.82827277252363,42.405L114.89173718267794,42.417L114.95520159283225,42.753L115.14559482329517,43.503L115.20905923344948,43.035L115.27252364360379,43.00800000000001L115.33598805375809,42.822L115.3994524639124,42.480000000000004L115.5898456943753,40.854L115.65331010452961,40.653000000000006L115.71677451468392,40.968L115.78023892483823,41.894999999999996L115.84370333499253,42L116.09756097560975,43.248000000000005L116.16102538576406,45.366L116.22448979591837,45.05399999999999L116.28795420607268,45.918000000000006L116.47834743653559,45.99900000000001L116.5418118466899,45.36L116.60527625684419,45.92699999999999L116.6687406669985,44.861999999999995L116.73220507715281,43.95599999999999L116.92259830761573,42.08099999999999L116.98606271777004,40.05L117.04952712792435,39.342L117.11299153807865,39.156000000000006L117.17645594823296,39.144000000000005L117.36684917869586,39.39L117.43031358885017,39.68100000000001L117.49377799900448,39.581999999999994L117.55724240915879,39.540000000000006L117.62070681931309,39.501000000000005L117.7476356396217,39.87899999999999L117.81110004977602,39.79499999999999L117.87456445993031,39.522000000000006L118.38227974116475,36.58500000000001L118.44574415131906,36.438L118.50920856147337,36.61200000000001L118.57267297162768,36.528000000000006L118.69960179193629,37.66799999999999L118.7630662020906,38.06099999999999L118.82653061224491,39.144000000000005L118.88999502239919,39.387L118.9534594325535,39.096000000000004L119.14385266301642,37.164L119.20731707317073,37.81200000000001L119.27078148332504,38.958L119.33424589347935,39.84599999999999L119.39771030363364,39.009L119.58810353409658,40.581L119.65156794425087,40.751999999999995L119.71503235440517,41.226L119.77849676455948,41.322L119.84196117471379,40.64099999999999L120.0323544051767,40.599000000000004L120.09581881533101,42.105000000000004L120.15928322548531,42.732L120.22274763563962,41.56200000000001L120.28621204579393,41.73299999999999L120.47660527625685,41.385000000000005L120.54006968641114,42.786L120.60353409656545,42.837L120.66699850671975,43.22999999999999L120.73046291687406,43.209L120.92085614733698,42.348L120.98432055749129,42.215999999999994L121.0477849676456,42.141000000000005L121.11124937779991,42.94500000000001L121.1747137879542,43.2L121.36510701841712,43.206L121.42857142857142,43.182L121.49203583872573,42.57599999999999L121.55550024888004,42.849000000000004L121.61896465903435,42.837L121.68242906918864,43.062L121.93628670980587,42.033L121.99975111996018,42.09299999999999L122.06321553011449,42.024L122.2536087605774,42.729L122.3170731707317,44.238L122.38053758088601,45.18600000000001L122.44400199104031,45.16799999999999L122.50746640119462,45.141000000000005L122.69785963165754,44.199L122.76132404181185,44.187L122.82478845196616,44.343L122.88825286212047,44.358000000000004L122.95171727227478,44.147999999999996L123.14211050273768,44.147999999999996L123.20557491289199,43.977000000000004L123.26903932304629,43.947L123.3325037332006,44.897999999999996L123.3959681433549,45.218999999999994L123.64982578397213,45.47099999999999L123.71329019412644,45.435L123.77675460428074,45.239999999999995L123.84021901443504,45.378L124.03061224489795,45.53999999999999L124.09407665505226,45.218999999999994L124.15754106520657,45.498000000000005L124.22100547536088,45.57299999999999L124.28446988551518,44.658L124.47486311597811,44.604L124.5383275261324,44.592L124.60179193628672,44.679L124.66525634644101,44.7L124.72872075659532,44.973L124.91911398705824,45.429L124.98257839721255,45.381L125.04604280736685,46.431L125.10950721752116,46.791L125.17297162767547,46.443L125.36336485813838,46.602000000000004L125.42682926829269,45.78599999999999L125.49029367844699,45.593999999999994L125.55375808860128,45.596999999999994L125.6172224987556,45.56699999999999L125.87108013937282,45.24300000000001L125.93454454952713,43.494L125.99800895968144,42.783L126.06147336983574,42.522000000000006L126.25186660029867,42.49799999999999L126.31533101045295,41.123999999999995L126.37879542060726,39.666L126.44225983076157,39.79499999999999L126.50572424091588,39.498000000000005L126.6961174713788,40.935L126.75958188153311,41.688L126.8230462916874,39.95399999999999L126.88651070184171,39.92400000000001L126.94997511199603,40.977000000000004L127.14036834245893,42.605999999999995L127.20383275261324,42.03L127.26729716276755,41.787000000000006L127.33076157292184,41.72699999999999L127.39422598307615,42.342L127.58461921353907,42.90899999999999L127.64808362369338,42.54299999999999L127.71154803384769,42.03599999999999L127.775012444002,41.763000000000005L127.83847685415631,41.846999999999994L128.0288700846192,41.232L128.09233449477352,41.41799999999999L128.15579890492782,41.36099999999999L128.21926331508215,40.812L128.28272772523644,40.52099999999999L128.47312095569933,39.027L128.53658536585365,37.824L128.60004977600795,35.53200000000001L128.66351418616227,33.93899999999999L128.72697859631657,34.572L128.91737182677952,34.385999999999996L128.98083623693378,33.84299999999999L129.0443006470881,33.980999999999995L129.1077650572424,34.047L129.1712294673967,34.67099999999999L129.36162269785964,34.47L129.42508710801394,34.28399999999999L129.48855151816824,31.272000000000006L129.55201592832253,29.406000000000006L129.61548033847686,31.17L129.80587356893977,32.376000000000005L129.8693379790941,33.363L129.9328023892484,33.27900000000001L129.99626679940266,35.00999999999999L130.059731209557,34.065L130.2501244400199,33.92100000000001L130.31358885017423,33.144000000000005L130.37705326032852,33.584999999999994L130.44051767048285,33.28500000000001L130.50398208063712,34.59L130.69437531110006,34.42800000000001L130.75783972125436,33.94800000000001L130.82130413140865,33.956999999999994L130.88476854156298,33.56700000000001L130.94823295171727,32.504999999999995L131.1386261821802,28.60799999999999L131.20209059233449,27.114000000000004L131.2655550024888,27.89699999999999L131.3290194126431,29.189999999999998L131.39248382279743,29.684999999999988L131.58287705326032,31.107L131.64634146341461,32.120999999999995L131.70980587356894,30.912000000000006L131.77327028372324,30.212999999999994L131.83673469387756,31.296000000000006L132.09059233449477,32.034000000000006L132.15405674464907,31.587000000000003L132.2175211548034,30.762L132.2809855649577,30.066000000000003L132.4713787954206,29.969999999999985L132.5348432055749,30.263999999999996L132.5983076157292,29.778000000000006L132.66177202588352,31.03200000000001L132.72523643603782,33.989999999999995L132.91562966650076,35.888999999999996L132.97909407665506,34.69800000000001L133.04255848680936,35.013000000000005L133.10602289696365,36.06L133.16948730711798,36.97200000000001L133.6772025883524,36.87299999999999L133.74066699850673,39.045L133.80413140866102,41.259L133.86759581881535,41.718L133.93106022896964,40.364999999999995L133.99452463912397,38.39399999999999L134.05798904927823,39.663L134.24838227974115,38.81099999999999L134.31184668989548,40.833L134.37531110004977,40.35600000000001L134.4387755102041,40.923L134.5022399203584,40.403999999999996L134.6926331508213,40.10400000000001L134.7560975609756,39.239999999999995L134.81956197112993,39.48599999999999L134.88302638128422,38.85900000000001L134.94649079143852,39.507000000000005L135.13688402190144,41.108999999999995L135.20034843205573,42.018L135.26381284221006,42.90899999999999L135.32727725236435,43.143L135.39074166251868,43.587L135.58113489298157,43.403999999999996L135.6445993031359,44.474999999999994L135.7080637132902,47.01899999999999L135.77152812344448,49.74300000000001L135.8349925335988,49.391999999999996L136.02538576406172,49.494L136.08885017421602,48.13499999999999L136.15231458437032,47.760000000000005L136.21577899452464,46.35900000000001L136.27924340467894,47.388000000000005L136.46963663514188,46.5L136.53310104529618,46.14L136.59656545545045,48.58200000000001L136.66002986560477,49.397999999999996L136.72349427575907,49.239000000000004L136.913887506222,48.426L136.9773519163763,48.108000000000004L137.04081632653063,49.476L137.10428073668493,55.022999999999996L137.16774514683922,57.303L137.35813837730214,57.738L137.42160278745644,56.37L137.48506719761076,55.346999999999994L137.54853160776506,55.986000000000004L137.61199601791938,57.288000000000004L137.80238924838227,56.901L137.8658536585366,55.599000000000004L137.9293180686909,55.566L137.9927824788452,55.476L138.0562468889995,56.25L138.2466401194624,55.899L138.31010452961672,56.166L138.37356893977102,56.274L138.43703334992534,56.274L138.50049776007964,56.085L138.69089099054256,56.067L138.75435540069685,56.172L138.81781981085118,56.13300000000001L138.88128422100547,56.535000000000004L138.9447486311598,57.681L139.0082130413141,57.657L139.2620706819313,57.38999999999999L139.3255350920856,56.49300000000001L139.38899950223993,58.149L139.57939273270284,58.239000000000004L139.64285714285717,58.098L139.70632155301143,58.089000000000006L139.76978596316576,57.831L139.83325037332006,57.839999999999996L140.02364360378297,57.21900000000001L140.0871080139373,57.303L140.1505724240916,56.979000000000006L140.2140368342459,57.936L140.27750124440018,58.059L140.3409656545545,57.96300000000001L140.84868093578893,58.059L140.91214534594326,57.222L140.97560975609755,57.428999999999995L141.03907416625188,55.422L141.10253857640618,55.620000000000005L141.1660029865605,55.494L141.3563962170234,54.57599999999999L141.4198606271777,54.714L141.483325037332,53.837999999999994L141.5467894474863,53.745000000000005L141.61025385764063,54.144000000000005L141.80064708810352,55.098L141.86411149825784,54.801L141.92757590841214,54.123000000000005L141.99104031856646,53.82299999999999L142.05450472872076,52.97699999999999L142.24489795918367,54.47999999999999L142.30836236933797,54.57599999999999L142.37182677949227,53.688L142.4352911896466,53.676L142.4987555998009,53.43299999999999L142.68914883026383,52.64399999999999L142.7526132404181,52.01700000000001L142.81607765057242,52.775999999999996L142.87954206072672,52.797L142.94300647088104,52.134L143.13339970134396,51.956999999999994L143.19686411149826,52.425L143.26032852165255,53.196L143.32379293180685,53.226L143.38725734196117,53.74799999999999L143.5776505724241,54.42L143.64111498257842,54.150000000000006L143.7045793927327,53.601L143.768043802887,53.147999999999996L143.8315082130413,53.19L144.02190144350422,53.373000000000005L144.08536585365854,52.67100000000001L144.14883026381284,52.30799999999999L144.21229467396716,53.256L144.27575908412143,54.078L144.46615231458438,53.80499999999999L144.52961672473867,53.775000000000006L144.593081134893,54.306L144.6565455450473,54.55200000000001L144.72000995520162,55.16099999999999L144.7834743653559,55.236000000000004L144.84693877551018,54.608999999999995L145.10079641612742,54.78L145.16426082628175,54.632999999999996L145.35465405674464,54.614999999999995L145.41811846689896,54.93300000000001L145.48158287705326,55.152L145.54504728720758,54.53099999999999L145.60851169736188,54.3L145.79890492782476,54.239999999999995L145.8623693379791,54.221999999999994L145.92583374813339,53.985L145.9892981582877,53.577L146.052762568442,53.979L146.24315579890495,53.84100000000001L146.30662020905922,53.973L146.37008461921354,54.09L146.43354902936784,54.20700000000001L146.49701343952214,54.23100000000001L146.56047784967646,54.42899999999999L146.81433549029367,54.081L146.87779990044797,54.036L146.9412643106023,53.913L147.1316575410652,53.958L147.19512195121953,54.084L147.25858636137383,54.06L147.3220507715281,55.11L147.38551518168242,56.120999999999995L147.57590841214534,57.999L147.63937282229966,63.842999999999996L147.70283723245396,64.737L147.76630164260828,62.12400000000001L147.82976605276255,64.38300000000001L148.0201592832255,63.849L148.0836236933798,63.590999999999994L148.1470881035341,63.732L148.2105525136884,66.975L148.2740169238427,69.753L148.46441015430563,68.41499999999999L148.52787456445992,66.96600000000001L148.59133897461425,65.529L148.65480338476854,64.911L148.71826779492287,64.08600000000001L148.90866102538575,63.84L148.97212543554005,62.699999999999996L149.03558984569437,61.473000000000006L149.09905425584867,61.56L149.162518666003,63.366L149.35291189646588,60.842999999999996L149.4163763066202,60.783L149.4798407167745,59.187000000000005L149.54330512692883,58.656L149.60676953708312,58.851L149.79716276754604,56.388L149.86062717770034,56.592L149.92409158785463,56.657999999999994L149.98755599800896,57.489000000000004L150.2414136386262,58.599000000000004L150.3048780487805,59.622L150.3683424589348,60.983999999999995L150.4318068690891,61.650000000000006L150.4952712792434,61.11L150.68566450970633,60.318000000000005L150.74912891986062,61.044000000000004L150.81259333001495,60.92400000000001L150.87605774016922,61.452L150.93952215032354,63.102000000000004L151.12991538078646,63.849L151.19337979094078,64.494L151.25684420109508,65.169L151.3203086112494,65.751L151.3837730214037,65.61599999999999L151.5741662518666,65.05499999999999L151.6376306620209,64.362L151.7010950721752,64.134L151.76455948232953,64.263L151.82802389248383,64.536L152.01841712294674,64.299L152.08188153310104,64.35L152.14534594325536,64.332L152.20881035340966,64.40700000000001L152.27227476356396,63.768L152.46266799402687,63.45L152.52613240418117,62.88L152.5895968143355,62.766000000000005L152.6530612244898,63.092999999999996L152.7165256346441,62.85000000000001L152.90691886510703,61.955999999999996L152.97038327526133,61.242L153.03384768541562,59.925000000000004L153.09731209556992,60.18600000000001L153.16077650572424,60.236999999999995L153.35116973618716,59.333999999999996L153.41463414634148,58.571999999999996L153.47809855649575,57.228L153.54156296665008,56.928000000000004L153.60502737680437,56.456999999999994L153.79542060726732,56.25L153.8588850174216,55.797L153.9223494275759,53.418000000000006L153.9858138377302,55.095L154.0492782478845,57.045L154.23967147834745,56.742L154.30313588850174,56.44800000000001L154.36660029865607,56.480999999999995L154.43006470881036,55.986000000000004L154.49352911896466,55.67999999999999L154.68392234942758,56.00699999999999L154.74738675958187,56.67600000000001L154.8108511697362,56.598L154.8743155798905,56.622L154.93777999004482,55.095L155.1281732205077,53.316L155.19163763066203,52.69200000000001L155.25510204081633,50.843999999999994L155.31856645097065,50.74199999999999L155.38203086112495,49.569L155.57242409158783,48.17399999999999L155.63588850174216,49.89L155.69935291189645,49.557L155.76281732205078,50.361000000000004L155.82628173220508,50.38199999999999L156.016674962668,50.117999999999995L156.0801393728223,51.504000000000005L156.1436037829766,53.601L156.2070681931309,54.45L156.27053260328523,53.727000000000004L156.33399701343953,53.757000000000005L156.90517670482828,52.757999999999996L156.9686411149826,52.70400000000001L157.03210552513687,52.35600000000001L157.0955699352912,52.632000000000005L157.1590343454455,53.34299999999999L157.3494275759084,53.769000000000005L157.41289198606273,53.208L157.47635639621703,52.896L157.53982080637132,52.887L157.60328521652562,52.428L157.79367844698857,52.512L157.85714285714286,52.464L157.92060726729719,52.104L157.98407167745148,52.004999999999995L158.04753608760575,51.71400000000001L158.2379293180687,52.209L158.301393728223,52.572L158.36485813837731,52.416L158.4283225485316,51.813L158.49178695868594,52.428L158.68218018914882,52.775999999999996L158.74564459930315,52.959L158.80910900945744,52.97099999999999L158.87257341961174,53.105999999999995L158.93603782976606,53.43000000000001L159.12643106022895,53.217L159.18989547038328,53.664L159.25335988053757,53.82299999999999L159.3168242906919,53.89800000000001L159.3802887008462,54.489000000000004L159.5706819313091,55.173L159.6341463414634,55.083L159.6976107516177,54.54600000000001L159.76107516177203,53.48100000000001L159.82453957192632,53.43600000000001L160.01493280238927,53.298L160.07839721254354,52.67100000000001L160.14186162269786,51.807L160.20532603285216,51.30300000000001L160.26879044300648,50.80799999999999L160.4591836734694,50.78699999999999L160.5226480836237,50.334L160.586112493778,49.989000000000004L160.64957690393229,50.034000000000006L160.7130413140866,49.70099999999999L160.90343454454953,49.5L160.96689895470385,49.727999999999994L161.03036336485815,49.980000000000004L161.09382777501244,50.150999999999996L161.15729218516674,50.04600000000001L161.34768541562966,49.745999999999995L161.41114982578398,50.11500000000001L161.47461423593828,50.06699999999999L161.5380786460926,49.845L161.60154305624687,49.908L161.7919362867098,49.824L161.8554006968641,49.68600000000001L161.91886510701843,50.349000000000004L161.98232951717273,51.29700000000001L162.04579392732705,51.82799999999999L162.23618715778994,52.176L162.49004479840718,50.625L162.55350920856148,51.144000000000005L162.61697361871578,51.596999999999994L162.68043802887007,51.57900000000001L162.7439024390244,52.263000000000005L162.8073668491787,52.385999999999996L162.870831259333,51.61800000000001L162.9342956694873,50.967L163.1246888999502,51.12899999999999L163.18815331010452,51.345L163.25161772025882,51.327L163.31508213041315,51.786L163.37854654056744,52.467L163.5689397710304,52.71000000000001L163.63240418118465,52.614000000000004L163.69586859133898,51.98400000000001L163.75933300149327,51.59400000000001L163.82279741164757,51.86099999999999L164.01319064211052,51.18900000000001L164.0766550522648,50.913L164.1401194624191,50.727000000000004L164.2035838725734,50.837999999999994L164.26704828272773,50.897999999999996L164.45744151319064,50.727000000000004L164.52090592334494,50.586L164.58437033349927,50.562L164.64783474365353,50.78099999999999L164.71129915380786,50.77499999999999L165.2190144350423,50.727000000000004L165.2824788451966,50.688L165.3459432553509,50.658L165.40940766550523,50.38199999999999L165.47287207565952,50.778000000000006L165.53633648581385,50.328L165.59980089596814,50.304L165.79019412643106,49.836L165.85365853658536,49.69800000000001L165.91712294673968,49.965L165.98058735689398,49.824L166.0440517670483,49.599000000000004L166.2344449975112,51.498000000000005L166.2979094076655,51.444L166.3613738178198,51.92100000000001L166.4248382279741,51.30300000000001L166.48830263812843,51.23400000000001L166.67869586859135,50.661L166.74216027874564,50.955L166.80562468889994,51.230999999999995L166.86908909905426,51.08999999999999L166.93255350920856,50.604L167.12294673967148,50.625L167.1864111498258,50.712L167.24987555998007,50.77499999999999L167.3133399701344,50.40899999999999L167.3768043802887,50.379000000000005L167.56719761075163,50.471999999999994L167.63066202090593,50.46900000000001L167.69412643106025,50.46900000000001L167.75759084121452,50.541L167.82105525136882,50.625L168.01144848183176,51.33L168.07491289198606,52.25699999999999L168.13837730214038,52.64999999999999L168.3922349427576,53.147999999999996L168.4556993529119,52.39500000000001L168.51916376306622,52.782L168.5826281732205,53.385000000000005L168.6460925833748,53.07600000000001L168.70955699352913,53.349000000000004L168.89995022399202,53.733000000000004L168.96341463414635,54.870000000000005L169.02687904430064,53.913L169.09034345445497,53.38199999999999L169.15380786460926,52.989000000000004L169.34420109507218,52.587L169.40766550522648,53.652L169.47112991538077,53.715L169.5345943255351,53.78699999999999L169.5980587356894,55.19999999999999L169.66152314584372,55.482L169.724987555998,55.712999999999994L169.97884519661523,55.260000000000005L170.04230960676955,55.66199999999999L170.23270283723247,55.31100000000001L170.29616724738673,56.897999999999996L170.35963165754106,55.914L170.42309606769535,56.07600000000001L170.48656047784968,56.805L170.6769537083126,56.889L170.74041811846692,56.781L170.8038825286212,55.64099999999999L170.8673469387755,55.461L170.9308113489298,55.46400000000001L171.12120457939272,55.494L171.18466898954705,55.503L171.24813339970135,55.467L171.31159780985564,55.965L171.37506222000994,55.953L171.56545545047288,56.330999999999996L171.62891986062718,56.919L171.6923842707815,55.458L171.7558486809358,55.382999999999996L171.8193130910901,55.074L172.009706321553,54.68100000000001L172.0731707317073,54.498000000000005L172.13663514186163,54.096000000000004L172.20009955201593,53.489999999999995L172.26356396217025,52.96499999999999L172.32702837232452,52.782L172.39049278247884,53.181L172.64435042309609,52.071L172.70781483325038,51.56999999999999L172.89820806371327,51.39L172.9616724738676,50.81999999999999L173.0251368840219,48.468L173.08860129417621,41.289L173.1520657043305,42.59700000000001L173.34245893479343,43.85400000000001L173.40592334494772,44.661L173.46938775510205,49.185L173.53285216525634,50.229L173.59631657541064,51.19199999999999L173.78670980587358,51.19799999999999L173.85017421602785,51.08999999999999L173.91363862618218,51.608999999999995L173.97710303633647,51.968999999999994L174.0405674464908,51.94799999999999L174.2309606769537,51.033L174.29442508710804,50.007000000000005L174.3578894972623,49.385999999999996L174.4213539074166,48.50099999999999L174.48481831757093,47.571L174.67521154803384,47.163L174.73867595818817,46.69200000000001L174.80214036834246,45.867000000000004L174.86560477849676,45.495000000000005L174.92906918865106,44.90100000000001L175.119462419114,43.458L175.1829268292683,42.03L175.2463912394226,38.655L175.30985564957692,38.85300000000001L175.37332005973118,39.756L175.56371329019413,39.653999999999996L175.62717770034843,39.657L175.69064211050275,40.113L175.75410652065705,41.397000000000006L175.81757093081137,41.19600000000001L176.00796416127426,40.94399999999999L176.07142857142856,40.815L176.13489298158288,39.17400000000001L176.19835739173718,37.736999999999995L176.2618218018915,37.340999999999994L176.4522150323544,36.39L176.5156794425087,34.44L176.579143852663,33.09L176.64260826281733,33.003L176.70607267297163,33.617999999999995L176.89646590343452,32.961L176.95993031358884,30.102000000000004L177.02339472374314,31.515L177.08685913389746,31.833L177.15032354405176,33.693L177.3407167745147,34.391999999999996L177.40418118466897,34.28399999999999L177.4676455948233,32.900999999999996L177.5311100049776,32.538L177.59457441513192,32.208L177.78496764559483,32.205L177.84843205574913,32.147999999999996L177.91189646590342,30.52799999999999L177.97536087605772,31.125L178.03882528621205,31.14L178.22921851667496,30.96900000000001L178.2926829268293,29.84700000000001L178.35614733698358,29.03400000000002L178.41961174713788,29.10300000000001L178.48307615729217,29.217000000000013L178.6734693877551,29.294999999999987L178.73693379790942,30.15599999999999L178.8003982080637,30.036L179.05425584868092,32.16L179.11772025883525,31.680000000000007L179.18118466898954,32.13600000000001L179.24464907914387,32.61L179.30811348929817,34.053L179.37157789945246,33.303L179.49850671976105,33.19500000000001L179.56197112991538,33.474000000000004L180.06968641114983,33.294L180.13315082130413,33.23400000000001L180.19661523145842,33.16799999999999L180.26007964161275,33.150000000000006L180.32354405176704,33.327L180.45047287207566,32.418000000000006L180.51393728222996,32.607L180.57740169238426,31.796999999999997L180.64086610253858,31.60799999999999L180.70433051269288,31.320000000000007L180.89472374315582,30.798000000000002L180.95818815331012,30.774L181.0216525634644,30.942000000000007L181.0851169736187,29.991L181.148581383773,29.16300000000001L181.33897461423595,27.67500000000001L181.40243902439025,26.706000000000003L181.46590343454457,26.300999999999988L181.52936784469884,27.87899999999999L181.59283225485316,28.203000000000003L181.78322548531608,28.022999999999996L181.84668989547038,27.462000000000003L181.9101543056247,24.662999999999997L181.973618715779,23.85600000000001L182.0370831259333,22.533L182.2274763563962,18.528000000000006L182.29094076655053,19.584000000000003L182.35440517670483,17.927999999999997L182.41786958685915,17.832000000000008L182.48133399701345,15.756L182.67172722747634,14.823000000000008L182.73519163763066,14.474999999999994L182.79865604778496,14.469000000000008L182.86212045793928,14.945999999999998L182.92558486809358,16.145999999999987L183.1159780985565,16.01400000000001L183.1794425087108,16.197000000000003L183.24290691886512,18.690000000000012L183.3063713290194,19.869L183.36983573917374,22.040999999999997L183.56022896963663,19.341000000000008L183.62369337979092,19.284000000000006L183.68715778994525,19.527L183.75062220009954,18.67800000000001L183.81408661025387,18.30000000000001L184.00447984071678,16.556999999999988L184.06794425087108,14.294999999999987L184.13140866102538,15.366L184.1948730711797,16.929000000000002L184.258337481334,18.141000000000005L184.4487307117969,16.710000000000008L184.51219512195124,16.727999999999994L184.5756595321055,16.283999999999992L184.63912394225983,15.713999999999984L184.70258835241412,15.392999999999986L184.89298158287707,15.366L184.95644599303137,16.169999999999987L185.0199104031857,16.145999999999987L185.08337481333996,16.56899999999999L185.14683922349425,16.385999999999996L185.3372324539572,16.668000000000006L185.4006968641115,16.095L185.52762568442012,14.543999999999997L185.5910900945744,14.213999999999999L185.78148332503733,13.808999999999997L185.84494773519165,14.256L185.90841214534595,15.593999999999994L185.97187655550024,16.218000000000018L186.03534096565457,16.533L186.22573419611746,16.590000000000003L186.28919860627178,17.283000000000015L186.35266301642608,18.809999999999988L186.4161274265804,18.59700000000001L186.4795918367347,18.50099999999999L186.66998506719762,18.227999999999994L186.7334494773519,19.104L186.7969138875062,20.924999999999997L186.86037829766053,19.76400000000001L186.92384270781483,20.042999999999992L187.05077152812345,21.093000000000004L187.11423593827774,22.542L187.17770034843204,22.989000000000004L187.24116475858636,22.62899999999999L187.30462916874066,22.908000000000015L187.81234444997511,23.745000000000005L187.8758088601294,23.766000000000005L188.00273768043803,23.022000000000006L188.06620209059236,23.087999999999994L188.12966650074662,23.634L188.19313091090095,23.71499999999999L188.25659532105524,23.474999999999994L188.44698855151816,22.887L188.51045296167248,21.786000000000016L188.57391737182678,21.714L188.63738178198108,22.23899999999999L188.70084619213537,23.334000000000003L188.89123942259832,24.50399999999999L188.9547038327526,26.045999999999992L189.01816824290694,24.75L189.08163265306123,27.326999999999998L189.14509706321553,26.411999999999992L189.33549029367845,25.337999999999994L189.39895470383274,23.18100000000001L189.46241911398707,22.79400000000001L189.52588352414136,22.925999999999988L189.5893479342957,23.61L189.77974116475858,23.87699999999998L189.8432055749129,24.066000000000003L189.9066699850672,24.531000000000006L189.97013439522152,24.52799999999999L190.03359880537582,25.479000000000013L190.2239920358387,25.995000000000005L190.28745644599303,24.726000000000013L190.35092085614733,24.168000000000006L190.41438526630165,24.28200000000001L190.47784967645595,25.119L190.66824290691886,24.686999999999998L190.73170731707316,24.617999999999995L190.79517172722748,24.665999999999983L190.85863613738178,24.593999999999994L190.92210054753608,23.700000000000003L191.11249377799902,24.27900000000001L191.1759581881533,24.239999999999995L191.2394225983076,24.153000000000006L191.3028870084619,23.217000000000013L191.36635141861623,22.863L191.62020905923347,23.51400000000001L191.68367346938774,23.429999999999993L191.74713787954204,23.616000000000014L191.81060228969636,24.438000000000017L192.00099552015928,24.717L192.0644599303136,24.650999999999996L192.1279243404679,25.161L192.1913887506222,27.63000000000001L192.2548531607765,27.015L192.44524639123944,27.015L192.50871080139373,27.575999999999993L192.57217521154803,27.795L192.63563962170235,28.823999999999998L192.69910403185662,29.12700000000001L192.88949726231957,29.589L192.95296167247386,29.640000000000015L193.0164260826282,28.65599999999999L193.2702837232454,27.14399999999999L193.3337481333997,26.673000000000002L193.397212543554,27.302999999999997L193.46067695370832,27.62699999999998L193.5241413638626,28.709999999999994L193.58760577401694,29.89200000000001L193.77799900447982,29.942999999999998L193.84146341463415,29.67L193.90492782478844,28.293000000000006L193.96839223494277,28.64399999999999L194.03185664509706,28.329000000000008L194.22224987555998,28.122000000000014L194.28571428571428,28.307999999999993L194.34917869586857,28.317000000000007L194.4126431060229,28.99799999999999L194.4761075161772,29.33099999999999L194.66650074664014,29.643L194.72996515679444,29.570999999999984L194.79342956694873,30.807000000000002L194.85689397710303,31.308000000000007L194.92035838725735,31.650000000000006L195.17421602787456,33.792L195.2376804380289,33.995999999999995L195.30114484818316,33.653999999999996L195.36460925833748,33.003L195.5550024888004,32.955L195.61846689895472,34.23299999999999L195.68193130910902,34.769999999999996L195.74539571926334,34.548L195.8088601294176,33.60600000000001L195.99925335988053,34.32000000000001L196.06271777003485,34.584L196.12618218018915,34.30800000000001L196.18964659034347,34.194L196.25311100049777,34.59L196.44350423096068,34.095L196.50696864111498,34.754999999999995L196.5704330512693,34.908L196.6338974614236,34.578L196.6973618715779,34.566L196.8877551020408,34.391999999999996L196.9512195121951,34.161L197.01468392234943,32.652L197.07814833250373,31.748999999999995L197.14161274265805,31.070999999999998L197.33200597312094,31.430999999999997L197.39547038327527,30.98100000000001L197.45893479342956,31.221000000000004L197.52239920358386,31.08L197.58586361373818,30.920999999999992L197.7762568442011,30.801000000000002L197.8397212543554,30.323999999999998L197.9031856645097,29.265000000000015L197.96665007466402,27.705L198.0301144848183,27.471000000000004L198.22050771528126,28.049999999999983L198.28397212543555,28.04100000000001L198.34743653558982,28.842000000000013L198.41090094574415,28.659000000000006L198.47436535589844,29.09400000000001L198.6647585863614,29.247L198.72822299651568,29.001000000000005L198.79168740667,28.893L198.85515181682428,29.74199999999999L198.9186162269786,29.921999999999997L199.10900945744152,30.218999999999994L199.1724738675958,30.539999999999992L199.23593827775014,30.339L199.29940268790443,30.507000000000005L199.36286709805873,30.348L199.55326032852165,30.381L199.61672473867597,30.692999999999998L199.68018914883027,30.912000000000006L199.7436535589846,31.766999999999996L199.8071179691389,30.96900000000001L199.99751119960177,31.503L200.0609756097561,30.006L200.1244400199104,29.424000000000007L200.18790443006472,29.643L200.25136884021902,29.664000000000016L200.44176207068193,29.349000000000004L200.50522648083623,29.35199999999999L200.56869089099055,29.861999999999995L200.63215530114485,30.539999999999992L200.69561971129917,30.78L200.88601294176206,30.729000000000013L200.94947735191636,30.711L201.01294176207068,30.200999999999993L201.07640617222498,30.419999999999987L201.1398705823793,30.402L201.39372822299651,30.408L201.4571926331508,28.94099999999999L201.52065704330514,28.659000000000006L201.58412145345943,29.09099999999998L201.77451468392235,29.843999999999994L201.83797909407667,29.36099999999999L201.90144350423094,30.11699999999999L201.96490791438526,31.212000000000003L202.02837232453956,32.685L202.2187655550025,32.268L202.2822299651568,32.840999999999994L202.34569437531113,31.745999999999995L202.4091587854654,32.153999999999996L202.4726231956197,32.147999999999996L202.5995520159283,31.808999999999997L202.66301642608263,32.184L202.72648083623693,32.49600000000001L203.23419611747138,32.510999999999996L203.29766052762568,32.355000000000004L203.36112493778,32.34599999999999L203.42458934793427,33.13499999999999L203.5515181682429,33.345L203.61498257839722,36.82199999999999L203.6784469885515,38.412000000000006L203.74191139870584,39.144000000000005L203.80537580886013,41.538L203.99576903932305,42.245999999999995L204.05923344947735,43.34100000000001L204.12269785963164,43.31999999999999L204.18616226978597,42.92699999999999L204.24962667994026,42.57299999999999L204.44001991040318,42.254999999999995L204.50348432055748,43.31399999999999L204.5669487307118,43.30799999999999L204.6304131408661,43.074L204.69387755102042,43.038L204.88427078148334,44.42700000000001L204.9477351916376,44.994L205.01119960179193,46.03800000000001L205.07466401194623,45.735L205.13812842210055,47.703L205.32852165256347,49.236000000000004L205.3919860627178,50.163L205.45545047287206,48.543000000000006L205.51891488302638,47.007000000000005L205.58237929318068,45.735L205.7727725236436,44.852999999999994L205.83623693379792,45.777L205.89970134395222,46.845L205.9631657541065,45.239999999999995L206.0266301642608,44.298L206.21702339472375,48.611999999999995L206.28048780487805,48.333L206.34395221503237,47.688L206.40741662518667,47.268L206.47088103534094,47.60400000000001L206.66127426580388,47.858999999999995L206.72473867595818,45.644999999999996L206.7882030861125,43.428L206.8516674962668,42.345L206.91513190642112,39.825L207.105525136884,38.135999999999996L207.16898954703834,38.307L207.23245395719263,41.352000000000004L207.29591836734693,39.396L207.35938277750125,39.52499999999999L207.54977600796414,39.10799999999999L207.61324041811847,39.882000000000005L207.67670482827276,41.36099999999999L207.7401692384271,41.42999999999999L207.80363364858138,42.19200000000001L207.99402687904433,42.033L208.0574912891986,42.477000000000004L208.1209556993529,44.742000000000004L208.18442010950722,43.932L208.2478845196615,43.68900000000001L208.43827775012446,43.75200000000001L208.50174216027875,44.00699999999999L208.56520657043305,44.313L208.8190642110503,44.028000000000006L208.88252862120459,44.02499999999999L208.94599303135888,43.938L209.0094574415132,44.631L209.07292185166747,43.986000000000004L209.1363862618218,43.96799999999999L209.32677949228471,43.923L209.39024390243904,45.99300000000001L209.45370831259333,46.512L209.51717272274766,45.870000000000005L209.58063713290193,47.655L209.77103036336484,47.646L209.83449477351917,47.709L209.89795918367346,48.242999999999995L209.9614235938278,48.762L210.02488800398208,49.185L210.215281234445,49.887L210.2787456445993,50.05200000000001L210.34221005475362,48.21000000000001L210.40567446490792,47.33999999999999L210.46913887506224,47.283L210.65953210552513,48.411L210.72299651567943,48.318L210.78646092583375,48.57000000000001L210.84992533598805,49.452L210.91338974614237,49.137L211.10378297660526,49.848L211.16724738675958,49.86L211.23071179691388,51.17700000000001L211.2941762070682,52.24499999999999L211.3576406172225,53.28599999999999L211.48456943753112,53.418000000000006L211.54803384768542,53.885999999999996L211.6114982578397,53.89800000000001L212.11921353907417,54.357L212.18267794922846,53.991L212.24614235938276,53.43000000000001L212.30960676953708,53.34299999999999L212.4365355898457,52.83L212.5,52.146L212.56346441015432,52.596000000000004L212.6269288203086,51.150000000000006L212.69039323046292,50.80499999999999L212.88078646092583,49.83L212.94425087108016,50.034000000000006L213.00771528123445,50.897999999999996L213.07117969138875,51.342L213.13464410154305,49.869L213.32503733200596,49.58099999999999L213.3885017421603,50.19L213.45196615231458,49.56L213.5154305624689,49.69800000000001L213.5788949726232,51L213.76928820308612,50.76899999999999L213.83275261324042,50.589L213.8962170233947,50.04899999999999L213.95968143354904,48.321L214.02314584370333,46.842L214.21353907416625,46.071L214.27700348432055,45.813L214.34046789447487,46.113L214.40393230462917,47.367000000000004L214.4673967147835,47.685L214.72125435540067,45.99900000000001L214.784718765555,45.399L214.8481831757093,45.590999999999994L214.91164758586362,45.498000000000005L215.10204081632654,45.60900000000001L215.16550522648083,45.24900000000001L215.22896963663513,47.04600000000001L215.29243404678945,46.941L215.35589845694375,47.745000000000005L215.54629168740667,50.20500000000001L215.609756097561,51.111000000000004L215.67322050771526,51.03899999999999L215.73668491786958,50.97L215.80014932802388,50.538L215.99054255848682,51.50699999999999L216.05400696864112,51.86699999999999L216.11747137879544,51.992999999999995L216.1809357889497,52.089L216.43479342956695,51.69L216.49825783972125,51.87899999999999L216.56172224987557,51.272999999999996L216.62518666002987,51.10799999999999L216.68865107018416,52.149L216.87904430064708,53.084999999999994L216.9425087108014,54.54600000000001L217.0059731209557,57.735L217.06943753111003,60.029999999999994L217.13290194126432,57.897L217.3232951717272,56.979000000000006L217.38675958188153,56.511L217.45022399203583,55.842L217.51368840219016,55.980000000000004L217.57715281234445,54.711L217.76754604280737,54.13199999999999L217.83101045296166,53.214L217.894474863116,54.426L217.95793927327028,49.431L218.02140368342458,43.575L218.2117969138875,48.641999999999996L218.2752613240418,50.595L218.33872573419612,51.093L218.4021901443504,51.492000000000004L218.46565455450474,51.777L218.65604778496765,51.629999999999995L218.71951219512195,51.61800000000001L218.78297660527625,51.384L218.84644101543054,50.757000000000005L218.90990542558487,51.435L219.10029865604778,50.44799999999999L219.1637630662021,50.7L219.22722747635638,50.79600000000001L219.2906918865107,52.998000000000005L219.354156296665,53.568L219.60801393728224,53.32499999999999L219.67147834743653,52.68600000000001L219.73494275759083,52.67999999999999L219.79840716774513,52.66799999999999L219.98880039820807,52.212L220.05226480836237,52.86L220.1157292185167,54.14699999999999L220.179193628671,53.682L220.24265803882528,54.441L220.4330512692882,55.83600000000001L220.4965156794425,55.25699999999999L220.55998008959682,55.61099999999999L220.62344449975112,56.178L220.68690890990544,55.68900000000001L220.87730214036833,55.032L220.94076655052265,54.20700000000001L221.00423096067695,54.19200000000001L221.06769537083127,54.657L221.13115978098557,54.68100000000001L221.32155301144846,54.653999999999996L221.38501742160278,53.997L221.44848183175708,54.593999999999994L221.5119462419114,54.324L221.5754106520657,54.587999999999994L221.76580388252862,54.507000000000005L221.8292682926829,54.837L221.89273270283724,54.605999999999995L221.95619711299153,54.465L222.01966152314586,53.89800000000001L222.21005475360877,53.13900000000001L222.27351916376307,53.34299999999999L222.33698357391737,53.17200000000001L222.40044798407166,54.384L222.46391239422599,54.423L222.6543056246889,53.89200000000001L222.71777003484323,51.72L222.78123444499752,51.288L222.84469885515182,51.285L222.90816326530611,51.54900000000001L223.09855649576903,51.666L223.16202090592336,51.336L223.22548531607765,51.072L223.28894972623198,51.009L223.35241413638624,51.831L223.5428073668492,52.068L223.60627177700349,53.28L223.6697361871578,53.562L223.7332005973121,54.31500000000001L223.7966650074664,54.489000000000004L223.98705823792932,55.41300000000001L224.05052264808361,55.953L224.11398705823794,55.173L224.36784469885515,55.062L224.43130910900945,53.619L224.49477351916377,54.14699999999999L224.55823792931807,53.907L224.62170233947236,53.727000000000004L224.6851667496267,53.649L224.87555998008958,54.3L224.9390243902439,54.801L225.0024888003982,55.278000000000006L225.06595321055252,54.483000000000004L225.12941762070682,55.113L225.31981085116976,55.284000000000006L225.38327526132403,54.084L225.44673967147833,55.032L225.51020408163265,55.605000000000004L225.57366849178695,55.893L225.7640617222499,56.826L225.8275261324042,57.93299999999999L225.89099054255848,58.047L226.3987058237929,58.337999999999994L226.46217023394723,60.471L226.52563464410153,61.086L226.65256346441015,60.777L226.71602787456447,62.028000000000006L226.77949228471877,63.596999999999994L226.8429566948731,62.526L226.90642110502736,60.699L227.09681433549028,60.621L227.1602787456446,62.553000000000004L227.2237431557989,62.45399999999999L227.28720756595322,62.841L227.35067197610752,63.147000000000006L227.54106520657044,64.06800000000001L227.60452961672473,65.42699999999999L227.66799402687906,65.11500000000001L227.73145843703335,62.892L227.79492284718768,62.292L227.98531607765057,62.532000000000004L228.04878048780486,61.772999999999996L228.1122448979592,60.399L228.17570930811348,60.623999999999995L228.2391737182678,60.678000000000004L228.4295669487307,58.14000000000001L228.49303135888502,58.010999999999996L228.55649576903932,59.052L228.61996017919364,59.45399999999999L228.68342458934794,60.177L228.87381781981085,60.327L228.93728222996515,59.83800000000001L229.00074664011944,59.297999999999995L229.06421105027377,59.64300000000001L229.12767546042807,60.36900000000001L229.318068690891,60.041999999999994L229.3815331010453,60.818999999999996L229.4449975111996,61.562999999999995L229.5084619213539,62.556L229.5719263315082,62.808L229.76231956197114,63.312L229.82578397212544,63.14099999999999L229.88924838227976,62.760000000000005L229.95271279243403,63.762L230.01617720258835,63.732L230.20657043305127,63.779999999999994L230.2700348432056,64.56899999999999L230.3334992533599,65.09100000000001L230.39696366351419,64.932L230.46042807366848,65.232L230.6508213041314,64.452L230.71428571428572,64.99799999999999L230.77775012444002,65.172L230.84121453459434,66.81L230.90467894474864,67.785L231.09507217521156,68.787L231.15853658536585,69.921L231.22200099552015,69.402L231.28546540567447,69.9L231.34892981582877,70.107L231.53932304629168,70.017L231.60278745644598,69.94200000000001L231.6662518666003,68.667L231.7297162767546,68.67L231.9835739173718,67.221L232.0470383275261,66.072L232.11050273768043,66.951L232.17396714783473,67.113L232.23743155798905,67.69200000000001L232.42782478845197,68.988L232.49128919860627,69.927L232.55475360876056,71.829L232.6182180189149,71.56200000000001L232.68168242906918,70.986L232.8720756595321,70.51499999999999L232.93554006968643,69.864L232.9990044798407,68.991L233.06246888999502,69.675L233.1259333001493,69.816L233.31632653061226,67.19399999999999L233.37979094076655,66.81L233.44325535092088,65.682L233.50671976107515,66.25800000000001L233.57018417122947,67.25099999999999" fill="none" stroke="#af516c" stroke-linejoin="round" stroke-linecap="round" stroke-width="2"></path></g></g></svg>