<svg xmlns="http://www.w3.org/2000/svg" viewBox="0 0 304 270"><style>/* <![CDATA[ */.chart-title{font-size:20px;fill:#43423e}.chart-subtitle{font-size:15px;fill:#74736c}.chart-source{font-size:10px;fill-opacity:.4}.axis .domain{fill:none;stroke:#74736c}.tick line{fill:none;stroke:#000;stroke-opacity:.2}.tick text{fill-opacity:.6;font-size:12px}.y.axis .tick line{stroke-dasharray:1}.y.axis .domain{fill:none;stroke-opacity:0}.y.axis .highlight-line{fill:none;stroke:#74736c}/* ]]> */</style><text class="chart-title" y="22">中国平均年薪</text><text class="chart-subtitle" y="42">同比增长率％</text><text class="chart-source" y="265">来源:CEIC╱国家统计局. 2017年5月27日</text><g transform="translate(1,100)"><g class="x axis" transform="translate(0,120)" fill="none" font-size="10" font-family="sans-serif" text-anchor="middle"><path class="domain" stroke="#000" d="M0.5,0V0.5H255.5V0"></path><g class="tick" opacity="1" transform="translate(28.829885616938427,0)"><line stroke="#000" y2="6"></line><text fill="#000" y="9" dy="0.71em">1980</text></g><g class="tick" opacity="1" transform="translate(85.50517157459235,0)"><line stroke="#000" y2="6"></line><text fill="#000" y="9" dy="0.71em">1990</text></g><g class="tick" opacity="1" transform="translate(142.16494280846922,0)"><line stroke="#000" y2="6"></line><text fill="#000" y="9" dy="0.71em">2000</text></g><g class="tick" opacity="1" transform="translate(198.84022876612315,0)"><line stroke="#000" y2="6"></line><text fill="#000" y="9" dy="0.71em">2010</text></g><g class="tick" opacity="1" transform="translate(255.5,0)"><line stroke="#000" y2="6"></line><text fill="#000" y="9" dy="0.71em">2020</text></g></g><g class="y axis" transform="translate(255,0)" fill="none" font-size="10" font-family="sans-serif" text-anchor="start"><path class="domain" stroke="#000" d="M0,120.5H0.5V0.5H0"></path><g class="tick" opacity="1" transform="translate(0,88.73529411764706)"><line stroke="#000" x2="-255"></line><text fill="#000" x="3" dy="0.32em">10</text></g><g class="tick" opacity="1" transform="translate(0,53.44117647058823)"><line stroke="#000" x2="-255"></line><text fill="#000" x="3" dy="0.32em">20</text></g><g class="tick" opacity="1" transform="translate(0,18.14705882352942)"><line stroke="#000" x2="-255"></line><text fill="#000" x="3" dy="0.32em">30</text></g></g><g><path d="M27.854100754441472,93.11334289813487L33.53248965685082,73.86403663261711L39.195363835483086,118.89763779527559L44.85823801411536,111.64279183175861L50.52111219274763,111.14551083591331L56.19950109515697,60.290556900726386L61.86237527378924,60.47831863751661L67.52524945242152,67.88276286124206L73.18812363105378,89.00544416412163L78.86651253346314,53.860420110470514L84.5293867120954,85.54833496077309L90.19226089072768,86.13771089831282L95.85513506935995,90.54425508521166L101.53352397176928,67.5716440422323L107.19639815040156,37.60496452361838L112.85927232903383,1.3453853804945481L118.5221465076661,60.5319783268089L124.20053541007545,81.82058163579569L129.86340958870773,96.14400944324217L135.52628376733998,68.64935918501479L141.18915794597225,82.14912072806561L146.8675468483816,80.50953522411488L152.53042102701386,66.76688032975967L158.19329520564617,73.39313055848146L163.85616938427842,78.0033374377796L169.53455828668774,74.23538675975796L175.19743246532005,72.9825598581141L180.8603066439523,72.02327084680027L186.52318082258455,58.12292696134842L192.20156972499393,63.89447409561292L197.86444390362618,82.6635671917047L203.52731808225843,76.51656122069222L209.19019226089074,72.7214917823502L214.86858116330006,81.56387079341891L220.53145534193234,87.95531982597824L226.19432952056462,90.09518847455071L231.85720369919687,88.02863941886193L237.53559260160623,92.0071541489607" fill="none" stroke="#af516c" stroke-linejoin="round" stroke-linecap="round" stroke-width="2"></path></g></g></svg>