<svg xmlns="http://www.w3.org/2000/svg" viewBox="0 0 304 270"><style>/* <![CDATA[ */.chart-title{font-size:20px;fill:#43423e}.chart-subtitle{font-size:15px;fill:#74736c}.chart-source{font-size:10px;fill-opacity:.4}.axis .domain{fill:none;stroke:#74736c}.tick line{fill:none;stroke:#000;stroke-opacity:.2}.tick text{fill-opacity:.6;font-size:12px}.y.axis .tick line{stroke-dasharray:1}.y.axis .domain{fill:none;stroke-opacity:0}.y.axis .highlight-line{fill:none;stroke:#74736c}/* ]]> */</style><text class="chart-title" y="22">中国失业率</text><text class="chart-subtitle" y="42">占劳动人口比例%</text><text class="chart-source" y="265">来源:CEIC. 2018年5月4日</text><g transform="translate(1,100)"><g class="x axis" transform="translate(0,120)" fill="none" font-size="10" font-family="sans-serif" text-anchor="middle"><path class="domain" stroke="#000" d="M0.5,0V0.5H255.5V0"></path><g class="tick" opacity="1" transform="translate(0.5,0)"><line stroke="#000" y2="6"></line><text fill="#000" y="9" dy="0.71em">1990</text></g><g class="tick" opacity="1" transform="translate(46.029480786154295,0)"><line stroke="#000" y2="6"></line><text fill="#000" y="9" dy="0.71em">1995</text></g><g class="tick" opacity="1" transform="translate(91.55896157230859,0)"><line stroke="#000" y2="6"></line><text fill="#000" y="9" dy="0.71em">2000</text></g><g class="tick" opacity="1" transform="translate(137.11337635670284,0)"><line stroke="#000" y2="6"></line><text fill="#000" y="9" dy="0.71em">2005</text></g><g class="tick" opacity="1" transform="translate(182.64285714285714,0)"><line stroke="#000" y2="6"></line><text fill="#000" y="9" dy="0.71em">2010</text></g><g class="tick" opacity="1" transform="translate(228.17233792901143,0)"><line stroke="#000" y2="6"></line><text fill="#000" y="9" dy="0.71em">2015</text></g></g><g class="y axis" transform="translate(255,0)" fill="none" font-size="10" font-family="sans-serif" text-anchor="start"><path class="domain" stroke="#000" d="M0,120.5H0.5V0.5H0"></path><g class="tick" opacity="1" transform="translate(0,120.5)"><line stroke="#000" x2="-255"></line><text fill="#000" x="3" dy="0.32em">3.0</text></g><g class="tick" opacity="1" transform="translate(0,90.5)"><line stroke="#000" x2="-255"></line><text fill="#000" x="3" dy="0.32em">3.5</text></g><g class="tick" opacity="1" transform="translate(0,60.5)"><line stroke="#000" x2="-255"></line><text fill="#000" x="3" dy="0.32em">4.0</text></g><g class="tick" opacity="1" transform="translate(0,30.5)"><line stroke="#000" x2="-255"></line><text fill="#000" x="3" dy="0.32em">4.5</text></g><g class="tick" opacity="1" transform="translate(0,0.5)"><line stroke="#000" x2="-255"></line><text fill="#000" x="3" dy="0.32em">5.0</text></g></g><g><path d="M17.437176102473842,6.600007800000029L26.563019458296665,36.60000780000003L35.66392881587954,40.200004800000016L44.7648381734624,39.59999100000002L53.86574753104527,26.999988599999966L62.991590886868096,24.599991000000017L72.09250024445097,24.000005999999985L81.19340960203384,16.199998799999975L90.2943189596167,18.000011400000034L99.42016231543953,28.199987400000012L108.52107167302239,28.199987400000012L117.62198103060527,35.40000899999998L126.72289038818813,41.999988599999966L135.84873374401096,41.999988599999966L144.9496431015938,51.60000780000003L154.05055245917669,60L163.15146181675954,74.40000060000001L172.2773051725824,38.39999219999997L181.37821453016525,42.71999340000002L190.47912388774813,48.000011400000034L199.58003324533098,39.59999100000002L208.70587660115382,31.800012599999988L217.8067859587367,27.60000239999998L226.90769531631955,24.420003599999973L236.00860467390243,23.699998799999975L245.13444802972523,21.05998980000001L254.2353573873081,19.499988599999966" fill="none" stroke="#af516c" stroke-linejoin="round" stroke-linecap="round" stroke-width="2"></path></g></g></svg>