<svg xmlns="http://www.w3.org/2000/svg" viewBox="0 0 304 270"><style>/* <![CDATA[ */.chart-title{font-size:20px;fill:#43423e}.chart-subtitle{font-size:15px;fill:#74736c}.chart-source{font-size:10px;fill-opacity:.4}.axis .domain{fill:none;stroke:#74736c}.tick line{fill:none;stroke:#000;stroke-opacity:.2}.tick text{fill-opacity:.6;font-size:12px}.y.axis .tick line{stroke-dasharray:1}.y.axis .domain{fill:none;stroke-opacity:0}.y.axis .highlight-line{fill:none;stroke:#74736c}/* ]]> */</style><text class="chart-title" y="22">中国经常账户余额</text><text class="chart-subtitle" y="42">占GDP比例(%)</text><text class="chart-source" y="265">来源:CEIC. 2018年3月29日</text><g transform="translate(1,100)"><g class="x axis" transform="translate(0,120)" fill="none" font-size="10" font-family="sans-serif" text-anchor="middle"><path class="domain" stroke="#000" d="M0.5,0V0.5H255.5V0"></path><g class="tick" opacity="1" transform="translate(20.102990732940185,0)"><line stroke="#000" y2="6"></line><text fill="#000" y="9" dy="0.71em">2006</text></g><g class="tick" opacity="1" transform="translate(59.308972198820555,0)"><line stroke="#000" y2="6"></line><text fill="#000" y="9" dy="0.71em">2008</text></g><g class="tick" opacity="1" transform="translate(98.56866048862679,0)"><line stroke="#000" y2="6"></line><text fill="#000" y="9" dy="0.71em">2010</text></g><g class="tick" opacity="1" transform="translate(137.77464195450716,0)"><line stroke="#000" y2="6"></line><text fill="#000" y="9" dy="0.71em">2012</text></g><g class="tick" opacity="1" transform="translate(177.0343302443134,0)"><line stroke="#000" y2="6"></line><text fill="#000" y="9" dy="0.71em">2014</text></g><g class="tick" opacity="1" transform="translate(216.24031171019377,0)"><line stroke="#000" y2="6"></line><text fill="#000" y="9" dy="0.71em">2016</text></g><g class="tick" opacity="1" transform="translate(255.5,0)"><line stroke="#000" y2="6"></line><text fill="#000" y="9" dy="0.71em">2018</text></g></g><g class="y axis" transform="translate(255,0)" fill="none" font-size="10" font-family="sans-serif" text-anchor="start"><path class="domain" stroke="#000" d="M0,120.5H0.5V0.5H0"></path><g class="tick" opacity="1" transform="translate(0,120.5)"><line stroke="#000" x2="-255"></line><text fill="#000" x="3" dy="0.32em">0</text></g><g class="tick" opacity="1" transform="translate(0,100.5)"><line stroke="#000" x2="-255"></line><text fill="#000" x="3" dy="0.32em">2</text></g><g class="tick" opacity="1" transform="translate(0,80.5)"><line stroke="#000" x2="-255"></line><text fill="#000" x="3" dy="0.32em">4</text></g><g class="tick" opacity="1" transform="translate(0,60.5)"><line stroke="#000" x2="-255"></line><text fill="#000" x="3" dy="0.32em">6</text></g><g class="tick" opacity="1" transform="translate(0,40.5)"><line stroke="#000" x2="-255"></line><text fill="#000" x="3" dy="0.32em">8</text></g><g class="tick" opacity="1" transform="translate(0,20.5)"><line stroke="#000" x2="-255"></line><text fill="#000" x="3" dy="0.32em">10</text></g><g class="tick" opacity="1" transform="translate(0,0.5)"><line stroke="#000" x2="-255"></line><text fill="#000" x="3" dy="0.32em">12</text></g><line class="highlight-line" x1="0" y1="120" x2="-255" y2="120"></line></g><g><path d="M3.186604886267902,71.2326004L8.127632687447347,65.6361041L13.06866048862679,63.256025799999996L17.95598146588037,51.735922900000006L22.78959561920809,61.9327519L27.73062342038753,47.908154100000004L32.671651221566975,33.99730740000001L37.55897219882056,8.85004099999999L42.39258635214827,29.598607200000004L47.333614153327716,17.457667200000017L52.27464195450716,12.961954999999989L57.16196293176074,24.168755999999988L62.04928390901432,35.213965099999996L66.99031171019377,35.6748503L71.93133951137321,29.040637000000004L76.81866048862679,17.4927397L81.6522746419545,57.8435609L86.59330244313395,87.7234763L91.5343302443134,85.5867398L96.42165122156698,58.5879094L101.25526537489469,100.5232764L106.19629317607414,89.9957898L111.13732097725358,67.3612574L116.02464195450716,71.9150291L120.85825610783488,119.0555787L125.79928390901432,96.153441L130.74031171019377,98.55820489999999L135.62763268744735,97.7646733L140.51495366470093,104.6708572L145.45598146588037,91.6335812L150.39700926705981,85.09483460000001L155.2843302443134,98.8618558L160.1179443976411,100.3452988L165.05897219882056,101.7598874L170,106.9460364L174.88732097725358,108.4551534L179.7209351305813,117.6234385L184.66196293176074,89.93871279999999L189.60299073294019,90.800536L194.49031171019377,94.0215405L199.32392586352148,88.590267L204.26495366470093,91.8669853L209.20598146588037,95.7816L214.09330244313395,92.2368363L218.98062342038753,101.398974L223.92165122156698,96.06831600000001L228.86267902274642,93.6002494L233.75,115.2458896L238.58361415332772,114.0041309L243.52464195450716,102.02243899999999L248.4656697556866,109.1806362L253.35299073294019,102.442349" fill="none" stroke="#af516c" stroke-linejoin="round" stroke-linecap="round" stroke-width="2"></path></g></g></svg>