<svg xmlns="http://www.w3.org/2000/svg" viewBox="0 0 304 270"><style>/* <![CDATA[ */.chart-title{font-size:20px;fill:#43423e}.chart-subtitle{font-size:15px;fill:#74736c}.chart-source{font-size:10px;fill-opacity:.4}.axis .domain{fill:none;stroke:#74736c}.tick line{fill:none;stroke:#000;stroke-opacity:.2}.tick text{fill-opacity:.6;font-size:12px}.y.axis .tick line{stroke-dasharray:1}.y.axis .domain{fill:none;stroke-opacity:0}.y.axis .highlight-line{fill:none;stroke:#74736c}/* ]]> */</style><text class="chart-title" y="22">中国经济活动指标</text><text class="chart-subtitle" y="42">年化月率 %</text><text class="chart-source" y="265">来源:CEIC. 2018年1月18日</text><g transform="translate(1,100)"><g class="x axis" transform="translate(0,120)" fill="none" font-size="10" font-family="sans-serif" text-anchor="middle"><path class="domain" stroke="#000" d="M0.5,0V0.5H255.5V0"></path><g class="tick" opacity="1" transform="translate(0.5,0)"><line stroke="#000" y2="6"></line><text fill="#000" y="9" dy="0.71em">2013</text></g><g class="tick" opacity="1" transform="translate(42.98060246462802,0)"><line stroke="#000" y2="6"></line><text fill="#000" y="9" dy="0.71em">2014</text></g><g class="tick" opacity="1" transform="translate(85.46120492925604,0)"><line stroke="#000" y2="6"></line><text fill="#000" y="9" dy="0.71em">2015</text></g><g class="tick" opacity="1" transform="translate(127.94180739388406,0)"><line stroke="#000" y2="6"></line><text fill="#000" y="9" dy="0.71em">2016</text></g><g class="tick" opacity="1" transform="translate(170.53879507074396,0)"><line stroke="#000" y2="6"></line><text fill="#000" y="9" dy="0.71em">2017</text></g><g class="tick" opacity="1" transform="translate(213.01939753537198,0)"><line stroke="#000" y2="6"></line><text fill="#000" y="9" dy="0.71em">2018</text></g><g class="tick" opacity="1" transform="translate(255.5,0)"><line stroke="#000" y2="6"></line><text fill="#000" y="9" dy="0.71em">2019</text></g></g><g class="y axis" transform="translate(255,0)" fill="none" font-size="10" font-family="sans-serif" text-anchor="start"><path class="domain" stroke="#000" d="M0,120.5H0.5V0.5H0"></path><g class="tick" opacity="1" transform="translate(0,120.5)"><line stroke="#000" x2="-255"></line><text fill="#000" x="3" dy="0.32em">5</text></g><g class="tick" opacity="1" transform="translate(0,85.20588235294117)"><line stroke="#000" x2="-255"></line><text fill="#000" x="3" dy="0.32em">10</text></g><g class="tick" opacity="1" transform="translate(0,49.91176470588235)"><line stroke="#000" x2="-255"></line><text fill="#000" x="3" dy="0.32em">15</text></g><g class="tick" opacity="1" transform="translate(0,14.617647058823536)"><line stroke="#000" x2="-255"></line><text fill="#000" x="3" dy="0.32em">20</text></g></g><g class="chart-key" transform="translate(0, -35)"><g class="key-element" transform="translate(0,0)"><text x="28" font-size="12">固定资产投资（最近一年）</text><line x1="0" x2="25" y1="-5" y2="-5" stroke-width="2" fill="none" stroke="#af516c"></line></g><g class="key-element" transform="translate(0,20)"><text x="28" font-size="12">零售总额</text><line x1="0" x2="25" y1="-5" y2="-5" stroke-width="2" fill="none" stroke="#76acb8"></line></g><g class="key-element" transform="translate(0,40)"><text x="28" font-size="12">工业生产</text><line x1="0" x2="25" y1="-5" y2="-5" stroke-width="2" fill="none" stroke="#ecafaf"></line></g></g><g><path d="M0.03879507074395253,5.64705882352942L3.646736649931538,5.64705882352942L6.905522592423551,7.764705882352956L10.513464171611135,9.882352941176464L14.005020538566864,11.29411764705884L17.61296211775445,13.411764705882348L21.104518484710177,13.411764705882348L24.712460063897765,12L28.32040164308535,12.705882352941188L31.811958010041078,13.411764705882348L35.41989958922866,14.823529411764724L38.91145595618439,16.941176470588232L42.51939753537197,28.941176470588232L46.12733911455956,28.941176470588232L49.38612505705157,31.058823529411768L52.99406663623916,33.176470588235276L56.48562300319489,33.882352941176464L60.09356458238248,33.176470588235276L63.585120949338204,35.29411764705881L67.19306252852579,38.823529411764696L70.80100410771337,41.64705882352939L74.29256047466909,43.058823529411754L77.90050205385668,43.76470588235293L81.39205842081242,44.470588235294116L85,57.17647058823529L88.60794157918758,57.17647058823529L91.86672752167959,60L95.47466910086719,70.58823529411765L98.96622546782291,74.82352941176471L102.57416704701049,74.82352941176471L106.06572341396623,76.23529411764706L109.6736649931538,78.35294117647058L113.2816065723414,82.58823529411764L116.77316293929712,83.29411764705883L120.3811045184847,83.29411764705883L123.87266088544044,84.70588235294117L127.48060246462802,83.29411764705883L131.0885440438156,83.29411764705883L134.46371519853946,79.76470588235294L138.07165677772707,81.17647058823529L141.56321314468278,87.52941176470588L145.1711547238704,91.76470588235294L148.6627110908261,98.11764705882354L152.27065267001367,98.11764705882354L155.87859424920129,97.41176470588235L159.370150616157,96.70588235294117L162.97809219534457,96.70588235294117L166.4696485623003,98.11764705882354L170.0775901414879,92.47058823529412L173.6855317206755,92.47058823529412L176.9443176631675,90.3529411764706L180.5522592423551,92.47058823529412L184.04381560931083,94.58823529411765L187.6517571884984,94.58823529411765L191.14331355545414,96.70588235294117L194.75125513464172,100.23529411764706L198.3591967138293,102.35294117647058L201.85075308078504,103.76470588235294L205.45869465997262,104.47058823529412L208.95025102692836,104.47058823529412L212.55819260611594,99.52941176470588L216.1661341853035,99.52941176470588L219.42492012779553,102.35294117647058" fill="none" stroke="#af516c" stroke-linejoin="round" stroke-linecap="round" stroke-width="2"></path><path d="M6.905522592423551,66.3529411764706L10.513464171611135,64.94117647058823L14.005020538566864,64.23529411764706L17.61296211775445,61.41176470588235L21.104518484710177,62.117647058823536L24.712460063897765,60.705882352941174L28.32040164308535,61.41176470588235L31.811958010041078,61.41176470588235L35.41989958922866,58.58823529411765L38.91145595618439,59.294117647058826M49.38612505705157,69.1764705882353L52.99406663623916,71.29411764705883L56.48562300319489,67.05882352941177L60.09356458238248,67.76470588235294L63.585120949338204,69.1764705882353L67.19306252852579,71.29411764705883L70.80100410771337,73.41176470588236L74.29256047466909,74.11764705882354L77.90050205385668,72.70588235294119L81.39205842081242,71.29411764705883M91.86672752167959,83.29411764705883L95.47466910086719,84.70588235294117L98.96622546782291,84L102.57416704701049,80.47058823529412L106.06572341396623,81.17647058823529L109.6736649931538,79.05882352941175L113.2816065723414,78.35294117647058L116.77316293929712,77.6470588235294L120.3811045184847,76.23529411764706L123.87266088544044,76.94117647058823M134.46371519853946,81.17647058823529L138.07165677772707,84L141.56321314468278,84.70588235294117L145.1711547238704,80.47058823529412L148.6627110908261,83.29411764705883L152.27065267001367,80.47058823529412L155.87859424920129,79.76470588235294L159.370150616157,84.70588235294117L162.97809219534457,79.05882352941175L166.4696485623003,78.35294117647058M176.9443176631675,78.35294117647058L180.5522592423551,79.76470588235294L184.04381560931083,79.76470588235294L187.6517571884984,77.6470588235294L191.14331355545414,81.88235294117646L194.75125513464172,84L198.3591967138293,82.58823529411764L201.85075308078504,84.70588235294117L205.45869465997262,83.29411764705883L208.95025102692836,88.94117647058823" fill="none" stroke="#76acb8" stroke-linejoin="round" stroke-linecap="round" stroke-width="2"></path><path d="M6.905522592423551,92.47058823529412L10.513464171611135,89.6470588235294L14.005020538566864,90.3529411764706L17.61296211775445,92.47058823529412L21.104518484710177,86.82352941176471L24.712460063897765,81.88235294117646L28.32040164308535,83.29411764705883L31.811958010041078,82.58823529411764L35.41989958922866,84.70588235294117L38.91145595618439,86.82352941176471M49.38612505705157,93.17647058823529L52.99406663623916,93.88235294117648L56.48562300319489,93.17647058823529L60.09356458238248,90.3529411764706L63.585120949338204,91.76470588235294L67.19306252852579,106.58823529411765L70.80100410771337,98.8235294117647L74.29256047466909,100.94117647058823L77.90050205385668,104.47058823529412L81.39205842081242,99.52941176470588M91.86672752167959,115.76470588235294L95.47466910086719,113.6470588235294L98.96622546782291,112.23529411764706L102.57416704701049,107.29411764705883L106.06572341396623,112.94117647058823L109.6736649931538,112.23529411764706L113.2816065723414,115.05882352941177L116.77316293929712,115.76470588235294L120.3811045184847,111.52941176470588L123.87266088544044,113.6470588235294M134.46371519853946,107.29411764705883L138.07165677772707,112.94117647058823L141.56321314468278,112.94117647058823L145.1711547238704,111.52941176470588L148.6627110908261,112.94117647058823L152.27065267001367,110.82352941176471L155.87859424920129,112.23529411764706L159.370150616157,112.23529411764706L162.97809219534457,111.52941176470588L166.4696485623003,112.94117647058823M176.9443176631675,101.64705882352942L180.5522592423551,109.41176470588235L184.04381560931083,109.41176470588235L187.6517571884984,101.64705882352942L191.14331355545414,110.11764705882352L194.75125513464172,112.94117647058823L198.3591967138293,108.70588235294117L201.85075308078504,111.52941176470588L205.45869465997262,112.23529411764706L208.95025102692836,111.52941176470588" fill="none" stroke="#ecafaf" stroke-linejoin="round" stroke-linecap="round" stroke-width="2"></path></g></g></svg>