<svg xmlns="http://www.w3.org/2000/svg" viewBox="0 0 304 270"><style>/* <![CDATA[ */.chart-title{font-size:20px;fill:#43423e}.chart-subtitle{font-size:15px;fill:#74736c}.chart-source{font-size:10px;fill-opacity:.4}.axis .domain{fill:none;stroke:#74736c}.tick line{fill:none;stroke:#000;stroke-opacity:.2}.tick text{fill-opacity:.6;font-size:12px}.y.axis .tick line{stroke-dasharray:1}.y.axis .domain{fill:none;stroke-opacity:0}.y.axis .highlight-line{fill:none;stroke:#74736c}/* ]]> */</style><text class="chart-title" y="22">中国10年债券</text><text class="chart-subtitle" y="42">％</text><text class="chart-source" y="265">来源:彭博. 2018年5月4日</text><g transform="translate(1,100)"><g class="x axis" transform="translate(0,120)" fill="none" font-size="10" font-family="sans-serif" text-anchor="middle"><path class="domain" stroke="#000" d="M0.5,0V0.5H255.5V0"></path><g class="tick" opacity="1" transform="translate(18.703598670056717,0)"><line stroke="#000" y2="6"></line><text fill="#000" y="9" dy="0.71em">2006</text></g><g class="tick" opacity="1" transform="translate(55.110796010170155,0)"><line stroke="#000" y2="6"></line><text fill="#000" y="9" dy="0.71em">2008</text></g><g class="tick" opacity="1" transform="translate(91.56786622335224,0)"><line stroke="#000" y2="6"></line><text fill="#000" y="9" dy="0.71em">2010</text></g><g class="tick" opacity="1" transform="translate(127.97506356346567,0)"><line stroke="#000" y2="6"></line><text fill="#000" y="9" dy="0.71em">2012</text></g><g class="tick" opacity="1" transform="translate(164.43213377664776,0)"><line stroke="#000" y2="6"></line><text fill="#000" y="9" dy="0.71em">2014</text></g><g class="tick" opacity="1" transform="translate(200.8393311167612,0)"><line stroke="#000" y2="6"></line><text fill="#000" y="9" dy="0.71em">2016</text></g><g class="tick" opacity="1" transform="translate(237.29640132994328,0)"><line stroke="#000" y2="6"></line><text fill="#000" y="9" dy="0.71em">2018</text></g></g><g class="y axis" transform="translate(255,0)" fill="none" font-size="10" font-family="sans-serif" text-anchor="start"><path class="domain" stroke="#000" d="M0,120.5H0.5V0.5H0"></path><g class="tick" opacity="1" transform="translate(0,120.5)"><line stroke="#000" x2="-255"></line><text fill="#000" x="3" dy="0.32em">2</text></g><g class="tick" opacity="1" transform="translate(0,80.5)"><line stroke="#000" x2="-255"></line><text fill="#000" x="3" dy="0.32em">3</text></g><g class="tick" opacity="1" transform="translate(0,40.5)"><line stroke="#000" x2="-255"></line><text fill="#000" x="3" dy="0.32em">4</text></g><g class="tick" opacity="1" transform="translate(0,0.5)"><line stroke="#000" x2="-255"></line><text fill="#000" x="3" dy="0.32em">5</text></g></g><g><path d="M7.796792489732056,35.59999999999998L7.996283982006649,49.640000000000015L8.145902601212596,49.75999999999999L8.295521220418541,56.76L8.345394093487188,56.6L8.495012712693134,56.279999999999994L8.544885585761783,51.60000000000001L8.594758458830432,56.31999999999999L8.69450420496773,56.56L8.844122824173676,56.31999999999999L8.943868570310972,56.56L8.993741443379621,56.31999999999999L9.193232935654214,56.120000000000005L9.243105808722863,56.24L9.292978681791512,57.08L9.342851554860161,59.80000000000001L9.392724427928808,59.04L9.592215920203403,59.04L9.642088793272052,60.92L9.891453158615294,60.760000000000005L9.941326031683943,60.96L9.991198904752592,61L10.041071777821239,60.519999999999996L10.240563270095835,61.03999999999999L10.290436143164483,61.03999999999999L10.340309016233132,61.519999999999996L10.789164873850968,67.28L10.938783493056913,62.6L11.138274985331508,69.64L11.437512223743399,66.44L11.487385096812048,66.47999999999999L11.686876589086642,55.56L12.484842558185019,67.68L22.808527283395264,86.96L22.858400156463915,85.84L22.908273029532563,85.28L22.95814590260121,85.24000000000001L23.00801877566986,85L23.157637394875806,85.56L23.207510267944453,85.56L23.257383141013104,85.39999999999999L23.30725601408175,85.56L23.357128887150402,85.60000000000001L23.506747506356348,84.80000000000001L23.556620379424995,83.72L23.606493252493642,83L23.656366125562293,82.88L23.70623899863094,81.6L23.855857617836886,83.44L23.905730490905537,80.84L23.955603363974184,81.44L24.005476237042835,81.56L24.055349110111482,81.16L24.554077840797966,80.64L24.603950713866613,81.4L24.653823586935264,80.19999999999999L24.70369646000391,81.28L24.75356933307256,80.19999999999999L24.903187952278508,80.92000000000002L24.953060825347155,80.72L25.002933698415802,80.52L25.052806571484453,80.8L25.1026794445531,80.44L25.252298063759046,81.12L25.302170936827697,81.6L25.352043809896344,82L25.40191668296499,81.67999999999999L25.451789556033642,81.6L25.601408175239584,80.52L25.65128104830823,80.52L25.701153921376882,80.72L25.75102679444553,80.67999999999999L25.800899667514177,80.72L25.950518286720126,80.64L26.000391159788773,80.76L26.05026403285742,80.72L26.10013690592607,80.6L26.15000977899472,80.48L26.299628398200664,79.36L26.349501271269315,78.6L26.399374144337962,79L26.44924701740661,78.32000000000001L26.49911989047526,77.96L26.648738509681205,75.76L26.698611382749853,75.84L26.748484255818504,76.16L26.79835712888715,76.64L26.848230001955802,76L26.997848621161747,75.03999999999999L27.04772149423039,75.03999999999999L27.097594367299042,74.75999999999999L27.14746724036769,74.64000000000001L27.197340113436336,74.39999999999999L27.346958732642282,74.08L27.396831605710933,73.75999999999999L27.44670447877958,73.68L27.49657735184823,73.72L27.546450224916878,73.44L27.696068844122824,73.48L27.745941717191474,74.08L27.79581459026012,73.52000000000001L27.84568746332877,73.16000000000001L27.89556033639742,72.75999999999999L28.045178955603365,73.24000000000001L28.095051828672013,72.91999999999999L28.144924701740663,72.28L28.19479757480931,72.56L28.244670447877958,73.84L28.394289067083907,71.44L28.44416194015255,70.67999999999999L28.494034813221198,70.19999999999999L28.54390768628985,69.11999999999999L28.593780559358496,68.84L28.74339917856444,68.48L28.793272051633092,69.2L28.84314492470174,69.07999999999998L28.893017797770387,69.52L28.942890670839038,68.68L29.092509290044983,69.52L29.14238216311363,70.16L29.19225503618228,70.36L29.24212790925093,70.72L29.29200078231958,70.47999999999999L29.441619401525525,71.16L29.491492274594172,71.51999999999998L29.54136514766282,71.72L29.59123802073147,71.92L29.641110893800118,71.88L29.790729513006063,71.24000000000001L29.84060238607471,71L29.890475259143358,71.28L29.94034813221201,72.04L29.990221005280656,72.12L30.1398396244866,72.04L30.189712497555252,71.8L30.2395853706239,71.6L30.289458243692547,71.64L30.339331116761198,72.28L30.488949735967143,72.08L30.53882260903579,72.16L30.58869548210444,72.28L30.63856835517309,72.16L30.688441228241736,72.4L30.838059847447685,72.44L30.887932720516332,72.72L30.93780559358498,72.72L30.98767846665363,72.72L31.037551339722278,72.75999999999999L31.187169958928223,72.91999999999999L31.23704283199687,72.91999999999999L31.286915705065518,73.44L31.336788578134165,73.84L31.386661451202816,74L31.53628007040876,75.48L31.58615294347741,76.08000000000001L31.63602581654606,75.8L31.685898689614707,76.83999999999999L31.735771562683357,78.56L32.23450029336984,78.56L32.28437316643849,78.44L32.334246039507136,80.67999999999999L32.38411891257579,80.07999999999998L32.43399178564443,80L32.58361040485038,80.19999999999999L32.63348327791903,80.96000000000001L32.68335615098768,79.88L32.73322902405633,80.6L32.78310189712498,81.88000000000001L32.93272051633092,81.4L32.982593389399575,81.96000000000001L33.03246626246822,81.88000000000001L33.08233913553687,80.67999999999999L33.132212008605514,84.03999999999999L33.281830627811466,82L33.33170350088011,81.52000000000001L33.381576373948754,82.2L33.431449247017405,81.92L33.481322120086055,81.63999999999999L33.630940739292,81.35999999999999L33.680813612360645,81.47999999999999L33.730686485429295,81.56L33.780559358497946,81.8L33.8304322315666,81.6L33.980050850772535,81.03999999999999L34.02992372384119,80.88000000000001L34.07979659690984,80.64L34.12966946997849,80.56L34.17954234304713,81L34.329160962253084,80.92000000000002L34.37903383532173,80.39999999999999L34.42890670839038,80.84L34.47877958145902,79.88L34.52865245452768,78.32000000000001L34.67827107373362,78.32000000000001L34.72814394680227,79.03999999999999L34.77801681987092,79.52000000000001L34.827889692939564,78.84L34.877762566008215,79.16L35.02738118521416,79.64L35.07725405828281,79.44000000000001L35.127126931351455,79.64L35.176999804420106,79.36L35.22687267748875,78.88L35.3764912966947,78.16L35.426364169763346,78.24L35.476237042832,78.32000000000001L35.52610991590064,78.52000000000001L35.5759827889693,78.6L35.72560140817524,78.36L35.77547428124389,78.48000000000002L35.82534715431254,78.2L35.87522002738119,78.64000000000001L35.92509290044983,78.48000000000002L36.074711519655786,78.2L36.12458439272443,78.4L36.17445726579307,78.4L36.224330138861724,78.36L36.27420301193037,77.68L36.573440250342266,78.56L36.62331312341092,78.48000000000002L36.772931742616855,77.79999999999998L36.822804615685506,78.28L36.87267748875416,78.72L36.92255036182281,79.08L36.97242323489145,79L37.122041854097404,78.88L37.17191472716605,78.84L37.2217876002347,79.03999999999999L37.27166047330334,78.48000000000002L37.32153334637199,78.84L37.47115196557794,78.36L37.52102483864659,78.16L37.57089771171523,78.64000000000001L37.620770584783884,78.44L37.670643457852535,78.36L37.82026207705847,78.32000000000001L37.87013495012713,78.52000000000001L37.920007823195775,77.72L37.969880696264426,78.2L38.01975356933307,77.96L38.16937218853902,77.68L38.219245061607666,77.84L38.269117934676316,77.68L38.31899080774496,78.12L38.36886368081361,77.84L38.518482300019556,76.8L38.56835517308821,76L38.61822804615685,76L38.66810091922551,76L38.71797379229415,75.60000000000001L39.21670252298064,75.60000000000001L39.266575396049284,76L39.316448269117934,75.60000000000001L39.36632114218658,75.19999999999999L39.416194015255236,74.80000000000001L39.565812634461174,75.19999999999999L39.615685507529825,73.2L39.665558380598476,73.6L39.71543125366713,73.2L39.76530412673577,73.2L39.914922745941716,73.2L39.96479561901037,73.2L40.01466849207902,72.8L40.06454136514766,72.8L40.11441423821631,73.2L40.26403285742226,70L40.31390573049091,69.60000000000001L40.36377860355955,66.8L40.413651476628196,65.6L40.463524349696854,66L40.61314296890279,66L40.66301584197144,64.80000000000001L40.712888715040094,64L40.762761588108745,64L40.81263446117739,65.19999999999999L40.96225308038334,61.6L41.012125953451985,61.6L41.061998826520636,61.99999999999999L41.11187169958928,61.99999999999999L41.16174457265793,61.6L41.311363191863876,61.20000000000001L41.36123606493253,60.8L41.41110893800117,60.8L41.46098181106982,60.8L41.51085468413847,60.39999999999999L41.66047330334442,60.8L41.71034617641306,59.199999999999996L41.76021904948172,59.6L41.81009192255036,57.599999999999994L41.85996479561901,56.79999999999999L42.00958341482496,57.599999999999994L42.0594562878936,56L42.109329160962254,56.40000000000001L42.1592020340309,55.60000000000001L42.20907490709955,55.19999999999999L42.358693526305494,54.39999999999999L42.75767651085468,54.39999999999999L42.80754938392334,54.8L42.85742225699198,54.000000000000014L42.90729513006063,53.599999999999994L43.05691374926658,54.000000000000014L43.10678662233523,53.2L43.15665949540387,53.599999999999994L43.206532368472516,50.39999999999999L43.25640524154117,50.39999999999999L43.40602386074711,46.8L43.45589673381576,45.19999999999999L43.50576960688441,43.599999999999994L43.555642479953065,40L43.60551535302171,39.60000000000001L43.755133972227654,41.2L43.805006845296305,39.20000000000002L43.854879718364955,38.79999999999998L43.9047525914336,41.599999999999994L43.95462546450225,43.2L44.104244083708195,40L44.154116956776846,40L44.20398982984549,39.60000000000001L44.25386270291414,38.39999999999999L44.303735575982785,38.000000000000014L44.45335419518874,36.000000000000014L44.50322706825738,35.2L44.55309994132603,35.2L44.60297281439468,32.39999999999999L44.652845687463326,29.200000000000017L44.80246430666927,26.000000000000014L44.85233717973792,31.599999999999994L44.90221005280657,28L44.95208292587522,25.19999999999999L45.00195579894387,23.599999999999994L45.15157441814981,22.80000000000001L45.201447291218464,22.80000000000001L45.25132016428711,22.399999999999977L45.30119303735576,22.80000000000001L45.35106591042441,22.80000000000001L45.500684529630355,21.60000000000001L45.550557402699,21.60000000000001L45.60043027576766,21.200000000000017L45.6503031488363,21.60000000000001L45.70017602190495,20.39999999999999L45.84979464111089,20L45.89966751417955,19.60000000000001L45.94954038724819,18.799999999999997L45.99941326031684,19.60000000000001L46.049286133385486,20L46.19890475259143,19.60000000000001L46.24877762566008,20.39999999999999L46.298650498728726,20.39999999999999L46.34852337179738,20L46.39839624486603,20.39999999999999L46.54801486407197,20.39999999999999L46.59788773714062,20.39999999999999L46.647760610209275,21.60000000000001L46.69763348327792,21.200000000000017L46.74750635634657,22.399999999999977L46.897124975552515,22.80000000000001L46.946997848621166,23.599999999999994L46.99687072168981,26.000000000000014L47.04674359475846,26.000000000000014L47.096616467827104,26.400000000000006L47.24623508703306,24.40000000000002L47.2961079601017,25.19999999999999L47.34598083317035,25.19999999999999L47.395853706238995,25.599999999999994L47.445726579307646,25.599999999999994L47.59534519851359,26.000000000000014L47.645218071582235,24.799999999999997L47.69509094465089,24.40000000000002L47.74496381771954,26.000000000000014L47.79483669078819,24.799999999999997L47.94445530999413,24.799999999999997L47.994328183062784,25.599999999999994L48.04420105613143,26.400000000000006L48.09407392920008,25.599999999999994L48.14394680226872,29.60000000000001L48.293565421474675,29.200000000000017L48.34343829454332,28.799999999999983L48.39331116761197,29.60000000000001L48.44318404068062,28L48.49305691374927,28.799999999999983L48.64267553295521,30L48.69254840602387,28.799999999999983L48.74242127909251,28.400000000000006L48.79229415216116,28L48.842167025229806,27.19999999999999L48.99178564443575,26.799999999999997L49.0416585175044,26.799999999999997L49.091531390573046,25.599999999999994L49.1414042636417,25.19999999999999L49.19127713671034,29.200000000000017L49.34089575591629,23.999999999999986L49.39076862898494,21.999999999999986L49.44064150205359,20.799999999999983L49.49051437512224,21.200000000000017L49.54038724819089,20L49.69000586739683,20.39999999999999L49.739878740465485,20.39999999999999L49.78975161353413,20.799999999999983L49.83962448660278,21.60000000000001L49.889497359671424,22.399999999999977L50.38822609035791,21.60000000000001L50.438098963426555,22.399999999999977L50.487971836495205,21.999999999999986L50.537844709563856,21.60000000000001L50.58771758263251,21.999999999999986L50.737336201838446,23.200000000000003L50.7872090749071,23.200000000000003L50.83708194797575,22.80000000000001L50.8869548210444,22.399999999999977L50.93682769411304,22.399999999999977L51.086446313318994,22.80000000000001L51.13631918638764,21.60000000000001L51.18619205945629,20L51.23606493252493,20L51.28593780559359,20.39999999999999L51.43555642479953,20.799999999999983L51.48542929786818,20L51.53530217093683,20L51.58517504400548,20L51.635047917074125,19.200000000000017L51.78466653628007,18.400000000000006L51.83453940934872,18L51.884412282417365,18.799999999999997L51.934285155486016,18.400000000000006L51.98415802855466,17.59999999999998L52.13377664776061,16.799999999999997L52.183649520829256,17.19999999999999L52.23352239389791,16.799999999999997L52.28339526696655,16.400000000000006L52.33326814003521,16.400000000000006L52.48288675924115,17.19999999999999L52.5327596323098,17.19999999999999L52.58263250537845,16.799999999999997L52.6325053784471,16.799999999999997L52.68237825151574,18L52.831996870721696,17.19999999999999L52.88186974379034,18L52.93174261685899,17.19999999999999L52.981615489927634,18L53.031488362996285,18.400000000000006L53.18110698220223,19.200000000000017L53.230979855270874,18.799999999999997L53.280852728339525,18.400000000000006L53.330725601408176,18.799999999999997L53.38059847447683,18.799999999999997L53.530217093682765,19.200000000000017L53.580089966751416,19.200000000000017L53.62996283982007,19.200000000000017L53.67983571288872,20.39999999999999L53.72970858595736,19.60000000000001L53.879327205163314,19.200000000000017L53.92920007823196,20.39999999999999L53.97907295130061,20.39999999999999L54.02894582436925,20.39999999999999L54.0788186974379,20.39999999999999L54.22843731664385,20L54.2783101897125,20L54.32818306278114,21.200000000000017L54.3780559358498,20.799999999999983L54.427928808918445,21.60000000000001L54.677293174261685,21.200000000000017L54.727166047330336,21.200000000000017L54.77703892039898,21.60000000000001L54.92665753960493,21.60000000000001L54.976530412673576,21.999999999999986L55.02640328574223,21.999999999999986L55.07627615881087,21.200000000000017L55.12614903187952,21.999999999999986L55.27576765108547,21.999999999999986L55.32564052415412,21.999999999999986L55.37551339722276,21.999999999999986L55.42538627029142,21.999999999999986L55.47525914336006,21.999999999999986L55.62487776256601,21.999999999999986L55.67475063563466,23.599999999999994L55.72462350870331,24.40000000000002L55.774496381771954,25.19999999999999L55.824369254840605,25.599999999999994L55.97398787404655,26.000000000000014L56.023860747115194,25.599999999999994L56.073733620183845,25.599999999999994L56.12360649325249,26.000000000000014L56.173479366321146,30.39999999999999L56.323097985527085,34.400000000000006L56.372970858595735,33.599999999999994L56.77195384314493,33.2L56.82182671621357,32.80000000000001L56.87169958928222,33.2L57.02131820848817,32.80000000000001L57.07119108155682,31.200000000000017L57.12106395462546,32L57.17093682769411,32.39999999999999L57.220809700762764,31.599999999999994L57.3704283199687,32.39999999999999L57.42030119303735,32.39999999999999L57.470174066106004,32.80000000000001L57.520046939174655,32.80000000000001L57.5699198122433,33.2L57.71953843144925,33.2L57.769411304517895,33.599999999999994L57.819284177586546,32.39999999999999L57.86915705065519,33.599999999999994L57.91902992372384,33.2L58.068648542929786,33.2L58.11852141599844,33.2L58.16839428906708,33.2L58.21826716213573,33.599999999999994L58.26814003520438,33.2L58.41775865441033,33.599999999999994L58.46763152747897,33.599999999999994L58.51750440054763,33.599999999999994L58.56737727361627,33.599999999999994L58.617250146684924,33.599999999999994L58.76686876589087,33.999999999999986L58.81674163895951,33.999999999999986L58.866614512028164,34.400000000000006L58.91648738509681,35.2L58.96636025816546,36.400000000000006L59.115978877371404,35.2L59.165851750440055,34.80000000000001L59.2157246235087,36.400000000000006L59.26559749657736,36.8L59.56483473498925,36.8L59.61470760805789,36.8L59.66458048112654,36.8L59.81419910033249,36.8L59.86407197340114,37.19999999999999L59.91394484646978,36.8L59.96381771953843,37.60000000000002L60.01369059260708,37.19999999999999L60.16330921181302,37.60000000000002L60.21318208488167,37.60000000000002L60.26305495795032,38.000000000000014L60.312927831018975,37.19999999999999L60.36280070408762,37.19999999999999L60.512419323293564,36.8L60.562292196362215,37.19999999999999L60.612165069430866,36.400000000000006L60.861529434774106,36.400000000000006L60.911402307842756,36.400000000000006L60.9612751809114,36.400000000000006L61.01114805398005,35.59999999999998L61.061020927048695,35.59999999999998L61.21063954625465,35.2L61.26051241932329,34.400000000000006L61.31038529239194,35.2L61.36025816546059,34.400000000000006L61.410131038529244,33.999999999999986L61.55974965773518,33.599999999999994L61.60962253080383,33.599999999999994L61.659495403872484,34.400000000000006L61.70936827694113,33.2L61.75924115000978,33.2L61.908859769215724,33.599999999999994L61.958732642284374,33.599999999999994L62.00860551535302,33.2L62.05847838842167,32.80000000000001L62.10835126149032,32.80000000000001L62.257969880696265,32L62.30784275376491,32L62.35771562683357,32L62.40758849990221,32L62.45746137297086,32L62.65695286524546,31.599999999999994L62.7068257383141,29.200000000000017L62.75669861138275,29.60000000000001L62.806571484451396,27.19999999999999L62.95619010365734,28.400000000000006L63.00606297672599,26.400000000000006L63.055935849794636,28L63.10580872286329,28.400000000000006L63.15568159593194,24.799999999999997L63.30530021513788,23.200000000000003L63.35517308820653,23.599999999999994L63.405045961275185,23.599999999999994L63.45491883434383,22.80000000000001L63.50479170741248,18.400000000000006L63.654410326618425,19.200000000000017L63.704283199687076,17.19999999999999L63.75415607275573,17.19999999999999L63.80402894582437,17.19999999999999L63.853901818893014,17.19999999999999L64.00352043809896,16.799999999999997L64.05339331116761,16.400000000000006L64.10326618423626,15.599999999999994L64.15313905730491,18L64.20301193037356,18L64.3526305495795,18L64.40250342264815,18L64.4523762957168,18.799999999999997L64.50224916878544,18.799999999999997L64.55212204185409,18.799999999999997L64.70174066106004,18.400000000000006L64.75161353412868,19.200000000000017L64.80148640719734,20L64.851359280266,18.799999999999997L64.90123215333463,20.39999999999999L65.05085077254058,19.60000000000001L65.10072364560924,20.39999999999999L65.15059651867787,20L65.20046939174654,18.799999999999997L65.25034226481517,20.799999999999983L65.39996088402113,20.39999999999999L65.44983375708978,20.39999999999999L65.49970663015841,20.799999999999983L65.54957950322706,20.39999999999999L65.59945237629573,18.400000000000006L65.74907099550165,18L65.7989438685703,18.799999999999997L65.84881674163897,19.200000000000017L65.8986896147076,19.60000000000001L65.94856248777626,20.39999999999999L66.09818110698221,20.799999999999983L66.14805398005085,21.200000000000017L66.1979268531195,21.60000000000001L66.24779972618815,22.399999999999977L66.2976725992568,22.399999999999977L66.44729121846275,22.399999999999977L66.49716409153139,22.399999999999977L66.54703696460004,25.599999999999994L66.59690983766868,25.19999999999999L66.64678271073734,25.599999999999994L66.79640132994328,31.200000000000017L66.84627420301193,33.599999999999994L66.89614707608058,34.400000000000006L66.94601994914923,33.999999999999986L66.99589282221787,32.80000000000001L67.14551144142382,32.80000000000001L67.19538431449247,33.599999999999994L67.24525718756111,35.2L67.29513006062977,35.2L67.34500293369841,38.000000000000014L67.54449442597301,46L67.59436729904165,46L67.69411304517897,48.8L67.84373166438489,48L67.89360453745356,47.599999999999994L67.9434774105222,47.599999999999994L67.99335028359084,47.599999999999994L68.0432231566595,48L68.54195188734599,48.8L68.59182476041462,51.999999999999986L68.64169763348328,54.000000000000014L68.69157050655193,68L68.74144337962058,68.4L68.89106199882652,70L68.94093487189518,68L68.99080774496382,69.60000000000001L69.04068061803247,68.4L69.0905534911011,71.6L69.24017211030706,67.6L69.29004498337571,67.2L69.33991785644436,68L69.38979072951301,70L69.43966360258165,70.80000000000001L69.5892822217876,70.39999999999999L69.63915509485625,70.39999999999999L69.68902796792489,72.8L69.73890084099355,75.60000000000001L69.7887737140622,75.60000000000001L69.93839233326814,74.80000000000001L69.98826520633679,75.19999999999999L70.03813807940544,76.4L70.08801095247408,76.8L70.13788382554273,77.6L70.28750244474868,78.80000000000001L70.33737531781732,80L70.38724819088598,81.6L70.43712106395462,84L70.48699393702327,83.2L70.63661255622922,80L70.68648542929786,80L70.73635830236651,79.19999999999999L70.78623117543518,77.2L70.83610404850381,77.2L70.98572266770977,77.6L71.03559554077842,75.19999999999999L71.08546841384705,72.8L71.1353412869157,80L71.18521415998435,79.19999999999999L71.3348327791903,78.4L71.38470565225894,77.6L71.4345785253276,78.80000000000001L71.48445139839625,80.39999999999999L71.5343242714649,83.2L71.68394289067083,82.4L71.73381576373949,80.39999999999999L71.78368863680814,80.8L71.83356150987679,80L71.88343438294544,80L72.03305300215139,82.8L72.08292587522003,82.8L72.13279874828868,86.4L72.18267162135731,88.39999999999999L72.23254449442598,89.60000000000001L72.38216311363192,90.39999999999999L72.43203598670057,90L72.48190885976922,88.8L72.53178173283786,89.60000000000001L72.58165460590651,89.60000000000001L72.73127322511246,89.60000000000001L72.7811460981811,89.60000000000001L72.83101897124975,89.60000000000001L73.080383336593,90L73.13025620966165,90.39999999999999L73.18012908273029,91.6L73.23000195579894,90.39999999999999L73.27987482886759,92L73.42949344807353,91.20000000000002L73.4793663211422,88.8L73.52923919421083,86.4L73.57911206727948,84L73.62898494034813,82.8L73.77860355955407,84L73.82847643262272,83.2L73.87834930569139,78L73.92822217876002,78L73.97809505182867,79.19999999999999L74.47682378251515,76.8L74.5266966555838,74.80000000000001L74.57656952865246,74.80000000000001L74.6264424017211,68.4L74.67631527478974,72.4L74.8259338939957,72L74.87580676706435,70L74.925679640133,70L74.97555251320165,74L75.02542538627029,74.39999999999999L75.17504400547624,73.2L75.22491687854489,71.19999999999999L75.27478975161353,70.80000000000001L75.32466262468219,72.4L75.37453549775083,74L75.52415411695678,74.39999999999999L75.57402699002543,74.80000000000001L75.62389986309407,74.80000000000001L75.67377273616272,75.19999999999999L75.72364560923137,76L75.87326422843731,75.19999999999999L75.92313710150596,74.80000000000001L75.97300997457462,74.80000000000001L76.02288284764326,71.6L76.07275572071191,70.39999999999999L76.22237433991786,72.4L76.2722472129865,72.8L76.32212008605515,74L76.3719929591238,74.80000000000001L76.42186583219245,75.19999999999999L76.5714844513984,75.19999999999999L76.62135732446704,75.19999999999999L76.67123019753569,75.60000000000001L76.72110307060434,75.19999999999999L76.770975943673,74.80000000000001L76.92059456287893,75.19999999999999L76.9704674359476,74.80000000000001L77.02034030901623,75.19999999999999L77.07021318208488,74.80000000000001L77.12008605515352,74.39999999999999L77.26970467435947,74L77.31957754742812,73.6L77.36945042049676,72.4L77.41932329356543,72.8L77.46919616663408,72.4L77.66868765890867,72L77.71856053197732,72L77.76843340504595,72L77.81830627811462,72L77.96792489732056,72L78.01779777038921,72L78.06767064345786,72.4L78.1175435165265,72.8L78.16741638959515,72.8L78.3170350088011,72.8L78.36690788186974,73.2L78.4167807549384,72.8L78.46665362800704,72.8L78.51652650107569,72.8L78.66614512028164,73.2L78.71601799335028,73.2L78.76589086641893,73.6L78.81576373948758,73.6L79.01525523176217,74.39999999999999L79.06512810483083,75.19999999999999L79.11500097789947,76.4L79.16487385096812,76.4L79.21474672403676,76.8L79.36436534324271,76.8L79.41423821631136,77.2L79.46411108938001,76.8L79.51398396244866,76.8L79.56385683551731,77.6L79.71347545472325,77.6L79.7633483277919,77.6L79.81322120086055,77.6L79.86309407392919,77.6L79.91296694699786,77.2L80.0625855662038,77.6L80.11245843927244,77.6L80.1623313123411,77.2L80.41169567768434,76.4L80.46156855075297,76.4L80.51144142382164,76.8L80.56131429689029,76.8L80.61118716995892,76.4L80.76080578916488,76L80.81067866223353,76L80.86055153530216,76.4L80.91042440837083,74L80.96029728143947,74.80000000000001L81.10991590064542,74.39999999999999L81.15978877371407,74.39999999999999L81.2096616467827,74.39999999999999L81.25953451985136,74.39999999999999L81.30940739292001,74.39999999999999L81.45902601212595,74L81.5088988851946,73.2L81.55877175826325,72.4L81.6086446313319,73.2L81.65851750440055,72.8L81.80813612360649,72.8L81.85800899667514,71.6L81.90788186974379,69.60000000000001L81.95775474281244,70L82.00762761588109,70L82.15724623508704,69.60000000000001L82.20711910815568,69.60000000000001L82.25699198122433,69.60000000000001L82.30686485429297,68.4L82.35673772736163,68L82.50635634656757,67.6L82.55622921963622,67.2L82.60610209270487,65.19999999999999L82.65597496577352,64.39999999999999L82.70584783884216,62.79999999999999L82.85546645804811,61.20000000000001L82.90533933111676,61.99999999999999L82.9552122041854,62.79999999999999L83.00508507725407,61.6L83.0549579503227,62.79999999999999L83.20457656952865,61.20000000000001L83.2544494425973,60.8L83.30432231566594,60.39999999999999L83.3541951887346,61.6L83.40406806180326,60.8L83.55368668100918,58.400000000000006L83.60355955407785,58.400000000000006L83.6534324271465,58.400000000000006L83.70330530021513,59.199999999999996L83.75317817328379,58.400000000000006L83.90279679248974,58.79999999999998L83.95266966555837,58.79999999999998L84.00254253862704,59.199999999999996L84.05241541169568,58.79999999999998L84.10228828476433,58.79999999999998L84.25190690397028,58.00000000000001L84.30177977703892,58.79999999999998L84.35165265010757,59.6L84.40152552317622,59.199999999999996L84.45139839624487,59.199999999999996L84.60101701545081,59.6L84.65088988851946,59.6L84.70076276158811,60L84.75063563465676,59.6L84.8005085077254,60L84.95012712693135,59.6L85,60L85.04987287306865,60.39999999999999L85.0997457461373,60.39999999999999L85.14961861920594,60.8L85.29923723841189,60.39999999999999L85.34911011148054,60.39999999999999L85.39898298454918,60.8L85.44885585761784,61.20000000000001L85.4987287306865,60.8L85.64834734989242,61.6L85.69822022296108,61.6L85.74809309602973,61.20000000000001L85.79796596909837,61.6L85.84783884216702,61.20000000000001L85.99745746137297,61.20000000000001L86.04733033444161,61.20000000000001L86.09720320751028,61.6L86.14707608057891,60L86.19694895364756,60L86.34656757285352,60L86.39644044592215,60.39999999999999L86.4463133189908,59.6L86.89516917660863,59.199999999999996L87.04478779581459,56.79999999999999L87.09466066888324,56L87.14453354195189,53.599999999999994L87.19440641502054,51.20000000000002L87.24427928808919,49.60000000000001L87.39389790729513,50.8L87.44377078036378,51.20000000000002L87.49364365343243,51.20000000000002L87.54351652650108,51.60000000000001L87.59338939956973,51.999999999999986L87.74300801877567,51.999999999999986L87.79288089184432,51.60000000000001L87.84275376491297,50.8L87.8926266379816,51.999999999999986L87.94249951105027,51.60000000000001L88.09211813025621,50.8L88.19186387639351,50.8L88.24173674946215,50.8L88.2916096225308,50.39999999999999L88.44122824173675,50.8L88.49110111480539,50L88.54097398787404,50.39999999999999L88.5908468609427,50L88.64071973401134,50L88.7903383532173,50.39999999999999L88.84021122628594,50.39999999999999L88.89008409935458,50.39999999999999L88.93995697242323,50.39999999999999L88.98982984549188,50.39999999999999L89.13944846469782,51.20000000000002L89.18932133776649,50.8L89.23919421083512,51.20000000000002L89.28906708390377,51.20000000000002L89.33893995697242,51.60000000000001L89.48855857617836,53.599999999999994L89.53843144924701,53.599999999999994L89.58830432231568,53.599999999999994L89.63817719538432,55.60000000000001L89.68805006845297,56L89.83766868765892,54.8L89.88754156072756,54.8L89.9374144337962,55.19999999999999L89.98728730686484,54.8L90.03716017993351,54.8L90.18677879913945,54.8L90.2366516722081,54.8L90.28652454527675,54.8L90.3363974183454,54.8L90.38627029141404,54.39999999999999L90.53588891061999,55.19999999999999L90.58576178368864,54.39999999999999L90.63563465675729,54.8L90.68550752982594,54.39999999999999L90.73538040289458,54.39999999999999L90.88499902210053,54.8L90.93487189516918,54.39999999999999L90.98474476823782,54.8L91.03461764130648,54.39999999999999L91.23410913358106,53.599999999999994L91.28398200664972,53.599999999999994L91.33385487971836,54.000000000000014L91.38372775278701,53.599999999999994L91.43360062585566,53.599999999999994L91.5832192450616,53.599999999999994L91.63309211813025,53.599999999999994L91.68296499119892,51.999999999999986L91.73283786426755,52.39999999999999L91.7827107373362,52.8L91.93232935654216,52.39999999999999L91.98220222961079,52.39999999999999L92.03207510267944,53.2L92.0819479757481,54.000000000000014L92.13182084881674,53.599999999999994L92.2814394680227,55.19999999999999L92.33131234109133,56L92.38118521415998,56.40000000000001L92.43105808722864,56.40000000000001L92.48093096029729,57.2L92.63054957950322,58.00000000000001L92.68042245257188,58.400000000000006L92.73029532564053,59.199999999999996L92.78016819870918,60L92.83004107177781,58.79999999999998L92.97965969098377,59.6L93.02953256405242,59.6L93.07940543712105,60L93.12927831018972,59.6L93.17915118325837,60.39999999999999L93.67787991394484,59.6L93.7277527870135,59.6L93.77762566008215,60L93.82749853315079,61.20000000000001L93.87737140621944,60L94.02699002542539,62.79999999999999L94.07686289849403,64.80000000000001L94.12673577156268,65.19999999999999L94.17660864463133,64.80000000000001L94.22648151769998,65.19999999999999L94.37610013690593,65.19999999999999L94.42597300997457,65.19999999999999L94.47584588304322,64L94.52571875611187,64L94.57559162918052,61.6L94.72521024838646,61.6L94.77508312145513,61.6L94.82495599452376,62.400000000000006L94.87482886759241,63.2L94.92470174066105,64.39999999999999L95.074320359867,64L95.12419323293565,63.2L95.1740661060043,63.2L95.22393897907295,63.2L95.2738118521416,62.400000000000006L95.42343047134754,61.99999999999999L95.4733033444162,61.20000000000001L95.52317621748485,61.20000000000001L95.57304909055348,60L95.62292196362215,60L95.82241345589674,60L95.87228632896539,60L95.92215920203402,59.199999999999996L95.97203207510267,58.400000000000006L96.12165069430863,58.79999999999998L96.17152356737726,58.400000000000006L96.22139644044593,58.79999999999998L96.27126931351458,59.199999999999996L96.32114218658322,59.6L96.47076080578917,59.199999999999996L96.52063367885782,60.8L96.57050655192646,61.6L96.62037942499512,61.6L96.67025229806376,61.6L96.8198709172697,61.99999999999999L96.86974379033836,62.79999999999999L96.919616663407,63.599999999999994L96.96948953647565,62.79999999999999L97.01936240954429,63.599999999999994L97.21885390181889,65.19999999999999L97.26872677488754,65.6L97.31859964795619,65.6L97.36847252102484,66L97.51809114023078,65.6L97.56796401329943,67.6L97.61783688636808,66.8L97.66770975943673,67.2L97.71758263250538,68L97.86720125171134,68L97.91707412477997,69.2L97.96694699784862,70L98.01681987091726,70.80000000000001L98.06669274398593,70L98.21631136319186,70.80000000000001L98.2661842362605,69.60000000000001L98.31605710932917,69.60000000000001L98.36592998239782,69.60000000000001L98.41580285546645,69.60000000000001L98.5654214746724,70.80000000000001L98.61529434774106,68.79999999999998L98.66516722080969,68L98.71504009387836,68.79999999999998L98.764912966947,69.2L98.91453158615295,69.2L98.9644044592216,69.60000000000001L99.01427733229023,68.79999999999998L99.06415020535889,69.2L99.11402307842755,68L99.41326031683943,67.6L99.46313318990808,64.39999999999999L99.61275180911403,64L99.66262468218267,63.2L99.71249755525132,64L99.76237042831997,63.599999999999994L99.81224330138862,64L99.96186192059457,65.19999999999999L100.01173479366321,66.4L100.06160766673186,67.6L100.1114805398005,68L100.16135341286916,68.79999999999998L100.3109720320751,68L100.36084490514375,69.2L100.4107177782124,69.2L100.46059065128105,68.4L100.51046352434969,69.2L100.66008214355564,70.39999999999999L100.70995501662429,70.39999999999999L100.75982788969294,71.6L100.8097007627616,70L100.85957363583023,70.80000000000001L101.00919225503618,71.19999999999999L101.05906512810483,71.6L101.10893800117347,70.80000000000001L101.15881087424212,70.80000000000001L101.20868374731079,70.39999999999999L101.35830236651671,69.60000000000001L101.40817523958538,68.79999999999998L101.45804811265403,68.4L101.50792098572266,68.4L101.55779385879131,68.4L101.70741247799727,67.6L101.7572853510659,67.2L101.80715822413457,66.8L101.8570310972032,67.6L101.90690397027186,67.6L102.05652258947781,67.6L102.10639546254644,67.6L102.1562683356151,67.6L102.20614120868376,68L102.2560140817524,68.4L102.40563270095834,68.4L102.455505574027,68.79999999999998L102.50537844709564,68.79999999999998L102.55525132016429,68.79999999999998L102.60512419323292,68.79999999999998L102.75474281243888,68.79999999999998L102.80461568550753,69.2L102.85448855857618,69.60000000000001L102.90436143164483,70L102.95423430471347,69.2L103.10385292391942,69.2L103.15372579698807,69.2L103.2035986700567,70.39999999999999L103.25347154312537,70.39999999999999L103.30334441619402,70L103.45296303539996,70L103.50283590846861,69.2L103.55270878153726,69.2L103.6025816546059,69.60000000000001L103.65245452767456,68.79999999999998L103.8020731468805,68.4L103.85194601994914,67.6L103.9018188930178,68.4L103.95169176608644,66.8L104.00156463915509,67.2L104.15118325836104,67.2L104.20105613142968,66L104.50029336984159,67.2L104.55016624291024,67.2L104.60003911597887,66L104.64991198904752,66.8L105.04889497359672,66.4L105.19851359280266,66L105.2483864658713,64.80000000000001L105.29825933893996,63.599999999999994L105.34813221200861,63.2L105.39800508507726,63.2L105.54762370428321,63.599999999999994L105.59749657735185,63.2L105.6473694504205,57.599999999999994L105.69724232348914,53.599999999999994L105.7471151965578,53.599999999999994L105.89673381576374,53.599999999999994L105.94660668883239,52.8L105.99647956190104,51.999999999999986L106.04635243496968,51.999999999999986L106.09622530803833,51.999999999999986L106.24584392724428,51.999999999999986L106.29571680031292,51.60000000000001L106.34558967338158,50.39999999999999L106.39546254645023,48.400000000000006L106.44533541951887,47.20000000000002L106.59495403872482,47.20000000000002L106.64482691179347,46L106.69469978486211,47.599999999999994L106.74457265793076,41.2L106.79444553099941,44L106.94406415020535,43.2L106.99393702327401,46L107.04380989634265,44.400000000000006L107.0936827694113,44.80000000000001L107.14355564247995,47.599999999999994L107.29317426168589,45.599999999999994L107.34304713475454,42.400000000000006L107.39292000782321,44L107.44279288089184,40.39999999999999L107.4926657539605,40.39999999999999L107.64228437316645,39.20000000000002L107.69215724623508,39.60000000000001L107.74203011930373,40.8L107.79190299237239,44L107.84177586544104,44.400000000000006L107.99139448464699,43.2L108.04126735771563,43.599999999999994L108.09114023078428,45.599999999999994L108.14101310385293,45.19999999999999L108.19088597692156,43.599999999999994L108.34050459612752,44.400000000000006L108.39037746919617,44.80000000000001L108.44025034226482,46L108.49012321533347,46.400000000000006L108.5399960884021,45.599999999999994L108.68961470760806,46.400000000000006L108.73948758067671,46.8L108.78936045374535,46.8L108.83923332681401,46.8L108.88910619988265,46.8L109.0387248190886,45.19999999999999L109.08859769215725,42.79999999999998L109.13847056522589,42.79999999999998L109.18834343829454,44L109.2382163113632,43.599999999999994L109.43770780363778,44.80000000000001L109.48758067670644,45.599999999999994L109.53745354977508,46.8L109.58732642284373,45.599999999999994L109.73694504204968,46L109.78681791511832,45.599999999999994L109.83669078818697,44.80000000000001L109.88656366125562,44L109.93643653432427,44L110.08605515353022,42L110.13592802659886,40.39999999999999L110.18580089966751,41.2L110.23567377273616,40L110.28554664580481,40L110.43516526501075,39.60000000000001L110.48503813807942,39.60000000000001L110.53491101114805,40.8L110.5847838842167,39.20000000000002L110.63465675728534,39.20000000000002L110.7842753764913,39.20000000000002L110.83414824955995,38.79999999999998L111.23313123410914,35.59999999999998L111.28300410717777,34.80000000000001L111.33287698024644,34.80000000000001L111.48249559945238,34.400000000000006L111.53236847252103,37.60000000000002L111.58224134558968,37.19999999999999L111.63211421865832,37.19999999999999L111.68198709172697,38.000000000000014L111.83160571093292,37.60000000000002L111.88147858400156,37.60000000000002L111.93135145707022,37.60000000000002L111.98122433013886,38.79999999999998L112.03109720320751,40.8L112.18071582241346,38.79999999999998L112.2305886954821,41.599999999999994L112.28046156855075,42L112.3303344416194,41.599999999999994L112.38020731468805,40.8L112.52982593389399,42L112.57969880696265,42L112.62957168003129,42.400000000000006L112.67944455309994,42.400000000000006L112.72931742616858,42L112.87893604537453,42L112.92880891844318,42.400000000000006L112.97868179151183,43.2L113.02855466458048,44L113.07842753764913,44L113.22804615685507,43.599999999999994L113.27791902992372,43.599999999999994L113.32779190299237,43.2L113.37766477606102,43.2L113.42753764912968,43.2L113.57715626833563,42.79999999999998L113.62702914140426,43.2L113.67690201447292,43.599999999999994L113.7766477606102,43.2L114.02601212595346,42.400000000000006L114.07588499902211,42.79999999999998L114.12575787209074,43.2L114.2753764912967,42.79999999999998L114.32524936436535,43.599999999999994L114.37512223743398,43.599999999999994L114.42499511050265,44.400000000000006L114.47486798357129,44.400000000000006L114.62448660277724,44L114.67435947584589,44L114.72423234891453,44L114.77410522198318,43.599999999999994L114.82397809505184,44L114.97359671425777,43.599999999999994L115.02346958732643,44L115.07334246039507,44L115.12321533346372,44L115.17308820653237,44.400000000000006L115.37257969880696,44.80000000000001L115.42245257187561,44.80000000000001L115.47232544494426,44.80000000000001L115.52219831801291,45.19999999999999L115.67181693721886,46L115.7216898102875,46L115.77156268335615,46L115.82143555642479,46L115.87130842949345,46L116.02092704869939,46L116.07079992176804,45.599999999999994L116.1206727948367,46L116.17054566790534,46L116.22041854097398,46L116.37003716017993,46L116.41991003324858,45.599999999999994L116.46978290631722,45.599999999999994L116.51965577938589,45.599999999999994L116.56952865245452,46L116.71914727166047,46L116.76902014472913,46.400000000000006L116.81889301779776,46.400000000000006L116.86876589086641,46.400000000000006L116.91863876393508,46.400000000000006L117.11813025620967,46.400000000000006L117.16800312927832,46L117.21787600234696,45.19999999999999L117.2677488754156,45.19999999999999L117.41736749462156,44.400000000000006L117.4672403676902,44L117.51711324075886,41.599999999999994L117.5669861138275,40.39999999999999L117.61685898689615,40.39999999999999L117.7664776061021,40.39999999999999L117.81635047917074,40.8L117.86622335223939,40.8L117.91609622530802,42L117.96596909837669,42.400000000000006L118.11558771758263,44L118.16546059065128,44.400000000000006L118.21533346371993,44.400000000000006L118.26520633678858,44.400000000000006L118.31507920985722,44.400000000000006L118.46469782906317,44.400000000000006L118.51457070213182,44L118.56444357520047,43.599999999999994L118.61431644826912,43.599999999999994L118.66418932133776,43.599999999999994L118.81380794054371,44L118.86368081361236,44L118.913553686681,43.599999999999994L118.96342655974966,43.2L119.01329943281831,42.400000000000006L119.16291805202425,42.400000000000006L119.2127909250929,40.8L119.26266379816155,38.000000000000014L119.31253667123019,36.000000000000014L119.36240954429884,35.59999999999998L119.5120281635048,36.8L119.56190103657343,36.8L119.6117739096421,36.8L119.66164678271073,36.400000000000006L119.71151965577938,36.400000000000006L119.86113827498534,38.79999999999998L119.91101114805397,38.79999999999998L119.96088402112262,36.8L120.01075689419129,35.59999999999998L120.06062976725993,35.59999999999998L120.21024838646588,35.59999999999998L120.26012125953453,35.59999999999998L120.30999413260317,40.39999999999999L120.35986700567182,42.400000000000006L120.40973987874047,41.599999999999994L120.5593584979464,42.400000000000006L120.60923137101507,42.400000000000006L120.65910424408371,42L120.70897711715236,42.400000000000006L120.75884999022101,42.400000000000006L120.90846860942695,42.400000000000006L120.9583414824956,42.400000000000006L121.00821435556423,42.400000000000006L121.0580872286329,42L121.10796010170155,42L121.25757872090749,36.400000000000006L121.30745159397614,36.400000000000006L121.35732446704479,35.2L121.40719734011343,36.000000000000014L121.45707021318209,36.400000000000006L121.60668883238803,37.60000000000002L121.65656170545668,38.79999999999998L121.70643457852533,38.79999999999998L121.75630745159397,38.000000000000014L121.80618032466262,37.19999999999999L122.00567181693721,38.39999999999999L122.05554469000587,38.79999999999998L122.10541756307452,38.000000000000014L122.15529043614316,37.60000000000002L122.30490905534911,36.8L122.35478192841776,36.400000000000006L122.4046548014864,36.400000000000006L122.45452767455505,36.400000000000006L122.5044005476237,36.8L122.65401916682964,43.599999999999994L122.7038920398983,44L122.75376491296694,44L122.8036377860356,42.79999999999998L122.85351065910424,42.79999999999998L123.40211226285938,49.2L123.45198513592803,48.400000000000006L123.50185800899668,48.400000000000006L123.55173088206533,48.8L123.70134950127127,48.400000000000006L123.75122237433992,48.400000000000006L123.80109524740857,50L123.85096812047722,50.8L123.90084099354586,50.8L124.05045961275181,50.8L124.10033248582045,50.8L124.15020535888911,49.60000000000001L124.20007823195776,49.60000000000001L124.2499511050264,50.39999999999999L124.39956972423235,49.60000000000001L124.449442597301,50L124.49931547036964,50.39999999999999L124.5491883434383,50.8L124.59906121650694,51.60000000000001L124.74867983571289,51.60000000000001L124.79855270878154,51.60000000000001L124.84842558185018,53.2L124.89829845491883,55.60000000000001L124.94817132798748,55.60000000000001L125.09778994719342,56.79999999999999L125.14766282026207,57.2L125.19753569333074,55.19999999999999L125.24740856639937,55.19999999999999L125.29728143946802,54.000000000000014L125.44690005867398,54.000000000000014L125.49677293174261,54.000000000000014L125.54664580481126,54.000000000000014L125.59651867787991,54.8L125.64639155094856,54.8L125.79601017015452,54.8L125.84588304322315,54.39999999999999L125.8957559162918,54.000000000000014L125.94562878936046,57.2L125.9955016624291,60.39999999999999L126.14512028163504,61.6L126.19499315470371,61.6L126.24486602777235,61.6L126.294738900841,60.39999999999999L126.34461177390963,60.39999999999999L126.49423039311559,60.39999999999999L126.54410326618424,60L126.59397613925287,60L126.64384901232154,60L126.69372188539019,60L126.84334050459613,60.8L126.89321337766478,61.20000000000001L126.94308625073343,61.20000000000001L126.99295912380207,61.20000000000001L127.04283199687073,60.39999999999999L127.19245061607666,60.39999999999999L127.24232348914532,60.8L127.29219636221397,60.8L127.34206923528261,61.20000000000001L127.39194210835126,62.400000000000006L127.6413064736945,62.400000000000006L127.69117934676315,62.400000000000006L127.74105221983179,62.400000000000006L127.89067083903774,63.599999999999994L127.94054371210639,64L127.99041658517505,64L128.04028945824368,63.2L128.09016233131234,63.2L128.2397809505183,63.2L128.28965382358692,62.79999999999999L128.33952669665558,63.599999999999994L128.38939956972425,64L128.43927244279288,64L128.93800117347936,64L128.987874046548,63.599999999999994L129.03774691961667,63.2L129.0876197926853,61.99999999999999L129.13749266575397,62.400000000000006L129.2871112849599,61.6L129.33698415802854,60.39999999999999L129.3868570310972,60.39999999999999L129.43672990416587,58.79999999999998L129.48660277723448,58.00000000000001L129.63622139644045,60L129.6860942695091,58.79999999999998L129.73596714257772,58.400000000000006L129.7858400156464,58.00000000000001L129.83571288871505,58.00000000000001L129.98533150792096,59.199999999999996L130.03520438098963,58.79999999999998L130.0850772540583,58.79999999999998L130.13495012712693,58.400000000000006L130.1848230001956,58.400000000000006L130.33444161940153,58.400000000000006L130.38431449247017,58.00000000000001L130.48406023860747,58.00000000000001L130.5339331116761,56.79999999999999L130.68355173088207,57.2L130.7334246039507,57.599999999999994L130.78329747701935,58.00000000000001L130.833170350088,58.400000000000006L130.88304322315668,58.00000000000001L131.0326618423626,58.00000000000001L131.08253471543125,58.400000000000006L131.13240758849992,58.00000000000001L131.18228046156855,57.599999999999994L131.2321533346372,58.00000000000001L131.38177195384316,57.599999999999994L131.4316448269118,57.2L131.48151769998043,57.2L131.5313905730491,57.2L131.58126344611773,57.2L131.73088206532367,58.79999999999998L131.78075493839233,58.00000000000001L131.83062781146097,58.00000000000001L131.88050068452964,58.79999999999998L131.9303735575983,59.199999999999996L132.22961079601015,58.79999999999998L132.27948366907881,58.00000000000001L132.42910228828478,59.199999999999996L132.4789751613534,58.400000000000006L132.52884803442205,58.400000000000006L132.57872090749072,58.400000000000006L132.62859378055936,58.00000000000001L132.7782123997653,58.00000000000001L132.82808527283396,58.00000000000001L132.8779581459026,58.00000000000001L132.92783101897126,58.00000000000001L132.9777038920399,57.599999999999994L133.12732251124586,58.00000000000001L133.1771953843145,58.00000000000001L133.22706825738314,58.00000000000001L133.27694113045177,58.00000000000001L133.32681400352044,58.00000000000001L133.57617836886368,57.599999999999994L133.62605124193234,57.599999999999994L133.67592411500098,58.00000000000001L133.82554273420692,57.599999999999994L133.87541560727558,57.599999999999994L133.92528848034422,58.00000000000001L133.97516135341286,57.599999999999994L134.02503422648152,58.400000000000006L134.1746528456875,60.8L134.2245257187561,61.99999999999999L134.27439859182476,64.39999999999999L134.3242714648934,64.39999999999999L134.37414433796206,64.39999999999999L134.523762957168,64L134.57363583023667,64L134.6235087033053,64L134.67338157637394,64.39999999999999L134.72325444944258,65.19999999999999L134.87287306864854,65.19999999999999L134.92274594171718,65.19999999999999L134.97261881478582,64.39999999999999L135.02249168785448,64.80000000000001L135.07236456092315,64.80000000000001L135.2219831801291,66L135.3217289262664,65.19999999999999L135.37160179933502,64.80000000000001L135.42147467240366,67.2L135.57109329160963,66.4L135.6209661646783,65.6L135.6708390377469,65.19999999999999L135.72071191081557,64L135.7705847838842,64L135.92020340309014,63.599999999999994L135.9700762761588,62.79999999999999L136.01994914922747,63.2L136.0698220222961,63.599999999999994L136.2693135145707,64.80000000000001L136.31918638763935,64.39999999999999L136.369059260708,64.80000000000001L136.41893213377662,66.4L136.4688050068453,66.4L136.61842362605125,66.4L136.6682964991199,66.4L136.71816937218853,66.8L136.7680422452572,66.8L136.81791511832583,68L136.96753373753177,68.4L137.01740661060043,69.60000000000001L137.0672794836691,69.60000000000001L137.11715235673773,70.39999999999999L137.16702522980637,68.79999999999998L137.31664384901234,69.2L137.36651672208097,68.79999999999998L137.4163895951496,68.4L137.46626246821828,68L137.5161353412869,68.4L137.66575396049285,68.4L137.71562683356152,68.4L137.76549970663015,68.4L137.81537257969882,68.4L137.86524545276745,68.79999999999998L138.0148640719734,68.4L138.06473694504206,68.4L138.11460981811072,68L138.16448269117933,68L138.214355564248,68.4L138.36397418345396,67.6L138.41384705652257,66.8L138.46371992959124,66.4L138.5135928026599,66.4L138.56346567572854,67.6L138.71308429493448,67.6L138.76295716800314,67.6L138.81283004107178,66.8L138.86270291414044,66.4L138.91257578720908,66.4L139.06219440641502,66L139.11206727948368,66L139.16194015255232,64.80000000000001L139.21181302562096,64L139.26168589868962,64.80000000000001L139.41130451789556,66L139.4611773909642,65.19999999999999L139.51105026403286,65.6L139.56092313710153,64.39999999999999L139.61079601017016,64.39999999999999L139.81028750244477,64L139.8601603755134,64L139.91003324858204,64L139.9599061216507,63.2L140.10952474085664,61.6L140.15939761392528,60.8L140.20927048699394,60.8L140.25914336006258,59.6L140.30901623313125,57.599999999999994L140.45863485233718,57.599999999999994L140.50850772540582,58.00000000000001L140.55838059847449,58.00000000000001L140.60825347154315,58.79999999999998L140.65812634461176,59.199999999999996L140.80774496381773,59.199999999999996L140.85761783688636,59.6L140.907490709955,60.8L140.95736358302366,61.20000000000001L141.00723645609233,61.99999999999999L141.5059651867788,60L141.55583805984745,60L141.60571093291608,60.39999999999999L141.65558380598475,59.6L141.70545667905338,60.39999999999999L141.85507529825932,60.8L141.904948171328,60.39999999999999L141.95482104439662,59.6L142.0046939174653,58.79999999999998L142.05456679053395,58.79999999999998L142.20418540973986,58.400000000000006L142.25405828280853,58.400000000000006L142.3039311558772,58.00000000000001L142.3538040289458,58.00000000000001L142.40367690201447,57.599999999999994L142.55329552122043,56.79999999999999L142.60316839428904,57.2L142.6530412673577,56.79999999999999L142.70291414042637,56.79999999999999L142.752787013495,56.40000000000001L142.90240563270095,56.40000000000001L142.9522785057696,56.79999999999999L143.00215137883825,56.79999999999999L143.05202425190691,57.2L143.10189712497555,56.79999999999999L143.2515157441815,57.2L143.30138861725015,57.2L143.3512614903188,58.400000000000006L143.40113436338743,58.400000000000006L143.4510072364561,58.79999999999998L143.60062585566203,59.199999999999996L143.65049872873067,59.6L143.70037160179933,59.6L143.750244474868,58.79999999999998L143.80011734793663,58.400000000000006L143.94973596714257,58.400000000000006L143.99960884021124,57.599999999999994L144.04948171327987,57.599999999999994L144.0993545863485,58.00000000000001L144.14922745941718,58.400000000000006L144.29884607862314,58.00000000000001L144.34871895169175,58.400000000000006L144.39859182476042,58.00000000000001L144.44846469782905,58.00000000000001L144.49833757089772,57.599999999999994L144.64795619010366,57.2L144.6978290631723,57.2L144.74770193624096,57.599999999999994L144.79757480930962,57.2L144.84744768237823,57.2L144.9970663015842,56.40000000000001L145.04693917465286,56.79999999999999L145.09681204772147,56.40000000000001L145.14668492079014,56.40000000000001L145.1965577938588,56.79999999999999L145.34617641306474,56.40000000000001L145.39604928613338,56L145.44592215920204,56.40000000000001L145.49579503227068,56.79999999999999L145.54566790533934,56.79999999999999L145.69528652454528,56.40000000000001L145.89477801681986,56L146.04439663602582,55.60000000000001L146.09426950909446,55.60000000000001L146.1441423821631,56L146.19401525523176,56L146.24388812830043,56L146.39350674750636,55.19999999999999L146.443379620575,55.60000000000001L146.49325249364367,55.60000000000001L146.5431253667123,55.19999999999999L146.59299823978094,56L146.7426168589869,56.40000000000001L146.79248973205554,56.79999999999999L146.84236260512418,56.40000000000001L146.89223547819284,56.79999999999999L146.94210835126148,56.79999999999999L147.09172697046742,56.40000000000001L147.14159984353608,56.40000000000001L147.19147271660475,55.60000000000001L147.2413455896734,55.60000000000001L147.29121846274202,55.60000000000001L147.440837081948,55.60000000000001L147.49070995501663,55.60000000000001L147.54058282808526,56L147.5904557011539,56L147.64032857422256,56L148.13905730490904,56L148.1889301779777,56.40000000000001L148.23880305104638,56L148.28867592411498,56.79999999999999L148.33854879718365,56.79999999999999L148.48816741638962,57.2L148.53804028945822,56.40000000000001L148.5879131625269,56L148.63778603559555,56L148.6876589086642,56L148.83727752787013,56L148.8871504009388,56L148.93702327400743,56L148.9868961470761,56L149.0367690201447,56.40000000000001L149.18638763935067,56.40000000000001L149.23626051241934,56L149.28613338548797,56L149.3360062585566,56L149.38587913162527,56.40000000000001L149.5354977508312,56.40000000000001L149.58537062389985,56.40000000000001L149.6352434969685,55.60000000000001L149.68511637003718,55.60000000000001L149.73498924310582,55.60000000000001L149.88460786231175,56.40000000000001L149.93448073538042,56L149.98435360844906,56.40000000000001L150.0342264815177,56.40000000000001L150.08409935458636,56.40000000000001L150.2337179737923,57.2L150.28359084686093,57.2L150.3334637199296,57.599999999999994L150.58282808527284,57.599999999999994L150.63270095834147,60L150.68257383141014,60L150.7324467044788,60L150.7823195775474,59.6L150.93193819675338,59.199999999999996L150.98181106982204,61.6L151.03168394289065,61.6L151.08155681595932,62.79999999999999L151.13142968902798,62.79999999999999L151.2810483082339,62.79999999999999L151.33092118130256,60.39999999999999L151.38079405437122,60.39999999999999L151.43066692743986,60.39999999999999L151.48053980050852,60.39999999999999L151.7797770389204,63.2L151.82964991198904,62.400000000000006L151.979268531195,62.400000000000006L152.02914140426364,62.400000000000006L152.07901427733228,63.2L152.12888715040094,63.2L152.1787600234696,63.599999999999994L152.32837864267552,62.79999999999999L152.37825151574418,63.2L152.42812438881285,62.79999999999999L152.47799726188148,62.79999999999999L152.52787013495012,62.79999999999999L152.6774887541561,62.79999999999999L152.72736162722472,62.79999999999999L152.77723450029336,62.400000000000006L152.82710737336203,62.400000000000006L152.87698024643066,62.400000000000006L153.0265988656366,62.79999999999999L153.07647173870527,63.2L153.1263446117739,63.2L153.17621748484257,62.79999999999999L153.2260903579112,63.2L153.4255818501858,62.79999999999999L153.47545472325444,61.99999999999999L153.52532759632308,61.99999999999999L153.57520046939175,61.6L153.87443770780365,61.6L153.9243105808723,61.6L154.07392920007823,61.20000000000001L154.1238020731469,61.6L154.17367494621553,61.6L154.22354781928416,61.6L154.27342069235283,61.6L154.4230393115588,58.400000000000006L154.4729121846274,55.60000000000001L154.52278505769607,55.60000000000001L154.5726579307647,55.60000000000001L154.62253080383337,55.60000000000001L154.7721494230393,55.60000000000001L154.82202229610795,55.60000000000001L154.8718951691766,55.60000000000001L154.92176804224528,57.599999999999994L154.97164091531388,59.199999999999996L155.12125953451985,58.00000000000001L155.17113240758852,58.00000000000001L155.22100528065712,57.599999999999994L155.2708781537258,57.2L155.32075102679445,56.79999999999999L155.4703696460004,55.60000000000001L155.52024251906903,55.60000000000001L155.5701153921377,54.8L155.61998826520633,52.8L155.669861138275,52.8L155.81947975748093,52.8L155.8693526305496,52.8L155.91922550361824,48L156.0189712497555,51.20000000000002L156.16858986896148,51.20000000000002L156.2184627420301,50L156.26833561509875,50.8L156.51769998044202,50.8L156.56757285351065,51.20000000000002L156.61744572657932,50L156.66731859964796,46L156.7171914727166,46L156.86681009192256,46L156.91668296499122,42.400000000000006L156.96655583805983,40.8L157.0164287111285,41.599999999999994L157.06630158419713,40.8L157.21592020340307,40L157.26579307647174,38.000000000000014L157.3156659495404,37.19999999999999L157.4154116956777,38.000000000000014L157.56503031488364,40.39999999999999L157.61490318795228,39.60000000000001L157.71464893408955,38.39999999999999L157.96401329943282,37.19999999999999L158.01388617250146,37.19999999999999L158.06375904557012,36.8L158.2632505378447,37.19999999999999L158.31312341091336,36.8L158.36299628398203,36.000000000000014L158.41286915705066,34.400000000000006L158.61236064932527,33.999999999999986L158.6622335223939,34.400000000000006L158.96147076080578,38.79999999999998L159.01134363387445,38.000000000000014L159.06121650694308,37.19999999999999L159.11108938001175,37.19999999999999L159.7095638568355,39.20000000000002L159.75943672990417,38.79999999999998L159.80930960297283,38.000000000000014L160.05867396831607,36.000000000000014L160.1085468413847,36.8L160.15841971445334,35.59999999999998L160.20829258752198,35.59999999999998L160.35791120672795,34.80000000000001L160.40778407979658,34.400000000000006L160.45765695286525,33.599999999999994L160.5075298259339,32.80000000000001L160.7070213182085,31.599999999999994L160.8067670643458,31.200000000000017L160.85663993741446,31.200000000000017L161.25562292196364,30L161.40524154116954,23.599999999999994L161.4551144142382,22.80000000000001L161.50498728730688,23.200000000000003L161.5548601603755,21.200000000000017L161.60473303344418,20.799999999999983L161.75435165265012,14.800000000000011L161.80422452571875,13.599999999999994L161.90397027185605,12L161.9538431449247,15.199999999999989L162.10346176413066,14.400000000000006L162.1533346371993,14.400000000000006L162.20320751026793,15.199999999999989L162.2530803833366,17.59999999999998L162.30295325640526,21.999999999999986L162.45257187561117,21.999999999999986L162.60219049481714,19.200000000000017L162.80168198709174,18.400000000000006L162.85155486016038,14.800000000000011L162.901427733229,14.800000000000011L162.95130060629768,16.400000000000006L163.00117347936632,15.599999999999994L163.15079209857225,16.400000000000006L163.20066497164092,15.599999999999994L163.25053784470956,14.400000000000006L163.30041071777822,15.599999999999994L163.35028359084689,14.800000000000011L163.54977508312146,14.800000000000011L163.59964795619013,15.599999999999994L163.64952082925873,16.400000000000006L163.6993937023274,16.400000000000006L163.84901232153337,16.400000000000006L163.89888519460197,15.199999999999989L164.04850381380794,13.200000000000003L164.24799530608254,12.800000000000011L164.29786817915118,14.400000000000006L164.34774105221985,15.199999999999989L164.39761392528848,15.599999999999994L164.59710541756309,14.400000000000006L164.64697829063172,16.000000000000014L164.74672403676902,15.599999999999994L164.9462155290436,16.000000000000014L164.99608840211226,18.400000000000006L165.04596127518093,18L165.09583414824954,20L165.2454527674555,20.39999999999999L165.34519851359278,18.799999999999997L165.99354586348522,20L166.0434187365539,20L166.09329160962253,20.39999999999999L166.14316448269116,20.39999999999999L166.29278310189713,19.60000000000001L166.3925288480344,18L166.44240172110307,17.59999999999998L166.49227459417173,18L166.64189321337767,19.200000000000017L166.6917660864463,20L166.74163895951497,20.799999999999983L166.7915118325836,23.999999999999986L166.9910033248582,22.399999999999977L167.04087619792688,20.799999999999983L167.34011343633873,20L167.3899863094074,20.39999999999999L167.4897320555447,20.799999999999983L167.53960492861336,21.999999999999986L167.6892235478193,21.999999999999986L167.73909642088793,21.60000000000001L167.7889692939566,20.799999999999983L167.8388421670252,20.799999999999983L167.88871504009387,20L168.03833365929984,20.39999999999999L168.08820653236847,20.39999999999999L168.1380794054371,19.60000000000001L168.18795227850578,20L168.2378251515744,20L168.38744377078035,19.60000000000001L168.43731664384902,19.60000000000001L168.48718951691768,18.799999999999997L168.53706238998632,18L168.58693526305495,18.400000000000006L168.78642675532956,18.799999999999997L168.8362996283982,18.400000000000006L168.88617250146683,18.400000000000006L169.18540973987874,23.599999999999994L169.48464697829064,25.599999999999994L169.5345198513593,24.40000000000002L169.58439272442791,24.40000000000002L169.63426559749658,23.999999999999986L169.88362996283982,24.799999999999997L170.13299432818306,26.000000000000014L170.28261294738903,27.19999999999999L170.33248582045763,30.39999999999999L170.4821044396636,32.80000000000001L170.53197731273227,32.39999999999999L170.5818501858009,33.599999999999994L170.63172305886954,32L170.6815959319382,31.599999999999994L170.83121455114414,31.200000000000017L171.18032466262468,31.200000000000017L171.23019753569335,32L171.3798161548993,34.400000000000006L171.57930764717386,37.19999999999999L171.62918052024253,38.000000000000014L171.67905339331116,37.19999999999999L171.87854488558577,35.59999999999998L171.9284177586544,36.000000000000014L171.97829063172307,36.400000000000006L172.0281635047917,36.400000000000006L172.07803637786034,36.000000000000014L172.2276549970663,36.000000000000014L172.27752787013495,34.80000000000001L172.37727361627225,36.400000000000006L172.4271464893409,37.19999999999999L172.6266379816155,36.8L172.67651085468415,36.8L172.7263837277528,36.400000000000006L172.77625660082143,36.400000000000006L173.12536671230197,32.80000000000001L173.32485820457657,32.80000000000001L173.3747310776452,33.599999999999994L173.42460395071387,33.2L173.47447682378254,33.599999999999994L173.6739683160571,33.2L173.72384118912578,30.799999999999983L173.7737140621944,30.39999999999999L173.82358693526305,27.19999999999999L173.97320555446902,27.60000000000001L174.02307842753763,27.19999999999999L174.0729513006063,28L174.12282417367496,27.19999999999999L174.1726970467436,29.200000000000017L174.32231566594953,27.60000000000001L174.3721885390182,28L174.42206141208683,28L174.4719342851555,27.19999999999999L174.52180715822414,28.400000000000006L174.67142577743007,28.799999999999983L174.72129865049874,28.799999999999983L174.77117152356738,29.200000000000017L174.821044396636,29.200000000000017L174.87091726970468,28.799999999999983L175.02053588891062,28.400000000000006L175.07040876197925,28L175.12028163504792,28.400000000000006L175.17015450811658,28.799999999999983L175.36964600039116,31.200000000000017L175.41951887345982,30.39999999999999L175.46939174652846,30L175.5192646195971,29.200000000000017L175.56913749266576,29.60000000000001L175.7187561118717,29.200000000000017L175.76862898494034,28.799999999999983L175.818501858009,29.200000000000017L175.86837473107764,29.60000000000001L176.06786622335224,30L176.11773909642088,29.60000000000001L176.16761196948954,29.200000000000017L176.2174848425582,28.799999999999983L176.26735771562682,28.400000000000006L176.46684920790145,28L176.51672208097006,28L176.61646782710739,28L176.76608644631332,28.400000000000006L176.81595931938196,28.799999999999983L176.86583219245063,28L176.96557793858793,32L177.11519655779387,38.000000000000014L177.1650694308625,38.000000000000014L177.2648151769998,37.19999999999999L177.91316252689225,39.60000000000001L177.96303539996086,38.39999999999999L178.1625268922355,38.79999999999998L178.21239976530413,38.79999999999998L178.26227263837276,44L178.31214551144143,44.80000000000001L178.36201838451007,46L178.56150987678467,49.60000000000001L178.6113827498533,49.2L178.66125562292197,47.20000000000002L178.7111284959906,46.400000000000006L178.86074711519657,46.8L179.2098572266771,46.8L179.3096029728144,51.60000000000001L179.35947584588305,54.39999999999999L179.70858595736357,55.19999999999999L179.75845883043223,54.39999999999999L179.9579503227068,51.999999999999986L180.0576960688441,53.2L180.10756894191277,51.60000000000001L180.2571875611187,54.8L180.30706043418738,60.39999999999999L180.356933307256,57.599999999999994L180.40680618032468,58.400000000000006L180.4566790533933,58.00000000000001L180.60629767259925,58.00000000000001L180.65617054566792,57.599999999999994L180.70604341873656,56.40000000000001L180.7559162918052,53.599999999999994L180.80578916487386,52.8L181.00528065714843,46.400000000000006L181.0551535302171,49.2L181.30451789556034,48L181.45413651476628,49.60000000000001L181.5040093878349,48.8L181.70350088010952,50.8L181.75337375317818,52.39999999999999L181.85311949931548,54.000000000000014L182.00273811852142,54.000000000000014L182.35184823000196,54.000000000000014L182.40172110307063,54.39999999999999L182.45159397613924,54.000000000000014L182.70095834148248,54.000000000000014L182.85057696068844,57.599999999999994L182.9004498337571,57.2L183.05006845296305,59.199999999999996L183.09994132603168,60.39999999999999L183.14981419910032,60.39999999999999L183.19968707216898,60.8L183.44905143751222,61.99999999999999L183.54879718364953,60L183.5986700567182,59.6L183.7482886759241,59.199999999999996L183.79816154899277,60.39999999999999L183.89790729513004,61.6L183.9477801681987,61.6L184.14727166047328,62.79999999999999L184.29689027967925,64.80000000000001L184.44650889888518,65.6L184.89536475650303,65.6L184.94523762957166,65.19999999999999L184.99511050264033,65.19999999999999L185.14472912184627,64L185.1946019949149,63.599999999999994L185.24447486798357,62.400000000000006L185.4938392333268,59.6L185.54371210639547,59.199999999999996L185.6933307256014,61.99999999999999L185.84294934480735,59.6L185.892822217876,58.00000000000001L185.94269509094465,58.400000000000006L186.04244083708195,58.00000000000001L186.1920594562879,58.79999999999998L186.2918052024252,58.79999999999998L186.54116956776843,56L186.5910424408371,54.8L186.74066106004304,56.79999999999999L186.9401525523176,55.60000000000001L187.03989829845491,51.999999999999986L187.6383727752787,61.20000000000001L187.68824564834733,61.99999999999999L187.738118521416,62.400000000000006L187.78799139448466,61.20000000000001L188.0373557598279,62.400000000000006L188.28672012517114,64.39999999999999L188.33659299823978,63.2L188.38646587130842,62.400000000000006L188.48621161744572,61.99999999999999L188.63583023665166,64L188.78544885585762,63.2L188.8353217289263,64L188.98494034813223,62.79999999999999L189.03481322120086,61.99999999999999L189.33405045961274,61.99999999999999L189.3839233326814,61.99999999999999L189.53354195188734,56L189.68316057109328,54.39999999999999L189.73303344416195,54.8L189.78290631723058,55.19999999999999L189.83277919029922,54.39999999999999L189.88265206336789,55.19999999999999L190.03227068257385,56L190.08214355564246,56.40000000000001L190.13201642871113,56.40000000000001L190.18188930177976,55.19999999999999L190.23176217484843,54.39999999999999L190.48112654019167,54.000000000000014L190.53099941326033,56L190.58087228632894,56L190.78036377860357,55.19999999999999L190.8302366516722,54.8L190.88010952474085,54.8L190.9299823978095,54.8L191.07960101701545,54.8L191.12947389008409,55.19999999999999L191.17934676315275,54.8L191.2292196362214,54.8L191.27909250929005,54.39999999999999L191.428711128496,56.40000000000001L191.47858400156466,59.199999999999996L191.5284568746333,61.20000000000001L191.57832974770193,61.6L191.62820262077057,60.8L191.77782123997653,58.400000000000006L191.82769411304517,58.00000000000001L191.87756698611383,57.2L191.97731273225114,57.2L192.12693135145707,56.79999999999999L192.1768042245257,58.79999999999998L192.22667709759438,58.00000000000001L192.47604146293762,60.39999999999999L192.6755329552122,56L192.8750244474868,58.00000000000001L192.92489732055546,60.39999999999999L193.1742616858987,60.8L193.52337179737924,58.00000000000001L193.67299041658518,58.00000000000001L193.92235478192842,60.8L193.97222765499708,61.20000000000001L194.22159202034032,64L194.57070213182084,66L194.77019362409547,66L194.96968511637004,66.4L195.26892235478192,66L195.31879522785056,66L195.36866810091922,66L195.46841384705652,66L195.66790533933113,68.79999999999998L195.71777821239976,69.2L196.11676119694894,69.2L196.31625268922355,73.2L196.41599843536085,76.4L196.6653628007041,74.39999999999999L196.71523567377275,75.19999999999999L196.76510854684136,76.4L196.81498141991003,76.4L196.8648542929787,76.8L197.0144729121846,78L197.06434578525327,78.80000000000001L197.11421865832193,80L197.16409153139057,76.8L197.46332876980247,74.39999999999999L197.7126931351457,69.60000000000001L197.812438881283,71.6L197.86231175435165,72.4L197.91218462742032,72.8L198.16154899276356,73.2L198.2114218658322,72.8L198.56053197731273,75.07999999999998L198.80989634265597,76.4L198.8597692157246,76.8L198.90964208879328,76.8L198.95951496186194,76.8L199.15900645413652,78L199.20887932720518,77.6L199.2587522002738,77.6L199.30862507334245,78L199.45824369254842,78.80000000000001L199.50811656561706,78L199.5579894386857,78.4L199.60786231175436,78L199.657735184823,78L199.80735380402893,82.4L199.8572266770976,82.8L199.90709955016624,84L199.9569724232349,84L200.1564639155095,86.4L200.20633678857814,86.8L200.25620966164678,86L200.30608253471542,85.60000000000001L200.55544690005868,82.8L200.60531977312732,82.8L200.65519264619599,84L200.70506551926462,85.19999999999999L200.85468413847056,85.60000000000001L200.90455701153923,86.8L200.9544298846079,86.8L201.0043027576765,89.2L201.05417563074516,88.8L201.20379424995113,87.20000000000002L201.25366712301974,87.6L201.3035399960884,86L201.35341286915704,86.4L201.4032857422257,86.4L201.55290436143164,84.4L201.6027772345003,84.4L201.65265010756895,82.4L201.70252298063758,82.4L201.75239585370622,84.4L201.90201447291219,85.19999999999999L201.95188734598082,85.19999999999999L202.0017602190495,82L202.05163309211812,83.2L202.1015059651868,84.4L202.60023469587327,84.80000000000001L202.65010756894193,84.80000000000001L202.69998044201054,85.19999999999999L202.7498533150792,84.80000000000001L202.79972618814784,85.19999999999999L202.94934480735378,84.4L202.99921768042245,84.4L203.0490905534911,84.4L203.09896342655975,84L203.1488362996284,83.6L203.29845491883435,84L203.348327791903,84.4L203.39820066497165,84L203.4480735380403,83.2L203.49794641110893,83.2L203.69743790338353,82L203.74731077645217,82.4L203.79718364952083,83.2L203.84705652258947,84.4L203.9966751417954,84.80000000000001L204.04654801486407,84.4L204.09642088793274,84.80000000000001L204.14629376100137,85.19999999999999L204.19616663407,84.80000000000001L204.34578525327598,84.80000000000001L204.3956581263446,84.4L204.44553099941325,84.4L204.49540387248192,85.19999999999999L204.54527674555055,86L204.6948953647565,84.80000000000001L204.74476823782516,84.80000000000001L204.7946411108938,84.4L204.84451398396246,84.4L204.89438685703112,84.80000000000001L205.0938783493057,84.4L205.14375122237436,84.4L205.19362409544297,83.6L205.24349696851164,83.6L205.3931155877176,82.8L205.4429884607862,83.2L205.49286133385488,82.4L205.54273420692354,82L205.59260707999218,82.4L205.74222569919812,83.2L205.79209857226678,83.6L205.84197144533542,82.8L205.89184431840408,82L205.94171719147272,82L206.09133581067866,82L206.14120868374732,82.4L206.19108155681596,82.4L206.2409544298846,83.6L206.29082730295326,83.2L206.49031879522784,83.6L206.5401916682965,83.6L206.59006454136517,83.6L206.6399374144338,82.8L206.78955603363974,83.2L206.8394289067084,83.6L206.88930177977704,83.6L207.28828476432622,81.6L207.3381576373949,82L207.53764912966946,81.6L207.58752200273813,82L207.63739487580676,81.6L207.6872677488754,81.6L207.83688636808137,81.20000000000002L207.88675924115,81.20000000000002L207.93663211421864,80L207.9865049872873,79.19999999999999L208.03637786035597,79.60000000000001L208.23586935263054,79.60000000000001L208.2857422256992,79.19999999999999L208.53510659104245,80L208.5849794641111,81.6L208.63485233717972,81.6L208.6847252102484,81.6L208.73459808331702,82L208.88421670252296,81.6L208.93408957559163,81.6L208.98396244866026,81.6L209.03383532172893,82.4L209.0837081947976,82.8L209.23332681400353,85.60000000000001L209.28319968707217,85.60000000000001L209.33307256014083,84.80000000000001L209.38294543320944,85.60000000000001L209.4328183062781,85.60000000000001L209.58243692548407,86.8L209.63230979855268,86L209.68218267162135,85.60000000000001L209.73205554469,86.4L209.78192841775865,87.20000000000002L209.9315470369646,86.4L209.98141991003325,86L210.0312927831019,85.60000000000001L210.08116565617055,85.60000000000001L210.1310385292392,86L210.28065714844516,86.4L210.3305300215138,86.4L210.38040289458243,87.20000000000002L210.43027576765107,87.6L210.48014864071973,87.6L210.62976725992567,86.8L210.67964013299434,87.20000000000002L210.72951300606297,87.20000000000002L210.77938587913164,87.6L210.82925875220027,88L210.9788773714062,87.6L211.02875024447488,88.36L211.07862311754351,88.56L211.12849599061215,88.56L211.17836886368082,89.36L211.3778603559554,89.8L211.42773322902406,91.32L211.4776061020927,91.84L211.52747897516136,93L211.6770975943673,93.75999999999999L211.72697046743596,92.8L211.7768433405046,91.92L211.82671621357326,92.08L211.87658908664187,91.4L212.02620770584784,92.12L212.0760805789165,90.24000000000001L212.12595345198514,88.75999999999999L212.17582632505378,89.08L212.22569919812244,90.24000000000001L212.37531781732838,88.91999999999999L212.42519069039702,87.44L212.47506356346568,87.68L212.52493643653432,88.04L212.57480930960298,88.52000000000001L212.72442792880892,88.08L212.7743008018776,87.48000000000002L212.82417367494622,87.20000000000002L212.87404654801486,87.28L212.9239194210835,87.6L213.07353804028946,87.96L213.1234109133581,89.08L213.17328378642677,89.08L213.42264815177,89.32L213.47252102483864,89.84L213.5223938979073,89.39999999999999L213.57226677097594,89.68L213.62213964404458,90.32L213.77175826325055,90.84L213.82163113631918,90.64L213.87150400938782,90.39999999999999L213.92137688245649,90.16L213.97124975552512,90.56L214.46997848621163,92.68L214.51985135928027,91.8L214.5697242323489,91L214.61959710541757,91.32L214.6694699784862,91.67999999999999L214.81908859769214,91.8L214.8689614707608,91.67999999999999L214.91883434382945,92.83999999999999L214.9687072168981,93.44L215.01858008996678,93.72L215.16819870917269,92.44L215.21807158224135,91.56L215.26794445531002,90.24000000000001L215.31781732837862,91.35999999999999L215.3676902014473,91.52000000000001L215.51730882065326,90.24000000000001L215.56718169372186,90.8L215.61705456679053,90.39999999999999L215.6669274398592,90.67999999999999L215.71680031292783,90.76L215.86641893213377,89.8L215.91629180520243,89.28L215.96616467827107,89.56L216.01603755133974,87.56L216.06591042440837,86.56L216.2155290436143,84.64L216.26540191668298,85.67999999999999L216.3152747897516,84.28L216.36514766282025,83.91999999999999L216.4150205358889,83.96000000000001L216.56463915509485,84.60000000000001L216.6145120281635,84.60000000000001L216.66438490123215,85.39999999999999L216.71425777430082,85.64L216.76413064736946,85.03999999999999L216.9137492665754,84.68L216.96362213964406,80.32L217.0134950127127,81.88000000000001L217.06336788578133,79.48L217.11324075885,79.16L217.26285937805594,77.36000000000001L217.31273225112457,75.68L217.36260512419324,76.32L217.41247799726187,76.28L217.46235087033054,75.39999999999999L217.61196948953648,72.4L217.6618423626051,71.88L217.71171523567378,70.60000000000001L217.76158810874244,64.68L217.81146098181105,68.24L217.96107960101702,64.88L218.01095247408568,63.2L218.0608253471543,69.72L218.11069822022296,70.80000000000001L218.16057109329162,72.32L218.31018971249753,72.68L218.3600625855662,72.08L218.40993545863486,74.44L218.4598083317035,78.12L218.50968120477216,77.6L218.70917269704674,75.32L218.7590455701154,72.72L218.80891844318404,71.24000000000001L218.85879131625268,71.47999999999999L219.00840993545864,72.96L219.05828280852728,72.44L219.10815568159592,71.64L219.15802855466458,72.32L219.20790142773325,72.04L219.35752004693916,69.68L219.40739292000782,69.4L219.4572657930765,69.28L219.50713866614512,69L219.55701153921376,69.2L219.70663015841973,69.64L219.75650303148834,69.03999999999999L219.806375904557,65.8L219.85624877762567,65.39999999999999L220.25523176217484,63.08L220.4048503813808,60.120000000000005L220.45472325444945,61.03999999999999L220.50459612751808,61.99999999999999L220.55446900058672,63.239999999999995L220.6043418736554,62.52000000000001L220.75396049286132,63.160000000000004L220.80383336592996,63.160000000000004L220.85370623899863,62.36000000000001L220.9035791120673,64.19999999999999L220.95345198513593,65.48L221.10307060434187,67.08L221.15294347741053,65.07999999999998L221.20281635047917,66.6L221.2526892235478,67.04L221.30256209661647,66.88000000000001L221.45218071582244,67L221.50205358889104,67.16L221.5519264619597,64.92000000000002L221.60179933502835,64.64L221.651672208097,63.879999999999995L221.80129082730295,65.44L221.85116370037161,65.28L221.90103657344025,63.56L221.95090944650892,63.279999999999994L222.00078231957752,63.160000000000004L222.1504009387835,64.84L222.20027381185216,65.16L222.25014668492076,66.35999999999999L222.30001955798943,66.72L222.3498924310581,67.12L222.49951105026403,66.72L222.54938392333267,67L222.59925679640133,67.56L222.64912966946997,67.63999999999999L222.69900254253864,70.24000000000001L222.84862116174457,70.19999999999999L222.89849403481324,69.03999999999999L222.94836690788188,68.79999999999998L222.9982397809505,68.16000000000001L223.04811265401915,68.28L223.29747701936242,66.88000000000001L223.34734989243105,67.6L223.39722276549972,68.03999999999999L223.54684138470566,67.12L223.5967142577743,66.96000000000001L223.64658713084296,66.4L223.6964600039116,66.92L223.74633287698023,65.16L223.8959514961862,63.32000000000001L223.94582436925486,63.48000000000001L223.99569724232347,63.4L224.04557011539214,62.6L224.09544298846077,61.6L224.2450616076667,59.64L224.29493448073538,61.48L224.34480735380404,61.400000000000006L224.39468022687268,61.83999999999999L224.44455309994134,61.080000000000005L224.64404459221592,60.160000000000004L224.69391746528458,58.71999999999999L224.74379033835322,56.79999999999999L224.79366321142186,57.279999999999994L224.94328183062783,55.39999999999999L224.99315470369646,54.75999999999999L225.0430275767651,51.92L225.09290044983376,52.83999999999999L225.1427733229024,53.91999999999999L225.29239194210834,55.19999999999999L225.342264815177,54.879999999999995L225.39213768824567,54.60000000000001L225.4420105613143,55.64L225.49188343438294,54.75999999999999L225.6415020535889,52.879999999999995L225.69137492665755,52.91999999999999L225.74124779972618,53.239999999999995L225.79112067279485,53.52000000000001L225.84099354586348,53.36L226.09035791120672,54.52000000000001L226.1402307842754,54.8L226.19010365734403,54.52000000000001L226.33972227654996,55L226.38959514961863,54.08L226.43946802268727,54.08L226.4893408957559,54.43999999999998L226.53921376882457,55.72L226.6888323880305,56.2L226.73870526109914,56.6L226.7885781341678,58.48L226.83845100723647,57.400000000000006L226.8883238803051,56.88000000000001L227.03794249951105,59.92000000000001L227.0878153725797,60.03999999999999L227.13768824564835,58.239999999999995L227.18756111871699,57L227.23743399178565,58.00000000000001L227.3870526109916,59.36000000000001L227.43692548406023,59.480000000000004L227.4867983571289,58.68L227.53667123019753,57.92L227.5865441032662,57.279999999999994L227.73616272247213,55.96000000000001L227.78603559554077,55.67999999999999L227.83590846860943,56.440000000000005L227.8857813416781,57.08L227.9356542147467,55.96000000000001L228.08527283395267,56.080000000000005L228.13514570702134,56.56L228.18501858008995,56.79999999999999L228.2348914531586,57.239999999999995L228.28476432622728,57.319999999999986L228.43438294543319,57.239999999999995L228.48425581850185,56.279999999999994L228.53412869157052,56.120000000000005L228.58400156463915,56.88000000000001L228.63387443770782,56.56L228.78349305691376,56.56L228.8333659299824,56.24L228.88323880305106,55.28L228.9331116761197,55.8L228.98298454918833,55.72L229.1326031683943,54.96000000000001L229.18247604146293,54.36L229.23234891453157,54.52000000000001L229.28222178760024,54.60000000000001L229.3320946606689,54.480000000000004L229.4817132798748,53.16L229.53158615294348,53.120000000000005L229.58145902601214,52.959999999999994L229.63133189908078,53.43999999999998L229.6812047721494,54.56L229.83082339135538,55.24000000000001L229.88069626442402,55.519999999999996L229.93056913749265,55.120000000000005L229.98044201056132,55L230.03031488362996,54.39999999999999L230.1799335028359,54.000000000000014L230.22980637590456,53.640000000000015L230.2796792489732,53.32000000000001L230.32955212204186,53.2L230.37942499511053,52.75999999999999L230.52904361431646,51.959999999999994L230.5789164873851,53.28L230.62878936045377,53.16L230.67866223352237,53.640000000000015L230.72853510659104,53.239999999999995L230.878153725797,52.72L230.9280265988656,51.92L230.97789947193428,52.44L231.02777234500294,54.08L231.07764521807158,54.56L231.22726383727752,54.39999999999999L231.27713671034618,55.28L231.32700958341482,54.60000000000001L231.3768824564835,55.920000000000016L231.42675532955212,55.8L231.5763739487581,54.96000000000001L231.62624682182673,55.19999999999999L231.67611969489536,55L231.725992567964,54.480000000000004L231.77586544103266,55.08L231.9254840602386,55.760000000000005L231.97535693330727,55.16L232.0252298063759,54.920000000000016L232.07510267944457,55.31999999999999L232.12497555251318,55.08L232.6237042831997,53.84L232.67357715626832,53.84L232.723450029337,53.68000000000001L232.77332290240562,52.72L232.8231957754743,52.75999999999999L232.97281439468023,51.60000000000001L233.0226872677489,50.16000000000001L233.07256014081753,50.56000000000002L233.12243301388617,51.20000000000002L233.1723058869548,50.60000000000001L233.32192450616077,50.72L233.3717973792294,50.8L233.42167025229804,48.36L233.4715431253667,48.36L233.52141599843537,46.44L233.6710346176413,42.88000000000001L233.72090749070995,44.239999999999995L233.7707803637786,45.24000000000001L233.82065323684725,44.64L233.8705261099159,44.36L234.02014472912185,45L234.07001760219052,44.11999999999999L234.11989047525913,44.03999999999999L234.1697633483278,43.64L234.21963622139643,42.959999999999994L234.36925484060237,40.96000000000001L234.41912771367103,40.28L234.4690005867397,41L234.51887345980833,42.239999999999995L234.568746332877,41.75999999999999L234.71836495208294,41.31999999999999L234.76823782515157,40.31999999999999L234.81811069822024,38.599999999999994L234.86798357128885,39.20000000000002L234.9178564443575,41.08000000000001L235.06747506356348,40.08L235.11734793663211,40.040000000000006L235.16722080970075,41.31999999999999L235.21709368276942,43.32000000000001L235.26696655583805,43.2L235.416585175044,43L235.46645804811266,43.79999999999998L235.51633092118132,43.599999999999994L235.56620379424996,43.79999999999998L235.6160766673186,42.2L235.76569528652456,42.2L235.8155681595932,41.96000000000001L235.86544103266183,42.239999999999995L235.9153139057305,42.92L235.96518677879914,44.239999999999995L236.11480539800507,43.79999999999998L236.16467827107374,43.79999999999998L236.21455114414238,43.52000000000001L236.26442401721104,43.52000000000001L236.31429689027968,44.44L236.46391550948562,44L236.51378838255428,44.19999999999999L236.56366125562295,43.96000000000001L236.61353412869155,44.480000000000004L236.66340700176022,43.92L236.8628984940348,43.27999999999999L236.91277136710346,43L236.96264424017212,42.400000000000006L237.01251711324076,42.88000000000001L237.1621357324467,43.16L237.21200860551536,43.64L237.261881478584,42.2L237.31175435165267,41.75999999999999L237.3616272247213,42.08L237.51124584392724,41.359999999999985L237.5611187169959,41.400000000000006L237.61099159006454,41.44000000000001L237.66086446313318,40.83999999999999L237.71073733620184,40.88000000000001L237.86035595540778,41.56L237.91022882847642,41.8L237.96010170154509,41.75999999999999L238.00997457461375,42.08L238.05984744768236,42.040000000000006L238.20946606688833,42L238.259338939957,42.56L238.3092118130256,43.11999999999999L238.35908468609426,43.400000000000006L238.40895755916293,43.239999999999995L238.55857617836884,43.040000000000006L238.6084490514375,44.16L238.65832192450617,44.36L238.7081947975748,44.08L238.75806767064347,44.16L238.9076862898494,44.32000000000001L238.95755916291805,44.32000000000001L239.0074320359867,44.36L239.4064150205359,44.36L239.45628789360455,44.11999999999999L239.60590651281046,45.16L239.65577938587913,45.80000000000001L239.7056522589478,46.20000000000002L239.75552513201643,45.84L239.80539800508507,45.56L239.95501662429103,45.599999999999994L240.00488949735967,45.64L240.0547623704283,46.11999999999999L240.10463524349697,45.92L240.1545081165656,45.96000000000001L240.30412673577155,46.03999999999999L240.3539996088402,45.519999999999996L240.40387248190885,45.64L240.4537453549775,45.88000000000001L240.50361822804618,46.20000000000002L240.6532368472521,46.599999999999994L240.70310972032075,47.08L240.75298259338942,47.31999999999999L240.80285546645803,48.68000000000001L240.8527283395267,49.84L241.00234695873266,50.39999999999999L241.05221983180127,50.60000000000001L241.10209270486993,49.92L241.1519655779386,49.36L241.20183845100723,49.959999999999994L241.35145707021317,50.16000000000001L241.40132994328184,49.879999999999995L241.45120281635047,50.47999999999999L241.70056718169374,51.60000000000001L241.75044005476238,50.92L241.80031292783102,50.8L241.85018580089965,51.31999999999999L241.90005867396832,51.24000000000001L242.04967729317426,52.8L242.0995501662429,53.56L242.14942303931156,60.03999999999999L242.19929591238022,59.16L242.24916878544886,58.08L242.3987874046548,55.920000000000016L242.44866027772346,56.84000000000002L242.4985331507921,55.19999999999999L242.54840602386074,54.31999999999999L242.5982788969294,54.08L242.84764326227264,52.56L242.89751613534128,53.879999999999995L242.94738900840994,54.480000000000004" fill="none" stroke="#af516c" stroke-linejoin="round" stroke-linecap="round" stroke-width="2"></path></g></g></svg>