<svg xmlns="http://www.w3.org/2000/svg" viewBox="0 0 304 270"><style>/* <![CDATA[ */.chart-title{font-size:20px;fill:#43423e}.chart-subtitle{font-size:15px;fill:#74736c}.chart-source{font-size:10px;fill-opacity:.4}.axis .domain{fill:none;stroke:#74736c}.tick line{fill:none;stroke:#000;stroke-opacity:.2}.tick text{fill-opacity:.6;font-size:12px}.y.axis .tick line{stroke-dasharray:1}.y.axis .domain{fill:none;stroke-opacity:0}.y.axis .highlight-line{fill:none;stroke:#74736c}/* ]]> */</style><text class="chart-title" y="22">中国外汇存底</text><text class="chart-subtitle" y="42">10亿美元</text><text class="chart-source" y="265">来源:CEIC. 2018年4月8日</text><g transform="translate(1,100)"><g class="x axis" transform="translate(0,120)" fill="none" font-size="10" font-family="sans-serif" text-anchor="middle"><path class="domain" stroke="#000" d="M0.5,0V0.5H255.5V0"></path><g class="tick" opacity="1" transform="translate(18.703598670056717,0)"><line stroke="#000" y2="6"></line><text fill="#000" y="9" dy="0.71em">2006</text></g><g class="tick" opacity="1" transform="translate(55.110796010170155,0)"><line stroke="#000" y2="6"></line><text fill="#000" y="9" dy="0.71em">2008</text></g><g class="tick" opacity="1" transform="translate(91.56786622335224,0)"><line stroke="#000" y2="6"></line><text fill="#000" y="9" dy="0.71em">2010</text></g><g class="tick" opacity="1" transform="translate(127.97506356346567,0)"><line stroke="#000" y2="6"></line><text fill="#000" y="9" dy="0.71em">2012</text></g><g class="tick" opacity="1" transform="translate(164.43213377664776,0)"><line stroke="#000" y2="6"></line><text fill="#000" y="9" dy="0.71em">2014</text></g><g class="tick" opacity="1" transform="translate(200.8393311167612,0)"><line stroke="#000" y2="6"></line><text fill="#000" y="9" dy="0.71em">2016</text></g><g class="tick" opacity="1" transform="translate(237.29640132994328,0)"><line stroke="#000" y2="6"></line><text fill="#000" y="9" dy="0.71em">2018</text></g></g><g class="y axis" transform="translate(255,0)" fill="none" font-size="10" font-family="sans-serif" text-anchor="start"><path class="domain" stroke="#000" d="M0,120.5H0.5V0.5H0"></path><g class="tick" opacity="1" transform="translate(0,107.68377088305489)"><line stroke="#000" x2="-255"></line><text fill="#000" x="3" dy="0.32em">1,000</text></g><g class="tick" opacity="1" transform="translate(0,71.88424821002387)"><line stroke="#000" x2="-255"></line><text fill="#000" x="3" dy="0.32em">2,000</text></g><g class="tick" opacity="1" transform="translate(0,36.08472553699285)"><line stroke="#000" x2="-255"></line><text fill="#000" x="3" dy="0.32em">3,000</text></g></g><g><path d="M1.5626833561509876,119.97816229116945L2.959123802073147,119.38625298329356L4.505182867201252,118.9699045346062L6.001369059260709,118.2453937947494L7.547428124388813,117.53079952267304L9.043614316448268,116.75180190930787L10.589673381576374,116.0187708830549L12.135732446704479,115.45331742243437L13.631918638763935,114.88418985680191L15.17797770389204,114.55049498806683L16.674163895951498,113.668076849642L18.220222961079603,112.72625298329356L19.76628202620771,112.42224343675417L21.162722472129865,111.65620525059666L22.70878153725797,110.9412991646778L24.204967729317424,109.86803198090692L25.75102679444553,109.29183651551313L27.247212986504987,108.81086097852028L28.793272051633092,108.1847599045346L30.339331116761198,107.61595381861575L31.835517308820652,106.83915L33.381576373948754,105.79650178997613L34.877762566008215,104.80867804295943L36.42382163113632,103.43585513126492L37.969880696264426,101.54991980906922L39.36632114218658,99.95115644391407L40.91238020731468,98.35684116945107L42.408566399374145,96.70628949880668L43.95462546450225,95.27596503579952L45.450811656561704,93.39380155131265L46.99687072168981,92.5546113365155L48.542929786817915,91.66068973747016L50.039115978877376,90.89864248210023L51.58517504400548,89.39477935560859L53.081361236064936,88.27270489260144L54.62742030119304,86.06884009546539L56.173479366321146,84.0166929594272L57.61979268531195,82.76215990453461L59.165851750440055,80.09587804295943L60.66203794249951,78.65295680190931L62.208097007627615,78.22811276849642L63.704283199687076,76.92729665871121L65.25034226481517,75.53152303102625L66.79640132994328,74.76427732696897L68.29258752200275,75.69137613365154L69.83864658713084,75.51131312649164L71.3348327791903,73.3163398568019L72.88089184431841,74.48248210023867L74.4269509094465,74.53224343675417L75.82339135536867,73.04029832935561L77.36945042049676,71.06634844868734L78.86563661255623,68.18051312649165L80.41169567768434,66.672811575179L81.90788186974379,65.13301038186158L83.4539409348719,63.83674653937947L85,61.625471241050114L86.49618619205947,59.63226730310262L88.04224525718756,57.46580656324583L89.53843144924701,57.09478675417661L91.08449051437512,56.51953210023866L92.63054957950322,56.184104892601425L94.02699002542539,55.378866945107404L95.57304909055348,53.824163484486874L97.06923528261295,55.65015107398568L98.61529434774106,55.121427207637225L100.1114805398005,52.0921020286396L101.65753960492862,51.77191968973747L103.2035986700567,48.175310262529834L104.69978486211618,44.144427207637236L106.24584392724428,43.897052505966585L107.74203011930373,41.0499522673031L109.28808918443184,38.03076372315036L110.83414824955995,35.89310262529834L112.2305886954821,33.98541766109784L113.7766477606102,30.36361575178998L115.27283395266967,29.64211217183771L116.81889301779776,28.514642004773265L118.31507920985722,26.803711217183775L119.86113827498534,26.18738663484487L121.40719734011343,28.36457040572793L122.9033835321729,25.782959427207643L124.449442597301,27.67636038186157L125.94562878936046,29.099713603818614L127.49168785448856,26.504856801909312L129.03774691961667,24.499152744630067L130.48406023860747,24.666909307875898L132.03011930373557,24.883782816229115L133.52630549579501,28.20612171837709L135.07236456092315,26.99266109785202L136.5685507529826,26.994558472553692L138.11460981811072,25.814999999999998L139.6606688832388,25.378460620525075L141.15685507529824,25.295026968973744L142.70291414042637,24.928231861575185L144.1991003324858,24.429979832935558L145.74515939761395,20.90473747016705L147.29121846274202,21.428949880668256L148.6876589086642,19.73810262529834L150.2337179737923,16.450525059665864L151.72990416585176,17.154866348448678L153.27596323097984,17.803603818615755L154.7721494230393,15.973389021479719L156.31820848816741,15.786050119331733L157.86426755329552,11.861742243436765L159.360453745355,9.215262529832927L160.90651281048306,7.322756563245818L162.40269900254253,6.18204057279236L163.94875806767064,4.55940501193318L165.49481713279874,2.8732976133651675L166.8912575787209,1.6433219570405697L168.43731664384902,0.5443260143198074L169.93350283590848,0.36191846062052946L171.4795619010366,0.02818424821002452L172.97574809309603,0.9928281622911754L174.52180715822414,0.9012529832935741L176.06786622335224,3.8054892601432044L177.56405241541168,5.050659665871123L179.1101114805398,5.24985608591885L180.60629767259925,5.405085680190922L182.1523567377274,6.464900477326978L183.69841580285546,6.891318257756566L185.09485624877763,9.449715393794762L186.6409153139057,8.801599045346066L188.13710150596518,10.126145584725535L189.68316057109328,10.745656324582328L191.17934676315275,12.268142486276858L192.72540582828086,15.63075178997613L194.27146489340896,17.179462921360383L195.7676510854684,16.77183356849642L197.3137101505965,19.894367541766115L198.80989634265597,23.75792362768496L200.35595540778408,27.318866348448694L201.90201447291219,28.341730310262534L203.348327791903,27.97449880668256L204.89438685703112,27.720715990453456L206.39057304909056,28.72066825775657L207.93663211421864,28.24002386634845L209.4328183062781,28.386980906921252L210.9788773714062,28.95583532219571L212.52493643653432,29.628329355608585L214.0211226285938,31.265334128878266L215.56718169372186,33.737541766109786L217.06336788578133,35.20822195704058L218.60942695090944,35.649021479713596L220.15548601603754,35.40128878281624L221.5519264619597,35.25937947494032L223.09798552708781,34.527458233890215L224.59417171914728,33.667052505966595L226.1402307842754,33.55170644391407L227.63641697633486,32.694988066825786L229.18247604146293,32.30810262529832L230.72853510659104,31.70011933174223L232.2247212986505,31.674952267303098L233.7707803637786,31.31466587112172L235.26696655583805,30.574618138424825L236.8130256209662,29.80464200477327L238.35908468609426,30.770334128878275L239.75552513201643,30.471837708830535" fill="none" stroke="#af516c" stroke-linejoin="round" stroke-linecap="round" stroke-width="2"></path></g></g></svg>