<svg xmlns="http://www.w3.org/2000/svg" viewBox="0 0 304 270"><style>/* <![CDATA[ */.chart-title{font-size:20px;fill:#43423e}.chart-subtitle{font-size:15px;fill:#74736c}.chart-source{font-size:10px;fill-opacity:.4}.axis .domain{fill:none;stroke:#74736c}.tick line{fill:none;stroke:#000;stroke-opacity:.2}.tick text{fill-opacity:.6;font-size:12px}.y.axis .tick line{stroke-dasharray:1}.y.axis .domain{fill:none;stroke-opacity:0}.y.axis .highlight-line{fill:none;stroke:#74736c}/* ]]> */</style><text class="chart-title" y="22">中国债佔GDP比例</text><text class="chart-subtitle" y="42">％</text><text class="chart-source" y="265">来源:世界银行╱FRED. 2016年1月21日</text><g transform="translate(1,100)"><g class="x axis" transform="translate(0,120)" fill="none" font-size="10" font-family="sans-serif" text-anchor="middle"><path class="domain" stroke="#000" d="M0.5,0V0.5H255.5V0"></path><g class="tick" opacity="1" transform="translate(0.5,0)"><line stroke="#000" y2="6"></line><text fill="#000" y="9" dy="0.71em">1990</text></g><g class="tick" opacity="1" transform="translate(51.472070098576125,0)"><line stroke="#000" y2="6"></line><text fill="#000" y="9" dy="0.71em">1992</text></g><g class="tick" opacity="1" transform="translate(102.51396495071195,0)"><line stroke="#000" y2="6"></line><text fill="#000" y="9" dy="0.71em">1994</text></g><g class="tick" opacity="1" transform="translate(153.48603504928806,0)"><line stroke="#000" y2="6"></line><text fill="#000" y="9" dy="0.71em">1996</text></g><g class="tick" opacity="1" transform="translate(204.5279299014239,0)"><line stroke="#000" y2="6"></line><text fill="#000" y="9" dy="0.71em">1998</text></g><g class="tick" opacity="1" transform="translate(255.5,0)"><line stroke="#000" y2="6"></line><text fill="#000" y="9" dy="0.71em">2000</text></g></g><g class="y axis" transform="translate(255,0)" fill="none" font-size="10" font-family="sans-serif" text-anchor="start"><path class="domain" stroke="#000" d="M0,120.5H0.5V0.5H0"></path><g class="tick" opacity="1" transform="translate(0,103.35714285714286)"><line stroke="#000" x2="-255"></line><text fill="#000" x="3" dy="0.32em">6</text></g><g class="tick" opacity="1" transform="translate(0,69.07142857142858)"><line stroke="#000" x2="-255"></line><text fill="#000" x="3" dy="0.32em">8</text></g><g class="tick" opacity="1" transform="translate(0,34.78571428571428)"><line stroke="#000" x2="-255"></line><text fill="#000" x="3" dy="0.32em">10</text></g><g class="tick" opacity="1" transform="translate(0,0.5)"><line stroke="#000" x2="-255"></line><text fill="#000" x="3" dy="0.32em">12</text></g></g><g><path d="M0.023274917853231106,94.70878043628977L25.50930996714129,100.43228034275485L50.995345016429354,107.31485239925829L76.55120481927712,116.21545153116823L102.03723986856517,104.95470905223206L127.52327491785324,97.7284723346568L153.00930996714132,86.59728859524856L178.56516976998907,73.8536678901108L204.0512048192771,46.02341853781387L229.53723986856517,6.702913153397134" fill="none" stroke="#af516c" stroke-linejoin="round" stroke-linecap="round" stroke-width="2"></path></g></g></svg>