<svg xmlns="http://www.w3.org/2000/svg" viewBox="0 0 304 270"><style>/* <![CDATA[ */.chart-title{font-size:20px;fill:#43423e}.chart-subtitle{font-size:15px;fill:#74736c}.chart-source{font-size:10px;fill-opacity:.4}.axis .domain{fill:none;stroke:#74736c}.tick line{fill:none;stroke:#000;stroke-opacity:.2}.tick text{fill-opacity:.6;font-size:12px}.y.axis .tick line{stroke-dasharray:1}.y.axis .domain{fill:none;stroke-opacity:0}.y.axis .highlight-line{fill:none;stroke:#74736c}/* ]]> */</style><text class="chart-title" y="22">中国贸易收支平衡</text><text class="chart-subtitle" y="42">10亿美元</text><text class="chart-source" y="265">来源:CEIC. 2018年3月23日</text><g transform="translate(1,100)"><g class="x axis" transform="translate(0,120)" fill="none" font-size="10" font-family="sans-serif" text-anchor="middle"><path class="domain" stroke="#000" d="M0.5,0V0.5H255.5V0"></path><g class="tick" opacity="1" transform="translate(18.703598670056717,0)"><line stroke="#000" y2="6"></line><text fill="#000" y="9" dy="0.71em">2006</text></g><g class="tick" opacity="1" transform="translate(55.110796010170155,0)"><line stroke="#000" y2="6"></line><text fill="#000" y="9" dy="0.71em">2008</text></g><g class="tick" opacity="1" transform="translate(91.56786622335224,0)"><line stroke="#000" y2="6"></line><text fill="#000" y="9" dy="0.71em">2010</text></g><g class="tick" opacity="1" transform="translate(127.97506356346567,0)"><line stroke="#000" y2="6"></line><text fill="#000" y="9" dy="0.71em">2012</text></g><g class="tick" opacity="1" transform="translate(164.43213377664776,0)"><line stroke="#000" y2="6"></line><text fill="#000" y="9" dy="0.71em">2014</text></g><g class="tick" opacity="1" transform="translate(200.8393311167612,0)"><line stroke="#000" y2="6"></line><text fill="#000" y="9" dy="0.71em">2016</text></g><g class="tick" opacity="1" transform="translate(237.29640132994328,0)"><line stroke="#000" y2="6"></line><text fill="#000" y="9" dy="0.71em">2018</text></g></g><g class="y axis" transform="translate(255,0)" fill="none" font-size="10" font-family="sans-serif" text-anchor="start"><path class="domain" stroke="#000" d="M0,120.5H0.5V0.5H0"></path><g class="tick" opacity="1" transform="translate(0,113.66062176165804)"><line stroke="#000" x2="-255"></line><text fill="#000" x="3" dy="0.32em">50</text></g><g class="tick" opacity="1" transform="translate(0,82.57253886010363)"><line stroke="#000" x2="-255"></line><text fill="#000" x="3" dy="0.32em">100</text></g><g class="tick" opacity="1" transform="translate(0,51.48445595854922)"><line stroke="#000" x2="-255"></line><text fill="#000" x="3" dy="0.32em">150</text></g><g class="tick" opacity="1" transform="translate(0,20.39637305699482)"><line stroke="#000" x2="-255"></line><text fill="#000" x="3" dy="0.32em">200</text></g></g><g class="chart-key" transform="translate(0, -35)"><g class="key-element" transform="translate(0,0)"><text x="28" font-size="12">进口</text><line x1="0" x2="25" y1="-5" y2="-5" stroke-width="2" fill="none" stroke="#af516c"></line></g><g class="key-element" transform="translate(0,20)"><text x="28" font-size="12">出口</text><line x1="0" x2="25" y1="-5" y2="-5" stroke-width="2" fill="none" stroke="#76acb8"></line></g></g><g><path d="M1.5626833561509876,119.43046632124353L2.959123802073147,109.96725388601035L4.505182867201252,108.46010362694301L6.001369059260709,113.50943005181347L7.547428124388813,109.25471502590673L9.043614316448268,110.02756476683938L10.589673381576374,108.30652849740932L12.135732446704479,105.31212435233161L13.631918638763935,109.38279792746114L15.17797770389204,105.89409326424871L16.674163895951498,104.20974093264249L18.220222961079603,109.74093264248705L19.76628202620771,112.11357512953369L21.162722472129865,102.67958549222797L22.70878153725797,102.90715025906735L24.204967729317424,106.87461139896374L25.75102679444553,102.7100518134715L27.247212986504987,103.39025906735752L28.793272051633092,99.50051813471502L30.339331116761198,96.78217616580311L31.835517308820652,104.27067357512954L33.381576373948754,98.9061139896373L34.877762566008215,98.799792746114L36.42382163113632,100.26590673575129L37.969880696264426,107.97575129533679L39.36632114218658,96.65098445595855L40.91238020731468,94.13222797927462L42.408566399374145,99.7361658031088L43.95462546450225,96.7722279792746L45.450811656561704,92.4018652849741L46.99687072168981,90.54031088082903L48.542929786817915,89.18113989637305L50.039115978877376,94.08932642487046L51.58517504400548,87.45699481865284L53.081361236064936,87.21512953367875L54.62742030119304,88.1819689119171L56.173479366321146,95.24580310880829L57.61979268531195,84.83564766839379L59.165851750440055,80.81098445595856L60.66203794249951,81.89409326424871L62.208097007627615,81.95937823834197L63.704283199687076,74.98632124352332L65.25034226481517,78.23129533678757L66.79640132994328,77.67962238341968L68.29258752200275,86.37015544041452L69.83864658713084,97.68032953367876L71.3348327791903,99.3716978238342L72.88089184431841,112.32480994818653L74.4269509094465,106.90964269430052L75.82339135536867,99.65029305699483L77.36945042049676,95.25408062176166L78.86563661255623,97.3869289119171L80.41169567768434,90.04595378238342L81.90788186974379,85.31155461139896L83.4539409348719,89.53664207253885L85,80.20360352331606L86.49618619205947,90.29549284974092L88.04224525718756,85.45465430051814L89.53843144924701,74.42877948186529L91.08449051437512,84.9904370984456L92.63054957950322,90.21119191709845L94.02699002542539,70.0426370984456L95.57304909055348,70.7319494300518L97.06923528261295,74.46979336787564L98.61529434774106,71.27022217616582L100.1114805398005,71.63382341968912L101.65753960492862,70.09358424870466L103.2035986700567,64.5946296373057L104.69978486211618,76.5805970984456L106.24584392724428,63.14863523316062L107.74203011930373,56.53751316062176L109.28808918443184,54.54515440414508L110.83414824955995,79.55923896373056L112.2305886954821,49.70343544041451L113.7766477606102,54.55145222797927L115.27283395266967,54.646493471502595L116.81889301779776,57.38350383419689L118.31507920985722,54.93610756476684L119.86113827498534,47.52948870466321L121.40719734011343,47.776737823834196L122.9033835321729,56.917493471502596L124.449442597301,44.806635233160634L125.94562878936046,45.88794466321244L127.49168785448856,67.98265678756476L129.03774691961667,53.5000949222798L130.48406023860747,44.573596476683946L132.03011930373557,54.20236849740934L133.52630549579501,43.24884559585492L135.07236456092315,51.92806321243525L136.5685507529826,49.869464455958564L138.11460981811072,50.168240829015545L139.6606688832388,45.587266321243504L141.15685507529824,55.0107258031088L142.70291414042637,44.923839170984465L144.1991003324858,40.03445906735752L145.74515939761395,45.87400227979275L147.29121846274202,67.06210880829016L148.6876589086642,30.458178031088067L150.2337179737923,39.23316435233161L151.72990416585176,43.311197098445604L153.27596323097984,52.730740725388614L154.7721494230393,39.6849537823834L156.31820848816741,43.467639170984455L157.86426755329552,38.27677989637306L159.360453745355,48.31158715025907L160.90651281048306,39.54162590673576L162.40269900254253,31.02492870466321L163.94875806767064,35.27700282715027L165.49481713279874,59.01606992953367L166.8912575787209,43.27169350010362L168.43731664384902,38.494522341139884L169.93350283590848,45.04589259481867L171.4795619010366,47.73647183751295L172.97574809309603,41.29087352642489L174.52180715822414,45.61903380559585L176.06786622335224,30.637860110051804L177.56405241541168,43.8583037658031L179.1101114805398,46.51629948186529L180.60629767259925,33.636889944870475L182.1523567377274,57.06146127792748L183.69841580285546,76.74307758031088L185.09485624877763,56.277301089326436L186.6409153139057,55.836475507150254L188.13710150596518,62.679702027357514L189.68316057109328,53.82176395585492L191.17934676315275,49.696430367668384L192.72540582828086,59.298324501761655L194.27146489340896,53.96100783606218L195.7676510854684,62.951876519378224L197.3137101505965,55.51186863108808L198.80989634265597,42.09678435481864L200.35595540778408,73.43075925264247L201.90201447291219,86.08149568663211L203.348327791903,62.82503378362695L204.89438685703112,65.16049520766839L206.39057304909056,62.74578786528498L207.93663211421864,62.005129306943005L209.4328183062781,61.91828593616579L210.9788773714062,58.107962680414516L212.52493643653432,55.63501433409327L214.0211226285938,63.97763315378238L215.56718169372186,51.40924873554404L217.06336788578133,39.42220393243524L218.60942695090944,62.54347492041451L220.15548601603754,63.90053056290155L221.5519264619597,46.828443531606226L223.09798552708781,55.98610244020723L224.59417171914728,50.847550039585485L226.1402307842754,48.59792934217617L227.63641697633486,52.92665597284973L229.18247604146293,46.36901779958549L230.72853510659104,38.78191723088082L232.2247212986505,50.490351363730554L233.7707803637786,34.092470462176166L235.26696655583805,34.127451798341966L236.8130256209662,32.24312212041451L238.35908468609426,58.529663271917094" fill="none" stroke="#af516c" stroke-linejoin="round" stroke-linecap="round" stroke-width="2"></path><path d="M1.5626833561509876,116.72145077720207L2.959123802073147,106.40269430051814L4.505182867201252,105.60559585492229L6.001369059260709,107.92103626943005L7.547428124388813,103.23730569948187L9.043614316448268,103.47108808290156L10.589673381576374,101.720207253886L12.135732446704479,100.60974093264248L13.631918638763935,101.91170984455958L15.17797770389204,99.3463212435233L16.674163895951498,97.36041450777202L18.220222961079603,103.84103626943005L19.76628202620771,110.60642487046633L21.162722472129865,95.72269430051813L22.70878153725797,96.40538860103628L24.204967729317424,98.78922279792747L25.75102679444553,93.69264248704663L27.247212986504987,94.29823834196891L28.793272051633092,87.8138860103627L30.339331116761198,87.27730569948187L31.835517308820652,89.45471502590674L33.381576373948754,84.65036269430053L34.877762566008215,85.74466321243524L36.42382163113632,90.39170984455959L37.969880696264426,93.20455958549223L39.36632114218658,92.37886010362693L40.91238020731468,83.65803108808291L42.408566399374145,85.76269430051815L43.95462546450225,80.04062176165803L45.450811656561704,77.25761658031088L46.99687072168981,75.01243523316062L48.542929786817915,74.31233160621761L50.039115978877376,77.2700518134715L51.58517504400548,71.11647668393783L53.081361236064936,73.10922279792746L54.62742030119304,76.06943005181347L56.173479366321146,89.92663212435234L57.61979268531195,76.499689119171L59.165851750440055,70.44124352331607L60.66203794249951,69.32891191709845L62.208097007627615,68.68414507772022L63.704283199687076,59.26943005181346L65.25034226481517,60.3898445595855L66.79640132994328,59.41839792746114L68.29258752200275,64.45989637305699L69.83864658713084,72.75401968911916L71.3348327791903,75.13540787564767L72.88089184431841,88.0081243523316L74.4269509094465,103.89970010362694L75.82339135536867,88.10950445595854L77.36945042049676,87.08721948186529L78.86563661255623,89.06245430051814L80.41169567768434,84.8629896373057L81.90788186974379,78.70243896373057L83.4539409348719,79.76766279792747L85,72.16290528497409L86.49618619205947,75.38090176165804L88.04224525718756,73.58336020725389L89.53843144924701,62.96960766839378L91.08449051437512,76.18116124352332L92.63054957950322,85.47810528497409L94.02699002542539,74.54189036269429L95.57304909055348,69.6866325388601L97.06923528261295,62.32649409326424L98.61529434774106,58.82140227979275L100.1114805398005,53.77036974093265L101.65753960492862,57.635919170984444L103.2035986700567,54.10241347150259L104.69978486211618,59.70081823834195L106.24584392724428,48.91662466321243L107.74203011930373,48.40483212435234L109.28808918443184,50.52798901554402L110.83414824955995,84.10189181347151L112.2305886954821,49.617157927461136L113.7766477606102,47.45031046632124L115.27283395266967,46.53438901554405L116.81889301779776,43.53527067357514L118.31507920985722,35.360806632124365L119.86113827498534,36.48764953367878L121.40719734011343,38.75253139896374L122.9033835321729,46.326981139896375L124.449442597301,35.77360227979274L125.94562878936046,35.615968290155436L127.49168785448856,51.02231316062175L129.03774691961667,73.07521678756477L130.48406023860747,41.24884974093263L132.03011930373557,42.74504953367877L133.52630549579501,31.622324145077727L135.07236456092315,32.20447461139895L136.5685507529826,34.234176994818654L138.11460981811072,33.591732435233155L139.6606688832388,28.38372497409327L141.15685507529824,35.08532518134713L142.70291414042637,32.716621554404156L144.1991003324858,20.375327253886013L145.74515939761395,27.751975958549224L147.29121846274202,57.595501554404144L148.6876589086642,30.969948808290155L150.2337179737923,27.941052435233175L151.72990416585176,30.611741347150243L153.27596323097984,35.86582632124352L154.7721494230393,28.606435025906734L156.31820848816741,25.735761450777204L157.86426755329552,28.82195875647669L159.360453745355,28.97062632124353L160.90651281048306,18.52551108808288L162.40269900254253,15.08243129533679L163.94875806767064,15.461892137409336L165.49481713279874,73.30962017098446L166.8912575787209,38.4820797581347L168.43731664384902,27.02142097305699L169.93350283590848,22.711137560829016L171.4795619010366,28.110754247875647L172.97574809309603,11.881204173264251L174.52180715822414,14.63262375108809L176.06786622335224,11.386034187979291L177.56405241541168,15.626913174715042L179.1101114805398,12.646392124352346L180.60629767259925,2.7901281935751285L182.1523567377274,19.735936604145067L183.69841580285546,39.05251022860104L185.09485624877763,54.36151880518135L186.6409153139057,34.612963947357514L188.13710150596518,26.07819608766839L189.68316057109328,24.8857360184456L191.17934676315275,22.94516876953368L192.72540582828086,21.843577100518146L194.27146489340896,16.442741485181344L195.7676510854684,24.624380183005186L197.3137101505965,22.095404581554405L198.80989634265597,5.17087974341969L200.35595540778408,34.08142617139896L201.90201447291219,65.81673912994819L203.348327791903,44.26114271378239L204.89438685703112,36.834524026943L206.39057304909056,31.67293436020725L207.93663211421864,32.217220393989635L209.4328183062781,30.688839700103628L210.9788773714062,25.745712626114L212.52493643653432,29.534913291606216L214.0211226285938,33.6578050961658L215.56718169372186,23.908945660103612L217.06336788578133,14.111266166424855L218.60942695090944,30.620260821761647L220.15548601603754,69.58820708829015L221.5519264619597,31.95813364787564L223.09798552708781,32.33887112518134L224.59417171914728,25.483451576580308L226.1402307842754,22.016024289326424L227.63641697633486,23.874931991502592L229.18247604146293,20.30522333409327L230.72853510659104,20.9961352899482L232.2247212986505,26.748354675854927L233.7707803637786,9.088902659067358L235.26696655583805,0.12660803191710102L236.8130256209662,19.59081766569949L238.35908468609426,37.5442129834197" fill="none" stroke="#76acb8" stroke-linejoin="round" stroke-linecap="round" stroke-width="2"></path></g></g></svg>