<svg xmlns="http://www.w3.org/2000/svg" viewBox="0 0 304 270"><style>/* <![CDATA[ */.chart-title{font-size:20px;fill:#43423e}.chart-subtitle{font-size:15px;fill:#74736c}.chart-source{font-size:10px;fill-opacity:.4}.axis .domain{fill:none;stroke:#74736c}.tick line{fill:none;stroke:#000;stroke-opacity:.2}.tick text{fill-opacity:.6;font-size:12px}.y.axis .tick line{stroke-dasharray:1}.y.axis .domain{fill:none;stroke-opacity:0}.y.axis .highlight-line{fill:none;stroke:#74736c}/* ]]> */</style><text class="chart-title" y="22">中国实际GDP增长率</text><text class="chart-subtitle" y="42">每季同比增长率％</text><text class="chart-source" y="265">来源:CEIC整理. 2018年1月18日</text><g transform="translate(1,100)"><g class="x axis" transform="translate(0,120)" fill="none" font-size="10" font-family="sans-serif" text-anchor="middle"><path class="domain" stroke="#000" d="M0.5,0V0.5H255.5V0"></path><g class="tick" opacity="1" transform="translate(20.102990732940185,0)"><line stroke="#000" y2="6"></line><text fill="#000" y="9" dy="0.71em">2006</text></g><g class="tick" opacity="1" transform="translate(59.308972198820555,0)"><line stroke="#000" y2="6"></line><text fill="#000" y="9" dy="0.71em">2008</text></g><g class="tick" opacity="1" transform="translate(98.56866048862679,0)"><line stroke="#000" y2="6"></line><text fill="#000" y="9" dy="0.71em">2010</text></g><g class="tick" opacity="1" transform="translate(137.77464195450716,0)"><line stroke="#000" y2="6"></line><text fill="#000" y="9" dy="0.71em">2012</text></g><g class="tick" opacity="1" transform="translate(177.0343302443134,0)"><line stroke="#000" y2="6"></line><text fill="#000" y="9" dy="0.71em">2014</text></g><g class="tick" opacity="1" transform="translate(216.24031171019377,0)"><line stroke="#000" y2="6"></line><text fill="#000" y="9" dy="0.71em">2016</text></g><g class="tick" opacity="1" transform="translate(255.5,0)"><line stroke="#000" y2="6"></line><text fill="#000" y="9" dy="0.71em">2018</text></g></g><g class="y axis" transform="translate(255,0)" fill="none" font-size="10" font-family="sans-serif" text-anchor="start"><path class="domain" stroke="#000" d="M0,120.5H0.5V0.5H0"></path><g class="tick" opacity="1" transform="translate(0,120.5)"><line stroke="#000" x2="-255"></line><text fill="#000" x="3" dy="0.32em">6</text></g><g class="tick" opacity="1" transform="translate(0,93.83333333333334)"><line stroke="#000" x2="-255"></line><text fill="#000" x="3" dy="0.32em">8</text></g><g class="tick" opacity="1" transform="translate(0,67.16666666666667)"><line stroke="#000" x2="-255"></line><text fill="#000" x="3" dy="0.32em">10</text></g><g class="tick" opacity="1" transform="translate(0,40.5)"><line stroke="#000" x2="-255"></line><text fill="#000" x="3" dy="0.32em">12</text></g><g class="tick" opacity="1" transform="translate(0,13.833333333333343)"><line stroke="#000" x2="-255"></line><text fill="#000" x="3" dy="0.32em">14</text></g></g><g><path d="M3.186604886267902,52L8.127632687447347,52L13.06866048862679,55.999999999999986L17.95598146588037,34.66666666666666L22.78959561920809,33.33333333333333L27.73062342038753,17.333333333333343L32.671651221566975,37.33333333333334L37.55897219882056,33.33333333333333L42.39258635214827,16L47.333614153327716,0L52.27464195450716,9.333333333333329L57.16196293176074,14.666666666666671L62.04928390901432,46.66666666666666L66.99031171019377,54.66666666666666L71.93133951137321,73.33333333333334L76.81866048862679,105.33333333333334L81.6522746419545,114.66666666666666L86.59330244313395,90.66666666666669L91.5343302443134,58.66666666666667L96.42165122156698,41.33333333333333L101.25526537489469,37.33333333333334L106.19629317607414,55.999999999999986L111.13732097725358,68L116.02464195450716,68L120.85825610783488,64.00000000000001L125.79928390901432,66.66666666666667L130.74031171019377,74.66666666666666L135.62763268744735,82.66666666666666L140.51495366470093,92L145.45598146588037,98.66666666666667L150.39700926705981,100L155.2843302443134,92L160.1179443976411,94.66666666666666L165.05897219882056,98.66666666666667L170,94.66666666666666L174.88732097725358,97.33333333333333L179.7209351305813,101.33333333333333L184.66196293176074,100L189.60299073294019,105.33333333333334L194.49031171019377,104L199.32392586352148,106.66666666666667L204.26495366470093,106.66666666666667L209.20598146588037,108L214.09330244313395,109.33333333333334L218.98062342038753,110.66666666666666L223.92165122156698,110.66666666666666L228.86267902274642,110.66666666666666L233.75,109.33333333333334L238.58361415332772,108L243.52464195450716,108L248.4656697556866,109.33333333333334L253.35299073294019,109.33333333333334" fill="none" stroke="#af516c" stroke-linejoin="round" stroke-linecap="round" stroke-width="2"></path></g></g></svg>