<svg xmlns="http://www.w3.org/2000/svg" viewBox="0 0 304 270"><style>/* <![CDATA[ */.chart-title{font-size:20px;fill:#43423e}.chart-subtitle{font-size:15px;fill:#74736c}.chart-source{font-size:10px;fill-opacity:.4}.axis .domain{fill:none;stroke:#74736c}.tick line{fill:none;stroke:#000;stroke-opacity:.2}.tick text{fill-opacity:.6;font-size:12px}.y.axis .tick line{stroke-dasharray:1}.y.axis .domain{fill:none;stroke-opacity:0}.y.axis .highlight-line{fill:none;stroke:#74736c}/* ]]> */</style><text class="chart-title" y="22">中国资本账户余额</text><text class="chart-subtitle" y="42">百万美元</text><text class="chart-source" y="265">来源:CEIC. 2018年1月25日</text><g transform="translate(1,100)"><g class="x axis" transform="translate(0,120)" fill="none" font-size="10" font-family="sans-serif" text-anchor="middle"><path class="domain" stroke="#000" d="M0.5,0V0.5H255.5V0"></path><g class="tick" opacity="1" transform="translate(20.102990732940185,0)"><line stroke="#000" y2="6"></line><text fill="#000" y="9" dy="0.71em">2006</text></g><g class="tick" opacity="1" transform="translate(59.308972198820555,0)"><line stroke="#000" y2="6"></line><text fill="#000" y="9" dy="0.71em">2008</text></g><g class="tick" opacity="1" transform="translate(98.56866048862679,0)"><line stroke="#000" y2="6"></line><text fill="#000" y="9" dy="0.71em">2010</text></g><g class="tick" opacity="1" transform="translate(137.77464195450716,0)"><line stroke="#000" y2="6"></line><text fill="#000" y="9" dy="0.71em">2012</text></g><g class="tick" opacity="1" transform="translate(177.0343302443134,0)"><line stroke="#000" y2="6"></line><text fill="#000" y="9" dy="0.71em">2014</text></g><g class="tick" opacity="1" transform="translate(216.24031171019377,0)"><line stroke="#000" y2="6"></line><text fill="#000" y="9" dy="0.71em">2016</text></g><g class="tick" opacity="1" transform="translate(255.5,0)"><line stroke="#000" y2="6"></line><text fill="#000" y="9" dy="0.71em">2018</text></g></g><g class="y axis" transform="translate(255,0)" fill="none" font-size="10" font-family="sans-serif" text-anchor="start"><path class="domain" stroke="#000" d="M0,120.5H0.5V0.5H0"></path><g class="tick" opacity="1" transform="translate(0,114.86723423838012)"><line stroke="#000" x2="-255"></line><text fill="#000" x="3" dy="0.32em">-500</text></g><g class="tick" opacity="1" transform="translate(0,87.25563736769443)"><line stroke="#000" x2="-255"></line><text fill="#000" x="3" dy="0.32em">0</text></g><g class="tick" opacity="1" transform="translate(0,59.644040497008746)"><line stroke="#000" x2="-255"></line><text fill="#000" x="3" dy="0.32em">500</text></g><g class="tick" opacity="1" transform="translate(0,32.03244362632306)"><line stroke="#000" x2="-255"></line><text fill="#000" x="3" dy="0.32em">1,000</text></g><g class="tick" opacity="1" transform="translate(0,4.420846755637356)"><line stroke="#000" x2="-255"></line><text fill="#000" x="3" dy="0.32em">1,500</text></g><line class="highlight-line" x1="0" y1="86.75563736769443" x2="-255" y2="86.75563736769443"></line></g><g><path d="M3.186604886267902,31.648833236079156L8.127632687447347,22.91206539567419L13.06866048862679,32.89816050234698L17.95598146588037,33.049410979107236L22.78959561920809,37.88065658242061L27.73062342038753,28.05369381316153L32.671651221566975,32.63040829065807L37.55897219882056,26.454219736401285L42.39258635214827,39.735038136033126L47.333614153327716,52.89732563221352L52.27464195450716,46.04096412977451L57.16196293176074,37.208405733271974L62.04928390901432,41.99740761454211L66.99031171019377,39.7136714457432L71.93133951137321,47.812069953796595L76.81866048862679,48.98871418757477L81.6522746419545,53.3981049354809L86.59330244313395,45.65100547979752L91.5343302443134,25.018392513023457L96.42165122156698,5.414297482558666L101.25526537489469,23.153029433041866L106.19629317607414,10.052694703543494L111.13732097725358,38.024350500690275L116.02464195450716,20.084152316244825L120.85825610783488,5.908232947261851L125.79928390901432,8.460801999263694L130.74031171019377,13.86556434422458L135.62763268744735,18.02653418794293L140.51495366470093,4.4919185378739L145.45598146588037,37.38283954680166L150.39700926705981,41.69530210768522L155.2843302443134,27.523710207086978L160.1179443976411,0.04413260929590024L165.05897219882056,39.69552386562357L170,59.42792703617119L174.88732097725358,79.31311938002762L179.7209351305813,78.0786056769443L184.66196293176074,119.9461488292683L189.60299073294019,80.7721946385642L194.49031171019377,70.0340485866544L199.32392586352148,76.88985435158767L204.26495366470093,80.85364557017948L209.20598146588037,87.63178600423379L214.09330244313395,84.19156729369536L218.98062342038753,92.9540404511735L223.92165122156698,88.4495441273815L228.86267902274642,97.47166009535205L233.75,87.16658287510354L238.58361415332772,93.7167618312011L243.52464195450716,86.04230316778647L248.4656697556866,85.86486717514956" fill="none" stroke="#af516c" stroke-linejoin="round" stroke-linecap="round" stroke-width="2"></path></g></g></svg>