<svg xmlns="http://www.w3.org/2000/svg" viewBox="0 0 304 270"><style>/* <![CDATA[ */.chart-title{font-size:20px;fill:#43423e}.chart-subtitle{font-size:15px;fill:#74736c}.chart-source{font-size:10px;fill-opacity:.4}.axis .domain{fill:none;stroke:#74736c}.tick line{fill:none;stroke:#000;stroke-opacity:.2}.tick text{fill-opacity:.6;font-size:12px}.y.axis .tick line{stroke-dasharray:1}.y.axis .domain{fill:none;stroke-opacity:0}.y.axis .highlight-line{fill:none;stroke:#74736c}/* ]]> */</style><text class="chart-title" y="22">中国通胀</text><text class="chart-subtitle" y="42">同比增长率％</text><text class="chart-source" y="265">来源:CEIC. 2018年4月11日</text><g transform="translate(1,100)"><g class="x axis" transform="translate(0,120)" fill="none" font-size="10" font-family="sans-serif" text-anchor="middle"><path class="domain" stroke="#000" d="M0.5,0V0.5H255.5V0"></path><g class="tick" opacity="1" transform="translate(18.703598670056717,0)"><line stroke="#000" y2="6"></line><text fill="#000" y="9" dy="0.71em">2006</text></g><g class="tick" opacity="1" transform="translate(55.110796010170155,0)"><line stroke="#000" y2="6"></line><text fill="#000" y="9" dy="0.71em">2008</text></g><g class="tick" opacity="1" transform="translate(91.56786622335224,0)"><line stroke="#000" y2="6"></line><text fill="#000" y="9" dy="0.71em">2010</text></g><g class="tick" opacity="1" transform="translate(127.97506356346567,0)"><line stroke="#000" y2="6"></line><text fill="#000" y="9" dy="0.71em">2012</text></g><g class="tick" opacity="1" transform="translate(164.43213377664776,0)"><line stroke="#000" y2="6"></line><text fill="#000" y="9" dy="0.71em">2014</text></g><g class="tick" opacity="1" transform="translate(200.8393311167612,0)"><line stroke="#000" y2="6"></line><text fill="#000" y="9" dy="0.71em">2016</text></g><g class="tick" opacity="1" transform="translate(237.29640132994328,0)"><line stroke="#000" y2="6"></line><text fill="#000" y="9" dy="0.71em">2018</text></g></g><g class="y axis" transform="translate(255,0)" fill="none" font-size="10" font-family="sans-serif" text-anchor="start"><path class="domain" stroke="#000" d="M0,120.5H0.5V0.5H0"></path><g class="tick" opacity="1" transform="translate(0,120.5)"><line stroke="#000" x2="-255"></line><text fill="#000" x="3" dy="0.32em">-2</text></g><g class="tick" opacity="1" transform="translate(0,98.68181818181819)"><line stroke="#000" x2="-255"></line><text fill="#000" x="3" dy="0.32em">0</text></g><g class="tick" opacity="1" transform="translate(0,76.86363636363636)"><line stroke="#000" x2="-255"></line><text fill="#000" x="3" dy="0.32em">2</text></g><g class="tick" opacity="1" transform="translate(0,55.04545454545455)"><line stroke="#000" x2="-255"></line><text fill="#000" x="3" dy="0.32em">4</text></g><g class="tick" opacity="1" transform="translate(0,33.22727272727272)"><line stroke="#000" x2="-255"></line><text fill="#000" x="3" dy="0.32em">6</text></g><g class="tick" opacity="1" transform="translate(0,11.409090909090907)"><line stroke="#000" x2="-255"></line><text fill="#000" x="3" dy="0.32em">8</text></g><line class="highlight-line" x1="0" y1="98.18181818181819" x2="-255" y2="98.18181818181819"></line></g><g><path d="M1.5626833561509876,55.63636363636364L2.959123802073147,68.72727272727272L4.505182867201252,78.54545454545455L6.001369059260709,78.54545454545455L7.547428124388813,80.72727272727272L9.043614316448268,78.54545454545455L10.589673381576374,84L12.135732446704479,88.36363636363637L13.631918638763935,85.0909090909091L15.17797770389204,84L16.674163895951498,80.72727272727272L18.220222961079603,77.45454545454545L19.76628202620771,88.36363636363637L21.162722472129865,89.45454545454545L22.70878153725797,85.0909090909091L24.204967729317424,82.9090909090909L25.75102679444553,81.81818181818181L27.247212986504987,87.27272727272728L28.793272051633092,84L30.339331116761198,81.81818181818181L31.835517308820652,82.9090909090909L33.381576373948754,77.45454545454545L34.877762566008215,67.63636363636364L36.42382163113632,74.18181818181819L37.969880696264426,68.72727272727272L39.36632114218658,62.18181818181818L40.91238020731468,65.45454545454545L42.408566399374145,61.090909090909086L43.95462546450225,50.18181818181817L45.450811656561704,37.09090909090909L46.99687072168981,27.27272727272728L48.542929786817915,30.54545454545456L50.039115978877376,27.27272727272728L51.58517504400548,22.909090909090907L53.081361236064936,27.27272727272728L54.62742030119304,20.727272727272734L56.173479366321146,3.2727272727272805L57.61979268531195,7.636363636363626L59.165851750440055,5.454545454545453L60.66203794249951,14.181818181818187L62.208097007627615,20.727272727272734L63.704283199687076,29.45454545454544L65.25034226481517,44.72727272727272L66.79640132994328,48L68.29258752200275,54.54545454545455L69.83864658713084,72L71.3348327791903,85.0909090909091L72.88089184431841,87.27272727272728L74.4269509094465,115.63636363636364L75.82339135536867,111.27272727272727L77.36945042049676,114.54545454545455L78.86563661255623,113.45454545454545L80.41169567768434,116.72727272727272L81.90788186974379,117.81818181818181L83.4539409348719,111.27272727272727L85,106.9090909090909L86.49618619205947,103.63636363636364L88.04224525718756,91.63636363636364L89.53843144924701,77.45454545454545L91.08449051437512,81.81818181818181L92.63054957950322,68.72727272727272L94.02699002542539,72L95.57304909055348,67.63636363636364L97.06923528261295,64.36363636363637L98.61529434774106,66.54545454545453L100.1114805398005,62.18181818181818L101.65753960492862,60L103.2035986700567,58.909090909090914L104.69978486211618,50.18181818181817L106.24584392724428,42.54545454545455L107.74203011930373,48L109.28808918443184,44.72727272727272L110.83414824955995,44.72727272727272L112.2305886954821,39.272727272727266L113.7766477606102,40.363636363636374L115.27283395266967,38.18181818181819L116.81889301779776,28.36363636363636L118.31507920985722,27.27272727272728L119.86113827498534,30.54545454545456L121.40719734011343,31.63636363636364L122.9033835321729,38.18181818181819L124.449442597301,52.363636363636374L125.94562878936046,53.45454545454545L127.49168785448856,49.09090909090909L129.03774691961667,63.27272727272727L130.48406023860747,58.909090909090914L132.03011930373557,61.090909090909086L133.52630549579501,65.45454545454545L135.07236456092315,74.18181818181819L136.5685507529826,78.54545454545455L138.11460981811072,76.36363636363636L139.6606688832388,77.45454545454545L141.15685507529824,79.63636363636363L142.70291414042637,76.36363636363636L144.1991003324858,70.9090909090909L145.74515939761395,76.36363636363636L147.29121846274202,63.27272727272727L148.6876589086642,75.27272727272728L150.2337179737923,72L151.72990416585176,75.27272727272728L153.27596323097984,68.72727272727272L154.7721494230393,68.72727272727272L156.31820848816741,69.81818181818181L157.86426755329552,64.36363636363637L159.360453745355,63.27272727272727L160.90651281048306,65.45454545454545L162.40269900254253,70.9090909090909L163.94875806767064,70.9090909090909L165.49481713279874,76.36363636363636L166.8912575787209,72L168.43731664384902,78.54545454545455L169.93350283590848,70.9090909090909L171.4795619010366,73.0909090909091L172.97574809309603,73.0909090909091L174.52180715822414,76.36363636363636L176.06786622335224,80.72727272727272L177.56405241541168,80.72727272727272L179.1101114805398,82.9090909090909L180.60629767259925,81.81818181818181L182.1523567377274,89.45454545454545L183.69841580285546,82.9090909090909L185.09485624877763,82.9090909090909L186.6409153139057,81.81818181818181L188.13710150596518,85.0909090909091L189.68316057109328,82.9090909090909L191.17934676315275,80.72727272727272L192.72540582828086,76.36363636363636L194.27146489340896,80.72727272727272L195.7676510854684,84L197.3137101505965,81.81818181818181L198.80989634265597,80.72727272727272L200.35595540778408,78.54545454545455L201.90201447291219,73.0909090909091L203.348327791903,73.0909090909091L204.89438685703112,73.0909090909091L206.39057304909056,76.36363636363636L207.93663211421864,77.45454545454545L209.4328183062781,78.54545454545455L210.9788773714062,84L212.52493643653432,77.45454545454545L214.0211226285938,75.27272727272728L215.56718169372186,73.0909090909091L217.06336788578133,75.27272727272728L218.60942695090944,70.9090909090909L220.15548601603754,89.45454545454545L221.5519264619597,88.36363636363637L223.09798552708781,85.0909090909091L224.59417171914728,81.81818181818181L226.1402307842754,81.81818181818181L227.63641697633486,82.9090909090909L229.18247604146293,78.54545454545455L230.72853510659104,80.72727272727272L232.2247212986505,77.45454545454545L233.7707803637786,79.63636363636363L235.26696655583805,78.54545454545455L236.8130256209662,81.81818181818181L238.35908468609426,66.54545454545453L239.75552513201643,75.27272727272728" fill="none" stroke="#af516c" stroke-linejoin="round" stroke-linecap="round" stroke-width="2"></path></g></g></svg>