<svg xmlns="http://www.w3.org/2000/svg" viewBox="0 0 304 270"><style>/* <![CDATA[ */.chart-title{font-size:20px;fill:#43423e}.chart-subtitle{font-size:15px;fill:#74736c}.chart-source{font-size:10px;fill-opacity:.4}.axis .domain{fill:none;stroke:#74736c}.tick line{fill:none;stroke:#000;stroke-opacity:.2}.tick text{fill-opacity:.6;font-size:12px}.y.axis .tick line{stroke-dasharray:1}.y.axis .domain{fill:none;stroke-opacity:0}.y.axis .highlight-line{fill:none;stroke:#74736c}/* ]]> */</style><text class="chart-title" y="22">中国消费者信心</text><text class="chart-subtitle" y="42">馀额</text><text class="chart-source" y="265">来源:CEIC整理. 2018年3月26日</text><g transform="translate(1,100)"><g class="x axis" transform="translate(0,120)" fill="none" font-size="10" font-family="sans-serif" text-anchor="middle"><path class="domain" stroke="#000" d="M0.5,0V0.5H255.5V0"></path><g class="tick" opacity="1" transform="translate(18.703598670056717,0)"><line stroke="#000" y2="6"></line><text fill="#000" y="9" dy="0.71em">2006</text></g><g class="tick" opacity="1" transform="translate(55.110796010170155,0)"><line stroke="#000" y2="6"></line><text fill="#000" y="9" dy="0.71em">2008</text></g><g class="tick" opacity="1" transform="translate(91.56786622335224,0)"><line stroke="#000" y2="6"></line><text fill="#000" y="9" dy="0.71em">2010</text></g><g class="tick" opacity="1" transform="translate(127.97506356346567,0)"><line stroke="#000" y2="6"></line><text fill="#000" y="9" dy="0.71em">2012</text></g><g class="tick" opacity="1" transform="translate(164.43213377664776,0)"><line stroke="#000" y2="6"></line><text fill="#000" y="9" dy="0.71em">2014</text></g><g class="tick" opacity="1" transform="translate(200.8393311167612,0)"><line stroke="#000" y2="6"></line><text fill="#000" y="9" dy="0.71em">2016</text></g><g class="tick" opacity="1" transform="translate(237.29640132994328,0)"><line stroke="#000" y2="6"></line><text fill="#000" y="9" dy="0.71em">2018</text></g></g><g class="y axis" transform="translate(255,0)" fill="none" font-size="10" font-family="sans-serif" text-anchor="start"><path class="domain" stroke="#000" d="M0,120.5H0.5V0.5H0"></path><g class="tick" opacity="1" transform="translate(0,107.16666666666667)"><line stroke="#000" x2="-255"></line><text fill="#000" x="3" dy="0.32em">0</text></g><g class="tick" opacity="1" transform="translate(0,84.94444444444444)"><line stroke="#000" x2="-255"></line><text fill="#000" x="3" dy="0.32em">5</text></g><g class="tick" opacity="1" transform="translate(0,62.72222222222223)"><line stroke="#000" x2="-255"></line><text fill="#000" x="3" dy="0.32em">10</text></g><g class="tick" opacity="1" transform="translate(0,40.5)"><line stroke="#000" x2="-255"></line><text fill="#000" x="3" dy="0.32em">15</text></g><g class="tick" opacity="1" transform="translate(0,18.27777777777777)"><line stroke="#000" x2="-255"></line><text fill="#000" x="3" dy="0.32em">20</text></g><line class="highlight-line" x1="0" y1="106.66666666666667" x2="-255" y2="106.66666666666667"></line></g><g><path d="M1.5626833561509876,64.16657777777777L2.959123802073147,61.57368888888889L4.505182867201252,60.01795555555555L6.001369059260709,62.092266666666674L7.547428124388813,60.53653333333334L9.043614316448268,61.57368888888889L10.589673381576374,61.05511111111111L12.135732446704479,62.092266666666674L13.631918638763935,65.20373333333333L15.17797770389204,65.72231111111111L16.674163895951498,62.092266666666674L18.220222961079603,61.05511111111111L19.76628202620771,65.72231111111111L21.162722472129865,62.610844444444446L22.70878153725797,64.68515555555555L24.204967729317424,64.68515555555555L25.75102679444553,63.12942222222222L27.247212986504987,63.647999999999996L28.793272051633092,61.26254222222222L30.339331116761198,54.72846222222222L31.835517308820652,55.24704L33.381576373948754,53.1727288888889L34.877762566008215,48.40181333333334L36.42382163113632,51.720711111111115L37.969880696264426,54.10616888888889L39.36632114218658,57.63249777777778L40.91238020731468,52.03185777777777L42.408566399374145,49.853831111111106L43.95462546450225,45.80892444444444L45.450811656561704,49.54268444444445L46.99687072168981,46.74236444444445L48.542929786817915,48.50552888888889L50.039115978877376,50.78727111111111L51.58517504400548,53.1727288888889L53.081361236064936,48.40181333333334L54.62742030119304,55.143324444444445L56.173479366321146,62.19598222222223L57.61979268531195,60.847680000000004L59.165851750440055,63.647999999999996L60.66203794249951,62.19598222222223L62.208097007627615,62.92199111111111L63.704283199687076,61.26254222222222L65.25034226481517,65.30744888888889L66.79640132994328,66.96689777777777L68.29258752200275,71.73781333333332L69.83864658713084,83.56138666666666L71.3348327791903,98.49642666666666L72.88089184431841,101.08931555555556L74.4269509094465,102.33390222222222L75.82339135536867,105.23793777777777L77.36945042049676,104.40821333333334L78.86563661255623,101.50417777777778L80.41169567768434,102.33390222222222L81.90788186974379,97.25184L83.4539409348719,94.65895111111111L85,94.24408888888888L86.49618619205947,92.37720888888889L88.04224525718756,91.85863111111111L89.53843144924701,89.224256L91.08449051437512,85.77777777777777L92.63054957950322,88L94.02699002542539,71.55555555555554L95.57304909055348,77.33333333333333L97.06923528261295,71.01180444444444L98.61529434774106,68.88888888888889L100.1114805398005,72L101.65753960492862,74.22222222222221L103.2035986700567,88.43601777777778L104.69978486211618,89.99175111111111L106.24584392724428,93.82922666666667L107.74203011930373,104.82307555555556L109.28808918443184,107.00110222222222L110.83414824955995,108.34940444444445L112.2305886954821,72.89333333333333L113.7766477606102,77.44222222222223L115.27283395266967,80.76088888888889L116.81889301779776,70.66020591111112L118.31507920985722,81.91702222222222L119.86113827498534,84.38578137777779L121.40719734011343,91.68607835555555L122.9033835321729,104.56242008888889L124.449442597301,119.85129404444444L125.94562878936046,104.61174617777777L127.49168785448856,89.26647546666666L129.03774691961667,84.37159102222222L130.48406023860747,106.47248262222223L132.03011930373557,93.54421133333332L133.52630549579501,88.0943836L135.07236456092315,109.94972613333334L136.5685507529826,114.71145822222222L138.11460981811072,109.29153386666667L139.6606688832388,102.91986551111111L141.15685507529824,79.73358871111111L142.70291414042637,84L144.1991003324858,90.22222222222223L145.74515939761395,86.66666666666666L147.29121846274202,70.22222222222223L148.6876589086642,95.11111111111111L150.2337179737923,90.22222222222223L151.72990416585176,111.11111111111111L153.27596323097984,120L154.7721494230393,119.11111111111111L156.31820848816741,116.44444444444444L157.86426755329552,107.55555555555556L159.360453745355,93.77777777777777L160.90651281048306,111.55555555555556L162.40269900254253,96.44444444444444L163.94875806767064,101.77777777777777L165.49481713279874,92.88888888888889L166.8912575787209,71.55555555555554L168.43731664384902,85.33333333333334L169.93350283590848,96.44444444444444L171.4795619010366,85.77777777777777L172.97574809309603,87.11111111111111L174.52180715822414,89.77777777777779L176.06786622335224,82.66666666666666L177.56405241541168,91.55555555555556L179.1101114805398,82.22222222222223L180.60629767259925,80.88888888888889L182.1523567377274,81.33333333333334L183.69841580285546,63.11111111111111L185.09485624877763,75.11111111111111L186.6409153139057,72.88888888888889L188.13710150596518,62.666666666666664L189.68316057109328,82.04444444444445L191.17934676315275,86.75555555555556L192.72540582828086,88.88888888888889L194.27146489340896,81.77777777777779L195.7676510854684,89.77777777777779L197.3137101505965,88.44444444444444L198.80989634265597,90.22222222222223L200.35595540778408,88.88888888888889L201.90201447291219,87.11111111111111L203.348327791903,106.66666666666667L204.89438685703112,102.22222222222223L206.39057304909056,107.55555555555556L207.93663211421864,93.77777777777777L209.4328183062781,76.44444444444444L210.9788773714062,81.77777777777779L212.52493643653432,86.22222222222223L214.0211226285938,74.66666666666667L215.56718169372186,68.44444444444444L217.06336788578133,69.33333333333334L218.60942695090944,65.77777777777777L220.15548601603754,50.66666666666667L221.5519264619597,57.77777777777778L223.09798552708781,47.111111111111114L224.59417171914728,53.33333333333333L226.1402307842754,47.55555555555556L227.63641697633486,41.77777777777777L229.18247604146293,41.33333333333333L230.72853510659104,24L232.2247212986505,0.4444444444444571L233.7707803637786,12L235.26696655583805,6.222222222222214L236.8130256209662,7.555555555555543L238.35908468609426,0" fill="none" stroke="#af516c" stroke-linejoin="round" stroke-linecap="round" stroke-width="2"></path></g></g></svg>