<svg xmlns="http://www.w3.org/2000/svg" viewBox="0 0 304 270"><style>/* <![CDATA[ */.chart-title{font-size:20px;fill:#43423e}.chart-subtitle{font-size:15px;fill:#74736c}.chart-source{font-size:10px;fill-opacity:.4}.axis .domain{fill:none;stroke:#74736c}.tick line{fill:none;stroke:#000;stroke-opacity:.2}.tick text{fill-opacity:.6;font-size:12px}.y.axis .tick line{stroke-dasharray:1}.y.axis .domain{fill:none;stroke-opacity:0}.y.axis .highlight-line{fill:none;stroke:#74736c}/* ]]> */</style><text class="chart-title" y="22">施工活动</text><text class="chart-subtitle" y="42">数值大于50代表扩张</text><text class="chart-source" y="265">来源:Markit╱彭博. 2018年5月2日</text><g transform="translate(1,100)"><g class="x axis" transform="translate(0,120)" fill="none" font-size="10" font-family="sans-serif" text-anchor="middle"><path class="domain" stroke="#000" d="M0.5,0V0.5H255.5V0"></path><g class="tick" opacity="1" transform="translate(59.57750631844987,0)"><line stroke="#000" y2="6"></line><text fill="#000" y="9" dy="0.71em">2016</text></g><g class="tick" opacity="1" transform="translate(138.20429654591405,0)"><line stroke="#000" y2="6"></line><text fill="#000" y="9" dy="0.71em">2017</text></g><g class="tick" opacity="1" transform="translate(216.6162594776748,0)"><line stroke="#000" y2="6"></line><text fill="#000" y="9" dy="0.71em">2018</text></g></g><g class="y axis" transform="translate(255,0)" fill="none" font-size="10" font-family="sans-serif" text-anchor="start"><path class="domain" stroke="#000" d="M0,120.5H0.5V0.5H0"></path><g class="tick" opacity="1" transform="translate(0,120.5)"><line stroke="#000" x2="-255"></line><text fill="#000" x="3" dy="0.32em">45</text></g><g class="tick" opacity="1" transform="translate(0,80.5)"><line stroke="#000" x2="-255"></line><text fill="#000" x="3" dy="0.32em">50</text></g><g class="tick" opacity="1" transform="translate(0,40.5)"><line stroke="#000" x2="-255"></line><text fill="#000" x="3" dy="0.32em">55</text></g><g class="tick" opacity="1" transform="translate(0,0.5)"><line stroke="#000" x2="-255"></line><text fill="#000" x="3" dy="0.32em">60</text></g></g><g><path d="M12.961246840775063,32.80000000000001L19.406065711878686,15.199999999999989L26.06571187868576,23.19999999999999L32.72535804549284,21.600000000000023L39.17017691659646,0.8000000000000114L45.82982308340354,9.600000000000023L52.27464195450716,37.60000000000002L58.93428812131424,17.600000000000023L65.59393428812132,40L71.82392586352148,46.39999999999998L78.48357203032856,46.39999999999998L84.92839090143218,64L91.58803706823926,70.39999999999998L98.03285593934288,112L104.69250210614996,112.80000000000001L111.35214827295704,86.39999999999998L117.79696714406066,61.60000000000002L124.45661331086774,59.199999999999996L130.90143218197136,57.60000000000002L137.56107834877844,46.39999999999998L144.22072451558552,62.39999999999998L150.23588879528225,60L156.8955349620893,62.39999999999998L163.34035383319292,55.19999999999999L170,32L176.44481887110362,41.60000000000002L183.1044650379107,64.80000000000001L189.76411120471778,71.19999999999999L196.2089300758214,95.19999999999999L202.86857624262848,73.60000000000002L209.3133951137321,55.19999999999999L215.97304128053918,62.39999999999998L222.63268744734626,78.39999999999998L228.64785172704296,68.80000000000001L235.30749789385004,104L241.75231676495366,60" fill="none" stroke="#af516c" stroke-linejoin="round" stroke-linecap="round" stroke-width="2"></path></g></g></svg>