<svg xmlns="http://www.w3.org/2000/svg" viewBox="0 0 304 270"><style>/* <![CDATA[ */.chart-title{font-size:20px;fill:#43423e}.chart-subtitle{font-size:15px;fill:#74736c}.chart-source{font-size:10px;fill-opacity:.4}.axis .domain{fill:none;stroke:#74736c}.tick line{fill:none;stroke:#000;stroke-opacity:.2}.tick text{fill-opacity:.6;font-size:12px}.y.axis .tick line{stroke-dasharray:1}.y.axis .domain{fill:none;stroke-opacity:0}.y.axis .highlight-line{fill:none;stroke:#74736c}/* ]]> */</style><text class="chart-title" y="22">施工产出</text><text class="chart-subtitle" y="42">年增长％</text><text class="chart-source" y="265">来源:英国国家统计局╱彭博. 2018年4月11日</text><g transform="translate(1,100)"><g class="x axis" transform="translate(0,120)" fill="none" font-size="10" font-family="sans-serif" text-anchor="middle"><path class="domain" stroke="#000" d="M0.5,0V0.5H255.5V0"></path><g class="tick" opacity="1" transform="translate(32.35318275154005,0)"><line stroke="#000" y2="6"></line><text fill="#000" y="9" dy="0.71em">2012</text></g><g class="tick" opacity="1" transform="translate(96.14681724845997,0)"><line stroke="#000" y2="6"></line><text fill="#000" y="9" dy="0.71em">2014</text></g><g class="tick" opacity="1" transform="translate(159.85318275154006,0)"><line stroke="#000" y2="6"></line><text fill="#000" y="9" dy="0.71em">2016</text></g><g class="tick" opacity="1" transform="translate(223.64681724845994,0)"><line stroke="#000" y2="6"></line><text fill="#000" y="9" dy="0.71em">2018</text></g></g><g class="y axis" transform="translate(255,0)" fill="none" font-size="10" font-family="sans-serif" text-anchor="start"><path class="domain" stroke="#000" d="M0,120.5H0.5V0.5H0"></path><g class="tick" opacity="1" transform="translate(0,106.65384615384616)"><line stroke="#000" x2="-255"></line><text fill="#000" x="3" dy="0.32em">-10</text></g><g class="tick" opacity="1" transform="translate(0,83.57692307692307)"><line stroke="#000" x2="-255"></line><text fill="#000" x="3" dy="0.32em">-5</text></g><g class="tick" opacity="1" transform="translate(0,60.5)"><line stroke="#000" x2="-255"></line><text fill="#000" x="3" dy="0.32em">0</text></g><g class="tick" opacity="1" transform="translate(0,37.42307692307692)"><line stroke="#000" x2="-255"></line><text fill="#000" x="3" dy="0.32em">5</text></g><g class="tick" opacity="1" transform="translate(0,14.346153846153854)"><line stroke="#000" x2="-255"></line><text fill="#000" x="3" dy="0.32em">10</text></g><line class="highlight-line" x1="0" y1="60" x2="-255" y2="60"></line></g><g><path d="M2.6471594798083506,14.769230769230774L5.090691307323751,36.92307692307692L7.796030116358659,31.84615384615384L10.41409993155373,49.846153846153854L13.119438740588638,47.53846153846155L15.737508555783709,51.69230769230769L18.44284736481862,57.230769230769226L21.148186173853524,67.84615384615384L23.766255989048595,64.61538461538461L26.471594798083505,69.6923076923077L29.08966461327858,61.38461538461539L31.795003422313485,38.30769230769231L34.50034223134839,71.53846153846155L37.031143052703634,79.38461538461539L39.73648186173853,94.61538461538461L42.35455167693361,97.38461538461539L45.05989048596851,81.23076923076923L47.67796030116359,117.23076923076923L50.3832991101985,97.38461538461539L53.0886379192334,97.84615384615384L55.70670773442848,112.15384615384616L58.412046543463376,77.07692307692307L61.030116358658454,91.38461538461539L63.73545516769337,117.23076923076923L66.44079397672827,89.07692307692307L68.88432580424367,82.61538461538461L71.58966461327857,90.92307692307692L74.20773442847364,60.46153846153846L76.91307323750856,72.92307692307693L79.53114305270363,49.38461538461539L82.23648186173853,49.846153846153854L84.94182067077345,41.53846153846153L87.55989048596852,33.69230769230769L90.26522929500342,35.07692307692308L92.8832991101985,55.846153846153854L95.5886379192334,31.84615384615384L98.2939767282683,2.7692307692307736L100.7375085557837,22.615384615384613L103.44284736481862,13.846153846153854L106.06091718001369,9.692307692307693L108.76625598904859,19.384615384615387L111.38432580424366,12.923076923076934L114.08966461327859,14.769230769230774L116.79500342231348,26.769230769230774L119.41307323750856,13.384615384615373L122.11841204654347,33.69230769230769L124.73648186173854,14.769230769230774L127.44182067077344,8.307692307692307L130.14715947980835,42.923076923076934L132.59069130732377,38.76923076923076L135.29603011635865,36.92307692307692L137.91409993155372,51.69230769230769L140.61943874058863,50.30769230769232L143.2375085557837,48L145.94284736481862,50.769230769230774L148.64818617385353,62.76923076923077L151.2662559890486,61.38461538461539L153.97159479808352,55.38461538461539L156.58966461327856,64.15384615384616L159.29500342231347,52.61538461538461L162.0003422313484,64.15384615384616L164.53114305270364,61.84615384615385L167.23648186173855,80.76923076923077L169.8545516769336,62.76923076923077L172.5598904859685,67.38461538461539L175.17796030116358,63.230769230769226L177.8832991101985,64.61538461538461L180.5886379192334,56.30769230769231L183.20670773442848,48.46153846153847L185.9120465434634,56.76923076923077L188.53011635865846,51.69230769230769L191.23545516769335,48L193.94079397672826,49.38461538461539L196.38432580424364,55.846153846153854L199.0896646132786,40.153846153846146L201.70773442847366,60.46153846153846L204.41307323750857,57.692307692307686L207.03114305270364,55.846153846153854L209.73648186173853,47.53846153846155L212.44182067077344,42.000000000000014L215.0598904859685,54.923076923076934L217.76522929500342,54L220.3832991101985,56.30769230769231L223.0886379192334,60.92307692307692L225.79397672826832,69.6923076923077L228.2375085557837,73.84615384615384" fill="none" stroke="#af516c" stroke-linejoin="round" stroke-linecap="round" stroke-width="2"></path></g></g></svg>