<svg xmlns="http://www.w3.org/2000/svg" viewBox="0 0 304 270"><style>/* <![CDATA[ */.chart-title{font-size:20px;fill:#43423e}.chart-subtitle{font-size:15px;fill:#74736c}.chart-source{font-size:10px;fill-opacity:.4}.axis .domain{fill:none;stroke:#74736c}.tick line{fill:none;stroke:#000;stroke-opacity:.2}.tick text{fill-opacity:.6;font-size:12px}.y.axis .tick line{stroke-dasharray:1}.y.axis .domain{fill:none;stroke-opacity:0}.y.axis .highlight-line{fill:none;stroke:#74736c}/* ]]> */</style><text class="chart-title" y="22">消费者信用,例如学生贷款</text><text class="chart-subtitle" y="42">放款净额,月变动</text><text class="chart-source" y="265">来源:英格兰银行╱彭博. 2018年5月1日</text><g transform="translate(1,100)"><g class="x axis" transform="translate(0,120)" fill="none" font-size="10" font-family="sans-serif" text-anchor="middle"><path class="domain" stroke="#000" d="M0.5,0V0.5H255.5V0"></path><g class="tick" opacity="1" transform="translate(18.703598670056717,0)"><line stroke="#000" y2="6"></line><text fill="#000" y="9" dy="0.71em">2006</text></g><g class="tick" opacity="1" transform="translate(55.110796010170155,0)"><line stroke="#000" y2="6"></line><text fill="#000" y="9" dy="0.71em">2008</text></g><g class="tick" opacity="1" transform="translate(91.56786622335224,0)"><line stroke="#000" y2="6"></line><text fill="#000" y="9" dy="0.71em">2010</text></g><g class="tick" opacity="1" transform="translate(127.97506356346567,0)"><line stroke="#000" y2="6"></line><text fill="#000" y="9" dy="0.71em">2012</text></g><g class="tick" opacity="1" transform="translate(164.43213377664776,0)"><line stroke="#000" y2="6"></line><text fill="#000" y="9" dy="0.71em">2014</text></g><g class="tick" opacity="1" transform="translate(200.8393311167612,0)"><line stroke="#000" y2="6"></line><text fill="#000" y="9" dy="0.71em">2016</text></g><g class="tick" opacity="1" transform="translate(237.29640132994328,0)"><line stroke="#000" y2="6"></line><text fill="#000" y="9" dy="0.71em">2018</text></g></g><g class="y axis" transform="translate(255,0)" fill="none" font-size="10" font-family="sans-serif" text-anchor="start"><path class="domain" stroke="#000" d="M0,120.5H0.5V0.5H0"></path><g class="tick" opacity="1" transform="translate(0,120.5)"><line stroke="#000" x2="-255"></line><text fill="#000" x="3" dy="0.32em">-2</text></g><g class="tick" opacity="1" transform="translate(0,96.5)"><line stroke="#000" x2="-255"></line><text fill="#000" x="3" dy="0.32em">-1</text></g><g class="tick" opacity="1" transform="translate(0,72.5)"><line stroke="#000" x2="-255"></line><text fill="#000" x="3" dy="0.32em">0</text></g><g class="tick" opacity="1" transform="translate(0,48.5)"><line stroke="#000" x2="-255"></line><text fill="#000" x="3" dy="0.32em">1</text></g><g class="tick" opacity="1" transform="translate(0,24.5)"><line stroke="#000" x2="-255"></line><text fill="#000" x="3" dy="0.32em">2</text></g><g class="tick" opacity="1" transform="translate(0,0.5)"><line stroke="#000" x2="-255"></line><text fill="#000" x="3" dy="0.32em">3</text></g><line class="highlight-line" x1="0" y1="72" x2="-255" y2="72"></line></g><g><path d="M1.512810483082339,16.96799999999999L2.9092509290044983,34.05600000000001L4.4553099941326035,23.111999999999995L5.95149618619206,41.784000000000006L7.497555251320164,35.376000000000005L8.993741443379621,28.439999999999998L10.539800508507724,46.10400000000001L12.08585957363583,36.98400000000001L13.582045765695286,43.536L15.128104830823391,43.416L16.624291022882847,56.544L18.170350088010952,43.536L19.716409153139058,37.367999999999995L21.112849599061217,44.256L22.658908664189322,62.784L24.15509485624878,50.016000000000005L25.701153921376882,47.11200000000001L27.197340113436336,54.528000000000006L28.74339917856444,50.376000000000005L30.289458243692547,54.47999999999999L31.785644435752005,54.768L33.33170350088011,51.816L34.827889692939564,51.696L36.37394875806767,48.144000000000005L37.920007823195775,59.736000000000004L39.316448269117934,60.672L40.86250733424604,63.456L42.358693526305494,51.504000000000005L43.9047525914336,57.912000000000006L45.40093878349306,56.592L46.946997848621166,46.464L48.49305691374927,52.248000000000005L49.989243105808725,35.376000000000005L51.53530217093683,36.36L53.031488362996285,56.04L54.57754742812438,64.72800000000001L56.12360649325249,56.76000000000001L57.5699198122433,36L59.115978877371404,57.48L60.612165069430866,53.328L62.15822413455897,46.727999999999994L63.654410326618425,57.839999999999996L65.20046939174654,56.04L66.74652845687463,50.97600000000001L68.24271464893408,72.12L69.7887737140622,61.992000000000004L71.28495990612166,63.456L72.83101897124975,75.576L74.37707803637787,62.304L75.77351848230002,63L77.31957754742812,81.552L78.81576373948758,70.584L80.36182280461568,78.336L81.85800899667514,75.312L83.40406806180326,83.592L84.95012712693135,98.088L86.4463133189908,74.688L87.99237238411891,86.328L89.48855857617836,78.288L91.03461764130648,65.376L92.58067670643457,71.064L93.97711715235674,84.12L95.52317621748485,82.344L97.01936240954429,84.19200000000001L98.5654214746724,77.184L100.06160766673186,81.24000000000001L101.60766673185996,76.56L103.15372579698807,82.416L104.64991198904752,76.464L106.19597105417563,70.656L107.69215724623508,78.52799999999999L109.2382163113632,58.632000000000005L110.7842753764913,85.67999999999999L112.18071582241346,73.44L113.72677488754155,73.00800000000001L115.222961079601,63.072L116.76902014472913,83.03999999999999L118.26520633678858,69.24L119.81126540191669,72.744L121.35732446704479,69.43199999999999L122.85351065910424,73.584L124.39956972423235,74.736L125.8957559162918,66.96000000000001L127.44181498141991,92.136L128.987874046548,76.464L130.43418736553883,78.576L131.9802464306669,64.56L133.47643262272638,75.24000000000001L135.02249168785448,66.984L136.51867787991395,65.64L138.06473694504206,74.66399999999999L139.61079601017016,75.696L141.1069822022296,44.760000000000005L142.6530412673577,77.76L144.14922745941718,66.12L145.69528652454528,47.784000000000006L147.2413455896734,59.64L148.63778603559555,58.32L150.18384510072366,56.016L151.6800312927831,61.824L153.2260903579112,54.384L154.72227654997064,57.36L156.26833561509875,59.04L157.81439468022688,52.608000000000004L159.31058087228632,50.95200000000001L160.85663993741446,58.367999999999995L162.3528261294739,58.32L163.89888519460197,53.328L165.4449442597301,53.712L166.84138470565225,55.032L168.38744377078035,47.616L169.88362996283982,55.19999999999999L171.42968902796792,50.95200000000001L172.9258752200274,55.19999999999999L174.4719342851555,47.184L176.01799335028358,47.80799999999999L177.51417954234304,52.58399999999999L179.06023860747115,43.75200000000001L180.55642479953062,46.751999999999995L182.10248386465872,53.784000000000006L183.6485429297868,52.29600000000001L185.044983375709,51.528000000000006L186.5910424408371,37.72800000000001L188.08722863289654,40.632000000000005L189.63328769802465,47.760000000000005L191.12947389008409,43.2L192.6755329552122,38.73599999999999L194.22159202034032,40.82400000000001L195.71777821239976,41.304L197.26383727752787,42.84L198.7600234695873,39.215999999999994L200.30608253471542,37.65599999999999L201.85214159984355,31.152L203.29845491883435,36.504000000000005L204.84451398396246,26.304000000000002L206.34070017602193,44.78399999999999L207.88675924115,33.144000000000005L209.38294543320944,27.36L210.92900449833758,39.215999999999994L212.47506356346568,36.55199999999999L213.97124975552512,33.239999999999995L215.51730882065326,31.104000000000013L217.0134950127127,26.39999999999999L218.5595540778408,48.312L220.1056131429689,34.224000000000004L221.50205358889104,38.855999999999995L223.04811265401915,28.992000000000004L224.54429884607862,34.488000000000014L226.09035791120672,30.791999999999987L227.5865441032662,38.352000000000004L229.1326031683943,42.72000000000001L230.67866223352237,29.855999999999995L232.17484842558184,36.215999999999994L233.72090749070995,41.18400000000001L235.21709368276942,36.504000000000005L236.76315274789752,33.912000000000006L238.3092118130256,41.087999999999994L239.7056522589478,32.16L241.2517113240759,65.904" fill="none" stroke="#af516c" stroke-linejoin="round" stroke-linecap="round" stroke-width="2"></path></g></g></svg>