<svg xmlns="http://www.w3.org/2000/svg" viewBox="0 0 304 270"><style>/* <![CDATA[ */.chart-title{font-size:20px;fill:#43423e}.chart-subtitle{font-size:15px;fill:#74736c}.chart-source{font-size:10px;fill-opacity:.4}.axis .domain{fill:none;stroke:#74736c}.tick line{fill:none;stroke:#000;stroke-opacity:.2}.tick text{fill-opacity:.6;font-size:12px}.y.axis .tick line{stroke-dasharray:1}.y.axis .domain{fill:none;stroke-opacity:0}.y.axis .highlight-line{fill:none;stroke:#74736c}/* ]]> */</style><text class="chart-title" y="22">CPI通胀</text><text class="chart-subtitle" y="42">年增长％</text><text class="chart-source" y="265">来源:英国国家统计局╱彭博. 2018年4月18日</text><g transform="translate(1,100)"><g class="x axis" transform="translate(0,120)" fill="none" font-size="10" font-family="sans-serif" text-anchor="middle"><path class="domain" stroke="#000" d="M0.5,0V0.5H255.5V0"></path><g class="tick" opacity="1" transform="translate(18.703598670056717,0)"><line stroke="#000" y2="6"></line><text fill="#000" y="9" dy="0.71em">2006</text></g><g class="tick" opacity="1" transform="translate(55.110796010170155,0)"><line stroke="#000" y2="6"></line><text fill="#000" y="9" dy="0.71em">2008</text></g><g class="tick" opacity="1" transform="translate(91.56786622335224,0)"><line stroke="#000" y2="6"></line><text fill="#000" y="9" dy="0.71em">2010</text></g><g class="tick" opacity="1" transform="translate(127.97506356346567,0)"><line stroke="#000" y2="6"></line><text fill="#000" y="9" dy="0.71em">2012</text></g><g class="tick" opacity="1" transform="translate(164.43213377664776,0)"><line stroke="#000" y2="6"></line><text fill="#000" y="9" dy="0.71em">2014</text></g><g class="tick" opacity="1" transform="translate(200.8393311167612,0)"><line stroke="#000" y2="6"></line><text fill="#000" y="9" dy="0.71em">2016</text></g><g class="tick" opacity="1" transform="translate(237.29640132994328,0)"><line stroke="#000" y2="6"></line><text fill="#000" y="9" dy="0.71em">2018</text></g></g><g class="y axis" transform="translate(255,0)" fill="none" font-size="10" font-family="sans-serif" text-anchor="start"><path class="domain" stroke="#000" d="M0,120.5H0.5V0.5H0"></path><g class="tick" opacity="1" transform="translate(0,103.35714285714286)"><line stroke="#000" x2="-255"></line><text fill="#000" x="3" dy="0.32em">0</text></g><g class="tick" opacity="1" transform="translate(0,69.07142857142858)"><line stroke="#000" x2="-255"></line><text fill="#000" x="3" dy="0.32em">2</text></g><g class="tick" opacity="1" transform="translate(0,34.78571428571428)"><line stroke="#000" x2="-255"></line><text fill="#000" x="3" dy="0.32em">4</text></g><g class="tick" opacity="1" transform="translate(0,0.5)"><line stroke="#000" x2="-255"></line><text fill="#000" x="3" dy="0.32em">6</text></g><line class="highlight-line" x1="0" y1="102.85714285714286" x2="-255" y2="102.85714285714286"></line></g><g><path d="M1.512810483082339,75.42857142857143L2.9092509290044983,73.71428571428572L4.4553099941326035,70.28571428571429L5.95149618619206,70.28571428571429L7.497555251320164,70.28571428571429L8.993741443379621,68.57142857142858L10.539800508507724,63.42857142857143L12.08585957363583,61.714285714285715L13.582045765695286,60L15.128104830823391,63.42857142857143L16.624291022882847,66.85714285714286L18.170350088010952,70.28571428571429L19.716409153139058,70.28571428571429L21.112849599061217,68.57142857142858L22.658908664189322,72L24.15509485624878,68.57142857142858L25.701153921376882,65.14285714285714L27.197340113436336,60L28.74339917856444,61.714285714285715L30.289458243692547,60L31.785644435752005,61.714285714285715L33.33170350088011,61.714285714285715L34.827889692939564,56.57142857142857L36.37394875806767,51.42857142857143L37.920007823195775,56.57142857142857L39.316448269117934,54.85714285714286L40.86250733424604,49.71428571428572L42.358693526305494,54.85714285714286L43.9047525914336,60L45.40093878349306,61.714285714285715L46.946997848621166,70.28571428571429L48.49305691374927,72L49.989243105808725,72L51.53530217093683,66.85714285714286L53.031488362996285,66.85714285714286L54.57754742812438,66.85714285714286L56.12360649325249,65.14285714285714L57.5699198122433,60L59.115978877371404,60L60.612165069430866,51.42857142857143L62.15822413455897,46.28571428571429L63.654410326618425,37.71428571428571L65.20046939174654,27.42857142857143L66.74652845687463,22.285714285714292L68.24271464893408,13.714285714285708L69.7887737140622,25.714285714285722L71.28495990612166,32.57142857142857L72.83101897124975,49.71428571428572L74.37707803637787,51.42857142857143L75.77351848230002,48L77.31957754742812,53.14285714285714L78.81576373948758,63.42857142857143L80.36182280461568,65.14285714285714L81.85800899667514,72L83.40406806180326,72L84.95012712693135,75.42857142857143L86.4463133189908,84L87.99237238411891,77.14285714285714L89.48855857617836,70.28571428571429L91.03461764130648,53.14285714285714L92.58067670643457,42.85714285714285L93.97711715235674,51.42857142857143L95.52317621748485,44.571428571428555L97.01936240954429,39.428571428571416L98.5654214746724,44.571428571428555L100.06160766673186,48L101.60766673185996,49.71428571428572L103.15372579698807,49.71428571428572L104.64991198904752,49.71428571428572L106.19597105417563,48L107.69215724623508,46.28571428571429L109.2382163113632,39.428571428571416L110.7842753764913,34.28571428571428L112.18071582241346,27.42857142857143L113.72677488754155,34.28571428571428L115.222961079601,25.714285714285722L116.76902014472913,25.714285714285722L118.26520633678858,30.85714285714286L119.81126540191669,27.42857142857143L121.35732446704479,25.714285714285722L122.85351065910424,13.714285714285708L124.39956972423235,17.142857142857153L125.8957559162918,20.571428571428584L127.44181498141991,30.85714285714286L128.987874046548,41.14285714285714L130.43418736553883,44.571428571428555L131.9802464306669,42.85714285714285L133.47643262272638,51.42857142857143L135.02249168785448,54.85714285714286L136.51867787991395,61.714285714285715L138.06473694504206,58.28571428571428L139.61079601017016,60L141.1069822022296,65.14285714285714L142.6530412673577,56.57142857142857L144.14922745941718,56.57142857142857L145.69528652454528,56.57142857142857L147.2413455896734,56.57142857142857L148.63778603559555,54.85714285714286L150.18384510072366,54.85714285714286L151.6800312927831,61.714285714285715L153.2260903579112,56.57142857142857L154.72227654997064,53.14285714285714L156.26833561509875,54.85714285714286L157.81439468022688,56.57142857142857L159.31058087228632,56.57142857142857L160.85663993741446,65.14285714285714L162.3528261294739,66.85714285714286L163.89888519460197,68.57142857142858L165.4449442597301,70.28571428571429L166.84138470565225,73.71428571428572L168.38744377078035,75.42857142857143L169.88362996283982,72L171.42968902796792,77.14285714285714L172.9258752200274,70.28571428571429L174.4719342851555,75.42857142857143L176.01799335028358,77.14285714285714L177.51417954234304,82.28571428571428L179.06023860747115,80.57142857142857L180.55642479953062,85.71428571428572L182.10248386465872,94.28571428571429L183.6485429297868,97.71428571428572L185.044983375709,102.85714285714286L186.5910424408371,102.85714285714286L188.08722863289654,104.57142857142857L189.63328769802465,101.14285714285714L191.12947389008409,102.85714285714286L192.6755329552122,101.14285714285714L194.22159202034032,102.85714285714286L195.71777821239976,104.57142857142857L197.26383727752787,104.57142857142857L198.7600234695873,101.14285714285714L200.30608253471542,99.42857142857143L201.85214159984355,97.71428571428572L203.29845491883435,97.71428571428572L204.84451398396246,94.28571428571429L206.34070017602193,97.71428571428572L207.88675924115,97.71428571428572L209.38294543320944,94.28571428571429L210.92900449833758,92.57142857142857L212.47506356346568,92.57142857142857L213.97124975552512,85.71428571428572L215.51730882065326,87.42857142857143L217.0134950127127,82.28571428571428L218.5595540778408,75.42857142857143L220.1056131429689,72L221.50205358889104,63.42857142857143L223.04811265401915,63.42857142857143L224.54429884607862,56.57142857142857L226.09035791120672,53.14285714285714L227.5865441032662,58.28571428571428L229.1326031683943,58.28571428571428L230.67866223352237,53.14285714285714L232.17484842558184,51.42857142857143L233.72090749070995,51.42857142857143L235.21709368276942,49.71428571428572L236.76315274789752,51.42857142857143L238.3092118130256,51.42857142857143L239.7056522589478,56.57142857142857L241.2517113240759,60" fill="none" stroke="#af516c" stroke-linejoin="round" stroke-linecap="round" stroke-width="2"></path></g></g></svg>