<svg xmlns="http://www.w3.org/2000/svg" viewBox="0 0 304 270"><style>/* <![CDATA[ */.chart-title{font-size:20px;fill:#43423e}.chart-subtitle{font-size:15px;fill:#74736c}.chart-source{font-size:10px;fill-opacity:.4}.axis .domain{fill:none;stroke:#74736c}.tick line{fill:none;stroke:#000;stroke-opacity:.2}.tick text{fill-opacity:.6;font-size:12px}.y.axis .tick line{stroke-dasharray:1}.y.axis .domain{fill:none;stroke-opacity:0}.y.axis .highlight-line{fill:none;stroke:#74736c}/* ]]> */</style><text class="chart-title" y="22">Current account balance by region</text><text class="chart-subtitle" y="42">£bn, seasonally adjusted</text><text class="chart-source" y="265">来源:英国国家统计局╱彭博. 2018年3月29日</text><g transform="translate(1,100)"><g class="x axis" transform="translate(0,120)" fill="none" font-size="10" font-family="sans-serif" text-anchor="middle"><path class="domain" stroke="#000" d="M0.5,0V0.5H255.5V0"></path><g class="tick" opacity="1" transform="translate(20.102990732940185,0)"><line stroke="#000" y2="6"></line><text fill="#000" y="9" dy="0.71em">2006</text></g><g class="tick" opacity="1" transform="translate(59.308972198820555,0)"><line stroke="#000" y2="6"></line><text fill="#000" y="9" dy="0.71em">2008</text></g><g class="tick" opacity="1" transform="translate(98.56866048862679,0)"><line stroke="#000" y2="6"></line><text fill="#000" y="9" dy="0.71em">2010</text></g><g class="tick" opacity="1" transform="translate(137.77464195450716,0)"><line stroke="#000" y2="6"></line><text fill="#000" y="9" dy="0.71em">2012</text></g><g class="tick" opacity="1" transform="translate(177.0343302443134,0)"><line stroke="#000" y2="6"></line><text fill="#000" y="9" dy="0.71em">2014</text></g><g class="tick" opacity="1" transform="translate(216.24031171019377,0)"><line stroke="#000" y2="6"></line><text fill="#000" y="9" dy="0.71em">2016</text></g><g class="tick" opacity="1" transform="translate(255.5,0)"><line stroke="#000" y2="6"></line><text fill="#000" y="9" dy="0.71em">2018</text></g></g><g class="y axis" transform="translate(255,0)" fill="none" font-size="10" font-family="sans-serif" text-anchor="start"><path class="domain" stroke="#000" d="M0,120.5H0.5V0.5H0"></path><g class="tick" opacity="1" transform="translate(0,117.42307692307692)"><line stroke="#000" x2="-255"></line><text fill="#000" x="3" dy="0.32em">-30</text></g><g class="tick" opacity="1" transform="translate(0,86.65384615384616)"><line stroke="#000" x2="-255"></line><text fill="#000" x="3" dy="0.32em">-20</text></g><g class="tick" opacity="1" transform="translate(0,55.88461538461539)"><line stroke="#000" x2="-255"></line><text fill="#000" x="3" dy="0.32em">-10</text></g><g class="tick" opacity="1" transform="translate(0,25.115384615384627)"><line stroke="#000" x2="-255"></line><text fill="#000" x="3" dy="0.32em">0</text></g><line class="highlight-line" x1="0" y1="24.615384615384627" x2="-255" y2="24.615384615384627"></line></g><g class="chart-key" transform="translate(0, -35)"><g class="key-element" transform="translate(0,0)"><text x="28" font-size="12">EU-28</text><line x1="0" x2="25" y1="-5" y2="-5" stroke-width="2" fill="none" stroke="#af516c"></line></g><g class="key-element" transform="translate(0,20)"><text x="28" font-size="12">Non-EU</text><line x1="0" x2="25" y1="-5" y2="-5" stroke-width="2" fill="none" stroke="#76acb8"></line></g></g><g><path d="M4.797809604043808,55.916923076923084L9.68513058129739,55.50769230769231L14.626158382476833,62.66153846153847L19.567186183656275,63.50153846153846L24.40080033698399,58.69538461538461L29.288121314237575,55.775384615384624L34.22914911541702,61.94769230769231L39.17017691659646,53.667692307692306L44.003791069924176,66.7046153846154L48.89111204717776,71.34461538461538L53.8321398483572,69.48L58.77316764953665,67.1476923076923L63.660488626790226,59.036923076923074L68.54780960404382,57.42153846153846L73.48883740522325,48.21230769230769L78.4298652064027,54.72923076923077L83.26347935973041,59.15692307692307L88.150800336984,68.26461538461538L93.09182813816344,56.483076923076915L98.03285593934288,67.67384615384614L102.8664700926706,62.66461538461539L107.75379106992419,64.32L112.69481887110364,73.35384615384615L117.63584667228307,75.13846153846154L122.46946082561078,57.29846153846153L127.35678180286438,54.57846153846154L132.2978096040438,67.65538461538462L137.23883740522325,74.1076923076923L142.12615838247683,88.20307692307694L147.0134793597304,92.27384615384616L151.95450716090986,91.36615384615385L156.8955349620893,88.09846153846155L161.72914911541702,102.66153846153846L166.6164700926706,98.8153846153846L171.55749789385004,105.44923076923077L176.4985256950295,106.96307692307693L181.3321398483572,106.74461538461539L186.21946082561078,100.91076923076923L191.16048862679023,109.35384615384615L196.1015164279697,110.6123076923077L200.9351305812974,104.32307692307693L205.82245155855097,97.06461538461538L210.7634793597304,96.82153846153847L215.70450716090986,115.09846153846154L220.59182813816344,117.42153846153846L225.47914911541702,113.31692307692308L230.42017691659646,113.94153846153846L235.3612047177759,105.66461538461539L240.19481887110362,100.73230769230769L245.0821398483572,100.95384615384614L250.02316764953665,96.79076923076923L254.9641954507161,94.03692307692307" fill="none" stroke="#af516c" stroke-linejoin="round" stroke-linecap="round" stroke-width="2"></path><path d="M4.797809604043808,15.19692307692307L9.68513058129739,3.2738461538461507L14.626158382476833,16.803076923076915L19.567186183656275,12.904615384615397L24.40080033698399,22.193846153846152L29.288121314237575,23.033846153846156L34.22914911541702,29.615384615384613L39.17017691659646,32.375384615384604L44.003791069924176,27.28307692307692L48.89111204717776,12.904615384615397L53.8321398483572,35.15692307692308L58.77316764953665,26.43076923076923L63.660488626790226,40.85230769230769L68.54780960404382,50.32615384615386L73.48883740522325,55.21846153846154L78.4298652064027,55.41846153846154L83.26347935973041,49.27076923076922L88.150800336984,39.20307692307692L93.09182813816344,24.418461538461543L98.03285593934288,16.347692307692313L102.8664700926706,27.64L107.75379106992419,23.830769230769235L112.69481887110364,30.446153846153848L117.63584667228307,23.190769230769234L122.46946082561078,11.59076923076924L127.35678180286438,8.775384615384638L132.2978096040438,30.50769230769231L137.23883740522325,12.086153846153849L142.12615838247683,0.41538461538461036L147.0134793597304,22.098461538461535L151.95450716090986,9.483076923076922L156.8955349620893,25.246153846153845L161.72914911541702,17.6276923076923L166.6164700926706,12.695384615384597L171.55749789385004,20.150769230769228L176.4985256950295,31.13846153846154L181.3321398483572,17.110769230769236L186.21946082561078,11.446153846153848L191.16048862679023,16.498461538461555L196.1015164279697,25.907692307692315L200.9351305812974,22.646153846153837L205.82245155855097,9.553846153846166L210.7634793597304,15.633846153846164L215.70450716090986,37.766153846153856L220.59182813816344,24.110769230769222L225.47914911541702,19.569230769230757L230.42017691659646,38.239999999999995L235.3612047177759,14.095384615384617L240.19481887110362,8.864615384615377L245.0821398483572,27.166153846153847L250.02316764953665,11.433846153846162L254.9641954507161,11.941538461538457" fill="none" stroke="#76acb8" stroke-linejoin="round" stroke-linecap="round" stroke-width="2"></path></g></g></svg>