<svg xmlns="http://www.w3.org/2000/svg" viewBox="0 0 304 270"><style>/* <![CDATA[ */.chart-title{font-size:20px;fill:#43423e}.chart-subtitle{font-size:15px;fill:#74736c}.chart-source{font-size:10px;fill-opacity:.4}.axis .domain{fill:none;stroke:#74736c}.tick line{fill:none;stroke:#000;stroke-opacity:.2}.tick text{fill-opacity:.6;font-size:12px}.y.axis .tick line{stroke-dasharray:1}.y.axis .domain{fill:none;stroke-opacity:0}.y.axis .highlight-line{fill:none;stroke:#74736c}/* ]]> */</style><text class="chart-title" y="22">经常账目馀额</text><text class="chart-subtitle" y="42">10亿英镑</text><text class="chart-source" y="265">来源:英国国家统计局╱彭博. 2018年4月18日</text><g transform="translate(1,100)"><g class="x axis" transform="translate(0,120)" fill="none" font-size="10" font-family="sans-serif" text-anchor="middle"><path class="domain" stroke="#000" d="M0.5,0V0.5H255.5V0"></path><g class="tick" opacity="1" transform="translate(20.102990732940185,0)"><line stroke="#000" y2="6"></line><text fill="#000" y="9" dy="0.71em">2006</text></g><g class="tick" opacity="1" transform="translate(59.308972198820555,0)"><line stroke="#000" y2="6"></line><text fill="#000" y="9" dy="0.71em">2008</text></g><g class="tick" opacity="1" transform="translate(98.56866048862679,0)"><line stroke="#000" y2="6"></line><text fill="#000" y="9" dy="0.71em">2010</text></g><g class="tick" opacity="1" transform="translate(137.77464195450716,0)"><line stroke="#000" y2="6"></line><text fill="#000" y="9" dy="0.71em">2012</text></g><g class="tick" opacity="1" transform="translate(177.0343302443134,0)"><line stroke="#000" y2="6"></line><text fill="#000" y="9" dy="0.71em">2014</text></g><g class="tick" opacity="1" transform="translate(216.24031171019377,0)"><line stroke="#000" y2="6"></line><text fill="#000" y="9" dy="0.71em">2016</text></g><g class="tick" opacity="1" transform="translate(255.5,0)"><line stroke="#000" y2="6"></line><text fill="#000" y="9" dy="0.71em">2018</text></g></g><g class="y axis" transform="translate(255,0)" fill="none" font-size="10" font-family="sans-serif" text-anchor="start"><path class="domain" stroke="#000" d="M0,120.5H0.5V0.5H0"></path><g class="tick" opacity="1" transform="translate(0,105.01612903225806)"><line stroke="#000" x2="-255"></line><text fill="#000" x="3" dy="0.32em">-30</text></g><g class="tick" opacity="1" transform="translate(0,66.30645161290323)"><line stroke="#000" x2="-255"></line><text fill="#000" x="3" dy="0.32em">-20</text></g><g class="tick" opacity="1" transform="translate(0,27.596774193548384)"><line stroke="#000" x2="-255"></line><text fill="#000" x="3" dy="0.32em">-10</text></g></g><g><path d="M4.797809604043808,15.917419354838714L9.68513058129739,0.40258064516127945L14.626158382476833,26.42322580645161L19.567186183656275,22.575483870967744L24.40080033698399,28.215483870967745L29.288121314237575,25.59870967741935L34.22914911541702,41.64387096774193L39.17017691659646,34.69935483870968L44.003791069924176,44.69419354838709L48.89111204717776,32.4425806451613L53.8321398483572,58.091612903225816L58.77316764953665,44.17935483870967L63.660488626790226,52.118709677419346L68.54780960404382,62.00516129032258L73.48883740522325,56.57419354838709L78.4298652064027,65.02451612903226L83.26347935973041,62.86064516129032L88.150800336984,61.652903225806455L93.09182813816344,28.230967741935473L98.03285593934288,32.156129032258065L102.8664700926706,40.060645161290324L107.75379106992419,37.35096774193548L112.69481887110364,57.038709677419355L117.63584667228307,50.156129032258065L122.46946082561078,13.11870967741936L127.35678180286438,6.154838709677421L132.2978096040438,49.94709677419354L137.23883740522325,34.88903225806452L142.12615838247683,37.939354838709676L147.0134793597304,70.33935483870968L151.95450716090986,53.32645161290323L156.8955349620893,69.04645161290323L161.72914911541702,77.78322580645161L166.6164700926706,66.73935483870969L171.55749789385004,84.46451612903226L176.4985256950295,100.19225806451612L181.3321398483572,82.26967741935484L186.21946082561078,67.80387096774193L191.16048862679023,84.78193548387097L196.1015164279697,98.20258064516129L200.9351305812974,86.18709677419355L205.82245155855097,60.58451612903225L210.7634793597304,67.92774193548388L215.70450716090986,118.76516129032257L220.59182813816344,104.5083870967742L225.47914911541702,93.63096774193548L230.42017691659646,117.90580645161292L235.3612047177759,77.10967741935485L240.19481887110362,64.33161290322582L245.0821398483572,87.63483870967741L250.02316764953665,62.70967741935484L254.9641954507161,59.61290322580644" fill="none" stroke="#af516c" stroke-linejoin="round" stroke-linecap="round" stroke-width="2"></path></g></g></svg>