<svg xmlns="http://www.w3.org/2000/svg" viewBox="0 0 304 270"><style>/* <![CDATA[ */.chart-title{font-size:20px;fill:#43423e}.chart-subtitle{font-size:15px;fill:#74736c}.chart-source{font-size:10px;fill-opacity:.4}.axis .domain{fill:none;stroke:#74736c}.tick line{fill:none;stroke:#000;stroke-opacity:.2}.tick text{fill-opacity:.6;font-size:12px}.y.axis .tick line{stroke-dasharray:1}.y.axis .domain{fill:none;stroke-opacity:0}.y.axis .highlight-line{fill:none;stroke:#74736c}/* ]]> */</style><text class="chart-title" y="22">Czech GDP forecast</text><text class="chart-subtitle" y="42">By date of forecast, annual % change</text><text class="chart-source" y="265">来源:彭博. 2018年5月7日</text><g transform="translate(1,100)"><g class="x axis" transform="translate(0,120)" fill="none" font-size="10" font-family="sans-serif" text-anchor="middle"><path class="domain" stroke="#000" d="M0.5,0V0.5H255.5V0"></path><g class="tick" opacity="1" transform="translate(0.5,0)"><line stroke="#000" y2="6"></line><text fill="#000" y="9" dy="0.71em">July</text></g><g class="tick" opacity="1" transform="translate(32.636986301369866,0)"><line stroke="#000" y2="6"></line><text fill="#000" y="9" dy="0.71em">October</text></g><g class="tick" opacity="1" transform="translate(64.77397260273973,0)"><line stroke="#000" y2="6"></line><text fill="#000" y="9" dy="0.71em">2017</text></g><g class="tick" opacity="1" transform="translate(96.2123287671233,0)"><line stroke="#000" y2="6"></line><text fill="#000" y="9" dy="0.71em">April</text></g><g class="tick" opacity="1" transform="translate(128,0)"><line stroke="#000" y2="6"></line><text fill="#000" y="9" dy="0.71em">July</text></g><g class="tick" opacity="1" transform="translate(160.13698630136986,0)"><line stroke="#000" y2="6"></line><text fill="#000" y="9" dy="0.71em">October</text></g><g class="tick" opacity="1" transform="translate(192.27397260273972,0)"><line stroke="#000" y2="6"></line><text fill="#000" y="9" dy="0.71em">2018</text></g><g class="tick" opacity="1" transform="translate(223.7123287671233,0)"><line stroke="#000" y2="6"></line><text fill="#000" y="9" dy="0.71em">April</text></g><g class="tick" opacity="1" transform="translate(255.5,0)"><line stroke="#000" y2="6"></line><text fill="#000" y="9" dy="0.71em">July</text></g></g><g class="y axis" transform="translate(255,0)" fill="none" font-size="10" font-family="sans-serif" text-anchor="start"><path class="domain" stroke="#000" d="M0,120.5H0.5V0.5H0"></path><g class="tick" opacity="1" transform="translate(0,120.5)"><line stroke="#000" x2="-255"></line><text fill="#000" x="3" dy="0.32em">2</text></g><g class="tick" opacity="1" transform="translate(0,80.5)"><line stroke="#000" x2="-255"></line><text fill="#000" x="3" dy="0.32em">3</text></g><g class="tick" opacity="1" transform="translate(0,40.5)"><line stroke="#000" x2="-255"></line><text fill="#000" x="3" dy="0.32em">4</text></g><g class="tick" opacity="1" transform="translate(0,0.5)"><line stroke="#000" x2="-255"></line><text fill="#000" x="3" dy="0.32em">5</text></g></g><g class="chart-key" transform="translate(0, -35)"><g class="key-element" transform="translate(0,0)"><text x="28" font-size="12">2017</text><line x1="0" x2="25" y1="-5" y2="-5" stroke-width="2" fill="none" stroke="#af516c"></line></g><g class="key-element" transform="translate(0,20)"><text x="28" font-size="12">2018</text><line x1="0" x2="25" y1="-5" y2="-5" stroke-width="2" fill="none" stroke="#76acb8"></line></g></g><g><path d="M21.773972602739725,98L22.123287671232877,98L23.17123287671233,98L23.52054794520548,98L23.86986301369863,98L24.21917808219178,98L24.56849315068493,98L25.616438356164384,98L25.965753424657535,98L26.315068493150683,98L26.664383561643838,98L27.013698630136986,98L28.061643835616437,98L28.41095890410959,98L28.76027397260274,98L29.109589041095887,98L29.458904109589042,98L30.506849315068493,100L30.85616438356164,100L31.205479452054796,100L31.554794520547944,100L31.9041095890411,100L32.95205479452054,100L33.301369863013704,100L33.65068493150685,100L34,100L34.34931506849315,100L35.397260273972606,100L35.74657534246575,100L36.0958904109589,100L36.44520547945205,100L36.794520547945204,100L37.842465753424655,100L38.1917808219178,100L38.54109589041096,100L38.89041095890411,100L39.23972602739726,100L40.28767123287671,100L40.636986301369866,100L40.986301369863014,100L41.33561643835616,100L41.68493150684932,100L42.73287671232877,100L43.082191780821915,100L43.43150684931507,100L43.78082191780822,100L44.13013698630137,100L45.178082191780824,100L45.52739726027397,100L45.87671232876713,100L46.226027397260275,100L46.57534246575342,100L47.62328767123288,100L47.97260273972603,100L48.321917808219176,100L48.67123287671233,100L49.02054794520548,100L50.06849315068493,100L50.417808219178085,100L50.76712328767123,100L51.11643835616438,100L51.465753424657535,98L52.513698630136986,98L52.863013698630134,98L53.21232876712329,98L53.56164383561644,98L53.91095890410959,96L54.95890410958904,96L55.30821917808219,96L55.657534246575345,96L56.00684931506849,96L56.35616438356164,96L57.4041095890411,96L57.75342465753425,96L58.102739726027394,96L58.45205479452055,96L58.8013698630137,96L59.84931506849315,96L60.1986301369863,96L60.54794520547945,96L60.897260273972606,96L61.24657534246575,96L62.294520547945204,100L62.64383561643836,100L62.99315068493151,100L63.342465753424655,100L63.6917808219178,100L64.73972602739725,100L65.08904109589042,100L65.43835616438356,100L65.78767123287672,100L66.13698630136986,100L67.18493150684931,100L67.53424657534246,100L67.8835616438356,100L68.23287671232876,100L68.58219178082193,100L69.63013698630137,100L69.97945205479452,100L70.32876712328768,100L70.67808219178082,100L71.02739726027397,100L72.07534246575344,100L72.42465753424658,100L72.77397260273973,100L73.12328767123287,100L73.47260273972603,100L74.52054794520548,100L74.86986301369862,100L75.21917808219177,100L75.56849315068494,100L75.91780821917808,100L76.96575342465754,98L77.31506849315069,98L77.66438356164383,98L78.01369863013699,98L78.36301369863013,98L79.41095890410959,98L79.76027397260275,98L80.10958904109589,98L80.45890410958904,98L80.8082191780822,98L81.85616438356163,98L82.2054794520548,98L82.55479452054794,98L82.9041095890411,98L83.25342465753425,98L84.30136986301369,98L84.65068493150685,98L85,98L85.34931506849314,98L85.69863013698631,98L86.74657534246576,98L87.0958904109589,98L87.44520547945206,98L87.7945205479452,98L88.14383561643835,96L89.19178082191782,96L89.54109589041096,96L89.89041095890411,96L90.23972602739727,96L90.58904109589041,96L91.63698630136986,96L91.98630136986301,96L92.33561643835615,96L92.68493150684932,96L93.03424657534246,96L94.08219178082192,96L94.43150684931507,96L94.78082191780821,96L95.13013698630137,96L95.47945205479452,96L96.52739726027397,96L96.87671232876713,96L97.22602739726028,96L97.57534246575342,96L97.92465753424658,96L98.97260273972603,96L99.32191780821917,96L99.67123287671234,96L100.02054794520548,96L100.36986301369863,96L101.41780821917808,96L101.76712328767123,96L102.11643835616438,96L102.46575342465754,96L102.81506849315069,96L103.86301369863014,96L104.2123287671233,96L104.56164383561644,96L104.91095890410959,96L105.26027397260273,96L106.3082191780822,96L106.65753424657535,96L107.0068493150685,96L107.35616438356165,96L107.70547945205479,96L108.75342465753424,96L109.1027397260274,96L109.45205479452054,96L109.8013698630137,96L110.15068493150686,96L111.1986301369863,96L111.54794520547945,96L111.8972602739726,96L112.24657534246575,96L112.5958904109589,96L113.64383561643837,96L113.9931506849315,96L114.34246575342466,96L114.6917808219178,96L115.04109589041096,92L116.08904109589041,92L116.43835616438355,92L116.78767123287672,92L117.13698630136987,92L117.48630136986301,92L118.53424657534246,92L118.88356164383562,92L119.23287671232876,92L119.58219178082192,92L119.93150684931506,92L120.97945205479452,92L121.32876712328768,92L121.67808219178082,92L122.02739726027397,92L122.37671232876713,92L123.42465753424656,92L123.77397260273973,92L124.12328767123289,92L124.47260273972603,92L124.82191780821918,92L125.86986301369863,92L126.21917808219177,92L126.56849315068493,92L126.91780821917807,92L127.26712328767124,92L128.31506849315068,92L128.66438356164386,92L129.013698630137,92L129.36301369863014,92L129.7123287671233,92L130.76027397260273,92L131.1095890410959,92L131.45890410958904,92L131.80821917808217,92L132.15753424657535,92L133.20547945205482,92L133.55479452054794,92L133.9041095890411,92L134.25342465753423,92L134.6027397260274,92L135.65068493150687,92L136,92L136.34931506849315,92L136.6986301369863,92L137.04794520547946,92L138.0958904109589,92L138.44520547945206,92L138.79452054794518,92L139.14383561643837,92L139.49315068493152,92L140.54109589041096,92L140.8904109589041,92L141.23972602739724,92L141.58904109589042,92L141.93835616438355,92L142.986301369863,90L143.33561643835617,90L143.68493150684932,90L144.03424657534248,90L144.3835616438356,90L145.43150684931507,90L145.7808219178082,90L146.13013698630138,90L146.47945205479454,90L146.82876712328766,90L147.87671232876713,90L148.22602739726025,90L148.57534246575344,90L148.92465753424656,76L149.27397260273972,76L150.32191780821918,76L150.6712328767123,76L151.0205479452055,76L151.36986301369862,76L151.71917808219177,72L152.7671232876712,72L153.1164383561644,72L153.46575342465755,72L153.81506849315068,72L154.16438356164383,72L155.21232876712327,72L155.56164383561645,72L155.91095890410958,72L156.26027397260273,72L156.60958904109592,72L157.65753424657532,64L158.0068493150685,64L158.35616438356163,60L158.7054794520548,60L159.05479452054794,60L160.1027397260274,60L160.45205479452056,60L160.8013698630137,60L161.15068493150685,60L161.5,60L162.54794520547946,60L162.8972602739726,60L163.24657534246575,60L163.59589041095893,60L163.94520547945206,60L164.99315068493152,60L165.34246575342465,60L165.6917808219178,60L166.04109589041096,60L166.3904109589041,60L167.43835616438358,60L167.7876712328767,60L168.13698630136986,60L168.486301369863,60L168.83561643835617,60L169.8835616438356,60L170.23287671232876,60L170.58219178082192,60L170.93150684931507,60L171.28082191780823,60L172.32876712328766,60L172.67808219178082,60L173.02739726027397,60L173.37671232876713,60L173.72602739726028,60L174.77397260273972,60L175.12328767123287,60L175.47260273972603,60L175.82191780821918,60L176.1712328767123,60L177.21917808219177,60L177.56849315068493,60L177.91780821917808,60L178.26712328767124,60L178.61643835616437,60L179.66438356164383,28L180.013698630137,28L180.36301369863014,28L180.7123287671233,28L181.06164383561642,28L182.1095890410959,28L182.45890410958904,28L182.8082191780822,23.999999999999986L183.15753424657532,23.999999999999986L183.5068493150685,23.999999999999986L184.55479452054794,23.999999999999986L184.9041095890411,23.999999999999986L185.25342465753425,23.999999999999986L185.60273972602738,23.999999999999986L185.95205479452056,23.999999999999986L187,23.999999999999986L187.34931506849315,23.999999999999986L187.6986301369863,23.999999999999986L188.04794520547944,23.999999999999986L188.39726027397262,23.999999999999986L189.44520547945206,23.999999999999986L189.7945205479452,23.999999999999986L190.14383561643834,23.999999999999986L190.49315068493152,23.999999999999986L190.84246575342468,23.999999999999986L191.8904109589041,23.999999999999986L192.23972602739727,23.999999999999986L192.5890410958904,23.999999999999986L192.93835616438358,23.999999999999986L193.2876712328767,23.999999999999986L194.33561643835617,23.999999999999986L194.68493150684932,23.999999999999986L195.03424657534245,23.999999999999986L195.38356164383563,23.999999999999986L195.73287671232876,23.999999999999986L196.78082191780823,23.999999999999986L197.13013698630135,23.999999999999986L197.4794520547945,23.999999999999986L197.8287671232877,23.999999999999986L198.17808219178082,23.999999999999986L199.22602739726028,23.999999999999986L199.5753424657534,23.999999999999986L199.9246575342466,23.999999999999986L200.27397260273972,23.999999999999986L200.62328767123287,23.999999999999986L201.67123287671234,23.999999999999986L202.02054794520546,23.999999999999986L202.36986301369865,23.999999999999986L202.71917808219177,23.999999999999986L203.06849315068493,23.999999999999986L204.11643835616437,23.999999999999986L204.46575342465752,23.999999999999986L204.8150684931507,23.999999999999986L205.16438356164383,23.999999999999986L205.513698630137,23.999999999999986L206.56164383561642,23.999999999999986L206.9109589041096,23.999999999999986L207.26027397260273,23.999999999999986L207.6095890410959,23.999999999999986L207.95890410958904,23.999999999999986L209.00684931506848,23.999999999999986L209.35616438356166,23.999999999999986L209.7054794520548,23.999999999999986L210.05479452054794,23.999999999999986L210.4041095890411,23.999999999999986L211.45205479452054,23.999999999999986L211.80136986301372,23.999999999999986L212.15068493150685,23.999999999999986L212.5,23.999999999999986L212.84931506849315,23.999999999999986L213.89726027397262,23.999999999999986L214.24657534246575,23.999999999999986L214.5958904109589,23.999999999999986L214.94520547945206,23.999999999999986L215.2945205479452,23.999999999999986L216.34246575342468,23.999999999999986L216.6917808219178,23.999999999999986L217.04109589041096,23.999999999999986L217.3904109589041,23.999999999999986L217.73972602739727,23.999999999999986L218.78767123287673,23.999999999999986L219.13698630136986,23.999999999999986L219.486301369863,23.999999999999986L219.83561643835617,23.999999999999986L220.18493150684932,23.999999999999986L221.23287671232876,23.999999999999986L221.58219178082192,23.999999999999986L221.93150684931507,23.999999999999986L222.28082191780823,23.999999999999986L222.63013698630138,23.999999999999986" fill="none" stroke="#af516c" stroke-linejoin="round" stroke-linecap="round" stroke-width="2"></path><path d="M21.773972602739725,96L22.123287671232877,96L23.17123287671233,96L23.52054794520548,96L23.86986301369863,96L24.21917808219178,96L24.56849315068493,96L25.616438356164384,96L25.965753424657535,96L26.315068493150683,96L26.664383561643838,96L27.013698630136986,96L28.061643835616437,96L28.41095890410959,96L28.76027397260274,96L29.109589041095887,96L29.458904109589042,96L30.506849315068493,96L30.85616438356164,96L31.205479452054796,96L31.554794520547944,96L31.9041095890411,96L32.95205479452054,96L33.301369863013704,96L33.65068493150685,96L34,96L34.34931506849315,96L35.397260273972606,96L35.74657534246575,96L36.0958904109589,96L36.44520547945205,96L36.794520547945204,96L37.842465753424655,96L38.1917808219178,96L38.54109589041096,96L38.89041095890411,96L39.23972602739726,96L40.28767123287671,96L40.636986301369866,96L40.986301369863014,96L41.33561643835616,96L41.68493150684932,96L42.73287671232877,96L43.082191780821915,96L43.43150684931507,96L43.78082191780822,96L44.13013698630137,96L45.178082191780824,96L45.52739726027397,96L45.87671232876713,96L46.226027397260275,96L46.57534246575342,96L47.62328767123288,96L47.97260273972603,96L48.321917808219176,96L48.67123287671233,96L49.02054794520548,96L50.06849315068493,96L50.417808219178085,96L50.76712328767123,96L51.11643835616438,96L51.465753424657535,96L52.513698630136986,96L52.863013698630134,96L53.21232876712329,96L53.56164383561644,96L53.91095890410959,96L54.95890410958904,96L55.30821917808219,96L55.657534246575345,96L56.00684931506849,96L56.35616438356164,96L57.4041095890411,96L57.75342465753425,96L58.102739726027394,96L58.45205479452055,96L58.8013698630137,96L59.84931506849315,96L60.1986301369863,96L60.54794520547945,96L60.897260273972606,96L61.24657534246575,96L62.294520547945204,96L62.64383561643836,96L62.99315068493151,96L63.342465753424655,96L63.6917808219178,96L64.73972602739725,96L65.08904109589042,96L65.43835616438356,96L65.78767123287672,96L66.13698630136986,96L67.18493150684931,96L67.53424657534246,96L67.8835616438356,96L68.23287671232876,96L68.58219178082193,96L69.63013698630137,96L69.97945205479452,96L70.32876712328768,96L70.67808219178082,96L71.02739726027397,96L72.07534246575344,96L72.42465753424658,96L72.77397260273973,96L73.12328767123287,96L73.47260273972603,96L74.52054794520548,96L74.86986301369862,96L75.21917808219177,96L75.56849315068494,96L75.91780821917808,96L76.96575342465754,96L77.31506849315069,96L77.66438356164383,96L78.01369863013699,96L78.36301369863013,96L79.41095890410959,96L79.76027397260275,96L80.10958904109589,96L80.45890410958904,96L80.8082191780822,96L81.85616438356163,96L82.2054794520548,96L82.55479452054794,96L82.9041095890411,96L83.25342465753425,96L84.30136986301369,96L84.65068493150685,96L85,96L85.34931506849314,96L85.69863013698631,96L86.74657534246576,96L87.0958904109589,96L87.44520547945206,96L87.7945205479452,96L88.14383561643835,96L89.19178082191782,96L89.54109589041096,96L89.89041095890411,96L90.23972602739727,96L90.58904109589041,96L91.63698630136986,96L91.98630136986301,96L92.33561643835615,96L92.68493150684932,96L93.03424657534246,96L94.08219178082192,96L94.43150684931507,96L94.78082191780821,96L95.13013698630137,96L95.47945205479452,96L96.52739726027397,96L96.87671232876713,96L97.22602739726028,96L97.57534246575342,96L97.92465753424658,96L98.97260273972603,96L99.32191780821917,96L99.67123287671234,96L100.02054794520548,96L100.36986301369863,96L101.41780821917808,96L101.76712328767123,96L102.11643835616438,96L102.46575342465754,96L102.81506849315069,96L103.86301369863014,96L104.2123287671233,96L104.56164383561644,96L104.91095890410959,96L105.26027397260273,96L106.3082191780822,96L106.65753424657535,96L107.0068493150685,96L107.35616438356165,96L107.70547945205479,96L108.75342465753424,96L109.1027397260274,96L109.45205479452054,96L109.8013698630137,96L110.15068493150686,96L111.1986301369863,96L111.54794520547945,96L111.8972602739726,96L112.24657534246575,96L112.5958904109589,96L113.64383561643837,96L113.9931506849315,96L114.34246575342466,96L114.6917808219178,96L115.04109589041096,96L116.08904109589041,96L116.43835616438355,96L116.78767123287672,96L117.13698630136987,96L117.48630136986301,96L118.53424657534246,96L118.88356164383562,96L119.23287671232876,96L119.58219178082192,96L119.93150684931506,96L120.97945205479452,96L121.32876712328768,96L121.67808219178082,96L122.02739726027397,96L122.37671232876713,96L123.42465753424656,96L123.77397260273973,96L124.12328767123289,96L124.47260273972603,96L124.82191780821918,96L125.86986301369863,96L126.21917808219177,96L126.56849315068493,96L126.91780821917807,96L127.26712328767124,96L128.31506849315068,96L128.66438356164386,96L129.013698630137,96L129.36301369863014,96L129.7123287671233,96L130.76027397260273,96L131.1095890410959,96L131.45890410958904,96L131.80821917808217,96L132.15753424657535,96L133.20547945205482,96L133.55479452054794,96L133.9041095890411,96L134.25342465753423,96L134.6027397260274,96L135.65068493150687,96L136,96L136.34931506849315,96L136.6986301369863,96L137.04794520547946,96L138.0958904109589,96L138.44520547945206,96L138.79452054794518,96L139.14383561643837,96L139.49315068493152,96L140.54109589041096,96L140.8904109589041,96L141.23972602739724,96L141.58904109589042,96L141.93835616438355,96L142.986301369863,94L143.33561643835617,94L143.68493150684932,94L144.03424657534248,94L144.3835616438356,94L145.43150684931507,94L145.7808219178082,94L146.13013698630138,94L146.47945205479454,94L146.82876712328766,94L147.87671232876713,94L148.22602739726025,94L148.57534246575344,94L148.92465753424656,88L149.27397260273972,88L150.32191780821918,88L150.6712328767123,88L151.0205479452055,88L151.36986301369862,88L151.71917808219177,80L152.7671232876712,80L153.1164383561644,80L153.46575342465755,80L153.81506849315068,80L154.16438356164383,80L155.21232876712327,80L155.56164383561645,80L155.91095890410958,80L156.26027397260273,80L156.60958904109592,80L157.65753424657532,80L158.0068493150685,80L158.35616438356163,80L158.7054794520548,80L159.05479452054794,80L160.1027397260274,80L160.45205479452056,80L160.8013698630137,80L161.15068493150685,80L161.5,80L162.54794520547946,80L162.8972602739726,80L163.24657534246575,80L163.59589041095893,80L163.94520547945206,80L164.99315068493152,80L165.34246575342465,80L165.6917808219178,80L166.04109589041096,80L166.3904109589041,80L167.43835616438358,80L167.7876712328767,80L168.13698630136986,80L168.486301369863,80L168.83561643835617,80L169.8835616438356,80L170.23287671232876,80L170.58219178082192,80L170.93150684931507,80L171.28082191780823,80L172.32876712328766,80L172.67808219178082,80L173.02739726027397,80L173.37671232876713,80L173.72602739726028,80L174.77397260273972,80L175.12328767123287,80L175.47260273972603,80L175.82191780821918,80L176.1712328767123,80L177.21917808219177,80L177.56849315068493,80L177.91780821917808,80L178.26712328767124,80L178.61643835616437,80L179.66438356164383,72L180.013698630137,72L180.36301369863014,72L180.7123287671233,72L181.06164383561642,72L182.1095890410959,72L182.45890410958904,72L182.8082191780822,68L183.15753424657532,68L183.5068493150685,68L184.55479452054794,68L184.9041095890411,68L185.25342465753425,68L185.60273972602738,68L185.95205479452056,68L187,68L187.34931506849315,68L187.6986301369863,68L188.04794520547944,68L188.39726027397262,68L189.44520547945206,68L189.7945205479452,68L190.14383561643834,68L190.49315068493152,68L190.84246575342468,68L191.8904109589041,66L192.23972602739727,66L192.5890410958904,66L192.93835616438358,66L193.2876712328767,66L194.33561643835617,66L194.68493150684932,66L195.03424657534245,66L195.38356164383563,66L195.73287671232876,66L196.78082191780823,66L197.13013698630135,66L197.4794520547945,66L197.8287671232877,66L198.17808219178082,66L199.22602739726028,66L199.5753424657534,66L199.9246575342466,66L200.27397260273972,66L200.62328767123287,66L201.67123287671234,66L202.02054794520546,66L202.36986301369865,66L202.71917808219177,66L203.06849315068493,66L204.11643835616437,66L204.46575342465752,66L204.8150684931507,66L205.16438356164383,66L205.513698630137,66L206.56164383561642,66L206.9109589041096,66L207.26027397260273,66L207.6095890410959,66L207.95890410958904,66L209.00684931506848,66L209.35616438356166,66L209.7054794520548,66L210.05479452054794,60L210.4041095890411,60L211.45205479452054,60L211.80136986301372,60L212.15068493150685,60L212.5,60L212.84931506849315,60L213.89726027397262,60L214.24657534246575,60L214.5958904109589,60L214.94520547945206,60L215.2945205479452,60L216.34246575342468,60L216.6917808219178,60L217.04109589041096,60L217.3904109589041,60L217.73972602739727,60L218.78767123287673,60L219.13698630136986,60L219.486301369863,60L219.83561643835617,61.99999999999999L220.18493150684932,61.99999999999999L221.23287671232876,60L221.58219178082192,60L221.93150684931507,60L222.28082191780823,60L222.63013698630138,60L223.67808219178082,60L224.02739726027397,60L224.3767123287671,60L224.72602739726028,60L225.0753424657534,60L226.12328767123287,60L226.47260273972603,60L226.82191780821918,60L227.17123287671234,60L227.52054794520546,60L228.56849315068493,60L228.91780821917808,60L229.26712328767124,60L229.6164383561644,60L229.96575342465752,60L231.013698630137,60L231.3630136986301,60L231.7123287671233,60L232.06164383561645,60L232.41095890410958,60L233.45890410958904,60L233.8082191780822,60L234.15753424657535,60L234.50684931506848,60L234.85616438356163,60" fill="none" stroke="#76acb8" stroke-linejoin="round" stroke-linecap="round" stroke-width="2"></path></g></g></svg>