<svg xmlns="http://www.w3.org/2000/svg" viewBox="0 0 304 270"><style>/* <![CDATA[ */.chart-title{font-size:20px;fill:#43423e}.chart-subtitle{font-size:15px;fill:#74736c}.chart-source{font-size:10px;fill-opacity:.4}.axis .domain{fill:none;stroke:#74736c}.tick line{fill:none;stroke:#000;stroke-opacity:.2}.tick text{fill-opacity:.6;font-size:12px}.y.axis .tick line{stroke-dasharray:1}.y.axis .domain{fill:none;stroke-opacity:0}.y.axis .highlight-line{fill:none;stroke:#74736c}/* ]]> */</style><text class="chart-title" y="22">Czech current account forecast</text><text class="chart-subtitle" y="42">By date of forecast, % of GDP</text><text class="chart-source" y="265">来源:彭博. 2018年5月4日</text><g transform="translate(1,100)"><g class="x axis" transform="translate(0,120)" fill="none" font-size="10" font-family="sans-serif" text-anchor="middle"><path class="domain" stroke="#000" d="M0.5,0V0.5H255.5V0"></path><g class="tick" opacity="1" transform="translate(0.5,0)"><line stroke="#000" y2="6"></line><text fill="#000" y="9" dy="0.71em">July</text></g><g class="tick" opacity="1" transform="translate(32.636986301369866,0)"><line stroke="#000" y2="6"></line><text fill="#000" y="9" dy="0.71em">October</text></g><g class="tick" opacity="1" transform="translate(64.77397260273973,0)"><line stroke="#000" y2="6"></line><text fill="#000" y="9" dy="0.71em">2017</text></g><g class="tick" opacity="1" transform="translate(96.2123287671233,0)"><line stroke="#000" y2="6"></line><text fill="#000" y="9" dy="0.71em">April</text></g><g class="tick" opacity="1" transform="translate(128,0)"><line stroke="#000" y2="6"></line><text fill="#000" y="9" dy="0.71em">July</text></g><g class="tick" opacity="1" transform="translate(160.13698630136986,0)"><line stroke="#000" y2="6"></line><text fill="#000" y="9" dy="0.71em">October</text></g><g class="tick" opacity="1" transform="translate(192.27397260273972,0)"><line stroke="#000" y2="6"></line><text fill="#000" y="9" dy="0.71em">2018</text></g><g class="tick" opacity="1" transform="translate(223.7123287671233,0)"><line stroke="#000" y2="6"></line><text fill="#000" y="9" dy="0.71em">April</text></g><g class="tick" opacity="1" transform="translate(255.5,0)"><line stroke="#000" y2="6"></line><text fill="#000" y="9" dy="0.71em">July</text></g></g><g class="y axis" transform="translate(255,0)" fill="none" font-size="10" font-family="sans-serif" text-anchor="start"><path class="domain" stroke="#000" d="M0,120.5H0.5V0.5H0"></path><g class="tick" opacity="1" transform="translate(0,120.5)"><line stroke="#000" x2="-255"></line><text fill="#000" x="3" dy="0.32em">0.0</text></g><g class="tick" opacity="1" transform="translate(0,90.5)"><line stroke="#000" x2="-255"></line><text fill="#000" x="3" dy="0.32em">0.5</text></g><g class="tick" opacity="1" transform="translate(0,60.5)"><line stroke="#000" x2="-255"></line><text fill="#000" x="3" dy="0.32em">1.0</text></g><g class="tick" opacity="1" transform="translate(0,30.5)"><line stroke="#000" x2="-255"></line><text fill="#000" x="3" dy="0.32em">1.5</text></g><g class="tick" opacity="1" transform="translate(0,0.5)"><line stroke="#000" x2="-255"></line><text fill="#000" x="3" dy="0.32em">2.0</text></g><line class="highlight-line" x1="0" y1="120" x2="-255" y2="120"></line></g><g class="chart-key" transform="translate(0, -35)"><g class="key-element" transform="translate(0,0)"><text x="28" font-size="12">2017</text><line x1="0" x2="25" y1="-5" y2="-5" stroke-width="2" fill="none" stroke="#af516c"></line></g><g class="key-element" transform="translate(0,20)"><text x="28" font-size="12">2018</text><line x1="0" x2="25" y1="-5" y2="-5" stroke-width="2" fill="none" stroke="#76acb8"></line></g></g><g><path d="M21.773972602739725,66L22.123287671232877,66L23.17123287671233,66L23.52054794520548,66L23.86986301369863,66L24.21917808219178,66L24.56849315068493,66L25.616438356164384,66L25.965753424657535,66L26.315068493150683,66L26.664383561643838,66L27.013698630136986,66L28.061643835616437,66L28.41095890410959,66L28.76027397260274,66L29.109589041095887,66L29.458904109589042,66L30.506849315068493,78L30.85616438356164,78L31.205479452054796,78L31.554794520547944,78L31.9041095890411,78L32.95205479452054,78L33.301369863013704,78L33.65068493150685,78L34,78L34.34931506849315,78L35.397260273972606,78L35.74657534246575,78L36.0958904109589,78L36.44520547945205,78L36.794520547945204,78L37.842465753424655,78L38.1917808219178,78L38.54109589041096,78L38.89041095890411,78L39.23972602739726,78L40.28767123287671,78L40.636986301369866,78L40.986301369863014,78L41.33561643835616,78L41.68493150684932,78L42.73287671232877,78L43.082191780821915,78L43.43150684931507,78L43.78082191780822,78L44.13013698630137,78L45.178082191780824,78L45.52739726027397,78L45.87671232876713,78L46.226027397260275,78L46.57534246575342,78L47.62328767123288,78L47.97260273972603,78L48.321917808219176,78L48.67123287671233,78L49.02054794520548,78L50.06849315068493,78L50.417808219178085,78L50.76712328767123,78L51.11643835616438,78L51.465753424657535,66L52.513698630136986,66L52.863013698630134,66L53.21232876712329,66L53.56164383561644,66L53.91095890410959,66L54.95890410958904,66L55.30821917808219,60L55.657534246575345,60L56.00684931506849,60L56.35616438356164,60L57.4041095890411,60L57.75342465753425,60L58.102739726027394,60L58.45205479452055,60L58.8013698630137,60L59.84931506849315,60L60.1986301369863,60L60.54794520547945,60L60.897260273972606,60L61.24657534246575,60L62.294520547945204,60L62.64383561643836,60L62.99315068493151,60L63.342465753424655,60L63.6917808219178,60L64.73972602739725,60L65.08904109589042,60L65.43835616438356,60L65.78767123287672,60L66.13698630136986,60L67.18493150684931,60L67.53424657534246,60L67.8835616438356,60L68.23287671232876,60L68.58219178082193,60L69.63013698630137,60L69.97945205479452,60L70.32876712328768,60L70.67808219178082,60L71.02739726027397,60L72.07534246575344,60L72.42465753424658,60L72.77397260273973,60L73.12328767123287,60L73.47260273972603,60L74.52054794520548,60L74.86986301369862,60L75.21917808219177,60L75.56849315068494,60L75.91780821917808,60L76.96575342465754,60L77.31506849315069,60L77.66438356164383,60L78.01369863013699,60L78.36301369863013,60L79.41095890410959,60L79.76027397260275,60L80.10958904109589,60L80.45890410958904,60L80.8082191780822,60L81.85616438356163,60L82.2054794520548,60L82.55479452054794,60L82.9041095890411,60L83.25342465753425,54L84.30136986301369,54L84.65068493150685,54L85,54L85.34931506849314,54L85.69863013698631,54L86.74657534246576,54L87.0958904109589,54L87.44520547945206,54L87.7945205479452,54L88.14383561643835,54L89.19178082191782,54L89.54109589041096,54L89.89041095890411,54L90.23972602739727,54L90.58904109589041,54L91.63698630136986,54L91.98630136986301,54L92.33561643835615,54L92.68493150684932,54L93.03424657534246,54L94.08219178082192,60L94.43150684931507,60L94.78082191780821,60L95.13013698630137,60L95.47945205479452,60L96.52739726027397,60L96.87671232876713,60L97.22602739726028,60L97.57534246575342,60L97.92465753424658,60L98.97260273972603,60L99.32191780821917,60L99.67123287671234,60L100.02054794520548,60L100.36986301369863,60L101.41780821917808,60L101.76712328767123,60L102.11643835616438,60L102.46575342465754,60L102.81506849315069,63L103.86301369863014,63L104.2123287671233,63L104.56164383561644,63L104.91095890410959,63L105.26027397260273,63L106.3082191780822,63L106.65753424657535,63L107.0068493150685,63L107.35616438356165,63L107.70547945205479,63L108.75342465753424,63L109.1027397260274,63L109.45205479452054,63L109.8013698630137,63L110.15068493150686,63L111.1986301369863,63L111.54794520547945,63L111.8972602739726,63L112.24657534246575,63L112.5958904109589,63L113.64383561643837,63L113.9931506849315,63L114.34246575342466,63L114.6917808219178,63L115.04109589041096,60L116.08904109589041,60L116.43835616438355,60L116.78767123287672,60L117.13698630136987,60L117.48630136986301,60L118.53424657534246,60L118.88356164383562,60L119.23287671232876,60L119.58219178082192,60L119.93150684931506,60L120.97945205479452,60L121.32876712328768,60L121.67808219178082,60L122.02739726027397,60L122.37671232876713,60L123.42465753424656,60L123.77397260273973,60L124.12328767123289,60L124.47260273972603,60L124.82191780821918,60L125.86986301369863,66L126.21917808219177,66L126.56849315068493,66L126.91780821917807,66L127.26712328767124,60L128.31506849315068,60L128.66438356164386,60L129.013698630137,60L129.36301369863014,60L129.7123287671233,60L130.76027397260273,60L131.1095890410959,60L131.45890410958904,60L131.80821917808217,60L132.15753424657535,60L133.20547945205482,60L133.55479452054794,60L133.9041095890411,60L134.25342465753423,60L134.6027397260274,60L135.65068493150687,60L136,60L136.34931506849315,60L136.6986301369863,60L137.04794520547946,60L138.0958904109589,60L138.44520547945206,60L138.79452054794518,60L139.14383561643837,60L139.49315068493152,60L140.54109589041096,60L140.8904109589041,60L141.23972602739724,60L141.58904109589042,60L141.93835616438355,60L142.986301369863,60L143.33561643835617,60L143.68493150684932,60L144.03424657534248,60L144.3835616438356,60L145.43150684931507,60L145.7808219178082,60L146.13013698630138,60L146.47945205479454,60L146.82876712328766,60L147.87671232876713,60L148.22602739726025,60L148.57534246575344,60L148.92465753424656,60L149.27397260273972,60L150.32191780821918,60L150.6712328767123,60L151.0205479452055,60L151.36986301369862,60L151.71917808219177,60L152.7671232876712,60L153.1164383561644,60L153.46575342465755,60L153.81506849315068,60L154.16438356164383,60L155.21232876712327,60L155.56164383561645,60L155.91095890410958,60L156.26027397260273,60L156.60958904109592,60L157.65753424657532,63L158.0068493150685,63L158.35616438356163,66L158.7054794520548,66L159.05479452054794,66L160.1027397260274,66L160.45205479452056,66L160.8013698630137,66L161.15068493150685,63L161.5,63L162.54794520547946,63L162.8972602739726,63L163.24657534246575,63L163.59589041095893,63L163.94520547945206,63L164.99315068493152,63L165.34246575342465,63L165.6917808219178,63L166.04109589041096,66L166.3904109589041,66L167.43835616438358,66L167.7876712328767,66L168.13698630136986,66L168.486301369863,66L168.83561643835617,66L169.8835616438356,66L170.23287671232876,66L170.58219178082192,66L170.93150684931507,66L171.28082191780823,66L172.32876712328766,66L172.67808219178082,66L173.02739726027397,66L173.37671232876713,66L173.72602739726028,66L174.77397260273972,66L175.12328767123287,66L175.47260273972603,66L175.82191780821918,66L176.1712328767123,66L177.21917808219177,66L177.56849315068493,66L177.91780821917808,66L178.26712328767124,66L178.61643835616437,66L179.66438356164383,66L180.013698630137,66L180.36301369863014,66L180.7123287671233,72L181.06164383561642,72L182.1095890410959,72L182.45890410958904,72L182.8082191780822,72L183.15753424657532,72L183.5068493150685,72L184.55479452054794,72L184.9041095890411,72L185.25342465753425,72L185.60273972602738,72L185.95205479452056,72L187,72L187.34931506849315,72L187.6986301369863,72L188.04794520547944,72L188.39726027397262,72L189.44520547945206,72L189.7945205479452,72L190.14383561643834,72L190.49315068493152,72L190.84246575342468,72L191.8904109589041,72L192.23972602739727,72L192.5890410958904,72L192.93835616438358,72L193.2876712328767,72L194.33561643835617,72L194.68493150684932,72L195.03424657534245,72L195.38356164383563,72L195.73287671232876,72L196.78082191780823,72L197.13013698630135,72L197.4794520547945,72L197.8287671232877,72L198.17808219178082,72L199.22602739726028,72L199.5753424657534,72L199.9246575342466,72L200.27397260273972,72L200.62328767123287,72L201.67123287671234,72L202.02054794520546,72L202.36986301369865,72L202.71917808219177,72L203.06849315068493,72L204.11643835616437,72L204.46575342465752,72L204.8150684931507,72L205.16438356164383,72L205.513698630137,72L206.56164383561642,72L206.9109589041096,72L207.26027397260273,72L207.6095890410959,72L207.95890410958904,72L209.00684931506848,72L209.35616438356166,72L209.7054794520548,72L210.05479452054794,72L210.4041095890411,72L211.45205479452054,72L211.80136986301372,72L212.15068493150685,66L212.5,66L212.84931506849315,66L213.89726027397262,66L214.24657534246575,66L214.5958904109589,66L214.94520547945206,66L215.2945205479452,66L216.34246575342468,66L216.6917808219178,66L217.04109589041096,66L217.3904109589041,66L217.73972602739727,66L218.78767123287673,66L219.13698630136986,66L219.486301369863,66L219.83561643835617,66L220.18493150684932,66L221.23287671232876,66L221.58219178082192,66L221.93150684931507,66L222.28082191780823,60L222.63013698630138,60" fill="none" stroke="#af516c" stroke-linejoin="round" stroke-linecap="round" stroke-width="2"></path><path d="M21.773972602739725,72L22.123287671232877,72L23.17123287671233,72L23.52054794520548,72L23.86986301369863,72L24.21917808219178,72L24.56849315068493,72L25.616438356164384,72L25.965753424657535,72L26.315068493150683,72L26.664383561643838,72L27.013698630136986,72L28.061643835616437,72L28.41095890410959,72L28.76027397260274,72L29.109589041095887,72L29.458904109589042,72L30.506849315068493,72L30.85616438356164,72L31.205479452054796,72L31.554794520547944,72L31.9041095890411,72L32.95205479452054,72L33.301369863013704,72L33.65068493150685,72L34,72L34.34931506849315,72L35.397260273972606,72L35.74657534246575,72L36.0958904109589,72L36.44520547945205,72L36.794520547945204,72L37.842465753424655,72L38.1917808219178,72L38.54109589041096,72L38.89041095890411,72L39.23972602739726,72L40.28767123287671,72L40.636986301369866,72L40.986301369863014,72L41.33561643835616,72L41.68493150684932,72L42.73287671232877,72L43.082191780821915,72L43.43150684931507,72L43.78082191780822,72L44.13013698630137,72L45.178082191780824,72L45.52739726027397,72L45.87671232876713,72L46.226027397260275,72L46.57534246575342,72L47.62328767123288,72L47.97260273972603,72L48.321917808219176,72L48.67123287671233,72L49.02054794520548,72L50.06849315068493,72L50.417808219178085,72L50.76712328767123,72L51.11643835616438,72L51.465753424657535,72L52.513698630136986,72L52.863013698630134,72L53.21232876712329,72L53.56164383561644,72L53.91095890410959,72L54.95890410958904,72L55.30821917808219,72L55.657534246575345,72L56.00684931506849,72L56.35616438356164,72L57.4041095890411,72L57.75342465753425,72L58.102739726027394,72L58.45205479452055,72L58.8013698630137,72L59.84931506849315,72L60.1986301369863,72L60.54794520547945,72L60.897260273972606,72L61.24657534246575,72L62.294520547945204,72L62.64383561643836,72L62.99315068493151,72L63.342465753424655,72L63.6917808219178,72L64.73972602739725,72L65.08904109589042,72L65.43835616438356,72L65.78767123287672,72L66.13698630136986,72L67.18493150684931,72L67.53424657534246,72L67.8835616438356,72L68.23287671232876,72L68.58219178082193,72L69.63013698630137,72L69.97945205479452,72L70.32876712328768,72L70.67808219178082,72L71.02739726027397,72L72.07534246575344,72L72.42465753424658,72L72.77397260273973,72L73.12328767123287,72L73.47260273972603,72L74.52054794520548,72L74.86986301369862,72L75.21917808219177,72L75.56849315068494,72L75.91780821917808,72L76.96575342465754,72L77.31506849315069,72L77.66438356164383,72L78.01369863013699,72L78.36301369863013,72L79.41095890410959,72L79.76027397260275,72L80.10958904109589,72L80.45890410958904,72L80.8082191780822,66L81.85616438356163,66L82.2054794520548,66L82.55479452054794,66L82.9041095890411,66L83.25342465753425,57L84.30136986301369,57L84.65068493150685,57L85,57L85.34931506849314,57L85.69863013698631,57L86.74657534246576,57L87.0958904109589,57L87.44520547945206,57L87.7945205479452,57L88.14383561643835,57L89.19178082191782,57L89.54109589041096,57L89.89041095890411,57L90.23972602739727,57L90.58904109589041,57L91.63698630136986,57L91.98630136986301,57L92.33561643835615,57L92.68493150684932,57L93.03424657534246,57L94.08219178082192,60L94.43150684931507,60L94.78082191780821,60L95.13013698630137,60L95.47945205479452,60L96.52739726027397,60L96.87671232876713,60L97.22602739726028,60L97.57534246575342,60L97.92465753424658,60L98.97260273972603,60L99.32191780821917,60L99.67123287671234,60L100.02054794520548,60L100.36986301369863,60L101.41780821917808,60L101.76712328767123,60L102.11643835616438,60L102.46575342465754,60L102.81506849315069,60L103.86301369863014,60L104.2123287671233,60L104.56164383561644,60L104.91095890410959,60L105.26027397260273,60L106.3082191780822,60L106.65753424657535,60L107.0068493150685,60L107.35616438356165,60L107.70547945205479,60L108.75342465753424,60L109.1027397260274,60L109.45205479452054,60L109.8013698630137,60L110.15068493150686,60L111.1986301369863,60L111.54794520547945,60L111.8972602739726,60L112.24657534246575,60L112.5958904109589,60L113.64383561643837,60L113.9931506849315,60L114.34246575342466,60L114.6917808219178,60L115.04109589041096,84L116.08904109589041,84L116.43835616438355,84L116.78767123287672,84L117.13698630136987,84L117.48630136986301,84L118.53424657534246,84L118.88356164383562,84L119.23287671232876,84L119.58219178082192,84L119.93150684931506,84L120.97945205479452,84L121.32876712328768,84L121.67808219178082,84L122.02739726027397,84L122.37671232876713,84L123.42465753424656,84L123.77397260273973,84L124.12328767123289,84L124.47260273972603,84L124.82191780821918,84L125.86986301369863,87L126.21917808219177,87L126.56849315068493,87L126.91780821917807,87L127.26712328767124,81L128.31506849315068,81L128.66438356164386,81L129.013698630137,81L129.36301369863014,81L129.7123287671233,81L130.76027397260273,81L131.1095890410959,81L131.45890410958904,81L131.80821917808217,81L132.15753424657535,81L133.20547945205482,81L133.55479452054794,81L133.9041095890411,81L134.25342465753423,81L134.6027397260274,81L135.65068493150687,81L136,81L136.34931506849315,81L136.6986301369863,81L137.04794520547946,81L138.0958904109589,81L138.44520547945206,81L138.79452054794518,81L139.14383561643837,81L139.49315068493152,81L140.54109589041096,81L140.8904109589041,81L141.23972602739724,81L141.58904109589042,81L141.93835616438355,81L142.986301369863,81L143.33561643835617,81L143.68493150684932,81L144.03424657534248,81L144.3835616438356,81L145.43150684931507,81L145.7808219178082,81L146.13013698630138,81L146.47945205479454,81L146.82876712328766,84L147.87671232876713,84L148.22602739726025,84L148.57534246575344,84L148.92465753424656,90L149.27397260273972,90L150.32191780821918,90L150.6712328767123,90L151.0205479452055,90L151.36986301369862,90L151.71917808219177,90L152.7671232876712,90L153.1164383561644,90L153.46575342465755,90L153.81506849315068,90L154.16438356164383,90L155.21232876712327,90L155.56164383561645,90L155.91095890410958,90L156.26027397260273,90L156.60958904109592,90L157.65753424657532,78L158.0068493150685,78L158.35616438356163,78L158.7054794520548,78L159.05479452054794,66L160.1027397260274,66L160.45205479452056,66L160.8013698630137,66L161.15068493150685,78L161.5,78L162.54794520547946,78L162.8972602739726,78L163.24657534246575,78L163.59589041095893,78L163.94520547945206,78L164.99315068493152,78L165.34246575342465,78L165.6917808219178,78L166.04109589041096,90L166.3904109589041,90L167.43835616438358,90L167.7876712328767,90L168.13698630136986,90L168.486301369863,90L168.83561643835617,90L169.8835616438356,90L170.23287671232876,90L170.58219178082192,90L170.93150684931507,90L171.28082191780823,90L172.32876712328766,90L172.67808219178082,90L173.02739726027397,90L173.37671232876713,90L173.72602739726028,90L174.77397260273972,90L175.12328767123287,90L175.47260273972603,90L175.82191780821918,90L176.1712328767123,90L177.21917808219177,90L177.56849315068493,90L177.91780821917808,90L178.26712328767124,90L178.61643835616437,90L179.66438356164383,90L180.013698630137,90L180.36301369863014,90L180.7123287671233,90L181.06164383561642,90L182.1095890410959,90L182.45890410958904,90L182.8082191780822,90L183.15753424657532,90L183.5068493150685,90L184.55479452054794,90L184.9041095890411,90L185.25342465753425,90L185.60273972602738,90L185.95205479452056,90L187,90L187.34931506849315,90L187.6986301369863,90L188.04794520547944,90L188.39726027397262,90L189.44520547945206,90L189.7945205479452,90L190.14383561643834,90L190.49315068493152,90L190.84246575342468,90L191.8904109589041,88.8L192.23972602739727,88.8L192.5890410958904,91.8L192.93835616438358,91.8L193.2876712328767,91.8L194.33561643835617,91.8L194.68493150684932,91.8L195.03424657534245,91.8L195.38356164383563,91.8L195.73287671232876,91.8L196.78082191780823,91.8L197.13013698630135,91.8L197.4794520547945,91.8L197.8287671232877,91.8L198.17808219178082,91.8L199.22602739726028,91.8L199.5753424657534,91.8L199.9246575342466,91.8L200.27397260273972,91.8L200.62328767123287,91.8L201.67123287671234,91.8L202.02054794520546,91.8L202.36986301369865,91.8L202.71917808219177,91.8L203.06849315068493,91.8L204.11643835616437,91.8L204.46575342465752,91.8L204.8150684931507,91.8L205.16438356164383,91.8L205.513698630137,91.8L206.56164383561642,91.8L206.9109589041096,91.8L207.26027397260273,91.8L207.6095890410959,91.8L207.95890410958904,91.8L209.00684931506848,90L209.35616438356166,90L209.7054794520548,90L210.05479452054794,72L210.4041095890411,72L211.45205479452054,72L211.80136986301372,72L212.15068493150685,72L212.5,72L212.84931506849315,72L213.89726027397262,72L214.24657534246575,72L214.5958904109589,72L214.94520547945206,72L215.2945205479452,72L216.34246575342468,72L216.6917808219178,72L217.04109589041096,72L217.3904109589041,72L217.73972602739727,72L218.78767123287673,72L219.13698630136986,72L219.486301369863,72L219.83561643835617,72L220.18493150684932,72L221.23287671232876,72L221.58219178082192,72L221.93150684931507,72L222.28082191780823,72L222.63013698630138,72L223.67808219178082,72L224.02739726027397,72L224.3767123287671,72L224.72602739726028,72L225.0753424657534,78L226.12328767123287,78L226.47260273972603,78L226.82191780821918,78L227.17123287671234,78L227.52054794520546,78L228.56849315068493,78L228.91780821917808,78L229.26712328767124,78L229.6164383561644,78L229.96575342465752,78L231.013698630137,78L231.3630136986301,78L231.7123287671233,78L232.06164383561645,78L232.41095890410958,78L233.45890410958904,78L233.8082191780822,78L234.15753424657535,78L234.50684931506848,78L234.85616438356163,78" fill="none" stroke="#76acb8" stroke-linejoin="round" stroke-linecap="round" stroke-width="2"></path></g></g></svg>