<svg xmlns="http://www.w3.org/2000/svg" viewBox="0 0 304 270"><style>/* <![CDATA[ */.chart-title{font-size:20px;fill:#43423e}.chart-subtitle{font-size:15px;fill:#74736c}.chart-source{font-size:10px;fill-opacity:.4}.axis .domain{fill:none;stroke:#74736c}.tick line{fill:none;stroke:#000;stroke-opacity:.2}.tick text{fill-opacity:.6;font-size:12px}.y.axis .tick line{stroke-dasharray:1}.y.axis .domain{fill:none;stroke-opacity:0}.y.axis .highlight-line{fill:none;stroke:#74736c}/* ]]> */</style><text class="chart-title" y="22">Czech inflation forecast</text><text class="chart-subtitle" y="42">By date of forecast, annual % change</text><text class="chart-source" y="265">来源:彭博. 2018年5月4日</text><g transform="translate(1,100)"><g class="x axis" transform="translate(0,120)" fill="none" font-size="10" font-family="sans-serif" text-anchor="middle"><path class="domain" stroke="#000" d="M0.5,0V0.5H255.5V0"></path><g class="tick" opacity="1" transform="translate(0.5,0)"><line stroke="#000" y2="6"></line><text fill="#000" y="9" dy="0.71em">July</text></g><g class="tick" opacity="1" transform="translate(32.636986301369866,0)"><line stroke="#000" y2="6"></line><text fill="#000" y="9" dy="0.71em">October</text></g><g class="tick" opacity="1" transform="translate(64.77397260273973,0)"><line stroke="#000" y2="6"></line><text fill="#000" y="9" dy="0.71em">2017</text></g><g class="tick" opacity="1" transform="translate(96.2123287671233,0)"><line stroke="#000" y2="6"></line><text fill="#000" y="9" dy="0.71em">April</text></g><g class="tick" opacity="1" transform="translate(128,0)"><line stroke="#000" y2="6"></line><text fill="#000" y="9" dy="0.71em">July</text></g><g class="tick" opacity="1" transform="translate(160.13698630136986,0)"><line stroke="#000" y2="6"></line><text fill="#000" y="9" dy="0.71em">October</text></g><g class="tick" opacity="1" transform="translate(192.27397260273972,0)"><line stroke="#000" y2="6"></line><text fill="#000" y="9" dy="0.71em">2018</text></g><g class="tick" opacity="1" transform="translate(223.7123287671233,0)"><line stroke="#000" y2="6"></line><text fill="#000" y="9" dy="0.71em">April</text></g><g class="tick" opacity="1" transform="translate(255.5,0)"><line stroke="#000" y2="6"></line><text fill="#000" y="9" dy="0.71em">July</text></g></g><g class="y axis" transform="translate(255,0)" fill="none" font-size="10" font-family="sans-serif" text-anchor="start"><path class="domain" stroke="#000" d="M0,120.5H0.5V0.5H0"></path><g class="tick" opacity="1" transform="translate(0,120.5)"><line stroke="#000" x2="-255"></line><text fill="#000" x="3" dy="0.32em">1.0</text></g><g class="tick" opacity="1" transform="translate(0,90.5)"><line stroke="#000" x2="-255"></line><text fill="#000" x="3" dy="0.32em">1.5</text></g><g class="tick" opacity="1" transform="translate(0,60.5)"><line stroke="#000" x2="-255"></line><text fill="#000" x="3" dy="0.32em">2.0</text></g><g class="tick" opacity="1" transform="translate(0,30.5)"><line stroke="#000" x2="-255"></line><text fill="#000" x="3" dy="0.32em">2.5</text></g><g class="tick" opacity="1" transform="translate(0,0.5)"><line stroke="#000" x2="-255"></line><text fill="#000" x="3" dy="0.32em">3.0</text></g></g><g class="chart-key" transform="translate(0, -35)"><g class="key-element" transform="translate(0,0)"><text x="28" font-size="12">2017</text><line x1="0" x2="25" y1="-5" y2="-5" stroke-width="2" fill="none" stroke="#af516c"></line></g><g class="key-element" transform="translate(0,20)"><text x="28" font-size="12">2018</text><line x1="0" x2="25" y1="-5" y2="-5" stroke-width="2" fill="none" stroke="#76acb8"></line></g></g><g><path d="M21.773972602739725,72L22.123287671232877,72L23.17123287671233,72L23.52054794520548,72L23.86986301369863,72L24.21917808219178,72L24.56849315068493,72L25.616438356164384,72L25.965753424657535,72L26.315068493150683,72L26.664383561643838,72L27.013698630136986,72L28.061643835616437,72L28.41095890410959,72L28.76027397260274,72L29.109589041095887,72L29.458904109589042,72L30.506849315068493,72L30.85616438356164,72L31.205479452054796,72L31.554794520547944,72L31.9041095890411,72L32.95205479452054,72L33.301369863013704,72L33.65068493150685,72L34,72L34.34931506849315,72L35.397260273972606,72L35.74657534246575,72L36.0958904109589,72L36.44520547945205,72L36.794520547945204,72L37.842465753424655,72L38.1917808219178,72L38.54109589041096,72L38.89041095890411,72L39.23972602739726,72L40.28767123287671,72L40.636986301369866,72L40.986301369863014,72L41.33561643835616,72L41.68493150684932,72L42.73287671232877,72L43.082191780821915,72L43.43150684931507,72L43.78082191780822,72L44.13013698630137,72L45.178082191780824,72L45.52739726027397,72L45.87671232876713,72L46.226027397260275,72L46.57534246575342,72L47.62328767123288,72L47.97260273972603,72L48.321917808219176,72L48.67123287671233,72L49.02054794520548,72L50.06849315068493,72L50.417808219178085,72L50.76712328767123,72L51.11643835616438,72L51.465753424657535,72L52.513698630136986,72L52.863013698630134,72L53.21232876712329,72L53.56164383561644,72L53.91095890410959,72L54.95890410958904,72L55.30821917808219,72L55.657534246575345,72L56.00684931506849,72L56.35616438356164,72L57.4041095890411,72L57.75342465753425,72L58.102739726027394,72L58.45205479452055,72L58.8013698630137,72L59.84931506849315,72L60.1986301369863,72L60.54794520547945,72L60.897260273972606,72L61.24657534246575,72L62.294520547945204,72L62.64383561643836,72L62.99315068493151,72L63.342465753424655,72L63.6917808219178,72L64.73972602739725,72L65.08904109589042,72L65.43835616438356,72L65.78767123287672,72L66.13698630136986,72L67.18493150684931,72L67.53424657534246,72L67.8835616438356,72L68.23287671232876,72L68.58219178082193,72L69.63013698630137,72L69.97945205479452,72L70.32876712328768,72L70.67808219178082,72L71.02739726027397,72L72.07534246575344,72L72.42465753424658,72L72.77397260273973,72L73.12328767123287,72L73.47260273972603,66L74.52054794520548,66L74.86986301369862,66L75.21917808219177,66L75.56849315068494,66L75.91780821917808,66L76.96575342465754,66L77.31506849315069,66L77.66438356164383,66L78.01369863013699,66L78.36301369863013,66L79.41095890410959,66L79.76027397260275,66L80.10958904109589,66L80.45890410958904,66L80.8082191780822,66L81.85616438356163,66L82.2054794520548,66L82.55479452054794,66L82.9041095890411,66L83.25342465753425,60L84.30136986301369,60L84.65068493150685,60L85,60L85.34931506849314,60L85.69863013698631,60L86.74657534246576,60L87.0958904109589,60L87.44520547945206,60L87.7945205479452,60L88.14383561643835,60L89.19178082191782,60L89.54109589041096,60L89.89041095890411,60L90.23972602739727,60L90.58904109589041,60L91.63698630136986,60L91.98630136986301,60L92.33561643835615,60L92.68493150684932,60L93.03424657534246,60L94.08219178082192,60L94.43150684931507,60L94.78082191780821,54L95.13013698630137,54L95.47945205479452,54L96.52739726027397,54L96.87671232876713,54L97.22602739726028,54L97.57534246575342,54L97.92465753424658,54L98.97260273972603,47.999999999999986L99.32191780821917,47.999999999999986L99.67123287671234,47.999999999999986L100.02054794520548,47.999999999999986L100.36986301369863,47.999999999999986L101.41780821917808,47.999999999999986L101.76712328767123,47.999999999999986L102.11643835616438,47.999999999999986L102.46575342465754,47.999999999999986L102.81506849315069,47.999999999999986L103.86301369863014,47.999999999999986L104.2123287671233,47.999999999999986L104.56164383561644,47.999999999999986L104.91095890410959,47.999999999999986L105.26027397260273,47.999999999999986L106.3082191780822,47.999999999999986L106.65753424657535,47.999999999999986L107.0068493150685,47.999999999999986L107.35616438356165,47.999999999999986L107.70547945205479,47.999999999999986L108.75342465753424,47.999999999999986L109.1027397260274,47.999999999999986L109.45205479452054,47.999999999999986L109.8013698630137,47.999999999999986L110.15068493150686,47.999999999999986L111.1986301369863,47.999999999999986L111.54794520547945,47.999999999999986L111.8972602739726,47.999999999999986L112.24657534246575,47.999999999999986L112.5958904109589,47.999999999999986L113.64383561643837,47.999999999999986L113.9931506849315,47.999999999999986L114.34246575342466,47.999999999999986L114.6917808219178,47.999999999999986L115.04109589041096,42.000000000000014L116.08904109589041,42.000000000000014L116.43835616438355,42.000000000000014L116.78767123287672,42.000000000000014L117.13698630136987,42.000000000000014L117.48630136986301,42.000000000000014L118.53424657534246,42.000000000000014L118.88356164383562,42.000000000000014L119.23287671232876,42.000000000000014L119.58219178082192,42.000000000000014L119.93150684931506,42.000000000000014L120.97945205479452,42.000000000000014L121.32876712328768,42.000000000000014L121.67808219178082,42.000000000000014L122.02739726027397,42.000000000000014L122.37671232876713,42.000000000000014L123.42465753424656,42.000000000000014L123.77397260273973,42.000000000000014L124.12328767123289,42.000000000000014L124.47260273972603,42.000000000000014L124.82191780821918,42.000000000000014L125.86986301369863,42.000000000000014L126.21917808219177,42.000000000000014L126.56849315068493,42.000000000000014L126.91780821917807,42.000000000000014L127.26712328767124,42.000000000000014L128.31506849315068,42.000000000000014L128.66438356164386,42.000000000000014L129.013698630137,42.000000000000014L129.36301369863014,42.000000000000014L129.7123287671233,42.000000000000014L130.76027397260273,42.000000000000014L131.1095890410959,42.000000000000014L131.45890410958904,42.000000000000014L131.80821917808217,42.000000000000014L132.15753424657535,42.000000000000014L133.20547945205482,42.000000000000014L133.55479452054794,42.000000000000014L133.9041095890411,42.000000000000014L134.25342465753423,42.000000000000014L134.6027397260274,42.000000000000014L135.65068493150687,42.000000000000014L136,42.000000000000014L136.34931506849315,42.000000000000014L136.6986301369863,42.000000000000014L137.04794520547946,42.000000000000014L138.0958904109589,42.000000000000014L138.44520547945206,42.000000000000014L138.79452054794518,42.000000000000014L139.14383561643837,42.000000000000014L139.49315068493152,42.000000000000014L140.54109589041096,42.000000000000014L140.8904109589041,42.000000000000014L141.23972602739724,42.000000000000014L141.58904109589042,42.000000000000014L141.93835616438355,42.000000000000014L142.986301369863,42.000000000000014L143.33561643835617,42.000000000000014L143.68493150684932,42.000000000000014L144.03424657534248,42.000000000000014L144.3835616438356,42.000000000000014L145.43150684931507,42.000000000000014L145.7808219178082,42.000000000000014L146.13013698630138,42.000000000000014L146.47945205479454,42.000000000000014L146.82876712328766,42.000000000000014L147.87671232876713,42.000000000000014L148.22602739726025,42.000000000000014L148.57534246575344,42.000000000000014L148.92465753424656,42.000000000000014L149.27397260273972,42.000000000000014L150.32191780821918,42.000000000000014L150.6712328767123,42.000000000000014L151.0205479452055,42.000000000000014L151.36986301369862,42.000000000000014L151.71917808219177,36L152.7671232876712,36L153.1164383561644,36L153.46575342465755,36L153.81506849315068,36L154.16438356164383,36L155.21232876712327,36L155.56164383561645,36L155.91095890410958,36L156.26027397260273,36L156.60958904109592,36L157.65753424657532,36L158.0068493150685,36L158.35616438356163,36L158.7054794520548,36L159.05479452054794,36L160.1027397260274,36L160.45205479452056,36L160.8013698630137,36L161.15068493150685,36L161.5,36L162.54794520547946,36L162.8972602739726,36L163.24657534246575,36L163.59589041095893,36L163.94520547945206,36L164.99315068493152,36L165.34246575342465,36L165.6917808219178,36L166.04109589041096,36L166.3904109589041,36L167.43835616438358,36L167.7876712328767,36L168.13698630136986,36L168.486301369863,36L168.83561643835617,36L169.8835616438356,36L170.23287671232876,36L170.58219178082192,36L170.93150684931507,36L171.28082191780823,36L172.32876712328766,36L172.67808219178082,36L173.02739726027397,36L173.37671232876713,36L173.72602739726028,36L174.77397260273972,36L175.12328767123287,36L175.47260273972603,36L175.82191780821918,36L176.1712328767123,36L177.21917808219177,36L177.56849315068493,36L177.91780821917808,36L178.26712328767124,36L178.61643835616437,36L179.66438356164383,36L180.013698630137,36L180.36301369863014,36L180.7123287671233,36L181.06164383561642,36L182.1095890410959,36L182.45890410958904,36L182.8082191780822,36L183.15753424657532,36L183.5068493150685,36L184.55479452054794,36L184.9041095890411,36L185.25342465753425,36L185.60273972602738,36L185.95205479452056,36L187,36L187.34931506849315,36L187.6986301369863,36L188.04794520547944,36L188.39726027397262,36L189.44520547945206,36L189.7945205479452,36L190.14383561643834,36L190.49315068493152,36L190.84246575342468,36L191.8904109589041,36L192.23972602739727,36L192.5890410958904,32.999999999999986L192.93835616438358,32.999999999999986L193.2876712328767,32.999999999999986L194.33561643835617,32.999999999999986L194.68493150684932,32.999999999999986L195.03424657534245,32.999999999999986L195.38356164383563,32.999999999999986L195.73287671232876,32.999999999999986L196.78082191780823,32.999999999999986L197.13013698630135,32.999999999999986L197.4794520547945,32.999999999999986L197.8287671232877,32.999999999999986L198.17808219178082,30L199.22602739726028,30L199.5753424657534,30L199.9246575342466,30L200.27397260273972,30L200.62328767123287,30L201.67123287671234,30L202.02054794520546,30L202.36986301369865,30L202.71917808219177,30L203.06849315068493,30L204.11643835616437,30L204.46575342465752,30L204.8150684931507,30L205.16438356164383,30L205.513698630137,30L206.56164383561642,30L206.9109589041096,30L207.26027397260273,30L207.6095890410959,30L207.95890410958904,30L209.00684931506848,30L209.35616438356166,30L209.7054794520548,30L210.05479452054794,30L210.4041095890411,30L211.45205479452054,30L211.80136986301372,30L212.15068493150685,30L212.5,30L212.84931506849315,30L213.89726027397262,30L214.24657534246575,30L214.5958904109589,30L214.94520547945206,30L215.2945205479452,30L216.34246575342468,30L216.6917808219178,30L217.04109589041096,30L217.3904109589041,30L217.73972602739727,30L218.78767123287673,30L219.13698630136986,30L219.486301369863,30L219.83561643835617,30L220.18493150684932,30L221.23287671232876,30L221.58219178082192,30L221.93150684931507,30L222.28082191780823,30L222.63013698630138,30" fill="none" stroke="#af516c" stroke-linejoin="round" stroke-linecap="round" stroke-width="2"></path><path d="M21.773972602739725,60L22.123287671232877,60L23.17123287671233,60L23.52054794520548,60L23.86986301369863,60L24.21917808219178,60L24.56849315068493,60L25.616438356164384,60L25.965753424657535,60L26.315068493150683,60L26.664383561643838,60L27.013698630136986,60L28.061643835616437,60L28.41095890410959,60L28.76027397260274,60L29.109589041095887,60L29.458904109589042,60L30.506849315068493,60L30.85616438356164,60L31.205479452054796,60L31.554794520547944,60L31.9041095890411,60L32.95205479452054,60L33.301369863013704,60L33.65068493150685,60L34,60L34.34931506849315,60L35.397260273972606,60L35.74657534246575,60L36.0958904109589,60L36.44520547945205,60L36.794520547945204,60L37.842465753424655,60L38.1917808219178,60L38.54109589041096,60L38.89041095890411,60L39.23972602739726,60L40.28767123287671,60L40.636986301369866,60L40.986301369863014,60L41.33561643835616,60L41.68493150684932,60L42.73287671232877,60L43.082191780821915,60L43.43150684931507,60L43.78082191780822,60L44.13013698630137,60L45.178082191780824,60L45.52739726027397,60L45.87671232876713,60L46.226027397260275,60L46.57534246575342,60L47.62328767123288,60L47.97260273972603,60L48.321917808219176,60L48.67123287671233,60L49.02054794520548,60L50.06849315068493,60L50.417808219178085,60L50.76712328767123,60L51.11643835616438,60L51.465753424657535,60L52.513698630136986,60L52.863013698630134,60L53.21232876712329,60L53.56164383561644,60L53.91095890410959,60L54.95890410958904,60L55.30821917808219,60L55.657534246575345,60L56.00684931506849,60L56.35616438356164,60L57.4041095890411,60L57.75342465753425,60L58.102739726027394,60L58.45205479452055,60L58.8013698630137,60L59.84931506849315,60L60.1986301369863,60L60.54794520547945,60L60.897260273972606,60L61.24657534246575,60L62.294520547945204,60L62.64383561643836,60L62.99315068493151,60L63.342465753424655,60L63.6917808219178,60L64.73972602739725,60L65.08904109589042,60L65.43835616438356,60L65.78767123287672,60L66.13698630136986,60L67.18493150684931,60L67.53424657534246,60L67.8835616438356,60L68.23287671232876,60L68.58219178082193,60L69.63013698630137,60L69.97945205479452,60L70.32876712328768,60L70.67808219178082,60L71.02739726027397,60L72.07534246575344,60L72.42465753424658,60L72.77397260273973,60L73.12328767123287,60L73.47260273972603,60L74.52054794520548,60L74.86986301369862,60L75.21917808219177,60L75.56849315068494,60L75.91780821917808,60L76.96575342465754,60L77.31506849315069,60L77.66438356164383,60L78.01369863013699,60L78.36301369863013,60L79.41095890410959,60L79.76027397260275,60L80.10958904109589,60L80.45890410958904,60L80.8082191780822,60L81.85616438356163,60L82.2054794520548,60L82.55479452054794,60L82.9041095890411,60L83.25342465753425,60L84.30136986301369,60L84.65068493150685,60L85,60L85.34931506849314,60L85.69863013698631,60L86.74657534246576,60L87.0958904109589,60L87.44520547945206,60L87.7945205479452,60L88.14383561643835,60L89.19178082191782,60L89.54109589041096,60L89.89041095890411,60L90.23972602739727,60L90.58904109589041,60L91.63698630136986,60L91.98630136986301,60L92.33561643835615,60L92.68493150684932,60L93.03424657534246,60L94.08219178082192,60L94.43150684931507,60L94.78082191780821,60L95.13013698630137,60L95.47945205479452,60L96.52739726027397,60L96.87671232876713,60L97.22602739726028,60L97.57534246575342,60L97.92465753424658,60L98.97260273972603,60L99.32191780821917,60L99.67123287671234,60L100.02054794520548,60L100.36986301369863,60L101.41780821917808,60L101.76712328767123,60L102.11643835616438,60L102.46575342465754,60L102.81506849315069,60L103.86301369863014,60L104.2123287671233,60L104.56164383561644,60L104.91095890410959,60L105.26027397260273,60L106.3082191780822,60L106.65753424657535,60L107.0068493150685,60L107.35616438356165,60L107.70547945205479,60L108.75342465753424,60L109.1027397260274,60L109.45205479452054,60L109.8013698630137,60L110.15068493150686,60L111.1986301369863,60L111.54794520547945,60L111.8972602739726,60L112.24657534246575,60L112.5958904109589,60L113.64383561643837,60L113.9931506849315,60L114.34246575342466,60L114.6917808219178,60L115.04109589041096,54L116.08904109589041,54L116.43835616438355,54L116.78767123287672,54L117.13698630136987,54L117.48630136986301,54L118.53424657534246,54L118.88356164383562,54L119.23287671232876,54L119.58219178082192,54L119.93150684931506,54L120.97945205479452,54L121.32876712328768,54L121.67808219178082,54L122.02739726027397,54L122.37671232876713,54L123.42465753424656,54L123.77397260273973,54L124.12328767123289,54L124.47260273972603,54L124.82191780821918,54L125.86986301369863,54L126.21917808219177,54L126.56849315068493,54L126.91780821917807,54L127.26712328767124,54L128.31506849315068,54L128.66438356164386,54L129.013698630137,54L129.36301369863014,54L129.7123287671233,54L130.76027397260273,54L131.1095890410959,54L131.45890410958904,54L131.80821917808217,54L132.15753424657535,54L133.20547945205482,54L133.55479452054794,54L133.9041095890411,54L134.25342465753423,54L134.6027397260274,54L135.65068493150687,54L136,54L136.34931506849315,54L136.6986301369863,54L137.04794520547946,54L138.0958904109589,54L138.44520547945206,54L138.79452054794518,54L139.14383561643837,54L139.49315068493152,54L140.54109589041096,54L140.8904109589041,54L141.23972602739724,54L141.58904109589042,54L141.93835616438355,54L142.986301369863,54L143.33561643835617,54L143.68493150684932,54L144.03424657534248,54L144.3835616438356,54L145.43150684931507,54L145.7808219178082,54L146.13013698630138,54L146.47945205479454,54L146.82876712328766,54L147.87671232876713,54L148.22602739726025,54L148.57534246575344,54L148.92465753424656,54L149.27397260273972,54L150.32191780821918,54L150.6712328767123,54L151.0205479452055,54L151.36986301369862,54L151.71917808219177,54L152.7671232876712,54L153.1164383561644,54L153.46575342465755,54L153.81506849315068,54L154.16438356164383,54L155.21232876712327,54L155.56164383561645,54L155.91095890410958,54L156.26027397260273,54L156.60958904109592,54L157.65753424657532,54L158.0068493150685,54L158.35616438356163,54L158.7054794520548,54L159.05479452054794,54L160.1027397260274,54L160.45205479452056,54L160.8013698630137,54L161.15068493150685,54L161.5,54L162.54794520547946,54L162.8972602739726,54L163.24657534246575,54L163.59589041095893,54L163.94520547945206,54L164.99315068493152,54L165.34246575342465,54L165.6917808219178,54L166.04109589041096,54L166.3904109589041,54L167.43835616438358,54L167.7876712328767,54L168.13698630136986,54L168.486301369863,54L168.83561643835617,54L169.8835616438356,54L170.23287671232876,54L170.58219178082192,54L170.93150684931507,54L171.28082191780823,54L172.32876712328766,54L172.67808219178082,54L173.02739726027397,54L173.37671232876713,54L173.72602739726028,54L174.77397260273972,54L175.12328767123287,54L175.47260273972603,54L175.82191780821918,54L176.1712328767123,54L177.21917808219177,54L177.56849315068493,54L177.91780821917808,54L178.26712328767124,54L178.61643835616437,54L179.66438356164383,47.999999999999986L180.013698630137,47.999999999999986L180.36301369863014,47.999999999999986L180.7123287671233,47.999999999999986L181.06164383561642,47.999999999999986L182.1095890410959,47.999999999999986L182.45890410958904,47.999999999999986L182.8082191780822,47.999999999999986L183.15753424657532,47.999999999999986L183.5068493150685,47.999999999999986L184.55479452054794,47.999999999999986L184.9041095890411,47.999999999999986L185.25342465753425,47.999999999999986L185.60273972602738,47.999999999999986L185.95205479452056,47.999999999999986L187,47.999999999999986L187.34931506849315,47.999999999999986L187.6986301369863,47.999999999999986L188.04794520547944,47.999999999999986L188.39726027397262,47.999999999999986L189.44520547945206,47.999999999999986L189.7945205479452,47.999999999999986L190.14383561643834,47.999999999999986L190.49315068493152,47.999999999999986L190.84246575342468,47.999999999999986L191.8904109589041,45L192.23972602739727,45L192.5890410958904,42.000000000000014L192.93835616438358,42.000000000000014L193.2876712328767,42.000000000000014L194.33561643835617,42.000000000000014L194.68493150684932,42.000000000000014L195.03424657534245,42.000000000000014L195.38356164383563,42.000000000000014L195.73287671232876,42.000000000000014L196.78082191780823,42.000000000000014L197.13013698630135,42.000000000000014L197.4794520547945,42.000000000000014L197.8287671232877,42.000000000000014L198.17808219178082,42.000000000000014L199.22602739726028,42.000000000000014L199.5753424657534,42.000000000000014L199.9246575342466,42.000000000000014L200.27397260273972,42.000000000000014L200.62328767123287,42.000000000000014L201.67123287671234,42.000000000000014L202.02054794520546,42.000000000000014L202.36986301369865,42.000000000000014L202.71917808219177,42.000000000000014L203.06849315068493,42.000000000000014L204.11643835616437,42.000000000000014L204.46575342465752,42.000000000000014L204.8150684931507,42.000000000000014L205.16438356164383,42.000000000000014L205.513698630137,42.000000000000014L206.56164383561642,42.000000000000014L206.9109589041096,42.000000000000014L207.26027397260273,42.000000000000014L207.6095890410959,42.000000000000014L207.95890410958904,45L209.00684931506848,45L209.35616438356166,45L209.7054794520548,45L210.05479452054794,47.999999999999986L210.4041095890411,47.999999999999986L211.45205479452054,47.999999999999986L211.80136986301372,47.999999999999986L212.15068493150685,47.999999999999986L212.5,47.999999999999986L212.84931506849315,47.999999999999986L213.89726027397262,47.999999999999986L214.24657534246575,47.999999999999986L214.5958904109589,47.999999999999986L214.94520547945206,47.999999999999986L215.2945205479452,47.999999999999986L216.34246575342468,47.999999999999986L216.6917808219178,47.999999999999986L217.04109589041096,47.999999999999986L217.3904109589041,47.999999999999986L217.73972602739727,47.999999999999986L218.78767123287673,47.999999999999986L219.13698630136986,47.999999999999986L219.486301369863,47.999999999999986L219.83561643835617,47.999999999999986L220.18493150684932,47.999999999999986L221.23287671232876,47.999999999999986L221.58219178082192,47.999999999999986L221.93150684931507,47.999999999999986L222.28082191780823,47.999999999999986L222.63013698630138,47.999999999999986L223.67808219178082,47.999999999999986L224.02739726027397,47.999999999999986L224.3767123287671,47.999999999999986L224.72602739726028,47.999999999999986L225.0753424657534,47.999999999999986L226.12328767123287,47.999999999999986L226.47260273972603,47.999999999999986L226.82191780821918,47.999999999999986L227.17123287671234,47.999999999999986L227.52054794520546,47.999999999999986L228.56849315068493,47.999999999999986L228.91780821917808,47.999999999999986L229.26712328767124,47.999999999999986L229.6164383561644,47.999999999999986L229.96575342465752,47.999999999999986L231.013698630137,47.999999999999986L231.3630136986301,47.999999999999986L231.7123287671233,47.999999999999986L232.06164383561645,47.999999999999986L232.41095890410958,47.999999999999986L233.45890410958904,47.999999999999986L233.8082191780822,47.999999999999986L234.15753424657535,47.999999999999986L234.50684931506848,47.999999999999986L234.85616438356163,47.999999999999986" fill="none" stroke="#76acb8" stroke-linejoin="round" stroke-linecap="round" stroke-width="2"></path></g></g></svg>