<svg xmlns="http://www.w3.org/2000/svg" viewBox="0 0 304 270"><style>/* <![CDATA[ */.chart-title{font-size:20px;fill:#43423e}.chart-subtitle{font-size:15px;fill:#74736c}.chart-source{font-size:10px;fill-opacity:.4}.axis .domain{fill:none;stroke:#74736c}.tick line{fill:none;stroke:#000;stroke-opacity:.2}.tick text{fill-opacity:.6;font-size:12px}.y.axis .tick line{stroke-dasharray:1}.y.axis .domain{fill:none;stroke-opacity:0}.y.axis .highlight-line{fill:none;stroke:#74736c}/* ]]> */</style><text class="chart-title" y="22">日本盈馀增长</text><text class="chart-subtitle" y="42">年同比变化</text><text class="chart-source" y="265">来源:CEIC. 2018年4月6日</text><g transform="translate(1,100)"><g class="x axis" transform="translate(0,120)" fill="none" font-size="10" font-family="sans-serif" text-anchor="middle"><path class="domain" stroke="#000" d="M0.5,0V0.5H255.5V0"></path><g class="tick" opacity="1" transform="translate(18.703598670056717,0)"><line stroke="#000" y2="6"></line><text fill="#000" y="9" dy="0.71em">2006</text></g><g class="tick" opacity="1" transform="translate(55.110796010170155,0)"><line stroke="#000" y2="6"></line><text fill="#000" y="9" dy="0.71em">2008</text></g><g class="tick" opacity="1" transform="translate(91.56786622335224,0)"><line stroke="#000" y2="6"></line><text fill="#000" y="9" dy="0.71em">2010</text></g><g class="tick" opacity="1" transform="translate(127.97506356346567,0)"><line stroke="#000" y2="6"></line><text fill="#000" y="9" dy="0.71em">2012</text></g><g class="tick" opacity="1" transform="translate(164.43213377664776,0)"><line stroke="#000" y2="6"></line><text fill="#000" y="9" dy="0.71em">2014</text></g><g class="tick" opacity="1" transform="translate(200.8393311167612,0)"><line stroke="#000" y2="6"></line><text fill="#000" y="9" dy="0.71em">2016</text></g><g class="tick" opacity="1" transform="translate(237.29640132994328,0)"><line stroke="#000" y2="6"></line><text fill="#000" y="9" dy="0.71em">2018</text></g></g><g class="y axis" transform="translate(255,0)" fill="none" font-size="10" font-family="sans-serif" text-anchor="start"><path class="domain" stroke="#000" d="M0,120.5H0.5V0.5H0"></path><g class="tick" opacity="1" transform="translate(0,120.5)"><line stroke="#000" x2="-255"></line><text fill="#000" x="3" dy="0.32em">-8</text></g><g class="tick" opacity="1" transform="translate(0,96.5)"><line stroke="#000" x2="-255"></line><text fill="#000" x="3" dy="0.32em">-6</text></g><g class="tick" opacity="1" transform="translate(0,72.5)"><line stroke="#000" x2="-255"></line><text fill="#000" x="3" dy="0.32em">-4</text></g><g class="tick" opacity="1" transform="translate(0,48.5)"><line stroke="#000" x2="-255"></line><text fill="#000" x="3" dy="0.32em">-2</text></g><g class="tick" opacity="1" transform="translate(0,24.5)"><line stroke="#000" x2="-255"></line><text fill="#000" x="3" dy="0.32em">0</text></g><g class="tick" opacity="1" transform="translate(0,0.5)"><line stroke="#000" x2="-255"></line><text fill="#000" x="3" dy="0.32em">2</text></g><line class="highlight-line" x1="0" y1="24" x2="-255" y2="24"></line></g><g><path d="M1.5626833561509876,22.80000000000001L2.959123802073147,28.799999999999997L4.505182867201252,16.799999999999997L6.001369059260709,16.799999999999997L7.547428124388813,6L9.043614316448268,8.399999999999991L10.589673381576374,37.19999999999999L12.135732446704479,14.399999999999991L13.631918638763935,16.799999999999997L15.17797770389204,22.80000000000001L16.674163895951498,4.800000000000011L18.220222961079603,25.19999999999999L19.76628202620771,19.19999999999999L21.162722472129865,19.19999999999999L22.70878153725797,19.19999999999999L24.204967729317424,18L25.75102679444553,12L27.247212986504987,19.19999999999999L28.793272051633092,26.39999999999999L30.339331116761198,22.80000000000001L31.835517308820652,24L33.381576373948754,21.60000000000001L34.877762566008215,25.19999999999999L36.42382163113632,38.400000000000006L37.969880696264426,36L39.36632114218658,26.39999999999999L40.91238020731468,28.799999999999997L42.408566399374145,30L43.95462546450225,38.400000000000006L45.450811656561704,48L46.99687072168981,21.60000000000001L48.542929786817915,36L50.039115978877376,31.200000000000003L51.58517504400548,30L53.081361236064936,51.599999999999994L54.62742030119304,12L56.173479366321146,15.600000000000009L57.61979268531195,13.200000000000003L59.165851750440055,22.80000000000001L60.66203794249951,21.60000000000001L62.208097007627615,26.39999999999999L63.704283199687076,27.599999999999994L65.25034226481517,31.200000000000003L66.79640132994328,30L68.29258752200275,30L69.83864658713084,39.599999999999994L71.3348327791903,42L72.88089184431841,56.4L74.4269509094465,52.80000000000001L75.82339135536867,70.80000000000001L77.36945042049676,56.4L78.86563661255623,54L80.41169567768434,109.19999999999999L81.90788186974379,92.4L83.4539409348719,56.4L85,48L86.49618619205947,49.19999999999999L88.04224525718756,55.19999999999999L89.53843144924701,96L91.08449051437512,28.799999999999997L92.63054957950322,34.80000000000001L94.02699002542539,14.399999999999991L95.57304909055348,6L97.06923528261295,24L98.61529434774106,2.3999999999999915L100.1114805398005,8.399999999999991L101.65753960492862,21.60000000000001L103.2035986700567,13.200000000000003L104.69978486211618,18L106.24584392724428,22.80000000000001L107.74203011930373,24L109.28808918443184,21.60000000000001L110.83414824955995,22.80000000000001L112.2305886954821,26.39999999999999L113.7766477606102,43.2L115.27283395266967,13.200000000000003L116.81889301779776,33.60000000000001L118.31507920985722,27.599999999999994L119.86113827498534,30L121.40719734011343,30L122.9033835321729,25.19999999999999L124.449442597301,26.39999999999999L125.94562878936046,24L127.49168785448856,38.400000000000006L129.03774691961667,22.80000000000001L130.48406023860747,14.399999999999991L132.03011930373557,22.80000000000001L133.52630549579501,38.400000000000006L135.07236456092315,31.200000000000003L136.5685507529826,44.400000000000006L138.11460981811072,26.39999999999999L139.6606688832388,32.400000000000006L141.15685507529824,31.200000000000003L142.70291414042637,37.19999999999999L144.1991003324858,49.19999999999999L145.74515939761395,26.39999999999999L147.29121846274202,38.400000000000006L148.6876589086642,39.599999999999994L150.2337179737923,27.599999999999994L151.72990416585176,30L153.27596323097984,21.60000000000001L154.7721494230393,28.799999999999997L156.31820848816741,39.599999999999994L157.86426755329552,31.200000000000003L159.360453745355,31.200000000000003L160.90651281048306,21.60000000000001L162.40269900254253,21.60000000000001L163.94875806767064,31.200000000000003L165.49481713279874,30L166.8912575787209,20.39999999999999L168.43731664384902,19.19999999999999L169.93350283590848,21.60000000000001L171.4795619010366,16.799999999999997L172.97574809309603,1.2000000000000028L174.52180715822414,16.799999999999997L176.06786622335224,19.19999999999999L177.56405241541168,25.19999999999999L179.1101114805398,26.39999999999999L180.60629767259925,13.200000000000003L182.1523567377274,16.799999999999997L183.69841580285546,22.80000000000001L185.09485624877763,24L186.6409153139057,15.600000000000009L188.13710150596518,15.600000000000009L189.68316057109328,54L191.17934676315275,13.200000000000003L192.72540582828086,19.19999999999999L194.27146489340896,19.19999999999999L195.7676510854684,15.600000000000009L197.3137101505965,24L198.80989634265597,24L200.35595540778408,24L201.90201447291219,15.600000000000009L203.348327791903,6L204.89438685703112,24L206.39057304909056,25.19999999999999L207.93663211421864,7.199999999999989L209.4328183062781,9.600000000000009L210.9788773714062,24L212.52493643653432,24L214.0211226285938,22.80000000000001L215.56718169372186,18L217.06336788578133,18L218.60942695090944,20.39999999999999L220.15548601603754,19.19999999999999L221.5519264619597,24L223.09798552708781,18L224.59417171914728,16.799999999999997L226.1402307842754,19.19999999999999L227.63641697633486,31.200000000000003L229.18247604146293,15.600000000000009L230.72853510659104,13.200000000000003L232.2247212986505,21.60000000000001L233.7707803637786,13.200000000000003L235.26696655583805,13.200000000000003L236.8130256209662,9.600000000000009L238.35908468609426,8.399999999999991" fill="none" stroke="#af516c" stroke-linejoin="round" stroke-linecap="round" stroke-width="2"></path></g></g></svg>