<svg xmlns="http://www.w3.org/2000/svg" viewBox="0 0 304 270"><style>/* <![CDATA[ */.chart-title{font-size:20px;fill:#43423e}.chart-subtitle{font-size:15px;fill:#74736c}.chart-source{font-size:10px;fill-opacity:.4}.axis .domain{fill:none;stroke:#74736c}.tick line{fill:none;stroke:#000;stroke-opacity:.2}.tick text{fill-opacity:.6;font-size:12px}.y.axis .tick line{stroke-dasharray:1}.y.axis .domain{fill:none;stroke-opacity:0}.y.axis .highlight-line{fill:none;stroke:#74736c}/* ]]> */</style><text class="chart-title" y="22">美国联邦基金目标利率</text><text class="chart-subtitle" y="42">％</text><text class="chart-source" y="265">来源:彭博. 2018年5月4日</text><g transform="translate(1,100)"><g class="x axis" transform="translate(0,120)" fill="none" font-size="10" font-family="sans-serif" text-anchor="middle"><path class="domain" stroke="#000" d="M0.5,0V0.5H255.5V0"></path><g class="tick" opacity="1" transform="translate(18.703598670056717,0)"><line stroke="#000" y2="6"></line><text fill="#000" y="9" dy="0.71em">2006</text></g><g class="tick" opacity="1" transform="translate(55.110796010170155,0)"><line stroke="#000" y2="6"></line><text fill="#000" y="9" dy="0.71em">2008</text></g><g class="tick" opacity="1" transform="translate(91.56786622335224,0)"><line stroke="#000" y2="6"></line><text fill="#000" y="9" dy="0.71em">2010</text></g><g class="tick" opacity="1" transform="translate(127.97506356346567,0)"><line stroke="#000" y2="6"></line><text fill="#000" y="9" dy="0.71em">2012</text></g><g class="tick" opacity="1" transform="translate(164.43213377664776,0)"><line stroke="#000" y2="6"></line><text fill="#000" y="9" dy="0.71em">2014</text></g><g class="tick" opacity="1" transform="translate(200.8393311167612,0)"><line stroke="#000" y2="6"></line><text fill="#000" y="9" dy="0.71em">2016</text></g><g class="tick" opacity="1" transform="translate(237.29640132994328,0)"><line stroke="#000" y2="6"></line><text fill="#000" y="9" dy="0.71em">2018</text></g></g><g class="y axis" transform="translate(255,0)" fill="none" font-size="10" font-family="sans-serif" text-anchor="start"><path class="domain" stroke="#000" d="M0,120.5H0.5V0.5H0"></path><g class="tick" opacity="1" transform="translate(0,120.5)"><line stroke="#000" x2="-255"></line><text fill="#000" x="3" dy="0.32em">0</text></g><g class="tick" opacity="1" transform="translate(0,80.5)"><line stroke="#000" x2="-255"></line><text fill="#000" x="3" dy="0.32em">2</text></g><g class="tick" opacity="1" transform="translate(0,40.5)"><line stroke="#000" x2="-255"></line><text fill="#000" x="3" dy="0.32em">4</text></g><g class="tick" opacity="1" transform="translate(0,0.5)"><line stroke="#000" x2="-255"></line><text fill="#000" x="3" dy="0.32em">6</text></g><line class="highlight-line" x1="0" y1="120" x2="-255" y2="120"></line></g><g><path d="M0.11637003716017993,75L0.16624291022882848,75L0.21611578329747702,75L0.26598865636612556,75L0.3158615294347741,75L0.46548014864071974,75L0.5153530217093684,75L0.5652258947780168,75L0.6150987678466653,75L0.6649716409153139,75L0.8644631331899081,75L0.9143360062585567,75L0.9642088793272051,75L1.0140817523958536,75L1.1637003716017993,75L1.213573244670448,75L1.2634461177390963,75L1.313318990807745,75L1.3631918638763936,75L1.512810483082339,75L1.5626833561509876,75L1.612556229219636,70L1.6624291022882849,70L1.7123019753569333,70L1.861920594562879,70L1.9117934676315276,70L1.961666340700176,70L2.0115392137688244,70L2.0614120868374735,70L2.211030706043419,70L2.260903579112067,70L2.3107764521807157,70L2.3606493252493643,70L2.410522198318013,70L2.560140817523959,70L2.6100136905926075,70L2.6598865636612556,70L2.7097594367299043,70L2.759632309798553,70L2.9092509290044983,70L2.959123802073147,70L3.008996675141795,70L3.0588695482104438,70L3.108742421279093,70L3.2583610404850383,70L3.308233913553687,70L3.358106786622335,70L3.4079796596909837,70L3.4578525327596323,70L3.607471151965578,70L3.657344025034227,70L3.707216898102875,70L3.7570897711715237,70L3.8069626442401723,70L3.9565812634461177,70L4.006454136514766,65L4.0563270095834145,65L4.106199882652064,65L4.156072755720712,65L4.305691374926657,65L4.355564247995305,65L4.4054371210639545,65L4.4553099941326035,65L4.505182867201252,65L4.654801486407197,65L4.704674359475845,65L4.754547232544494,65L4.804420105613143,65L4.854292978681792,65L5.003911597887737,65L5.053784470956385,65L5.103657344025034,65L5.1535302170936825,65L5.203403090162332,65L5.353021709368276,65L5.402894582436925,65L5.452767455505574,65L5.5026403285742225,65L5.5525132016428715,65L5.702131820848816,65L5.752004693917465,65L5.801877566986113,65L5.851750440054762,65L5.901623313123411,65L6.051241932329356,65L6.101114805398005,60L6.150987678466653,60L6.200860551535302,60L6.2507334246039505,60L6.400352043809896,60L6.450224916878544,60L6.500097789947193,60L6.549970663015842,60L6.5998435360844905,60L6.749462155290437,60L6.799335028359084,60L6.849207901427733,60L6.899080774496381,60L6.94895364756503,60L7.098572266770977,60L7.148445139839624,60L7.198318012908273,60L7.248190885976921,60L7.29806375904557,60L7.447682378251516,60L7.497555251320164,60L7.547428124388813,60L7.597300997457461,60L7.64717387052611,60L7.796792489732056,60L7.846665362800704,60L7.896538235869352,60L7.946411108938001,60L7.996283982006649,60L8.145902601212596,60L8.195775474281245,60L8.245648347349894,60L8.295521220418541,60L8.345394093487188,60L8.495012712693134,60L8.544885585761783,60L8.594758458830432,60L8.644631331899081,60L8.69450420496773,60L8.844122824173676,60L8.893995697242325,60L8.943868570310972,60L8.993741443379621,55L9.043614316448268,55L9.193232935654214,55L9.243105808722863,55L9.292978681791512,55L9.342851554860161,55L9.392724427928808,55L9.542343047134755,55L9.592215920203403,55L9.642088793272052,55L9.6919616663407,55L9.74183453940935,55L9.891453158615294,55L9.941326031683943,55L9.991198904752592,55L10.041071777821239,55L10.090944650889888,55L10.240563270095835,55L10.290436143164483,55L10.340309016233132,55L10.39018188930178,55L10.44005476237043,55L10.589673381576374,55L10.639546254645023,55L10.68941912771367,55L10.739292000782319,55L10.789164873850968,55L10.938783493056913,55L10.988656366125563,50L11.038529239194212,50L11.08840211226286,50L11.138274985331508,50L11.287893604537453,50L11.337766477606102,50L11.38763935067475,50L11.437512223743399,50L11.487385096812048,50L11.637003716017993,50L11.686876589086642,50L11.736749462155291,50L11.78662233522394,50L11.836495208292588,50L11.986113827498533,50L12.03598670056718,50L12.08585957363583,50L12.135732446704479,50L12.185605319773128,50L12.335223938979073,50L12.385096812047722,50L12.434969685116371,50L12.484842558185019,50L12.534715431253668,50L12.684334050459611,50L12.73420692352826,50L12.78407979659691,50L12.833952669665559,50L12.883825542734208,50L13.033444161940153,50L13.083317035008802,45L13.13318990807745,45L13.183062781146099,45L13.232935654214748,45L13.382554273420691,45L13.43242714648934,45L13.48230001955799,45L13.532172892626638,45L13.582045765695286,45L13.731664384901233,45L13.78153725796988,45L13.83141013103853,45L13.881283004107178,45L13.931155877175827,45L14.080774496381771,45L14.13064736945042,45L14.18052024251907,45L14.230393115587717,45L14.280265988656366,45L14.429884607862313,45L14.47975748093096,45L14.52963035399961,45L14.579503227068258,45L14.629376100136907,45L14.778994719342851,45L14.8288675924115,45L14.878740465480147,45L14.928613338548796,45L14.978486211617446,45L15.128104830823391,45L15.17797770389204,40L15.227850576960689,40L15.277723450029338,40L15.327596323097985,40L15.477214942303931,40L15.52708781537258,40L15.576960688441227,40L15.626833561509876,40L15.676706434578525,40L15.82632505378447,40L15.87619792685312,40L15.926070799921769,40L15.975943672990416,40L16.025816546059065,40L16.17543516526501,40L16.225308038333658,40L16.27518091140231,40L16.325053784470956,40L16.374926657539604,40L16.524545276745553,40L16.5744181498142,40L16.624291022882847,40L16.674163895951498,40L16.724036769020145,40L16.87365538822609,40L16.92352826129474,40L16.97340113436339,40L17.023274007432036,40L17.073146880500687,40L17.22276549970663,40L17.272638372775276,35L17.322511245843927,35L17.372384118912574,35L17.42225699198122,35L17.57187561118717,35L17.621748484255818,35L17.671621357324465,35L17.721494230393116,35L17.771367103461763,35L17.97085859573636,35L18.020731468805007,35L18.070604341873658,35L18.120477214942305,35L18.319968707216898,35L18.36984158028555,35L18.419714453354196,35L18.469587326422847,35L18.61920594562879,35L18.669078818697436,35L18.718951691766087,35L18.768824564834734,35L18.81869743790338,35L18.968316057109327,35L19.018188930177978,35L19.068061803246625,35L19.117934676315276,35L19.167807549383923,35L19.31742616858987,35L19.36729904165852,35L19.417171914727167,35L19.467044787795814,35L19.516917660864465,35L19.66653628007041,35L19.716409153139058,30L19.76628202620771,30L19.816154899276356,30L19.866027772345003,30L20.01564639155095,30L20.065519264619596,30L20.115392137688243,30L20.165265010756894,30L20.21513788382554,30L20.364756503031487,30L20.414629376100137,30L20.464502249168785,30L20.514375122237432,30L20.564247995306083,30L20.71386661451203,30L20.763739487580676,30L20.813612360649326,30L20.863485233717974,30L20.913358106786625,30L21.06297672599257,30L21.112849599061217,30L21.162722472129865,30L21.212595345198515,30L21.262468218267163,30L21.412086837473105,30L21.461959710541755,30L21.511832583610403,30L21.561705456679054,30L21.6115783297477,30L21.761196948953646,30L21.811069822022297,30L21.860942695090944,30L21.91081556815959,30L21.960688441228243,30L22.110307060434188,30L22.160179933502835,30L22.210052806571486,30L22.259925679640133,30L22.30979855270878,30L22.45941717191473,30L22.509290044983377,25L22.559162918052024,25L22.609035791120675,25L22.658908664189322,25L22.808527283395264,25L22.858400156463915,25L22.908273029532563,25L22.95814590260121,25L23.00801877566986,25L23.157637394875806,25L23.207510267944453,25L23.257383141013104,25L23.30725601408175,25L23.357128887150402,25L23.506747506356348,25L23.556620379424995,25L23.606493252493642,25L23.656366125562293,25L23.70623899863094,25L23.855857617836886,25L23.905730490905537,25L23.955603363974184,25L24.005476237042835,25L24.055349110111482,25L24.204967729317424,25L24.25484060238607,25L24.304713475454722,25L24.35458634852337,25L24.40445922159202,25L24.554077840797966,25L24.603950713866613,25L24.653823586935264,20L24.70369646000391,20L24.75356933307256,20L24.903187952278508,20L24.953060825347155,20L25.002933698415802,20L25.052806571484453,20L25.1026794445531,20L25.252298063759046,20L25.302170936827697,20L25.352043809896344,20L25.40191668296499,20L25.451789556033642,20L25.601408175239584,20L25.65128104830823,20L25.701153921376882,20L25.75102679444553,20L25.800899667514177,20L25.950518286720126,20L26.000391159788773,20L26.05026403285742,20L26.10013690592607,20L26.15000977899472,20L26.299628398200664,20L26.349501271269315,20L26.399374144337962,20L26.44924701740661,20L26.49911989047526,20L26.648738509681205,20L26.698611382749853,20L26.748484255818504,20L26.79835712888715,20L26.848230001955802,20L26.997848621161747,20L27.04772149423039,20L27.097594367299042,20L27.14746724036769,15L27.197340113436336,15L27.346958732642282,15L27.44670447877958,15L27.49657735184823,15L27.546450224916878,15L27.696068844122824,15L27.745941717191474,15L27.79581459026012,15L27.84568746332877,15L27.89556033639742,15L28.045178955603365,15L28.095051828672013,15L28.144924701740663,15L28.19479757480931,15L28.244670447877958,15L28.394289067083907,15L28.44416194015255,15L28.494034813221198,15L28.54390768628985,15L28.593780559358496,15L28.74339917856444,15L28.793272051633092,15L28.84314492470174,15L28.893017797770387,15L28.942890670839038,15L29.092509290044983,15L29.14238216311363,15L29.19225503618228,15L29.24212790925093,15L29.29200078231958,15L29.441619401525525,15L29.491492274594172,15L29.54136514766282,15L29.59123802073147,15L29.641110893800118,15L29.790729513006063,15L29.84060238607471,15L29.890475259143358,15L29.94034813221201,15L29.990221005280656,15L30.1398396244866,15L30.189712497555252,15L30.2395853706239,15L30.289458243692547,15L30.339331116761198,15L30.53882260903579,15L30.58869548210444,15L30.63856835517309,15L30.688441228241736,15L30.838059847447685,15L30.887932720516332,15L30.93780559358498,15L30.98767846665363,15L31.037551339722278,15L31.187169958928223,15L31.23704283199687,15L31.286915705065518,15L31.336788578134165,15L31.386661451202816,15L31.53628007040876,15L31.58615294347741,15L31.63602581654606,15L31.685898689614707,15L31.735771562683357,15L31.885390181889303,15L31.935263054957947,15L31.985135928026597,15L32.035008801095245,15L32.084881674163896,15L32.23450029336984,15L32.28437316643849,15L32.334246039507136,15L32.38411891257579,15L32.43399178564443,15L32.58361040485038,15L32.63348327791903,15L32.68335615098768,15L32.73322902405633,15L32.78310189712498,15L32.93272051633092,15L32.982593389399575,15L33.03246626246822,15L33.08233913553687,15L33.132212008605514,15L33.281830627811466,15L33.33170350088011,15L33.381576373948754,15L33.431449247017405,15L33.481322120086055,15L33.630940739292,15L33.680813612360645,15L33.730686485429295,15L33.780559358497946,15L33.8304322315666,15L33.980050850772535,15L34.02992372384119,15L34.07979659690984,15L34.12966946997849,15L34.17954234304713,15L34.329160962253084,15L34.37903383532173,15L34.42890670839038,15L34.52865245452768,15L34.67827107373362,15L34.72814394680227,15L34.77801681987092,15L34.827889692939564,15L34.877762566008215,15L35.02738118521416,15L35.07725405828281,15L35.127126931351455,15L35.176999804420106,15L35.22687267748875,15L35.3764912966947,15L35.426364169763346,15L35.476237042832,15L35.52610991590064,15L35.5759827889693,15L35.72560140817524,15L35.77547428124389,15L35.82534715431254,15L35.87522002738119,15L35.92509290044983,15L36.12458439272443,15L36.17445726579307,15L36.224330138861724,15L36.27420301193037,15L36.473694504204964,15L36.523567377273615,15L36.573440250342266,15L36.62331312341092,15L36.772931742616855,15L36.822804615685506,15L36.87267748875416,15L36.92255036182281,15L36.97242323489145,15L37.17191472716605,15L37.2217876002347,15L37.27166047330334,15L37.32153334637199,15L37.47115196557794,15L37.52102483864659,15L37.57089771171523,15L37.620770584783884,15L37.670643457852535,15L37.82026207705847,15L37.87013495012713,15L37.920007823195775,15L37.969880696264426,15L38.01975356933307,15L38.16937218853902,15L38.219245061607666,15L38.269117934676316,15L38.31899080774496,15L38.36886368081361,15L38.518482300019556,15L38.56835517308821,15L38.61822804615685,15L38.66810091922551,15L38.71797379229415,15L38.91746528456875,15L38.9673381576374,15L39.017211030706044,15L39.06708390377469,15L39.21670252298064,15L39.266575396049284,15L39.316448269117934,15L39.36632114218658,15L39.416194015255236,15L39.565812634461174,15L39.615685507529825,15L39.665558380598476,15L39.71543125366713,15L39.76530412673577,15L39.914922745941716,15L39.96479561901037,15L40.01466849207902,15L40.06454136514766,15L40.11441423821631,15L40.26403285742226,15L40.31390573049091,15L40.36377860355955,15L40.413651476628196,15L40.463524349696854,15L40.61314296890279,15L40.66301584197144,15L40.712888715040094,15L40.762761588108745,15L40.81263446117739,15L40.96225308038334,15L41.012125953451985,15L41.061998826520636,15L41.11187169958928,15L41.16174457265793,15L41.311363191863876,15L41.36123606493253,15L41.41110893800117,15L41.46098181106982,15L41.51085468413847,15L41.66047330334442,15L41.71034617641306,15L41.76021904948172,15L41.81009192255036,15L41.85996479561901,15L42.00958341482496,15L42.0594562878936,15L42.109329160962254,15L42.1592020340309,15L42.20907490709955,15L42.358693526305494,15L42.408566399374145,15L42.45843927244279,15L42.50831214551145,15L42.55818501858009,15L42.707803637786036,15L42.75767651085468,15L42.80754938392334,15L42.85742225699198,15L42.90729513006063,15L43.05691374926658,15L43.10678662233523,15L43.15665949540387,15L43.206532368472516,15L43.25640524154117,15L43.40602386074711,15L43.45589673381576,15L43.50576960688441,15L43.555642479953065,15L43.60551535302171,15L43.805006845296305,15L43.854879718364955,15L43.9047525914336,15L43.95462546450225,15L44.104244083708195,15L44.154116956776846,15L44.20398982984549,15L44.25386270291414,15L44.303735575982785,15L44.45335419518874,15L44.50322706825738,15L44.55309994132603,15L44.60297281439468,15L44.652845687463326,15L44.80246430666927,15L44.85233717973792,15L44.90221005280657,15L44.95208292587522,15L45.00195579894387,15L45.15157441814981,15L45.201447291218464,15L45.25132016428711,15L45.30119303735576,15L45.35106591042441,15L45.500684529630355,15L45.550557402699,15L45.6503031488363,15L45.70017602190495,15L45.84979464111089,15L45.89966751417955,15L45.94954038724819,15L45.99941326031684,15L46.049286133385486,15L46.19890475259143,15L46.24877762566008,15L46.298650498728726,15L46.34852337179738,15L46.39839624486603,15L46.54801486407197,15L46.59788773714062,15L46.647760610209275,15L46.69763348327792,15L46.74750635634657,15L46.897124975552515,15L46.946997848621166,15L46.99687072168981,15L47.04674359475846,15L47.096616467827104,15L47.24623508703306,15L47.2961079601017,15L47.34598083317035,15L47.395853706238995,15L47.445726579307646,15L47.59534519851359,15L47.645218071582235,15L47.69509094465089,15L47.74496381771954,15L47.79483669078819,15L47.94445530999413,15L47.994328183062784,15L48.04420105613143,15L48.09407392920008,15L48.14394680226872,15L48.293565421474675,15L48.34343829454332,15L48.39331116761197,15L48.44318404068062,15L48.49305691374927,15L48.69254840602387,15L48.74242127909251,15L48.79229415216116,15L48.842167025229806,15L48.99178564443575,15L49.0416585175044,15L49.091531390573046,15L49.1414042636417,15L49.19127713671034,15L49.34089575591629,15L49.39076862898494,25L49.44064150205359,25L49.49051437512224,25L49.54038724819089,25L49.69000586739683,25L49.739878740465485,25L49.78975161353413,25L49.83962448660278,25L49.889497359671424,25L50.039115978877376,25L50.08898885194602,25L50.13886172501467,25L50.188734598083315,25L50.23860747115197,25L50.38822609035791,25L50.438098963426555,25L50.487971836495205,25L50.537844709563856,25L50.58771758263251,25L50.737336201838446,25L50.7872090749071,25L50.83708194797575,25L50.8869548210444,25L50.93682769411304,25L51.086446313318994,25L51.13631918638764,25L51.18619205945629,25L51.23606493252493,25L51.28593780559359,25L51.43555642479953,25L51.48542929786818,25L51.53530217093683,30L51.58517504400548,30L51.635047917074125,30L51.78466653628007,30L51.83453940934872,30L51.884412282417365,30L51.934285155486016,30L51.98415802855466,30L52.13377664776061,30L52.183649520829256,30L52.23352239389791,30L52.28339526696655,30L52.33326814003521,30L52.48288675924115,30L52.5327596323098,30L52.58263250537845,30L52.68237825151574,30L52.831996870721696,30L52.88186974379034,30L52.93174261685899,30L52.981615489927634,30L53.031488362996285,30L53.18110698220223,30L53.230979855270874,30L53.280852728339525,30L53.330725601408176,30L53.38059847447683,30L53.530217093682765,30L53.580089966751416,35L53.62996283982007,35L53.67983571288872,35L53.72970858595736,35L53.879327205163314,35L53.92920007823196,35L53.97907295130061,35L54.02894582436925,35L54.0788186974379,35L54.22843731664385,35L54.32818306278114,35L54.3780559358498,35L54.427928808918445,35L54.57754742812438,35L54.677293174261685,35L54.727166047330336,35L54.77703892039898,35L54.92665753960493,35L54.976530412673576,35L55.02640328574223,35L55.07627615881087,35L55.12614903187952,35L55.27576765108547,35L55.32564052415412,35L55.37551339722276,35L55.42538627029142,35L55.47525914336006,35L55.67475063563466,50L55.72462350870331,50L55.774496381771954,50L55.824369254840605,50L55.97398787404655,50L56.023860747115194,50L56.073733620183845,60L56.12360649325249,60L56.173479366321146,60L56.323097985527085,60L56.372970858595735,60L56.422843731664386,60L56.47271660473304,60L56.52258947780168,60L56.672208097007626,60L56.72208097007628,60L56.77195384314493,60L56.82182671621357,60L56.87169958928222,60L57.07119108155682,60L57.12106395462546,60L57.17093682769411,60L57.220809700762764,60L57.3704283199687,60L57.42030119303735,60L57.470174066106004,60L57.520046939174655,60L57.5699198122433,60L57.71953843144925,60L57.769411304517895,60L57.819284177586546,60L57.86915705065519,60L57.91902992372384,60L58.068648542929786,60L58.11852141599844,60L58.16839428906708,60L58.21826716213573,60L58.26814003520438,60L58.41775865441033,60L58.46763152747897,75L58.51750440054763,75L58.56737727361627,75L58.617250146684924,75L58.76686876589087,75L58.81674163895951,75L58.866614512028164,75L58.91648738509681,75L58.96636025816546,75L59.115978877371404,75L59.165851750440055,75L59.2157246235087,75L59.26559749657736,75L59.315470369646,75L59.465088988851946,75L59.51496186192059,75L59.56483473498925,75L59.61470760805789,75L59.66458048112654,75L59.81419910033249,75L59.86407197340114,75L59.91394484646978,75L59.96381771953843,75L60.01369059260708,75L60.16330921181302,75L60.21318208488167,75L60.26305495795032,75L60.312927831018975,75L60.36280070408762,75L60.512419323293564,75L60.562292196362215,75L60.612165069430866,80L60.66203794249951,80L60.71191081556816,80L60.861529434774106,80L60.911402307842756,80L60.9612751809114,80L61.01114805398005,80L61.061020927048695,80L61.21063954625465,80L61.26051241932329,80L61.31038529239194,80L61.36025816546059,80L61.410131038529244,80L61.55974965773518,80L61.60962253080383,80L61.659495403872484,80L61.70936827694113,80L61.75924115000978,80L61.958732642284374,80L62.00860551535302,80L62.05847838842167,80L62.10835126149032,80L62.257969880696265,80L62.30784275376491,80L62.35771562683357,80L62.40758849990221,80L62.45746137297086,80L62.6070799921768,80L62.65695286524546,80L62.7068257383141,80L62.75669861138275,80L62.806571484451396,80L62.95619010365734,80L63.00606297672599,80L63.055935849794636,80L63.10580872286329,80L63.15568159593194,80L63.30530021513788,80L63.35517308820653,80L63.405045961275185,80L63.45491883434383,80L63.50479170741248,80L63.654410326618425,80L63.704283199687076,80L63.75415607275573,80L63.80402894582437,80L64.00352043809896,80L64.05339331116761,80L64.10326618423626,80L64.15313905730491,80L64.20301193037356,80L64.3526305495795,80L64.40250342264815,80L64.4523762957168,80L64.50224916878544,80L64.55212204185409,80L64.70174066106004,80L64.75161353412868,80L64.80148640719734,80L64.851359280266,80L64.90123215333463,80L65.05085077254058,80L65.10072364560924,80L65.15059651867787,80L65.20046939174654,80L65.25034226481517,80L65.39996088402113,80L65.44983375708978,80L65.49970663015841,80L65.54957950322706,80L65.59945237629573,80L65.74907099550165,80L65.7989438685703,80L65.84881674163897,80L65.8986896147076,80L65.94856248777626,80L66.09818110698221,80L66.14805398005085,80L66.1979268531195,80L66.24779972618815,80L66.2976725992568,80L66.44729121846275,80L66.49716409153139,80L66.54703696460004,80L66.59690983766868,80L66.64678271073734,80L66.84627420301193,80L66.89614707608058,80L66.94601994914923,80L66.99589282221787,80L67.14551144142382,80L67.19538431449247,80L67.24525718756111,80L67.29513006062977,80L67.34500293369841,80L67.49462155290436,80L67.54449442597301,80L67.59436729904165,80L67.6442401721103,80L67.69411304517897,80L67.84373166438489,80L67.89360453745356,80L67.9434774105222,80L67.99335028359084,80L68.0432231566595,80L68.19284177586545,80L68.24271464893408,80L68.29258752200275,80L68.34246039507138,80L68.39233326814004,80L68.54195188734599,80L68.59182476041462,80L68.64169763348328,90L68.69157050655193,90L68.74144337962058,90L68.89106199882652,90L68.94093487189518,90L68.99080774496382,90L69.04068061803247,90L69.0905534911011,90L69.24017211030706,90L69.29004498337571,90L69.33991785644436,90L69.38979072951301,90L69.43966360258165,90L69.5892822217876,90L69.63915509485625,90L69.68902796792489,100L69.73890084099355,100L69.7887737140622,100L69.93839233326814,100L69.98826520633679,100L70.03813807940544,100L70.08801095247408,100L70.13788382554273,100L70.28750244474868,100L70.33737531781732,100L70.38724819088598,100L70.43712106395462,100L70.48699393702327,100L70.63661255622922,100L70.68648542929786,100L70.73635830236651,100L70.78623117543518,100L70.83610404850381,100L70.98572266770977,100L71.03559554077842,100L71.08546841384705,100L71.18521415998435,100L71.3348327791903,100L71.38470565225894,100L71.4345785253276,100L71.48445139839625,100L71.5343242714649,100L71.68394289067083,100L71.73381576373949,100L71.78368863680814,100L71.83356150987679,100L71.88343438294544,100L72.03305300215139,100L72.08292587522003,115L72.13279874828868,115L72.18267162135731,115L72.23254449442598,115L72.38216311363192,115L72.43203598670057,115L72.48190885976922,115L72.58165460590651,115L72.73127322511246,115L72.7811460981811,115L72.83101897124975,115L72.93076471738705,115L73.080383336593,115L73.13025620966165,115L73.18012908273029,115L73.23000195579894,115L73.27987482886759,115L73.42949344807353,115L73.4793663211422,115L73.52923919421083,115L73.57911206727948,115L73.62898494034813,115L73.82847643262272,115L73.87834930569139,115L73.92822217876002,115L73.97809505182867,115L74.12771367103463,115L74.17758654410326,115L74.22745941717191,115L74.27733229024055,115L74.32720516330922,115L74.47682378251515,115L74.5266966555838,115L74.57656952865246,115L74.6264424017211,115L74.67631527478974,115L74.8259338939957,115L74.87580676706435,115L74.925679640133,115L74.97555251320165,115L75.02542538627029,115L75.22491687854489,115L75.27478975161353,115L75.32466262468219,115L75.37453549775083,115L75.52415411695678,115L75.57402699002543,115L75.62389986309407,115L75.67377273616272,115L75.72364560923137,115L75.87326422843731,115L75.92313710150596,115L75.97300997457462,115L76.02288284764326,115L76.07275572071191,115L76.22237433991786,115L76.2722472129865,115L76.32212008605515,115L76.3719929591238,115L76.42186583219245,115L76.5714844513984,115L76.62135732446704,115L76.67123019753569,115L76.72110307060434,115L76.770975943673,115L76.92059456287893,115L76.9704674359476,115L77.02034030901623,115L77.07021318208488,115L77.12008605515352,115L77.26970467435947,115L77.31957754742812,115L77.36945042049676,115L77.41932329356543,115L77.46919616663408,115L77.61881478584002,115L77.66868765890867,115L77.71856053197732,115L77.76843340504595,115L77.81830627811462,115L77.96792489732056,115L78.01779777038921,115L78.06767064345786,115L78.1175435165265,115L78.16741638959515,115L78.3170350088011,115L78.36690788186974,115L78.4167807549384,115L78.46665362800704,115L78.51652650107569,115L78.66614512028164,115L78.71601799335028,115L78.76589086641893,115L78.81576373948758,115L78.86563661255623,115L79.01525523176217,115L79.06512810483083,115L79.11500097789947,115L79.16487385096812,115L79.21474672403676,115L79.36436534324271,115L79.41423821631136,115L79.46411108938001,115L79.51398396244866,115L79.56385683551731,115L79.71347545472325,115L79.7633483277919,115L79.81322120086055,115L79.86309407392919,115L79.91296694699786,115L80.11245843927244,115L80.1623313123411,115L80.21220418540973,115L80.26207705847838,115L80.41169567768434,115L80.46156855075297,115L80.51144142382164,115L80.56131429689029,115L80.61118716995892,115L80.76080578916488,115L80.81067866223353,115L80.86055153530216,115L80.91042440837083,115L80.96029728143947,115L81.10991590064542,115L81.15978877371407,115L81.2096616467827,115L81.25953451985136,115L81.30940739292001,115L81.45902601212595,115L81.5088988851946,115L81.55877175826325,115L81.6086446313319,115L81.65851750440055,115L81.80813612360649,115L81.85800899667514,115L81.90788186974379,115L81.95775474281244,115L82.00762761588109,115L82.15724623508704,115L82.20711910815568,115L82.25699198122433,115L82.30686485429297,115L82.35673772736163,115L82.50635634656757,115L82.55622921963622,115L82.60610209270487,115L82.65597496577352,115L82.70584783884216,115L82.85546645804811,115L82.90533933111676,115L82.9552122041854,115L83.00508507725407,115L83.0549579503227,115L83.20457656952865,115L83.2544494425973,115L83.30432231566594,115L83.3541951887346,115L83.40406806180326,115L83.55368668100918,115L83.60355955407785,115L83.6534324271465,115L83.70330530021513,115L83.75317817328379,115L83.90279679248974,115L83.95266966555837,115L84.00254253862704,115L84.05241541169568,115L84.10228828476433,115L84.25190690397028,115L84.30177977703892,115L84.35165265010757,115L84.40152552317622,115L84.45139839624487,115L84.60101701545081,115L84.65088988851946,115L84.70076276158811,115L84.75063563465676,115L84.8005085077254,115L84.95012712693135,115L85,115L85.04987287306865,115L85.0997457461373,115L85.14961861920594,115L85.34911011148054,115L85.39898298454918,115L85.44885585761784,115L85.4987287306865,115L85.64834734989242,115L85.69822022296108,115L85.74809309602973,115L85.79796596909837,115L85.84783884216702,115L85.99745746137297,115L86.04733033444161,115L86.09720320751028,115L86.14707608057891,115L86.19694895364756,115L86.34656757285352,115L86.39644044592215,115L86.4463133189908,115L86.49618619205947,115L86.5460590651281,115L86.69567768433406,115L86.74555055740271,115L86.79542343047135,115L86.84529630354,115L86.89516917660863,115L87.04478779581459,115L87.09466066888324,115L87.14453354195189,115L87.19440641502054,115L87.24427928808919,115L87.39389790729513,115L87.44377078036378,115L87.49364365343243,115L87.54351652650108,115L87.59338939956973,115L87.74300801877567,115L87.79288089184432,115L87.84275376491297,115L87.8926266379816,115L87.94249951105027,115L88.09211813025621,115L88.14199100332486,115L88.19186387639351,115L88.24173674946215,115L88.2916096225308,115L88.44122824173675,115L88.49110111480539,115L88.54097398787404,115L88.5908468609427,115L88.64071973401134,115L88.7903383532173,115L88.84021122628594,115L88.89008409935458,115L88.93995697242323,115L88.98982984549188,115L89.13944846469782,115L89.18932133776649,115L89.23919421083512,115L89.33893995697242,115L89.48855857617836,115L89.53843144924701,115L89.58830432231568,115L89.63817719538432,115L89.68805006845297,115L89.83766868765892,115L89.88754156072756,115L89.9374144337962,115L89.98728730686484,115L90.03716017993351,115L90.18677879913945,115L90.2366516722081,115L90.28652454527675,115L90.3363974183454,115L90.38627029141404,115L90.53588891061999,115L90.58576178368864,115L90.63563465675729,115L90.68550752982594,115L90.88499902210053,115L90.93487189516918,115L90.98474476823782,115L91.03461764130648,115L91.23410913358106,115L91.28398200664972,115L91.33385487971836,115L91.38372775278701,115L91.43360062585566,115L91.5832192450616,115L91.63309211813025,115L91.68296499119892,115L91.73283786426755,115L91.7827107373362,115L91.98220222961079,115L92.03207510267944,115L92.0819479757481,115L92.13182084881674,115L92.2814394680227,115L92.33131234109133,115L92.38118521415998,115L92.43105808722864,115L92.48093096029729,115L92.63054957950322,115L92.68042245257188,115L92.73029532564053,115L92.78016819870918,115L92.83004107177781,115L92.97965969098377,115L93.02953256405242,115L93.07940543712105,115L93.12927831018972,115L93.17915118325837,115L93.37864267553296,115L93.42851554860161,115L93.47838842167025,115L93.52826129473891,115L93.67787991394484,115L93.7277527870135,115L93.77762566008215,115L93.82749853315079,115L93.87737140621944,115L94.02699002542539,115L94.07686289849403,115L94.12673577156268,115L94.17660864463133,115L94.22648151769998,115L94.37610013690593,115L94.42597300997457,115L94.47584588304322,115L94.52571875611187,115L94.57559162918052,115L94.72521024838646,115L94.77508312145513,115L94.82495599452376,115L94.87482886759241,115L94.92470174066105,115L95.074320359867,115L95.12419323293565,115L95.1740661060043,115L95.22393897907295,115L95.2738118521416,115L95.42343047134754,115L95.4733033444162,115L95.52317621748485,115L95.57304909055348,115L95.77254058282809,115L95.82241345589674,115L95.87228632896539,115L95.92215920203402,115L95.97203207510267,115L96.12165069430863,115L96.17152356737726,115L96.22139644044593,115L96.27126931351458,115L96.32114218658322,115L96.47076080578917,115L96.52063367885782,115L96.57050655192646,115L96.62037942499512,115L96.67025229806376,115L96.8198709172697,115L96.86974379033836,115L96.919616663407,115L96.96948953647565,115L97.01936240954429,115L97.16898102875024,115L97.21885390181889,115L97.26872677488754,115L97.31859964795619,115L97.36847252102484,115L97.51809114023078,115L97.56796401329943,115L97.61783688636808,115L97.66770975943673,115L97.71758263250538,115L97.86720125171134,115L97.91707412477997,115L97.96694699784862,115L98.01681987091726,115L98.06669274398593,115L98.21631136319186,115L98.2661842362605,115L98.31605710932917,115L98.36592998239782,115L98.41580285546645,115L98.61529434774106,115L98.66516722080969,115L98.71504009387836,115L98.764912966947,115L98.91453158615295,115L98.9644044592216,115L99.01427733229023,115L99.06415020535889,115L99.11402307842755,115L99.26364169763347,115L99.31351457070214,115L99.36338744377079,115L99.41326031683943,115L99.46313318990808,115L99.61275180911403,115L99.66262468218267,115L99.71249755525132,115L99.76237042831997,115L99.81224330138862,115L99.96186192059457,115L100.01173479366321,115L100.06160766673186,115L100.1114805398005,115L100.16135341286916,115L100.36084490514375,115L100.4107177782124,115L100.46059065128105,115L100.51046352434969,115L100.66008214355564,115L100.70995501662429,115L100.75982788969294,115L100.8097007627616,115L100.85957363583023,115L101.00919225503618,115L101.05906512810483,115L101.10893800117347,115L101.15881087424212,115L101.20868374731079,115L101.35830236651671,115L101.40817523958538,115L101.45804811265403,115L101.50792098572266,115L101.55779385879131,115L101.70741247799727,115L101.7572853510659,115L101.80715822413457,115L101.8570310972032,115L101.90690397027186,115L102.05652258947781,115L102.10639546254644,115L102.1562683356151,115L102.20614120868376,115L102.2560140817524,115L102.40563270095834,115L102.455505574027,115L102.50537844709564,115L102.55525132016429,115L102.60512419323292,115L102.75474281243888,115L102.80461568550753,115L102.85448855857618,115L102.90436143164483,115L102.95423430471347,115L103.10385292391942,115L103.15372579698807,115L103.2035986700567,115L103.25347154312537,115L103.30334441619402,115L103.50283590846861,115L103.55270878153726,115L103.6025816546059,115L103.65245452767456,115L103.8020731468805,115L103.85194601994914,115L103.9018188930178,115L103.95169176608644,115L104.00156463915509,115L104.15118325836104,115L104.20105613142968,115L104.25092900449833,115L104.300801877567,115L104.35067475063563,115L104.50029336984159,115L104.55016624291024,115L104.60003911597887,115L104.64991198904752,115L104.69978486211618,115L104.84940348132211,115L104.89927635439078,115L104.94914922745942,115L104.99902210052807,115L105.04889497359672,115L105.19851359280266,115L105.2483864658713,115L105.29825933893996,115L105.34813221200861,115L105.39800508507726,115L105.54762370428321,115L105.59749657735185,115L105.6473694504205,115L105.69724232348914,115L105.7471151965578,115L105.89673381576374,115L105.94660668883239,115L105.99647956190104,115L106.04635243496968,115L106.09622530803833,115L106.24584392724428,115L106.29571680031292,115L106.34558967338158,115L106.39546254645023,115L106.44533541951887,115L106.59495403872482,115L106.64482691179347,115L106.69469978486211,115L106.74457265793076,115L106.79444553099941,115L106.94406415020535,115L106.99393702327401,115L107.04380989634265,115L107.0936827694113,115L107.14355564247995,115L107.29317426168589,115L107.34304713475454,115L107.39292000782321,115L107.4926657539605,115L107.64228437316645,115L107.69215724623508,115L107.74203011930373,115L107.79190299237239,115L107.84177586544104,115L107.99139448464699,115L108.04126735771563,115L108.09114023078428,115L108.14101310385293,115L108.19088597692156,115L108.34050459612752,115L108.39037746919617,115L108.44025034226482,115L108.49012321533347,115L108.5399960884021,115L108.68961470760806,115L108.73948758067671,115L108.78936045374535,115L108.83923332681401,115L108.88910619988265,115L109.0387248190886,115L109.08859769215725,115L109.13847056522589,115L109.18834343829454,115L109.2382163113632,115L109.38783493056913,115L109.43770780363778,115L109.48758067670644,115L109.53745354977508,115L109.58732642284373,115L109.73694504204968,115L109.78681791511832,115L109.83669078818697,115L109.88656366125562,115L109.93643653432427,115L110.13592802659886,115L110.18580089966751,115L110.23567377273616,115L110.28554664580481,115L110.43516526501075,115L110.48503813807942,115L110.53491101114805,115L110.5847838842167,115L110.63465675728534,115L110.7842753764913,115L110.83414824955995,115L110.88402112262858,115L110.93389399569725,115L110.9837668687659,115L111.13338548797184,115L111.18325836104049,115L111.23313123410914,115L111.28300410717777,115L111.33287698024644,115L111.48249559945238,115L111.53236847252103,115L111.58224134558968,115L111.63211421865832,115L111.68198709172697,115L111.88147858400156,115L111.93135145707022,115L111.98122433013886,115L112.03109720320751,115L112.18071582241346,115L112.2305886954821,115L112.28046156855075,115L112.3303344416194,115L112.38020731468805,115L112.52982593389399,115L112.57969880696265,115L112.62957168003129,115L112.67944455309994,115L112.72931742616858,115L112.87893604537453,115L112.92880891844318,115L112.97868179151183,115L113.02855466458048,115L113.07842753764913,115L113.22804615685507,115L113.27791902992372,115L113.32779190299237,115L113.37766477606102,115L113.42753764912968,115L113.57715626833563,115L113.62702914140426,115L113.67690201447292,115L113.72677488754155,115L113.7766477606102,115L113.92626637981616,115L113.97613925288479,115L114.02601212595346,115L114.07588499902211,115L114.12575787209074,115L114.2753764912967,115L114.32524936436535,115L114.37512223743398,115L114.42499511050265,115L114.47486798357129,115L114.62448660277724,115L114.67435947584589,115L114.72423234891453,115L114.77410522198318,115L114.97359671425777,115L115.02346958732643,115L115.07334246039507,115L115.12321533346372,115L115.17308820653237,115L115.32270682573831,115L115.37257969880696,115L115.42245257187561,115L115.47232544494426,115L115.52219831801291,115L115.67181693721886,115L115.7216898102875,115L115.77156268335615,115L115.82143555642479,115L115.87130842949345,115L116.02092704869939,115L116.07079992176804,115L116.1206727948367,115L116.17054566790534,115L116.22041854097398,115L116.37003716017993,115L116.41991003324858,115L116.46978290631722,115L116.51965577938589,115L116.56952865245452,115L116.76902014472913,115L116.81889301779776,115L116.86876589086641,115L116.91863876393508,115L117.068257383141,115L117.11813025620967,115L117.16800312927832,115L117.21787600234696,115L117.2677488754156,115L117.41736749462156,115L117.4672403676902,115L117.51711324075886,115L117.5669861138275,115L117.61685898689615,115L117.7664776061021,115L117.81635047917074,115L117.86622335223939,115L117.91609622530802,115L117.96596909837669,115L118.11558771758263,115L118.16546059065128,115L118.21533346371993,115L118.26520633678858,115L118.31507920985722,115L118.51457070213182,115L118.56444357520047,115L118.61431644826912,115L118.66418932133776,115L118.81380794054371,115L118.86368081361236,115L118.913553686681,115L118.96342655974966,115L119.01329943281831,115L119.16291805202425,115L119.2127909250929,115L119.26266379816155,115L119.31253667123019,115L119.36240954429884,115L119.5120281635048,115L119.56190103657343,115L119.6117739096421,115L119.66164678271073,115L119.71151965577938,115L119.86113827498534,115L119.91101114805397,115L119.96088402112262,115L120.01075689419129,115L120.06062976725993,115L120.21024838646588,115L120.26012125953453,115L120.30999413260317,115L120.35986700567182,115L120.40973987874047,115L120.5593584979464,115L120.60923137101507,115L120.65910424408371,115L120.70897711715236,115L120.75884999022101,115L120.90846860942695,115L120.9583414824956,115L121.00821435556423,115L121.0580872286329,115L121.10796010170155,115L121.25757872090749,115L121.30745159397614,115L121.35732446704479,115L121.40719734011343,115L121.45707021318209,115L121.65656170545668,115L121.70643457852533,115L121.75630745159397,115L121.80618032466262,115L121.95579894386857,115L122.00567181693721,115L122.05554469000587,115L122.10541756307452,115L122.15529043614316,115L122.30490905534911,115L122.35478192841776,115L122.4046548014864,115L122.45452767455505,115L122.5044005476237,115L122.65401916682964,115L122.7038920398983,115L122.75376491296694,115L122.8036377860356,115L122.85351065910424,115L123.00312927831018,115L123.05300215137883,115L123.1028750244475,115L123.15274789751614,115L123.20262077058479,115L123.35223938979074,115L123.40211226285938,115L123.45198513592803,115L123.50185800899668,115L123.55173088206533,115L123.70134950127127,115L123.75122237433992,115L123.80109524740857,115L123.85096812047722,115L123.90084099354586,115L124.05045961275181,115L124.10033248582045,115L124.15020535888911,115L124.20007823195776,115L124.2499511050264,115L124.39956972423235,115L124.449442597301,115L124.49931547036964,115L124.5491883434383,115L124.59906121650694,115L124.74867983571289,115L124.79855270878154,115L124.84842558185018,115L124.89829845491883,115L124.94817132798748,115L125.09778994719342,115L125.14766282026207,115L125.19753569333074,115L125.24740856639937,115L125.29728143946802,115L125.44690005867398,115L125.49677293174261,115L125.54664580481126,115L125.64639155094856,115L125.79601017015452,115L125.84588304322315,115L125.8957559162918,115L125.94562878936046,115L125.9955016624291,115L126.14512028163504,115L126.19499315470371,115L126.24486602777235,115L126.294738900841,115L126.34461177390963,115L126.49423039311559,115L126.54410326618424,115L126.59397613925287,115L126.64384901232154,115L126.69372188539019,115L126.84334050459613,115L126.89321337766478,115L126.94308625073343,115L126.99295912380207,115L127.04283199687073,115L127.24232348914532,115L127.29219636221397,115L127.34206923528261,115L127.39194210835126,115L127.54156072755721,115L127.59143360062586,115L127.6413064736945,115L127.69117934676315,115L127.74105221983179,115L127.89067083903774,115L127.94054371210639,115L127.99041658517505,115L128.04028945824368,115L128.09016233131234,115L128.28965382358692,115L128.33952669665558,115L128.38939956972425,115L128.43927244279288,115L128.58889106199882,115L128.6387639350675,115L128.68863680813612,115L128.73850968120476,115L128.78838255427343,115L128.93800117347936,115L128.987874046548,115L129.03774691961667,115L129.0876197926853,115L129.13749266575397,115L129.2871112849599,115L129.33698415802854,115L129.3868570310972,115L129.43672990416587,115L129.48660277723448,115L129.63622139644045,115L129.6860942695091,115L129.73596714257772,115L129.7858400156464,115L129.83571288871505,115L129.98533150792096,115L130.03520438098963,115L130.0850772540583,115L130.13495012712693,115L130.1848230001956,115L130.33444161940153,115L130.38431449247017,115L130.43418736553883,115L130.48406023860747,115L130.5339331116761,115L130.68355173088207,115L130.7334246039507,115L130.78329747701935,115L130.833170350088,115L130.88304322315668,115L131.0326618423626,115L131.08253471543125,115L131.13240758849992,115L131.18228046156855,115L131.2321533346372,115L131.38177195384316,115L131.4316448269118,115L131.48151769998043,115L131.5313905730491,115L131.58126344611773,115L131.73088206532367,115L131.78075493839233,115L131.83062781146097,115L131.88050068452964,115L131.9303735575983,115L132.0799921768042,115L132.12986504987288,115L132.17973792294154,115L132.22961079601015,115L132.27948366907881,115L132.42910228828478,115L132.4789751613534,115L132.52884803442205,115L132.57872090749072,115L132.62859378055936,115L132.7782123997653,115L132.82808527283396,115L132.8779581459026,115L132.92783101897126,115L132.9777038920399,115L133.12732251124586,115L133.1771953843145,115L133.22706825738314,115L133.27694113045177,115L133.32681400352044,115L133.47643262272638,115L133.52630549579501,115L133.57617836886368,115L133.62605124193234,115L133.67592411500098,115L133.82554273420692,115L133.87541560727558,115L133.92528848034422,115L133.97516135341286,115L134.02503422648152,115L134.1746528456875,115L134.2245257187561,115L134.27439859182476,115L134.3242714648934,115L134.37414433796206,115L134.523762957168,115L134.57363583023667,115L134.6235087033053,115L134.67338157637394,115L134.72325444944258,115L134.87287306864854,115L134.92274594171718,115L134.97261881478582,115L135.02249168785448,115L135.07236456092315,115L135.2219831801291,115L135.27185605319772,115L135.3217289262664,115L135.37160179933502,115L135.42147467240366,115L135.57109329160963,115L135.6209661646783,115L135.6708390377469,115L135.72071191081557,115L135.7705847838842,115L135.92020340309014,115L135.9700762761588,115L136.01994914922747,115L136.0698220222961,115L136.11969489536477,115L136.2693135145707,115L136.31918638763935,115L136.369059260708,115L136.41893213377662,115L136.4688050068453,115L136.61842362605125,115L136.6682964991199,115L136.71816937218853,115L136.7680422452572,115L136.81791511832583,115L136.96753373753177,115L137.01740661060043,115L137.0672794836691,115L137.11715235673773,115L137.16702522980637,115L137.31664384901234,115L137.36651672208097,115L137.4163895951496,115L137.46626246821828,115L137.5161353412869,115L137.66575396049285,115L137.71562683356152,115L137.76549970663015,115L137.81537257969882,115L137.86524545276745,115L138.0148640719734,115L138.06473694504206,115L138.11460981811072,115L138.16448269117933,115L138.214355564248,115L138.36397418345396,115L138.41384705652257,115L138.46371992959124,115L138.5135928026599,115L138.56346567572854,115L138.71308429493448,115L138.76295716800314,115L138.81283004107178,115L138.86270291414044,115L138.91257578720908,115L139.06219440641502,115L139.11206727948368,115L139.16194015255232,115L139.21181302562096,115L139.26168589868962,115L139.41130451789556,115L139.4611773909642,115L139.51105026403286,115L139.56092313710153,115L139.61079601017016,115L139.7604146293761,115L139.81028750244477,115L139.8601603755134,115L139.91003324858204,115L139.9599061216507,115L140.10952474085664,115L140.15939761392528,115L140.20927048699394,115L140.25914336006258,115L140.30901623313125,115L140.45863485233718,115L140.50850772540582,115L140.55838059847449,115L140.60825347154315,115L140.65812634461176,115L140.80774496381773,115L140.85761783688636,115L140.907490709955,115L140.95736358302366,115L141.00723645609233,115L141.15685507529824,115L141.2067279483669,115L141.25660082143557,115L141.3064736945042,115L141.35634656757284,115L141.5059651867788,115L141.55583805984745,115L141.60571093291608,115L141.65558380598475,115L141.70545667905338,115L141.85507529825932,115L141.904948171328,115L141.95482104439662,115L142.0046939174653,115L142.05456679053395,115L142.20418540973986,115L142.25405828280853,115L142.3039311558772,115L142.3538040289458,115L142.40367690201447,115L142.55329552122043,115L142.60316839428904,115L142.6530412673577,115L142.70291414042637,115L142.752787013495,115L142.90240563270095,115L142.9522785057696,115L143.00215137883825,115L143.05202425190691,115L143.10189712497555,115L143.2515157441815,115L143.30138861725015,115L143.3512614903188,115L143.40113436338743,115L143.4510072364561,115L143.60062585566203,115L143.65049872873067,115L143.70037160179933,115L143.750244474868,115L143.80011734793663,115L143.94973596714257,115L143.99960884021124,115L144.04948171327987,115L144.0993545863485,115L144.14922745941718,115L144.29884607862314,115L144.34871895169175,115L144.39859182476042,115L144.44846469782905,115L144.49833757089772,115L144.64795619010366,115L144.6978290631723,115L144.74770193624096,115L144.79757480930962,115L144.84744768237823,115L144.9970663015842,115L145.04693917465286,115L145.09681204772147,115L145.14668492079014,115L145.1965577938588,115L145.34617641306474,115L145.44592215920204,115L145.49579503227068,115L145.54566790533934,115L145.69528652454528,115L145.79503227068258,115L145.84490514375122,115L145.89477801681986,115L146.04439663602582,115L146.09426950909446,115L146.1441423821631,115L146.19401525523176,115L146.24388812830043,115L146.39350674750636,115L146.443379620575,115L146.49325249364367,115L146.5431253667123,115L146.59299823978094,115L146.79248973205554,115L146.84236260512418,115L146.89223547819284,115L146.94210835126148,115L147.09172697046742,115L147.14159984353608,115L147.19147271660475,115L147.2413455896734,115L147.29121846274202,115L147.440837081948,115L147.49070995501663,115L147.54058282808526,115L147.5904557011539,115L147.64032857422256,115L147.7899471934285,115L147.83982006649717,115L147.8896929395658,115L147.93956581263447,115L147.9894386857031,115L148.1889301779777,115L148.23880305104638,115L148.28867592411498,115L148.33854879718365,115L148.48816741638962,115L148.53804028945822,115L148.5879131625269,115L148.63778603559555,115L148.6876589086642,115L148.83727752787013,115L148.8871504009388,115L148.93702327400743,115L148.9868961470761,115L149.0367690201447,115L149.18638763935067,115L149.23626051241934,115L149.28613338548797,115L149.3360062585566,115L149.38587913162527,115L149.5354977508312,115L149.58537062389985,115L149.6352434969685,115L149.68511637003718,115L149.73498924310582,115L149.88460786231175,115L149.93448073538042,115L149.98435360844906,115L150.0342264815177,115L150.2337179737923,115L150.28359084686093,115L150.3334637199296,115L150.38333659299823,115L150.4332094660669,115L150.58282808527284,115L150.63270095834147,115L150.68257383141014,115L150.7324467044788,115L150.7823195775474,115L150.93193819675338,115L150.98181106982204,115L151.03168394289065,115L151.08155681595932,115L151.13142968902798,115L151.2810483082339,115L151.33092118130256,115L151.38079405437122,115L151.43066692743986,115L151.48053980050852,115L151.63015841971446,115L151.6800312927831,115L151.72990416585176,115L151.7797770389204,115L151.82964991198904,115L151.979268531195,115L152.02914140426364,115L152.07901427733228,115L152.12888715040094,115L152.1787600234696,115L152.32837864267552,115L152.37825151574418,115L152.42812438881285,115L152.47799726188148,115L152.52787013495012,115L152.6774887541561,115L152.72736162722472,115L152.77723450029336,115L152.82710737336203,115L152.87698024643066,115L153.0265988656366,115L153.07647173870527,115L153.1263446117739,115L153.17621748484257,115L153.2260903579112,115L153.37570897711714,115L153.4255818501858,115L153.47545472325444,115L153.52532759632308,115L153.57520046939175,115L153.72481908859768,115L153.77469196166632,115L153.82456483473499,115L153.87443770780365,115L153.9243105808723,115L154.07392920007823,115L154.1238020731469,115L154.17367494621553,115L154.22354781928416,115L154.27342069235283,115L154.4230393115588,115L154.4729121846274,115L154.52278505769607,115L154.5726579307647,115L154.62253080383337,115L154.7721494230393,115L154.82202229610795,115L154.8718951691766,115L154.92176804224528,115L154.97164091531388,115L155.12125953451985,115L155.17113240758852,115L155.22100528065712,115L155.2708781537258,115L155.32075102679445,115L155.4703696460004,115L155.52024251906903,115L155.5701153921377,115L155.61998826520633,115L155.669861138275,115L155.81947975748093,115L155.8693526305496,115L155.91922550361824,115L155.96909837668687,115L156.0189712497555,115L156.16858986896148,115L156.2184627420301,115L156.26833561509875,115L156.31820848816741,115L156.36808136123608,115L156.51769998044202,115L156.56757285351065,115L156.61744572657932,115L156.66731859964796,115L156.7171914727166,115L156.86681009192256,115L156.91668296499122,115L156.96655583805983,115L157.0164287111285,115L157.06630158419713,115L157.21592020340307,115L157.26579307647174,115L157.3156659495404,115L157.36553882260904,115L157.4154116956777,115L157.56503031488364,115L157.61490318795228,115L157.66477606102094,115L157.71464893408955,115L157.76452180715822,115L157.91414042636418,115L157.96401329943282,115L158.01388617250146,115L158.06375904557012,115L158.11363191863876,115L158.2632505378447,115L158.31312341091336,115L158.36299628398203,115L158.41286915705066,115L158.4627420301193,115L158.61236064932527,115L158.6622335223939,115L158.71210639546254,115L158.76197926853118,115L158.81185214159984,115L158.96147076080578,115L159.01134363387445,115L159.06121650694308,115L159.11108938001175,115L159.16096225308036,115L159.31058087228632,115L159.360453745355,115L159.41032661842362,115L159.46019949149226,115L159.51007236456093,115L159.65969098376686,115L159.7095638568355,115L159.75943672990417,115L159.80930960297283,115L159.85918247604147,115L160.0088010952474,115L160.05867396831607,115L160.1085468413847,115L160.15841971445334,115L160.20829258752198,115L160.35791120672795,115L160.40778407979658,115L160.45765695286525,115L160.5075298259339,115L160.55740269900255,115L160.7070213182085,115L160.75689419127713,115L160.8067670643458,115L160.85663993741446,115L160.90651281048306,115L161.05613142968903,115L161.1060043027577,115L161.1558771758263,115L161.20575004889497,115L161.25562292196364,115L161.40524154116954,115L161.4551144142382,115L161.50498728730688,115L161.5548601603755,115L161.60473303344418,115L161.75435165265012,115L161.80422452571875,115L161.85409739878742,115L161.90397027185605,115L161.9538431449247,115L162.10346176413066,115L162.1533346371993,115L162.20320751026793,115L162.30295325640526,115L162.45257187561117,115L162.50244474867984,115L162.5523176217485,115L162.60219049481714,115L162.65206336788577,115L162.80168198709174,115L162.85155486016038,115L162.901427733229,115L162.95130060629768,115L163.00117347936632,115L163.15079209857225,115L163.20066497164092,115L163.25053784470956,115L163.30041071777822,115L163.35028359084689,115L163.4999022100528,115L163.54977508312146,115L163.59964795619013,115L163.64952082925873,115L163.6993937023274,115L163.84901232153337,115L163.89888519460197,115L163.94875806767064,115L163.9986309407393,115L164.04850381380794,115L164.19812243301388,115L164.24799530608254,115L164.29786817915118,115L164.34774105221985,115L164.39761392528848,115L164.54723254449442,115L164.59710541756309,115L164.64697829063172,115L164.69685116370036,115L164.74672403676902,115L164.89634265597496,115L164.9462155290436,115L164.99608840211226,115L165.04596127518093,115L165.09583414824954,115L165.2454527674555,115L165.29532564052417,115L165.34519851359278,115L165.39507138666144,115L165.4449442597301,115L165.59456287893605,115L165.64443575200468,115L165.69430862507335,115L165.74418149814198,115L165.79405437121065,115L165.9436729904166,115L165.99354586348522,115L166.0434187365539,115L166.09329160962253,115L166.14316448269116,115L166.29278310189713,115L166.34265597496577,115L166.3925288480344,115L166.44240172110307,115L166.49227459417173,115L166.64189321337767,115L166.6917660864463,115L166.74163895951497,115L166.7915118325836,115L166.84138470565225,115L166.9910033248582,115L167.04087619792688,115L167.09074907099549,115L167.14062194406415,115L167.1904948171328,115L167.34011343633873,115L167.3899863094074,115L167.43985918247603,115L167.4897320555447,115L167.53960492861336,115L167.6892235478193,115L167.73909642088793,115L167.7889692939566,115L167.8388421670252,115L167.88871504009387,115L168.03833365929984,115L168.08820653236847,115L168.1380794054371,115L168.18795227850578,115L168.2378251515744,115L168.38744377078035,115L168.43731664384902,115L168.48718951691768,115L168.53706238998632,115L168.58693526305495,115L168.73655388226092,115L168.78642675532956,115L168.8362996283982,115L168.88617250146683,115L168.9360453745355,115L169.08566399374143,115L169.1355368668101,115L169.18540973987874,115L169.2352826129474,115L169.28515548601604,115L169.43477410522198,115L169.48464697829064,115L169.5345198513593,115L169.58439272442791,115L169.63426559749658,115L169.78388421670255,115L169.83375708977115,115L169.88362996283982,115L169.93350283590848,115L169.98337570897712,115L170.13299432818306,115L170.18286720125172,115L170.23274007432036,115L170.28261294738903,115L170.33248582045763,115L170.4821044396636,115L170.53197731273227,115L170.5818501858009,115L170.63172305886954,115L170.6815959319382,115L170.83121455114414,115L170.88108742421278,115L170.93096029728144,115L170.9808331703501,115L171.03070604341872,115L171.18032466262468,115L171.23019753569335,115L171.28007040876196,115L171.32994328183062,115L171.3798161548993,115L171.5294347741052,115L171.57930764717386,115L171.62918052024253,115L171.67905339331116,115L171.72892626637983,115L171.87854488558577,115L171.9284177586544,115L171.97829063172307,115L172.0281635047917,115L172.07803637786034,115L172.2276549970663,115L172.27752787013495,115L172.32740074320358,115L172.37727361627225,115L172.4271464893409,115L172.57676510854682,115L172.6266379816155,115L172.67651085468415,115L172.7263837277528,115L172.77625660082143,115L172.9258752200274,115L172.97574809309603,115L173.02562096616467,115L173.07549383923333,115L173.12536671230197,115L173.2749853315079,115L173.32485820457657,115L173.3747310776452,115L173.42460395071387,115L173.47447682378254,115L173.62409544298845,115L173.6739683160571,115L173.72384118912578,115L173.7737140621944,115L173.82358693526305,115L173.97320555446902,115L174.02307842753763,115L174.0729513006063,115L174.12282417367496,115L174.1726970467436,115L174.32231566594953,115L174.3721885390182,115L174.42206141208683,115L174.4719342851555,115L174.52180715822414,115L174.67142577743007,115L174.72129865049874,115L174.77117152356738,115L174.821044396636,115L174.87091726970468,115L175.02053588891062,115L175.07040876197925,115L175.12028163504792,115L175.17015450811658,115L175.22002738118522,115L175.36964600039116,115L175.41951887345982,115L175.46939174652846,115L175.5192646195971,115L175.56913749266576,115L175.7187561118717,115L175.76862898494034,115L175.818501858009,115L175.86837473107764,115L175.9182476041463,115L176.06786622335224,115L176.11773909642088,115L176.16761196948954,115L176.2174848425582,115L176.26735771562682,115L176.41697633483278,115L176.46684920790145,115L176.51672208097006,115L176.56659495403872,115L176.61646782710739,115L176.76608644631332,115L176.81595931938196,115L176.86583219245063,115L176.91570506551926,115L176.96557793858793,115L177.11519655779387,115L177.1650694308625,115L177.21494230393114,115L177.2648151769998,115L177.31468805006844,115L177.46430666927438,115L177.51417954234304,115L177.56405241541168,115L177.61392528848035,115L177.663798161549,115L177.81341678075495,115L177.86328965382359,115L177.91316252689225,115L177.96303539996086,115L178.01290827302952,115L178.1625268922355,115L178.21239976530413,115L178.26227263837276,115L178.31214551144143,115L178.36201838451007,115L178.511637003716,115L178.56150987678467,115L178.6113827498533,115L178.66125562292197,115L178.7111284959906,115L178.86074711519657,115L178.9106199882652,115L178.96049286133385,115L179.01036573440248,115L179.06023860747115,115L179.2098572266771,115L179.25973009974575,115L179.3096029728144,115L179.35947584588305,115L179.4093487189517,115L179.55896733815763,115L179.6088402112263,115L179.65871308429496,115L179.70858595736357,115L179.75845883043223,115L179.9080774496382,115L179.9579503227068,115L180.00782319577547,115L180.0576960688441,115L180.10756894191277,115L180.2571875611187,115L180.30706043418738,115L180.356933307256,115L180.40680618032468,115L180.4566790533933,115L180.60629767259925,115L180.65617054566792,115L180.70604341873656,115L180.7559162918052,115L180.80578916487386,115L180.9554077840798,115L181.00528065714843,115L181.0551535302171,115L181.10502640328576,115L181.1548992763544,115L181.30451789556034,115L181.354390768629,115L181.40426364169764,115L181.45413651476628,115L181.5040093878349,115L181.65362800704088,115L181.70350088010952,115L181.75337375317818,115L181.80324662624682,115L181.85311949931548,115L182.00273811852142,115L182.05261099159006,115L182.10248386465872,115L182.1523567377274,115L182.202229610796,115L182.35184823000196,115L182.40172110307063,115L182.45159397613924,115L182.5014668492079,115L182.55133972227657,115L182.70095834148248,115L182.75083121455114,115L182.8007040876198,115L182.85057696068844,115L182.9004498337571,115L183.05006845296305,115L183.09994132603168,115L183.14981419910032,115L183.19968707216898,115L183.24955994523762,115L183.39917856444356,115L183.44905143751222,115L183.49892431058086,115L183.54879718364953,115L183.5986700567182,115L183.7482886759241,115L183.79816154899277,115L183.84803442206143,115L183.89790729513004,115L183.9477801681987,115L184.09739878740467,115L184.14727166047328,115L184.19714453354194,115L184.2470174066106,115L184.29689027967925,115L184.44650889888518,115L184.49638177195385,115L184.5462546450225,115L184.59612751809115,115L184.6460003911598,115L184.79561901036573,115L184.8454918834344,115L184.89536475650303,115L184.94523762957166,115L184.99511050264033,115L185.14472912184627,115L185.1946019949149,115L185.24447486798357,115L185.29434774105223,115L185.34422061412087,115L185.4938392333268,115L185.54371210639547,115L185.5935849794641,115L185.64345785253275,115L185.6933307256014,115L185.84294934480735,115L185.892822217876,115L185.94269509094465,115L185.9925679640133,115L186.04244083708195,115L186.1920594562879,115L186.24193232935653,115L186.2918052024252,115L186.34167807549386,115L186.39155094856247,115L186.54116956776843,115L186.5910424408371,115L186.6409153139057,115L186.69078818697437,115L186.74066106004304,115L186.89027967924898,115L186.9401525523176,115L186.99002542538628,115L187.03989829845491,115L187.08977117152358,115L187.23938979072952,115L187.28926266379816,115L187.33913553686682,115L187.38900840993546,115L187.4388812830041,115L187.58849990221006,115L187.6383727752787,115L187.68824564834733,115L187.738118521416,115L187.78799139448466,115L187.9376100136906,115L187.98748288675924,115L188.0373557598279,115L188.08722863289654,115L188.13710150596518,115L188.28672012517114,115L188.33659299823978,115L188.38646587130842,115L188.43633874437708,115L188.48621161744572,115L188.63583023665166,115L188.68570310972032,115L188.73557598278896,115L188.78544885585762,115L188.8353217289263,115L188.98494034813223,115L189.03481322120086,115L189.08468609426953,115L189.13455896733814,115L189.1844318404068,115L189.33405045961274,115L189.3839233326814,115L189.43379620575004,115L189.4836690788187,115L189.53354195188734,115L189.68316057109328,115L189.73303344416195,115L189.78290631723058,115L189.83277919029922,115L189.88265206336789,115L190.03227068257385,115L190.08214355564246,115L190.13201642871113,115L190.18188930177976,115L190.23176217484843,115L190.38138079405437,115L190.43125366712303,115L190.48112654019167,115L190.53099941326033,115L190.58087228632894,115L190.7304909055349,115L190.78036377860357,115L190.8302366516722,115L190.88010952474085,115L190.9299823978095,115L191.07960101701545,115L191.12947389008409,115L191.17934676315275,115L191.2292196362214,115L191.27909250929005,115L191.428711128496,115L191.47858400156466,115L191.5284568746333,115L191.57832974770193,115L191.62820262077057,115L191.77782123997653,115L191.82769411304517,115L191.87756698611383,115L191.92743985918247,115L191.97731273225114,115L192.12693135145707,115L192.1768042245257,115L192.22667709759438,115L192.27654997066304,115L192.32642284373165,115L192.47604146293762,115L192.52591433600628,115L192.5757872090749,115L192.62566008214355,115L192.6755329552122,115L192.82515157441813,115L192.8750244474868,115L192.92489732055546,115L192.9747701936241,115L193.02464306669276,115L193.1742616858987,115L193.22413455896734,115L193.274007432036,115L193.32388030510464,115L193.37375317817327,115L193.52337179737924,115L193.57324467044788,115L193.6231175435165,115L193.67299041658518,115L193.72286328965384,115L193.87248190885975,115L193.92235478192842,115L193.97222765499708,115L194.02210052806572,115L194.07197340113436,115L194.22159202034032,115L194.27146489340896,115L194.3213377664776,115L194.37121063954626,115L194.4210835126149,115L194.57070213182084,115L194.6205750048895,115L194.67044787795814,115L194.7203207510268,115L194.77019362409547,115L194.91981224330138,115L194.96968511637004,115L195.0195579894387,115L195.06943086250732,115L195.11930373557598,115L195.26892235478192,115L195.31879522785056,115L195.36866810091922,115L195.4185409739879,115L195.46841384705652,115L195.61803246626246,115L195.66790533933113,115L195.71777821239976,115L195.7676510854684,115L195.81752395853707,115L195.967142577743,115L196.01701545081164,115L196.0668883238803,115L196.11676119694894,115L196.1666340700176,115L196.31625268922355,115L196.36612556229218,115L196.41599843536085,115L196.4658713084295,115L196.51574418149812,115L196.6653628007041,115L196.71523567377275,115L196.76510854684136,115L196.81498141991003,115L196.8648542929787,115L197.0144729121846,115L197.06434578525327,115L197.11421865832193,115L197.16409153139057,115L197.21396440445923,115L197.36358302366517,115L197.4134558967338,115L197.46332876980247,115L197.5132016428711,115L197.56307451593975,115L197.7126931351457,115L197.76256600821435,115L197.812438881283,115L197.86231175435165,115L197.91218462742032,115L198.06180324662625,115L198.1116761196949,115L198.16154899276356,115L198.2114218658322,115L198.26129473890083,115L198.4109133581068,115L198.46078623117543,115L198.51065910424407,115L198.56053197731273,115L198.61040485038137,115L198.7600234695873,115L198.80989634265597,115L198.8597692157246,115L198.90964208879328,115L198.95951496186194,115L199.10913358106788,115L199.15900645413652,115L199.20887932720518,115L199.2587522002738,115L199.30862507334245,115L199.45824369254842,115L199.50811656561706,115L199.5579894386857,110L199.60786231175436,110L199.657735184823,110L199.80735380402893,110L199.8572266770976,110L199.90709955016624,110L199.9569724232349,110L200.00684529630354,110L200.1564639155095,110L200.20633678857814,110L200.25620966164678,110L200.30608253471542,110L200.35595540778408,110L200.50557402699002,110L200.55544690005868,110L200.60531977312732,110L200.65519264619599,110L200.70506551926462,110L200.85468413847056,110L200.90455701153923,110L200.9544298846079,110L201.0043027576765,110L201.05417563074516,110L201.20379424995113,110L201.25366712301974,110L201.3035399960884,110L201.35341286915704,110L201.4032857422257,110L201.55290436143164,110L201.6027772345003,110L201.65265010756895,110L201.70252298063758,110L201.75239585370622,110L201.90201447291219,110L201.95188734598082,110L202.0017602190495,110L202.05163309211812,110L202.1015059651868,110L202.25112458439273,110L202.30099745746136,110L202.35087033053003,110L202.4007432035987,110L202.4506160766673,110L202.60023469587327,110L202.65010756894193,110L202.69998044201054,110L202.7498533150792,110L202.79972618814784,110L202.94934480735378,110L202.99921768042245,110L203.0490905534911,110L203.09896342655975,110L203.1488362996284,110L203.29845491883435,110L203.348327791903,110L203.39820066497165,110L203.4480735380403,110L203.49794641110893,110L203.6475650303149,110L203.69743790338353,110L203.74731077645217,110L203.79718364952083,110L203.84705652258947,110L203.9966751417954,110L204.04654801486407,110L204.09642088793274,110L204.14629376100137,110L204.19616663407,110L204.34578525327598,110L204.3956581263446,110L204.44553099941325,110L204.49540387248192,110L204.54527674555055,110L204.6948953647565,110L204.74476823782516,110L204.7946411108938,110L204.84451398396246,110L204.89438685703112,110L205.04400547623703,110L205.0938783493057,110L205.14375122237436,110L205.19362409544297,110L205.24349696851164,110L205.3931155877176,110L205.4429884607862,110L205.49286133385488,110L205.54273420692354,110L205.59260707999218,110L205.74222569919812,110L205.79209857226678,110L205.84197144533542,110L205.89184431840408,110L205.94171719147272,110L206.09133581067866,110L206.14120868374732,110L206.19108155681596,110L206.2409544298846,110L206.29082730295326,110L206.4404459221592,110L206.49031879522784,110L206.5401916682965,110L206.59006454136517,110L206.6399374144338,110L206.78955603363974,110L206.8394289067084,110L206.88930177977704,110L206.93917465284568,110L206.98904752591434,110L207.13866614512028,110L207.18853901818892,110L207.23841189125758,110L207.28828476432622,110L207.3381576373949,110L207.48777625660082,110L207.53764912966946,110L207.58752200273813,110L207.63739487580676,110L207.6872677488754,110L207.83688636808137,110L207.88675924115,110L207.93663211421864,110L207.9865049872873,110L208.03637786035597,110L208.18599647956188,110L208.23586935263054,110L208.2857422256992,110L208.33561509876785,110L208.38548797183648,110L208.53510659104245,110L208.5849794641111,110L208.63485233717972,110L208.6847252102484,110L208.73459808331702,110L208.88421670252296,110L208.93408957559163,110L208.98396244866026,110L209.03383532172893,110L209.0837081947976,110L209.23332681400353,110L209.28319968707217,110L209.33307256014083,110L209.38294543320944,110L209.4328183062781,110L209.58243692548407,110L209.63230979855268,110L209.68218267162135,110L209.73205554469,110L209.78192841775865,110L209.9315470369646,110L209.98141991003325,110L210.0312927831019,110L210.08116565617055,110L210.1310385292392,110L210.28065714844516,110L210.3305300215138,110L210.38040289458243,110L210.43027576765107,110L210.48014864071973,110L210.62976725992567,110L210.67964013299434,110L210.72951300606297,110L210.77938587913164,110L210.82925875220027,110L210.9788773714062,110L211.02875024447488,110L211.07862311754351,110L211.12849599061215,110L211.17836886368082,110L211.32798748288678,110L211.3778603559554,110L211.42773322902406,110L211.4776061020927,110L211.52747897516136,110L211.6770975943673,110L211.72697046743596,110L211.7768433405046,110L211.82671621357326,110L211.87658908664187,110L212.02620770584784,110L212.0760805789165,110L212.12595345198514,110L212.17582632505378,110L212.22569919812244,110L212.37531781732838,110L212.42519069039702,110L212.47506356346568,110L212.52493643653432,110L212.57480930960298,110L212.72442792880892,110L212.7743008018776,110L212.82417367494622,110L212.87404654801486,110L212.9239194210835,110L213.07353804028946,110L213.1234109133581,110L213.17328378642677,110L213.2231566594954,110L213.27302953256407,110L213.42264815177,110L213.47252102483864,110L213.5223938979073,110L213.57226677097594,110L213.62213964404458,110L213.77175826325055,110L213.82163113631918,110L213.87150400938782,110L213.92137688245649,110L213.97124975552512,110L214.12086837473106,110L214.17074124779973,110L214.2206141208684,110L214.27048699393703,110L214.32035986700566,110L214.46997848621163,110L214.51985135928027,110L214.5697242323489,110L214.61959710541757,110L214.6694699784862,110L214.81908859769214,110L214.8689614707608,110L214.91883434382945,110L214.9687072168981,110L215.01858008996678,110L215.16819870917269,110L215.21807158224135,110L215.26794445531002,110L215.31781732837862,110L215.3676902014473,110L215.51730882065326,110L215.56718169372186,110L215.61705456679053,110L215.6669274398592,110L215.71680031292783,110L215.86641893213377,110L215.91629180520243,110L215.96616467827107,110L216.01603755133974,110L216.06591042440837,110L216.2155290436143,110L216.26540191668298,110L216.3152747897516,110L216.36514766282025,110L216.4150205358889,110L216.56463915509485,110L216.6145120281635,110L216.66438490123215,110L216.71425777430082,110L216.76413064736946,110L216.9137492665754,110L216.96362213964406,110L217.0134950127127,110L217.06336788578133,110L217.11324075885,110L217.26285937805594,110L217.31273225112457,110L217.36260512419324,110L217.41247799726187,110L217.46235087033054,110L217.61196948953648,110L217.6618423626051,110L217.71171523567378,105L217.76158810874244,105L217.81146098181105,105L217.96107960101702,105L218.01095247408568,105L218.0608253471543,105L218.11069822022296,105L218.16057109329162,105L218.31018971249753,105L218.3600625855662,105L218.40993545863486,105L218.4598083317035,105L218.50968120477216,105L218.6592998239781,105L218.70917269704674,105L218.7590455701154,105L218.80891844318404,105L218.85879131625268,105L219.00840993545864,105L219.05828280852728,105L219.10815568159592,105L219.15802855466458,105L219.20790142773325,105L219.35752004693916,105L219.40739292000782,105L219.4572657930765,105L219.50713866614512,105L219.55701153921376,105L219.70663015841973,105L219.75650303148834,105L219.806375904557,105L219.85624877762567,105L219.9061216506943,105L220.05574026990024,105L220.1056131429689,105L220.15548601603754,105L220.2053588891062,105L220.25523176217484,105L220.4048503813808,105L220.45472325444945,105L220.50459612751808,105L220.55446900058672,105L220.6043418736554,105L220.75396049286132,105L220.80383336592996,105L220.85370623899863,105L220.9035791120673,105L220.95345198513593,105L221.10307060434187,105L221.15294347741053,105L221.20281635047917,105L221.2526892235478,105L221.30256209661647,105L221.45218071582244,105L221.50205358889104,105L221.5519264619597,105L221.60179933502835,105L221.651672208097,105L221.80129082730295,105L221.85116370037161,105L221.90103657344025,105L221.95090944650892,105L222.00078231957752,105L222.1504009387835,105L222.20027381185216,105L222.25014668492076,100L222.30001955798943,100L222.3498924310581,100L222.49951105026403,100L222.54938392333267,100L222.59925679640133,100L222.64912966946997,100L222.69900254253864,100L222.84862116174457,100L222.89849403481324,100L222.94836690788188,100L222.9982397809505,100L223.04811265401915,100L223.19773127322512,100L223.24760414629375,100L223.29747701936242,100L223.34734989243105,100L223.39722276549972,100L223.54684138470566,100L223.5967142577743,100L223.64658713084296,100L223.6964600039116,100L223.74633287698023,100L223.8959514961862,100L223.94582436925486,100L223.99569724232347,100L224.04557011539214,100L224.09544298846077,100L224.2450616076667,100L224.29493448073538,100L224.34480735380404,100L224.39468022687268,100L224.44455309994134,100L224.59417171914728,100L224.64404459221592,100L224.69391746528458,100L224.74379033835322,100L224.79366321142186,100L224.94328183062783,100L224.99315470369646,100L225.0430275767651,100L225.09290044983376,100L225.1427733229024,100L225.29239194210834,100L225.342264815177,100L225.39213768824567,100L225.4420105613143,100L225.49188343438294,100L225.6415020535889,100L225.69137492665755,100L225.74124779972618,100L225.79112067279485,100L225.84099354586348,100L225.99061216506942,100L226.0404850381381,100L226.09035791120672,100L226.1402307842754,100L226.19010365734403,100L226.33972227654996,100L226.38959514961863,100L226.43946802268727,100L226.4893408957559,100L226.53921376882457,100L226.6888323880305,100L226.73870526109914,100L226.7885781341678,95L226.83845100723647,95L226.8883238803051,95L227.03794249951105,95L227.0878153725797,95L227.13768824564835,95L227.18756111871699,95L227.23743399178565,95L227.3870526109916,95L227.43692548406023,95L227.4867983571289,95L227.53667123019753,95L227.5865441032662,95L227.73616272247213,95L227.78603559554077,95L227.83590846860943,95L227.8857813416781,95L227.9356542147467,95L228.08527283395267,95L228.13514570702134,95L228.18501858008995,95L228.2348914531586,95L228.28476432622728,95L228.43438294543319,95L228.48425581850185,95L228.53412869157052,95L228.58400156463915,95L228.63387443770782,95L228.78349305691376,95L228.8333659299824,95L228.88323880305106,95L228.9331116761197,95L228.98298454918833,95L229.1326031683943,95L229.18247604146293,95L229.23234891453157,95L229.28222178760024,95L229.3320946606689,95L229.4817132798748,95L229.53158615294348,95L229.58145902601214,95L229.63133189908078,95L229.6812047721494,95L229.83082339135538,95L229.88069626442402,95L229.93056913749265,95L229.98044201056132,95L230.03031488362996,95L230.1799335028359,95L230.22980637590456,95L230.2796792489732,95L230.32955212204186,95L230.37942499511053,95L230.52904361431646,95L230.5789164873851,95L230.62878936045377,95L230.67866223352237,95L230.72853510659104,95L230.878153725797,95L230.9280265988656,95L230.97789947193428,95L231.02777234500294,95L231.07764521807158,95L231.22726383727752,95L231.27713671034618,95L231.32700958341482,95L231.3768824564835,95L231.42675532955212,95L231.5763739487581,95L231.62624682182673,95L231.67611969489536,95L231.725992567964,95L231.77586544103266,95L231.9254840602386,95L231.97535693330727,95L232.0252298063759,95L232.07510267944457,95L232.12497555251318,95L232.27459417171914,95L232.3244670447878,95L232.37433991785642,95L232.42421279092508,95L232.47408566399375,95L232.6237042831997,95L232.67357715626832,95L232.723450029337,95L232.77332290240562,95L232.8231957754743,95L232.97281439468023,95L233.0226872677489,95L233.07256014081753,95L233.12243301388617,95L233.1723058869548,95L233.32192450616077,95L233.3717973792294,95L233.42167025229804,95L233.4715431253667,95L233.52141599843537,95L233.6710346176413,95L233.72090749070995,95L233.7707803637786,95L233.82065323684725,95L233.8705261099159,95L234.02014472912185,95L234.07001760219052,95L234.11989047525913,95L234.1697633483278,95L234.21963622139643,95L234.36925484060237,95L234.41912771367103,95L234.4690005867397,95L234.51887345980833,95L234.568746332877,95L234.71836495208294,95L234.76823782515157,95L234.81811069822024,95L234.86798357128885,95L234.9178564443575,95L235.06747506356348,95L235.11734793663211,95L235.16722080970075,95L235.21709368276942,95L235.26696655583805,95L235.416585175044,95L235.46645804811266,95L235.51633092118132,95L235.56620379424996,95L235.6160766673186,95L235.76569528652456,95L235.8155681595932,95L235.86544103266183,90L235.9153139057305,90L235.96518677879914,90L236.11480539800507,90L236.16467827107374,90L236.21455114414238,90L236.26442401721104,90L236.31429689027968,90L236.46391550948562,90L236.51378838255428,90L236.56366125562295,90L236.61353412869155,90L236.66340700176022,90L236.8130256209662,90L236.8628984940348,90L236.91277136710346,90L236.96264424017212,90L237.01251711324076,90L237.1621357324467,90L237.21200860551536,90L237.261881478584,90L237.31175435165267,90L237.3616272247213,90L237.51124584392724,90L237.5611187169959,90L237.61099159006454,90L237.66086446313318,90L237.71073733620184,90L237.86035595540778,90L237.91022882847642,90L237.96010170154509,90L238.00997457461375,90L238.05984744768236,90L238.20946606688833,90L238.259338939957,90L238.3092118130256,90L238.35908468609426,90L238.40895755916293,90L238.55857617836884,90L238.6084490514375,90L238.65832192450617,90L238.7081947975748,90L238.75806767064347,90L238.9076862898494,90L238.95755916291805,90L239.0074320359867,90L239.05730490905535,90L239.10717778212398,90L239.25679640132995,90L239.3066692743986,90L239.35654214746722,90L239.4064150205359,90L239.45628789360455,90L239.60590651281046,90L239.65577938587913,90L239.7056522589478,90L239.75552513201643,90L239.80539800508507,90L239.95501662429103,90L240.00488949735967,90L240.0547623704283,90L240.10463524349697,90L240.1545081165656,90L240.30412673577155,90L240.3539996088402,90L240.40387248190885,90L240.4537453549775,90L240.50361822804618,90L240.6532368472521,90L240.70310972032075,90L240.75298259338942,85L240.80285546645803,85L240.8527283395267,85L241.00234695873266,85L241.05221983180127,85L241.10209270486993,85L241.1519655779386,85L241.20183845100723,85L241.35145707021317,85L241.40132994328184,85L241.45120281635047,85L241.50107568941914,85L241.55094856248778,85L241.70056718169374,85L241.75044005476238,85L241.80031292783102,85L241.85018580089965,85L241.90005867396832,85L242.04967729317426,85L242.0995501662429,85L242.14942303931156,85L242.19929591238022,85L242.24916878544886,85L242.3987874046548,85L242.44866027772346,85L242.4985331507921,85L242.54840602386074,85L242.5982788969294,85L242.74789751613537,85L242.79777038920398,85L242.84764326227264,85L242.89751613534128,85L242.94738900840994,85" fill="none" stroke="#af516c" stroke-linejoin="round" stroke-linecap="round" stroke-width="2"></path></g></g></svg>