<svg xmlns="http://www.w3.org/2000/svg" viewBox="0 0 304 270"><style>/* <![CDATA[ */.chart-title{font-size:20px;fill:#43423e}.chart-subtitle{font-size:15px;fill:#74736c}.chart-source{font-size:10px;fill-opacity:.4}.axis .domain{fill:none;stroke:#74736c}.tick line{fill:none;stroke:#000;stroke-opacity:.2}.tick text{fill-opacity:.6;font-size:12px}.y.axis .tick line{stroke-dasharray:1}.y.axis .domain{fill:none;stroke-opacity:0}.y.axis .highlight-line{fill:none;stroke:#74736c}/* ]]> */</style><text class="chart-title" y="22">联邦基金有效利率</text><text class="chart-subtitle" y="42">％</text><text class="chart-source" y="265">来源:美国联准会╱彭博. 2018年5月4日</text><g transform="translate(1,100)"><g class="x axis" transform="translate(0,120)" fill="none" font-size="10" font-family="sans-serif" text-anchor="middle"><path class="domain" stroke="#000" d="M0.5,0V0.5H255.5V0"></path><g class="tick" opacity="1" transform="translate(18.703598670056717,0)"><line stroke="#000" y2="6"></line><text fill="#000" y="9" dy="0.71em">2006</text></g><g class="tick" opacity="1" transform="translate(55.110796010170155,0)"><line stroke="#000" y2="6"></line><text fill="#000" y="9" dy="0.71em">2008</text></g><g class="tick" opacity="1" transform="translate(91.56786622335224,0)"><line stroke="#000" y2="6"></line><text fill="#000" y="9" dy="0.71em">2010</text></g><g class="tick" opacity="1" transform="translate(127.97506356346567,0)"><line stroke="#000" y2="6"></line><text fill="#000" y="9" dy="0.71em">2012</text></g><g class="tick" opacity="1" transform="translate(164.43213377664776,0)"><line stroke="#000" y2="6"></line><text fill="#000" y="9" dy="0.71em">2014</text></g><g class="tick" opacity="1" transform="translate(200.8393311167612,0)"><line stroke="#000" y2="6"></line><text fill="#000" y="9" dy="0.71em">2016</text></g><g class="tick" opacity="1" transform="translate(237.29640132994328,0)"><line stroke="#000" y2="6"></line><text fill="#000" y="9" dy="0.71em">2018</text></g></g><g class="y axis" transform="translate(255,0)" fill="none" font-size="10" font-family="sans-serif" text-anchor="start"><path class="domain" stroke="#000" d="M0,120.5H0.5V0.5H0"></path><g class="tick" opacity="1" transform="translate(0,120.5)"><line stroke="#000" x2="-255"></line><text fill="#000" x="3" dy="0.32em">0</text></g><g class="tick" opacity="1" transform="translate(0,80.5)"><line stroke="#000" x2="-255"></line><text fill="#000" x="3" dy="0.32em">2</text></g><g class="tick" opacity="1" transform="translate(0,40.5)"><line stroke="#000" x2="-255"></line><text fill="#000" x="3" dy="0.32em">4</text></g><g class="tick" opacity="1" transform="translate(0,0.5)"><line stroke="#000" x2="-255"></line><text fill="#000" x="3" dy="0.32em">6</text></g><line class="highlight-line" x1="0" y1="120" x2="-255" y2="120"></line></g><g><path d="M0.11637003716017993,73.8L0.16624291022882848,75L0.21611578329747702,75L0.26598865636612556,75L0.3158615294347741,75.19999999999999L0.46548014864071974,74.80000000000001L0.5153530217093684,75.19999999999999L0.5652258947780168,75L0.6150987678466653,74.2L0.6649716409153139,74.2L0.8644631331899081,73.8L0.9143360062585567,76.2L0.9642088793272051,75L1.0140817523958536,74.80000000000001L1.1637003716017993,74.80000000000001L1.213573244670448,74.2L1.2634461177390963,73.4L1.313318990807745,72.19999999999999L1.3631918638763936,70.4L1.512810483082339,70L1.5626833561509876,72L1.612556229219636,74.2L1.6624291022882849,70.19999999999999L1.7123019753569333,69.80000000000001L1.861920594562879,70L1.9117934676315276,70.4L1.961666340700176,70L2.0115392137688244,69.80000000000001L2.0614120868374735,70L2.211030706043419,69.80000000000001L2.260903579112067,69.4L2.3107764521807157,70.4L2.3606493252493643,70L2.410522198318013,69.80000000000001L2.6100136905926075,68.60000000000001L2.6598865636612556,69.4L2.7097594367299043,69L2.759632309798553,69.2L2.9092509290044983,69.6L2.959123802073147,72.19999999999999L3.008996675141795,70.4L3.0588695482104438,69.80000000000001L3.108742421279093,70L3.2583610404850383,69.80000000000001L3.308233913553687,70.19999999999999L3.358106786622335,70L3.4079796596909837,69.6L3.4578525327596323,69.80000000000001L3.607471151965578,68.2L3.657344025034227,67.8L3.707216898102875,68.60000000000001L3.7570897711715237,66.39999999999999L3.8069626442401723,66L3.9565812634461177,65.8L4.006454136514766,65.6L4.0563270095834145,65.4L4.106199882652064,65L4.156072755720712,64L4.305691374926657,64.19999999999999L4.355564247995305,65.6L4.4054371210639545,65.19999999999999L4.4553099941326035,60.8L4.505182867201252,63.4L4.654801486407197,64.39999999999999L4.704674359475845,65.6L4.754547232544494,65.4L4.804420105613143,64.80000000000001L4.854292978681792,65L5.003911597887737,64.39999999999999L5.053784470956385,64.6L5.103657344025034,64.80000000000001L5.1535302170936825,64.19999999999999L5.203403090162332,63.6L5.353021709368276,65L5.402894582436925,65.19999999999999L5.452767455505574,65.19999999999999L5.5026403285742225,65L5.5525132016428715,65.19999999999999L5.702131820848816,63.6L5.752004693917465,64.39999999999999L5.801877566986113,67.4L5.851750440054762,62.199999999999996L5.901623313123411,60.60000000000001L6.051241932329356,60.400000000000006L6.101114805398005,61L6.150987678466653,60.199999999999996L6.200860551535302,60.199999999999996L6.2507334246039505,60.400000000000006L6.400352043809896,60.199999999999996L6.450224916878544,60.199999999999996L6.500097789947193,60.199999999999996L6.549970663015842,59.80000000000001L6.5998435360844905,59.80000000000001L6.749462155290437,58.8L6.799335028359084,60.199999999999996L6.849207901427733,60L6.899080774496381,59.6L6.94895364756503,59.80000000000001L7.098572266770977,59.80000000000001L7.148445139839624,60.199999999999996L7.198318012908273,59.80000000000001L7.248190885976921,59.80000000000001L7.29806375904557,59.80000000000001L7.497555251320164,58.199999999999996L7.547428124388813,59.6L7.597300997457461,60L7.64717387052611,60.199999999999996L7.796792489732056,60L7.846665362800704,60.8L7.896538235869352,60.8L7.946411108938001,59.80000000000001L7.996283982006649,59.80000000000001L8.145902601212596,59.199999999999996L8.195775474281245,59.80000000000001L8.245648347349894,59L8.295521220418541,60L8.345394093487188,60.199999999999996L8.495012712693134,59.80000000000001L8.544885585761783,60.8L8.594758458830432,61.4L8.644631331899081,59L8.69450420496773,58.60000000000001L8.844122824173676,56.6L8.893995697242325,56.6L8.943868570310972,56L8.993741443379621,53L9.043614316448268,52.80000000000001L9.243105808722863,54.599999999999994L9.292978681791512,60.199999999999996L9.342851554860161,56.4L9.392724427928808,55.599999999999994L9.542343047134755,55.400000000000006L9.592215920203403,55.400000000000006L9.642088793272052,54.599999999999994L9.6919616663407,53.599999999999994L9.74183453940935,53.599999999999994L9.891453158615294,56.2L9.941326031683943,57.400000000000006L9.991198904752592,55L10.041071777821239,54.599999999999994L10.090944650889888,55L10.240563270095835,54.39999999999999L10.290436143164483,55L10.340309016233132,54.599999999999994L10.39018188930178,54.599999999999994L10.44005476237043,53.8L10.589673381576374,54.000000000000014L10.639546254645023,56L10.68941912771367,53L10.739292000782319,51.2L10.789164873850968,50.2L10.938783493056913,50L10.988656366125563,50.60000000000001L11.038529239194212,50.400000000000006L11.08840211226286,49.80000000000001L11.138274985331508,49L11.287893604537453,47.8L11.337766477606102,50.8L11.38763935067475,48.60000000000001L11.437512223743399,50L11.487385096812048,49.2L11.637003716017993,49.80000000000001L11.686876589086642,50.2L11.736749462155291,50L11.78662233522394,49L11.836495208292588,49.2L11.986113827498533,49.2L12.03598670056718,49.599999999999994L12.08585957363583,47.400000000000006L12.135732446704479,48.60000000000001L12.185605319773128,50.2L12.385096812047722,48.60000000000001L12.434969685116371,50.400000000000006L12.484842558185019,50.2L12.534715431253668,50.2L12.684334050459611,50L12.73420692352826,50.999999999999986L12.78407979659691,49.2L12.833952669665559,46.599999999999994L12.883825542734208,47.599999999999994L13.033444161940153,47.599999999999994L13.083317035008802,46.599999999999994L13.13318990807745,45.599999999999994L13.183062781146099,44.60000000000001L13.232935654214748,44.80000000000001L13.382554273420691,43.400000000000006L13.43242714648934,45.39999999999999L13.48230001955799,44.80000000000001L13.532172892626638,43.60000000000001L13.582045765695286,41.39999999999999L13.731664384901233,42.599999999999994L13.78153725796988,45L13.83141013103853,45L13.881283004107178,44.80000000000001L13.931155877175827,45.39999999999999L14.13064736945042,45.599999999999994L14.18052024251907,52.80000000000001L14.230393115587717,45L14.280265988656366,44.60000000000001L14.429884607862313,43.60000000000001L14.47975748093096,45.80000000000001L14.52963035399961,45.80000000000001L14.579503227068258,44.60000000000001L14.629376100136907,44.80000000000001L14.778994719342851,44.80000000000001L14.8288675924115,45.19999999999999L14.878740465480147,45L14.928613338548796,43L14.978486211617446,42L15.128104830823391,39.60000000000001L15.17797770389204,40.19999999999999L15.227850576960689,40.19999999999999L15.277723450029338,39.8L15.327596323097985,40L15.477214942303931,40.19999999999999L15.52708781537258,41L15.576960688441227,39.60000000000001L15.626833561509876,40.400000000000006L15.82632505378447,39.39999999999999L15.87619792685312,40.60000000000001L15.926070799921769,40.8L15.975943672990416,40.400000000000006L16.025816546059065,40L16.17543516526501,39.39999999999999L16.225308038333658,40.19999999999999L16.27518091140231,39.8L16.374926657539604,39.39999999999999L16.524545276745553,39.8L16.5744181498142,40.19999999999999L16.624291022882847,39.39999999999999L16.674163895951498,39.39999999999999L16.724036769020145,40L16.87365538822609,39.60000000000001L16.92352826129474,40.60000000000001L16.97340113436339,40.400000000000006L17.023274007432036,38.2L17.073146880500687,36.8L17.22276549970663,35.2L17.272638372775276,35.39999999999999L17.322511245843927,34.80000000000001L17.372384118912574,34.2L17.42225699198122,35L17.57187561118717,35L17.621748484255818,34L17.671621357324465,38.39999999999999L17.721494230393116,35L17.771367103461763,35.8L17.97085859573636,34.80000000000001L18.020731468805007,36.2L18.070604341873658,36.400000000000006L18.120477214942305,38.2L18.319968707216898,33.2L18.36984158028555,35.60000000000001L18.419714453354196,35.2L18.469587326422847,35.60000000000001L18.61920594562879,35L18.669078818697436,35.2L18.718951691766087,35.2L18.768824564834734,34.39999999999999L18.81869743790338,34L19.018188930177978,33.599999999999994L19.068061803246625,35.2L19.117934676315276,35.39999999999999L19.167807549383923,35.2L19.31742616858987,34.80000000000001L19.36729904165852,34.39999999999999L19.417171914727167,32.8L19.467044787795814,32.599999999999994L19.516917660864465,31.599999999999994L19.66653628007041,30.39999999999999L19.716409153139058,30.599999999999994L19.76628202620771,30.599999999999994L19.816154899276356,30.39999999999999L19.866027772345003,29.80000000000001L20.01564639155095,29.80000000000001L20.065519264619596,30.599999999999994L20.115392137688243,30.39999999999999L20.165265010756894,29.60000000000001L20.21513788382554,29.80000000000001L20.364756503031487,31.19999999999999L20.414629376100137,31L20.464502249168785,30L20.514375122237432,30.39999999999999L20.564247995306083,30.39999999999999L20.763739487580676,29.19999999999999L20.813612360649326,30.19999999999999L20.863485233717974,30.599999999999994L20.913358106786625,30.39999999999999L21.06297672599257,29.60000000000001L21.112849599061217,29.60000000000001L21.162722472129865,29.60000000000001L21.212595345198515,30L21.262468218267163,29.80000000000001L21.412086837473105,29.80000000000001L21.461959710541755,29.80000000000001L21.511832583610403,29.80000000000001L21.561705456679054,29.80000000000001L21.6115783297477,29.80000000000001L21.761196948953646,29.60000000000001L21.811069822022297,29.80000000000001L21.860942695090944,30.599999999999994L21.91081556815959,29L21.960688441228243,28L22.110307060434188,29L22.160179933502835,29.19999999999999L22.210052806571486,28.400000000000006L22.259925679640133,27.200000000000003L22.30979855270878,26.200000000000003L22.45941717191473,24.60000000000001L22.509290044983377,26L22.559162918052024,26.200000000000003L22.609035791120675,24.799999999999997L22.658908664189322,20L22.808527283395264,22.60000000000001L22.858400156463915,24.799999999999997L22.908273029532563,24.799999999999997L22.95814590260121,24.799999999999997L23.00801877566986,24.799999999999997L23.157637394875806,24.39999999999999L23.207510267944453,25.19999999999999L23.257383141013104,24.39999999999999L23.30725601408175,23.599999999999994L23.357128887150402,24.000000000000014L23.506747506356348,24.39999999999999L23.556620379424995,25.60000000000001L23.606493252493642,26L23.656366125562293,25.39999999999999L23.70623899863094,25.19999999999999L23.855857617836886,24.60000000000001L23.905730490905537,25.19999999999999L23.955603363974184,25.39999999999999L24.005476237042835,24.200000000000003L24.055349110111482,22.799999999999997L24.204967729317424,23.200000000000003L24.25484060238607,24.200000000000003L24.304713475454722,23.799999999999983L24.35458634852337,23.39999999999999L24.40445922159202,23.39999999999999L24.554077840797966,22.39999999999999L24.603950713866613,24.39999999999999L24.653823586935264,22.39999999999999L24.70369646000391,20.200000000000003L24.75356933307256,19.80000000000001L24.903187952278508,19.80000000000001L24.953060825347155,20.39999999999999L25.002933698415802,20.799999999999997L25.052806571484453,20L25.1026794445531,20L25.252298063759046,20L25.302170936827697,21.200000000000017L25.352043809896344,21.999999999999986L25.40191668296499,19.80000000000001L25.451789556033642,20.200000000000003L25.65128104830823,19.60000000000001L25.701153921376882,19L25.75102679444553,19.60000000000001L25.800899667514177,20.60000000000001L25.950518286720126,19.80000000000001L26.000391159788773,20.200000000000003L26.05026403285742,20.200000000000003L26.10013690592607,19.60000000000001L26.15000977899472,20L26.299628398200664,19.80000000000001L26.349501271269315,20L26.399374144337962,20L26.44924701740661,19.60000000000001L26.49911989047526,21.200000000000017L26.648738509681205,20.999999999999986L26.698611382749853,21.60000000000001L26.748484255818504,21.799999999999997L26.79835712888715,20.39999999999999L26.848230001955802,20.39999999999999L26.997848621161747,19.39999999999999L27.04772149423039,19.60000000000001L27.097594367299042,18.80000000000001L27.14746724036769,18.400000000000006L27.197340113436336,19L27.346958732642282,15L27.44670447877958,15L27.49657735184823,15.199999999999989L27.546450224916878,15.599999999999994L27.696068844122824,15.199999999999989L27.745941717191474,15L27.79581459026012,14.600000000000009L27.84568746332877,14.800000000000011L27.89556033639742,14.800000000000011L28.045178955603365,14.400000000000006L28.095051828672013,15.599999999999994L28.144924701740663,15.399999999999991L28.19479757480931,15.199999999999989L28.244670447877958,15.399999999999991L28.394289067083907,15.199999999999989L28.44416194015255,15.199999999999989L28.494034813221198,15.199999999999989L28.54390768628985,14.600000000000009L28.593780559358496,14.800000000000011L28.74339917856444,13.800000000000011L28.793272051633092,14.600000000000009L28.84314492470174,15L28.893017797770387,14.600000000000009L28.942890670839038,15L29.092509290044983,15.199999999999989L29.14238216311363,14.800000000000011L29.19225503618228,15L29.24212790925093,15.199999999999989L29.29200078231958,15.199999999999989L29.441619401525525,14.800000000000011L29.491492274594172,15.199999999999989L29.54136514766282,16.599999999999994L29.59123802073147,16L29.641110893800118,15L29.790729513006063,15.199999999999989L29.84060238607471,15.199999999999989L29.890475259143358,15L29.94034813221201,15L29.990221005280656,15L30.1398396244866,15L30.189712497555252,15.399999999999991L30.2395853706239,15L30.289458243692547,13.800000000000011L30.339331116761198,15L30.53882260903579,14.800000000000011L30.58869548210444,15.800000000000011L30.63856835517309,15.399999999999991L30.688441228241736,15.399999999999991L30.838059847447685,15.199999999999989L30.887932720516332,15.800000000000011L30.93780559358498,14.800000000000011L30.98767846665363,14.800000000000011L31.037551339722278,15L31.187169958928223,15.399999999999991L31.23704283199687,15.800000000000011L31.286915705065518,15.399999999999991L31.336788578134165,15.199999999999989L31.386661451202816,14.600000000000009L31.53628007040876,14L31.58615294347741,15L31.63602581654606,14L31.685898689614707,14.400000000000006L31.735771562683357,13.200000000000003L31.885390181889303,13.400000000000006L31.935263054957947,15L31.985135928026597,15.399999999999991L32.035008801095245,15.399999999999991L32.084881674163896,15.599999999999994L32.28437316643849,14.400000000000006L32.334246039507136,15L32.38411891257579,15L32.43399178564443,15.800000000000011L32.58361040485038,14.400000000000006L32.63348327791903,15.800000000000011L32.68335615098768,15.399999999999991L32.73322902405633,15.599999999999994L32.78310189712498,15L32.93272051633092,15.199999999999989L32.982593389399575,15.199999999999989L33.03246626246822,14.800000000000011L33.08233913553687,15.399999999999991L33.132212008605514,15.399999999999991L33.281830627811466,14.600000000000009L33.33170350088011,13.800000000000011L33.381576373948754,15.399999999999991L33.431449247017405,15.599999999999994L33.481322120086055,15L33.630940739292,15.199999999999989L33.680813612360645,15.599999999999994L33.730686485429295,15.599999999999994L33.780559358497946,15.399999999999991L33.8304322315666,15.399999999999991L33.980050850772535,14.600000000000009L34.02992372384119,15L34.07979659690984,14.199999999999989L34.12966946997849,15L34.17954234304713,16L34.329160962253084,15L34.37903383532173,14.199999999999989L34.42890670839038,14.800000000000011L34.52865245452768,15.199999999999989L34.67827107373362,13.599999999999994L34.72814394680227,15.199999999999989L34.77801681987092,14.800000000000011L34.827889692939564,13.800000000000011L34.877762566008215,14.600000000000009L35.02738118521416,15.599999999999994L35.07725405828281,15.800000000000011L35.127126931351455,15.599999999999994L35.176999804420106,15L35.22687267748875,15L35.3764912966947,15L35.426364169763346,15.399999999999991L35.476237042832,15.399999999999991L35.52610991590064,14.199999999999989L35.5759827889693,14.600000000000009L35.72560140817524,15.800000000000011L35.77547428124389,15.800000000000011L35.82534715431254,14.800000000000011L35.87522002738119,15L35.92509290044983,15.199999999999989L36.12458439272443,14.199999999999989L36.17445726579307,16.599999999999994L36.224330138861724,15L36.27420301193037,16.599999999999994L36.473694504204964,14L36.523567377273615,14.400000000000006L36.573440250342266,15.199999999999989L36.62331312341092,15.800000000000011L36.772931742616855,15.399999999999991L36.822804615685506,15L36.87267748875416,14.800000000000011L36.92255036182281,14.600000000000009L36.97242323489145,15.599999999999994L37.17191472716605,14.400000000000006L37.2217876002347,15L37.27166047330334,15.399999999999991L37.32153334637199,15L37.47115196557794,15.199999999999989L37.52102483864659,14.800000000000011L37.57089771171523,14.600000000000009L37.620770584783884,13.800000000000011L37.670643457852535,14.800000000000011L37.82026207705847,14.800000000000011L37.87013495012713,15.399999999999991L37.920007823195775,13.400000000000006L37.969880696264426,14.199999999999989L38.01975356933307,15.199999999999989L38.16937218853902,15L38.219245061607666,15.199999999999989L38.269117934676316,15.399999999999991L38.31899080774496,15L38.36886368081361,15L38.518482300019556,14.400000000000006L38.56835517308821,14.800000000000011L38.61822804615685,14.600000000000009L38.66810091922551,14.199999999999989L38.71797379229415,15.199999999999989L38.91746528456875,14.600000000000009L38.9673381576374,15.399999999999991L39.017211030706044,14.800000000000011L39.06708390377469,15.199999999999989L39.21670252298064,14L39.266575396049284,14.600000000000009L39.316448269117934,11.799999999999997L39.36632114218658,13.800000000000011L39.416194015255236,15.399999999999991L39.565812634461174,14.600000000000009L39.615685507529825,15.599999999999994L39.665558380598476,15.199999999999989L39.71543125366713,15.199999999999989L39.76530412673577,15.199999999999989L39.914922745941716,15L39.96479561901037,15L40.01466849207902,14.600000000000009L40.06454136514766,14.199999999999989L40.11441423821631,15L40.26403285742226,14.800000000000011L40.31390573049091,14.800000000000011L40.36377860355955,14.800000000000011L40.413651476628196,14.600000000000009L40.463524349696854,15.199999999999989L40.61314296890279,14.400000000000006L40.66301584197144,15L40.712888715040094,14.600000000000009L40.762761588108745,14.199999999999989L40.81263446117739,14L40.96225308038334,15L41.012125953451985,16L41.061998826520636,15.800000000000011L41.11187169958928,14L41.16174457265793,14L41.311363191863876,14.400000000000006L41.36123606493253,14.800000000000011L41.41110893800117,15.199999999999989L41.46098181106982,14.600000000000009L41.51085468413847,15L41.66047330334442,14.199999999999989L41.71034617641306,16L41.76021904948172,16.19999999999999L41.81009192255036,15.399999999999991L41.85996479561901,15L42.00958341482496,15.399999999999991L42.0594562878936,16L42.109329160962254,16.19999999999999L42.1592020340309,15.199999999999989L42.20907490709955,15.199999999999989L42.358693526305494,14.199999999999989L42.408566399374145,14.800000000000011L42.45843927244279,15.800000000000011L42.50831214551145,15.199999999999989L42.55818501858009,15.199999999999989L42.707803637786036,15.199999999999989L42.75767651085468,15.800000000000011L42.80754938392334,15.800000000000011L42.85742225699198,15L42.90729513006063,14.600000000000009L43.05691374926658,14.800000000000011L43.10678662233523,14.199999999999989L43.15665949540387,15L43.206532368472516,15L43.25640524154117,15.199999999999989L43.40602386074711,15.199999999999989L43.45589673381576,15.399999999999991L43.50576960688441,15L43.555642479953065,15.199999999999989L43.60551535302171,14.199999999999989L43.805006845296305,14.199999999999989L43.854879718364955,15L43.9047525914336,14.400000000000006L43.95462546450225,15.399999999999991L44.104244083708195,15.199999999999989L44.154116956776846,16.19999999999999L44.20398982984549,15L44.25386270291414,15L44.303735575982785,14.800000000000011L44.45335419518874,14.600000000000009L44.50322706825738,14.800000000000011L44.55309994132603,14.800000000000011L44.60297281439468,14.400000000000006L44.652845687463326,14.800000000000011L44.80246430666927,15.399999999999991L44.85233717973792,15.800000000000011L44.90221005280657,14.600000000000009L44.95208292587522,14.800000000000011L45.00195579894387,15.199999999999989L45.15157441814981,14.199999999999989L45.201447291218464,15L45.25132016428711,14.800000000000011L45.30119303735576,14.800000000000011L45.35106591042441,13.800000000000011L45.500684529630355,13.800000000000011L45.550557402699,15.199999999999989L45.6503031488363,15L45.70017602190495,15.599999999999994L45.84979464111089,15.599999999999994L45.89966751417955,15.199999999999989L45.94954038724819,15.199999999999989L45.99941326031684,14.800000000000011L46.049286133385486,15L46.19890475259143,13.599999999999994L46.24877762566008,14.400000000000006L46.298650498728726,14.800000000000011L46.34852337179738,15L46.39839624486603,15L46.54801486407197,14.800000000000011L46.59788773714062,15L46.647760610209275,13.599999999999994L46.69763348327792,14.400000000000006L46.74750635634657,15L46.897124975552515,14.199999999999989L46.946997848621166,14.400000000000006L46.99687072168981,14L47.04674359475846,15.199999999999989L47.096616467827104,15.199999999999989L47.24623508703306,14.800000000000011L47.2961079601017,14.800000000000011L47.34598083317035,14.600000000000009L47.395853706238995,11.799999999999997L47.445726579307646,26.400000000000006L47.59534519851359,23.799999999999983L47.645218071582235,29.19999999999999L47.69509094465089,25.799999999999997L47.74496381771954,20.60000000000001L47.79483669078819,21.799999999999997L47.94445530999413,19.39999999999999L47.994328183062784,22.200000000000003L48.04420105613143,24.60000000000001L48.09407392920008,22.39999999999999L48.14394680226872,17.799999999999997L48.293565421474675,14.600000000000009L48.34343829454332,14L48.39331116761197,20L48.44318404068062,20L48.49305691374927,20.799999999999997L48.69254840602387,15.599999999999994L48.74242127909251,16.400000000000006L48.79229415216116,20.39999999999999L48.842167025229806,22.799999999999997L48.99178564443575,18.599999999999994L49.0416585175044,18.80000000000001L49.091531390573046,16.400000000000006L49.1414042636417,18.200000000000003L49.19127713671034,15L49.34089575591629,13.400000000000006L49.39076862898494,21.60000000000001L49.44064150205359,25.19999999999999L49.49051437512224,24.60000000000001L49.54038724819089,24.799999999999997L49.69000586739683,25.19999999999999L49.739878740465485,23.599999999999994L49.78975161353413,22.39999999999999L49.83962448660278,21.400000000000006L49.889497359671424,28.400000000000006L50.039115978877376,21.60000000000001L50.08898885194602,24.39999999999999L50.13886172501467,26.400000000000006L50.188734598083315,25.19999999999999L50.23860747115197,24.60000000000001L50.438098963426555,21.799999999999997L50.487971836495205,29.60000000000001L50.537844709563856,25L50.58771758263251,25L50.737336201838446,23.799999999999983L50.7872090749071,26.400000000000006L50.83708194797575,26L50.8869548210444,26.200000000000003L50.93682769411304,24.60000000000001L51.086446313318994,25.799999999999997L51.13631918638764,26.599999999999994L51.18619205945629,25.19999999999999L51.23606493252493,22.799999999999997L51.28593780559359,24.000000000000014L51.43555642479953,23.200000000000003L51.48542929786818,24.39999999999999L51.53530217093683,28L51.58517504400548,28.200000000000003L51.635047917074125,34.39999999999999L51.78466653628007,34.2L51.83453940934872,35.60000000000001L51.884412282417365,32.20000000000002L51.934285155486016,28.400000000000006L51.98415802855466,30.19999999999999L52.183649520829256,27.799999999999983L52.23352239389791,28L52.28339526696655,29.19999999999999L52.33326814003521,29.80000000000001L52.48288675924115,29.80000000000001L52.5327596323098,29.80000000000001L52.58263250537845,30L52.68237825151574,28.799999999999983L52.831996870721696,27.599999999999994L52.88186974379034,32.20000000000002L52.93174261685899,29.400000000000006L52.981615489927634,29L53.031488362996285,26.799999999999997L53.18110698220223,29.60000000000001L53.230979855270874,30L53.280852728339525,33.80000000000001L53.330725601408176,30.19999999999999L53.38059847447683,31.799999999999997L53.530217093682765,30.80000000000001L53.580089966751416,34.2L53.62996283982007,34.39999999999999L53.67983571288872,34L53.72970858595736,35.2L53.879327205163314,33.80000000000001L53.92920007823196,36.8L53.97907295130061,40.400000000000006L54.02894582436925,32.599999999999994L54.0788186974379,34.39999999999999L54.22843731664385,40L54.32818306278114,34.80000000000001L54.3780559358498,36.999999999999986L54.427928808918445,39.8L54.57754742812438,58.8L54.677293174261685,37.8L54.727166047330336,35L54.77703892039898,36.400000000000006L54.92665753960493,34.60000000000001L54.976530412673576,34.60000000000001L55.02640328574223,34.80000000000001L55.07627615881087,34.80000000000001L55.12614903187952,35.39999999999999L55.27576765108547,35.2L55.32564052415412,35.2L55.37551339722276,35.60000000000001L55.42538627029142,35.39999999999999L55.47525914336006,36.60000000000001L55.67475063563466,46.39999999999999L55.72462350870331,51.400000000000006L55.774496381771954,50.60000000000001L55.824369254840605,48L55.97398787404655,50L56.023860747115194,50.60000000000001L56.073733620183845,54.8L56.12360649325249,55.599999999999994L56.173479366321146,57.599999999999994L56.323097985527085,63.6L56.372970858595735,65.8L56.422843731664386,61.2L56.47271660473304,59.4L56.52258947780168,59L56.672208097007626,62.400000000000006L56.72208097007628,61.8L56.77195384314493,59.6L56.82182671621357,59.4L56.87169958928222,60.60000000000001L57.07119108155682,61.2L57.12106395462546,60L57.17093682769411,59.80000000000001L57.220809700762764,60.60000000000001L57.3704283199687,60L57.42030119303735,62.99999999999999L57.470174066106004,61.4L57.520046939174655,58.8L57.5699198122433,59.80000000000001L57.71953843144925,57.99999999999999L57.769411304517895,62L57.819284177586546,61.4L57.86915705065519,60.199999999999996L57.91902992372384,60.8L58.068648542929786,60.199999999999996L58.11852141599844,61L58.16839428906708,60.60000000000001L58.21826716213573,60.400000000000006L58.26814003520438,60.199999999999996L58.41775865441033,66.2L58.46763152747897,76.8L58.51750440054763,78.4L58.56737727361627,75.6L58.617250146684924,78.4L58.76686876589087,78.4L58.81674163895951,71.6L58.866614512028164,74L58.91648738509681,74.6L58.96636025816546,78.2L59.115978877371404,69.80000000000001L59.165851750440055,72.4L59.2157246235087,76.4L59.26559749657736,76.2L59.315470369646,74.80000000000001L59.465088988851946,75.19999999999999L59.51496186192059,75.4L59.56483473498925,76L59.61470760805789,74L59.66458048112654,72.6L59.81419910033249,73.6L59.86407197340114,73.6L59.91394484646978,73L59.96381771953843,72.6L60.01369059260708,73.6L60.16330921181302,74.39999999999999L60.21318208488167,80.2L60.26305495795032,76.4L60.312927831018975,74.80000000000001L60.36280070408762,74.39999999999999L60.512419323293564,74.2L60.562292196362215,75.8L60.612165069430866,72.6L60.66203794249951,76.8L60.71191081556816,82.4L60.861529434774106,83L60.911402307842756,81.8L60.9612751809114,79.80000000000001L61.01114805398005,80.2L61.061020927048695,80.6L61.21063954625465,82.4L61.26051241932329,81.39999999999999L61.31038529239194,79.4L61.36025816546059,79.4L61.410131038529244,81.8L61.55974965773518,81L61.60962253080383,80.2L61.659495403872484,79.4L61.70936827694113,79L61.75924115000978,80.2L61.958732642284374,75.4L62.00860551535302,78.4L62.05847838842167,79.80000000000001L62.10835126149032,80.4L62.257969880696265,78.80000000000001L62.30784275376491,81L62.35771562683357,80.4L62.40758849990221,80.4L62.45746137297086,79.80000000000001L62.6070799921768,79.6L62.65695286524546,80.8L62.7068257383141,81L62.75669861138275,79.80000000000001L62.806571484451396,79.6L62.95619010365734,78.80000000000001L63.00606297672599,82.6L63.055935849794636,83.2L63.10580872286329,81.2L63.15568159593194,80.2L63.30530021513788,80.4L63.35517308820653,81.39999999999999L63.405045961275185,80.6L63.45491883434383,79L63.50479170741248,80.2L63.654410326618425,70.60000000000001L63.704283199687076,77.80000000000001L63.75415607275573,81L63.80402894582437,81.6L64.00352043809896,80.2L64.05339331116761,80.6L64.10326618423626,80.2L64.15313905730491,79.80000000000001L64.20301193037356,80.6L64.3526305495795,78.80000000000001L64.40250342264815,76.8L64.4523762957168,81L64.50224916878544,79.4L64.55212204185409,80.8L64.70174066106004,80.4L64.75161353412868,80.6L64.80148640719734,79.19999999999999L64.851359280266,78.80000000000001L64.90123215333463,77.4L65.05085077254058,80L65.10072364560924,79L65.15059651867787,79.4L65.20046939174654,78.2L65.25034226481517,79.19999999999999L65.39996088402113,80.6L65.44983375708978,80.6L65.49970663015841,79.80000000000001L65.54957950322706,80.8L65.59945237629573,79.80000000000001L65.74907099550165,80.2L65.7989438685703,81L65.84881674163897,80.4L65.8986896147076,78.2L65.94856248777626,78.4L66.09818110698221,81.8L66.14805398005085,81.2L66.1979268531195,80.4L66.24779972618815,79.80000000000001L66.2976725992568,79.6L66.44729121846275,79.80000000000001L66.49716409153139,82.4L66.54703696460004,80.4L66.59690983766868,80.2L66.64678271073734,81.2L66.84627420301193,80.8L66.89614707608058,79.80000000000001L66.94601994914923,80.2L66.99589282221787,80.6L67.14551144142382,81.6L67.19538431449247,80.8L67.24525718756111,77.6L67.29513006062977,80L67.34500293369841,78L67.49462155290436,67.2L67.54449442597301,80.4L67.59436729904165,64L67.6442401721103,76.8L67.69411304517897,90.4L67.84373166438489,89.8L67.89360453745356,90.8L67.9434774105222,96.2L67.99335028359084,95.4L68.0432231566595,98.4L68.19284177586545,88.8L68.24271464893408,79.4L68.29258752200275,97L68.34246039507138,106.6L68.39233326814004,98L68.54195188734599,80.8L68.59182476041462,60.60000000000001L68.64169763348328,75.19999999999999L68.69157050655193,92L68.74144337962058,104.2L68.94093487189518,98L68.99080774496382,99.2L69.04068061803247,103.4L69.0905534911011,108L69.24017211030706,106L69.29004498337571,106.6L69.33991785644436,103.8L69.38979072951301,101.4L69.43966360258165,101L69.5892822217876,101.6L69.63915509485625,106.6L69.68902796792489,112.8L69.73890084099355,114L69.7887737140622,115.6L69.93839233326814,115.4L69.98826520633679,115.4L70.03813807940544,115.4L70.08801095247408,115.4L70.13788382554273,114.6L70.28750244474868,114.2L70.38724819088598,113L70.43712106395462,113L70.48699393702327,113.2L70.63661255622922,112.6L70.68648542929786,112.4L70.73635830236651,112.4L70.78623117543518,110.2L70.83610404850381,108.6L70.98572266770977,107.6L71.03559554077842,108.2L71.08546841384705,109.4L71.18521415998435,109.6L71.3348327791903,109.6L71.38470565225894,110.6L71.4345785253276,112.8L71.48445139839625,116L71.5343242714649,117.6L71.68394289067083,117.6L71.73381576373949,117.4L71.78368863680814,117.8L71.83356150987679,117.2L71.88343438294544,117L72.03305300215139,116.4L72.08292587522003,116.6L72.13279874828868,117.6L72.18267162135731,117.8L72.23254449442598,117.8L72.38216311363192,117.8L72.43203598670057,117.8L72.48190885976922,117.8L72.58165460590651,118.2L72.73127322511246,118L72.7811460981811,118.2L72.83101897124975,117.2L72.93076471738705,118.4L73.080383336593,117.8L73.13025620966165,118.2L73.18012908273029,117.8L73.23000195579894,118L73.27987482886759,118.2L73.42949344807353,118L73.4793663211422,118L73.52923919421083,117L73.57911206727948,116.4L73.62898494034813,116.2L73.82847643262272,116L73.87834930569139,115.4L73.92822217876002,115.8L73.97809505182867,116.4L74.12771367103463,116.2L74.17758654410326,116.4L74.22745941717191,116.2L74.27733229024055,115.4L74.32720516330922,115.4L74.47682378251515,115.2L74.5266966555838,115.2L74.57656952865246,115.2L74.6264424017211,115.4L74.67631527478974,115.4L74.8259338939957,115.6L74.87580676706435,115.2L74.925679640133,115.6L74.97555251320165,115.4L75.02542538627029,115.6L75.22491687854489,115L75.27478975161353,115.4L75.32466262468219,115.8L75.37453549775083,116L75.52415411695678,116.2L75.57402699002543,115.8L75.62389986309407,115.8L75.67377273616272,115.6L75.72364560923137,115.6L75.87326422843731,115.6L75.92313710150596,116L75.97300997457462,115.8L76.02288284764326,116L76.07275572071191,116L76.22237433991786,116L76.2722472129865,116L76.32212008605515,116.2L76.3719929591238,116.4L76.42186583219245,117L76.5714844513984,116L76.62135732446704,116L76.67123019753569,116.4L76.72110307060434,116.6L76.770975943673,116.4L76.92059456287893,116.6L76.9704674359476,116.6L77.02034030901623,116.6L77.07021318208488,116.8L77.12008605515352,117L77.26970467435947,116.8L77.31957754742812,116.8L77.36945042049676,116.8L77.41932329356543,116.8L77.46919616663408,117.4L77.61881478584002,117.2L77.66868765890867,117.2L77.71856053197732,117.2L77.76843340504595,117.2L77.81830627811462,117L77.96792489732056,117.4L78.01779777038921,116.8L78.06767064345786,116.8L78.1175435165265,117L78.16741638959515,117.4L78.3170350088011,117.2L78.36690788186974,117L78.4167807549384,117L78.46665362800704,116.6L78.51652650107569,116.8L78.66614512028164,116.6L78.71601799335028,116.8L78.76589086641893,116.4L78.81576373948758,116L78.86563661255623,115.6L79.01525523176217,115.6L79.06512810483083,116L79.11500097789947,116.4L79.16487385096812,116.4L79.21474672403676,116.6L79.36436534324271,116.6L79.41423821631136,116.8L79.46411108938001,116.8L79.51398396244866,116.8L79.56385683551731,116.6L79.71347545472325,116.8L79.7633483277919,117L79.81322120086055,117.2L79.86309407392919,116.6L79.91296694699786,116.6L80.11245843927244,116.4L80.1623313123411,116.6L80.21220418540973,116.6L80.26207705847838,116.2L80.41169567768434,115.8L80.46156855075297,116L80.51144142382164,115.8L80.56131429689029,116L80.61118716995892,115.8L80.76080578916488,115.8L80.81067866223353,116.4L80.86055153530216,116.4L80.91042440837083,116.6L80.96029728143947,116.6L81.10991590064542,115.6L81.15978877371407,115.6L81.2096616467827,115.2L81.25953451985136,115L81.30940739292001,115L81.45902601212595,115.2L81.5088988851946,115.2L81.55877175826325,115.8L81.6086446313319,116.2L81.65851750440055,116.4L81.80813612360649,116.6L81.85800899667514,115.6L81.90788186974379,116L81.95775474281244,116.6L82.00762761588109,116.8L82.15724623508704,116.4L82.20711910815568,116.4L82.25699198122433,116.8L82.30686485429297,117L82.35673772736163,117L82.50635634656757,117.4L82.55622921963622,117.4L82.60610209270487,117.2L82.65597496577352,117L82.70584783884216,117L82.85546645804811,117L82.90533933111676,117.2L82.9552122041854,117.2L83.00508507725407,117L83.0549579503227,117L83.20457656952865,116.8L83.2544494425973,117L83.30432231566594,116.6L83.3541951887346,116.6L83.40406806180326,116.4L83.55368668100918,116.4L83.60355955407785,116.6L83.6534324271465,116.6L83.70330530021513,116.6L83.75317817328379,116.6L83.90279679248974,116.6L83.95266966555837,116.8L84.00254253862704,117L84.05241541169568,117L84.10228828476433,117L84.25190690397028,116.6L84.30177977703892,116.6L84.35165265010757,116.6L84.40152552317622,116.6L84.45139839624487,116.8L84.60101701545081,116.8L84.65088988851946,117L84.70076276158811,117L84.75063563465676,117.2L84.8005085077254,117.2L84.95012712693135,117L85,117L85.04987287306865,116.8L85.0997457461373,117L85.14961861920594,117L85.34911011148054,117L85.39898298454918,117L85.44885585761784,116.8L85.4987287306865,117L85.64834734989242,116.8L85.69822022296108,116.6L85.74809309602973,116.6L85.79796596909837,116.8L85.84783884216702,116.8L85.99745746137297,117L86.04733033444161,117L86.09720320751028,117L86.14707608057891,117.2L86.19694895364756,117.4L86.34656757285352,117.4L86.39644044592215,117.8L86.4463133189908,118.6L86.49618619205947,117.8L86.5460590651281,117.4L86.69567768433406,117.4L86.74555055740271,117.6L86.79542343047135,117.4L86.84529630354,117.6L86.89516917660863,117.6L87.09466066888324,117.6L87.14453354195189,117.6L87.19440641502054,117.4L87.24427928808919,117.6L87.39389790729513,117.6L87.44377078036378,117.6L87.49364365343243,117.8L87.54351652650108,117.8L87.59338939956973,117.8L87.74300801877567,117.8L87.79288089184432,117.8L87.84275376491297,117.8L87.8926266379816,117.8L87.94249951105027,117.8L88.09211813025621,117.6L88.14199100332486,117.6L88.19186387639351,117.4L88.24173674946215,117.4L88.2916096225308,117.6L88.44122824173675,117.6L88.49110111480539,117.4L88.5908468609427,117.6L88.64071973401134,117.6L88.7903383532173,117.6L88.84021122628594,117.6L88.89008409935458,117.8L88.93995697242323,117.8L88.98982984549188,117.8L89.13944846469782,117.6L89.18932133776649,117.6L89.23919421083512,117.8L89.33893995697242,117.6L89.48855857617836,117.4L89.53843144924701,117.4L89.58830432231568,117.4L89.63817719538432,117.4L89.68805006845297,117.6L89.83766868765892,117.6L89.88754156072756,117.6L89.9374144337962,117.6L89.98728730686484,117.6L90.03716017993351,117.6L90.18677879913945,117.6L90.2366516722081,117.4L90.28652454527675,117.2L90.3363974183454,117.4L90.38627029141404,117.6L90.53588891061999,117.6L90.58576178368864,117.6L90.63563465675729,117.8L90.68550752982594,117.8L90.88499902210053,117.6L90.93487189516918,117.6L90.98474476823782,117.8L91.03461764130648,119L91.23410913358106,117.6L91.28398200664972,117.6L91.33385487971836,117.6L91.38372775278701,118L91.43360062585566,117.8L91.5832192450616,117.8L91.63309211813025,117.8L91.68296499119892,117.8L91.73283786426755,117.8L91.7827107373362,117.6L91.98220222961079,117.4L92.03207510267944,117.4L92.0819479757481,117.6L92.13182084881674,117.8L92.2814394680227,117.6L92.33131234109133,117.6L92.38118521415998,117.6L92.43105808722864,117.6L92.48093096029729,117.6L92.63054957950322,117.2L92.68042245257188,117.2L92.73029532564053,117.4L92.78016819870918,117.2L92.83004107177781,117.4L92.97965969098377,117.4L93.02953256405242,117.4L93.07940543712105,117.6L93.12927831018972,117.6L93.17915118325837,117.6L93.37864267553296,117.4L93.42851554860161,117.6L93.47838842167025,117.6L93.52826129473891,117.4L93.67787991394484,117.6L93.7277527870135,117.6L93.77762566008215,117.8L93.82749853315079,117.6L93.87737140621944,117.4L94.02699002542539,117.2L94.07686289849403,117.2L94.12673577156268,117L94.17660864463133,116.8L94.22648151769998,116.6L94.37610013690593,117L94.42597300997457,117.2L94.47584588304322,117.2L94.52571875611187,117L94.57559162918052,116.6L94.72521024838646,116L94.77508312145513,116L94.82495599452376,116.4L94.87482886759241,116.4L94.92470174066105,116.4L95.074320359867,116.4L95.12419323293565,116.6L95.1740661060043,116.6L95.22393897907295,116.6L95.2738118521416,116.6L95.42343047134754,116.8L95.4733033444162,116.8L95.52317621748485,118.2L95.57304909055348,116.6L95.62292196362215,116L95.77254058282809,116L95.82241345589674,116L95.87228632896539,116.2L95.92215920203402,116.2L95.97203207510267,116.2L96.12165069430863,116.2L96.17152356737726,116L96.22139644044593,116L96.27126931351458,115.6L96.32114218658322,115.8L96.47076080578917,116L96.52063367885782,116L96.57050655192646,116L96.62037942499512,116L96.67025229806376,116L96.8198709172697,116L96.86974379033836,116L96.919616663407,116L96.96948953647565,116.2L97.01936240954429,116L97.16898102875024,116L97.21885390181889,115.8L97.26872677488754,115.8L97.31859964795619,116L97.36847252102484,116L97.51809114023078,116L97.56796401329943,116L97.61783688636808,116L97.66770975943673,116L97.71758263250538,116L97.86720125171134,115.8L97.91707412477997,115.8L97.96694699784862,116L98.01681987091726,116L98.06669274398593,116L98.21631136319186,115.8L98.2661842362605,115.8L98.31605710932917,116L98.36592998239782,116L98.41580285546645,116.2L98.61529434774106,116L98.66516722080969,116L98.71504009387836,116.2L98.764912966947,116.2L98.91453158615295,116.2L98.9644044592216,116.2L99.01427733229023,116.4L99.06415020535889,116.4L99.11402307842755,116.4L99.26364169763347,116.4L99.31351457070214,116.2L99.36338744377079,116.2L99.41326031683943,116.2L99.46313318990808,116.4L99.61275180911403,116.6L99.66262468218267,116.4L99.71249755525132,116.6L99.76237042831997,116.8L99.81224330138862,116.8L99.96186192059457,116.6L100.01173479366321,117L100.06160766673186,118.2L100.1114805398005,116.6L100.16135341286916,116.4L100.36084490514375,116.4L100.4107177782124,116.4L100.46059065128105,116.6L100.51046352434969,116.4L100.66008214355564,116.6L100.70995501662429,116.6L100.75982788969294,116.6L100.8097007627616,116.2L100.85957363583023,116.2L101.00919225503618,116.2L101.05906512810483,116.4L101.10893800117347,116.4L101.15881087424212,116.4L101.20868374731079,116.2L101.35830236651671,116.2L101.40817523958538,116.2L101.45804811265403,116L101.50792098572266,116.2L101.55779385879131,116.4L101.70741247799727,116.2L101.7572853510659,116.2L101.80715822413457,116.2L101.8570310972032,116.2L101.90690397027186,116.4L102.05652258947781,116.4L102.10639546254644,116.4L102.1562683356151,116.6L102.20614120868376,116.4L102.2560140817524,116.2L102.40563270095834,116L102.455505574027,116L102.50537844709564,116.2L102.55525132016429,116.2L102.60512419323292,116L102.75474281243888,116.2L102.80461568550753,116.2L102.85448855857618,116.2L102.90436143164483,116.2L102.95423430471347,116.2L103.10385292391942,116.2L103.15372579698807,115.8L103.2035986700567,116.2L103.25347154312537,116.2L103.30334441619402,116.2L103.50283590846861,116L103.55270878153726,116.2L103.6025816546059,116.4L103.65245452767456,116.4L103.8020731468805,116.4L103.85194601994914,116.2L103.9018188930178,115.8L103.95169176608644,115.8L104.00156463915509,115.8L104.15118325836104,115.8L104.20105613142968,116L104.25092900449833,115.8L104.300801877567,116L104.35067475063563,115.8L104.50029336984159,116.2L104.55016624291024,116.2L104.60003911597887,116.2L104.64991198904752,117L104.69978486211618,116L104.84940348132211,116L104.89927635439078,116L104.94914922745942,116.2L104.99902210052807,116.4L105.04889497359672,116.4L105.2483864658713,116.4L105.29825933893996,116.4L105.34813221200861,116.2L105.39800508507726,116L105.54762370428321,116.2L105.59749657735185,116.2L105.6473694504205,116.2L105.69724232348914,116.2L105.7471151965578,116.2L105.89673381576374,116.2L105.94660668883239,116.2L105.99647956190104,116.2L106.04635243496968,116.2L106.09622530803833,116L106.24584392724428,116L106.29571680031292,116L106.34558967338158,116L106.39546254645023,116.2L106.44533541951887,116.4L106.59495403872482,116.4L106.64482691179347,116.6L106.69469978486211,116.6L106.79444553099941,116.2L106.94406415020535,115.8L106.99393702327401,115.8L107.04380989634265,116L107.0936827694113,116L107.14355564247995,115.8L107.29317426168589,116.2L107.34304713475454,116L107.39292000782321,116L107.4926657539605,116L107.64228437316645,116L107.69215724623508,116L107.74203011930373,116L107.79190299237239,116.2L107.84177586544104,116.4L107.99139448464699,116.4L108.04126735771563,116.6L108.09114023078428,116.6L108.14101310385293,116.8L108.19088597692156,116.8L108.34050459612752,116.6L108.39037746919617,116.2L108.44025034226482,116L108.49012321533347,116L108.5399960884021,116L108.68961470760806,115.8L108.73948758067671,116L108.78936045374535,116.2L108.83923332681401,116.2L108.88910619988265,116.2L109.0387248190886,116.2L109.08859769215725,116.4L109.13847056522589,116.4L109.18834343829454,116.2L109.2382163113632,117.4L109.38783493056913,116.2L109.43770780363778,116.4L109.48758067670644,116.4L109.53745354977508,116.6L109.58732642284373,116.6L109.73694504204968,116.6L109.78681791511832,116.6L109.83669078818697,116.8L109.88656366125562,116.8L109.93643653432427,116.8L110.13592802659886,116.2L110.18580089966751,116.4L110.23567377273616,116.4L110.28554664580481,116.6L110.43516526501075,116.4L110.48503813807942,116.6L110.53491101114805,116.6L110.5847838842167,116.6L110.63465675728534,116.6L110.7842753764913,116.6L110.83414824955995,116.4L110.88402112262858,116.4L110.93389399569725,116.6L110.9837668687659,116.6L111.13338548797184,116.6L111.18325836104049,116.8L111.23313123410914,117L111.28300410717777,117L111.33287698024644,117L111.48249559945238,117L111.53236847252103,116.8L111.58224134558968,117L111.63211421865832,117L111.68198709172697,117L111.88147858400156,117L111.93135145707022,117L111.98122433013886,117L112.03109720320751,117L112.18071582241346,116.8L112.2305886954821,117L112.28046156855075,116.8L112.3303344416194,117L112.38020731468805,117L112.52982593389399,117.2L112.57969880696265,117.2L112.62957168003129,117.2L112.67944455309994,117.2L112.72931742616858,117.4L112.87893604537453,117.2L112.92880891844318,117.2L112.97868179151183,117.2L113.02855466458048,117.2L113.07842753764913,117L113.22804615685507,117.2L113.27791902992372,117.2L113.32779190299237,117.2L113.37766477606102,117.4L113.42753764912968,117.4L113.57715626833563,117.4L113.62702914140426,117.4L113.67690201447292,117.4L113.72677488754155,118L113.7766477606102,117.8L113.92626637981616,118.2L113.97613925288479,118.2L114.02601212595346,118L114.07588499902211,118L114.12575787209074,118.2L114.2753764912967,118.2L114.32524936436535,118.4L114.37512223743398,118.4L114.42499511050265,118.2L114.47486798357129,117.6L114.62448660277724,118L114.67435947584589,117.8L114.72423234891453,118L114.77410522198318,118L114.82397809505184,118L114.97359671425777,118L115.02346958732643,118.2L115.07334246039507,118.2L115.12321533346372,118.2L115.17308820653237,118.2L115.32270682573831,118.2L115.37257969880696,118.2L115.42245257187561,118.2L115.47232544494426,118.2L115.52219831801291,118.2L115.67181693721886,118.2L115.7216898102875,118.2L115.77156268335615,118.2L115.82143555642479,118.2L115.87130842949345,118.2L116.02092704869939,118L116.07079992176804,118.2L116.1206727948367,118L116.17054566790534,118.2L116.22041854097398,118L116.37003716017993,118L116.41991003324858,118L116.46978290631722,118.2L116.51965577938589,118.2L116.56952865245452,118L116.76902014472913,118L116.81889301779776,118L116.86876589086641,118L116.91863876393508,117.8L117.068257383141,118L117.11813025620967,118.2L117.16800312927832,118.2L117.21787600234696,118.2L117.2677488754156,118.2L117.41736749462156,118L117.4672403676902,118L117.51711324075886,118L117.5669861138275,118L117.61685898689615,118L117.7664776061021,118.2L117.81635047917074,118.2L117.86622335223939,118.2L117.91609622530802,118.4L117.96596909837669,118.4L118.11558771758263,118.4L118.16546059065128,118.4L118.21533346371993,118.6L118.26520633678858,118.6L118.31507920985722,118.4L118.51457070213182,118.4L118.56444357520047,118.6L118.61431644826912,118.6L118.66418932133776,118.6L118.81380794054371,118.6L118.86368081361236,118.8L118.913553686681,118.8L118.96342655974966,118.8L119.01329943281831,118.8L119.16291805202425,118.8L119.2127909250929,118.8L119.26266379816155,118.8L119.31253667123019,118.8L119.36240954429884,118.8L119.5120281635048,118.8L119.56190103657343,118.8L119.6117739096421,118.6L119.66164678271073,118.4L119.71151965577938,117.8L119.86113827498534,116.6L119.91101114805397,116.8L119.96088402112262,117.6L120.01075689419129,118.2L120.06062976725993,118.4L120.21024838646588,117.8L120.26012125953453,118L120.30999413260317,118L120.35986700567182,118.2L120.40973987874047,118L120.5593584979464,118L120.60923137101507,118.2L120.65910424408371,118.2L120.70897711715236,118.2L120.75884999022101,118.2L120.90846860942695,118.2L120.9583414824956,118.4L121.00821435556423,118.4L121.0580872286329,118.4L121.10796010170155,118.2L121.25757872090749,118.2L121.30745159397614,118.4L121.35732446704479,118.4L121.40719734011343,118.4L121.45707021318209,118.4L121.65656170545668,118.2L121.70643457852533,118.2L121.75630745159397,118.2L121.80618032466262,118.2L121.95579894386857,118.2L122.00567181693721,118.2L122.05554469000587,118.4L122.10541756307452,118.2L122.15529043614316,118.2L122.30490905534911,118.2L122.35478192841776,118.2L122.4046548014864,118.4L122.45452767455505,118.4L122.5044005476237,118.4L122.65401916682964,118.4L122.7038920398983,118.4L122.75376491296694,118.4L122.8036377860356,118.4L122.85351065910424,118.8L123.00312927831018,118.4L123.05300215137883,118.6L123.1028750244475,118.6L123.15274789751614,118.6L123.20262077058479,118.6L123.40211226285938,118.6L123.45198513592803,118.6L123.50185800899668,118.6L123.55173088206533,118.6L123.70134950127127,118.6L123.75122237433992,118.6L123.80109524740857,118.6L123.85096812047722,118.6L123.90084099354586,118.6L124.05045961275181,118.6L124.10033248582045,118.6L124.15020535888911,118.4L124.20007823195776,118.6L124.2499511050264,118.6L124.39956972423235,118.2L124.449442597301,118.4L124.49931547036964,118.4L124.5491883434383,118.2L124.59906121650694,118.4L124.74867983571289,118.4L124.79855270878154,118.4L124.84842558185018,118.4L124.89829845491883,118.4L125.09778994719342,118.4L125.14766282026207,118.2L125.19753569333074,118.4L125.24740856639937,118.4L125.29728143946802,118.4L125.44690005867398,118.4L125.49677293174261,118.4L125.54664580481126,118.2L125.64639155094856,118.6L125.79601017015452,118.4L125.84588304322315,118.4L125.8957559162918,118L125.94562878936046,118.4L125.9955016624291,118.4L126.14512028163504,118.4L126.19499315470371,118.4L126.24486602777235,118.4L126.294738900841,118.6L126.34461177390963,118.6L126.49423039311559,118.6L126.54410326618424,118.6L126.59397613925287,118.6L126.64384901232154,118.6L126.69372188539019,118.6L126.84334050459613,118.6L126.89321337766478,118.6L126.94308625073343,118.6L126.99295912380207,118.6L127.04283199687073,118.4L127.24232348914532,118.6L127.29219636221397,118.6L127.34206923528261,118.6L127.39194210835126,119.2L127.59143360062586,118.6L127.6413064736945,118.6L127.69117934676315,118.6L127.74105221983179,118.6L127.89067083903774,118.4L127.94054371210639,118.4L127.99041658517505,118.4L128.04028945824368,118.4L128.09016233131234,118.2L128.28965382358692,118.2L128.33952669665558,118.2L128.38939956972425,118L128.43927244279288,118.2L128.58889106199882,118.2L128.6387639350675,118.2L128.68863680813612,118.4L128.73850968120476,118.4L128.78838255427343,118.2L128.93800117347936,118.2L128.987874046548,117.8L129.03774691961667,117.8L129.0876197926853,117.8L129.13749266575397,117.8L129.2871112849599,117.8L129.33698415802854,117.8L129.3868570310972,117.8L129.43672990416587,117.8L129.48660277723448,117.6L129.63622139644045,117.6L129.6860942695091,117.6L129.73596714257772,117.6L129.7858400156464,117.8L129.83571288871505,118.2L130.03520438098963,118L130.0850772540583,118.4L130.13495012712693,118.4L130.1848230001956,118.2L130.33444161940153,118L130.38431449247017,118L130.43418736553883,118L130.48406023860747,117.8L130.5339331116761,117.8L130.68355173088207,117.8L130.7334246039507,117.8L130.78329747701935,117.8L130.833170350088,117.8L130.88304322315668,117.6L131.0326618423626,117.6L131.08253471543125,117.6L131.13240758849992,117.4L131.18228046156855,117.2L131.2321533346372,117L131.38177195384316,117L131.4316448269118,117L131.48151769998043,117L131.5313905730491,117.2L131.58126344611773,117.2L131.73088206532367,117.2L131.78075493839233,117.2L131.83062781146097,117.4L131.88050068452964,117.4L131.9303735575983,118.2L132.0799921768042,117L132.12986504987288,117L132.17973792294154,117L132.22961079601015,117L132.27948366907881,117.6L132.42910228828478,116.8L132.4789751613534,117L132.52884803442205,116.8L132.57872090749072,117L132.62859378055936,117L132.7782123997653,117L132.82808527283396,116.8L132.8779581459026,117L132.92783101897126,117.4L132.9777038920399,117.6L133.12732251124586,117.4L133.1771953843145,117.2L133.22706825738314,117L133.27694113045177,117.2L133.32681400352044,117.4L133.47643262272638,116.8L133.52630549579501,116.8L133.57617836886368,117L133.62605124193234,117L133.67592411500098,116.8L133.82554273420692,116.8L133.87541560727558,116.8L133.92528848034422,117L133.97516135341286,117L134.02503422648152,117L134.1746528456875,116.8L134.2245257187561,116.8L134.27439859182476,116.8L134.3242714648934,116.8L134.37414433796206,116.8L134.523762957168,116.8L134.57363583023667,116.8L134.6235087033053,117L134.67338157637394,117L134.72325444944258,117L134.92274594171718,116.8L134.97261881478582,116.8L135.02249168785448,116.8L135.07236456092315,116.8L135.2219831801291,116.6L135.27185605319772,116.6L135.3217289262664,116.8L135.37160179933502,116.8L135.42147467240366,116.6L135.57109329160963,116.6L135.6209661646783,116.8L135.6708390377469,116.6L135.72071191081557,116.6L135.7705847838842,116.4L135.92020340309014,116.6L135.9700762761588,116.6L136.01994914922747,116.8L136.0698220222961,116.6L136.11969489536477,116.6L136.2693135145707,116.6L136.31918638763935,116.8L136.369059260708,117L136.41893213377662,117L136.4688050068453,118.2L136.61842362605125,116.4L136.6682964991199,116.6L136.7680422452572,116.6L136.81791511832583,116.6L136.96753373753177,116.6L137.01740661060043,116.6L137.0672794836691,116.6L137.11715235673773,116.4L137.16702522980637,116.2L137.31664384901234,116.4L137.36651672208097,116.6L137.4163895951496,116.8L137.46626246821828,117.4L137.5161353412869,117.4L137.66575396049285,117.2L137.71562683356152,117L137.76549970663015,117L137.81537257969882,117.2L137.86524545276745,117.2L138.0148640719734,117.2L138.06473694504206,117.4L138.11460981811072,117.2L138.16448269117933,117.2L138.214355564248,117.2L138.36397418345396,117.2L138.41384705652257,117.4L138.46371992959124,117.4L138.5135928026599,117.4L138.56346567572854,117.4L138.71308429493448,117.4L138.76295716800314,117.4L138.81283004107178,117.4L138.86270291414044,117.4L138.91257578720908,117.4L139.06219440641502,117.4L139.11206727948368,117.4L139.16194015255232,117.4L139.21181302562096,117.4L139.26168589868962,117.4L139.41130451789556,117.4L139.4611773909642,117.4L139.51105026403286,117.4L139.56092313710153,117.2L139.61079601017016,117.4L139.81028750244477,117.2L139.8601603755134,116.8L139.91003324858204,116.8L139.9599061216507,117L140.10952474085664,117L140.15939761392528,117L140.20927048699394,117L140.25914336006258,117L140.30901623313125,116.8L140.45863485233718,116.8L140.50850772540582,116.8L140.55838059847449,117L140.60825347154315,116.8L140.65812634461176,117L140.80774496381773,116.8L140.85761783688636,117L140.907490709955,117L140.95736358302366,117.2L141.00723645609233,118.2L141.15685507529824,117L141.2067279483669,116.8L141.25660082143557,116.8L141.3064736945042,117L141.35634656757284,117L141.55583805984745,116.8L141.60571093291608,116.8L141.65558380598475,116.8L141.70545667905338,116.8L141.85507529825932,116.8L141.904948171328,116.8L141.95482104439662,117L142.0046939174653,117L142.05456679053395,116.8L142.20418540973986,117L142.25405828280853,117L142.3039311558772,116.6L142.3538040289458,116.8L142.40367690201447,116.8L142.55329552122043,116.6L142.60316839428904,116.6L142.6530412673577,116.4L142.70291414042637,116.6L142.752787013495,116.8L142.90240563270095,116.6L142.9522785057696,116.8L143.00215137883825,116.8L143.05202425190691,116.8L143.10189712497555,116.8L143.30138861725015,116.8L143.3512614903188,116.8L143.40113436338743,116.8L143.4510072364561,116.8L143.60062585566203,116.8L143.65049872873067,116.8L143.70037160179933,116.8L143.80011734793663,116.8L143.94973596714257,116.8L143.99960884021124,116.8L144.04948171327987,116.8L144.0993545863485,116.8L144.14922745941718,116.8L144.29884607862314,116.8L144.34871895169175,116.6L144.39859182476042,116.8L144.44846469782905,116.8L144.49833757089772,116.8L144.64795619010366,116.8L144.6978290631723,116.6L144.74770193624096,116.6L144.79757480930962,116.8L144.84744768237823,116.6L144.9970663015842,116.8L145.04693917465286,116.6L145.09681204772147,116.6L145.14668492079014,116.6L145.1965577938588,116.6L145.34617641306474,116.4L145.44592215920204,116.6L145.49579503227068,116.6L145.54566790533934,116.6L145.69528652454528,118.2L145.79503227068258,116.6L145.84490514375122,116.6L145.89477801681986,116.8L146.04439663602582,116.8L146.09426950909446,117L146.1441423821631,117.2L146.19401525523176,117.2L146.24388812830043,117.2L146.39350674750636,117.2L146.443379620575,117L146.49325249364367,117.2L146.5431253667123,117.2L146.59299823978094,117.2L146.79248973205554,117.2L146.84236260512418,117.4L146.89223547819284,117L146.94210835126148,117.2L147.09172697046742,117.2L147.14159984353608,117.6L147.19147271660475,117.6L147.2413455896734,117L147.29121846274202,117.2L147.440837081948,117.4L147.49070995501663,117.4L147.54058282808526,117.4L147.5904557011539,117.4L147.64032857422256,117.2L147.7899471934285,117.2L147.83982006649717,117.4L147.8896929395658,117.2L147.93956581263447,117.2L147.9894386857031,116.8L148.1889301779777,117L148.23880305104638,117L148.28867592411498,116.8L148.33854879718365,116.8L148.48816741638962,117L148.53804028945822,117.2L148.5879131625269,117.2L148.63778603559555,117.2L148.6876589086642,117.2L148.83727752787013,116.8L148.8871504009388,117L148.93702327400743,117L148.9868961470761,116.8L149.0367690201447,117L149.18638763935067,116.8L149.23626051241934,117L149.28613338548797,117.2L149.3360062585566,117L149.38587913162527,116.8L149.5354977508312,116.8L149.58537062389985,117L149.6352434969685,117L149.68511637003718,116.8L149.73498924310582,117L149.88460786231175,117L149.93448073538042,117.2L149.98435360844906,117.6L150.0342264815177,117.4L150.08409935458636,118.2L150.2337179737923,116.8L150.28359084686093,117L150.3334637199296,117.2L150.38333659299823,117.2L150.4332094660669,117L150.58282808527284,117L150.63270095834147,117L150.68257383141014,117L150.7324467044788,117L150.7823195775474,117L150.93193819675338,117L150.98181106982204,117L151.03168394289065,117L151.08155681595932,117L151.13142968902798,117L151.2810483082339,117L151.33092118130256,117.2L151.38079405437122,117.4L151.43066692743986,117.4L151.48053980050852,117.4L151.63015841971446,117.4L151.6800312927831,117.2L151.72990416585176,117.2L151.7797770389204,117L151.82964991198904,117.2L151.979268531195,117.2L152.02914140426364,117.6L152.07901427733228,117.6L152.12888715040094,117.6L152.1787600234696,117.6L152.32837864267552,117.6L152.37825151574418,117.8L152.42812438881285,117.6L152.47799726188148,117.8L152.52787013495012,118L152.6774887541561,118L152.72736162722472,118.2L152.77723450029336,118.4L152.82710737336203,118.4L152.87698024643066,118.2L153.07647173870527,118.2L153.1263446117739,118.4L153.17621748484257,118.4L153.2260903579112,118.2L153.37570897711714,118L153.4255818501858,117.8L153.47545472325444,118.2L153.52532759632308,118L153.57520046939175,118.2L153.72481908859768,118.2L153.77469196166632,118.2L153.82456483473499,118.4L153.87443770780365,118.2L153.9243105808723,118L154.07392920007823,117.8L154.1238020731469,117.6L154.17367494621553,118L154.22354781928416,118L154.27342069235283,118L154.4230393115588,118L154.4729121846274,118.2L154.52278505769607,118.2L154.5726579307647,118.2L154.62253080383337,118.6L154.7721494230393,118L154.82202229610795,118L154.8718951691766,118L154.97164091531388,118L155.12125953451985,118L155.17113240758852,118L155.22100528065712,118.2L155.2708781537258,118.2L155.32075102679445,118.2L155.4703696460004,118.2L155.52024251906903,118.2L155.5701153921377,118.2L155.61998826520633,118.2L155.669861138275,118.2L155.81947975748093,118.2L155.8693526305496,118.2L155.91922550361824,118.2L155.96909837668687,118.2L156.0189712497555,118.2L156.16858986896148,118.4L156.2184627420301,118.2L156.26833561509875,118.2L156.31820848816741,118.4L156.36808136123608,118.2L156.51769998044202,118.4L156.56757285351065,118.2L156.61744572657932,118.2L156.66731859964796,118.2L156.7171914727166,118.4L156.86681009192256,118.4L156.91668296499122,118.4L156.96655583805983,118.2L157.0164287111285,118.4L157.06630158419713,118.2L157.21592020340307,118.2L157.26579307647174,118.2L157.3156659495404,118.4L157.36553882260904,118.2L157.4154116956777,118.4L157.56503031488364,118.4L157.61490318795228,118.6L157.66477606102094,118.6L157.71464893408955,118.4L157.76452180715822,118.6L157.96401329943282,118.2L158.01388617250146,118.4L158.06375904557012,118.4L158.11363191863876,118.4L158.2632505378447,118.4L158.31312341091336,118.4L158.36299628398203,118.4L158.41286915705066,118.4L158.4627420301193,118.4L158.61236064932527,118.4L158.6622335223939,118.4L158.71210639546254,118.4L158.76197926853118,118.2L158.81185214159984,118.4L158.96147076080578,118.2L159.01134363387445,118.2L159.06121650694308,118.4L159.11108938001175,118.4L159.16096225308036,118.4L159.31058087228632,118.8L159.360453745355,118.4L159.41032661842362,118.6L159.46019949149226,118.4L159.51007236456093,118.4L159.65969098376686,118.4L159.7095638568355,118.4L159.75943672990417,118.2L159.80930960297283,118.2L159.85918247604147,118L160.05867396831607,118L160.1085468413847,117.8L160.15841971445334,118L160.20829258752198,118L160.35791120672795,118.2L160.40778407979658,118.4L160.45765695286525,118.4L160.5075298259339,118.4L160.55740269900255,118.4L160.7070213182085,118.4L160.75689419127713,118.4L160.8067670643458,118.4L160.85663993741446,118.6L160.90651281048306,118.4L161.05613142968903,118.4L161.1060043027577,118.4L161.1558771758263,118.4L161.20575004889497,118.4L161.25562292196364,118.4L161.4551144142382,118.4L161.50498728730688,118.4L161.5548601603755,118.2L161.60473303344418,118.2L161.75435165265012,118.2L161.80422452571875,118.2L161.85409739878742,118.2L161.90397027185605,118.2L161.9538431449247,118.2L162.10346176413066,118.2L162.1533346371993,118.2L162.20320751026793,118.2L162.30295325640526,118.6L162.45257187561117,118.2L162.50244474867984,118.2L162.5523176217485,118.2L162.60219049481714,118.2L162.65206336788577,118.2L162.80168198709174,118.2L162.85155486016038,118.2L162.901427733229,118.4L162.95130060629768,118.2L163.00117347936632,118.4L163.15079209857225,118.2L163.20066497164092,118.2L163.25053784470956,118.2L163.30041071777822,118.2L163.35028359084689,118.2L163.4999022100528,118.2L163.54977508312146,118.4L163.64952082925873,118.4L163.6993937023274,118.4L163.84901232153337,118.4L163.89888519460197,118.6L163.9986309407393,118.4L164.04850381380794,118.4L164.19812243301388,118.4L164.24799530608254,118.6L164.29786817915118,118.6L164.34774105221985,118.6L164.39761392528848,118.6L164.54723254449442,118.6L164.59710541756309,118.6L164.64697829063172,118.6L164.69685116370036,118.6L164.74672403676902,118.6L164.9462155290436,118.6L164.99608840211226,118.6L165.04596127518093,118.6L165.09583414824954,118.6L165.2454527674555,118.6L165.29532564052417,118.6L165.34519851359278,118.6L165.39507138666144,118.6L165.4449442597301,118.6L165.59456287893605,118.6L165.64443575200468,118.6L165.69430862507335,118.6L165.74418149814198,118.6L165.79405437121065,118.8L165.9436729904166,118.6L165.99354586348522,118.8L166.0434187365539,118.6L166.09329160962253,118.8L166.14316448269116,118.8L166.34265597496577,118.6L166.3925288480344,118.6L166.44240172110307,118.6L166.49227459417173,118.6L166.64189321337767,118.6L166.6917660864463,118.6L166.74163895951497,118.6L166.7915118325836,118.6L166.84138470565225,118.8L166.9910033248582,118.6L167.04087619792688,118.6L167.09074907099549,118.4L167.14062194406415,118.4L167.1904948171328,118.4L167.34011343633873,118.4L167.3899863094074,118.4L167.43985918247603,118.4L167.4897320555447,118.4L167.53960492861336,118.4L167.6892235478193,118.4L167.73909642088793,118.4L167.7889692939566,118.4L167.8388421670252,118.4L167.88871504009387,118.4L168.03833365929984,118.2L168.08820653236847,118.2L168.1380794054371,118.4L168.18795227850578,118.4L168.2378251515744,118.4L168.38744377078035,118.8L168.43731664384902,118.4L168.48718951691768,118.2L168.53706238998632,118.4L168.58693526305495,118.4L168.73655388226092,118.2L168.78642675532956,118.4L168.8362996283982,118.4L168.88617250146683,118.4L168.9360453745355,118.2L169.08566399374143,118.2L169.1355368668101,118L169.18540973987874,118.2L169.2352826129474,118.2L169.28515548601604,118L169.43477410522198,118L169.48464697829064,118L169.5345198513593,118L169.58439272442791,118L169.63426559749658,118.2L169.78388421670255,118.2L169.83375708977115,118L169.88362996283982,118.2L169.93350283590848,118.2L169.98337570897712,118.2L170.13299432818306,118.2L170.18286720125172,118.2L170.23274007432036,118.4L170.28261294738903,118.4L170.33248582045763,118.4L170.4821044396636,118.4L170.53197731273227,118.2L170.5818501858009,118.4L170.63172305886954,118.2L170.6815959319382,118.2L170.83121455114414,118.2L170.88108742421278,118.2L170.93096029728144,118.2L170.9808331703501,118.2L171.03070604341872,118.2L171.23019753569335,118.2L171.28007040876196,118.2L171.32994328183062,118.2L171.3798161548993,118.4L171.5294347741052,118.2L171.57930764717386,118L171.62918052024253,118.2L171.67905339331116,118.2L171.72892626637983,118.2L171.87854488558577,118.2L171.9284177586544,118.2L171.97829063172307,118.2L172.0281635047917,118.2L172.07803637786034,118L172.2276549970663,118L172.27752787013495,118L172.32740074320358,118L172.37727361627225,118L172.4271464893409,118L172.57676510854682,118L172.6266379816155,118L172.67651085468415,118L172.7263837277528,118L172.77625660082143,118L172.9258752200274,118.2L172.97574809309603,118L173.02562096616467,118L173.07549383923333,118.2L173.2749853315079,118L173.32485820457657,118.2L173.3747310776452,118.2L173.42460395071387,118.2L173.47447682378254,118.2L173.62409544298845,118.2L173.6739683160571,118.2L173.72384118912578,118.2L173.7737140621944,118.2L173.82358693526305,118.2L173.97320555446902,118L174.02307842753763,118.2L174.0729513006063,118.2L174.12282417367496,118.2L174.1726970467436,118.2L174.32231566594953,118.2L174.3721885390182,118.2L174.42206141208683,118.2L174.4719342851555,118.4L174.52180715822414,118.2L174.67142577743007,118.2L174.72129865049874,118.2L174.77117152356738,118.2L174.821044396636,118.2L174.87091726970468,118.2L175.02053588891062,118.2L175.07040876197925,118.2L175.12028163504792,118.2L175.17015450811658,118.2L175.22002738118522,118.2L175.36964600039116,118.2L175.41951887345982,118.2L175.46939174652846,118.2L175.5192646195971,118.2L175.56913749266576,118.2L175.7187561118717,118.2L175.76862898494034,118.2L175.818501858009,118.2L175.86837473107764,118.2L175.9182476041463,118.6L176.11773909642088,118.2L176.16761196948954,118.2L176.2174848425582,118.2L176.26735771562682,118.2L176.41697633483278,118.2L176.46684920790145,118.2L176.51672208097006,118.2L176.56659495403872,118.2L176.61646782710739,118.2L176.76608644631332,118.2L176.81595931938196,118.2L176.86583219245063,118.2L176.91570506551926,118.2L176.96557793858793,118.2L177.11519655779387,118.2L177.1650694308625,118.2L177.21494230393114,118.2L177.2648151769998,118.2L177.31468805006844,118.2L177.46430666927438,118.4L177.51417954234304,118.6L177.56405241541168,118.2L177.61392528848035,118.2L177.663798161549,118.2L177.81341678075495,118.2L177.86328965382359,118.2L177.91316252689225,118.2L177.96303539996086,118.4L178.01290827302952,118.2L178.21239976530413,118.2L178.26227263837276,118.2L178.31214551144143,118.2L178.36201838451007,118.2L178.511637003716,118.2L178.56150987678467,118.2L178.6113827498533,118.2L178.66125562292197,118.2L178.7111284959906,118.2L178.86074711519657,118.2L178.9106199882652,118.2L178.96049286133385,118.2L179.01036573440248,118.2L179.06023860747115,118.6L179.2098572266771,118.2L179.25973009974575,118L179.3096029728144,118.2L179.35947584588305,118.2L179.4093487189517,118.2L179.55896733815763,118.2L179.65871308429496,118.2L179.70858595736357,118.2L179.75845883043223,118.2L179.9080774496382,118L179.9579503227068,117.8L180.00782319577547,118L180.0576960688441,118L180.10756894191277,118L180.2571875611187,118L180.30706043418738,118L180.356933307256,118L180.4566790533933,118.4L180.60629767259925,117.4L180.65617054566792,117.6L180.70604341873656,117.6L180.7559162918052,117.6L180.80578916487386,117.6L180.9554077840798,117.6L181.00528065714843,117.6L181.0551535302171,117.6L181.10502640328576,117.6L181.1548992763544,117.6L181.30451789556034,117.8L181.354390768629,117.6L181.40426364169764,117.4L181.45413651476628,117.4L181.5040093878349,117.4L181.65362800704088,117.4L181.70350088010952,117.4L181.75337375317818,117.4L181.85311949931548,117.4L182.00273811852142,117.4L182.05261099159006,117.4L182.10248386465872,118.8L182.202229610796,117.6L182.35184823000196,117.6L182.40172110307063,117.6L182.45159397613924,117.6L182.5014668492079,117.6L182.55133972227657,117.6L182.70095834148248,117.6L182.75083121455114,117.6L182.8007040876198,117.6L182.85057696068844,117.6L182.9004498337571,117.4L183.09994132603168,117.6L183.14981419910032,117.6L183.19968707216898,117.6L183.24955994523762,117.6L183.39917856444356,117.6L183.44905143751222,117.8L183.49892431058086,117.6L183.54879718364953,117.8L183.5986700567182,118.8L183.7482886759241,117.6L183.79816154899277,117.6L183.84803442206143,117.8L183.89790729513004,117.6L183.9477801681987,117.8L184.09739878740467,117.6L184.14727166047328,117.6L184.19714453354194,117.6L184.2470174066106,117.6L184.29689027967925,117.6L184.49638177195385,117.6L184.5462546450225,117.6L184.59612751809115,117.6L184.6460003911598,117.6L184.79561901036573,117.8L184.8454918834344,117.8L184.89536475650303,117.8L184.94523762957166,117.8L184.99511050264033,118.8L185.14472912184627,117.6L185.1946019949149,117.6L185.24447486798357,117.8L185.29434774105223,117.8L185.34422061412087,117.6L185.4938392333268,117.6L185.54371210639547,117.6L185.5935849794641,117.8L185.64345785253275,117.8L185.6933307256014,117.8L185.84294934480735,117.6L185.892822217876,117.6L185.94269509094465,117.8L185.9925679640133,117.6L186.04244083708195,117.6L186.1920594562879,117.6L186.24193232935653,117.8L186.2918052024252,117.6L186.34167807549386,117.8L186.39155094856247,117.6L186.54116956776843,117.6L186.5910424408371,118.8L186.6409153139057,117.6L186.69078818697437,117.6L186.74066106004304,117.6L186.89027967924898,117.4L186.9401525523176,117.6L186.99002542538628,117.6L187.03989829845491,117.6L187.08977117152358,117.6L187.23938979072952,117.4L187.28926266379816,117.4L187.33913553686682,117.4L187.38900840993546,117.4L187.4388812830041,117.4L187.58849990221006,117.4L187.6383727752787,117.4L187.68824564834733,117.4L187.738118521416,117.4L187.78799139448466,117.4L187.9376100136906,117.4L187.98748288675924,117.4L188.0373557598279,117.4L188.08722863289654,118.4L188.13710150596518,117.4L188.28672012517114,117.4L188.33659299823978,117.4L188.38646587130842,117.4L188.43633874437708,117.4L188.48621161744572,117.4L188.63583023665166,117.4L188.68570310972032,117.4L188.73557598278896,117.4L188.78544885585762,117.4L188.8353217289263,117.4L188.98494034813223,117.4L189.03481322120086,117.6L189.08468609426953,117.6L189.13455896733814,117.6L189.1844318404068,117.4L189.3839233326814,117.6L189.43379620575004,117.6L189.4836690788187,117.6L189.53354195188734,118.4L189.68316057109328,117.6L189.73303344416195,117.6L189.78290631723058,117.4L189.83277919029922,117.4L189.88265206336789,117.4L190.03227068257385,117.4L190.08214355564246,117.4L190.13201642871113,117.4L190.18188930177976,117.4L190.23176217484843,117.4L190.38138079405437,117.4L190.43125366712303,117.2L190.48112654019167,117.2L190.53099941326033,117.2L190.58087228632894,117.4L190.7304909055349,117.4L190.78036377860357,117.4L190.8302366516722,117.4L190.88010952474085,117.4L190.9299823978095,117.4L191.07960101701545,117.2L191.12947389008409,118.4L191.17934676315275,117.4L191.2292196362214,117.4L191.27909250929005,117.4L191.428711128496,117.4L191.47858400156466,117.4L191.5284568746333,117.4L191.57832974770193,117.4L191.62820262077057,117.4L191.77782123997653,117.4L191.82769411304517,117.4L191.87756698611383,117.4L191.92743985918247,117.2L191.97731273225114,117.4L192.12693135145707,117.2L192.1768042245257,117.4L192.22667709759438,117.4L192.27654997066304,117.4L192.32642284373165,117.4L192.47604146293762,117.2L192.52591433600628,117.2L192.5757872090749,117.2L192.62566008214355,117.2L192.6755329552122,118.4L192.82515157441813,117.2L192.8750244474868,117.2L192.92489732055546,117.2L192.9747701936241,117.2L193.02464306669276,117.2L193.1742616858987,117.2L193.22413455896734,117L193.274007432036,117L193.32388030510464,117L193.37375317817327,117.2L193.52337179737924,117L193.57324467044788,117L193.6231175435165,117L193.67299041658518,117L193.72286328965384,117L193.87248190885975,117L193.92235478192842,117L193.97222765499708,117.2L194.02210052806572,117.2L194.07197340113436,117.2L194.22159202034032,118.4L194.27146489340896,117.2L194.3213377664776,117.2L194.37121063954626,117.2L194.4210835126149,117.2L194.6205750048895,117.2L194.67044787795814,117.2L194.7203207510268,117.2L194.77019362409547,117.2L194.91981224330138,117.2L194.96968511637004,117.2L195.0195579894387,117.2L195.06943086250732,117.2L195.11930373557598,117.2L195.26892235478192,117.2L195.31879522785056,117.2L195.36866810091922,117.2L195.4185409739879,117.2L195.46841384705652,117.4L195.61803246626246,117.4L195.66790533933113,117.4L195.71777821239976,118.6L195.7676510854684,117.4L195.81752395853707,117.4L195.967142577743,117.4L196.01701545081164,117.4L196.0668883238803,117.4L196.11676119694894,117.4L196.1666340700176,117.4L196.36612556229218,117.4L196.41599843536085,117.4L196.4658713084295,117.4L196.51574418149812,117.4L196.6653628007041,117.4L196.71523567377275,117.4L196.76510854684136,117.4L196.81498141991003,117.6L196.8648542929787,117.6L197.0144729121846,117.6L197.06434578525327,117.6L197.11421865832193,117.6L197.16409153139057,117.6L197.21396440445923,118.6L197.36358302366517,117.6L197.4134558967338,117.6L197.46332876980247,117.6L197.5132016428711,117.6L197.56307451593975,117.6L197.7126931351457,117.6L197.76256600821435,117.6L197.86231175435165,117.6L197.91218462742032,117.6L198.06180324662625,117.4L198.1116761196949,117.4L198.16154899276356,117.6L198.2114218658322,117.6L198.26129473890083,117.6L198.4109133581068,117.6L198.46078623117543,117.6L198.51065910424407,117.6L198.61040485038137,117.6L198.7600234695873,118.4L198.80989634265597,117.4L198.8597692157246,117.4L198.90964208879328,117.4L198.95951496186194,117.4L199.10913358106788,117.4L199.15900645413652,117.4L199.20887932720518,117.2L199.2587522002738,117.2L199.30862507334245,117.2L199.45824369254842,117L199.50811656561706,117L199.5579894386857,117L199.60786231175436,112.6L199.657735184823,112.6L199.80735380402893,112.8L199.8572266770976,112.8L199.90709955016624,112.8L199.9569724232349,112.8L200.1564639155095,112.8L200.20633678857814,112.8L200.25620966164678,113L200.30608253471542,116L200.50557402699002,112.8L200.55544690005868,112.8L200.60531977312732,112.8L200.65519264619599,112.8L200.70506551926462,112.8L200.85468413847056,112.8L200.90455701153923,112.8L200.9544298846079,112.8L201.0043027576765,112.8L201.05417563074516,112.8L201.25366712301974,112.8L201.3035399960884,112.6L201.35341286915704,112.6L201.4032857422257,112.4L201.55290436143164,112.4L201.6027772345003,112.4L201.65265010756895,112.4L201.70252298063758,112.4L201.75239585370622,114.2L201.90201447291219,112.4L201.95188734598082,112.4L202.0017602190495,112.4L202.05163309211812,112.4L202.1015059651868,112.4L202.25112458439273,112.4L202.30099745746136,112.4L202.35087033053003,112.4L202.4007432035987,112.4L202.4506160766673,112.4L202.65010756894193,112.4L202.69998044201054,112.6L202.7498533150792,112.4L202.79972618814784,112.4L202.94934480735378,112.4L202.99921768042245,112.4L203.0490905534911,112.4L203.09896342655975,112.6L203.1488362996284,112.6L203.29845491883435,114.2L203.348327791903,112.8L203.39820066497165,112.6L203.4480735380403,112.6L203.49794641110893,112.8L203.6475650303149,112.8L203.69743790338353,112.8L203.74731077645217,112.8L203.79718364952083,112.8L203.84705652258947,112.8L203.9966751417954,112.8L204.04654801486407,112.6L204.09642088793274,112.6L204.14629376100137,112.6L204.19616663407,112.6L204.34578525327598,112.6L204.3956581263446,112.6L204.44553099941325,112.6L204.49540387248192,112.6L204.54527674555055,112.6L204.6948953647565,112.6L204.74476823782516,112.6L204.7946411108938,112.6L204.84451398396246,115L204.89438685703112,112.6L205.04400547623703,112.6L205.0938783493057,112.6L205.14375122237436,112.6L205.19362409544297,112.6L205.24349696851164,112.6L205.3931155877176,112.6L205.4429884607862,112.6L205.49286133385488,112.6L205.54273420692354,112.6L205.59260707999218,112.6L205.74222569919812,112.6L205.79209857226678,112.6L205.84197144533542,112.6L205.89184431840408,112.6L205.94171719147272,112.6L206.09133581067866,112.6L206.14120868374732,112.6L206.19108155681596,112.6L206.2409544298846,112.6L206.29082730295326,114L206.4404459221592,112.6L206.49031879522784,112.6L206.5401916682965,112.6L206.59006454136517,112.6L206.6399374144338,112.6L206.78955603363974,112.6L206.8394289067084,112.6L206.88930177977704,112.6L206.93917465284568,112.6L206.98904752591434,112.6L207.13866614512028,112.6L207.18853901818892,112.6L207.23841189125758,112.6L207.28828476432622,112.6L207.3381576373949,112.6L207.48777625660082,112.6L207.53764912966946,112.6L207.58752200273813,112.6L207.63739487580676,112.6L207.6872677488754,112.6L207.88675924115,114.2L207.93663211421864,112.6L207.9865049872873,112.6L208.03637786035597,112.6L208.18599647956188,112.6L208.23586935263054,112.6L208.2857422256992,112.6L208.33561509876785,112.6L208.38548797183648,112.6L208.53510659104245,112.6L208.5849794641111,112.6L208.63485233717972,112.6L208.6847252102484,112.4L208.73459808331702,112.4L208.88421670252296,112.4L208.93408957559163,112.4L208.98396244866026,112.4L209.03383532172893,112.2L209.0837081947976,112L209.23332681400353,111.8L209.28319968707217,111.8L209.33307256014083,111.8L209.38294543320944,114L209.4328183062781,111.8L209.63230979855268,112L209.68218267162135,112L209.73205554469,112L209.78192841775865,112L209.9315470369646,112L209.98141991003325,112L210.0312927831019,112L210.08116565617055,112L210.1310385292392,112L210.28065714844516,112L210.3305300215138,112L210.38040289458243,112L210.43027576765107,112L210.48014864071973,112L210.62976725992567,112L210.67964013299434,112L210.72951300606297,112L210.77938587913164,112L210.82925875220027,114L210.9788773714062,112L211.02875024447488,112L211.07862311754351,112L211.12849599061215,112L211.17836886368082,112L211.32798748288678,112L211.3778603559554,112L211.42773322902406,112L211.4776061020927,112L211.52747897516136,112L211.6770975943673,112L211.72697046743596,112L211.7768433405046,112L211.82671621357326,112L211.87658908664187,112L212.02620770584784,112L212.0760805789165,112L212.12595345198514,112L212.17582632505378,112L212.22569919812244,112L212.37531781732838,112L212.42519069039702,112L212.47506356346568,114L212.52493643653432,112L212.57480930960298,112L212.7743008018776,112L212.82417367494622,112L212.87404654801486,112L212.9239194210835,112L213.07353804028946,112L213.1234109133581,112L213.17328378642677,112L213.2231566594954,112L213.27302953256407,112L213.42264815177,112L213.47252102483864,112L213.5223938979073,112L213.57226677097594,112L213.62213964404458,112L213.77175826325055,112L213.82163113631918,112L213.87150400938782,112L213.92137688245649,112L213.97124975552512,114.2L214.12086837473106,112L214.17074124779973,112L214.2206141208684,112L214.27048699393703,112L214.32035986700566,112L214.51985135928027,111.8L214.5697242323489,111.8L214.61959710541757,111.8L214.6694699784862,111.8L214.81908859769214,111.8L214.8689614707608,111.8L214.91883434382945,111.8L214.9687072168981,111.8L215.01858008996678,111.8L215.16819870917269,111.8L215.21807158224135,111.8L215.26794445531002,111.8L215.31781732837862,111.8L215.3676902014473,111.8L215.51730882065326,113.8L215.56718169372186,111.8L215.61705456679053,111.8L215.6669274398592,111.8L215.71680031292783,111.8L215.86641893213377,111.8L215.91629180520243,111.8L215.96616467827107,111.8L216.01603755133974,111.8L216.2155290436143,111.8L216.26540191668298,111.8L216.3152747897516,111.8L216.36514766282025,111.8L216.4150205358889,111.8L216.56463915509485,111.8L216.6145120281635,111.8L216.66438490123215,111.8L216.76413064736946,111.8L216.9137492665754,111.8L216.96362213964406,111.8L217.0134950127127,113.8L217.06336788578133,111.8L217.11324075885,111.8L217.26285937805594,111.8L217.31273225112457,111.8L217.36260512419324,111.8L217.41247799726187,111.8L217.46235087033054,111.8L217.61196948953648,111.8L217.6618423626051,111.8L217.71171523567378,111.8L217.76158810874244,106.8L217.81146098181105,106.8L217.96107960101702,106.8L218.01095247408568,106.8L218.0608253471543,106.8L218.11069822022296,106.8L218.16057109329162,106.8L218.3600625855662,106.8L218.40993545863486,106.8L218.4598083317035,106.8L218.50968120477216,109L218.70917269704674,106.8L218.7590455701154,106.8L218.80891844318404,106.8L218.85879131625268,106.8L219.00840993545864,106.8L219.05828280852728,106.8L219.10815568159592,106.8L219.15802855466458,106.8L219.20790142773325,106.8L219.40739292000782,106.8L219.4572657930765,106.8L219.50713866614512,106.8L219.55701153921376,106.8L219.70663015841973,106.8L219.75650303148834,106.8L219.806375904557,106.8L219.85624877762567,106.8L219.9061216506943,106.8L220.05574026990024,106.8L220.1056131429689,108.8L220.15548601603754,106.8L220.2053588891062,106.8L220.25523176217484,106.8L220.4048503813808,106.8L220.45472325444945,106.8L220.50459612751808,106.8L220.55446900058672,106.8L220.6043418736554,106.8L220.75396049286132,106.8L220.80383336592996,106.8L220.85370623899863,106.8L220.9035791120673,106.8L220.95345198513593,106.8L221.15294347741053,106.8L221.20281635047917,106.8L221.2526892235478,106.8L221.30256209661647,106.8L221.45218071582244,106.8L221.50205358889104,108.6L221.5519264619597,106.8L221.60179933502835,106.8L221.651672208097,106.8L221.80129082730295,106.8L221.85116370037161,106.8L221.90103657344025,106.8L221.95090944650892,106.8L222.00078231957752,106.8L222.1504009387835,106.8L222.20027381185216,106.8L222.25014668492076,106.8L222.30001955798943,101.8L222.3498924310581,101.8L222.49951105026403,101.8L222.54938392333267,101.8L222.59925679640133,101.8L222.64912966946997,101.8L222.69900254253864,101.8L222.84862116174457,101.8L222.89849403481324,101.8L222.94836690788188,101.8L222.9982397809505,101.8L223.04811265401915,103.6L223.19773127322512,101.8L223.24760414629375,101.8L223.29747701936242,101.8L223.34734989243105,101.8L223.39722276549972,101.8L223.54684138470566,101.8L223.5967142577743,101.8L223.64658713084296,101.8L223.6964600039116,101.8L223.74633287698023,101.8L223.8959514961862,101.8L223.94582436925486,101.8L223.99569724232347,101.8L224.04557011539214,101.8L224.09544298846077,101.8L224.2450616076667,101.8L224.29493448073538,101.8L224.34480735380404,101.8L224.39468022687268,101.8L224.44455309994134,103.4L224.59417171914728,101.8L224.64404459221592,101.8L224.69391746528458,101.8L224.74379033835322,101.8L224.79366321142186,101.8L224.94328183062783,101.8L224.99315470369646,101.8L225.0430275767651,101.8L225.09290044983376,101.8L225.1427733229024,101.8L225.29239194210834,101.8L225.342264815177,101.8L225.39213768824567,101.8L225.4420105613143,101.8L225.49188343438294,101.8L225.6415020535889,101.8L225.69137492665755,101.8L225.74124779972618,101.8L225.79112067279485,101.8L225.84099354586348,101.8L226.0404850381381,101.8L226.09035791120672,103.4L226.1402307842754,101.8L226.19010365734403,101.8L226.33972227654996,101.8L226.38959514961863,101.8L226.43946802268727,101.8L226.4893408957559,101.8L226.53921376882457,101.8L226.6888323880305,101.8L226.73870526109914,101.8L226.7885781341678,101.8L226.83845100723647,96.8L226.8883238803051,96.8L227.03794249951105,96.8L227.0878153725797,96.8L227.13768824564835,96.8L227.18756111871699,96.8L227.23743399178565,96.8L227.3870526109916,96.8L227.43692548406023,96.8L227.4867983571289,96.8L227.53667123019753,96.8L227.5865441032662,98.8L227.73616272247213,96.8L227.83590846860943,96.8L227.8857813416781,96.8L227.9356542147467,96.8L228.08527283395267,96.8L228.13514570702134,96.8L228.18501858008995,96.8L228.2348914531586,96.8L228.28476432622728,96.8L228.43438294543319,96.8L228.48425581850185,96.8L228.53412869157052,96.8L228.58400156463915,96.8L228.63387443770782,96.8L228.78349305691376,96.8L228.8333659299824,96.8L228.88323880305106,96.8L228.9331116761197,96.8L228.98298454918833,96.8L229.1326031683943,98.6L229.18247604146293,96.8L229.23234891453157,96.8L229.28222178760024,96.8L229.3320946606689,96.8L229.4817132798748,96.8L229.53158615294348,96.8L229.58145902601214,96.8L229.63133189908078,96.8L229.6812047721494,96.8L229.83082339135538,96.8L229.88069626442402,96.8L229.93056913749265,96.8L229.98044201056132,96.8L230.03031488362996,96.8L230.1799335028359,96.8L230.22980637590456,96.8L230.2796792489732,96.8L230.32955212204186,96.8L230.37942499511053,96.8L230.52904361431646,96.8L230.5789164873851,96.8L230.62878936045377,96.8L230.67866223352237,98.6L230.72853510659104,96.8L230.9280265988656,96.8L230.97789947193428,96.8L231.02777234500294,96.8L231.07764521807158,96.8L231.22726383727752,96.8L231.27713671034618,96.8L231.32700958341482,96.8L231.3768824564835,96.8L231.42675532955212,96.8L231.5763739487581,96.8L231.62624682182673,96.8L231.67611969489536,96.8L231.725992567964,96.8L231.77586544103266,96.8L231.9254840602386,96.8L231.97535693330727,96.8L232.0252298063759,96.8L232.07510267944457,96.8L232.12497555251318,98.8L232.27459417171914,96.8L232.3244670447878,96.8L232.37433991785642,96.8L232.42421279092508,96.8L232.47408566399375,96.8L232.67357715626832,96.8L232.723450029337,96.8L232.77332290240562,96.8L232.8231957754743,96.8L232.97281439468023,96.8L233.0226872677489,96.8L233.07256014081753,96.8L233.12243301388617,96.8L233.1723058869548,96.8L233.32192450616077,96.8L233.3717973792294,96.8L233.42167025229804,96.8L233.4715431253667,96.8L233.52141599843537,96.8L233.6710346176413,96.8L233.72090749070995,98.6L233.7707803637786,96.8L233.82065323684725,96.8L233.8705261099159,96.8L234.02014472912185,96.8L234.07001760219052,96.8L234.11989047525913,96.8L234.1697633483278,96.8L234.21963622139643,96.8L234.36925484060237,96.8L234.41912771367103,96.8L234.4690005867397,96.8L234.51887345980833,96.8L234.568746332877,96.8L234.71836495208294,96.8L234.76823782515157,96.8L234.81811069822024,96.8L234.9178564443575,96.8L235.06747506356348,96.8L235.11734793663211,96.8L235.16722080970075,96.8L235.21709368276942,98.6L235.26696655583805,96.8L235.416585175044,96.8L235.46645804811266,96.8L235.51633092118132,96.8L235.56620379424996,96.8L235.6160766673186,96.8L235.76569528652456,96.8L235.8155681595932,96.6L235.86544103266183,96.6L235.9153139057305,91.8L235.96518677879914,91.8L236.11480539800507,91.6L236.16467827107374,91.6L236.21455114414238,91.6L236.26442401721104,91.6L236.31429689027968,91.6L236.51378838255428,91.6L236.56366125562295,91.6L236.61353412869155,91.6L236.66340700176022,93.4L236.8628984940348,91.6L236.91277136710346,91.6L236.96264424017212,91.6L237.01251711324076,91.6L237.1621357324467,91.6L237.21200860551536,91.6L237.261881478584,91.6L237.31175435165267,91.6L237.3616272247213,91.6L237.5611187169959,91.6L237.61099159006454,91.6L237.66086446313318,91.6L237.71073733620184,91.6L237.86035595540778,91.6L237.91022882847642,91.6L237.96010170154509,91.6L238.00997457461375,91.6L238.05984744768236,91.6L238.20946606688833,91.6L238.259338939957,91.6L238.3092118130256,93.19999999999999L238.35908468609426,91.6L238.40895755916293,91.6L238.55857617836884,91.6L238.6084490514375,91.6L238.65832192450617,91.6L238.7081947975748,91.6L238.75806767064347,91.6L238.9076862898494,91.6L238.95755916291805,91.6L239.0074320359867,91.6L239.05730490905535,91.6L239.10717778212398,91.6L239.3066692743986,91.6L239.35654214746722,91.6L239.4064150205359,91.6L239.45628789360455,91.6L239.60590651281046,91.6L239.65577938587913,91.6L239.7056522589478,93L239.75552513201643,91.6L239.80539800508507,91.6L239.95501662429103,91.6L240.00488949735967,91.6L240.0547623704283,91.6L240.10463524349697,91.6L240.1545081165656,91.6L240.30412673577155,91.6L240.3539996088402,91.6L240.40387248190885,91.6L240.4537453549775,91.4L240.50361822804618,91.4L240.6532368472521,91.4L240.70310972032075,91.2L240.75298259338942,91.2L240.80285546645803,86.4L240.8527283395267,86.4L241.00234695873266,86.4L241.05221983180127,86.4L241.10209270486993,86.4L241.1519655779386,86.4L241.20183845100723,86.6L241.35145707021317,86.4L241.40132994328184,86.19999999999999L241.45120281635047,86.19999999999999L241.50107568941914,86.19999999999999L241.55094856248778,86.19999999999999L241.70056718169374,86.19999999999999L241.75044005476238,86.19999999999999L241.80031292783102,86.19999999999999L241.85018580089965,86.19999999999999L241.90005867396832,86.19999999999999L242.04967729317426,86.19999999999999L242.0995501662429,86.19999999999999L242.14942303931156,86.19999999999999L242.19929591238022,86.19999999999999L242.24916878544886,86L242.3987874046548,86L242.44866027772346,86L242.4985331507921,86L242.54840602386074,86L242.5982788969294,86L242.74789751613537,86.19999999999999L242.79777038920398,86L242.84764326227264,86L242.89751613534128,86" fill="none" stroke="#af516c" stroke-linejoin="round" stroke-linecap="round" stroke-width="2"></path></g></g></svg>