<svg xmlns="http://www.w3.org/2000/svg" viewBox="0 0 304 270"><style>/* <![CDATA[ */.chart-title{font-size:20px;fill:#43423e}.chart-subtitle{font-size:15px;fill:#74736c}.chart-source{font-size:10px;fill-opacity:.4}.axis .domain{fill:none;stroke:#74736c}.tick line{fill:none;stroke:#000;stroke-opacity:.2}.tick text{fill-opacity:.6;font-size:12px}.y.axis .tick line{stroke-dasharray:1}.y.axis .domain{fill:none;stroke-opacity:0}.y.axis .highlight-line{fill:none;stroke:#74736c}/* ]]> */</style><text class="chart-title" y="22">房屋销售面积</text><text class="chart-subtitle" y="42">同比增长率％</text><text class="chart-source" y="265">来源:CEIC. 2018年3月19日</text><g transform="translate(1,100)"><g class="x axis" transform="translate(0,120)" fill="none" font-size="10" font-family="sans-serif" text-anchor="middle"><path class="domain" stroke="#000" d="M0.5,0V0.5H255.5V0"></path><g class="tick" opacity="1" transform="translate(18.703598670056717,0)"><line stroke="#000" y2="6"></line><text fill="#000" y="9" dy="0.71em">2006</text></g><g class="tick" opacity="1" transform="translate(55.110796010170155,0)"><line stroke="#000" y2="6"></line><text fill="#000" y="9" dy="0.71em">2008</text></g><g class="tick" opacity="1" transform="translate(91.56786622335224,0)"><line stroke="#000" y2="6"></line><text fill="#000" y="9" dy="0.71em">2010</text></g><g class="tick" opacity="1" transform="translate(127.97506356346567,0)"><line stroke="#000" y2="6"></line><text fill="#000" y="9" dy="0.71em">2012</text></g><g class="tick" opacity="1" transform="translate(164.43213377664776,0)"><line stroke="#000" y2="6"></line><text fill="#000" y="9" dy="0.71em">2014</text></g><g class="tick" opacity="1" transform="translate(200.8393311167612,0)"><line stroke="#000" y2="6"></line><text fill="#000" y="9" dy="0.71em">2016</text></g><g class="tick" opacity="1" transform="translate(237.29640132994328,0)"><line stroke="#000" y2="6"></line><text fill="#000" y="9" dy="0.71em">2018</text></g></g><g class="y axis" transform="translate(255,0)" fill="none" font-size="10" font-family="sans-serif" text-anchor="start"><path class="domain" stroke="#000" d="M0,120.5H0.5V0.5H0"></path><g class="tick" opacity="1" transform="translate(0,102.26)"><line stroke="#000" x2="-255"></line><text fill="#000" x="3" dy="0.32em">0</text></g><g class="tick" opacity="1" transform="translate(0,83.06)"><line stroke="#000" x2="-255"></line><text fill="#000" x="3" dy="0.32em">20</text></g><g class="tick" opacity="1" transform="translate(0,63.86)"><line stroke="#000" x2="-255"></line><text fill="#000" x="3" dy="0.32em">40</text></g><g class="tick" opacity="1" transform="translate(0,44.66)"><line stroke="#000" x2="-255"></line><text fill="#000" x="3" dy="0.32em">60</text></g><g class="tick" opacity="1" transform="translate(0,25.459999999999994)"><line stroke="#000" x2="-255"></line><text fill="#000" x="3" dy="0.32em">80</text></g><g class="tick" opacity="1" transform="translate(0,6.260000000000005)"><line stroke="#000" x2="-255"></line><text fill="#000" x="3" dy="0.32em">100</text></g><line class="highlight-line" x1="0" y1="101.76" x2="-255" y2="101.76"></line></g><g><path d="M1.5626833561509876,85.55720460407562L2.959123802073147,81.49736633607732L4.505182867201252,85.33178924960085L6.001369059260709,88.18916416067694L7.547428124388813,88.45003912849187L9.043614316448268,79.59261818848637L10.589673381576374,5.695127838029649L12.135732446704479,14.609809846512832L13.631918638763935,15.095005999502263L15.17797770389204,22.199140710057463L16.674163895951498,57.72318154427137L18.220222961079603,0.17772678858804625L19.76628202620771,0.17772678858804625L21.162722472129865,22.215064027959713L22.70878153725797,18.487351385365642L24.204967729317424,14.188029597837101L25.75102679444553,21.811202784351224L27.247212986504987,39.13597721728536L28.793272051633092,101.19968589666139L30.339331116761198,98.55931384338932L31.835517308820652,98.27520609145262L33.381576373948754,95.72915876955571L34.877762566008215,93.3958127523573L36.42382163113632,101.26452986545718L37.969880696264426,101.26452986545718L39.36632114218658,90.16876870672955L40.91238020731468,86.15542651504151L42.408566399374145,85.8224386728968L43.95462546450225,81.17199977141982L45.450811656561704,77.75200875269513L46.99687072168981,73.65481745123517L48.542929786817915,71.03018774118311L50.039115978877376,71.66505455133256L51.58517504400548,72.52537822297327L53.081361236064936,77.11470557464004L54.62742030119304,105.82276270741528L56.173479366321146,105.82276270741528L57.61979268531195,103.1293756276253L59.165851750440055,106.45497629605212L60.66203794249951,108.63541989617484L62.208097007627615,108.68031903542487L63.704283199687076,112.1180509695967L65.25034226481517,115.91064273535616L66.79640132994328,116.0454845922364L68.29258752200275,117.60678268629569L69.83864658713084,119.32767437702539L71.3348327791903,119.5302182784306L72.88089184431841,102.00096729739644L74.4269509094465,102.00096729739644L75.82339135536867,93.86671669697672L77.36945042049676,84.91308547245347L78.86563661255623,77.25787427273862L80.41169567768434,71.29835082683617L81.90788186974379,66.13580097710906L83.4539409348719,60.62130702374516L85,58.784016537385675L86.49618619205947,55.29631795533395L88.04224525718756,50.868033952574166L89.53843144924701,51.25274907744196L91.08449051437512,63.89420068011698L92.63054957950322,63.89420068011698L94.02699002542539,67.36098768922898L95.57304909055348,70.24169742173748L97.06923528261295,80.16001783120257L98.61529434774106,87.00073071052157L100.1114805398005,92.41719836381482L101.65753960492862,95.37158684590172L103.2035986700567,93.89985544939171L104.69978486211618,92.99467404210833L106.24584392724428,92.39257066790721L107.74203011930373,92.03983247744182L109.28808918443184,88.50719299337942L110.83414824955995,88.50719299337942L112.2305886954821,87.49918590247049L113.7766477606102,95.6677630961449L115.27283395266967,93.03999792960678L116.81889301779776,89.39960169178347L118.31507920985722,88.73087294043788L119.86113827498534,88.73696863863623L121.40719734011343,89.38795655803119L122.9033835321729,92.18423764076152L124.449442597301,93.55743982021309L125.94562878936046,96.61132930569505L127.49168785448856,115.1856344508156L129.03774691961667,115.1856344508156L130.48406023860747,114.83894761736725L132.03011930373557,114.62373966709256L133.52630549579501,113.65136088595692L135.07236456092315,111.3881413907099L136.5685507529826,108.11340632771964L138.11460981811072,105.6724871592935L139.6606688832388,105.59432694527739L141.15685507529824,102.85697785071034L142.70291414042637,99.49794051493377L144.1991003324858,100.57417328842344L145.74515939761395,54.24089817787839L147.29121846274202,54.24089817787839L148.6876589086642,66.11184210186818L150.2337179737923,65.25583124704954L151.72990416585176,67.60329560320935L153.27596323097984,74.2099746939632L154.7721494230393,76.98607818360546L156.31820848816741,79.30935431785676L157.86426755329552,79.39894385260862L159.360453745355,80.8050720642903L160.90651281048306,81.7635522255963L162.40269900254253,85.15940420137036L163.94875806767064,101.81066082366317L165.49481713279874,101.81066082366317L166.8912575787209,105.37436867738889L168.43731664384902,108.37687531750322L169.93350283590848,109.2414089725213L171.4795619010366,107.48658904221786L172.97574809309603,109.06787814188041L174.52180715822414,109.69347962989289L176.06786622335224,110.0097695418013L177.56405241541168,109.20252373728319L179.1101114805398,109.63552571706552L180.60629767259925,109.0414447268304L182.1523567377274,117.3697313158345L183.69841580285546,117.3697313158345L185.09485624877763,110.62307700785946L186.6409153139057,106.34944515184944L188.13710150596518,101.95487444220375L189.68316057109328,97.99185719078503L191.17934676315275,95.92171560428116L192.72540582828086,94.83565145436864L194.27146489340896,94.57052932611104L195.7676510854684,94.81246847459282L197.3137101505965,94.64737537433871L198.80989634265597,95.51660283282962L200.35595540778408,74.69626925937392L201.90201447291219,74.69626925937392L203.348327791903,69.9706127293694L204.89438685703112,66.7297963790448L206.39057304909056,69.8692350703512L207.93663211421864,74.94678044306828L209.4328183062781,76.37055713216449L210.9788773714062,77.26800976226207L212.52493643653432,75.96614409813954L214.0211226285938,76.02445268100371L215.56718169372186,78.40710298820608L217.06336788578133,80.20318604045545L218.60942695090944,77.6647936918854L220.15548601603754,77.6647936918854L221.5519264619597,83.05067897991385L223.09798552708781,86.71735534475854L224.59417171914728,88.01432076977676L226.1402307842754,86.29428425301822L227.63641697633486,88.33992869613911L229.18247604146293,89.58775912447119L230.72853510659104,91.88329405559007L232.2247212986505,93.84980474155611L233.7707803637786,94.17013029829275L235.26696655583805,94.40250215270362L236.8130256209662,97.80984837672163L238.35908468609426,97.80984837672163" fill="none" stroke="#af516c" stroke-linejoin="round" stroke-linecap="round" stroke-width="2"></path></g></g></svg>