<svg xmlns="http://www.w3.org/2000/svg" viewBox="0 0 304 270"><style>/* <![CDATA[ */.chart-title{font-size:20px;fill:#43423e}.chart-subtitle{font-size:15px;fill:#74736c}.chart-source{font-size:10px;fill-opacity:.4}.axis .domain{fill:none;stroke:#74736c}.tick line{fill:none;stroke:#000;stroke-opacity:.2}.tick text{fill-opacity:.6;font-size:12px}.y.axis .tick line{stroke-dasharray:1}.y.axis .domain{fill:none;stroke-opacity:0}.y.axis .highlight-line{fill:none;stroke:#74736c}/* ]]> */</style><text class="chart-title" y="22">房屋施工面积</text><text class="chart-subtitle" y="42">同比增长率％</text><text class="chart-source" y="265">来源:CEIC. 2018年3月23日</text><g transform="translate(1,100)"><g class="x axis" transform="translate(0,120)" fill="none" font-size="10" font-family="sans-serif" text-anchor="middle"><path class="domain" stroke="#000" d="M0.5,0V0.5H255.5V0"></path><g class="tick" opacity="1" transform="translate(0.5,0)"><line stroke="#000" y2="6"></line><text fill="#000" y="9" dy="0.71em">2004</text></g><g class="tick" opacity="1" transform="translate(36.94994133750489,0)"><line stroke="#000" y2="6"></line><text fill="#000" y="9" dy="0.71em">2006</text></g><g class="tick" opacity="1" transform="translate(73.35001955416503,0)"><line stroke="#000" y2="6"></line><text fill="#000" y="9" dy="0.71em">2008</text></g><g class="tick" opacity="1" transform="translate(109.79996089166993,0)"><line stroke="#000" y2="6"></line><text fill="#000" y="9" dy="0.71em">2010</text></g><g class="tick" opacity="1" transform="translate(146.20003910833006,0)"><line stroke="#000" y2="6"></line><text fill="#000" y="9" dy="0.71em">2012</text></g><g class="tick" opacity="1" transform="translate(182.64998044583496,0)"><line stroke="#000" y2="6"></line><text fill="#000" y="9" dy="0.71em">2014</text></g><g class="tick" opacity="1" transform="translate(219.0500586624951,0)"><line stroke="#000" y2="6"></line><text fill="#000" y="9" dy="0.71em">2016</text></g><g class="tick" opacity="1" transform="translate(255.5,0)"><line stroke="#000" y2="6"></line><text fill="#000" y="9" dy="0.71em">2018</text></g></g><g class="y axis" transform="translate(255,0)" fill="none" font-size="10" font-family="sans-serif" text-anchor="start"><path class="domain" stroke="#000" d="M0,120.5H0.5V0.5H0"></path><g class="tick" opacity="1" transform="translate(0,101.21428571428571)"><line stroke="#000" x2="-255"></line><text fill="#000" x="3" dy="0.32em">0</text></g><g class="tick" opacity="1" transform="translate(0,79.78571428571428)"><line stroke="#000" x2="-255"></line><text fill="#000" x="3" dy="0.32em">10</text></g><g class="tick" opacity="1" transform="translate(0,58.357142857142854)"><line stroke="#000" x2="-255"></line><text fill="#000" x="3" dy="0.32em">20</text></g><g class="tick" opacity="1" transform="translate(0,36.92857142857143)"><line stroke="#000" x2="-255"></line><text fill="#000" x="3" dy="0.32em">30</text></g><g class="tick" opacity="1" transform="translate(0,15.5)"><line stroke="#000" x2="-255"></line><text fill="#000" x="3" dy="0.32em">40</text></g><line class="highlight-line" x1="0" y1="100.71428571428571" x2="-255" y2="100.71428571428571"></line></g><g><path d="M18.266523269456393,75.60626854080716L19.81228001564333,75.60626854080716L21.208447399296052,66.04766662152554L22.754204145482987,66.75388073813352L24.250097770825185,49.77426642886752L25.795854517012124,51.674454295688605L27.291748142354322,65.93625017274724L28.83750488854126,62.788513520932476L30.3832616347282,59.05398566021144L31.879155260070394,58.42494073877909L33.42491200625733,58.180312453965755L34.920805631599535,61.90590022873661L36.46656237778647,40.86944377896242L38.012319123973406,40.86944377896242L39.40848650762613,45.67697327983066L40.95424325381306,51.262613099146776L42.45013687915526,72.19774355101764L43.9958936253422,71.48334976877997L45.491787250684396,61.04791676293624L47.037543996871335,67.04389725597628L48.583300743058274,72.08636118140046L50.07919436840047,74.01949008463869L51.624951114587404,75.15396494655869L53.12084473992961,74.02337400961744L54.66660148611654,63.79602921075758L56.21235823230348,63.79602921075758L57.6085256159562,59.30289618092277L59.154282362143135,57.4627134188323L60.65017598748533,56.61329809608352L62.19593273367227,56.66408381483436L63.69182635901447,54.59005295336624L65.23758310520141,54.36102322747122L66.78333985138835,56.14299033508142L68.27923347673054,54.22825147898119L69.82499022291749,53.345999660654854L71.32088384825968,56.34280035741427L72.86664059444661,34.16172851838236L74.41239734063356,34.16172851838236L75.85842784513102,45.05813258656154L77.40418459131796,49.39522516550075L78.90007821666016,51.735020661612964L80.44583496284709,52.118307983530116L81.94172858818928,53.711816434731816L83.48748533437623,55.4681811852481L85.03324208056317,57.059461584144756L86.52913570590535,60.67567964273142L88.0748924520923,62.743045245224984L89.57078607743449,68.98766390200626L91.11654282362143,67.93533941951749L92.66229956980838,67.93533941951749L94.05846695346109,69.42258069305174L95.60422369964802,70.29584286749338L97.10011732499022,67.11190514485949L98.64587407117716,61.98618585755899L100.14176769651937,63.606404901289416L101.68752444270629,51.97051678885768L103.23328118889323,47.788446744712346L104.72917481423544,45.8254744201287L106.27493156042237,45.59752085226543L107.77082518576458,55.409739500236526L109.3165819319515,1.514523253027292L110.86233867813844,1.514523253027292L112.25850606179117,25.130885790936077L113.8042628079781,33.09847599082616L115.3001564333203,37.83037998367912L116.84591317950724,49.356525620624296L118.34180680484943,47.003593888330755L119.88756355103637,55.18410172888156L121.43332029722332,57.66252607770855L122.92921392256551,58.51795298038915L124.47497066875243,57.63929355428063L125.97086429409464,51.58617478999348L127.51662104028158,28.047434012437293L129.06237778646852,28.047434012437293L130.45854517012123,33.117828214180236L132.00430191630818,32.44747465757584L133.50019554165036,31.795411614905177L135.0459522878373,29.66357732454223L136.5418459131795,30.007540884905936L138.08760265936644,31.04259027796104L139.63335940555336,30.91905030650065L141.12925303089557,29.349470226733004L142.6750097770825,28.887065992152472L144.1709034024247,36.15052141708723L145.71666014861165,32.90618712838646L147.26241689479858,32.90618712838646L148.70844739929606,51.21312313392217L150.254204145483,56.95866471007098L151.7500977708252,61.27538166630053L153.29585451701212,63.544084823126546L154.79174814235432,64.85480324738663L156.33750488854128,65.96216959631965L157.8832616347282,66.46658179379526L159.3791552600704,67.65880154687915L160.92491200625733,69.72258890573008L162.42080563159953,67.80604143954831L163.9665623777865,67.8764904838705L165.5123191239734,67.8764904838705L166.90848650762612,64.7018624068893L168.45424325381305,64.25954030943944L169.95013687915525,64.75204332381L171.4958936253422,65.44460143404483L172.99178725068438,66.98570159130765L174.53754399687134,68.53423695333856L176.08330074305826,71.14017238631001L177.57919436840047,72.30745097880313L179.12495111458742,66.40079600334889L180.6208447399296,63.514561739064796L182.16660148611655,69.44627900405834L183.71235823230347,69.44627900405834L185.10852561595618,77.6527044523508L186.65428236214314,82.89269090425685L188.15017598748534,82.77328239580652L189.69593273367227,85.6452025038295L191.19182635901447,90.96414604948242L192.7375831052014,89.6541474981344L194.28333985138835,89.70608619226974L195.77923347673052,90.25034090133084L197.32499022291748,95.44131527819724L198.82088384825968,99.80134750532325L200.3666405944466,91.55817891977803L201.91239734063356,91.55817891977803L203.30856472428627,93.65987386461248L204.85432147047322,97.33510733719592L206.3502150958154,104.07498344121356L207.89597184200235,102.47231225431938L209.39186546734453,105.29831700747962L210.93762221353145,108.47481076490189L212.48337895971844,107.95253022025776L213.9792725850606,107.48518414314296L215.52502933124754,105.83441253729825L217.02092295658974,110.17829504833713L218.56667970277667,102.75599975982502L220.11243644896362,102.75599975982502L221.55846695346108,108.53960463996619L223.10422369964803,109.71787819910128L224.60011732499024,112.18822800996423L226.14587407117716,119.69570027958726L227.64176769651937,116.2974633536445L229.1875244427063,104.4217886687105L230.73328118889324,106.79350761881767L232.22917481423545,107.80168124346241L233.77493156042237,109.83783390113769L235.27082518576458,104.60122591266776L236.8165819319515,90.45748528011558L238.36233867813846,90.45748528011558L239.75850606179117,91.53990866594154L241.3042628079781,93.28830819853249L242.8001564333203,95.88175518925617L244.34591317950722,98.69446478355185L245.84180680484943,98.59802691658909L247.38756355103638,112.07519999593231L248.9333202972233,112.71055587253099L250.4292139225655,113.00623070308346L251.97497066875243,113.75393043765024L253.47086429409464,115.61134780249162" fill="none" stroke="#af516c" stroke-linejoin="round" stroke-linecap="round" stroke-width="2"></path></g></g></svg>