<svg xmlns="http://www.w3.org/2000/svg" viewBox="0 0 304 270"><style>/* <![CDATA[ */.chart-title{font-size:20px;fill:#43423e}.chart-subtitle{font-size:15px;fill:#74736c}.chart-source{font-size:10px;fill-opacity:.4}.axis .domain{fill:none;stroke:#74736c}.tick line{fill:none;stroke:#000;stroke-opacity:.2}.tick text{fill-opacity:.6;font-size:12px}.y.axis .tick line{stroke-dasharray:1}.y.axis .domain{fill:none;stroke-opacity:0}.y.axis .highlight-line{fill:none;stroke:#74736c}/* ]]> */</style><text class="chart-title" y="22">人均GDP</text><text class="chart-subtitle" y="42">每季(英镑),按不变价格</text><text class="chart-source" y="265">来源:英国国家统计局╱彭博. 2018年3月29日</text><g transform="translate(1,100)"><g class="x axis" transform="translate(0,120)" fill="none" font-size="10" font-family="sans-serif" text-anchor="middle"><path class="domain" stroke="#000" d="M0.5,0V0.5H255.5V0"></path><g class="tick" opacity="1" transform="translate(20.102990732940185,0)"><line stroke="#000" y2="6"></line><text fill="#000" y="9" dy="0.71em">2006</text></g><g class="tick" opacity="1" transform="translate(59.308972198820555,0)"><line stroke="#000" y2="6"></line><text fill="#000" y="9" dy="0.71em">2008</text></g><g class="tick" opacity="1" transform="translate(98.56866048862679,0)"><line stroke="#000" y2="6"></line><text fill="#000" y="9" dy="0.71em">2010</text></g><g class="tick" opacity="1" transform="translate(137.77464195450716,0)"><line stroke="#000" y2="6"></line><text fill="#000" y="9" dy="0.71em">2012</text></g><g class="tick" opacity="1" transform="translate(177.0343302443134,0)"><line stroke="#000" y2="6"></line><text fill="#000" y="9" dy="0.71em">2014</text></g><g class="tick" opacity="1" transform="translate(216.24031171019377,0)"><line stroke="#000" y2="6"></line><text fill="#000" y="9" dy="0.71em">2016</text></g><g class="tick" opacity="1" transform="translate(255.5,0)"><line stroke="#000" y2="6"></line><text fill="#000" y="9" dy="0.71em">2018</text></g></g><g class="y axis" transform="translate(255,0)" fill="none" font-size="10" font-family="sans-serif" text-anchor="start"><path class="domain" stroke="#000" d="M0,120.5H0.5V0.5H0"></path><g class="tick" opacity="1" transform="translate(0,106.08011049723757)"><line stroke="#000" x2="-255"></line><text fill="#000" x="3" dy="0.32em">6,800</text></g><g class="tick" opacity="1" transform="translate(0,72.93093922651934)"><line stroke="#000" x2="-255"></line><text fill="#000" x="3" dy="0.32em">7,000</text></g><g class="tick" opacity="1" transform="translate(0,39.781767955801115)"><line stroke="#000" x2="-255"></line><text fill="#000" x="3" dy="0.32em">7,200</text></g><g class="tick" opacity="1" transform="translate(0,6.6325966850828735)"><line stroke="#000" x2="-255"></line><text fill="#000" x="3" dy="0.32em">7,400</text></g></g><g><path d="M4.797809604043808,100.60773480662984L9.68513058129739,90.33149171270718L14.626158382476833,80.22099447513813L19.567186183656275,65.30386740331491L24.40080033698399,64.30939226519337L29.288121314237575,63.97790055248619L34.22914911541702,65.30386740331491L39.17017691659646,63.48066298342542L44.003791069924176,55.19337016574586L48.89111204717776,49.22651933701658L53.8321398483572,43.75690607734806L58.77316764953665,36.79558011049724L63.660488626790226,35.96685082872928L68.54780960404382,46.40883977900553L73.48883740522325,67.4585635359116L78.4298652064027,94.80662983425415L83.26347935973041,115.02762430939227L88.150800336984,119.50276243093923L93.09182813816344,120L98.03285593934288,119.17127071823204L102.8664700926706,115.52486187845304L107.75379106992419,107.73480662983425L112.69481887110364,104.7513812154696L117.63584667228307,106.40883977900552L122.46946082561078,102.09944751381215L127.35678180286438,102.76243093922652L132.2978096040438,100.27624309392266L137.23883740522325,100.11049723756906L142.12615838247683,94.64088397790056L147.0134793597304,97.79005524861878L151.95450716090986,86.51933701657458L156.8955349620893,89.8342541436464L161.72914911541702,84.3646408839779L166.6164700926706,80.05524861878453L171.55749789385004,72.43093922651934L176.4985256950295,68.61878453038673L181.3321398483572,60.828729281767956L186.21946082561078,53.20441988950276L191.16048862679023,46.574585635359114L196.1015164279697,39.77900552486189L200.9351305812974,38.121546961325976L205.82245155855097,33.646408839779L210.7634793597304,30.82872928176795L215.70450716090986,24.198895027624303L220.59182813816344,24.86187845303867L225.47914911541702,21.546961325966862L230.42017691659646,16.906077348066304L235.3612047177759,9.613259668508277L240.19481887110362,7.6243093922651894L245.0821398483572,6.46408839779005L250.02316764953665,2.8176795580110507L254.9641954507161,0" fill="none" stroke="#af516c" stroke-linejoin="round" stroke-linecap="round" stroke-width="2"></path></g></g></svg>