<svg xmlns="http://www.w3.org/2000/svg" viewBox="0 0 304 270"><style>/* <![CDATA[ */.chart-title{font-size:20px;fill:#43423e}.chart-subtitle{font-size:15px;fill:#74736c}.chart-source{font-size:10px;fill-opacity:.4}.axis .domain{fill:none;stroke:#74736c}.tick line{fill:none;stroke:#000;stroke-opacity:.2}.tick text{fill-opacity:.6;font-size:12px}.y.axis .tick line{stroke-dasharray:1}.y.axis .domain{fill:none;stroke-opacity:0}.y.axis .highlight-line{fill:none;stroke:#74736c}/* ]]> */</style><text class="chart-title" y="22">人均GDP</text><text class="chart-subtitle" y="42">美元</text><text class="chart-source" y="265">来源:CEIC整理. 2018年2月28日</text><g transform="translate(1,100)"><g class="x axis" transform="translate(0,120)" fill="none" font-size="10" font-family="sans-serif" text-anchor="middle"><path class="domain" stroke="#000" d="M0.5,0V0.5H255.5V0"></path><g class="tick" opacity="1" transform="translate(0.5,0)"><line stroke="#000" y2="6"></line><text fill="#000" y="9" dy="0.71em">1980</text></g><g class="tick" opacity="1" transform="translate(64.25872689938399,0)"><line stroke="#000" y2="6"></line><text fill="#000" y="9" dy="0.71em">1990</text></g><g class="tick" opacity="1" transform="translate(128,0)"><line stroke="#000" y2="6"></line><text fill="#000" y="9" dy="0.71em">2000</text></g><g class="tick" opacity="1" transform="translate(191.758726899384,0)"><line stroke="#000" y2="6"></line><text fill="#000" y="9" dy="0.71em">2010</text></g><g class="tick" opacity="1" transform="translate(255.5,0)"><line stroke="#000" y2="6"></line><text fill="#000" y="9" dy="0.71em">2020</text></g></g><g class="y axis" transform="translate(255,0)" fill="none" font-size="10" font-family="sans-serif" text-anchor="start"><path class="domain" stroke="#000" d="M0,120.5H0.5V0.5H0"></path><g class="tick" opacity="1" transform="translate(0,96.3624722254707)"><line stroke="#000" x2="-255"></line><text fill="#000" x="3" dy="0.32em">2,000</text></g><g class="tick" opacity="1" transform="translate(0,68.29557946439013)"><line stroke="#000" x2="-255"></line><text fill="#000" x="3" dy="0.32em">4,000</text></g><g class="tick" opacity="1" transform="translate(0,40.22868670330956)"><line stroke="#000" x2="-255"></line><text fill="#000" x="3" dy="0.32em">6,000</text></g><g class="tick" opacity="1" transform="translate(0,12.161793942228968)"><line stroke="#000" x2="-255"></line><text fill="#000" x="3" dy="0.32em">8,000</text></g></g><g><path d="M5.852840520191649,119.54621362025495L12.223477070499658,119.84825155691732L18.594113620807665,119.987028992726L24.964750171115675,119.7637326115776L31.352840520191652,119.70950276084669L37.72347707049966,119.8022078149924L44.09411362080767,119.9841054291194L50.464750171115675,119.70586702720149L56.852840520191656,118.74683587893814L63.22347707049966,118.2102295976611L69.59411362080766,119.06278968275056L75.96475017111568,118.8997654546135L82.35284052019165,118.00275287713718L88.72347707049965,116.5758697775231L95.09411362080768,117.30088665798152L101.46475017111567,115.39456095619227L107.85284052019165,114.00347502710794L114.22347707049967,112.99688463992516L120.59411362080766,112.3315103466729L126.96475017111568,111.67465178037656L133.35284052019165,110.4662070425915L139.72347707049965,109.14992449046895L146.09411362080766,107.81227722058239L152.4647501711157,105.8458294252836L158.85284052019165,102.7574573708806L165.22347707049965,99.32202332241843L171.59411362080766,94.4648838693954L177.9647501711157,86.0962936792422L184.35284052019165,75.21183578627061L190.72347707049965,70.05739938453982L197.09411362080766,59.917050340591736L203.46475017111567,44.88890840720383L209.85284052019165,34.9320125468834L216.22347707049965,23.8331785074962L222.59411362080766,16.40501709746229L228.96475017111567,11.691127988820014L235.35284052019165,9.968062975418079L241.72347707049965,0.011675570436210592" fill="none" stroke="#af516c" stroke-linejoin="round" stroke-linecap="round" stroke-width="2"></path></g></g></svg>