<svg xmlns="http://www.w3.org/2000/svg" viewBox="0 0 304 270"><style>/* <![CDATA[ */.chart-title{font-size:20px;fill:#43423e}.chart-subtitle{font-size:15px;fill:#74736c}.chart-source{font-size:10px;fill-opacity:.4}.axis .domain{fill:none;stroke:#74736c}.tick line{fill:none;stroke:#000;stroke-opacity:.2}.tick text{fill-opacity:.6;font-size:12px}.y.axis .tick line{stroke-dasharray:1}.y.axis .domain{fill:none;stroke-opacity:0}.y.axis .highlight-line{fill:none;stroke:#74736c}/* ]]> */</style><text class="chart-title" y="22">房价</text><text class="chart-subtitle" y="42">年增长％</text><text class="chart-source" y="265">来源:英国国家统计局╱彭博. 2016年5月17日</text><g transform="translate(1,100)"><g class="x axis" transform="translate(0,120)" fill="none" font-size="10" font-family="sans-serif" text-anchor="middle"><path class="domain" stroke="#000" d="M0.5,0V0.5H255.5V0"></path><g class="tick" opacity="1" transform="translate(21.735455167693363,0)"><line stroke="#000" y2="6"></line><text fill="#000" y="9" dy="0.71em">2006</text></g><g class="tick" opacity="1" transform="translate(64.2063655030801,0)"><line stroke="#000" y2="6"></line><text fill="#000" y="9" dy="0.71em">2008</text></g><g class="tick" opacity="1" transform="translate(106.73545516769336,0)"><line stroke="#000" y2="6"></line><text fill="#000" y="9" dy="0.71em">2010</text></g><g class="tick" opacity="1" transform="translate(149.20636550308006,0)"><line stroke="#000" y2="6"></line><text fill="#000" y="9" dy="0.71em">2012</text></g><g class="tick" opacity="1" transform="translate(191.73545516769335,0)"><line stroke="#000" y2="6"></line><text fill="#000" y="9" dy="0.71em">2014</text></g><g class="tick" opacity="1" transform="translate(234.2063655030801,0)"><line stroke="#000" y2="6"></line><text fill="#000" y="9" dy="0.71em">2016</text></g></g><g class="y axis" transform="translate(255,0)" fill="none" font-size="10" font-family="sans-serif" text-anchor="start"><path class="domain" stroke="#000" d="M0,120.5H0.5V0.5H0"></path><g class="tick" opacity="1" transform="translate(0,102.72222222222223)"><line stroke="#000" x2="-255"></line><text fill="#000" x="3" dy="0.32em">-10</text></g><g class="tick" opacity="1" transform="translate(0,80.5)"><line stroke="#000" x2="-255"></line><text fill="#000" x="3" dy="0.32em">-5</text></g><g class="tick" opacity="1" transform="translate(0,58.27777777777778)"><line stroke="#000" x2="-255"></line><text fill="#000" x="3" dy="0.32em">0</text></g><g class="tick" opacity="1" transform="translate(0,36.05555555555556)"><line stroke="#000" x2="-255"></line><text fill="#000" x="3" dy="0.32em">5</text></g><g class="tick" opacity="1" transform="translate(0,13.833333333333343)"><line stroke="#000" x2="-255"></line><text fill="#000" x="3" dy="0.32em">10</text></g><line class="highlight-line" x1="0" y1="57.77777777777778" x2="-255" y2="57.77777777777778"></line></g><g><path d="M1.7647729865389001,13.333333333333343L3.3937942048825005,11.111111111111114L5.197353410905772,1.7777777777777715L6.942733287702486,27.111111111111114L8.746292493725758,31.111111111111114L10.491672370522474,35.55555555555556L12.295231576545744,40L14.098790782569017,45.33333333333333L15.844170659365732,43.55555555555557L17.647729865389003,50.66666666666667L19.393109742185715,48L21.196668948208988,44.8888888888889L23.00022815423226,39.55555555555556L24.629249372575863,42.66666666666667L26.432808578599133,43.111111111111114L28.178188455395848,35.55555555555556L29.981747661419117,32.44444444444444L31.727127538215832,34.22222222222223L33.530686744239105,31.55555555555557L35.33424595026238,24.8888888888889L37.07962582705909,22.22222222222223L38.88318503308237,20L40.62856490987908,18.66666666666667L42.43212411590235,13.777777777777771L44.23568332192562,9.777777777777771L45.86470454026922,5.333333333333329L47.668263746292496,9.333333333333343L49.41364362308921,8.444444444444443L51.21720282911247,9.777777777777771L52.96258270590919,4L54.766141911932465,3.1111111111111143L56.56970111795574,7.555555555555543L58.31508099475245,9.777777777777771L60.11864020077572,7.555555555555543L61.86402007757244,14.222222222222214L63.66757928359571,20.444444444444443L65.47113848961898,22.666666666666686L67.15833903718914,29.77777777777777L68.9618982432124,34.66666666666666L70.70727812000912,37.333333333333314L72.5108373260324,44.44444444444444L74.25621720282912,55.111111111111114L76.05977640885239,64L77.86333561487565,78.22222222222223L79.60871549167237,80.44444444444444L81.41227469769565,90.66666666666667L83.15765457449235,95.55555555555556L84.96121378051564,103.11111111111111L86.7647729865389,108.88888888888889L88.3937942048825,112.44444444444444L90.19735341090578,118.22222222222221L91.9427332877025,117.77777777777777L93.74629249372576,114.22222222222221L95.49167237052247,105.33333333333333L97.29523157654573,95.11111111111111L99.09879078256903,82.66666666666666L100.84417065936573,76L102.647729865389,68L104.39310974218571,55.55555555555554L106.19666894820898,44.8888888888889L108.00022815423226,30.22222222222223L109.62924937257586,25.333333333333343L111.43280857859914,14.666666666666671L113.17818845539584,14.222222222222214L114.9817476614191,10.666666666666657L116.72712753821584,13.777777777777771L118.5306867442391,21.333333333333343L120.33424595026237,21.77777777777777L122.07962582705909,30.666666666666657L123.88318503308236,36L125.62856490987909,41.33333333333333L127.43212411590235,44.44444444444444L129.23568332192565,57.33333333333333L130.86470454026923,58.66666666666666L132.6682637462925,56.44444444444444L134.4136436230892,60.888888888888886L136.2172028291125,68.88888888888889L137.9625827059092,68L139.76614191193246,64.88888888888889L141.56970111795576,64.44444444444444L143.31508099475244,64.88888888888889L145.1186402007757,60L146.86402007757243,60L148.6675792835957,59.555555555555564L150.47113848961897,55.111111111111114L152.15833903718914,53.33333333333333L153.9618982432124,59.555555555555564L155.70727812000914,51.55555555555554L157.5108373260324,47.55555555555556L159.2562172028291,47.55555555555556L161.0597764088524,48.888888888888886L162.86333561487567,49.33333333333333L164.60871549167237,50.22222222222223L166.41227469769566,51.55555555555554L168.15765457449234,48L169.9612137805156,43.111111111111114L171.7647729865389,48.44444444444444L173.3937942048825,49.33333333333333L175.19735341090578,45.777777777777786L176.94273328770248,46.22222222222223L178.74629249372578,44.8888888888889L180.49167237052245,43.999999999999986L182.29523157654575,43.111111111111114L184.09879078256904,41.33333333333333L185.84417065936572,40.888888888888886L187.64772986538898,33.33333333333333L189.39310974218571,33.777777777777786L191.19666894820898,33.33333333333333L193.00022815423225,27.555555555555557L194.62924937257586,16.888888888888886L196.43280857859915,22.22222222222223L198.17818845539583,13.777777777777771L199.98174766141912,11.555555555555557L201.72712753821583,12.444444444444443L203.5306867442391,6.666666666666671L205.33424595026236,5.777777777777786L207.0796258270591,4L208.88318503308236,11.555555555555557L210.6285649098791,13.777777777777771L212.43212411590235,14.222222222222214L214.23568332192562,20.444444444444443L215.8647045402692,24.8888888888889L217.6682637462925,15.1111111111111L219.4136436230892,32.888888888888886L221.21720282911247,32.888888888888886L222.9625827059092,32.44444444444444L224.76614191193246,34.66666666666666L226.56970111795573,33.33333333333333L228.31508099475246,30.666666666666657L230.11864020077573,27.555555555555557L231.86402007757243,23.555555555555557L233.6675792835957,28L235.471138489619,21.77777777777777L237.15833903718914,24L238.96189824321243,17.77777777777777" fill="none" stroke="#af516c" stroke-linejoin="round" stroke-linecap="round" stroke-width="2"></path></g></g></svg>