<svg xmlns="http://www.w3.org/2000/svg" viewBox="0 0 304 270"><style>/* <![CDATA[ */.chart-title{font-size:20px;fill:#43423e}.chart-subtitle{font-size:15px;fill:#74736c}.chart-source{font-size:10px;fill-opacity:.4}.axis .domain{fill:none;stroke:#74736c}.tick line{fill:none;stroke:#000;stroke-opacity:.2}.tick text{fill-opacity:.6;font-size:12px}.y.axis .tick line{stroke-dasharray:1}.y.axis .domain{fill:none;stroke-opacity:0}.y.axis .highlight-line{fill:none;stroke:#74736c}/* ]]> */</style><text class="chart-title" y="22">投入价格(原物料和燃料)</text><text class="chart-subtitle" y="42">年增长％</text><text class="chart-source" y="265">来源:英国国家统计局╱彭博. 2018年4月18日</text><g transform="translate(1,100)"><g class="x axis" transform="translate(0,120)" fill="none" font-size="10" font-family="sans-serif" text-anchor="middle"><path class="domain" stroke="#000" d="M0.5,0V0.5H255.5V0"></path><g class="tick" opacity="1" transform="translate(18.703598670056717,0)"><line stroke="#000" y2="6"></line><text fill="#000" y="9" dy="0.71em">2006</text></g><g class="tick" opacity="1" transform="translate(55.110796010170155,0)"><line stroke="#000" y2="6"></line><text fill="#000" y="9" dy="0.71em">2008</text></g><g class="tick" opacity="1" transform="translate(91.56786622335224,0)"><line stroke="#000" y2="6"></line><text fill="#000" y="9" dy="0.71em">2010</text></g><g class="tick" opacity="1" transform="translate(127.97506356346567,0)"><line stroke="#000" y2="6"></line><text fill="#000" y="9" dy="0.71em">2012</text></g><g class="tick" opacity="1" transform="translate(164.43213377664776,0)"><line stroke="#000" y2="6"></line><text fill="#000" y="9" dy="0.71em">2014</text></g><g class="tick" opacity="1" transform="translate(200.8393311167612,0)"><line stroke="#000" y2="6"></line><text fill="#000" y="9" dy="0.71em">2016</text></g><g class="tick" opacity="1" transform="translate(237.29640132994328,0)"><line stroke="#000" y2="6"></line><text fill="#000" y="9" dy="0.71em">2018</text></g></g><g class="y axis" transform="translate(255,0)" fill="none" font-size="10" font-family="sans-serif" text-anchor="start"><path class="domain" stroke="#000" d="M0,120.5H0.5V0.5H0"></path><g class="tick" opacity="1" transform="translate(0,108.5)"><line stroke="#000" x2="-255"></line><text fill="#000" x="3" dy="0.32em">-10</text></g><g class="tick" opacity="1" transform="translate(0,84.5)"><line stroke="#000" x2="-255"></line><text fill="#000" x="3" dy="0.32em">0</text></g><g class="tick" opacity="1" transform="translate(0,60.5)"><line stroke="#000" x2="-255"></line><text fill="#000" x="3" dy="0.32em">10</text></g><g class="tick" opacity="1" transform="translate(0,36.5)"><line stroke="#000" x2="-255"></line><text fill="#000" x="3" dy="0.32em">20</text></g><g class="tick" opacity="1" transform="translate(0,12.5)"><line stroke="#000" x2="-255"></line><text fill="#000" x="3" dy="0.32em">30</text></g><line class="highlight-line" x1="0" y1="84" x2="-255" y2="84"></line></g><g><path d="M1.512810483082339,65.75999999999999L2.9092509290044983,62.16L4.4553099941326035,61.92L5.95149618619206,63.36L7.497555251320164,69.35999999999999L8.993741443379621,57.839999999999996L10.539800508507724,49.92L12.08585957363583,53.040000000000006L13.582045765695286,59.28L15.128104830823391,62.879999999999995L16.624291022882847,49.44L18.170350088010952,37.68000000000001L19.716409153139058,42.959999999999994L21.112849599061217,46.08L22.658908664189322,51.120000000000005L24.15509485624878,44.64L25.701153921376882,49.68000000000001L27.197340113436336,56.64L28.74339917856444,59.28L30.289458243692547,64.8L31.785644435752005,71.04L33.33170350088011,74.88L34.827889692939564,78.47999999999999L36.37394875806767,80.88L37.920007823195775,92.88L39.316448269117934,89.03999999999999L40.86250733424604,84.96000000000001L42.358693526305494,88.56L43.9047525914336,83.03999999999999L45.40093878349306,79.92L46.946997848621166,83.52000000000001L48.49305691374927,84.24000000000001L49.989243105808725,69.35999999999999L51.53530217093683,60.72L53.031488362996285,54.47999999999999L54.57754742812438,51.60000000000001L56.12360649325249,34.31999999999999L57.5699198122433,32.16L59.115978877371404,31.680000000000007L60.612165069430866,21.840000000000003L62.15822413455897,9.840000000000003L63.654410326618425,0.480000000000004L65.20046939174654,6.480000000000004L66.74652845687463,12.480000000000018L68.24271464893408,25.92L69.7887737140622,45.84L71.28495990612166,63.6L72.83101897124975,75.12L74.37707803637787,79.92L75.77351848230002,84.47999999999999L77.31957754742812,87.84L78.81576373948758,101.52L80.36182280461568,109.92L81.85800899667514,118.8L83.40406806180326,119.52L84.95012712693135,109.44L86.4463133189908,105.36L87.99237238411891,90L89.48855857617836,82.56L91.03461764130648,74.88L92.58067670643457,74.16L93.97711715235674,72.72L95.52317621748485,67.44L97.01936240954429,61.44L98.5654214746724,61.92L100.06160766673186,64.08L101.60766673185996,62.400000000000006L103.15372579698807,66L104.64991198904752,64.08L106.19597105417563,64.32000000000001L107.69215724623508,62.64L109.2382163113632,54.959999999999994L110.7842753764913,52.32000000000001L112.18071582241346,50.64L113.72677488754155,51.60000000000001L115.222961079601,43.44L116.76902014472913,47.28L118.26520633678858,44.64L119.81126540191669,41.75999999999999L121.35732446704479,46.56L122.85351065910424,43.44L124.39956972423235,51.84L125.8957559162918,53.28L127.44181498141991,63.36L128.987874046548,68.64L130.43418736553883,66L131.9802464306669,70.32L133.47643262272638,80.4L135.02249168785448,83.28L136.51867787991395,88.08L138.06473694504206,90L139.61079601017016,82.32L141.1069822022296,86.88L142.6530412673577,84.47999999999999L144.14922745941718,84.47999999999999L145.69528652454528,83.03999999999999L147.2413455896734,80.16L148.63778603559555,79.19999999999999L150.18384510072366,81.84L151.6800312927831,83.28L153.2260903579112,80.64000000000001L154.72227654997064,76.80000000000001L156.26833561509875,72.72L157.81439468022688,79.68L159.31058087228632,81.6L160.85663993741446,84L162.3528261294739,86.16L163.89888519460197,86.16L165.4449442597301,90.96000000000001L166.84138470565225,97.92L168.38744377078035,99.12L169.88362996283982,96.72L171.42968902796792,93.36L172.9258752200274,95.03999999999999L174.4719342851555,102L176.01799335028358,102L177.51417954234304,101.76L179.06023860747115,103.44L180.55642479953062,103.92L182.10248386465872,111.84L183.6485429297868,117.84L185.044983375709,116.4L186.5910424408371,115.44L188.08722863289654,110.64L189.63328769802465,112.56L191.12947389008409,115.2L192.6755329552122,114.72L194.22159202034032,119.03999999999999L195.71777821239976,116.16L197.26383727752787,113.52L198.7600234695873,115.44L200.30608253471542,108.96000000000001L201.85214159984355,103.68L203.29845491883435,103.2L204.84451398396246,99.84L206.34070017602193,101.03999999999999L207.88675924115,94.32L209.38294543320944,85.2L210.92900449833758,73.92L212.47506356346568,65.28L213.97124975552512,65.75999999999999L215.51730882065326,54.24000000000001L217.0134950127127,51.60000000000001L218.5595540778408,44.16L220.1056131429689,36.24000000000001L221.50205358889104,37.68000000000001L223.04811265401915,43.67999999999999L224.54429884607862,47.28L226.09035791120672,54.959999999999994L227.5865441032662,60.24L229.1326031683943,68.64L230.67866223352237,64.32000000000001L232.17484842558184,64.08L233.72090749070995,72L235.21709368276942,65.52000000000001L236.76315274789752,70.56L238.3092118130256,73.92L239.7056522589478,74.88L241.2517113240759,73.92" fill="none" stroke="#af516c" stroke-linejoin="round" stroke-linecap="round" stroke-width="2"></path></g></g></svg>