<svg xmlns="http://www.w3.org/2000/svg" viewBox="0 0 304 270"><style>/* <![CDATA[ */.chart-title{font-size:20px;fill:#43423e}.chart-subtitle{font-size:15px;fill:#74736c}.chart-source{font-size:10px;fill-opacity:.4}.axis .domain{fill:none;stroke:#74736c}.tick line{fill:none;stroke:#000;stroke-opacity:.2}.tick text{fill-opacity:.6;font-size:12px}.y.axis .tick line{stroke-dasharray:1}.y.axis .domain{fill:none;stroke-opacity:0}.y.axis .highlight-line{fill:none;stroke:#74736c}/* ]]> */</style><text class="chart-title" y="22">日本零售总额</text><text class="chart-subtitle" y="42">年增长％</text><text class="chart-source" y="265">来源:日本经济产业省╱彭博. 2018年4月27日</text><g transform="translate(1,100)"><g class="x axis" transform="translate(0,120)" fill="none" font-size="10" font-family="sans-serif" text-anchor="middle"><path class="domain" stroke="#000" d="M0.5,0V0.5H255.5V0"></path><g class="tick" opacity="1" transform="translate(18.703598670056717,0)"><line stroke="#000" y2="6"></line><text fill="#000" y="9" dy="0.71em">2006</text></g><g class="tick" opacity="1" transform="translate(55.110796010170155,0)"><line stroke="#000" y2="6"></line><text fill="#000" y="9" dy="0.71em">2008</text></g><g class="tick" opacity="1" transform="translate(91.56786622335224,0)"><line stroke="#000" y2="6"></line><text fill="#000" y="9" dy="0.71em">2010</text></g><g class="tick" opacity="1" transform="translate(127.97506356346567,0)"><line stroke="#000" y2="6"></line><text fill="#000" y="9" dy="0.71em">2012</text></g><g class="tick" opacity="1" transform="translate(164.43213377664776,0)"><line stroke="#000" y2="6"></line><text fill="#000" y="9" dy="0.71em">2014</text></g><g class="tick" opacity="1" transform="translate(200.8393311167612,0)"><line stroke="#000" y2="6"></line><text fill="#000" y="9" dy="0.71em">2016</text></g><g class="tick" opacity="1" transform="translate(237.29640132994328,0)"><line stroke="#000" y2="6"></line><text fill="#000" y="9" dy="0.71em">2018</text></g></g><g class="y axis" transform="translate(255,0)" fill="none" font-size="10" font-family="sans-serif" text-anchor="start"><path class="domain" stroke="#000" d="M0,120.5H0.5V0.5H0"></path><g class="tick" opacity="1" transform="translate(0,120.5)"><line stroke="#000" x2="-255"></line><text fill="#000" x="3" dy="0.32em">-10</text></g><g class="tick" opacity="1" transform="translate(0,93.22727272727272)"><line stroke="#000" x2="-255"></line><text fill="#000" x="3" dy="0.32em">-5</text></g><g class="tick" opacity="1" transform="translate(0,65.95454545454545)"><line stroke="#000" x2="-255"></line><text fill="#000" x="3" dy="0.32em">0</text></g><g class="tick" opacity="1" transform="translate(0,38.68181818181819)"><line stroke="#000" x2="-255"></line><text fill="#000" x="3" dy="0.32em">5</text></g><g class="tick" opacity="1" transform="translate(0,11.409090909090907)"><line stroke="#000" x2="-255"></line><text fill="#000" x="3" dy="0.32em">10</text></g><line class="highlight-line" x1="0" y1="65.45454545454545" x2="-255" y2="65.45454545454545"></line></g><g><path d="M1.512810483082339,51.33272727272728L2.9092509290044983,82.04181818181819L4.4553099941326035,66.72545454545454L5.95149618619206,46.598181818181814L7.497555251320164,51.54545454545455L8.993741443379621,50.099999999999994L10.539800508507724,63.61636363636364L12.08585957363583,58.28727272727272L13.582045765695286,65.91818181818182L15.128104830823391,68.83636363636364L16.624291022882847,63.13090909090909L18.170350088010952,59.438181818181825L19.716409153139058,68.39454545454545L21.112849599061217,59.74909090909092L22.658908664189322,60.14181818181818L24.15509485624878,70.64727272727274L25.701153921376882,65.35636363636362L27.197340113436336,65.00727272727272L28.74339917856444,66.53454545454545L30.289458243692547,60.872727272727275L31.785644435752005,63.032727272727264L33.33170350088011,66.40363636363637L34.827889692939564,67.52181818181819L36.37394875806767,67.00363636363636L37.920007823195775,71.11636363636364L39.316448269117934,66.36L40.86250733424604,68.78181818181818L42.358693526305494,65.16545454545454L43.9047525914336,61.03636363636363L45.40093878349306,63.61636363636364L46.946997848621166,73.84363636363636L48.49305691374927,58.99636363636364L49.989243105808725,58.89272727272727L51.53530217093683,57.43636363636364L53.031488362996285,53.79272727272728L54.57754742812438,61.16181818181818L56.12360649325249,55.05272727272727L57.5699198122433,46.35818181818183L59.115978877371404,56.852727272727265L60.612165069430866,65.84181818181818L62.15822413455897,63.92727272727273L63.654410326618425,63.76909090909091L65.20046939174654,53.82000000000001L66.74652845687463,61.51636363636364L68.24271464893408,67.22727272727272L69.7887737140622,68.81454545454545L71.28495990612166,69.42L72.83101897124975,79.60363636363635L74.37707803637787,76.54363636363635L75.77351848230002,94.87636363636364L77.31957754742812,84.92727272727274L78.81576373948758,79.92545454545456L80.36182280461568,80.14363636363636L81.85800899667514,81.71454545454546L83.40406806180326,78.90545454545455L84.95012712693135,74.81454545454545L86.4463133189908,72.57272727272726L87.99237238411891,70.8709090909091L89.48855857617836,71.93454545454546L91.03461764130648,66.99272727272728L92.58067670643457,54.736363636363635L93.97711715235674,44.209090909090904L95.52317621748485,40.92L97.01936240954429,40.30909090909091L98.5654214746724,50.258181818181825L100.06160766673186,47.269090909090906L101.60766673185996,42.29454545454546L103.15372579698807,40.46727272727273L104.64991198904752,55.260000000000005L106.19597105417563,62.24181818181818L107.69215724623508,54.010909090909095L109.2382163113632,75.93272727272728L110.7842753764913,64.08545454545455L112.18071582241346,63.20181818181818L113.72677488754155,109.05272727272728L115.222961079601,86.86909090909091L116.76902014472913,67.76181818181817L118.26520633678858,55.347272727272724L119.81126540191669,60.79636363636364L121.35732446704479,78.60545454545453L122.85351065910424,73.39090909090909L124.39956972423235,57.72L125.8957559162918,78.25636363636363L127.44181498141991,51.747272727272716L128.987874046548,56.77090909090909L130.43418736553883,48.69272727272727L131.9802464306669,14.847272727272738L133.47643262272638,38.39999999999999L135.02249168785448,49.27636363636363L136.51867787991395,66.66545454545454L138.06473694504206,72.35454545454546L139.61079601017016,58.29818181818182L141.1069822022296,63.403636363636366L142.6530412673577,72.14727272727274L144.14922745941718,60.31090909090909L145.69528652454528,64.41818181818182L147.2413455896734,71.69454545454545L148.63778603559555,77.41090909090909L150.18384510072366,66.99272727272728L151.6800312927831,66.30545454545455L153.2260903579112,60.949090909090906L154.72227654997064,56.77090909090909L156.26833561509875,67.03090909090909L157.81439468022688,59.70545454545454L159.31058087228632,49.15090909090908L160.85663993741446,52.101818181818174L162.3528261294739,42.96000000000001L163.89888519460197,51.78L165.4449442597301,41.70545454545456L166.84138470565225,45.56727272727272L168.38744377078035,5.25272727272727L169.88362996283982,89.08909090909091L171.42968902796792,67.63636363636364L172.9258752200274,68.72727272727272L174.4719342851555,62.18181818181818L176.01799335028358,58.909090909090914L177.51417954234304,52.90909090909091L179.06023860747115,57.81818181818182L180.55642479953062,62.72727272727273L182.10248386465872,64.9090909090909L183.6485429297868,76.36363636363636L185.044983375709,74.72727272727272L186.5910424408371,118.36363636363636L188.08722863289654,38.727272727272734L189.63328769802465,49.09090909090909L191.12947389008409,60L192.6755329552122,55.63636363636364L194.22159202034032,61.090909090909086L195.71777821239976,66L197.26383727752787,55.63636363636364L198.7600234695873,71.45454545454545L200.30608253471542,71.45454545454545L201.85214159984355,66.54545454545453L203.29845491883435,63.27272727272727L204.84451398396246,70.9090909090909L206.34070017602193,70.36363636363637L207.88675924115,76.9090909090909L209.38294543320944,72.54545454545455L210.92900449833758,66.54545454545453L212.47506356346568,77.45454545454545L213.97124975552512,74.72727272727272L215.51730882065326,66.54545454545453L217.0134950127127,56.18181818181819L218.5595540778408,61.63636363636364L220.1056131429689,60L221.50205358889104,64.36363636363637L223.04811265401915,54.000000000000014L224.54429884607862,48L226.09035791120672,54.000000000000014L227.5865441032662,53.45454545454545L229.1326031683943,55.63636363636364L230.67866223352237,55.63636363636364L232.17484842558184,52.90909090909091L233.72090749070995,66.54545454545453L235.21709368276942,54.000000000000014L236.76315274789752,45.81818181818181L238.3092118130256,57.27272727272727L239.7056522589478,56.18181818181819L241.2517113240759,60" fill="none" stroke="#af516c" stroke-linejoin="round" stroke-linecap="round" stroke-width="2"></path></g></g></svg>