<svg xmlns="http://www.w3.org/2000/svg" viewBox="0 0 304 270"><style>/* <![CDATA[ */.chart-title{font-size:20px;fill:#43423e}.chart-subtitle{font-size:15px;fill:#74736c}.chart-source{font-size:10px;fill-opacity:.4}.axis .domain{fill:none;stroke:#74736c}.tick line{fill:none;stroke:#000;stroke-opacity:.2}.tick text{fill-opacity:.6;font-size:12px}.y.axis .tick line{stroke-dasharray:1}.y.axis .domain{fill:none;stroke-opacity:0}.y.axis .highlight-line{fill:none;stroke:#74736c}/* ]]> */</style><text class="chart-title" y="22">日本劳工生产力</text><text class="chart-subtitle" y="42">制造业指数</text><text class="chart-source" y="265">来源:CEIC. 2017年8月2日</text><g transform="translate(1,100)"><g class="x axis" transform="translate(0,120)" fill="none" font-size="10" font-family="sans-serif" text-anchor="middle"><path class="domain" stroke="#000" d="M0.5,0V0.5H255.5V0"></path><g class="tick" opacity="1" transform="translate(0.5,0)"><line stroke="#000" y2="6"></line><text fill="#000" y="9" dy="0.71em">1990</text></g><g class="tick" opacity="1" transform="translate(46.029480786154295,0)"><line stroke="#000" y2="6"></line><text fill="#000" y="9" dy="0.71em">1995</text></g><g class="tick" opacity="1" transform="translate(91.55896157230859,0)"><line stroke="#000" y2="6"></line><text fill="#000" y="9" dy="0.71em">2000</text></g><g class="tick" opacity="1" transform="translate(137.11337635670284,0)"><line stroke="#000" y2="6"></line><text fill="#000" y="9" dy="0.71em">2005</text></g><g class="tick" opacity="1" transform="translate(182.64285714285714,0)"><line stroke="#000" y2="6"></line><text fill="#000" y="9" dy="0.71em">2010</text></g><g class="tick" opacity="1" transform="translate(228.17233792901143,0)"><line stroke="#000" y2="6"></line><text fill="#000" y="9" dy="0.71em">2015</text></g></g><g class="y axis" transform="translate(255,0)" fill="none" font-size="10" font-family="sans-serif" text-anchor="start"><path class="domain" stroke="#000" d="M0,120.5H0.5V0.5H0"></path><g class="tick" opacity="1" transform="translate(0,113.70754716981132)"><line stroke="#000" x2="-255"></line><text fill="#000" x="3" dy="0.32em">70</text></g><g class="tick" opacity="1" transform="translate(0,91.06603773584905)"><line stroke="#000" x2="-255"></line><text fill="#000" x="3" dy="0.32em">80</text></g><g class="tick" opacity="1" transform="translate(0,68.4245283018868)"><line stroke="#000" x2="-255"></line><text fill="#000" x="3" dy="0.32em">90</text></g><g class="tick" opacity="1" transform="translate(0,45.783018867924525)"><line stroke="#000" x2="-255"></line><text fill="#000" x="3" dy="0.32em">100</text></g><g class="tick" opacity="1" transform="translate(0,23.141509433962256)"><line stroke="#000" x2="-255"></line><text fill="#000" x="3" dy="0.32em">110</text></g><g class="tick" opacity="1" transform="translate(0,0.5)"><line stroke="#000" x2="-255"></line><text fill="#000" x="3" dy="0.32em">120</text></g></g><g><path d="M0.008311332746651023,106.64150943396226L0.7812652781851961,116.37735849056605L1.4794172289038818,93.0566037735849L2.252371174342427,117.28301886792453L3.000391121541019,103.69811320754717L3.773345066979564,112.75471698113206L4.521365014178156,107.0943396226415L5.294318959616701,106.18867924528303L6.067272905055246,102.1132075471698L6.815292852253838,98.9433962264151L7.588246797692383,104.37735849056602L8.336266744890974,99.84905660377358L9.10922069032952,90.11320754716981L9.882174635768065,108L10.580326586486752,84.67924528301887L11.353280531925295,110.03773584905659L12.101300479123887,95.77358490566037L12.874254424562434,108.22641509433961L13.622274371761025,101.20754716981133L14.39522831719957,103.69811320754717L15.168182262638116,98.26415094339623L15.916202209836706,97.58490566037734L16.68915615527525,105.73584905660378L17.437176102473842,101.88679245283019L18.21013004791239,95.32075471698111L18.983083993350935,110.71698113207549L19.70616994230957,91.69811320754717L20.479123887748116,115.47169811320755L21.22714383494671,107.54716981132076L22.000097780385254,111.1698113207547L22.748117727583846,106.8679245283019L23.521071673022394,112.9811320754717L24.294025618460935,98.71698113207546L25.04204556565953,108.22641509433961L25.814999511098073,112.0754716981132L26.563019458296665,108.22641509433961L27.33597340373521,103.01886792452831L28.108927349173758,110.94339622641509L28.807079299892443,87.62264150943398L29.580033245330984,118.64150943396228L30.328053192529577,107.77358490566037L31.10100713796812,109.35849056603773L31.849027085166714,110.71698113207549L32.62198103060526,115.47169811320755L33.39493497604381,104.37735849056602L34.1429549232424,112.0754716981132L34.915908868680944,112.9811320754717L35.66392881587954,112.0754716981132L36.43688276131808,106.64150943396226L37.209836706756626,114.11320754716982L37.90798865747531,85.1320754716981L38.68094260291386,117.05660377358491L39.42896255011245,103.47169811320755L40.201916495550996,108.45283018867926L40.94993644274959,107.0943396226415L41.722890388188134,107.32075471698114L42.49584433362668,97.58490566037734L43.24386428082527,101.88679245283019L44.01681822626381,102.1132075471698L44.7648381734624,103.69811320754717L45.537792118900946,96.45283018867923L46.31074606433949,103.24528301886791L47.00889801505818,73.35849056603774L47.781851960496724,105.96226415094338L48.529871907695316,94.64150943396226L49.30282585313386,102.56603773584905L50.05084580033245,103.47169811320755L50.823799745771,102.7924528301887L51.59675369120954,93.9622641509434L52.344773638408135,96.22641509433961L53.11772758384668,97.13207547169813L53.86574753104527,98.26415094339623L54.63870147648382,88.07547169811322L55.41165542192236,96.45283018867923L56.134741370881,77.8867924528302L56.90769531631955,104.37735849056602L57.65571526351814,90.79245283018867L58.428669208956684,102.33962264150944L59.17668915615528,91.24528301886792L59.94964310159382,98.0377358490566L60.722597047032366,86.0377358490566L61.47061699423096,84.90566037735849L62.2435709396695,93.0566037735849L62.991590886868096,90.11320754716981L63.76454483230664,72.67924528301884L64.53749877774518,89.66037735849055L65.23565072846387,57.056603773584904L66.00860467390241,94.188679245283L66.756624621101,81.28301886792454L67.52957856653954,89.66037735849055L68.27759851373814,79.9245283018868L69.0505524591767,87.62264150943398L69.82350640461524,73.81132075471697L70.57152635181383,79.24528301886792L71.34448029725237,91.24528301886792L72.09250024445097,85.811320754717L72.86545418988952,74.26415094339623L73.63840813532806,91.01886792452831L74.33656008604673,62.716981132075475L75.10951403148528,101.43396226415094L75.85753397868388,91.69811320754717L76.63048792412242,93.9622641509434L77.378507871321,87.62264150943398L78.15146181675956,97.35849056603773L78.92441576219811,79.24528301886792L79.6724357093967,88.98113207547169L80.44538965483524,93.73584905660378L81.19340960203384,88.52830188679243L81.96636354747238,81.96226415094341L82.73931749291093,90.33962264150945L83.43746944362961,57.735849056603776L84.21042338906814,97.35849056603773L84.95844333626674,85.1320754716981L85.73139728170528,86.71698113207546L86.47941722890387,83.32075471698113L87.25237117434243,85.58490566037736L88.02532511978097,69.96226415094341L88.77334506697957,78.33962264150942L89.54629901241812,78.33962264150942L90.2943189596167,76.75471698113208L91.06727290505525,68.15094339622641L91.84022685049379,74.03773584905662L92.56331279945243,49.35849056603773L93.33626674489098,85.811320754717L94.08428669208958,67.47169811320754L94.85724063752812,71.32075471698113L95.60526058472671,70.86792452830187L96.37821453016525,64.9811320754717L97.1511684756038,60.9056603773585L97.8991884228024,66.11320754716982L98.67214236824094,67.9245283018868L99.42016231543953,67.24528301886792L100.19311626087807,61.584905660377366L100.96607020631662,72.90566037735849L101.66422215703531,41.20754716981132L102.43717610247386,83.99999999999999L103.18519604967244,69.0566037735849L103.95814999511099,80.60377358490564L104.70616994230957,76.98113207547169L105.47912388774812,77.66037735849056L106.25207783318666,75.84905660377359L107.00009778038526,76.0754716981132L107.7730517258238,85.811320754717L108.52107167302239,83.99999999999999L109.29402561846094,66.11320754716982L110.06697956389948,81.96226415094341L110.76513151461818,47.77358490566037L111.53808546005672,83.09433962264151L112.2861054072553,62.716981132075475L113.05905935269385,72.90566037735849L113.80707929989245,62.716981132075475L114.580033245331,68.15094339622641L115.35298719076954,55.69811320754715L116.10100713796812,56.37735849056605L116.87396108340667,68.37735849056605L117.62198103060527,67.69811320754718L118.39493497604381,48.45283018867926L119.16788892148236,66.56603773584906L119.86604087220104,33.50943396226414L120.63899481763958,69.50943396226415L121.38701476483818,59.54716981132076L122.15996871027673,64.30188679245285L122.90798865747531,58.18867924528302L123.68094260291386,66.79245283018868L124.4538965483524,45.96226415094338L125.201916495551,49.132075471698116L125.97487044098953,58.18867924528302L126.72289038818813,51.62264150943395L127.49584433362668,39.169811320754704L128.2687982790652,54.339622641509436L128.99188422802385,22.641509433962256L129.7648381734624,61.132075471698116L130.51285812066098,48L131.28581206609954,46.41509433962264L132.03383201329814,45.283018867924525L132.80678595873667,52.075471698113205L133.57973990417523,36.45283018867924L134.3277598513738,46.18867924528304L135.10071379681236,46.641509433962256L135.84873374401096,46.867924528301884L136.6216876894495,34.8679245283019L137.39464163488805,45.50943396226414L138.09279358560673,11.773584905660385L138.86574753104526,57.96226415094338L139.61376747824386,40.75471698113208L140.38672142368242,44.60377358490567L141.134741370881,48L141.90769531631955,48L142.68064926175808,32.60377358490568L143.42866920895668,40.75471698113208L144.20162315439524,38.03773584905659L144.9496431015938,40.75471698113208L145.72259704703237,28.30188679245282L146.49555099247092,43.01886792452831L147.1937029431896,9.509433962264168L147.96665688862814,50.03773584905659L148.71467683582674,34.8679245283019L149.48763078126527,37.81132075471699L150.23565072846387,38.9433962264151L151.00860467390243,37.81132075471699L151.78155861934096,26.264150943396203L152.52957856653953,27.849056603773576L153.3025325119781,29.207547169811335L154.05055245917669,30.113207547169807L154.82350640461524,19.69811320754718L155.59646035005377,34.641509433962256L156.29461230077246,2.0377358490566166L157.067566246211,46.641509433962256L157.81558619340962,27.622641509433976L158.58854013884815,35.32075471698113L159.33656008604672,31.69811320754718L160.10951403148528,26.49056603773586L160.8824679769238,21.50943396226414L161.63048792412243,15.849056603773576L162.40344186956096,28.07547169811322L163.15146181675954,25.1320754716981L163.9244157621981,9.056603773584897L164.69736970763665,27.169811320754718L165.42045565659527,5.660377358490564L166.19340960203382,43.01886792452831L166.94142954923242,28.98113207547169L167.71438349467098,33.28301886792454L168.46240344186955,29.433962264150935L169.23535738730808,41.20754716981132L170.00831133274667,20.60377358490564L170.75633127994524,36.45283018867924L171.52928522538377,56.83018867924527L172.2773051725824,63.16981132075473L173.05025911802093,76.75471698113208L173.8232130634595,98.26415094339623L174.52136501417817,66.79245283018868L175.2943189596167,94.188679245283L176.04233890681527,73.81132075471697L176.81529285225383,68.60377358490565L177.56331279945243,66.33962264150944L178.33626674489096,69.96226415094341L179.10922069032952,49.81132075471699L179.8572406375281,49.35849056603773L180.63019458296668,55.69811320754715L181.37821453016525,48L182.15116847560378,47.0943396226415L182.92412242104234,55.69811320754715L183.62227437176102,26.037735849056602L184.39522831719955,62.49056603773583L185.14324826439815,48L185.9162022098367,45.056603773584925L186.66422215703528,44.60377358490567L187.43717610247384,47.32075471698114L188.2101300479124,30.113207547169807L188.95814999511097,46.41509433962264L189.73110394054953,46.641509433962256L190.47912388774813,43.24528301886791L191.2520778331867,39.169811320754704L192.02503177862522,47.54716981132076L192.7231837293439,55.018867924528294L193.49613767478243,86.26415094339622L194.24415762198103,53.660377358490564L195.01711156741956,48.45283018867926L195.76513151461816,48.45283018867926L196.53808546005672,45.50943396226414L197.31103940549525,36.67924528301887L198.05905935269382,43.47169811320755L198.8320132981324,52.52830188679245L199.58003324533098,48.90566037735849L200.35298719076954,38.03773584905659L201.12594113620807,48L201.8490270851667,27.849056603773576L202.62198103060527,64.9811320754717L203.37000097780384,47.77358490566037L204.1429549232424,52.075471698113205L204.890974870441,47.0943396226415L205.66392881587953,52.52830188679245L206.4368827613181,50.9433962264151L207.1849027085167,53.660377358490564L207.95785665395522,65.2075471698113L208.70587660115382,60L209.47883054659235,44.60377358490567L210.2517844920309,62.94339622641509L210.94993644274956,31.47169811320755L211.72289038818815,66.33962264150944L212.47091033538672,48.45283018867926L213.24386428082528,56.37735849056605L213.99188422802388,40.075471698113205L214.7648381734624,51.39622641509435L215.53779211890097,36.67924528301887L216.28581206609954,39.62264150943396L217.05876601153807,53.20754716981132L217.8067859587367,45.283018867924525L218.57973990417523,28.52830188679245L219.3526938496138,48L220.05084580033247,16.301886792452834L220.823799745771,56.37735849056605L221.57181969296957,46.41509433962264L222.34477363840816,49.81132075471699L223.09279358560673,43.698113207547166L223.86574753104526,54.339622641509436L224.63870147648382,33.50943396226414L225.38672142368242,43.47169811320755L226.15967536912098,56.60377358490566L226.90769531631955,42.339622641509436L227.68064926175808,35.09433962264151L228.45360320719664,53.660377358490564L229.15175515791532,25.58490566037736L229.92470910335388,62.94339622641509L230.67272905055245,52.30188679245282L231.445682995991,46.641509433962256L232.19370294318958,47.77358490566037L232.96665688862817,60.67924528301886L233.7396108340667,39.39622641509436L234.48763078126527,42.11320754716981L235.26058472670383,56.37735849056605L236.00860467390243,48.67924528301887L236.78155861934098,43.24528301886791L237.55451256477951,55.924528301886795L238.27759851373816,28.98113207547169L239.0505524591767,69.50943396226415L239.79857240637529,50.49056603773583L240.57152635181382,51.849056603773604L241.31954629901244,53.88679245283018L242.09250024445097,49.81132075471699L242.8654541898895,38.49056603773586L243.6134741370881,47.32075471698114L244.38642808252663,47.0943396226415L245.13444802972523,45.73584905660378L245.9074019751638,34.41509433962264L246.68035592060232,48.67924528301887L247.378507871321,17.660377358490564L248.15146181675956,59.320754716981135L248.89948176395816,42.11320754716981" fill="none" stroke="#af516c" stroke-linejoin="round" stroke-linecap="round" stroke-width="2"></path></g></g></svg>