<svg xmlns="http://www.w3.org/2000/svg" viewBox="0 0 304 270"><style>/* <![CDATA[ */.chart-title{font-size:20px;fill:#43423e}.chart-subtitle{font-size:15px;fill:#74736c}.chart-source{font-size:10px;fill-opacity:.4}.axis .domain{fill:none;stroke:#74736c}.tick line{fill:none;stroke:#000;stroke-opacity:.2}.tick text{fill-opacity:.6;font-size:12px}.y.axis .tick line{stroke-dasharray:1}.y.axis .domain{fill:none;stroke-opacity:0}.y.axis .highlight-line{fill:none;stroke:#74736c}/* ]]> */</style><text class="chart-title" y="22">日本核心通胀</text><text class="chart-subtitle" y="42">年增长％</text><text class="chart-source" y="265">来源:彭博. 2018年4月19日</text><g transform="translate(1,100)"><g class="x axis" transform="translate(0,120)" fill="none" font-size="10" font-family="sans-serif" text-anchor="middle"><path class="domain" stroke="#000" d="M0.5,0V0.5H255.5V0"></path><g class="tick" opacity="1" transform="translate(0.5,0)"><line stroke="#000" y2="6"></line><text fill="#000" y="9" dy="0.71em">1980</text></g><g class="tick" opacity="1" transform="translate(64.25872689938399,0)"><line stroke="#000" y2="6"></line><text fill="#000" y="9" dy="0.71em">1990</text></g><g class="tick" opacity="1" transform="translate(128,0)"><line stroke="#000" y2="6"></line><text fill="#000" y="9" dy="0.71em">2000</text></g><g class="tick" opacity="1" transform="translate(191.758726899384,0)"><line stroke="#000" y2="6"></line><text fill="#000" y="9" dy="0.71em">2010</text></g><g class="tick" opacity="1" transform="translate(255.5,0)"><line stroke="#000" y2="6"></line><text fill="#000" y="9" dy="0.71em">2020</text></g></g><g class="y axis" transform="translate(255,0)" fill="none" font-size="10" font-family="sans-serif" text-anchor="start"><path class="domain" stroke="#000" d="M0,120.5H0.5V0.5H0"></path><g class="tick" opacity="1" transform="translate(0,120.5)"><line stroke="#000" x2="-255"></line><text fill="#000" x="3" dy="0.32em">-2</text></g><g class="tick" opacity="1" transform="translate(0,96.5)"><line stroke="#000" x2="-255"></line><text fill="#000" x="3" dy="0.32em">0</text></g><g class="tick" opacity="1" transform="translate(0,72.5)"><line stroke="#000" x2="-255"></line><text fill="#000" x="3" dy="0.32em">2</text></g><g class="tick" opacity="1" transform="translate(0,48.5)"><line stroke="#000" x2="-255"></line><text fill="#000" x="3" dy="0.32em">4</text></g><g class="tick" opacity="1" transform="translate(0,24.5)"><line stroke="#000" x2="-255"></line><text fill="#000" x="3" dy="0.32em">6</text></g><g class="tick" opacity="1" transform="translate(0,0.5)"><line stroke="#000" x2="-255"></line><text fill="#000" x="3" dy="0.32em">8</text></g><line class="highlight-line" x1="0" y1="96" x2="-255" y2="96"></line></g><g><path d="M0.5294318959616701,39.599999999999994L1.0355920602327173,37.19999999999999L1.5766598220396988,36L2.100273785078713,26.39999999999999L2.6413415468856947,15.600000000000009L3.164955509924709,8.399999999999991L3.7060232717316905,8.399999999999991L4.247091033538672,6L4.770704996577687,9.600000000000009L5.3117727583846674,10.800000000000011L5.835386721423682,10.800000000000011L6.376454483230663,13.200000000000003L6.917522245037645,24L7.406228610540725,25.19999999999999L7.947296372347707,28.799999999999997L8.470910335386721,33.60000000000001L9.011978097193703,38.400000000000006L9.535592060232718,42L10.0766598220397,48L10.617727583846682,48L11.141341546885695,45.599999999999994L11.682409308692677,48L12.206023271731691,49.19999999999999L12.747091033538673,49.19999999999999L13.288158795345653,52.80000000000001L13.776865160848734,54L14.317932922655716,54L14.84154688569473,55.19999999999999L15.382614647501711,60L15.906228610540726,61.199999999999996L16.447296372347708,61.199999999999996L16.988364134154686,58.8L17.5119780971937,60L18.053045859000687,60L18.576659822039698,62.400000000000006L19.11772758384668,62.400000000000006L19.65879534565366,64.80000000000001L20.147501711156742,64.80000000000001L20.68856947296372,66L21.21218343600274,66L21.75325119780972,64.80000000000001L22.276865160848732,67.19999999999999L22.817932922655714,66L23.359000684462696,70.80000000000001L23.88261464750171,69.6L24.423682409308693,68.4L24.947296372347704,64.80000000000001L25.48836413415469,66L26.029431895961668,66L26.535592060232716,63.599999999999994L27.076659822039698,66L27.600273785078713,67.19999999999999L28.141341546885695,61.199999999999996L28.66495550992471,64.80000000000001L29.206023271731688,64.80000000000001L29.747091033538673,63.599999999999994L30.270704996577688,67.19999999999999L30.811772758384667,61.199999999999996L31.33538672142368,62.400000000000006L31.876454483230667,62.400000000000006L32.417522245037645,57.599999999999994L32.90622861054073,63.599999999999994L33.4472963723477,60L33.97091033538672,62.400000000000006L34.511978097193705,66L35.035592060232716,62.400000000000006L35.5766598220397,64.80000000000001L36.11772758384668,67.19999999999999L36.64134154688569,61.199999999999996L37.18240930869268,64.80000000000001L37.70602327173169,63.599999999999994L38.24709103353867,63.599999999999994L38.78815879534565,74.4L39.276865160848736,70.80000000000001L39.817932922655714,73.19999999999999L40.341546885694726,72L40.88261464750171,72L41.40622861054072,72L41.94729637234771,73.19999999999999L42.488364134154686,74.4L43.0119780971937,73.19999999999999L43.55304585900068,74.4L44.0766598220397,74.4L44.61772758384668,75.6L45.15879534565366,75.6L45.64750171115674,75.6L46.18856947296372,74.4L46.71218343600273,74.4L47.25325119780972,79.2L47.776865160848736,79.2L48.317932922655714,76.80000000000001L48.85900068446269,75.6L49.38261464750171,79.2L49.92368240930869,80.4L50.44729637234771,79.2L50.98836413415469,80.4L51.529431895961665,80.4L52.03559206023272,82.8L52.576659822039694,82.8L53.10027378507871,82.8L53.6413415468857,81.6L54.16495550992471,84L54.706023271731695,86.4L55.24709103353867,85.2L55.770704996577685,84L56.31177275838467,81.6L56.83538672142368,81.6L57.37645448323067,80.4L57.917522245037645,79.2L58.40622861054073,78L58.94729637234771,78L59.47091033538672,67.19999999999999L60.011978097193705,62.400000000000006L60.535592060232716,62.400000000000006L61.0766598220397,62.400000000000006L61.61772758384668,62.400000000000006L62.14134154688569,60L62.68240930869268,61.199999999999996L63.206023271731695,62.400000000000006L63.74709103353867,62.400000000000006L64.28815879534565,61.199999999999996L64.77686516084874,62.400000000000006L65.31793292265571,61.199999999999996L65.84154688569473,68.4L66.38261464750171,66L66.90622861054072,67.19999999999999L67.44729637234771,67.19999999999999L67.9883641341547,66L68.5119780971937,66L69.05304585900068,67.19999999999999L69.5766598220397,62.400000000000006L70.11772758384669,63.599999999999994L70.65879534565367,66L71.14750171115674,66L71.68856947296372,64.80000000000001L72.21218343600275,67.19999999999999L72.75325119780972,64.80000000000001L73.27686516084873,64.80000000000001L73.81793292265571,63.599999999999994L74.3590006844627,66L74.88261464750171,64.80000000000001L75.4236824093087,63.599999999999994L75.94729637234771,63.599999999999994L76.48836413415468,64.80000000000001L77.02943189596166,68.4L77.53559206023272,64.80000000000001L78.0766598220397,63.599999999999994L78.60027378507871,61.199999999999996L79.14134154688568,63.599999999999994L79.66495550992471,61.199999999999996L80.2060232717317,66L80.74709103353868,63.599999999999994L81.27070499657769,67.19999999999999L81.81177275838468,67.19999999999999L82.33538672142367,68.4L82.87645448323066,68.4L83.41752224503765,73.19999999999999L83.90622861054074,74.4L84.44729637234771,78L84.97091033538672,78L85.5119780971937,79.2L86.03559206023272,81.6L86.5766598220397,78L87.11772758384669,79.2L87.64134154688568,79.2L88.18240930869267,80.4L88.7060232717317,82.8L89.24709103353868,85.2L89.78815879534567,84L90.27686516084873,85.2L90.81793292265571,85.2L91.34154688569473,86.4L91.88261464750171,85.2L92.40622861054072,85.2L92.94729637234771,87.6L93.4883641341547,87.6L94.0119780971937,86.4L94.55304585900069,87.6L95.0766598220397,86.4L95.61772758384667,85.2L96.15879534565366,86.4L96.64750171115675,86.4L97.18856947296374,86.4L97.71218343600273,88.8L98.25325119780972,88.8L98.77686516084873,88.8L99.31793292265571,90L99.8590006844627,88.8L100.38261464750171,86.4L100.92368240930868,88.8L101.44729637234771,88.8L101.9883641341547,88.8L102.52943189596168,88.8L103.03559206023273,91.2L103.57665982203969,90L104.10027378507871,90L104.6413415468857,88.8L105.16495550992471,88.8L105.7060232717317,90L106.24709103353867,90L106.77070499657768,92.4L107.31177275838466,88.8L107.83538672142369,90L108.37645448323067,92.4L108.91752224503765,91.2L109.40622861054072,90L109.94729637234771,90L110.47091033538672,76.80000000000001L111.0119780971937,76.80000000000001L111.53559206023272,76.80000000000001L112.0766598220397,75.6L112.61772758384667,76.80000000000001L113.1413415468857,68.4L113.68240930869268,68.4L114.20602327173168,68.4L114.74709103353867,67.19999999999999L115.28815879534565,72L115.77686516084874,70.80000000000001L116.31793292265571,70.80000000000001L116.84154688569473,86.4L117.38261464750171,87.6L117.90622861054072,88.8L118.44729637234771,90L118.9883641341547,87.6L119.5119780971937,97.2L120.05304585900068,98.4L120.5766598220397,98.4L121.11772758384669,97.2L121.65879534565366,96L122.14750171115674,98.4L122.68856947296372,98.4L123.21218343600273,96L123.75325119780972,97.2L124.27686516084874,96L124.81793292265573,97.2L125.35900068446269,97.2L125.88261464750171,98.4L126.4236824093087,97.2L126.94729637234771,98.4L127.4883641341547,99.6L128.02943189596166,100.8L128.53559206023272,98.4L129.0766598220397,99.6L129.6002737850787,103.2L130.14134154688568,98.4L130.6649555099247,102L131.2060232717317,99.6L131.74709103353868,102L132.27070499657768,102L132.81177275838468,103.2L133.33538672142367,102L133.87645448323065,102L134.41752224503765,106.8L134.90622861054072,108L135.4472963723477,109.2L135.97091033538672,106.8L136.51197809719372,109.2L137.03559206023272,106.8L137.5766598220397,106.8L138.1177275838467,106.8L138.64134154688568,105.6L139.18240930869268,104.4L139.7060232717317,106.8L140.24709103353865,105.6L140.78815879534565,105.6L141.27686516084873,105.6L141.81793292265573,104.4L142.34154688569473,105.6L142.88261464750173,106.8L143.40622861054072,105.6L143.9472963723477,106.8L144.4883641341547,105.6L145.01197809719372,105.6L145.55304585900066,105.6L146.07665982203972,104.4L146.6177275838467,103.2L147.15879534565366,104.4L147.64750171115674,103.2L148.18856947296374,102L148.71218343600273,100.8L149.2532511978097,99.6L149.77686516084876,99.6L150.31793292265573,96L150.85900068446267,97.2L151.38261464750173,97.2L151.9236824093087,97.2L152.4472963723477,98.4L152.9883641341547,99.6L153.52943189596166,100.8L154.03559206023272,100.8L154.57665982203972,100.8L155.1002737850787,103.2L155.64134154688568,103.2L156.16495550992468,104.4L156.70602327173168,105.6L157.24709103353865,104.4L157.7707049965777,104.4L158.31177275838468,102L158.83538672142367,104.4L159.37645448323067,104.4L159.91752224503765,103.2L160.40622861054072,103.2L160.9472963723477,103.2L161.47091033538672,102L162.0119780971937,100.8L162.53559206023272,100.8L163.07665982203972,100.8L163.6177275838467,102L164.14134154688568,99.6L164.68240930869268,100.8L165.20602327173168,97.2L165.74709103353865,96L166.28815879534565,104.4L166.77686516084873,102L167.3179329226557,102L167.84154688569473,103.2L168.38261464750173,102L168.90622861054072,100.8L169.4472963723477,99.6L169.9883641341547,100.8L170.5119780971937,102L171.0530458590007,100.8L171.57665982203972,98.4L172.1177275838467,99.6L172.6587953456537,98.4L173.14750171115674,99.6L173.68856947296374,100.8L174.21218343600273,98.4L174.75325119780973,99.6L175.27686516084873,100.8L175.8179329226557,102L176.3590006844627,98.4L176.88261464750173,99.6L177.4236824093087,99.6L177.9472963723477,97.2L178.4883641341547,97.2L179.02943189596166,97.2L179.53559206023272,97.2L180.07665982203972,94.8L180.6002737850787,97.2L181.14134154688568,97.2L181.6649555099247,94.8L182.20602327173168,93.6L182.74709103353868,96L183.2707049965777,93.6L183.81177275838465,93.6L184.33538672142367,96L184.87645448323067,96L185.41752224503765,98.4L185.90622861054072,97.2L186.44729637234772,99.6L186.97091033538672,100.8L187.5119780971937,102L188.03559206023272,104.4L188.57665982203972,106.8L189.11772758384666,106.8L189.6413415468857,108L190.18240930869268,109.2L190.70602327173168,108L191.24709103353868,110.4L191.78815879534565,110.4L192.27686516084873,109.2L192.8179329226557,109.2L193.34154688569475,115.2L193.88261464750173,115.2L194.40622861054072,114L194.94729637234772,114L195.4883641341547,114L196.0119780971937,114L196.5530458590007,105.6L197.0766598220397,106.8L197.61772758384666,104.4L198.15879534565366,111.6L198.64750171115676,111.6L199.18856947296374,112.8L199.71218343600273,109.2L200.25325119780973,105.6L200.77686516084873,105.6L201.3179329226557,102L201.8590006844627,102L202.3826146475017,100.8L202.92368240930867,108L203.44729637234772,109.2L203.9883641341547,109.2L204.5294318959617,106.8L205.03559206023272,103.2L205.5766598220397,102L206.1002737850787,99.6L206.6413415468857,103.2L207.1649555099247,103.2L207.70602327173168,103.2L208.24709103353868,102L208.77070499657768,103.2L209.31177275838465,102L209.8353867214237,102L210.37645448323067,103.2L210.91752224503765,104.4L211.40622861054072,106.8L211.94729637234772,105.6L212.47091033538672,103.2L213.0119780971937,100.8L213.53559206023272,98.4L214.0766598220397,97.2L214.6177275838467,97.2L215.1413415468857,96L215.68240930869268,92.4L216.20602327173168,88.8L216.74709103353868,87.6L217.28815879534565,87.6L217.77686516084873,86.4L218.31793292265573,87.6L218.84154688569473,68.4L219.3826146475017,69.6L219.90622861054072,68.4L220.44729637234772,68.4L220.9883641341547,68.4L221.5119780971937,68.4L222.0530458590007,69.6L222.5766598220397,70.80000000000001L223.1177275838467,70.80000000000001L223.65879534565366,70.80000000000001L224.14750171115674,72L224.6885694729637,70.80000000000001L225.21218343600273,91.2L225.75325119780973,91.2L226.27686516084873,88.8L226.81793292265573,88.8L227.3590006844627,86.4L227.8826146475017,85.2L228.4236824093087,87.6L228.94729637234772,85.2L229.4883641341547,86.4L230.02943189596166,88.8L230.53559206023272,88.8L231.0766598220397,88.8L231.6002737850787,90L232.1413415468857,90L232.6649555099247,90L233.2060232717317,92.4L233.74709103353868,93.6L234.27070499657768,96L234.81177275838468,93.6L235.33538672142367,94.8L235.87645448323065,96L236.41752224503765,94.8L236.90622861054075,97.2L237.44729637234772,99.6L237.97091033538672,99.6L238.51197809719372,98.4L239.03559206023272,98.4L239.5766598220397,97.2L240.1177275838467,96L240.64134154688568,96L241.18240930869266,96L241.7060232717317,94.8L242.24709103353868,94.8L242.78815879534565,94.8L243.27686516084873,92.4L243.81793292265573,92.4" fill="none" stroke="#af516c" stroke-linejoin="round" stroke-linecap="round" stroke-width="2"></path></g></g></svg>