<svg xmlns="http://www.w3.org/2000/svg" viewBox="0 0 304 270"><style>/* <![CDATA[ */.chart-title{font-size:20px;fill:#43423e}.chart-subtitle{font-size:15px;fill:#74736c}.chart-source{font-size:10px;fill-opacity:.4}.axis .domain{fill:none;stroke:#74736c}.tick line{fill:none;stroke:#000;stroke-opacity:.2}.tick text{fill-opacity:.6;font-size:12px}.y.axis .tick line{stroke-dasharray:1}.y.axis .domain{fill:none;stroke-opacity:0}.y.axis .highlight-line{fill:none;stroke:#74736c}/* ]]> */</style><text class="chart-title" y="22">日本汽机车销售总额</text><text class="chart-subtitle" y="42">年增长％</text><text class="chart-source" y="265">来源:彭博. 2018年5月1日</text><g transform="translate(1,100)"><g class="x axis" transform="translate(0,120)" fill="none" font-size="10" font-family="sans-serif" text-anchor="middle"><path class="domain" stroke="#000" d="M0.5,0V0.5H255.5V0"></path><g class="tick" opacity="1" transform="translate(18.703598670056717,0)"><line stroke="#000" y2="6"></line><text fill="#000" y="9" dy="0.71em">2006</text></g><g class="tick" opacity="1" transform="translate(55.110796010170155,0)"><line stroke="#000" y2="6"></line><text fill="#000" y="9" dy="0.71em">2008</text></g><g class="tick" opacity="1" transform="translate(91.56786622335224,0)"><line stroke="#000" y2="6"></line><text fill="#000" y="9" dy="0.71em">2010</text></g><g class="tick" opacity="1" transform="translate(127.97506356346567,0)"><line stroke="#000" y2="6"></line><text fill="#000" y="9" dy="0.71em">2012</text></g><g class="tick" opacity="1" transform="translate(164.43213377664776,0)"><line stroke="#000" y2="6"></line><text fill="#000" y="9" dy="0.71em">2014</text></g><g class="tick" opacity="1" transform="translate(200.8393311167612,0)"><line stroke="#000" y2="6"></line><text fill="#000" y="9" dy="0.71em">2016</text></g><g class="tick" opacity="1" transform="translate(237.29640132994328,0)"><line stroke="#000" y2="6"></line><text fill="#000" y="9" dy="0.71em">2018</text></g></g><g class="y axis" transform="translate(255,0)" fill="none" font-size="10" font-family="sans-serif" text-anchor="start"><path class="domain" stroke="#000" d="M0,120.5H0.5V0.5H0"></path><g class="tick" opacity="1" transform="translate(0,79.93661971830986)"><line stroke="#000" x2="-255"></line><text fill="#000" x="3" dy="0.32em">0</text></g><g class="tick" opacity="1" transform="translate(0,37.683098591549296)"><line stroke="#000" x2="-255"></line><text fill="#000" x="3" dy="0.32em">50</text></g><line class="highlight-line" x1="0" y1="79.43661971830986" x2="-255" y2="79.43661971830986"></line></g><g><path d="M1.512810483082339,81.99954249699425L2.9092509290044983,80.3705186960181L4.4553099941326035,80.8792795663854L5.95149618619206,73.2033824323956L7.497555251320164,73.13952395357461L8.993741443379621,73.15718817266699L10.539800508507724,80.42977908421447L12.08585957363583,78.61414067482735L13.582045765695286,78.90194822145239L15.128104830823391,79.14123904357231L16.624291022882847,83.3659544147323L18.170350088010952,87.25345063373231L19.716409153139058,78.81352592177996L21.112849599061217,78.5658838203519L22.658908664189322,79.32172327641152L24.15509485624878,82.1644099734805L25.701153921376882,83.56192585065924L27.197340113436336,80.66492402388309L28.74339917856444,83.81992372684988L30.289458243692547,81.09041265445035L31.785644435752005,82.42700785225898L33.33170350088011,82.55133241640799L34.827889692939564,81.39176690316998L36.37394875806767,79.47038384111225L37.920007823195775,84.46899711229902L39.316448269117934,84.12388786943788L40.86250733424604,86.29534587210475L42.358693526305494,86.82421332584764L43.9047525914336,84.76587570538804L45.40093878349306,87.35133476089217L46.946997848621166,88.29262076895174L48.49305691374927,82.20300567339771L49.989243105808725,86.72418426840572L51.53530217093683,80.56836373193512L53.031488362996285,79.72470193619068L54.57754742812438,87.7287141945157L56.12360649325249,78.23045887630641L57.5699198122433,79.85470803582811L59.115978877371404,83.49221157660101L60.612165069430866,76.80639136276449L62.15822413455897,83.5147422381538L63.654410326618425,82.21138011980626L65.20046939174654,76.42302165845118L66.74652845687463,88.49161481029682L68.24271464893408,83.32181828352441L69.7887737140622,85.0225744259137L71.28495990612166,94.8366374407978L72.83101897124975,93.56060898205604L74.37707803637787,96.24926540548701L75.77351848230002,99.95486104601753L77.31957754742812,100.77670595813765L78.81576373948758,98.86471374017599L80.36182280461568,95.48765787538927L81.85800899667514,91.66964596507228L83.40406806180326,83.83027281825194L84.95012712693135,79.85630569781401L86.4463133189908,79.2592108815952L87.99237238411891,75.72031826135692L89.48855857617836,63.93851892349699L91.03461764130648,61.14858720649729L92.58067670643457,61.23957592329938L93.97711715235674,62.19645656122968L95.52317621748485,59.566919455988035L97.01936240954429,59.07672826710788L98.5654214746724,60.88716146517687L100.06160766673186,64.72917045228967L101.60766673185996,68.52493256262547L103.15372579698807,47.547262828374386L104.64991198904752,80.4735517483556L106.19597105417563,99.00728029256166L107.69215724623508,101.29910536629869L109.2382163113632,98.65957967720496L110.7842753764913,93.53556972981045L112.18071582241346,89.93618964388658L113.72677488754155,109.11712904108695L115.222961079601,119.42692541842632L116.76902014472913,107.62184802864871L118.26520633678858,97.69875392958801L119.81126540191669,99.15580949011262L121.35732446704479,98.35553102371301L122.85351065910424,81.18493631748431L124.39956972423235,58.11520261126709L125.8957559162918,60.6426818015634L127.44181498141991,61.42436660672596L128.987874046548,48.88900609559931L130.43418736553883,54.51696934394862L131.9802464306669,18.74228768329334L133.47643262272638,0.26110560558403506L135.02249168785448,23.332855667135618L136.51867787991395,42.56299869101427L138.06473694504206,47.707912956026405L139.61079601017016,68.94914005348356L141.1069822022296,82.27173809400972L142.6530412673577,84.26564424449037L144.14922745941718,79.78399058267475L145.69528652454528,82.02648631872276L147.2413455896734,86.02429398328594L148.63778603559555,86.30727094454662L150.18384510072366,88.96306102527107L151.6800312927831,78.1362221657392L153.2260903579112,85.27780283016759L154.72227654997064,88.55320815165082L156.26833561509875,86.19174829733578L157.81439468022688,80.35331153208331L159.31058087228632,65.04421066173393L160.85663993741446,64.77635892133951L162.3528261294739,65.83002080350133L163.89888519460197,58.28957514804308L165.4449442597301,54.623565812543006L166.84138470565225,63.895597288586565L168.38744377078035,64.7095010252905L169.88362996283982,84.05071477820269L171.42968902796792,80.41995466576113L172.9258752200274,79.1123316173869L174.4719342851555,81.55740444684595L176.01799335028358,87.10565096902272L177.51417954234304,80.08097864099433L179.06023860747115,84.47934553988384L180.55642479953062,87.05476227063059L182.10248386465872,77.69779661879979L183.6485429297868,95.57455962227442L185.044983375709,91.85721259987335L186.5910424408371,88.92712898430707L188.08722863289654,85.73843156265139L189.63328769802465,85.88470914099507L191.12947389008409,81.28975997159165L192.6755329552122,85.89353353860616L194.22159202034032,81.0640602614219L195.71777821239976,85.85462246660965L197.26383727752787,82.93597187957916L198.7600234695873,84.98500957951177L200.30608253471542,91.65685792340994L201.85214159984355,83.3296630036594L203.29845491883435,84.83076829499907L204.84451398396246,86.66833460994522L206.34070017602193,78.04369590880873L207.88675924115,80.45807420706143L209.38294543320944,83.58416244784189L210.92900449833758,81.32260304398014L212.47506356346568,76.95295002312398L213.97124975552512,79.89566814183668L215.51730882065326,79.73632713672436L217.0134950127127,73.18037266309466L218.5595540778408,73.01476155149922L220.1056131429689,75.29288855922022L221.50205358889104,73.18392619247713L223.04811265401915,72.06449156947563L224.54429884607862,71.62939601965692L226.09035791120672,68.99031405816764L227.5865441032662,68.08025873836436L229.1326031683943,77.0081956685276L230.67866223352237,74.75593850812689L232.17484842558184,76.17205307263436L233.72090749070995,80.83584415393165L235.21709368276942,81.61039917311928L236.76315274789752,80.1342976963447L238.3092118130256,79.88056309974874L239.7056522589478,81.32751717806363L241.2517113240759,82.38237233926066L242.74789751613537,76.719768930709" fill="none" stroke="#af516c" stroke-linejoin="round" stroke-linecap="round" stroke-width="2"></path></g></g></svg>