<svg xmlns="http://www.w3.org/2000/svg" viewBox="0 0 304 270"><style>/* <![CDATA[ */.chart-title{font-size:20px;fill:#43423e}.chart-subtitle{font-size:15px;fill:#74736c}.chart-source{font-size:10px;fill-opacity:.4}.axis .domain{fill:none;stroke:#74736c}.tick line{fill:none;stroke:#000;stroke-opacity:.2}.tick text{fill-opacity:.6;font-size:12px}.y.axis .tick line{stroke-dasharray:1}.y.axis .domain{fill:none;stroke-opacity:0}.y.axis .highlight-line{fill:none;stroke:#74736c}/* ]]> */</style><text class="chart-title" y="22">日本失业率</text><text class="chart-subtitle" y="42">经季节调整 %</text><text class="chart-source" y="265">来源:日本内务省╱彭博. 2018年4月27日</text><g transform="translate(1,100)"><g class="x axis" transform="translate(0,120)" fill="none" font-size="10" font-family="sans-serif" text-anchor="middle"><path class="domain" stroke="#000" d="M0.5,0V0.5H255.5V0"></path><g class="tick" opacity="1" transform="translate(0.5,0)"><line stroke="#000" y2="6"></line><text fill="#000" y="9" dy="0.71em">1980</text></g><g class="tick" opacity="1" transform="translate(64.25872689938399,0)"><line stroke="#000" y2="6"></line><text fill="#000" y="9" dy="0.71em">1990</text></g><g class="tick" opacity="1" transform="translate(128,0)"><line stroke="#000" y2="6"></line><text fill="#000" y="9" dy="0.71em">2000</text></g><g class="tick" opacity="1" transform="translate(191.758726899384,0)"><line stroke="#000" y2="6"></line><text fill="#000" y="9" dy="0.71em">2010</text></g><g class="tick" opacity="1" transform="translate(255.5,0)"><line stroke="#000" y2="6"></line><text fill="#000" y="9" dy="0.71em">2020</text></g></g><g class="y axis" transform="translate(255,0)" fill="none" font-size="10" font-family="sans-serif" text-anchor="start"><path class="domain" stroke="#000" d="M0,120.5H0.5V0.5H0"></path><g class="tick" opacity="1" transform="translate(0,120.5)"><line stroke="#000" x2="-255"></line><text fill="#000" x="3" dy="0.32em">1</text></g><g class="tick" opacity="1" transform="translate(0,96.5)"><line stroke="#000" x2="-255"></line><text fill="#000" x="3" dy="0.32em">2</text></g><g class="tick" opacity="1" transform="translate(0,72.5)"><line stroke="#000" x2="-255"></line><text fill="#000" x="3" dy="0.32em">3</text></g><g class="tick" opacity="1" transform="translate(0,48.5)"><line stroke="#000" x2="-255"></line><text fill="#000" x="3" dy="0.32em">4</text></g><g class="tick" opacity="1" transform="translate(0,24.5)"><line stroke="#000" x2="-255"></line><text fill="#000" x="3" dy="0.32em">5</text></g><g class="tick" opacity="1" transform="translate(0,0.5)"><line stroke="#000" x2="-255"></line><text fill="#000" x="3" dy="0.32em">6</text></g></g><g><path d="M0.5294318959616701,98.4L1.0355920602327173,98.4L1.5766598220396988,98.4L2.100273785078713,96L2.6413415468856947,96L3.164955509924709,98.4L3.7060232717316905,96L4.247091033538672,93.6L4.770704996577687,96L5.3117727583846674,93.6L5.835386721423682,91.19999999999999L6.376454483230663,91.19999999999999L6.917522245037645,93.6L7.406228610540725,88.80000000000001L7.947296372347707,91.19999999999999L8.470910335386721,91.19999999999999L9.011978097193703,88.80000000000001L9.535592060232718,88.80000000000001L10.0766598220397,91.19999999999999L10.617727583846682,93.6L11.141341546885695,91.19999999999999L11.682409308692677,91.19999999999999L12.206023271731691,91.19999999999999L12.747091033538673,91.19999999999999L13.288158795345653,91.19999999999999L13.776865160848734,91.19999999999999L14.317932922655716,88.80000000000001L14.84154688569473,88.80000000000001L15.382614647501711,88.80000000000001L15.906228610540726,86.4L16.447296372347708,86.4L16.988364134154686,88.80000000000001L17.5119780971937,86.4L18.053045859000687,84L18.576659822039698,86.4L19.11772758384668,84L19.65879534565366,79.19999999999999L20.147501711156742,79.19999999999999L20.68856947296372,81.6L21.21218343600274,79.19999999999999L21.75325119780972,79.19999999999999L22.276865160848732,81.6L22.817932922655714,81.6L23.359000684462696,76.80000000000001L23.88261464750171,79.19999999999999L24.423682409308693,81.6L24.947296372347704,81.6L25.48836413415469,81.6L26.029431895961668,79.19999999999999L26.535592060232716,79.19999999999999L27.076659822039698,79.19999999999999L27.600273785078713,79.19999999999999L28.141341546885695,79.19999999999999L28.66495550992471,76.80000000000001L29.206023271731688,76.80000000000001L29.747091033538673,79.19999999999999L30.270704996577688,79.19999999999999L30.811772758384667,79.19999999999999L31.33538672142368,79.19999999999999L31.876454483230667,81.6L32.417522245037645,84L32.90622861054073,81.6L33.4472963723477,81.6L33.97091033538672,84L34.511978097193705,81.6L35.035592060232716,81.6L35.5766598220397,81.6L36.11772758384668,84L36.64134154688569,79.19999999999999L37.18240930869268,79.19999999999999L37.70602327173169,76.80000000000001L38.24709103353867,76.80000000000001L38.78815879534565,79.19999999999999L39.276865160848736,81.6L39.817932922655714,79.19999999999999L40.341546885694726,76.80000000000001L40.88261464750171,79.19999999999999L41.40622861054072,76.80000000000001L41.94729637234771,74.4L42.488364134154686,76.80000000000001L43.0119780971937,76.80000000000001L43.55304585900068,79.19999999999999L44.0766598220397,76.80000000000001L44.61772758384668,74.4L45.15879534565366,72L45.64750171115674,74.4L46.18856947296372,74.4L46.71218343600273,74.4L47.25325119780972,69.6L47.776865160848736,72L48.317932922655714,76.80000000000001L48.85900068446269,76.80000000000001L49.38261464750171,79.19999999999999L49.92368240930869,79.19999999999999L50.44729637234771,79.19999999999999L50.98836413415469,79.19999999999999L51.529431895961665,79.19999999999999L52.03559206023272,79.19999999999999L52.576659822039694,81.6L53.10027378507871,84L53.6413415468857,84L54.16495550992471,86.4L54.706023271731695,84L55.24709103353867,81.6L55.770704996577685,84L56.31177275838467,86.4L56.83538672142368,86.4L57.37645448323067,86.4L57.917522245037645,88.80000000000001L58.40622861054073,88.80000000000001L58.94729637234771,86.4L59.47091033538672,86.4L60.011978097193705,88.80000000000001L60.535592060232716,91.19999999999999L61.0766598220397,91.19999999999999L61.61772758384668,91.19999999999999L62.14134154688569,91.19999999999999L62.68240930869268,91.19999999999999L63.206023271731695,91.19999999999999L63.74709103353867,93.6L64.28815879534565,91.19999999999999L64.77686516084874,91.19999999999999L65.31793292265571,96L65.84154688569473,93.6L66.38261464750171,93.6L66.90622861054072,91.19999999999999L67.44729637234771,93.6L67.9883641341547,96L68.5119780971937,93.6L69.05304585900068,91.19999999999999L69.5766598220397,96L70.11772758384669,96L70.65879534565367,96L71.14750171115674,93.6L71.68856947296372,91.19999999999999L72.21218343600275,93.6L72.75325119780972,93.6L73.27686516084873,93.6L73.81793292265571,93.6L74.3590006844627,93.6L74.88261464750171,93.6L75.4236824093087,96L75.94729637234771,93.6L76.48836413415468,93.6L77.02943189596166,93.6L77.53559206023272,96L78.0766598220397,93.6L78.60027378507871,93.6L79.14134154688568,93.6L79.66495550992471,93.6L80.2060232717317,93.6L80.74709103353868,91.19999999999999L81.27070499657769,91.19999999999999L81.81177275838468,91.19999999999999L82.33538672142367,88.80000000000001L82.87645448323066,88.80000000000001L83.41752224503765,88.80000000000001L83.90622861054074,88.80000000000001L84.44729637234771,88.80000000000001L84.97091033538672,88.80000000000001L85.5119780971937,84L86.03559206023272,84L86.5766598220397,84L87.11772758384669,84L87.64134154688568,81.6L88.18240930869267,79.19999999999999L88.7060232717317,79.19999999999999L89.24709103353868,76.80000000000001L89.78815879534567,76.80000000000001L90.27686516084873,74.4L90.81793292265571,74.4L91.34154688569473,76.80000000000001L91.88261464750171,76.80000000000001L92.40622861054072,76.80000000000001L92.94729637234771,74.4L93.4883641341547,72L94.0119780971937,72L94.55304585900069,72L95.0766598220397,74.4L95.61772758384667,74.4L96.15879534565366,72L96.64750171115675,72L97.18856947296374,69.6L97.71218343600273,69.6L98.25325119780972,72L98.77686516084873,69.6L99.31793292265571,69.6L99.8590006844627,67.19999999999999L100.38261464750171,67.19999999999999L100.92368240930868,67.19999999999999L101.44729637234771,62.400000000000006L101.9883641341547,62.400000000000006L102.52943189596168,60L103.03559206023273,62.400000000000006L103.57665982203969,67.19999999999999L104.10027378507871,62.400000000000006L104.6413415468857,62.400000000000006L105.16495550992471,62.400000000000006L105.7060232717317,62.400000000000006L106.24709103353867,64.80000000000001L106.77070499657768,64.80000000000001L107.31177275838466,62.400000000000006L107.83538672142369,64.80000000000001L108.37645448323067,62.400000000000006L108.91752224503765,64.80000000000001L109.40622861054072,62.400000000000006L109.94729637234771,64.80000000000001L110.47091033538672,67.19999999999999L111.0119780971937,62.400000000000006L111.53559206023272,62.400000000000006L112.0766598220397,62.400000000000006L112.61772758384667,62.400000000000006L113.1413415468857,60L113.68240930869268,60L114.20602327173168,60L114.74709103353867,60L115.28815879534565,57.599999999999994L115.77686516084874,57.599999999999994L116.31793292265571,52.80000000000001L116.84154688569473,48L117.38261464750171,45.60000000000001L117.90622861054072,45.60000000000001L118.44729637234771,45.60000000000001L118.9883641341547,38.39999999999999L119.5119780971937,40.80000000000001L120.05304585900068,40.80000000000001L120.5766598220397,36L121.11772758384669,38.39999999999999L121.65879534565366,36L122.14750171115674,33.60000000000001L122.68856947296372,31.200000000000003L123.21218343600273,31.200000000000003L123.75325119780972,31.200000000000003L124.27686516084874,28.799999999999997L124.81793292265573,28.799999999999997L125.35900068446269,31.200000000000003L125.88261464750171,33.60000000000001L126.4236824093087,33.60000000000001L126.94729637234771,33.60000000000001L127.4883641341547,31.200000000000003L128.02943189596166,31.200000000000003L128.53559206023272,26.39999999999999L129.0766598220397,26.39999999999999L129.6002737850787,28.799999999999997L130.14134154688568,33.60000000000001L130.6649555099247,31.200000000000003L131.2060232717317,31.200000000000003L131.74709103353868,33.60000000000001L132.27070499657768,31.200000000000003L132.81177275838468,31.200000000000003L133.33538672142367,31.200000000000003L133.87645448323065,28.799999999999997L134.41752224503765,28.799999999999997L134.90622861054072,31.200000000000003L135.4472963723477,28.799999999999997L135.97091033538672,28.799999999999997L136.51197809719372,26.39999999999999L137.03559206023272,24L137.5766598220397,24L138.1177275838467,21.60000000000001L138.64134154688568,16.799999999999997L139.18240930869268,16.799999999999997L139.7060232717317,14.399999999999991L140.24709103353865,14.399999999999991L140.78815879534565,19.19999999999999L141.27686516084873,16.799999999999997L141.81793292265573,16.799999999999997L142.34154688569473,16.799999999999997L142.88261464750173,14.399999999999991L143.40622861054072,12L143.9472963723477,14.399999999999991L144.4883641341547,12L145.01197809719372,14.399999999999991L145.55304585900066,14.399999999999991L146.07665982203972,19.19999999999999L146.6177275838467,14.399999999999991L147.15879534565366,14.399999999999991L147.64750171115674,19.19999999999999L148.18856947296374,14.399999999999991L148.71218343600273,12L149.2532511978097,14.399999999999991L149.77686516084876,14.399999999999991L150.31793292265573,19.19999999999999L150.85900068446267,21.60000000000001L151.38261464750173,19.19999999999999L151.9236824093087,21.60000000000001L152.4472963723477,21.60000000000001L152.9883641341547,26.39999999999999L153.52943189596166,26.39999999999999L154.03559206023272,24L154.57665982203972,28.799999999999997L155.1002737850787,28.799999999999997L155.64134154688568,31.200000000000003L156.16495550992468,31.200000000000003L156.70602327173168,26.39999999999999L157.24709103353865,28.799999999999997L157.7707049965777,33.60000000000001L158.31177275838468,33.60000000000001L158.83538672142367,36L159.37645448323067,36L159.91752224503765,36L160.40622861054072,33.60000000000001L160.9472963723477,36L161.47091033538672,36L162.0119780971937,36L162.53559206023272,40.80000000000001L163.07665982203972,38.39999999999999L163.6177275838467,40.80000000000001L164.14134154688568,43.2L164.68240930869268,38.39999999999999L165.20602327173168,36L165.74709103353865,38.39999999999999L166.28815879534565,38.39999999999999L166.77686516084873,45.60000000000001L167.3179329226557,45.60000000000001L167.84154688569473,45.60000000000001L168.38261464750173,45.60000000000001L168.90622861054072,43.2L169.4472963723477,45.60000000000001L169.9883641341547,45.60000000000001L170.5119780971937,45.60000000000001L171.0530458590007,45.60000000000001L171.57665982203972,48L172.1177275838467,48L172.6587953456537,48L173.14750171115674,48L173.68856947296374,48L174.21218343600273,52.80000000000001L174.75325119780973,52.80000000000001L175.27686516084873,55.19999999999999L175.8179329226557,57.599999999999994L176.3590006844627,55.19999999999999L176.88261464750173,50.400000000000006L177.4236824093087,48L177.9472963723477,52.80000000000001L178.4883641341547,55.19999999999999L179.02943189596166,50.400000000000006L179.53559206023272,48L180.07665982203972,52.80000000000001L180.6002737850787,50.400000000000006L181.14134154688568,48L181.6649555099247,48L182.20602327173168,50.400000000000006L182.74709103353868,45.60000000000001L183.2707049965777,48L183.81177275838465,52.80000000000001L184.33538672142367,48L184.87645448323067,38.39999999999999L185.41752224503765,40.80000000000001L185.90622861054072,33.60000000000001L186.44729637234772,28.799999999999997L186.97091033538672,24L187.5119780971937,21.60000000000001L188.03559206023272,19.19999999999999L188.57665982203972,12L189.11772758384666,14.399999999999991L189.6413415468857,14.399999999999991L190.18240930869268,19.19999999999999L190.70602327173168,19.19999999999999L191.24709103353868,19.19999999999999L191.78815879534565,24L192.27686516084873,24L192.8179329226557,21.60000000000001L193.34154688569475,21.60000000000001L193.88261464750173,21.60000000000001L194.40622861054072,19.19999999999999L194.94729637234772,24L195.4883641341547,21.60000000000001L196.0119780971937,21.60000000000001L196.5530458590007,21.60000000000001L197.0766598220397,24L197.61772758384666,26.39999999999999L198.15879534565366,28.799999999999997L198.64750171115676,31.200000000000003L199.18856947296374,31.200000000000003L199.71218343600273,31.200000000000003L200.25325119780973,33.60000000000001L200.77686516084873,31.200000000000003L201.3179329226557,31.200000000000003L201.8590006844627,36L202.3826146475017,43.2L202.92368240930867,38.39999999999999L203.44729637234772,36L203.9883641341547,36L204.5294318959617,36L205.03559206023272,36L205.5766598220397,36L206.1002737850787,36L206.6413415468857,38.39999999999999L207.1649555099247,40.80000000000001L207.70602327173168,40.80000000000001L208.24709103353868,43.2L208.77070499657768,43.2L209.31177275838465,45.60000000000001L209.8353867214237,45.60000000000001L210.37645448323067,40.80000000000001L210.91752224503765,43.2L211.40622861054072,40.80000000000001L211.94729637234772,45.60000000000001L212.47091033538672,45.60000000000001L213.0119780971937,45.60000000000001L213.53559206023272,50.400000000000006L214.0766598220397,52.80000000000001L214.6177275838467,45.60000000000001L215.1413415468857,50.400000000000006L215.68240930869268,48L216.20602327173168,50.400000000000006L216.74709103353868,55.19999999999999L217.28815879534565,55.19999999999999L217.77686516084873,57.599999999999994L218.31793292265573,55.19999999999999L218.84154688569473,57.599999999999994L219.3826146475017,57.599999999999994L219.90622861054072,55.19999999999999L220.44729637234772,55.19999999999999L220.9883641341547,60L221.5119780971937,60L222.0530458590007,57.599999999999994L222.5766598220397,62.400000000000006L223.1177275838467,62.400000000000006L223.65879534565366,60L224.14750171115674,60L224.6885694729637,62.400000000000006L225.21218343600273,62.400000000000006L225.75325119780973,64.80000000000001L226.27686516084873,62.400000000000006L226.81793292265573,62.400000000000006L227.3590006844627,62.400000000000006L227.8826146475017,62.400000000000006L228.4236824093087,67.19999999999999L228.94729637234772,64.80000000000001L229.4883641341547,64.80000000000001L230.02943189596166,67.19999999999999L230.53559206023272,64.80000000000001L231.0766598220397,67.19999999999999L231.6002737850787,67.19999999999999L232.1413415468857,69.6L232.6649555099247,69.6L233.2060232717317,72L233.74709103353868,69.6L234.27070499657768,72L234.81177275838468,72L235.33538672142367,69.6L235.87645448323065,69.6L236.41752224503765,72L236.90622861054075,74.4L237.44729637234772,76.80000000000001L237.97091033538672,76.80000000000001L238.51197809719372,72L239.03559206023272,76.80000000000001L239.5766598220397,76.80000000000001L240.1177275838467,76.80000000000001L240.64134154688568,76.80000000000001L241.18240930869266,76.80000000000001L241.7060232717317,79.19999999999999L242.24709103353868,79.19999999999999L242.78815879534565,86.4L243.27686516084873,84L243.81793292265573,84" fill="none" stroke="#af516c" stroke-linejoin="round" stroke-linecap="round" stroke-width="2"></path></g></g></svg>