<svg xmlns="http://www.w3.org/2000/svg" viewBox="0 0 304 270"><style>/* <![CDATA[ */.chart-title{font-size:20px;fill:#43423e}.chart-subtitle{font-size:15px;fill:#74736c}.chart-source{font-size:10px;fill-opacity:.4}.axis .domain{fill:none;stroke:#74736c}.tick line{fill:none;stroke:#000;stroke-opacity:.2}.tick text{fill-opacity:.6;font-size:12px}.y.axis .tick line{stroke-dasharray:1}.y.axis .domain{fill:none;stroke-opacity:0}.y.axis .highlight-line{fill:none;stroke:#74736c}/* ]]> */</style><text class="chart-title" y="22">日本植物供求比</text><text class="chart-subtitle" y="42"> </text><text class="chart-source" y="265">来源:日本后生劳动省╱彭博. 2018年4月27日</text><g transform="translate(1,100)"><g class="x axis" transform="translate(0,120)" fill="none" font-size="10" font-family="sans-serif" text-anchor="middle"><path class="domain" stroke="#000" d="M0.5,0V0.5H255.5V0"></path><g class="tick" opacity="1" transform="translate(0.5,0)"><line stroke="#000" y2="6"></line><text fill="#000" y="9" dy="0.71em">1980</text></g><g class="tick" opacity="1" transform="translate(64.25872689938399,0)"><line stroke="#000" y2="6"></line><text fill="#000" y="9" dy="0.71em">1990</text></g><g class="tick" opacity="1" transform="translate(128,0)"><line stroke="#000" y2="6"></line><text fill="#000" y="9" dy="0.71em">2000</text></g><g class="tick" opacity="1" transform="translate(191.758726899384,0)"><line stroke="#000" y2="6"></line><text fill="#000" y="9" dy="0.71em">2010</text></g><g class="tick" opacity="1" transform="translate(255.5,0)"><line stroke="#000" y2="6"></line><text fill="#000" y="9" dy="0.71em">2020</text></g></g><g class="y axis" transform="translate(255,0)" fill="none" font-size="10" font-family="sans-serif" text-anchor="start"><path class="domain" stroke="#000" d="M0,120.5H0.5V0.5H0"></path><g class="tick" opacity="1" transform="translate(0,120.5)"><line stroke="#000" x2="-255"></line><text fill="#000" x="3" dy="0.32em">0.0</text></g><g class="tick" opacity="1" transform="translate(0,90.5)"><line stroke="#000" x2="-255"></line><text fill="#000" x="3" dy="0.32em">0.5</text></g><g class="tick" opacity="1" transform="translate(0,60.5)"><line stroke="#000" x2="-255"></line><text fill="#000" x="3" dy="0.32em">1.0</text></g><g class="tick" opacity="1" transform="translate(0,30.5)"><line stroke="#000" x2="-255"></line><text fill="#000" x="3" dy="0.32em">1.5</text></g><g class="tick" opacity="1" transform="translate(0,0.5)"><line stroke="#000" x2="-255"></line><text fill="#000" x="3" dy="0.32em">2.0</text></g><line class="highlight-line" x1="0" y1="120" x2="-255" y2="120"></line></g><g><path d="M0.5294318959616701,73.8L1.0355920602327173,74.4L1.5766598220396988,73.8L2.100273785078713,73.8L2.6413415468856947,74.4L3.164955509924709,73.8L3.7060232717316905,74.4L4.247091033538672,75.6L4.770704996577687,76.2L5.3117727583846674,76.2L5.835386721423682,77.4L6.376454483230663,78L6.917522245037645,78.6L7.406228610540725,79.19999999999999L7.947296372347707,79.8L8.470910335386721,79.8L9.011978097193703,79.8L9.535592060232718,79.19999999999999L10.0766598220397,78L10.617727583846682,78.6L11.141341546885695,79.19999999999999L11.682409308692677,79.8L12.206023271731691,80.4L12.747091033538673,79.8L13.288158795345653,80.4L13.776865160848734,81L14.317932922655716,82.2L14.84154688569473,82.8L15.382614647501711,84L15.906228610540726,84L16.447296372347708,84L16.988364134154686,84L17.5119780971937,84L18.053045859000687,84L18.576659822039698,84.6L19.11772758384668,84.6L19.65879534565366,84.6L20.147501711156742,84.6L20.68856947296372,84.6L21.21218343600274,84.6L21.75325119780972,84.6L22.276865160848732,84.6L22.817932922655714,84.6L23.359000684462696,84L23.88261464750171,83.4L24.423682409308693,82.8L24.947296372347704,82.8L25.48836413415469,82.2L26.029431895961668,81.6L26.535592060232716,81.6L27.076659822039698,81.6L27.600273785078713,81.6L28.141341546885695,81.6L28.66495550992471,81.6L29.206023271731688,81L29.747091033538673,81L30.270704996577688,80.4L30.811772758384667,80.4L31.33538672142368,80.4L31.876454483230667,79.8L32.417522245037645,79.19999999999999L32.90622861054073,78.6L33.4472963723477,79.19999999999999L33.97091033538672,78.6L34.511978097193705,78.6L35.035592060232716,78.6L35.5766598220397,78.6L36.11772758384668,79.19999999999999L36.64134154688569,79.19999999999999L37.18240930869268,79.8L37.70602327173169,79.8L38.24709103353867,79.8L38.78815879534565,79.8L39.276865160848736,80.4L39.817932922655714,81L40.341546885694726,82.2L40.88261464750171,82.8L41.40622861054072,84L41.94729637234771,84L42.488364134154686,83.4L43.0119780971937,83.4L43.55304585900068,83.4L44.0766598220397,83.4L44.61772758384668,83.4L45.15879534565366,82.8L45.64750171115674,82.2L46.18856947296372,81.6L46.71218343600273,81.6L47.25325119780972,81L47.776865160848736,80.4L48.317932922655714,79.19999999999999L48.85900068446269,77.4L49.38261464750171,75.6L49.92368240930869,73.8L50.44729637234771,71.4L50.98836413415469,69.6L51.529431895961665,67.8L52.03559206023272,66L52.576659822039694,64.8L53.10027378507871,63L53.6413415468857,61.2L54.16495550992471,59.4L54.706023271731695,57.599999999999994L55.24709103353867,56.4L55.770704996577685,55.19999999999999L56.31177275838467,54L56.83538672142368,52.8L57.37645448323067,51.599999999999994L57.917522245037645,51L58.40622861054073,49.80000000000001L58.94729637234771,49.80000000000001L59.47091033538672,48.60000000000001L60.011978097193705,45L60.535592060232716,43.8L61.0766598220397,42L61.61772758384668,42.599999999999994L62.14134154688569,42L62.68240930869268,41.39999999999999L63.206023271731695,40.19999999999999L63.74709103353867,40.19999999999999L64.28815879534565,40.19999999999999L64.77686516084874,38.400000000000006L65.31793292265571,38.400000000000006L65.84154688569473,39L66.38261464750171,36.599999999999994L66.90622861054072,34.80000000000001L67.44729637234771,32.400000000000006L67.9883641341547,33.60000000000001L68.5119780971937,33.60000000000001L69.05304585900068,33.60000000000001L69.5766598220397,33L70.11772758384669,33.60000000000001L70.65879534565367,34.2L71.14750171115674,33.60000000000001L71.68856947296372,33.60000000000001L72.21218343600275,35.400000000000006L72.75325119780972,33.60000000000001L73.27686516084873,33.60000000000001L73.81793292265571,33.60000000000001L74.3590006844627,36L74.88261464750171,38.400000000000006L75.4236824093087,38.400000000000006L75.94729637234771,39.599999999999994L76.48836413415468,41.39999999999999L77.02943189596166,45L77.53559206023272,46.8L78.0766598220397,48.60000000000001L78.60027378507871,51.599999999999994L79.14134154688568,52.2L79.66495550992471,54L80.2060232717317,55.19999999999999L80.74709103353868,57L81.27070499657769,58.8L81.81177275838468,60.6L82.33538672142367,62.400000000000006L82.87645448323066,64.19999999999999L83.41752224503765,65.4L83.90622861054074,67.2L84.44729637234771,69L84.97091033538672,70.80000000000001L85.5119780971937,72L86.03559206023272,74.4L86.5766598220397,75.6L87.11772758384669,76.80000000000001L87.64134154688568,78L88.18240930869267,79.19999999999999L88.7060232717317,79.8L89.24709103353868,80.4L89.78815879534567,81L90.27686516084873,81.6L90.81793292265571,81L91.34154688569473,81L91.88261464750171,82.2L92.40622861054072,82.2L92.94729637234771,82.2L93.4883641341547,81.6L94.0119780971937,81L94.55304585900069,81L95.0766598220397,81.6L95.61772758384667,82.2L96.15879534565366,81.6L96.64750171115675,81L97.18856947296374,80.4L97.71218343600273,81L98.25325119780972,82.2L98.77686516084873,82.8L99.31793292265571,83.4L99.8590006844627,82.8L100.38261464750171,82.8L100.92368240930868,82.8L101.44729637234771,82.8L101.9883641341547,82.2L102.52943189596168,81L103.03559206023273,80.4L103.57665982203969,79.19999999999999L104.10027378507871,78.6L104.6413415468857,78.6L105.16495550992471,78L105.7060232717317,76.80000000000001L106.24709103353867,76.80000000000001L106.77070499657768,76.80000000000001L107.31177275838466,76.2L107.83538672142369,75.6L108.37645448323067,75.6L108.91752224503765,75.6L109.40622861054072,75.6L109.94729637234771,75.6L110.47091033538672,75.6L111.0119780971937,75.6L111.53559206023272,75.6L112.0766598220397,75.6L112.61772758384667,76.2L113.1413415468857,77.4L113.68240930869268,78L114.20602327173168,79.19999999999999L114.74709103353867,79.8L115.28815879534565,82.2L115.77686516084874,83.4L116.31793292265571,85.80000000000001L116.84154688569473,86.4L117.38261464750171,87.6L117.90622861054072,88.8L118.44729637234771,89.4L118.9883641341547,90L119.5119780971937,90.6L120.05304585900068,91.2L120.5766598220397,91.8L121.11772758384669,91.8L121.65879534565366,91.2L122.14750171115674,91.2L122.68856947296372,91.2L123.21218343600273,91.8L123.75325119780972,92.4L124.27686516084874,92.4L124.81793292265573,91.8L125.35900068446269,91.8L125.88261464750171,91.2L126.4236824093087,90.6L126.94729637234771,90.6L127.4883641341547,90L128.02943189596166,89.4L128.53559206023272,88.8L129.0766598220397,87.6L129.6002737850787,86.4L130.14134154688568,86.4L130.6649555099247,85.2L131.2060232717317,84L131.74709103353868,83.4L132.27070499657768,82.8L132.81177275838468,81.6L133.33538672142367,81L133.87645448323065,81L134.41752224503765,81L134.90622861054072,81.6L135.4472963723477,82.2L135.97091033538672,82.8L136.51197809719372,83.4L137.03559206023272,83.4L137.5766598220397,84L138.1177275838467,85.2L138.64134154688568,85.80000000000001L139.18240930869268,87.6L139.7060232717317,88.8L140.24709103353865,89.4L140.78815879534565,90L141.27686516084873,89.4L141.81793292265573,88.8L142.34154688569473,88.8L142.88261464750173,88.2L143.40622861054072,88.2L143.9472963723477,87.6L144.4883641341547,87L145.01197809719372,87L145.55304585900066,86.4L146.07665982203972,86.4L146.6177275838467,85.80000000000001L147.15879534565366,85.2L147.64750171115674,84.6L148.18856947296374,84L148.71218343600273,83.4L149.2532511978097,83.4L149.77686516084876,82.8L150.31793292265573,82.2L150.85900068446267,81L151.38261464750173,79.8L151.9236824093087,78L152.4472963723477,76.80000000000001L152.9883641341547,75L153.52943189596166,74.4L154.03559206023272,74.4L154.57665982203972,73.8L155.1002737850787,73.19999999999999L155.64134154688568,72L156.16495550992468,70.80000000000001L156.70602327173168,70.2L157.24709103353865,69.6L157.7707049965777,68.4L158.31177275838468,67.2L158.83538672142367,65.4L159.37645448323067,64.8L159.91752224503765,65.4L160.40622861054072,65.4L160.9472963723477,64.19999999999999L161.47091033538672,63.6L162.0119780971937,63.6L162.53559206023272,63L163.07665982203972,62.400000000000006L163.6177275838467,62.400000000000006L164.14134154688568,62.400000000000006L164.68240930869268,61.2L165.20602327173168,60.6L165.74709103353865,59.4L166.28815879534565,58.199999999999996L166.77686516084873,57.599999999999994L167.3179329226557,57L167.84154688569473,57L168.38261464750173,55.8L168.90622861054072,55.8L169.4472963723477,55.19999999999999L169.9883641341547,55.8L170.5119780971937,55.8L171.0530458590007,56.4L171.57665982203972,56.4L172.1177275838467,56.4L172.6587953456537,56.4L173.14750171115674,57L173.68856947296374,57L174.21218343600273,55.8L174.75325119780973,55.8L175.27686516084873,55.8L175.8179329226557,56.4L176.3590006844627,57L176.88261464750173,58.199999999999996L177.4236824093087,59.4L177.9472963723477,61.2L178.4883641341547,61.2L179.02943189596166,61.800000000000004L179.53559206023272,62.400000000000006L180.07665982203972,62.400000000000006L180.6002737850787,62.400000000000006L181.14134154688568,63L181.6649555099247,64.8L182.20602327173168,66.6L182.74709103353868,68.4L183.2707049965777,70.2L183.81177275838465,72.6L184.33538672142367,75L184.87645448323067,77.4L185.41752224503765,81.6L185.90622861054072,85.80000000000001L186.44729637234772,88.8L186.97091033538672,90.6L187.5119780971937,92.4L188.03559206023272,93.6L188.57665982203972,94.2L189.11772758384666,94.8L189.6413415468857,94.2L190.18240930869268,93.6L190.70602327173168,93.6L191.24709103353868,93.6L191.78815879534565,93L192.27686516084873,92.4L192.8179329226557,91.2L193.34154688569475,90.6L193.88261464750173,90L194.40622861054072,89.4L194.94729637234772,88.2L195.4883641341547,87.6L196.0119780971937,87L196.5530458590007,86.4L197.0766598220397,85.2L197.61772758384666,84.6L198.15879534565366,84L198.64750171115676,82.8L199.18856947296374,82.8L199.71218343600273,82.8L200.25325119780973,83.4L200.77686516084873,82.8L201.3179329226557,81.6L201.8590006844627,81L202.3826146475017,79.8L202.92368240930867,78.6L203.44729637234772,77.4L203.9883641341547,76.80000000000001L204.5294318959617,75.6L205.03559206023272,75L205.5766598220397,73.8L206.1002737850787,73.19999999999999L206.6413415468857,72.6L207.1649555099247,72L207.70602327173168,71.4L208.24709103353868,70.80000000000001L208.77070499657768,71.4L209.31177275838465,70.80000000000001L209.8353867214237,70.80000000000001L210.37645448323067,70.2L210.91752224503765,69.6L211.40622861054072,69L211.94729637234772,67.8L212.47091033538672,67.2L213.0119780971937,66L213.53559206023272,64.8L214.0766598220397,64.19999999999999L214.6177275838467,63L215.1413415468857,62.400000000000006L215.68240930869268,60.6L216.20602327173168,59.4L216.74709103353868,58.199999999999996L217.28815879534565,57.599999999999994L217.77686516084873,57L218.31793292265573,55.8L218.84154688569473,55.8L219.3826146475017,55.19999999999999L219.90622861054072,54.599999999999994L220.44729637234772,54L220.9883641341547,54L221.5119780971937,54L222.0530458590007,53.39999999999999L222.5766598220397,52.8L223.1177275838467,51.599999999999994L223.65879534565366,51L224.14750171115674,51L224.6885694729637,50.400000000000006L225.21218343600273,50.400000000000006L225.75325119780973,49.2L226.27686516084873,48.60000000000001L226.81793292265573,48L227.3590006844627,46.8L227.8826146475017,46.2L228.4236824093087,45.599999999999994L228.94729637234772,44.400000000000006L229.4883641341547,43.8L230.02943189596166,42.599999999999994L230.53559206023272,42.599999999999994L231.0766598220397,41.39999999999999L231.6002737850787,40.19999999999999L232.1413415468857,39L232.6649555099247,38.400000000000006L233.2060232717317,38.400000000000006L233.74709103353868,37.8L234.27070499657768,36.599999999999994L234.81177275838468,36L235.33538672142367,35.400000000000006L235.87645448323065,34.2L236.41752224503765,34.2L236.90622861054075,33.60000000000001L237.44729637234772,33L237.97091033538672,31.799999999999997L238.51197809719372,30.599999999999994L239.03559206023272,30L239.5766598220397,29.400000000000006L240.1177275838467,28.799999999999997L240.64134154688568,28.200000000000003L241.18240930869266,27L241.7060232717317,26.39999999999999L242.24709103353868,24.60000000000001L242.78815879534565,24.60000000000001L243.27686516084873,25.19999999999999L243.81793292265573,24.60000000000001" fill="none" stroke="#af516c" stroke-linejoin="round" stroke-linecap="round" stroke-width="2"></path></g></g></svg>