<svg xmlns="http://www.w3.org/2000/svg" viewBox="0 0 304 270"><style>/* <![CDATA[ */.chart-title{font-size:20px;fill:#43423e}.chart-subtitle{font-size:15px;fill:#74736c}.chart-source{font-size:10px;fill-opacity:.4}.axis .domain{fill:none;stroke:#74736c}.tick line{fill:none;stroke:#000;stroke-opacity:.2}.tick text{fill-opacity:.6;font-size:12px}.y.axis .tick line{stroke-dasharray:1}.y.axis .domain{fill:none;stroke-opacity:0}.y.axis .highlight-line{fill:none;stroke:#74736c}/* ]]> */</style><text class="chart-title" y="22">日本国外资产</text><text class="chart-subtitle" y="42">净值，万亿日圆</text><text class="chart-source" y="265">来源:彭博╱日本财务省. 2017年7月6日</text><g transform="translate(1,100)"><g class="x axis" transform="translate(0,120)" fill="none" font-size="10" font-family="sans-serif" text-anchor="middle"><path class="domain" stroke="#000" d="M0.5,0V0.5H255.5V0"></path><g class="tick" opacity="1" transform="translate(32.375,0)"><line stroke="#000" y2="6"></line><text fill="#000" y="9" dy="0.71em">1990</text></g><g class="tick" opacity="1" transform="translate(72.21329568788501,0)"><line stroke="#000" y2="6"></line><text fill="#000" y="9" dy="0.71em">1995</text></g><g class="tick" opacity="1" transform="translate(112.05159137577003,0)"><line stroke="#000" y2="6"></line><text fill="#000" y="9" dy="0.71em">2000</text></g><g class="tick" opacity="1" transform="translate(151.91170431211498,0)"><line stroke="#000" y2="6"></line><text fill="#000" y="9" dy="0.71em">2005</text></g><g class="tick" opacity="1" transform="translate(191.75,0)"><line stroke="#000" y2="6"></line><text fill="#000" y="9" dy="0.71em">2010</text></g><g class="tick" opacity="1" transform="translate(231.58829568788502,0)"><line stroke="#000" y2="6"></line><text fill="#000" y="9" dy="0.71em">2015</text></g></g><g class="y axis" transform="translate(255,0)" fill="none" font-size="10" font-family="sans-serif" text-anchor="start"><path class="domain" stroke="#000" d="M0,120.5H0.5V0.5H0"></path><g class="tick" opacity="1" transform="translate(0,94.78571428571429)"><line stroke="#000" x2="-255"></line><text fill="#000" x="3" dy="0.32em">100</text></g><g class="tick" opacity="1" transform="translate(0,59.07142857142858)"><line stroke="#000" x2="-255"></line><text fill="#000" x="3" dy="0.32em">200</text></g><g class="tick" opacity="1" transform="translate(0,23.35714285714286)"><line stroke="#000" x2="-255"></line><text fill="#000" x="3" dy="0.32em">300</text></g></g><g><path d="M7.948750855578371,119.69107142857143L15.912046543463381,119.21464285714286L23.89715947980835,116.87678571428572L31.86045516769336,114.80607142857143L39.82375085557837,114.28L47.78704654346338,113.03642857142857L55.77215947980835,107.08821428571429L63.73545516769337,105.42035714285714L71.69875085557838,106.13821428571428L79.66204654346338,99.97428571428571L87.64715947980835,93.08607142857143L95.61045516769336,85.50464285714285L103.57375085557838,82.4025L111.53704654346338,99.7375L119.52215947980835,82.4832142857143L127.48545516769336,65.97964285714285L135.44875085557837,67.39000000000001L143.4120465434634,68.27928571428572L151.39715947980832,63.643928571428575L159.36045516769335,65.46464285714285L167.32375085557837,53.18535714285716L175.2870465434634,40.63535714285713L183.27215947980832,49.31857142857143L191.23545516769335,34.19785714285716L199.19875085557837,38.60499999999999L207.1620465434634,35.0925L215.14715947980832,23.106428571428552L223.11045516769335,13.667142857142835L231.07375085557837,0.21107142857142946L239.0370465434634,8.85107142857143L247.02215947980832,5.317142857142841" fill="none" stroke="#af516c" stroke-linejoin="round" stroke-linecap="round" stroke-width="2"></path></g></g></svg>