<svg xmlns="http://www.w3.org/2000/svg" viewBox="0 0 304 270"><style>/* <![CDATA[ */.chart-title{font-size:20px;fill:#43423e}.chart-subtitle{font-size:15px;fill:#74736c}.chart-source{font-size:10px;fill-opacity:.4}.axis .domain{fill:none;stroke:#74736c}.tick line{fill:none;stroke:#000;stroke-opacity:.2}.tick text{fill-opacity:.6;font-size:12px}.y.axis .tick line{stroke-dasharray:1}.y.axis .domain{fill:none;stroke-opacity:0}.y.axis .highlight-line{fill:none;stroke:#74736c}/* ]]> */</style><text class="chart-title" y="22">日本消费者信心</text><text class="chart-subtitle" y="42">指数</text><text class="chart-source" y="265">来源:日本国民经济计算╱彭博. 2018年5月2日</text><g transform="translate(1,100)"><g class="x axis" transform="translate(0,120)" fill="none" font-size="10" font-family="sans-serif" text-anchor="middle"><path class="domain" stroke="#000" d="M0.5,0V0.5H255.5V0"></path><g class="tick" opacity="1" transform="translate(18.703598670056717,0)"><line stroke="#000" y2="6"></line><text fill="#000" y="9" dy="0.71em">2006</text></g><g class="tick" opacity="1" transform="translate(55.110796010170155,0)"><line stroke="#000" y2="6"></line><text fill="#000" y="9" dy="0.71em">2008</text></g><g class="tick" opacity="1" transform="translate(91.56786622335224,0)"><line stroke="#000" y2="6"></line><text fill="#000" y="9" dy="0.71em">2010</text></g><g class="tick" opacity="1" transform="translate(127.97506356346567,0)"><line stroke="#000" y2="6"></line><text fill="#000" y="9" dy="0.71em">2012</text></g><g class="tick" opacity="1" transform="translate(164.43213377664776,0)"><line stroke="#000" y2="6"></line><text fill="#000" y="9" dy="0.71em">2014</text></g><g class="tick" opacity="1" transform="translate(200.8393311167612,0)"><line stroke="#000" y2="6"></line><text fill="#000" y="9" dy="0.71em">2016</text></g><g class="tick" opacity="1" transform="translate(237.29640132994328,0)"><line stroke="#000" y2="6"></line><text fill="#000" y="9" dy="0.71em">2018</text></g></g><g class="y axis" transform="translate(255,0)" fill="none" font-size="10" font-family="sans-serif" text-anchor="start"><path class="domain" stroke="#000" d="M0,120.5H0.5V0.5H0"></path><g class="tick" opacity="1" transform="translate(0,105.5)"><line stroke="#000" x2="-255"></line><text fill="#000" x="3" dy="0.32em">30</text></g><g class="tick" opacity="1" transform="translate(0,80.5)"><line stroke="#000" x2="-255"></line><text fill="#000" x="3" dy="0.32em">35</text></g><g class="tick" opacity="1" transform="translate(0,55.5)"><line stroke="#000" x2="-255"></line><text fill="#000" x="3" dy="0.32em">40</text></g><g class="tick" opacity="1" transform="translate(0,30.5)"><line stroke="#000" x2="-255"></line><text fill="#000" x="3" dy="0.32em">45</text></g><g class="tick" opacity="1" transform="translate(0,5.5)"><line stroke="#000" x2="-255"></line><text fill="#000" x="3" dy="0.32em">50</text></g></g><g><path d="M1.512810483082339,16.499999999999986L2.9092509290044983,16.499999999999986L4.4553099941326035,31.499999999999986L5.95149618619206,19.5L7.497555251320164,18.500000000000014L8.993741443379621,24.5L10.539800508507724,13.999999999999986L12.08585957363583,13L13.582045765695286,27L15.128104830823391,14.499999999999986L16.624291022882847,12L18.170350088010952,18L19.716409153139058,5L21.112849599061217,4.5L22.658908664189322,16.499999999999986L24.15509485624878,7.5L25.701153921376882,10.5L27.197340113436336,21.999999999999986L28.74339917856444,13L30.289458243692547,17.5L31.785644435752005,25L33.33170350088011,13.500000000000014L34.827889692939564,9.5L36.37394875806767,20L37.920007823195775,10L39.316448269117934,10L40.86250733424604,21.499999999999986L42.358693526305494,20L43.9047525914336,23.500000000000014L45.40093878349306,33.500000000000014L46.946997848621166,34.5L48.49305691374927,35.5L49.989243105808725,37.5L51.53530217093683,41.499999999999986L53.031488362996285,53.500000000000014L54.57754742812438,58.99999999999999L56.12360649325249,62.5L57.5699198122433,67.5L59.115978877371404,70.5L60.612165069430866,81.00000000000001L62.15822413455897,90L63.654410326618425,96L65.20046939174654,101.5L66.74652845687463,107L68.24271464893408,101.5L69.7887737140622,109L71.28495990612166,111L72.83101897124975,117L74.37707803637787,117.5L75.77351848230002,116.5L77.31957754742812,108L78.81576373948758,94.5L80.36182280461568,80.5L81.85800899667514,72.5L83.40406806180326,61.99999999999999L84.95012712693135,58.00000000000001L86.4463133189908,56.000000000000014L87.99237238411891,53.999999999999986L89.48855857617836,53.999999999999986L91.03461764130648,60.50000000000001L92.58067670643457,54.5L93.97711715235674,51.499999999999986L95.52317621748485,48L97.01936240954429,45.500000000000014L98.5654214746724,45L100.06160766673186,43.500000000000014L101.60766673185996,43.500000000000014L103.15372579698807,46.499999999999986L104.64991198904752,51.499999999999986L106.19597105417563,51.000000000000014L107.69215724623508,48.500000000000014L109.2382163113632,47.5L110.7842753764913,46.499999999999986L112.18071582241346,48.999999999999986L113.72677488754155,62.5L115.222961079601,88.99999999999999L116.76902014472913,83.99999999999999L118.26520633678858,78.99999999999999L119.81126540191669,71.00000000000001L121.35732446704479,70.5L122.85351065910424,63.999999999999986L124.39956972423235,61.499999999999986L125.8957559162918,61.99999999999999L127.44181498141991,58.99999999999999L128.987874046548,55.5L130.43418736553883,56.000000000000014L131.9802464306669,55L133.47643262272638,56.000000000000014L135.02249168785448,53.999999999999986L136.51867787991395,55L138.06473694504206,56.000000000000014L139.61079601017016,53.500000000000014L141.1069822022296,53.999999999999986L142.6530412673577,55L144.14922745941718,54.5L145.69528652454528,55.5L147.2413455896734,38.999999999999986L148.63778603559555,33.999999999999986L150.18384510072366,31.000000000000014L151.6800312927831,32.5L153.2260903579112,29.499999999999986L154.72227654997064,36.499999999999986L156.26833561509875,38.000000000000014L157.81439468022688,42.5L159.31058087228632,27.5L160.85663993741446,46.499999999999986L162.3528261294739,39.5L163.89888519460197,47.5L165.4449442597301,53.000000000000014L166.84138470565225,61.000000000000014L168.38744377078035,67.5L169.88362996283982,69.5L171.42968902796792,60L172.9258752200274,53.500000000000014L174.4719342851555,48L176.01799335028358,52.5L177.51417954234304,55L179.06023860747115,58.50000000000002L180.55642479953062,63.00000000000001L182.10248386465872,60L183.6485429297868,58.99999999999999L185.044983375709,50L186.5910424408371,47.5L188.08722863289654,47L189.63328769802465,48L191.12947389008409,47.5L192.6755329552122,50.5L194.22159202034032,47.5L195.71777821239976,51.000000000000014L197.26383727752787,47L198.7600234695873,42L200.30608253471542,43L201.85214159984355,44.499999999999986L203.29845491883435,53.999999999999986L204.84451398396246,48L206.34070017602193,50.5L207.88675924115,50L209.38294543320944,46.000000000000014L210.92900449833758,47.5L212.47506356346568,45L213.97124975552512,40L215.51730882065326,43.500000000000014L217.0134950127127,50L218.5595540778408,41.000000000000014L220.1056131429689,40L221.50205358889104,38.999999999999986L223.04811265401915,35.5L224.54429884607862,38.500000000000014L226.09035791120672,36.999999999999986L227.5865441032662,38.500000000000014L229.1326031683943,35.5L230.67866223352237,38.500000000000014L232.17484842558184,34.5L233.72090749070995,33L235.21709368276942,32L236.76315274789752,32L238.3092118130256,32L239.7056522589478,33.500000000000014L241.2517113240759,33.500000000000014L242.74789751613537,36.999999999999986" fill="none" stroke="#af516c" stroke-linejoin="round" stroke-linecap="round" stroke-width="2"></path></g></g></svg>