<svg xmlns="http://www.w3.org/2000/svg" viewBox="0 0 304 270"><style>/* <![CDATA[ */.chart-title{font-size:20px;fill:#43423e}.chart-subtitle{font-size:15px;fill:#74736c}.chart-source{font-size:10px;fill-opacity:.4}.axis .domain{fill:none;stroke:#74736c}.tick line{fill:none;stroke:#000;stroke-opacity:.2}.tick text{fill-opacity:.6;font-size:12px}.y.axis .tick line{stroke-dasharray:1}.y.axis .domain{fill:none;stroke-opacity:0}.y.axis .highlight-line{fill:none;stroke:#74736c}/* ]]> */</style><text class="chart-title" y="22">日本广义通胀</text><text class="chart-subtitle" y="42">年增长％</text><text class="chart-source" y="265">来源:彭博. 2018年4月19日</text><g transform="translate(1,100)"><g class="x axis" transform="translate(0,120)" fill="none" font-size="10" font-family="sans-serif" text-anchor="middle"><path class="domain" stroke="#000" d="M0.5,0V0.5H255.5V0"></path><g class="tick" opacity="1" transform="translate(0.5,0)"><line stroke="#000" y2="6"></line><text fill="#000" y="9" dy="0.71em">1980</text></g><g class="tick" opacity="1" transform="translate(64.25872689938399,0)"><line stroke="#000" y2="6"></line><text fill="#000" y="9" dy="0.71em">1990</text></g><g class="tick" opacity="1" transform="translate(128,0)"><line stroke="#000" y2="6"></line><text fill="#000" y="9" dy="0.71em">2000</text></g><g class="tick" opacity="1" transform="translate(191.758726899384,0)"><line stroke="#000" y2="6"></line><text fill="#000" y="9" dy="0.71em">2010</text></g><g class="tick" opacity="1" transform="translate(255.5,0)"><line stroke="#000" y2="6"></line><text fill="#000" y="9" dy="0.71em">2020</text></g></g><g class="y axis" transform="translate(255,0)" fill="none" font-size="10" font-family="sans-serif" text-anchor="start"><path class="domain" stroke="#000" d="M0,120.5H0.5V0.5H0"></path><g class="tick" opacity="1" transform="translate(0,110.5)"><line stroke="#000" x2="-255"></line><text fill="#000" x="3" dy="0.32em">-2</text></g><g class="tick" opacity="1" transform="translate(0,90.5)"><line stroke="#000" x2="-255"></line><text fill="#000" x="3" dy="0.32em">0</text></g><g class="tick" opacity="1" transform="translate(0,70.5)"><line stroke="#000" x2="-255"></line><text fill="#000" x="3" dy="0.32em">2</text></g><g class="tick" opacity="1" transform="translate(0,50.5)"><line stroke="#000" x2="-255"></line><text fill="#000" x="3" dy="0.32em">4</text></g><g class="tick" opacity="1" transform="translate(0,30.5)"><line stroke="#000" x2="-255"></line><text fill="#000" x="3" dy="0.32em">6</text></g><g class="tick" opacity="1" transform="translate(0,10.5)"><line stroke="#000" x2="-255"></line><text fill="#000" x="3" dy="0.32em">8</text></g><line class="highlight-line" x1="0" y1="90" x2="-255" y2="90"></line></g><g><path d="M0.5294318959616701,26L1.0355920602327173,13L1.5766598220396988,13L2.100273785078713,9.000000000000014L2.6413415468856947,10L3.164955509924709,8.000000000000014L3.7060232717316905,15L4.247091033538672,5.999999999999986L4.770704996577687,3L5.3117727583846674,15L5.835386721423682,10L6.376454483230663,20.999999999999986L6.917522245037645,18L7.406228610540725,27L7.947296372347707,29L8.470910335386721,40L9.011978097193703,40L9.535592060232718,42L10.0766598220397,46L10.617727583846682,48L11.141341546885695,50L11.682409308692677,48L12.206023271731691,52L12.747091033538673,47L13.288158795345653,57L13.776865160848734,57.99999999999999L14.317932922655716,60L14.84154688569473,60L15.382614647501711,65L15.906228610540726,67L16.447296372347708,71L16.988364134154686,57.99999999999999L17.5119780971937,57.99999999999999L18.053045859000687,59L18.576659822039698,67L19.11772758384668,70L19.65879534565366,69L20.147501711156742,70L20.68856947296372,67L21.21218343600274,69L21.75325119780972,62.99999999999999L22.276865160848732,70L22.817932922655714,67L23.359000684462696,77L23.88261464750171,81L24.423682409308693,75L24.947296372347704,71L25.48836413415469,73L26.029431895961668,71L26.535592060232716,61L27.076659822039698,65L27.600273785078713,67L28.141341546885695,70L28.66495550992471,71L29.206023271731688,65L29.747091033538673,71L30.270704996577688,67L30.811772758384667,68L31.33538672142368,68L31.876454483230667,64L32.417522245037645,61L32.90622861054073,75L33.4472963723477,72L33.97091033538672,70L34.511978097193705,72L35.035592060232716,65L35.5766598220397,66L36.11772758384668,67L36.64134154688569,73L37.18240930869268,67L37.70602327173169,71L38.24709103353867,71L38.78815879534565,75L39.276865160848736,72L39.817932922655714,77L40.341546885694726,80L40.88261464750171,79L41.40622861054072,84L41.94729637234771,89L42.488364134154686,89L43.0119780971937,85L43.55304585900068,93L44.0766598220397,90L44.61772758384668,93L45.15879534565366,101L45.64750171115674,100L46.18856947296372,95L46.71218343600273,89L47.25325119780972,90L47.776865160848736,87L48.317932922655714,89L48.85900068446269,86L49.38261464750171,82L49.92368240930869,83L50.44729637234771,83L50.98836413415469,82L51.529431895961665,81L52.03559206023272,83L52.576659822039694,83L53.10027378507871,87L53.6413415468857,88L54.16495550992471,88L54.706023271731695,85L55.24709103353867,83L55.770704996577685,84L56.31177275838467,79L56.83538672142368,78L57.37645448323067,80L57.917522245037645,79L58.40622861054073,80L58.94729637234771,79L59.47091033538672,66L60.011978097193705,61L60.535592060232716,60L61.0766598220397,60L61.61772758384668,64L62.14134154688569,64L62.68240930869268,61L63.206023271731695,67L63.74709103353867,64L64.28815879534565,60L64.77686516084874,54.000000000000014L65.31793292265571,55L65.84154688569473,65L66.38261464750171,62.99999999999999L66.90622861054072,68L67.44729637234771,67L67.9883641341547,61L68.5119780971937,60L69.05304585900068,55L69.5766598220397,48L70.11772758384669,52L70.65879534565367,50L71.14750171115674,54.000000000000014L71.68856947296372,54.000000000000014L72.21218343600275,56L72.75325119780972,56L73.27686516084873,56L73.81793292265571,55L74.3590006844627,57L74.88261464750171,62.99999999999999L75.4236824093087,62.99999999999999L75.94729637234771,59L76.48836413415468,62.99999999999999L77.02943189596166,72L77.53559206023272,70L78.0766598220397,70L78.60027378507871,66L79.14134154688568,70L79.66495550992471,67L80.2060232717317,73L80.74709103353868,73L81.27070499657769,70L81.81177275838468,79L82.33538672142367,83L82.87645448323066,78L83.41752224503765,77L83.90622861054074,76L84.44729637234771,78L84.97091033538672,81L85.5119780971937,81L86.03559206023272,81L86.5766598220397,71L87.11772758384669,71L87.64134154688568,75L88.18240930869267,77L88.7060232717317,81L89.24709103353868,80L89.78815879534567,78L90.27686516084873,79L90.81793292265571,77L91.34154688569473,82L91.88261464750171,82L92.40622861054072,84L92.94729637234771,92L93.4883641341547,90L94.0119780971937,88L94.55304585900069,83L95.0766598220397,80L95.61772758384667,83L96.15879534565366,84L96.64750171115675,88L97.18856947296374,94L97.71218343600273,92L98.25325119780972,90L98.77686516084873,87L99.31793292265571,89L99.8590006844627,92L100.38261464750171,88L100.92368240930868,96L101.44729637234771,97L101.9883641341547,93L102.52943189596168,95L103.03559206023273,94L103.57665982203969,91L104.10027378507871,88L104.6413415468857,88L105.16495550992471,90L105.7060232717317,86L106.24709103353867,88L106.77070499657768,90L107.31177275838466,85L107.83538672142369,85L108.37645448323067,84L108.91752224503765,84L109.40622861054072,84L109.94729637234771,85L110.47091033538672,71L111.0119780971937,71L111.53559206023272,68L112.0766598220397,71L112.61772758384667,69L113.1413415468857,66L113.68240930869268,65L114.20602327173168,69L114.74709103353867,72L115.28815879534565,72L115.77686516084874,71L116.31793292265571,68L116.84154688569473,86L117.38261464750171,85L117.90622861054072,89L118.44729637234771,91L118.9883641341547,93L119.5119780971937,92L120.05304585900068,88L120.5766598220397,82L121.11772758384669,84L121.65879534565366,88L122.14750171115674,91L122.68856947296372,94L123.21218343600273,91L123.75325119780972,94L124.27686516084874,93L124.81793292265573,91L125.35900068446269,87L125.88261464750171,92L126.4236824093087,97L126.94729637234771,102L127.4883641341547,101L128.02943189596166,99L128.53559206023272,96L129.0766598220397,95L129.6002737850787,98L130.14134154688568,97L130.6649555099247,97L131.2060232717317,95L131.74709103353868,98L132.27070499657768,98L132.81177275838468,99L133.33538672142367,95L133.87645448323065,92L134.41752224503765,93L134.90622861054072,93L135.4472963723477,97L135.97091033538672,97L136.51197809719372,97L137.03559206023272,98L137.5766598220397,98L138.1177275838467,97L138.64134154688568,98L139.18240930869268,98L139.7060232717317,100L140.24709103353865,102L140.78815879534565,104L141.27686516084873,106L141.81793292265573,102L142.34154688569473,101L142.88261464750173,99L143.40622861054072,97L143.9472963723477,98L144.4883641341547,99L145.01197809719372,97L145.55304585900066,99L146.07665982203972,94L146.6177275838467,93L147.15879534565366,94L147.64750171115674,92L148.18856947296374,91L148.71218343600273,91L149.2532511978097,92L149.77686516084876,94L150.31793292265573,92L150.85900068446267,93L151.38261464750173,92L151.9236824093087,90L152.4472963723477,95L152.9883641341547,94L153.52943189596166,93L154.03559206023272,90L154.57665982203972,91L155.1002737850787,94L155.64134154688568,95L156.16495550992468,90L156.70602327173168,91L157.24709103353865,92L157.7707049965777,90L158.31177275838468,85L158.83538672142367,82L159.37645448323067,88L159.91752224503765,91L160.40622861054072,93L160.9472963723477,92L161.47091033538672,90L162.0119780971937,88L162.53559206023272,95L163.07665982203972,93L163.6177275838467,93L164.14134154688568,93L164.68240930869268,97L165.20602327173168,98L165.74709103353865,91L166.28815879534565,91L166.77686516084873,91L167.3179329226557,92L167.84154688569473,91L168.38261464750173,89L168.90622861054072,85L169.4472963723477,87L169.9883641341547,81L170.5119780971937,84L171.0530458590007,86L171.57665982203972,87L172.1177275838467,87L172.6587953456537,90L173.14750171115674,92L173.68856947296374,91L174.21218343600273,90L174.75325119780973,90L175.27686516084873,92L175.8179329226557,90L176.3590006844627,92L176.88261464750173,92L177.4236824093087,87L177.9472963723477,84L178.4883641341547,83L179.02943189596166,83L179.53559206023272,80L180.07665982203972,78L180.6002737850787,82L181.14134154688568,77L181.6649555099247,70L182.20602327173168,67L182.74709103353868,69L183.2707049965777,69L183.81177275838465,73L184.33538672142367,80L184.87645448323067,86L185.41752224503765,90L185.90622861054072,91L186.44729637234772,93L186.97091033538672,91L187.5119780971937,101L188.03559206023272,108L188.57665982203972,112L189.11772758384666,112L189.6413415468857,112L190.18240930869268,115L190.70602327173168,109L191.24709103353868,107L191.78815879534565,103L192.27686516084873,101L192.8179329226557,101L193.34154688569475,102L193.88261464750173,99L194.40622861054072,97L194.94729637234772,99L195.4883641341547,99L196.0119780971937,96L196.5530458590007,88L197.0766598220397,89L197.61772758384666,90L198.15879534565366,96L198.64750171115676,95L199.18856947296374,95L199.71218343600273,94L200.25325119780973,94L200.77686516084873,94L201.3179329226557,88L201.8590006844627,88L202.3826146475017,90L202.92368240930867,92L203.44729637234772,95L203.9883641341547,92L204.5294318959617,89L205.03559206023272,87L205.5766598220397,85L206.1002737850787,86L206.6413415468857,88L207.1649555099247,92L207.70602327173168,94L208.24709103353868,94L208.77070499657768,93L209.31177275838465,94L209.8353867214237,92L210.37645448323067,91L210.91752224503765,93L211.40622861054072,97L211.94729637234772,99L212.47091033538672,97L213.0119780971937,93L213.53559206023272,88L214.0766598220397,83L214.6177275838467,81L215.1413415468857,79L215.68240930869268,79L216.20602327173168,75L216.74709103353868,74L217.28815879534565,76L217.77686516084873,75L218.31793292265573,74L218.84154688569473,56L219.3826146475017,53L219.90622861054072,54.000000000000014L220.44729637234772,56L220.9883641341547,57L221.5119780971937,57.99999999999999L222.0530458590007,61L222.5766598220397,66L223.1177275838467,66L223.65879534565366,66L224.14750171115674,68L224.6885694729637,67L225.21218343600273,84L225.75325119780973,85L226.27686516084873,86L226.81793292265573,88L227.3590006844627,88L227.8826146475017,90L228.4236824093087,87L228.94729637234772,87L229.4883641341547,88L230.02943189596166,91L230.53559206023272,88L231.0766598220397,90L231.6002737850787,93L232.1413415468857,95L232.6649555099247,94L233.2060232717317,94L233.74709103353868,95L234.27070499657768,95L234.81177275838468,89L235.33538672142367,85L235.87645448323065,87L236.41752224503765,86L236.90622861054075,87L237.44729637234772,88L237.97091033538672,86L238.51197809719372,86L239.03559206023272,86L239.5766598220397,86L240.1177275838467,83L240.64134154688568,83L241.18240930869266,88L241.7060232717317,84L242.24709103353868,80L242.78815879534565,76L243.27686516084873,75L243.81793292265573,79" fill="none" stroke="#af516c" stroke-linejoin="round" stroke-linecap="round" stroke-width="2"></path></g></g></svg>