<svg xmlns="http://www.w3.org/2000/svg" viewBox="0 0 304 270"><style>/* <![CDATA[ */.chart-title{font-size:20px;fill:#43423e}.chart-subtitle{font-size:15px;fill:#74736c}.chart-source{font-size:10px;fill-opacity:.4}.axis .domain{fill:none;stroke:#74736c}.tick line{fill:none;stroke:#000;stroke-opacity:.2}.tick text{fill-opacity:.6;font-size:12px}.y.axis .tick line{stroke-dasharray:1}.y.axis .domain{fill:none;stroke-opacity:0}.y.axis .highlight-line{fill:none;stroke:#74736c}/* ]]> */</style><text class="chart-title" y="22">日本经常帐目馀额</text><text class="chart-subtitle" y="42">10亿日圆</text><text class="chart-source" y="265">来源:彭博╱日本财务省. 2018年4月9日</text><g transform="translate(1,100)"><g class="x axis" transform="translate(0,120)" fill="none" font-size="10" font-family="sans-serif" text-anchor="middle"><path class="domain" stroke="#000" d="M0.5,0V0.5H255.5V0"></path><g class="tick" opacity="1" transform="translate(43,0)"><line stroke="#000" y2="6"></line><text fill="#000" y="9" dy="0.71em">2000</text></g><g class="tick" opacity="1" transform="translate(96.14681724845997,0)"><line stroke="#000" y2="6"></line><text fill="#000" y="9" dy="0.71em">2005</text></g><g class="tick" opacity="1" transform="translate(149.26454483230665,0)"><line stroke="#000" y2="6"></line><text fill="#000" y="9" dy="0.71em">2010</text></g><g class="tick" opacity="1" transform="translate(202.3822724161533,0)"><line stroke="#000" y2="6"></line><text fill="#000" y="9" dy="0.71em">2015</text></g><g class="tick" opacity="1" transform="translate(255.5,0)"><line stroke="#000" y2="6"></line><text fill="#000" y="9" dy="0.71em">2020</text></g></g><g class="y axis" transform="translate(255,0)" fill="none" font-size="10" font-family="sans-serif" text-anchor="start"><path class="domain" stroke="#000" d="M0,120.5H0.5V0.5H0"></path><g class="tick" opacity="1" transform="translate(0,109.11768368617683)"><line stroke="#000" x2="-255"></line><text fill="#000" x="3" dy="0.32em">-1,000</text></g><g class="tick" opacity="1" transform="translate(0,84.21108343711083)"><line stroke="#000" x2="-255"></line><text fill="#000" x="3" dy="0.32em">0</text></g><g class="tick" opacity="1" transform="translate(0,59.30448318804483)"><line stroke="#000" x2="-255"></line><text fill="#000" x="3" dy="0.32em">1,000</text></g><g class="tick" opacity="1" transform="translate(0,34.397882938978825)"><line stroke="#000" x2="-255"></line><text fill="#000" x="3" dy="0.32em">2,000</text></g><g class="tick" opacity="1" transform="translate(0,9.491282689912822)"><line stroke="#000" x2="-255"></line><text fill="#000" x="3" dy="0.32em">3,000</text></g><line class="highlight-line" x1="0" y1="83.71108343711083" x2="-255" y2="83.71108343711083"></line></g><g><path d="M0.8823864932694501,82.85927770859277L1.7259867670545288,62.26899128268991L2.6277663700661646,50.94894146948941L3.500456308464522,68.32876712328768L4.402235911476158,73.5491905354919L5.274925849874515,67.86799501867995L6.176705452886151,70.13698630136986L7.078485055897787,71.8107098381071L7.951174994296144,66.15442092154422L8.852954597307779,74.35118306351183L9.725644535706136,65.91282689912828L10.627424138717773,63.683686176836865L11.52920374172941,80.4557907845579L12.343714350901209,61.41967621419676L13.245493953912845,57.27770859277708L14.118183892311201,56.69489414694894L15.019963495322838,61.55915317559153L15.892653433721195,59.30012453300124L16.79443303673283,61.738480697384816L17.69621263974447,63.60149439601494L18.568902578142826,55.22540473225406L19.470682181154462,56.73723536737236L20.343372119552818,51.19551681195517L21.24515172256445,51.15815691158157L22.14693132557609,72.10211706102118L22.96144193474789,42.2241594022416L23.863221537759525,45.14570361145704L24.73591147615788,55.83312577833125L25.637691079169517,50.2241594022416L26.510381017567877,52.249066002490665L27.41216062057951,51.48194271481944L28.31394022359115,55.222914072229145L29.186630161989505,43.760896637608965L30.08840976500114,56.986301369863014L30.961099703399498,57.19551681195517L31.862879306411134,48.55541718555418L32.76465890942277,65.546699875467L33.57916951859457,57.16313823163138L34.4809491216062,52.91656288916563L35.35363906000456,61.08343711083437L36.2554186630162,57.42216687422167L37.12810860141456,49.33001245330013L38.02988820442619,50.42092154420921L38.931667807437826,63.631382316313825L39.804357745836185,50.65504358655045L40.706137348847825,56.986301369863014L41.57882728724618,60.95392278953923L42.48060689025782,55.30012453300125L43.38238649326945,65.99003735990037L44.22598676705453,44.91158156911581L45.12776637006617,48.99377334993774L46.00045630846452,49.20547945205479L46.902235911476154,58.16438356164384L47.77492584987451,48.36861768368618L48.67670545288615,52.16189290161893L49.57848505589779,54.25155666251557L50.451174994296146,48.144458281444585L51.35295459730778,63.59402241594023L52.22564453570614,58.396014943960154L53.12742413871777,62.13200498132005L54.02920374172941,76.93150684931507L54.84371435090121,48.55790784557908L55.74549395391284,46.39103362391033L56.6181838923112,61.76089663760896L57.519963495322834,71.42714819427148L58.3926534337212,64.1519302615193L59.29443303673283,65.90286425902863L60.196212639744466,65.7409713574097L61.068902578142826,54.443337484433385L61.97068218115446,66.82440846824409L62.84337211955282,59.00622665006227L63.74515172256446,63.06102117061022L64.64693132557609,68.15691158156912L65.4614419347479,49.53673723536737L66.36322153775953,30.59028642590286L67.23591147615788,58.4134495641345L68.13769107916951,59.516811955168116L69.01038101756788,49.27272727272728L69.91216062057951,56.43586550435866L70.81394022359115,58.11457036114571L71.68663016198951,54.83686176836861L72.58840976500115,60.98381070983811L73.4610997033995,55.73100871731009L74.36287930641114,62.13200498132005L75.26465890942278,72.08966376089664L76.07916951859457,46.53549190535493L76.9809491216062,43.07845579078456L77.85363906000457,51.202988792029885L78.7554186630162,48.85927770859277L79.62810860141455,56.11955168119551L80.5298882044262,46.229140722291405L81.43166780743783,47.61643835616438L82.30435774583619,42.49315068493151L83.20613734884783,51.19302615193027L84.07882728724617,45.06102117061022L84.9806068902578,52.423412204234126L85.88238649326945,54.98132004981319L86.72598676705454,28.28891656288917L87.62776637006617,35.967621419676206L88.50045630846452,42.53549190535493L89.40223591147615,38.44084682440847L90.27492584987452,49.471980074719795L91.17670545288615,40.62764632627645L92.07848505589779,45.46450809464508L92.95117499429615,37.97758405977585L93.85295459730779,48.08219178082193L94.72564453570614,50.75217932752179L95.62742413871779,41.43462017434621L96.52920374172942,63.05354919053549L97.34371435090121,30.07970112079701L98.24549395391284,37.55666251556663L99.11818389231121,42.28891656288917L100.01996349532284,47.57409713574097L100.8926534337212,55.392278953922784L101.79443303673284,40.57285180572852L102.69621263974447,52.5703611457036L103.56890257814281,37.25778331257783L104.47068218115447,47.53922789539227L105.34337211955281,47.39726027397259L106.24515172256444,36.806973848069745L107.14693132557609,64.14694894146949L107.9614419347479,25.94022415940225L108.86322153775953,23.539227895392273L109.73591147615788,49.349937733499374L110.63769107916953,41.63138231631382L111.51038101756787,56.78953922789539L112.4121606205795,38.064757160647574L113.31394022359116,45.76836861768368L114.1866301619895,31.397260273972606L115.08840976500113,44.38356164383562L115.9610997033995,39.04109589041096L116.86287930641113,38.10958904109589L117.76465890942276,53.42714819427148L118.57916951859457,21.437110834371097L119.48094912160622,0.014943960149452096L120.35363906000455,34.891656288916565L121.25541866301619,30.804483188044827L122.12810860141455,45.39476961394769L123.02988820442619,37.06351183063512L123.93166780743782,31.292652552926526L124.80435774583619,11.945205479452056L125.70613734884782,29.838107098381073L126.57882728724618,42.17185554171854L127.48060689025782,44.85678704856787L128.38238649326945,55.985056039850576L129.2259867670545,21.957658779576576L130.12776637006615,12.166874221668735L131.00045630846452,53.42714819427148L131.90223591147617,38.620174346201736L132.7749258498745,76.66749688667497L133.67670545288615,49.407222914072236L134.57848505589777,62.039850560398506L135.45117499429617,47.64881693648816L136.3529545973078,62.229140722291405L137.22564453570612,71.14321295143213L138.12742413871777,82.66998754669987L139.0292037417294,89.23785803237858L139.8437143509012,57.7011207970112L140.74549395391284,47.52926525529266L141.6181838923112,67.68866749688667L142.51996349532286,51.63138231631383L143.3926534337212,51.64134495641346L144.29443303673284,50.27397260273973L145.19621263974446,53.80074719800747L146.06890257814283,40.93150684931507L146.97068218115447,45.471980074719795L147.8433721195528,52.91905354919054L148.74515172256446,57.160647571606475L149.64693132557608,58.30635118306351L150.46144193474788,40.80448318804484L151.36322153775953,16.587795765877956L152.2359114761579,44.20174346201743L153.13769107916954,46.62017434620175L154.01038101756788,51.3200498132005L154.9121606205795,35.5840597758406L155.81394022359115,49.94022415940225L156.68663016198948,29.733499377334994L157.58840976500116,42.48567870485678L158.4610997033995,56.171855541718564L159.36287930641114,50.01494396014944L160.26465890942276,67.27770859277709L161.07916951859457,38.600249066002505L161.98094912160622,37.57160647571607L162.85363906000455,71.2478206724782L163.7554186630162,67.56164383561644L164.62810860141457,67.39476961394769L165.5298882044262,54.53549190535492L166.43166780743783,69.94769613947696L167.30435774583617,43.49937733499377L168.20613734884782,70.32876712328768L169.07882728724618,80.48318804483188L169.98060689025783,77.0236612702366L170.88238649326945,94.61519302615193L171.72598676705454,53.387297633872976L172.62776637006618,50.64009962640098L173.50045630846452,74.31631382316314L174.40223591147617,75.06600249066003L175.2749258498745,73.5516811955168L176.17670545288615,67.68617683686176L177.0784850558978,73.53673723536738L177.95117499429614,70.86176836861767L178.8529545973078,73.67870485678705L179.72564453570612,88.65504358655043L180.62742413871777,89.88293897882939L181.52920374172942,92.35616438356165L182.34371435090122,67.46201743462018L183.24549395391287,51.63885429638856L184.1181838923112,60.67247820672478L185.01996349532283,66.06973848069737L185.8926534337212,71.23536737235366L186.7944330367328,65.62889165628891L187.6962126397445,76.67745952677458L188.56890257814283,65.30759651307596L189.47068218115447,84.1145703611457L190.3433721195528,95.15566625155667L191.24515172256443,97.21544209215442L192.14693132557608,119.97758405977584L192.96144193474788,65.25778331257783L193.86322153775953,77.6214196762142L194.7359114761579,74.85927770859277L195.6376910791695,66.43586550435866L196.51038101756788,88.5280199252802L197.4121606205795,70.05728518057285L198.31394022359115,73.65130759651308L199.1866301619895,58.590286425902875L200.08840976500113,62.27397260273973L200.9610997033995,72.44333748443337L201.86287930641112,77.1656288916563L202.76465890942276,81.39476961394769L203.57916951859457,47.19800747198008L204.4809491216062,15.170610211706105L205.35363906000458,49.54420921544208L206.2554186630162,36.851805728518045L207.12810860141454,67.30510585305106L208.0298882044262,37.67621419676213L208.9316678074378,42.41344956413451L209.8043577458362,46.73225404732254L210.70613734884782,48.7945205479452L211.57882728724618,56.914072229140714L212.4806068902578,63.09589041095891L213.38238649326945,67.98007471980074L214.22598676705454,23.222914072229145L215.12776637006615,8.906600249066017L216.00045630846452,35.95765877957659L216.90223591147614,36.859277708592785L217.7749258498745,56.42341220423412L218.67670545288615,31.476961394769617L219.5784850558978,31.623910336239092L220.45117499429614,36.83686176836862L221.35295459730776,44.650062266500626L222.22564453570615,48.92652552926526L223.12742413871777,57.0958904109589L224.02920374172942,80.85927770859277L224.84371435090122,11.22042341220424L225.74549395391284,9.093399750934012L226.61818389231118,34.386052303860524L227.51996349532283,41.53922789539227L228.3926534337212,60.667496886674975L229.29443303673284,25.25280199252802L230.19621263974446,23.917808219178085L231.06890257814283,27.464508094645083L231.97068218115444,29.202988792029885L232.84337211955284,50.318804483188046L233.74515172256446,63.872976338729764L234.6469313255761,68.58281444582815L235.46144193474788,32.00498132004981" fill="none" stroke="#af516c" stroke-linejoin="round" stroke-linecap="round" stroke-width="2"></path></g></g></svg>