<svg xmlns="http://www.w3.org/2000/svg" viewBox="0 0 304 270"><style>/* <![CDATA[ */.chart-title{font-size:20px;fill:#43423e}.chart-subtitle{font-size:15px;fill:#74736c}.chart-source{font-size:10px;fill-opacity:.4}.axis .domain{fill:none;stroke:#74736c}.tick line{fill:none;stroke:#000;stroke-opacity:.2}.tick text{fill-opacity:.6;font-size:12px}.y.axis .tick line{stroke-dasharray:1}.y.axis .domain{fill:none;stroke-opacity:0}.y.axis .highlight-line{fill:none;stroke:#74736c}/* ]]> */</style><text class="chart-title" y="22">日本出口增长</text><text class="chart-subtitle" y="42">年度变化，季度数据</text><text class="chart-source" y="265">来源:CEIC. 2016年11月14日</text><g transform="translate(1,100)"><g class="x axis" transform="translate(0,120)" fill="none" font-size="10" font-family="sans-serif" text-anchor="middle"><path class="domain" stroke="#000" d="M0.5,0V0.5H255.5V0"></path><g class="tick" opacity="1" transform="translate(11.117727583846682,0)"><line stroke="#000" y2="6"></line><text fill="#000" y="9" dy="0.71em">1995</text></g><g class="tick" opacity="1" transform="translate(64.23545516769337,0)"><line stroke="#000" y2="6"></line><text fill="#000" y="9" dy="0.71em">2000</text></g><g class="tick" opacity="1" transform="translate(117.38227241615331,0)"><line stroke="#000" y2="6"></line><text fill="#000" y="9" dy="0.71em">2005</text></g><g class="tick" opacity="1" transform="translate(170.5,0)"><line stroke="#000" y2="6"></line><text fill="#000" y="9" dy="0.71em">2010</text></g><g class="tick" opacity="1" transform="translate(223.6177275838467,0)"><line stroke="#000" y2="6"></line><text fill="#000" y="9" dy="0.71em">2015</text></g></g><g class="y axis" transform="translate(255,0)" fill="none" font-size="10" font-family="sans-serif" text-anchor="start"><path class="domain" stroke="#000" d="M0,120.5H0.5V0.5H0"></path><g class="tick" opacity="1" transform="translate(0,92.55479452054794)"><line stroke="#000" x2="-255"></line><text fill="#000" x="3" dy="0.32em">-20</text></g><g class="tick" opacity="1" transform="translate(0,59.67808219178082)"><line stroke="#000" x2="-255"></line><text fill="#000" x="3" dy="0.32em">0</text></g><g class="tick" opacity="1" transform="translate(0,26.80136986301369)"><line stroke="#000" x2="-255"></line><text fill="#000" x="3" dy="0.32em">20</text></g><line class="highlight-line" x1="0" y1="59.17808219178082" x2="-255" y2="59.17808219178082"></line></g><g><path d="M12.343714350901209,52.93150684931507L15.019963495322838,50.301369863013704L17.69621263974447,52.43835616438355L20.343372119552818,53.58904109589042L22.990531599361166,51.61643835616438L25.666780743782795,54.41095890410959L28.343029888204427,50.301369863013704L30.99018936801278,42.24657534246576L33.60825918320785,41.42465753424658L36.28450832762948,33.86301369863014L38.96075747205111,41.753424657534254L41.60791695185946,46.19178082191782L44.22598676705453,56.21917808219179L46.902235911476154,65.42465753424656L49.57848505589779,62.63013698630137L52.22564453570614,69.69863013698631L54.84371435090121,64.76712328767124L57.519963495322834,60L60.196212639744466,53.26027397260273L62.84337211955282,47.17808219178082L65.49053159936116,37.64383561643835L68.1667807437828,33.534246575342465L70.84302988820443,38.465753424657535L73.49018936801278,43.72602739726028L76.10825918320785,58.52054794520548L78.78450832762948,69.20547945205479L81.4607574720511,75.94520547945206L84.10791695185947,77.75342465753425L86.72598676705454,64.10958904109589L89.40223591147615,46.68493150684931L92.07848505589779,41.91780821917807L94.72564453570614,31.232876712328775L97.34371435090121,38.30136986301369L100.01996349532284,49.315068493150676L102.69621263974447,44.87671232876711L105.34337211955281,41.58904109589041L107.99053159936116,35.17808219178082L110.6667807437828,30.0821917808219L113.34302988820443,36.16438356164383L115.99018936801278,42.57534246575342L118.60825918320785,53.0958904109589L121.28450832762948,52.27397260273972L123.96075747205111,47.50684931506849L126.60791695185945,43.39726027397259L129.2259867670545,37.64383561643835L131.90223591147617,42.082191780821915L134.57848505589777,43.23287671232876L137.22564453570612,47.50684931506849L139.8437143509012,46.19178082191782L142.51996349532286,45.86301369863013L145.19621263974446,45.20547945205479L147.8433721195528,42.41095890410959L150.49053159936116,41.58904109589041L153.1667807437828,49.643835616438366L155.84302988820443,52.43835616438355L158.49018936801278,81.36986301369862L161.10825918320785,119.83561643835617L163.78450832762948,108L166.4607574720511,97.15068493150685L169.10791695185947,67.23287671232876L171.72598676705454,0.16438356164383094L174.40223591147617,7.726027397260282L177.0784850558978,23.013698630136986L179.72564453570612,36.49315068493152L182.34371435090122,48.82191780821918L185.01996349532283,68.21917808219177L187.6962126397445,57.86301369863014L190.3433721195528,63.45205479452055L192.99053159936116,57.698630136986296L195.6667807437828,44.054794520547944L198.34302988820443,67.06849315068493L200.99018936801278,68.05479452054794L203.60825918320785,65.26027397260275L206.28450832762948,60.16438356164384L208.9607574720511,54.73972602739725L211.60791695185947,48L214.22598676705454,44.38356164383562L216.90223591147614,50.13698630136986L219.5784850558978,46.849315068493155L222.22564453570615,40.767123287671225L224.84371435090122,47.17808219178082L227.51996349532283,55.89041095890411L230.19621263974446,53.91780821917807L232.84337211955284,60.65753424657534L235.49053159936116,63.28767123287671L238.1667807437828,59.5068493150685L240.84302988820443,59.835616438356155" fill="none" stroke="#af516c" stroke-linejoin="round" stroke-linecap="round" stroke-width="2"></path></g></g></svg>