<svg xmlns="http://www.w3.org/2000/svg" viewBox="0 0 304 270"><style>/* <![CDATA[ */.chart-title{font-size:20px;fill:#43423e}.chart-subtitle{font-size:15px;fill:#74736c}.chart-source{font-size:10px;fill-opacity:.4}.axis .domain{fill:none;stroke:#74736c}.tick line{fill:none;stroke:#000;stroke-opacity:.2}.tick text{fill-opacity:.6;font-size:12px}.y.axis .tick line{stroke-dasharray:1}.y.axis .domain{fill:none;stroke-opacity:0}.y.axis .highlight-line{fill:none;stroke:#74736c}/* ]]> */</style><text class="chart-title" y="22">Koruna vs euro</text><text class="chart-subtitle" y="42">Kč per €</text><text class="chart-source" y="265">来源:彭博. 2018年5月7日</text><g transform="translate(1,100)"><g class="x axis" transform="translate(0,120)" fill="none" font-size="10" font-family="sans-serif" text-anchor="middle"><path class="domain" stroke="#000" d="M0.5,0V0.5H255.5V0"></path><g class="tick" opacity="1" transform="translate(25.986035049288063,0)"><line stroke="#000" y2="6"></line><text fill="#000" y="9" dy="0.71em">2010</text></g><g class="tick" opacity="1" transform="translate(76.95810514786417,0)"><line stroke="#000" y2="6"></line><text fill="#000" y="9" dy="0.71em">2012</text></g><g class="tick" opacity="1" transform="translate(128,0)"><line stroke="#000" y2="6"></line><text fill="#000" y="9" dy="0.71em">2014</text></g><g class="tick" opacity="1" transform="translate(178.9720700985761,0)"><line stroke="#000" y2="6"></line><text fill="#000" y="9" dy="0.71em">2016</text></g><g class="tick" opacity="1" transform="translate(230.01396495071194,0)"><line stroke="#000" y2="6"></line><text fill="#000" y="9" dy="0.71em">2018</text></g></g><g class="y axis" transform="translate(255,0)" fill="none" font-size="10" font-family="sans-serif" text-anchor="start"><path class="domain" stroke="#000" d="M0,120.5H0.5V0.5H0"></path><g class="tick" opacity="1" transform="translate(0,103.35714285714286)"><line stroke="#000" x2="-255"></line><text fill="#000" x="3" dy="0.32em">24</text></g><g class="tick" opacity="1" transform="translate(0,69.07142857142858)"><line stroke="#000" x2="-255"></line><text fill="#000" x="3" dy="0.32em">26</text></g><g class="tick" opacity="1" transform="translate(0,34.78571428571428)"><line stroke="#000" x2="-255"></line><text fill="#000" x="3" dy="0.32em">28</text></g><g class="tick" opacity="1" transform="translate(0,0.5)"><line stroke="#000" x2="-255"></line><text fill="#000" x="3" dy="0.32em">30</text></g></g><g><path d="M0.023274917853231106,54.017142857142844L0.09309967141292443,53.39999999999996L0.3025739320920044,61.851428571428585L0.3723986856516977,69.54857142857139L0.442223439211391,63.84L0.5120481927710843,63.18857142857143L0.5818729463307777,58.28571428571426L0.7913472070098576,55.422857142857154L0.8611719605695509,59.14285714285713L0.9309967141292443,49.37142857142855L1.0008214676889375,48.342857142857156L1.0706462212486307,41.811428571428564L1.2801204819277108,41.00571428571428L1.3499452354874042,39.462857142857146L1.4197699890470976,42.37714285714287L1.4895947426067908,34.80000000000001L1.559419496166484,35.64L1.768893756845564,37.16571428571427L1.8387185104052575,40.16571428571429L1.9085432639649507,44.00571428571429L1.978368017524644,39.84000000000002L2.048192771084337,35.7085714285714L2.2576670317634173,29.657142857142873L2.3274917853231107,24.94285714285712L2.3973165388828037,28.54285714285713L2.467141292442497,36.205714285714265L2.5369660460021906,35.86285714285712L2.746440306681271,39.05142857142856L2.816265060240964,23.04000000000002L2.886089813800657,25.028571428571453L2.9559145673603506,22.714285714285694L3.0257393209200436,23.19428571428574L3.235213581599124,13.594285714285704L3.3050383351588173,7.405714285714254L3.3748630887185103,18.274285714285696L3.4446878422782037,18.63428571428571L3.514512595837897,19.93714285714286L3.7239868565169774,26.948571428571412L3.7938116100766703,28.5257142857143L3.8636363636363638,24.73714285714287L3.933461117196057,30.977142857142823L4.00328587075575,32.365714285714304L4.21276013143483,30.120000000000033L4.282584884994523,34.71428571428568L4.352409638554217,45L4.42223439211391,34.114285714285685L4.492059145673603,38.828571428571436L4.7015334063526835,42.68571428571427L4.771358159912377,52.937142857142874L4.84118291347207,51.11999999999999L4.911007667031763,62.005714285714305L4.980832420591457,61.45714285714288L5.190306681270537,57.75428571428571L5.26013143483023,58.628571428571455L5.329956188389923,55.148571428571415L5.399780941949617,53.62285714285714L5.46960569550931,57.42857142857145L5.6790799561883905,55.06285714285714L5.748904709748083,49.28571428571428L5.818729463307777,44.828571428571394L5.88855421686747,49.234285714285704L5.958378970427163,44.53714285714284L6.167853231106243,41.36571428571429L6.237677984665936,45.23999999999998L6.30750273822563,51.548571428571464L6.377327491785323,60.70285714285715L6.447152245345016,60.58285714285713L6.656626506024096,58.25142857142857L6.72645125958379,56.98285714285717L6.796276013143483,59.811428571428586L6.866100766703176,60.90857142857144L6.93592552026287,60.925714285714264L7.14539978094195,61.76571428571432L7.215224534501643,56.399999999999984L7.2850492880613364,55.04571428571427L7.35487404162103,55.611428571428576L7.424698795180723,55.08000000000003L7.634173055859803,49.83428571428571L7.703997809419496,53.74285714285716L7.7738225629791895,52.83428571428573L7.843647316538883,52.04571428571431L7.913472070098576,57.77142857142859L8.122946330777657,56.1257142857143L8.192771084337348,55.851428571428556L8.262595837897042,56.00571428571428L8.332420591456737,55.74857142857141L8.40224534501643,57.154285714285706L8.611719605695509,59.58857142857141L8.681544359255202,58.14857142857142L8.751369112814897,55.83428571428574L8.821193866374589,56.708571428571425L8.891018619934282,56.26285714285714L9.100492880613363,54.87428571428573L9.170317634173054,54.90857142857142L9.24014238773275,51.73714285714287L9.309967141292443,53.88000000000001L9.379791894852136,53.28L9.589266155531215,55.97142857142859L9.65909090909091,57.05142857142856L9.728915662650603,57.51428571428572L9.798740416210295,57.41142857142857L9.868565169769989,57.36L10.07803943044907,57.29142857142855L10.147864184008762,57.29142857142855L10.217688937568456,56.091428571428544L10.287513691128149,52.902857142857115L10.357338444687842,52.251428571428605L10.566812705366923,56.82857142857145L10.636637458926616,54.94285714285712L10.70646221248631,53.485714285714295L10.776286966046001,52.64571428571432L10.846111719605695,51.18857142857145L11.055585980284775,52.85142857142854L11.125410733844468,55.71428571428572L11.195235487404162,55.68000000000002L11.265060240963855,56.38285714285717L11.334884994523549,57.462857142857146L11.544359255202629,54.308571428571426L11.614184008762322,56.22857142857145L11.684008762322016,56.29714285714284L11.753833515881707,61.49142857142857L11.823658269441403,65.05714285714288L12.033132530120481,68.46857142857144L12.102957283680174,64.69714285714286L12.172782037239868,67.3028571428571L12.242606790799563,68.9485714285714L12.312431544359256,68.45142857142855L12.521905805038335,69.75428571428569L12.591730558598028,69.41142857142856L12.661555312157722,72.85714285714286L12.731380065717415,69.77142857142857L12.801204819277109,70.49142857142854L13.010679079956187,69.59999999999997L13.08050383351588,69.25714285714284L13.150328587075576,67.90285714285713L13.22015334063527,68.05714285714285L13.289978094194963,68.57142857142858L13.499452354874041,68.0914285714286L13.569277108433736,69.37714285714287L13.639101861993428,70.79999999999998L13.708926615553121,69.66857142857143L13.778751369112815,70.32L13.988225629791895,72.48000000000002L14.058050383351588,71.9314285714286L14.127875136911282,72.36000000000001L14.197699890470975,75.30857142857144L14.267524644030667,77.51999999999998L14.476998904709749,77.76000000000002L14.546823658269442,76.98857142857142L14.616648411829134,75.97714285714284L14.686473165388827,75.72000000000003L14.75629791894852,76.21714285714287L14.965772179627601,74.7257142857143L15.035596933187295,71.7257142857143L15.105421686746988,69.22285714285715L15.175246440306681,69.97714285714287L15.245071193866373,71.69142857142856L15.454545454545455,73.73142857142855L15.524370208105148,72.44571428571427L15.59419496166484,71.86285714285714L15.664019715224534,72.2057142857143L15.733844468784229,73.9542857142857L15.943318729463309,73.71428571428572L16.013143483023,75.37714285714284L16.082968236582694,74.26285714285714L16.152792990142387,77.36571428571432L16.22261774370208,77.45142857142858L16.43209200438116,78.22285714285712L16.501916757940855,79.83428571428573L16.571741511500548,77.88L16.64156626506024,77.41714285714284L16.711391018619935,79.02857142857141L16.920865279299015,77.69142857142856L16.990690032858705,73.04571428571427L17.060514786418402,73.28571428571425L17.130339539978092,75.99428571428572L17.20016429353779,77.2285714285714L17.40963855421687,77.77714285714285L17.47946330777656,77.27999999999997L17.549288061336256,77.43428571428569L17.619112814895946,77.38285714285712L17.68893756845564,77.7942857142857L17.898411829134723,77.4L17.968236582694413,78.89142857142858L18.038061336254106,82.74857142857147L18.107886089813803,82.37142857142857L18.177710843373493,83.33142857142857L18.387185104052573,83.43428571428572L18.457009857612267,83.53714285714287L18.52683461117196,82.5085714285714L18.596659364731654,82.02857142857144L18.666484118291347,82.76571428571427L18.875958378970427,81.6514285714286L18.94578313253012,82.76571428571427L19.015607886089814,81.34285714285716L19.085432639649508,78.11999999999998L19.1552573932092,77.91428571428574L19.36473165388828,76.86857142857147L19.434556407447975,74.43428571428569L19.504381161007668,73.25142857142856L19.57420591456736,71.3314285714286L19.64403066812705,70.32L19.853504928806135,71.65714285714284L19.92332968236583,69.5142857142857L19.99315443592552,70.44000000000003L20.062979189485215,71.86285714285714L20.132803943044905,71.28000000000003L20.342278203723986,72.87428571428575L20.412102957283683,71.9314285714286L20.481927710843372,70.61142857142858L20.551752464403066,69.08571428571432L20.62157721796276,70.18285714285716L20.83105147864184,67.45714285714283L20.900876232201533,65.51999999999998L20.970700985761226,58.37142857142859L21.04052573932092,64.01142857142861L21.110350492880617,59.657142857142865L21.319824753559693,61.95428571428573L21.389649507119387,64.50857142857146L21.45947426067908,67.38857142857145L21.529299014238774,71.16L21.599123767798467,73.14857142857142L21.808598028477544,75.78857142857143L21.87842278203724,77.16000000000003L21.94824753559693,77.19428571428571L22.018072289156628,76.47428571428568L22.08789704271632,77.41714285714284L22.297371303395398,77.88L22.367196056955095,76.93714285714285L22.437020810514788,77.81142857142859L22.506845564074478,74.4L22.576670317634175,69.80571428571426L22.78614457831325,70.64571428571426L22.855969331872945,67.91999999999999L22.925794085432642,68.46857142857144L22.995618838992332,62.314285714285745L23.065443592552025,66.6514285714286L23.27491785323111,66.01714285714283L23.3447426067908,69.82285714285715L23.414567360350492,70.52571428571429L23.484392113910186,71.41714285714286L23.55421686746988,74.48571428571427L23.76369112814896,75.12000000000003L23.833515881708653,73.14857142857142L23.903340635268346,72.01714285714286L23.97316538882804,71.86285714285714L24.042990142387733,71.39999999999998L24.252464403066814,70.44000000000003L24.322289156626507,64.35428571428574L24.3921139101862,64.32L24.46193866374589,64.80000000000001L24.531763417305587,63.257142857142874L24.741237677984667,65.04000000000002L24.811062431544357,62.794285714285714L24.880887185104054,61.57714285714283L24.950711938663744,61.76571428571432L25.020536692223438,61.542857142857144L25.23001095290252,61.30285714285716L25.29983570646221,61.45714285714288L25.369660460021905,61.4057142857143L25.439485213581598,61.04571428571429L25.50930996714129,62.77714285714284L25.71878422782037,65.57142857142856L25.788608981380065,63.92571428571427L25.85843373493976,64.40571428571431L25.928258488499456,63.34285714285715L25.998083242059145,63.73714285714286L26.207557502738226,65.51999999999998L26.277382256297916,64.97142857142856L26.347207009857613,66.34285714285716L26.417031763417306,68.53714285714287L26.486856516977,69.24000000000004L26.69633077765608,70.49142857142854L26.766155531215773,71.86285714285714L26.835980284775466,68.00571428571428L26.90580503833516,66.37714285714284L26.97562979189485,67.20000000000002L27.185104052573934,68.4857142857143L27.254928806133627,67.85142857142856L27.324753559693317,65.31428571428569L27.394578313253014,64.06285714285713L27.464403066812704,64.52571428571429L27.673877327491784,69.85714285714283L27.74370208105148,68.89714285714282L27.81352683461117,67.74857142857147L27.883351588170864,63.77142857142855L27.953176341730558,65.34857142857146L28.162650602409638,65.21142857142854L28.23247535596933,67.08000000000001L28.302300109529025,66.5142857142857L28.372124863088718,69.94285714285712L28.44194961664841,68.52000000000001L28.651423877327492,66.54857142857145L28.721248630887185,68.77714285714288L28.79107338444688,71.5371428571429L28.860898138006572,72.7714285714286L28.930722891566266,72.9942857142857L29.140197152245346,72.83999999999997L29.21002190580504,72.3942857142857L29.27984665936473,70.25142857142856L29.349671412924426,69.41142857142856L29.41949616648412,69.80571428571426L29.628970427163196,70.93714285714287L29.698795180722893,72.63428571428568L29.768619934282583,72.65142857142857L29.838444687842276,72.15428571428572L29.908269441401973,74.62285714285716L30.11774370208105,75.10285714285715L30.187568455640744,75.30857142857144L30.25739320920044,76.21714285714287L30.32721796276013,76.76571428571432L30.397042716319827,76.50857142857146L30.606516976998904,77.31428571428575L30.676341730558597,77.89714285714285L30.746166484118294,79.30285714285716L30.815991237677984,78.99428571428572L30.885815991237678,78.71999999999997L31.095290251916758,78.39428571428573L31.16511500547645,77.89714285714285L31.234939759036145,78.85714285714289L31.30476451259584,79.40571428571431L31.37458926615553,78.01714285714283L31.584063526834612,78.71999999999997L31.653888280394305,77.94857142857143L31.723713033954,78.82285714285712L31.79353778751369,79.54285714285714L31.863362541073386,79.21714285714285L32.07283680175246,79.74857142857144L32.14266155531216,81.84L32.21248630887185,82.8857142857143L32.282311062431546,82.35428571428568L32.35213581599123,82.32L32.56161007667031,82.74857142857147L32.63143483023001,83.60571428571427L32.70125958378971,84.70285714285711L32.77108433734939,83.4857142857143L32.84090909090909,82.9542857142857L33.05038335158817,79.8857142857143L33.12020810514787,80.96571428571426L33.19003285870756,81.0514285714286L33.25985761226725,79.06285714285713L33.32968236582695,79.0457142857143L33.53915662650602,78.2057142857143L33.60898138006572,75.58285714285714L33.67880613362541,76.49142857142857L33.7486308871851,77.91428571428574L33.8184556407448,75.05142857142857L34.027929901423875,76.26857142857145L34.097754654983575,70.35428571428571L34.16757940854326,66.95999999999998L34.237404162102955,64.93714285714287L34.307228915662655,74.26285714285714L34.51670317634173,74.91428571428574L34.58652792990143,76.57714285714283L34.656352683461115,78.68571428571428L34.72617743702081,78.53142857142856L34.79600219058051,76.98857142857142L35.00547645125959,76.59428571428572L35.075301204819276,76.06285714285715L35.14512595837897,75.72000000000003L35.21495071193866,70.7657142857143L35.284775465498356,75.58285714285714L35.49424972617744,76.8342857142857L35.56407447973713,75.2057142857143L35.63389923329682,75.58285714285714L35.70372398685652,76.09714285714287L35.77354874041621,70.62857142857143L35.98302300109529,76.76571428571432L36.052847754654984,73.7657142857143L36.12267250821468,74.17714285714283L36.19249726177437,70.33714285714288L36.262322015334064,70.81714285714287L36.471796276013144,68.21142857142857L36.54162102957284,68.67428571428573L36.61144578313253,69.37714285714287L36.68127053669222,73.04571428571427L36.75109529025192,72.80571428571429L36.960569550931,75.29142857142855L37.03039430449069,74.98285714285711L37.100219058050385,73.74857142857141L37.17004381161008,73.02857142857147L37.23986856516977,72.9771428571429L37.44934282584885,72.63428571428568L37.519167579408546,72.13714285714283L37.58899233296823,73.30285714285714L37.65881708652793,71.96571428571428L37.728641840087626,72.92571428571432L37.938116100766706,72.83999999999997L38.0079408543264,72.51428571428573L38.077765607886086,73.62857142857146L38.147590361445786,73.35428571428571L38.21741511500548,73.32000000000002L38.42688937568456,76.42285714285711L38.496714129244246,77.38285714285712L38.56653888280394,77.17714285714283L38.63636363636364,78.47999999999999L38.706188389923334,80.28L38.915662650602414,80.0057142857143L38.9854874041621,78.30857142857144L39.055312157721794,77.36571428571432L39.125136911281494,78.30857142857144L39.19496166484118,78.54857142857145L39.40443592552026,80.12571428571428L39.474260679079954,79.80000000000001L39.54408543263965,80.62285714285713L39.61391018619935,82.62857142857143L39.683734939759034,83.50285714285712L39.893209200438115,83.22857142857143L39.96303395399781,85.04571428571427L40.0328587075575,90.75428571428573L40.102683461117195,89.24571428571429L40.17250821467689,89.45142857142858L40.38198247535597,91.31999999999996L40.45180722891566,89.24571428571429L40.521631982475355,92.16000000000003L40.59145673603505,90.53142857142855L40.66128148959474,87.9942857142857L40.87075575027382,89.96571428571431L40.940580503833516,91.44L41.0104052573932,89.16000000000001L41.0802300109529,89.17714285714283L41.150054764512596,87.72000000000003L41.35952902519168,88.1657142857143L41.42935377875137,89.46857142857145L41.49917853231106,89.53714285714284L41.56900328587076,88.30285714285714L41.63882803943045,88.08000000000003L41.84830230010953,89.27999999999997L41.918127053669224,87.41142857142859L41.98795180722892,87.37714285714287L42.05777656078861,88.19999999999999L42.127601314348304,90.10285714285715L42.337075575027384,88.61142857142858L42.40690032858707,89.74285714285713L42.47672508214677,90.75428571428573L42.546549835706465,90.73714285714284L42.61637458926615,91.18285714285713L42.82584884994524,90.46285714285716L42.895673603504925,89.89714285714285L42.965498357064625,90.90857142857145L43.03532311062432,90.15428571428572L43.105147864184005,90.96000000000002L43.314622124863085,91.85142857142858L43.38444687842278,93.51428571428569L43.45427163198248,92.65714285714287L43.52409638554217,90.49714285714286L43.59392113910186,91.28571428571428L43.80339539978094,91.97142857142855L43.87322015334063,91.61142857142859L43.94304490690033,92.77714285714283L44.01286966046002,92.77714285714283L44.08269441401971,92.0057142857143L44.29216867469879,92.51999999999997L44.36199342825849,92.70857142857145L44.43181818181819,92.72571428571426L44.50164293537787,92.57142857142854L44.57146768893757,95.4514285714286L44.78094194961665,94.14857142857144L44.85076670317634,94.54285714285716L44.920591456736034,94.8514285714286L44.99041621029573,93.01714285714283L45.06024096385542,94.54285714285716L45.2697152245345,93.8057142857143L45.339539978094194,94.30285714285716L45.40936473165389,94.59428571428573L45.47918948521358,94.78285714285714L45.549014238773275,94.21714285714283L45.758488499452355,94.11428571428569L45.82831325301205,93.68571428571428L45.89813800657174,94.0457142857143L45.967962760131435,91.61142857142859L46.03778751369113,93.11999999999998L46.24726177437021,93.99428571428572L46.3170865279299,91.64571428571429L46.386911281489596,91.14857142857143L46.45673603504929,92.27999999999999L46.526560788608975,92.2114285714286L46.73603504928806,94.35428571428574L46.805859802847756,94.18285714285715L46.87568455640745,94.88571428571429L46.94550930996714,93.77142857142856L47.01533406352683,93.22285714285712L47.22480832420591,93.42857142857142L47.29463307776561,92.98285714285713L47.3644578313253,92.12571428571427L47.43428258488499,92.0742857142857L47.50410733844468,92.16000000000003L47.71358159912376,92.50285714285715L47.783406352683464,92.22857142857141L47.85323110624316,92.03999999999999L47.923055859802844,91.78285714285713L47.992880613362544,91.06285714285717L48.20235487404162,90.53142857142855L48.27217962760132,90.75428571428573L48.34200438116101,90.39428571428572L48.4118291347207,90.58285714285712L48.4816538882804,90.10285714285715L48.69112814895947,86.82857142857145L48.76095290251917,86.50285714285712L48.83077765607886,85.45714285714286L48.90060240963855,86.94857142857143L48.97042716319825,85.49142857142854L49.179901423877325,86.45142857142855L49.249726177437026,84.53142857142859L49.31955093099671,85.14857142857142L49.389375684556406,85.06285714285713L49.459200438116106,82.37142857142857L49.66867469879518,82.91999999999999L49.73849945235487,83.36571428571429L49.808324205914566,83.16L49.87814895947426,82.8857142857143L49.94797371303396,82.23428571428573L50.15744797371303,81.25714285714284L50.22727272727273,81.29142857142858L50.29709748083242,80.72571428571428L50.36692223439211,80.91428571428568L50.43674698795181,80.74285714285716L50.64622124863089,79.40571428571431L50.71604600219058,79.95428571428573L50.785870755750274,80.43428571428572L50.85569550930997,83.28L50.92552026286966,85.42285714285714L51.13499452354874,84.82285714285715L51.204819277108435,87.6L51.27464403066813,88.74857142857142L51.344468784227814,92.16000000000003L51.414293537787515,93.13714285714285L51.623767798466595,92.26285714285717L51.69359255202629,94.86857142857141L51.76341730558598,97.18285714285715L51.83324205914567,95.84571428571431L51.90306681270537,96.46285714285712L52.11254107338445,97.66285714285713L52.18236582694414,97.37142857142857L52.25219058050383,98.0914285714286L52.32201533406352,97.85142857142854L52.39184008762322,97.61142857142856L52.6013143483023,99.34285714285717L52.671139101861996,99.77142857142857L52.74096385542168,99.58285714285716L52.81078860898138,99.80571428571427L52.88061336254108,98.3142857142857L53.09008762322016,99.58285714285716L53.15991237677985,102.41142857142857L53.22973713033954,100.85142857142856L53.29956188389924,103.02857142857145L53.36938663745893,102.63428571428568L53.57886089813801,101.77714285714288L53.6486856516977,102.89142857142855L53.71851040525739,99.17142857142858L53.78833515881709,98.57142857142857L53.85815991237678,98.89714285714282L54.067634173055865,97.40571428571427L54.13745892661555,96.63428571428572L54.207283680175244,97.06285714285713L54.277108433734945,97.49142857142859L54.34693318729463,95.38285714285715L54.55640744797371,95.05714285714289L54.626232201533405,93.73714285714286L54.6960569550931,93.49714285714286L54.7658817086528,93.97714285714285L54.835706462212485,94.95428571428575L55.045180722891565,96.71999999999998L55.11500547645126,96.18857142857144L55.18483023001095,98.00571428571426L55.254654983570646,97.54285714285716L55.32447973713034,97.90285714285712L55.53395399780942,99.20571428571427L55.60377875136911,98.14285714285717L55.673603504928806,97.97142857142858L55.7434282584885,96.6514285714286L55.81325301204819,97.66285714285713L56.02272727272727,97.28571428571429L56.09255202628697,96.3085714285714L56.16237677984665,93.60000000000001L56.232201533406354,95.86285714285712L56.30202628696605,95.50285714285717L56.51150054764513,95.74285714285716L56.58132530120482,95.82857142857142L56.65115005476451,95.96571428571427L56.72097480832421,93.54857142857144L56.7907995618839,94.23428571428572L57.00027382256298,93.63428571428571L57.07009857612267,93.71999999999998L57.13992332968237,93.61714285714284L57.20974808324206,93.68571428571428L57.279572836801755,94.73142857142857L57.489047097480835,95.31428571428569L57.55887185104052,96.53142857142858L57.62869660460022,95.4857142857143L57.698521358159915,95.22857142857143L57.7683461117196,95.62285714285713L57.97782037239869,96.08571428571429L58.047645125958375,95.75999999999998L58.117469879518076,96.6857142857143L58.18729463307777,99.46285714285713L58.257119386637456,98.81142857142856L58.466593647316536,100.19999999999997L58.53641840087623,99.97714285714287L58.60624315443593,98.89714285714282L58.676067907995616,101.14285714285712L58.74589266155531,100.79999999999998L58.95536692223439,101.07428571428572L59.02519167579408,101.89714285714284L59.095016429353784,101.03999999999998L59.16484118291347,100.97142857142858L59.234665936473164,99.7542857142857L59.444140197152244,100.62857142857145L59.51396495071194,99.80571428571427L59.58378970427164,99.99428571428568L59.653614457831324,99.58285714285716L59.72343921139102,99.97714285714287L59.9329134720701,98.88000000000001L60.00273822562979,98.67428571428572L60.072562979189485,98.21142857142856L60.14238773274918,97.44000000000001L60.21221248630887,95.82857142857142L60.42168674698795,95.62285714285713L60.491511500547645,95.31428571428569L60.56133625410734,94.49142857142859L60.63116100766703,95.62285714285713L60.700985761226725,94.78285714285714L60.910460021905806,93.13714285714285L60.98028477546549,93.25714285714288L61.05010952902519,91.98857142857142L61.119934282584886,92.4L61.18975903614457,93.8057142857143L61.39923329682366,94.31999999999998L61.46905805038335,93.30857142857145L61.538882803943046,93.60000000000001L61.60870755750274,94.98857142857143L61.678532311062426,97.20000000000003L61.888006571741506,97.8857142857143L61.95783132530121,99.17142857142858L62.0276560788609,99.44571428571426L62.097480832420594,100.76571428571428L62.16730558598028,99.46285714285713L62.37677984665936,100.38857142857145L62.44660460021906,99.96L62.516429353778754,98.50285714285712L62.58625410733844,99.59999999999998L62.656078860898134,101.10857142857142L62.865553121577214,100.78285714285717L62.935377875136915,98.84571428571425L63.00520262869661,97.49142857142859L63.075027382256295,97.02857142857142L63.14485213581599,95.77714285714285L63.35432639649507,96.01714285714284L63.42415115005477,96.0514285714286L63.493975903614455,97.79999999999997L63.56380065717415,96.89142857142859L63.63362541073385,98.29714285714289L63.843099671412915,98.10857142857141L63.912924424972616,98.36571428571428L63.98274917853231,98.48571428571431L64.052573932092,99.15428571428569L64.1223986856517,99.94285714285711L64.33187294633078,98.64000000000003L64.40169769989046,99.05142857142854L64.47152245345016,96.32571428571428L64.54134720700986,94.80000000000003L64.61117196056955,95.02285714285713L64.82064622124862,94.38857142857144L64.89047097480832,94.08L64.96029572836802,94.50857142857146L65.03012048192771,94.80000000000003L65.09994523548741,96.95999999999998L65.30941949616648,95.77714285714285L65.37924424972617,97.26857142857142L65.44906900328587,98.5542857142857L65.51889375684557,99.63428571428574L65.58871851040526,99.85714285714285L65.79819277108433,100.01142857142857L65.86801752464403,97.78285714285715L65.93784227820373,98.50285714285712L66.00766703176342,97.85142857142854L66.07749178532312,98.88000000000001L66.28696604600219,100.19999999999997L66.35679079956188,102.13714285714283L66.42661555312158,99.17142857142858L66.49644030668128,98.38285714285716L66.56626506024097,99.34285714285717L66.77573932092004,97.16571428571427L66.84556407447974,95.82857142857142L66.91538882803944,95.6742857142857L66.98521358159913,95.1085714285714L67.05503833515881,94.37142857142855L67.2645125958379,94.31999999999998L67.33433734939759,96.34285714285716L67.40416210295729,97.32L67.47398685651699,98.62285714285714L67.54381161007666,101.88000000000002L67.75328587075575,101.62285714285716L67.82311062431545,101.84571428571427L67.89293537787515,100.71428571428571L67.96276013143482,100.11428571428571L68.03258488499452,95.72571428571428L68.24205914567361,94.11428571428569L68.3118838992333,94.67999999999999L68.381708652793,95.57142857142856L68.45153340635268,97.52571428571429L68.52135815991237,93.77142857142856L68.73083242059145,92.4342857142857L68.80065717415116,93.29142857142857L68.87048192771086,93.78857142857143L68.94030668127053,94.08L69.01013143483023,95.93142857142857L69.21960569550932,92.0742857142857L69.28943044906902,89.19428571428571L69.35925520262869,86.94857142857143L69.42907995618839,88.47428571428574L69.49890470974807,91.69714285714286L69.70837897042716,92.14285714285714L69.77820372398686,94.98857142857143L69.84802847754655,92.69142857142857L69.91785323110624,92.89714285714287L69.98767798466594,91.13142857142856L70.19715224534502,88.19999999999999L70.26697699890471,87.94285714285712L70.3368017524644,90.13714285714285L70.4066265060241,90.66857142857145L70.47645125958378,87.56571428571431L70.68592552026287,91.2342857142857L70.75575027382256,88.66285714285715L70.82557502738226,91.59428571428572L70.89539978094194,90.13714285714285L70.96522453450164,89.62285714285717L71.17469879518072,88.54285714285713L71.24452354874042,86.82857142857145L71.3143483023001,87.7885714285714L71.3841730558598,85.52571428571429L71.4539978094195,86.22857142857146L71.66347207009856,88.09714285714284L71.73329682365826,87.01714285714286L71.80312157721796,85.14857142857142L71.87294633077765,91.13142857142856L71.94277108433735,91.13142857142856L72.15224534501642,87.7714285714286L72.22207009857613,81.9085714285714L72.29189485213581,82.6971428571429L72.36171960569551,86.48571428571432L72.43154435925521,86.12571428571431L72.64101861993427,83.70857142857142L72.71084337349397,82.08000000000001L72.78066812705367,77.41714285714284L72.85049288061336,73.08000000000004L72.92031763417306,74.6057142857143L73.12979189485213,71.58857142857141L73.19961664841183,72.63428571428568L73.26944140197152,73.35428571428571L73.33926615553122,76.54285714285714L73.40909090909092,77.65714285714287L73.61856516977,75.36000000000001L73.68838992332968,77.45142857142858L73.75821467688938,73.79999999999998L73.82803943044907,72.83999999999997L73.89786418400877,67.4914285714286L74.10733844468784,73.13142857142853L74.17716319824754,75.78857142857143L74.24698795180723,79.85142857142858L74.31681270536693,81.87428571428572L74.38663745892661,82.76571428571427L74.5961117196057,82.54285714285717L74.66593647316539,81.75428571428569L74.73576122672509,81.68571428571428L74.80558598028477,77.07428571428568L74.87541073384446,78.42857142857142L75.08488499452355,73.57714285714289L75.15470974808325,74.27999999999997L75.22453450164294,74.16L75.29435925520262,78.08571428571429L75.36418400876232,79.62857142857143L75.57365826944141,78.73714285714286L75.6434830230011,76.18285714285713L75.7133077765608,75.75428571428571L75.78313253012048,73.73142857142855L75.85295728368017,72.66857142857145L76.06243154435926,72.05142857142857L76.13225629791896,72.10285714285715L76.20208105147864,72.06857142857143L76.27190580503833,72.72000000000003L76.34173055859803,75.68571428571428L76.55120481927712,77.17714285714283L76.6210295728368,73.52571428571432L76.69085432639649,70.73142857142858L76.76067907995619,71.14285714285711L76.83050383351588,70.85142857142856L77.03997809419496,72.83999999999997L77.10980284775466,72.15428571428572L77.17962760131434,71.14285714285711L77.24945235487404,76.26857142857145L77.31927710843374,75.29142857142855L77.52875136911283,75.12000000000003L77.5985761226725,75.22285714285718L77.6684008762322,77.03999999999999L77.7382256297919,80.62285714285713L77.80805038335158,78.94285714285715L78.01752464403067,79.93714285714287L78.08734939759036,80.17714285714285L78.15717415115004,81.63428571428571L78.22699890470975,82.76571428571427L78.29682365826945,83.64000000000001L78.50629791894852,81.47999999999999L78.5761226725082,80.17714285714285L78.6459474260679,82.6971428571429L78.7157721796276,84.27428571428572L78.78559693318729,86.84571428571428L78.99507119386637,86.43428571428575L79.06489594742607,88.74857142857142L79.13472070098575,89.00571428571429L79.20454545454545,84.46285714285713L79.27437020810515,82.23428571428573L79.48384446878423,84.54857142857139L79.55366922234391,84.56571428571428L79.62349397590361,81.84L79.69331872946331,84.27428571428572L79.763143483023,85.44000000000003L79.97261774370207,87.36000000000001L80.04244249726177,87.61714285714288L80.11226725082147,82.85142857142856L80.18209200438116,85.25142857142856L80.25191675794086,85.59428571428569L80.46139101861993,86.22857142857146L80.53121577217962,87.15428571428572L80.60104052573932,87.44571428571427L80.67086527929902,89.98285714285711L80.74069003285871,90.05142857142857L80.95016429353778,89.31428571428573L81.01998904709748,87.51428571428573L81.08981380065718,88.68000000000004L81.15963855421687,89.62285714285717L81.22946330777657,92.14285714285714L81.43893756845564,92.96571428571431L81.50876232201533,93.15428571428573L81.57858707557503,91.73142857142855L81.64841182913473,93.82285714285713L81.7182365826944,94.38857142857144L81.92771084337349,94.7142857142857L81.99753559693319,95.43428571428572L82.06736035049289,91.73142857142855L82.13718510405258,90.25714285714287L82.20700985761226,92.58857142857143L82.41648411829135,92.2114285714286L82.48630887185104,92.94857142857144L82.55613362541074,91.35428571428572L82.62595837897044,90.2057142857143L82.69578313253011,89.10857142857144L82.9052573932092,90.17142857142859L82.9750821467689,92.0057142857143L83.0449069003286,91.6285714285714L83.11473165388827,91.6285714285714L83.18455640744797,90.47999999999998L83.39403066812706,91.25142857142858L83.46385542168674,88.30285714285714L83.53368017524645,88.19999999999999L83.60350492880613,89.27999999999997L83.67332968236582,89.87999999999997L83.8828039430449,89.6057142857143L83.9526286966046,90.05142857142857L84.02245345016429,89.6057142857143L84.09227820372398,88.71428571428572L84.16210295728368,86.75999999999999L84.37157721796277,85.42285714285714L84.44140197152247,87.23999999999998L84.51122672508214,90.29142857142857L84.58105147864184,88.61142857142858L84.65087623220153,88.54285714285713L84.86035049288061,86.84571428571428L84.9301752464403,88.8L85,86.63999999999999L85.06982475355969,84.58285714285716L85.13964950711939,82.54285714285717L85.34912376779847,84.37714285714287L85.41894852135816,81.70285714285711L85.48877327491785,80.51999999999998L85.55859802847755,81.68571428571428L85.62842278203723,81.00000000000003L85.83789704271632,78.42857142857142L85.90772179627601,74.19428571428571L85.97754654983571,77.53714285714284L86.0473713033954,77.24571428571429L86.1171960569551,81.17142857142855L86.32667031763417,83.91428571428571L86.39649507119387,80.82857142857142L86.46631982475355,77.09142857142857L86.53614457831326,78.32571428571427L86.60596933187296,79.66285714285712L86.81544359255201,79.07999999999998L86.88526834611172,77.63999999999999L86.95509309967142,73.06285714285715L87.0249178532311,73.33714285714282L87.0947426067908,72.22285714285715L87.30421686746988,73.33714285714282L87.37404162102958,74.89714285714285L87.44386637458926,78.68571428571428L87.51369112814896,79.81714285714284L87.58351588170866,78.68571428571428L87.79299014238772,75.36000000000001L87.86281489594742,74.26285714285714L87.93263964950712,76.78285714285713L88.00246440306681,77.74285714285713L88.07228915662651,78.41142857142859L88.28176341730558,75.82285714285717L88.35158817086528,78.6685714285714L88.42141292442497,76.02857142857141L88.49123767798467,71.70857142857142L88.56106243154437,72.41142857142859L88.77053669222344,70.71428571428572L88.84036144578313,70.25142857142856L88.91018619934283,71.16L88.98001095290252,72.61714285714288L89.04983570646222,76.74857142857144L89.25930996714129,76.40571428571431L89.32913472070099,77.12571428571425L89.39895947426068,76.67999999999998L89.46878422782038,75.2057142857143L89.53860898138007,73.57714285714289L89.74808324205915,78.03428571428572L89.81790799561884,79.09714285714287L89.88773274917854,79.59428571428572L89.95755750273823,79.02857142857141L90.02738225629791,78.34285714285716L90.236856516977,79.73142857142858L90.3066812705367,81.53142857142856L90.37650602409639,81.00000000000003L90.44633077765607,78.77142857142854L90.51615553121577,75.72000000000003L90.72562979189486,76.07999999999998L90.79545454545455,76.26857142857145L90.86527929901425,77.6057142857143L90.93510405257393,79.76571428571427L91.00492880613362,80.53714285714287L91.21440306681271,82.21714285714285L91.28422782037241,80.1085714285714L91.35405257393208,80.12571428571428L91.42387732749178,80.33142857142857L91.49370208105148,81.4457142857143L91.70317634173057,82.91999999999999L91.77300109529025,82.98857142857145L91.84282584884994,83.45142857142855L91.91265060240964,84.17142857142858L91.98247535596933,84.13714285714289L92.19194961664842,83.64000000000001L92.2617743702081,85.08000000000001L92.33159912376779,87.06857142857143L92.40142387732749,88.81714285714287L92.47124863088719,86.82857142857145L92.68072289156628,88.1657142857143L92.75054764512595,88.73142857142855L92.82037239868565,86.26285714285714L92.89019715224535,87.17142857142858L92.96002190580504,87.73714285714283L93.16949616648412,88.68000000000004L93.23932092004381,90.06857142857145L93.3091456736035,89.5714285714286L93.3789704271632,88.01142857142858L93.4487951807229,88.21714285714287L93.65826944140197,88.11428571428573L93.72809419496166,87.61714285714288L93.79791894852136,89.10857142857144L93.86774370208106,92.77714285714283L93.93756845564074,93.18857142857142L94.14704271631982,92.86285714285717L94.21686746987952,97.26857142857142L94.2866922234392,94.91999999999999L94.3565169769989,95.69142857142859L94.4263417305586,96.6857142857143L94.63581599123768,93.60000000000001L94.70564074479736,88.7657142857143L94.77546549835706,87.63428571428568L94.84529025191677,87.01714285714286L94.91511500547645,88.40571428571428L95.12458926615552,86.50285714285712L95.19441401971523,86.43428571428575L95.26423877327491,86.3314285714286L95.33406352683461,84.03428571428574L95.40388828039431,83.41714285714286L95.61336254107339,84.17142857142858L95.68318729463307,85.19999999999999L95.75301204819277,84.97714285714287L95.82283680175247,86.75999999999999L95.89266155531216,87.70285714285714L96.10213581599123,86.82857142857145L96.17196056955093,86.16L96.24178532311063,87L96.31161007667032,87.17142857142858L96.38143483023002,85.62857142857143L96.5909090909091,87.17142857142858L96.66073384446878,89.14285714285714L96.73055859802848,89.84571428571428L96.80038335158818,89.3657142857143L96.87020810514785,88.11428571428573L97.07968236582694,87.7885714285714L97.14950711938664,87.17142857142858L97.21933187294634,85.61142857142858L97.28915662650603,86.45142857142855L97.35898138006571,86.81142857142856L97.5684556407448,85.14857142857142L97.63828039430449,85.81714285714287L97.70810514786419,84.17142857142858L97.77792990142387,82.35428571428568L97.84775465498356,81.34285714285716L98.05722891566265,82.42285714285714L98.12705366922235,81.25714285714284L98.19687842278205,78.89142857142858L98.26670317634172,78.41142857142859L98.33652792990142,78.70285714285717L98.54600219058051,79.18285714285713L98.6158269441402,77.51999999999998L98.68565169769988,78.0685714285714L98.75547645125958,76.2342857142857L98.82530120481927,76.2342857142857L99.03477546549836,79.81714285714284L99.10460021905806,79.78285714285715L99.17442497261774,77.6057142857143L99.24424972617743,78L99.31407447973713,79.8857142857143L99.52354874041622,80.77714285714285L99.5933734939759,80.15999999999997L99.66319824753559,81.80571428571426L99.73302300109529,82.32L99.80284775465498,81.42857142857142L100.01232201533406,81.0685714285714L100.08214676889375,81.39428571428573L100.15197152245345,82.16571428571427L100.22179627601314,82.61142857142855L100.29162102957284,82.44000000000003L100.50109529025193,81.10285714285718L100.57092004381161,81.41142857142856L100.6407447973713,81.25714285714284L100.710569550931,81.34285714285716L100.78039430449068,81.80571428571426L100.98986856516976,81.89142857142858L101.05969331872946,82.35428571428568L101.12951807228916,82.74857142857147L101.19934282584884,82.45714285714283L101.26916757940855,83.22857142857143L101.47864184008762,83.39999999999998L101.54846659364732,83.65714285714284L101.618291347207,84.12L101.6881161007667,84.25714285714284L101.75794085432639,83.77714285714288L101.96741511500547,84.06857142857143L102.03723986856517,84.13714285714289L102.10706462212487,82.21714285714285L102.17688937568455,81.24000000000001L102.24671412924425,78.99428571428572L102.45618838992333,76.25142857142859L102.52601314348303,76.59428571428572L102.59583789704271,75.30857142857144L102.66566265060241,74.96571428571431L102.73548740416211,74.69142857142856L102.94496166484117,75.89142857142858L103.01478641840087,75.41142857142859L103.08461117196057,76.35428571428574L103.15443592552026,75.99428571428572L103.22426067907996,75.12000000000003L103.43373493975903,75.54857142857142L103.50355969331873,75.10285714285715L103.57338444687842,75.32571428571427L103.64320920043812,75.85714285714286L103.71303395399782,76.14857142857144L103.92250821467688,73.98857142857142L103.99233296823658,74.74285714285713L104.06215772179628,75.08571428571426L104.13198247535597,74.19428571428571L104.20180722891565,73.9542857142857L104.41128148959474,73.90285714285713L104.48110624315444,74.76000000000002L104.55093099671413,79.54285714285714L104.62075575027383,81.49714285714288L104.69058050383352,81.70285714285711L104.9000547645126,81.37714285714284L104.96987951807229,80.05714285714288L105.03970427163199,79.45714285714288L105.10952902519166,79.61142857142855L105.17935377875136,78.46285714285716L105.38882803943045,79.25142857142859L105.45865279299015,79.61142857142855L105.52847754654984,79.45714285714288L105.59830230010952,77.58857142857141L105.66812705366922,76.54285714285714L105.87760131434831,77.36571428571432L105.947426067908,75.7714285714286L106.0172508214677,74.96571428571431L106.08707557502737,74.36571428571429L106.15690032858707,74.36571428571429L106.36637458926616,74.00571428571428L106.43619934282586,76.13142857142856L106.50602409638553,76.80000000000001L106.57584884994523,78.0685714285714L106.64567360350493,78.46285714285716L106.85514786418402,75.99428571428572L106.9249726177437,75.06857142857146L106.99479737130339,74.91428571428574L107.06462212486309,76.54285714285714L107.13444687842278,75.66857142857145L107.34392113910187,75.32571428571427L107.41374589266155,75.30857142857144L107.48357064622124,73.14857142857142L107.55339539978094,72.12L107.62322015334064,71.9314285714286L107.83269441401973,71.9314285714286L107.9025191675794,72.9771428571429L107.9723439211391,72.49714285714285L108.0421686746988,72.48000000000002L108.11199342825849,73.06285714285715L108.32146768893756,72.37714285714287L108.39129244249726,70.90285714285713L108.46111719605695,71.26285714285714L108.53094194961665,72.53142857142859L108.60076670317635,72.22285714285715L108.81024096385542,73.32000000000002L108.8800657174151,73.45714285714286L108.94989047097481,70.01142857142855L109.01971522453451,70.57714285714286L109.0895399780942,70.04571428571427L109.29901423877327,70.66285714285715L109.36883899233297,71.58857142857141L109.43866374589265,71.21142857142857L109.50848849945235,71.39999999999998L109.57831325301206,71.22857142857146L109.78778751369113,70.19999999999999L109.85761226725081,69.75428571428569L109.92743702081052,70.09714285714284L109.99726177437022,72.63428571428568L110.0670865279299,73.33714285714282L110.27656078860898,73.97142857142859L110.34638554216868,71.9314285714286L110.41621029572836,73.33714285714282L110.48603504928806,75.2057142857143L110.55585980284776,74.19428571428571L110.76533406352684,74.14285714285714L110.83515881708652,71.28000000000003L110.90498357064622,70.81714285714287L110.97480832420592,72.54857142857142L111.04463307776561,72.08571428571426L111.25410733844468,70.52571428571429L111.32393209200438,70.59428571428569L111.39375684556408,68.17714285714285L111.46358159912377,68.58857142857144L111.53340635268346,68.10857142857142L111.74288061336254,65.81142857142854L111.81270536692223,68.07428571428571L111.88253012048193,66.30857142857141L111.95235487404163,65.98285714285714L112.0221796276013,70.08000000000001L112.23165388828039,69.80571428571426L112.30147864184009,69.89142857142855L112.37130339539979,70.52571428571429L112.44112814895948,73.26857142857145L112.51095290251916,73.25142857142856L112.72042716319825,73.85142857142856L112.79025191675794,71.46857142857144L112.86007667031764,72.12L112.92990142387733,74.41714285714286L112.99972617743701,75.94285714285715L113.2092004381161,73.3714285714286L113.2790251916758,75.42857142857142L113.3488499452355,76.11428571428573L113.41867469879517,74.4L113.48849945235487,73.28571428571425L113.69797371303396,75.46285714285716L113.76779846659365,74.70857142857145L113.83762322015333,73.88571428571427L113.90744797371303,71.75999999999999L113.97727272727272,71.48571428571432L114.1867469879518,72.15428571428572L114.25657174151151,71.57142857142858L114.3263964950712,70.47428571428571L114.39622124863088,66.99428571428572L114.46604600219058,68.46857142857144L114.67552026286967,68.17714285714285L114.74534501642934,67.06285714285713L114.81516976998904,67.20000000000002L114.88499452354874,70.8857142857143L114.95481927710843,68.89714285714282L115.16429353778751,69.34285714285718L115.2341182913472,71.17714285714288L115.3039430449069,69.9085714285714L115.37376779846659,69.59999999999997L115.44359255202629,68.91428571428571L115.65306681270536,68.70857142857142L115.72289156626506,70.02857142857144L115.79271631982475,70.18285714285716L115.86254107338445,70.09714285714284L115.93236582694414,69.72L116.14184008762321,69.87428571428572L116.21166484118291,69.35999999999999L116.28148959474261,70.66285714285715L116.3513143483023,69.72L116.421139101862,70.14857142857142L116.63061336254107,71.48571428571432L116.70043811610077,71.7257142857143L116.77026286966046,69.65142857142854L116.84008762322016,68.58857142857144L116.90991237677984,71.29714285714283L117.11938663745892,69.87428571428572L117.18921139101862,69.30857142857141L117.25903614457832,69.94285714285712L117.328860898138,71.41714285714286L117.3986856516977,71.48571428571432L117.60815991237678,71.60571428571427L117.67798466593648,70.71428571428572L117.74780941949616,72.66857142857145L117.81763417305586,71.86285714285714L117.88745892661557,72.34285714285713L118.09693318729462,71.31428571428572L118.16675794085432,72.12L118.23658269441403,72.72000000000003L118.30640744797371,73.59428571428569L118.37623220153341,74.31428571428572L118.58570646221249,74.52000000000001L118.65553121577219,73.3714285714286L118.72535596933187,73.97142857142859L118.79518072289157,73.32000000000002L118.86500547645126,72.94285714285712L119.07447973713033,74.10857142857142L119.14430449069003,72.03428571428569L119.21412924424973,72.96000000000001L119.28395399780942,72.87428571428575L119.3537787513691,72.13714285714283L119.5632530120482,71.69142857142856L119.6330777656079,71.7942857142857L119.70290251916758,72.92571428571432L119.77272727272728,71.5542857142857L119.84255202628697,72.54857142857142L120.05202628696605,73.01142857142858L120.12185104052574,73.11428571428573L120.19167579408544,72.53142857142859L120.26150054764511,72.54857142857142L120.33132530120481,71.98285714285717L120.5407995618839,69.12L120.6106243154436,70.50857142857143L120.68044906900329,71.05714285714285L120.75027382256297,75.08571428571426L120.82009857612267,73.64571428571426L121.02957283680176,73.9542857142857L121.09939759036145,74.86285714285717L121.16922234392113,75.41142857142859L121.23904709748082,76.26857142857145L121.30887185104052,75.78857142857143L121.51834611171961,76.85142857142858L121.58817086527931,77.0057142857143L121.65799561883898,75.53142857142856L121.72782037239868,76.66285714285718L121.79764512595838,76.57714285714283L122.00711938663747,76.30285714285716L122.07694414019714,75.32571428571427L122.14676889375684,74.02285714285716L122.21659364731654,74.33142857142855L122.28641840087623,71.91428571428571L122.49589266155532,71.60571428571427L122.565717415115,72.56571428571431L122.63554216867469,71.46857142857144L122.70536692223439,73.56L122.77519167579409,73.56L122.98466593647318,73.52571428571432L123.05449069003285,72.68571428571425L123.12431544359255,73.3885714285714L123.19414019715225,72.10285714285715L123.26396495071194,70.85142857142856L123.47343921139101,71.45142857142855L123.54326396495071,71.26285714285714L123.6130887185104,72.15428571428572L123.6829134720701,51.85714285714283L123.7527382256298,51.89142857142859L123.96221248630887,51.06857142857142L124.03203723986856,51.154285714285734L124.10186199342826,49.97142857142855L124.17168674698796,49.59428571428572L124.24151150054765,48.54857142857145L124.45098576122672,49.28571428571428L124.52081051478642,45.03428571428569L124.5906352683461,46.748571428571424L124.6604600219058,47.17714285714284L124.7302847754655,46.64571428571428L124.93975903614458,46.4742857142857L125.00958378970427,45.56571428571431L125.07940854326397,45.54857142857142L125.14923329682367,45.12000000000003L125.21905805038335,45.12000000000003L125.42853231106243,43.422857142857154L125.49835706462213,44.27999999999997L125.56818181818181,43.422857142857154L125.63800657174151,43.9714285714286L125.70783132530121,43.405714285714296L125.91730558598029,43.18285714285712L125.98713033953997,44.365714285714304L126.05695509309967,43.86857142857146L126.12677984665937,42.99428571428571L126.19660460021906,42.59999999999998L126.40607886089813,41.89714285714284L126.47590361445783,39.6857142857143L126.54572836801754,40.611428571428576L126.61555312157722,40.32000000000001L126.68537787513691,41.05714285714285L126.894852135816,43.04571428571428L126.96467688937568,43.06285714285714L127.03450164293538,42.53142857142859L127.10432639649508,42.120000000000005L127.17415115005475,44.1771428571429L127.38362541073384,44.74285714285713L127.45345016429354,45.65142857142857L127.52327491785324,45.54857142857142L127.59309967141292,42.634285714285696L127.66292442497263,41.86285714285714L127.8723986856517,43.23428571428569L127.94222343921138,43.18285714285712L128.0120481927711,43.37142857142858L128.08187294633078,44.365714285714304L128.1516976998905,44.69142857142856L128.36117196056955,45.137142857142834L128.43099671412924,44.19428571428571L128.50082146768895,43.73142857142855L128.57064622124864,42.87428571428573L128.64047097480832,43.54285714285713L128.8499452354874,42.17142857142858L128.9197699890471,41.45142857142855L128.9895947426068,42.942857142857136L129.05941949616647,43.37142857142858L129.12924424972618,43.30285714285715L129.33871851040527,42.73714285714284L129.40854326396493,42.90857142857142L129.47836801752464,42.37714285714287L129.54819277108433,41.09142857142854L129.61801752464405,42.274285714285725L129.8274917853231,41.86285714285714L129.8973165388828,41.74285714285712L129.9671412924425,42.29142857142854L130.0369660460022,42.462857142857146L130.10679079956188,42.25714285714285L130.31626506024097,42.274285714285725L130.38608981380065,42.85714285714285L130.45591456736037,42.17142857142858L130.52573932092005,42.582857142857165L130.5955640744797,44.62285714285717L130.80503833515883,44.76000000000002L130.8748630887185,45.8228571428571L130.94468784227823,44.72571428571432L131.01451259583789,44.89714285714285L131.08433734939757,44.91428571428574L131.2938116100767,45.46285714285716L131.36363636363637,45.80571428571429L131.43346111719606,45.92571428571425L131.50328587075575,45.65142857142857L131.57311062431543,45.80571428571429L131.78258488499452,45.34285714285713L131.8524096385542,45.291428571428554L131.92223439211392,45.54857142857142L131.9920591456736,45.514285714285734L132.0618838992333,45.46285714285716L132.27135815991238,45.291428571428554L132.34118291347207,45.34285714285713L132.41100766703175,45.37714285714283L132.48083242059147,45.30857142857144L132.55065717415113,45.291428571428554L132.76013143483024,44.76000000000002L132.82995618838993,44.365714285714304L132.89978094194961,43.18285714285712L132.9696056955093,43.73142857142855L133.039430449069,43.95428571428572L133.2489047097481,44.10857142857144L133.3187294633078,44.74285714285713L133.38855421686745,43.937142857142845L133.45837897042716,44.53714285714284L133.52820372398685,44.10857142857144L133.73767798466594,43.71428571428574L133.80750273822562,43.43999999999998L133.8773274917853,43.49142857142856L133.94715224534502,43.8342857142857L134.0169769989047,43.95428571428572L134.2264512595838,44.41714285714288L134.29627601314348,44.27999999999997L134.36610076670317,44.31428571428573L134.43592552026288,43.9714285714286L134.50575027382257,43.577142857142874L134.71522453450163,43.577142857142874L134.78504928806134,43.56000000000002L134.85487404162103,43.5257142857143L134.92469879518072,43.594285714285704L134.9945235487404,43.69714285714285L135.2039978094195,43.5257142857143L135.2738225629792,43.43999999999998L135.34364731653886,43.69714285714285L135.41347207009858,44.07428571428575L135.48329682365826,44.091428571428565L135.69277108433735,44.10857142857144L135.76259583789704,44.00571428571429L135.83242059145672,43.61142857142859L135.90224534501644,43.61142857142859L135.97207009857613,43.66285714285716L136.18154435925518,44.057142857142864L136.2513691128149,44.03999999999999L136.32119386637459,44.19428571428571L136.3910186199343,44.639999999999986L136.460843373494,44.87999999999997L136.67031763417305,44.43428571428569L136.74014238773276,44.07428571428575L136.80996714129245,43.43999999999998L136.87979189485213,43.47428571428573L136.94961664841182,43.62857142857145L137.1590909090909,43.30285714285715L137.22891566265062,43.13142857142854L137.29874041621028,43.43999999999998L137.36856516977,43.71428571428574L137.43838992332968,44.125714285714324L137.64786418400877,44.125714285714324L137.71768893756845,44.1771428571429L137.78751369112814,42.97714285714288L137.85733844468785,43.50857142857144L137.92716319824754,43.14857142857143L138.1366374589266,42.92571428571431L138.20646221248631,43.21714285714286L138.276286966046,43.54285714285713L138.34611171960572,42.89142857142856L138.4159364731654,43.577142857142874L138.62541073384446,43.76571428571431L138.69523548740418,43.782857142857125L138.76506024096386,43.86857142857146L138.83488499452355,44.365714285714304L138.90470974808323,43.85142857142857L139.11418400876232,43.98857142857142L139.18400876232204,43.95428571428572L139.2538335158817,43.21714285714286L139.32365826944138,44.00571428571429L139.3934830230011,43.92000000000003L139.60295728368018,43.62857142857145L139.67278203723987,44.00571428571429L139.74260679079956,44.03999999999999L139.81243154435924,43.5257142857143L139.88225629791896,43.69714285714285L140.09173055859802,43.71428571428574L140.16155531215773,43.66285714285716L140.23138006571742,43.902857142857144L140.3012048192771,44.02285714285718L140.37102957283682,43.8L140.58050383351588,43.95428571428572L140.65032858707556,43.76571428571431L140.72015334063528,44.03999999999999L140.78997809419496,43.92000000000003L140.85980284775465,43.937142857142845L141.06927710843374,44.00571428571429L141.13910186199342,44.00571428571429L141.2089266155531,43.8L141.2787513691128,43.9714285714286L141.3485761226725,43.88571428571427L141.5580503833516,43.13142857142854L141.62787513691126,43.14857142857143L141.69769989047097,43.577142857142874L141.76752464403066,43.23428571428569L141.83734939759037,43.097142857142856L142.04682365826943,43.33714285714284L142.11664841182912,42.805714285714274L142.18647316538883,42.05142857142856L142.25629791894852,39.87428571428573L142.32612267250823,39.89142857142855L142.5355969331873,40.302857142857135L142.60542168674698,37.782857142857154L142.6752464403067,37.559999999999974L142.74507119386638,38.022857142857134L142.81489594742607,36.548571428571464L143.02437020810515,36.80571428571426L143.09419496166484,36.61714285714285L143.16401971522455,36.548571428571464L143.2338444687842,37.61142857142855L143.30366922234393,35.94857142857144L143.51314348302301,35.828571428571436L143.58296823658267,35.2457142857143L143.6527929901424,36.171428571428564L143.72261774370207,37.748571428571395L143.7924424972618,36.39428571428574L144.00191675794085,37.20000000000003L144.07174151150053,38.81142857142855L144.14156626506025,39.54857142857141L144.21139101861993,37.251428571428605L144.28121577217965,38.89714285714284L144.4906900328587,38.62285714285714L144.5605147864184,38.674285714285716L144.6303395399781,39.65142857142855L144.7001642935378,40.68000000000002L144.76998904709748,41.039999999999964L144.97946330777657,40.98857142857139L145.04928806133626,39.0857142857143L145.11911281489597,40.47428571428573L145.18893756845563,40.97142857142859L145.25876232201531,41.52000000000001L145.46823658269443,42.01714285714286L145.5380613362541,42.44571428571426L145.6078860898138,42.56571428571429L145.6777108433735,42.23999999999997L145.74753559693318,42.17142857142858L145.95700985761226,42.70285714285713L146.02683461117195,42.23999999999997L146.09665936473166,42.54857142857141L146.16648411829135,42.59999999999998L146.23630887185104,42.29142857142854L146.44578313253012,42.22285714285715L146.5156078860898,42.89142857142856L146.58543263964953,43.422857142857154L146.6552573932092,42.90857142857142L146.72508214676887,43.2L146.93455640744799,43.35428571428572L147.00438116100767,43.594285714285704L147.07420591456736,43.23428571428569L147.14403066812704,43.405714285714296L147.21385542168673,42.65142857142855L147.42332968236585,42.22285714285715L147.49315443592553,41.62285714285716L147.5629791894852,42.085714285714246L147.6328039430449,42.83999999999999L147.7026286966046,42.83999999999999L147.91210295728368,41.52000000000001L147.98192771084337,41.3314285714286L148.05175246440305,39.49714285714283L148.12157721796277,39.54857142857141L148.19140197152245,39.97714285714288L148.40087623220154,39.154285714285706L148.47070098576123,37.8857142857143L148.5405257393209,38.485714285714295L148.61035049288063,38.640000000000015L148.6801752464403,37.73142857142858L148.8896495071194,38.26285714285713L148.9594742606791,38.12571428571428L149.02929901423877,37.98857142857145L149.09912376779846,38.22857142857143L149.16894852135815,38.999999999999986L149.37842278203723,41.09142857142854L149.44824753559695,41.09142857142854L149.5180722891566,39.959999999999994L149.58789704271632,40.59428571428569L149.657721796276,39.634285714285724L149.86719605695507,39.94285714285712L149.93702081051478,39.39428571428574L150.00684556407447,39.72000000000001L150.07667031763418,39.82285714285716L150.14649507119387,39.85714285714285L150.35596933187293,41.36571428571429L150.42579408543264,41.537142857142896L150.49561883899233,41.657142857142844L150.56544359255204,40.98857142857139L150.63526834611173,40.62857142857145L150.8447426067908,41.28000000000003L150.9145673603505,40.62857142857145L150.9843921139102,40.90285714285713L151.05421686746988,40.90285714285713L151.12404162102956,40.920000000000016L151.33351588170865,40.93714285714289L151.40334063526836,40.93714285714289L151.47316538882802,40.74857142857141L151.54299014238774,40.851428571428556L151.61281489594742,41.52000000000001L151.8222891566265,41.60571428571427L151.8921139101862,41.845714285714266L151.96193866374588,41.21142857142857L152.0317634173056,41.17714285714288L152.10158817086528,41.00571428571428L152.31106243154434,41.39999999999998L152.38088718510406,39.51428571428572L152.45071193866374,38.74285714285716L152.52053669222346,39.788571428571444L152.59036144578315,37.868571428571414L152.7998357064622,39.39428571428574L152.86966046002192,39.24000000000002L152.9394852135816,40.114285714285714L153.00930996714132,39.39428571428574L153.07913472070098,39.82285714285716L153.28860898138007,39.54857142857141L153.35843373493978,40.06285714285714L153.42825848849944,36.634285714285724L153.49808324205912,36.2914285714286L153.56790799561884,31.988571428571433L153.77738225629793,28.731428571428552L153.8472070098576,32.55428571428574L153.9170317634173,33.63428571428571L153.98685651697699,35.519999999999996L154.0566812705367,36.46285714285713L154.26615553121576,35.26285714285713L154.33598028477547,36.171428571428564L154.40580503833516,34.97142857142855L154.47562979189485,36.53142857142858L154.54545454545456,39.06857142857142L154.75492880613362,38.519999999999996L154.82475355969333,35.89714285714287L154.89457831325302,38.60571428571426L154.9644030668127,38.29714285714289L155.0342278203724,38.55428571428568L155.24370208105148,37.97142857142856L155.3135268346112,38.331428571428575L155.38335158817085,38.7085714285714L155.45317634173054,38.9142857142857L155.52300109529025,39.59999999999998L155.73247535596934,39.13714285714288L155.802300109529,40.01142857142857L155.87212486308871,40.697142857142836L155.9419496166484,40.28571428571432L156.01177437020812,40.9542857142857L156.22124863088717,40.23428571428575L156.29107338444686,41.43428571428575L156.36089813800658,47.12571428571427L156.43072289156626,45.137142857142834L156.50054764512598,42.41142857142857L156.71002190580504,44.03999999999999L156.77984665936472,43.49142857142856L156.84967141292444,44.211428571428584L156.91949616648412,42.085714285714246L156.9893209200438,42.634285714285696L157.1987951807229,42.7542857142857L157.26861993428258,43.43999999999998L157.3384446878423,43.114285714285714L157.40826944140196,46.52571428571427L157.47809419496167,45.599999999999994L157.68756845564076,46.78285714285714L157.75739320920042,46.577142857142846L157.82721796276013,46.71428571428574L157.89704271631982,46.062857142857155L157.96686746987953,46.26857142857145L158.1763417305586,47.26285714285716L158.24616648411828,47.43428571428571L158.315991237678,45.61714285714288L158.38581599123768,44.125714285714324L158.4556407447974,43.71428571428574L158.66511500547645,44.639999999999986L158.73493975903614,44.400000000000006L158.80476451259585,45.08571428571426L158.87458926615554,43.114285714285714L158.94441401971523,43.13142857142854L159.1538882803943,42.942857142857136L159.223713033954,41.845714285714266L159.2935377875137,41.52000000000001L159.36336254107337,42.05142857142856L159.4331872946331,42.03428571428567L159.64266155531217,43.8L159.71248630887183,44.5714285714286L159.78231106243155,44.708571428571446L159.85213581599123,44.27999999999997L159.92196056955092,45.56571428571431L160.13143483023,45.4285714285714L160.2012595837897,45.70285714285714L160.2710843373494,43.577142857142874L160.3409090909091,43.62857142857145L160.41073384446878,44.76000000000002L160.62020810514787,44.245714285714286L160.69003285870755,43.85142857142857L160.75985761226727,44.29714285714286L160.82968236582695,44.14285714285714L160.8995071193866,43.32000000000001L161.10898138006573,42.92571428571431L161.17880613362541,44.02285714285718L161.24863088718513,44.02285714285718L161.3184556407448,43.577142857142874L161.38828039430447,45.788571428571416L161.5977546549836,45.06857142857146L161.66757940854328,44.708571428571446L161.73740416210296,44.31428571428573L161.80722891566265,45L161.87705366922233,43.61142857142859L162.08652792990142,44.554285714285726L162.1563526834611,44.10857142857144L162.2261774370208,43.422857142857154L162.2960021905805,43.2L162.3658269441402,44.50285714285715L162.57530120481928,44.34857142857143L162.64512595837897,44.708571428571446L162.71495071193866,45.97714285714282L162.78477546549837,44.828571428571394L162.85460021905803,43.9714285714286L163.06407447973714,45.12000000000003L163.13389923329683,43.71428571428574L163.20372398685652,43.64571428571428L163.2735487404162,43.9714285714286L163.3433734939759,44.07428571428575L163.552847754655,44.057142857142864L163.6226725082147,43.422857142857154L163.69249726177435,43.114285714285714L163.76232201533406,43.95428571428572L163.83214676889375,44.2285714285714L164.0416210295728,44.29714285714286L164.11144578313252,44.38285714285712L164.1812705366922,46.91999999999997L164.25109529025193,46.30285714285715L164.3209200438116,46.33714285714284L164.53039430449067,46.885714285714286L164.60021905805039,46.98857142857143L164.67004381161007,46.95428571428572L164.7398685651698,47.417142857142835L164.80969331872947,47.14285714285715L165.01916757940853,48.0685714285714L165.08899233296825,47.965714285714256L165.15881708652793,47.22857142857141L165.22864184008762,47.537142857142854L165.2984665936473,47.29714285714287L165.5079408543264,46.422857142857126L165.5777656078861,46.78285714285714L165.64759036144576,46.885714285714286L165.71741511500548,47.10857142857144L165.78723986856517,49.64571428571429L165.99671412924425,48.4457142857143L166.06653888280394,49.59428571428572L166.13636363636363,48.71999999999997L166.20618838992334,49.662857142857106L166.27601314348303,49.76571428571425L166.4854874041621,49.76571428571425L166.5553121577218,50.519999999999996L166.6251369112815,50.58857142857143L166.6949616648412,49.81714285714283L166.7647864184009,50.50285714285717L166.97426067907995,50.05714285714288L167.04408543263966,49.457142857142884L167.11391018619935,50.72571428571429L167.18373493975903,50.88000000000001L167.25355969331872,50.75999999999998L167.4630339539978,50.94857142857144L167.53285870755752,51.000000000000014L167.60268346111718,49.74857142857144L167.6725082146769,50.519999999999996L167.74233296823658,50.12571428571427L167.95180722891567,50.79428571428572L168.02163198247536,50.58857142857143L168.09145673603504,50.79428571428572L168.16128148959476,51.017142857142844L168.23110624315444,50.81142857142855L168.4405805038335,50.89714285714287L168.51040525739322,50.94857142857144L168.5802300109529,50.982857142857156L168.6500547645126,51.10285714285716L168.7198795180723,51.06857142857142L168.92935377875136,51.000000000000014L168.99917853231108,51.017142857142844L169.06900328587076,51.000000000000014L169.13882803943045,51.03428571428573L169.20865279299014,51.000000000000014L169.41812705366922,50.88000000000001L169.48795180722894,50.365714285714276L169.5577765607886,49.02857142857141L169.62760131434828,50.02285714285712L169.697426067908,51.000000000000014L169.90690032858708,50.7085714285714L169.97672508214677,50.9142857142857L170.04654983570646,50.93142857142858L170.11637458926614,51.05142857142859L170.18619934282586,51.000000000000014L170.39567360350492,50.65714285714283L170.4654983570646,50.12571428571427L170.53532311062432,50.33142857142856L170.605147864184,50.62285714285714L170.67497261774372,49.62857142857142L170.88444687842278,50.75999999999998L170.95427163198246,49.885714285714286L171.02409638554218,49.52571428571427L171.09392113910187,49.52571428571427L171.16374589266155,50.211428571428556L171.37322015334064,50.674285714285716L171.44304490690033,49.62857142857142L171.51286966046,48.25714285714288L171.5826944140197,46.61142857142859L171.6525191675794,46.885714285714286L171.8619934282585,47.22857142857141L171.93181818181816,47.81142857142861L172.00164293537787,48.24000000000001L172.07146768893756,48.82285714285712L172.14129244249727,48.78857142857143L172.35076670317633,49.28571428571428L172.42059145673602,49.67999999999999L172.49041621029573,49.148571428571444L172.56024096385542,48.78857142857143L172.63006571741514,49.81714285714283L172.8395399780942,49.81714285714283L172.90936473165388,48.925714285714264L172.9791894852136,49.697142857142865L173.04901423877328,49.62857142857142L173.11883899233297,50.194285714285726L173.32831325301206,50.09142857142858L173.39813800657174,50.05714285714288L173.46796276013146,50.14285714285715L173.53778751369111,50.09142857142858L173.60761226725083,49.662857142857106L173.81708652792992,49.64571428571429L173.88691128148957,49.71428571428568L173.9567360350493,49.67999999999999L174.02656078860898,49.78285714285714L174.0963855421687,49.8685714285714L174.30585980284775,49.81714285714283L174.37568455640744,50.17714285714284L174.44550930996715,50.46857142857142L174.51533406352684,50.33142857142856L174.58515881708655,51.03428571428573L174.7946330777656,50.94857142857144L174.8644578313253,50.74285714285715L174.934282584885,51.05142857142859L175.0041073384447,50.828571428571436L175.07393209200436,50.86285714285712L175.28340635268347,50.74285714285715L175.35323110624316,50.86285714285712L175.42305585980287,51.000000000000014L175.49288061336253,50.88000000000001L175.56270536692222,50.60571428571431L175.77217962760133,51.05142857142859L175.842004381161,50.96571428571427L175.9118291347207,50.86285714285712L175.9816538882804,50.9142857142857L176.05147864184008,50.982857142857156L176.26095290251916,50.77714285714286L176.33077765607885,50.89714285714287L176.40060240963857,50.982857142857156L176.47042716319825,50.26285714285713L176.54025191675794,51.000000000000014L176.74972617743703,51.0857142857143L176.8195509309967,51.05142857142859L176.8893756845564,50.9142857142857L176.9592004381161,51.017142857142844L177.02902519167577,51.03428571428573L177.2384994523549,51.000000000000014L177.30832420591457,50.88000000000001L177.37814895947426,50.88000000000001L177.44797371303395,50.94857142857144L177.51779846659363,50.845714285714294L177.72727272727275,50.79428571428572L177.79709748083243,50.982857142857156L177.8669222343921,50.96571428571427L177.9367469879518,50.79428571428572L178.0065717415115,50.94857142857144L178.21604600219058,50.94857142857144L178.28587075575027,50.94857142857144L178.35569550930995,51.06857142857142L178.42552026286967,51.05142857142859L178.49534501642935,51.03428571428573L178.70481927710844,51.05142857142859L178.77464403066813,51.03428571428573L178.84446878422781,50.89714285714287L178.91429353778753,50.77714285714286L178.98411829134722,51.03428571428573L179.19359255202627,51.05142857142859L179.263417305586,51.017142857142844L179.33324205914568,51.03428571428573L179.40306681270536,51.06857142857142L179.47289156626505,51.06857142857142L179.68236582694414,50.828571428571436L179.75219058050385,50.93142857142858L179.8220153340635,50.65714285714283L179.89184008762322,50.691428571428574L179.9616648411829,51.0857142857143L180.17113910186197,51.0857142857143L180.24096385542168,51.05142857142859L180.31078860898137,51.03428571428573L180.38061336254108,51.0857142857143L180.45043811610077,51.05142857142859L180.65991237677983,51.06857142857142L180.72973713033954,51.000000000000014L180.79956188389923,51.03428571428573L180.86938663745894,50.982857142857156L180.93921139101863,50.02285714285712L181.1486856516977,50.27999999999999L181.2185104052574,51.000000000000014L181.2883351588171,50.89714285714287L181.35815991237678,50.828571428571436L181.42798466593646,50.72571428571429L181.63745892661555,51.03428571428573L181.70728368017527,51.000000000000014L181.77710843373492,50.982857142857156L181.84693318729464,51.06857142857142L181.91675794085432,50.96571428571427L182.1262322015334,50.365714285714276L182.1960569550931,50.982857142857156L182.26588170865278,50.57142857142857L182.3357064622125,50.50285714285717L182.40553121577219,50.845714285714294L182.61500547645124,50.27999999999999L182.68483023001096,50.845714285714294L182.75465498357065,50.519999999999996L182.82447973713036,50.58857142857143L182.89430449069005,50.50285714285717L183.1037787513691,50.34857142857145L183.17360350492882,50.65714285714283L183.2434282584885,50.519999999999996L183.3132530120482,50.41714285714285L183.38307776560788,50.48571428571428L183.59255202628697,50.65714285714283L183.66237677984668,50.81142857142855L183.73220153340634,50.50285714285717L183.80202628696603,50.75999999999998L183.87185104052574,50.65714285714283L184.08132530120483,50.982857142857156L184.1511500547645,50.845714285714294L184.2209748083242,50.65714285714283L184.2907995618839,50.22857142857141L184.3606243154436,50.58857142857143L184.57009857612266,50.17714285714284L184.63992332968238,50.41714285714285L184.70974808324206,50.50285714285717L184.77957283680175,50.7085714285714L184.84939759036146,50.96571428571427L185.05887185104052,50.79428571428572L185.12869660460024,50.79428571428572L185.19852135815992,50.982857142857156L185.2683461117196,51.06857142857142L185.3381708652793,51.000000000000014L185.54764512595838,50.96571428571427L185.61746987951807,50.982857142857156L185.68729463307776,50.9142857142857L185.75711938663744,50.982857142857156L185.82694414019716,50.94857142857144L186.03641840087624,51.06857142857142L186.1062431544359,51.05142857142859L186.17606790799562,51.06857142857142L186.2458926615553,51.017142857142844L186.31571741511502,50.77714285714286L186.52519167579408,50.9142857142857L186.59501642935376,50.75999999999998L186.66484118291348,50.77714285714286L186.73466593647316,50.691428571428574L186.80449069003288,50.60571428571431L187.01396495071194,50.9142857142857L187.08378970427162,50.88000000000001L187.15361445783134,50.89714285714287L187.22343921139102,50.93142857142858L187.2932639649507,51.000000000000014L187.5027382256298,51.0857142857143L187.57256297918948,51.05142857142859L187.64238773274917,51.05142857142859L187.71221248630886,51.06857142857142L187.78203723986857,51.06857142857142L187.99151150054766,51.03428571428573L188.06133625410732,51.05142857142859L188.13116100766703,51.05142857142859L188.20098576122672,51.05142857142859L188.27081051478643,50.93142857142858L188.4802847754655,50.79428571428572L188.55010952902518,50.93142857142858L188.6199342825849,51.06857142857142L188.68975903614458,51.000000000000014L188.7595837897043,51.017142857142844L188.96905805038335,51.05142857142859L189.03888280394304,51.06857142857142L189.10870755750275,50.982857142857156L189.17853231106244,51.017142857142844L189.24835706462213,51.000000000000014L189.4578313253012,51.06857142857142L189.5276560788609,51.0857142857143L189.59748083242062,51.06857142857142L189.66730558598027,51.017142857142844L189.73713033953996,51.000000000000014L189.94660460021908,50.94857142857144L190.01642935377873,50.46857142857142L190.08625410733845,49.98857142857143L190.15607886089813,50.22857142857141L190.22590361445782,50.29714285714287L190.4353778751369,50.41714285714285L190.5052026286966,50.27999999999999L190.5750273822563,50.29714285714287L190.644852135816,50.27999999999999L190.71467688937568,49.74857142857144L190.92415115005477,48.85714285714289L190.99397590361446,49.09714285714287L191.06380065717417,49.59428571428572L191.13362541073386,50.10857142857141L191.2034501642935,49.61142857142853L191.41292442497263,50.14285714285715L191.48274917853232,50.62285714285714L191.55257393209203,50.365714285714276L191.6223986856517,50.81142857142855L191.69222343921138,50.93142857142858L191.9016976998905,50.691428571428574L191.97152245345018,50.86285714285712L192.04134720700984,51.017142857142844L192.11117196056955,50.9142857142857L192.18099671412924,51.03428571428573L192.39047097480832,51.017142857142844L192.460295728368,51.0857142857143L192.5301204819277,50.94857142857144L192.5999452354874,51.03428571428573L192.6697699890471,51.000000000000014L192.87924424972618,51.03428571428573L192.94906900328587,50.982857142857156L193.01889375684556,50.75999999999998L193.08871851040527,50.74285714285715L193.15854326396493,50.88000000000001L193.36801752464405,50.982857142857156L193.43784227820373,50.88000000000001L193.50766703176342,50.982857142857156L193.5774917853231,51.000000000000014L193.6473165388828,50.94857142857144L193.85679079956188,50.93142857142858L193.9266155531216,51.06857142857142L193.99644030668125,50.828571428571436L194.06626506024097,51.06857142857142L194.13608981380065,51.06857142857142L194.3455640744797,51.06857142857142L194.41538882803943,51.000000000000014L194.4852135815991,51.06857142857142L194.55503833515883,51.06857142857142L194.6248630887185,51.03428571428573L194.83433734939757,51.03428571428573L194.9041621029573,51.05142857142859L194.97398685651697,51.03428571428573L195.0438116100767,51.06857142857142L195.11363636363637,51.06857142857142L195.32311062431543,51.05142857142859L195.39293537787515,51.03428571428573L195.46276013143483,50.96571428571427L195.53258488499452,51.0857142857143L195.6024096385542,50.9142857142857L195.8118838992333,51.06857142857142L195.881708652793,51.06857142857142L195.95153340635267,51.06857142857142L196.02135815991238,51.0857142857143L196.09118291347207,51.06857142857142L196.30065717415113,51.06857142857142L196.37048192771084,51.05142857142859L196.44030668127053,51.000000000000014L196.51013143483024,51.000000000000014L196.57995618838993,51.0857142857143L196.789430449069,51.06857142857142L196.8592552026287,51.05142857142859L196.9290799561884,51.017142857142844L196.9989047097481,51.03428571428573L197.0687294633078,51.0857142857143L197.27820372398685,51.06857142857142L197.34802847754656,51.03428571428573L197.41785323110625,51.05142857142859L197.48767798466594,51.03428571428573L197.55750273822562,51.05142857142859L197.7669769989047,51.0857142857143L197.83680175246442,51.0857142857143L197.90662650602408,51.0857142857143L197.9764512595838,51.0857142857143L198.04627601314348,51.06857142857142L198.25575027382257,51.000000000000014L198.32557502738226,51.0857142857143L198.39539978094194,51.0857142857143L198.46522453450163,51.05142857142859L198.53504928806134,51.06857142857142L198.7445235487404,51.000000000000014L198.81434830230012,51.0857142857143L198.8841730558598,51.06857142857142L198.9539978094195,51.10285714285716L199.0238225629792,51.0857142857143L199.23329682365826,51.06857142857142L199.30312157721798,51.11999999999999L199.37294633077767,51.03428571428573L199.44277108433735,51.06857142857142L199.51259583789704,50.96571428571427L199.72207009857613,51.017142857142844L199.79189485213584,51.000000000000014L199.8617196056955,51.03428571428573L199.93154435925518,51.0857142857143L200.0013691128149,51.05142857142859L200.210843373494,51.05142857142859L200.28066812705364,51.06857142857142L200.35049288061336,50.9142857142857L200.42031763417305,50.94857142857144L200.49014238773276,50.94857142857144L200.69961664841182,50.845714285714294L200.7694414019715,50.74285714285715L200.83926615553122,50.93142857142858L200.9090909090909,50.93142857142858L200.97891566265062,51.000000000000014L201.18838992332968,50.9142857142857L201.25821467688937,50.88000000000001L201.32803943044908,50.845714285714294L201.39786418400877,50.89714285714287L201.46768893756845,50.86285714285712L201.67716319824754,50.46857142857142L201.74698795180723,50.43428571428571L201.8168127053669,50.58857142857143L201.8866374589266,50.45142857142859L201.95646221248631,50.58857142857143L202.1659364731654,50.62285714285714L202.23576122672506,50.75999999999998L202.30558598028477,50.9142857142857L202.37541073384446,50.48571428571428L202.44523548740418,50.9142857142857L202.65470974808323,50.9142857142857L202.72453450164292,51.06857142857142L202.79435925520264,51.0857142857143L202.86418400876232,51.06857142857142L202.93400876232204,51.05142857142859L203.1434830230011,51.06857142857142L203.21330777656078,51.0857142857143L203.2831325301205,51.0857142857143L203.35295728368018,51.017142857142844L203.42278203723987,51.017142857142844L203.63225629791896,51.017142857142844L203.70208105147864,51.05142857142859L203.77190580503836,51.03428571428573L203.84173055859802,51.10285714285716L203.91155531215773,51.171428571428564L204.12102957283682,51.06857142857142L204.19085432639648,51.0857142857143L204.2606790799562,51.03428571428573L204.33050383351588,51.0857142857143L204.40032858707556,51.06857142857142L204.60980284775465,51.0857142857143L204.67962760131434,51.06857142857142L204.74945235487405,50.77714285714286L204.81927710843374,51.05142857142859L204.88910186199342,51.05142857142859L205.0985761226725,51.06857142857142L205.1684008762322,51.0857142857143L205.2382256297919,51.10285714285716L205.3080503833516,51.017142857142844L205.37787513691126,51.017142857142844L205.58734939759037,50.93142857142858L205.65717415115006,51.06857142857142L205.72699890470977,51.06857142857142L205.79682365826943,51.06857142857142L205.86664841182912,51.017142857142844L206.07612267250823,51.06857142857142L206.1459474260679,51.06857142857142L206.2157721796276,51.06857142857142L206.2855969331873,51.0857142857143L206.35542168674698,51.05142857142859L206.56489594742607,51.05142857142859L206.63472070098575,51.06857142857142L206.70454545454544,51.05142857142859L206.77437020810515,51.0857142857143L206.84419496166484,51.05142857142859L207.05366922234393,51.06857142857142L207.1234939759036,51.06857142857142L207.1933187294633,51.06857142857142L207.26314348302301,51.06857142857142L207.33296823658267,51.06857142857142L207.5424424972618,51.06857142857142L207.61226725082147,51.0857142857143L207.68209200438116,51.06857142857142L207.75191675794085,51.06857142857142L207.82174151150053,51.06857142857142L208.03121577217965,51.06857142857142L208.10104052573934,51.05142857142859L208.170865279299,51.06857142857142L208.2406900328587,51.06857142857142L208.3105147864184,51.06857142857142L208.51998904709748,51.03428571428573L208.58981380065717,51.017142857142844L208.65963855421685,51.06857142857142L208.72946330777657,51.06857142857142L208.79928806133626,51.10285714285716L209.00876232201531,51.06857142857142L209.07858707557503,51.06857142857142L209.14841182913472,51.05142857142859L209.21823658269443,51.06857142857142L209.2880613362541,51.06857142857142L209.49753559693318,51.06857142857142L209.5673603504929,51.06857142857142L209.63718510405258,51.0857142857143L209.70700985761226,51.06857142857142L209.77683461117195,51.06857142857142L209.98630887185104,51.06857142857142L210.05613362541075,51.06857142857142L210.1259583789704,50.982857142857156L210.19578313253012,49.18285714285713L210.2656078860898,50.828571428571436L210.47508214676887,50.537142857142854L210.54490690032858,50.72571428571429L210.61473165388827,50.72571428571429L210.68455640744799,57.75428571428571L210.75438116100767,58.64571428571428L210.96385542168673,57.78857142857141L211.03368017524645,57.08571428571425L211.10350492880613,56.50285714285713L211.17332968236585,56.62285714285716L211.24315443592553,56.60571428571428L211.4526286966046,57.41142857142857L211.5224534501643,55.08000000000003L211.592278203724,53.46857142857142L211.66210295728368,53.38285714285715L211.73192771084337,52.62857142857143L211.94140197152245,54.308571428571426L212.01122672508217,54.154285714285706L212.08105147864183,53.15999999999998L212.15087623220154,50.845714285714294L212.22070098576123,54.20571428571428L212.4301752464403,53.9142857142857L212.5,52.98857142857145L212.5698247535597,55.765714285714296L212.6396495071194,54.42857142857143L212.7094742606791,55.71428571428572L212.91894852135815,57.25714285714285L212.98877327491786,57.72000000000001L213.05859802847755,58.748571428571424L213.12842278203723,58.662857142857156L213.19824753559695,59.09142857142856L213.407721796276,60.685714285714276L213.47754654983572,61.851428571428585L213.5473713033954,60.05142857142857L213.61719605695507,58.43999999999998L213.68702081051478,60.188571428571414L213.89649507119387,59.657142857142865L213.96631982475358,61.13142857142856L214.03614457831324,60.6342857142857L214.10596933187293,60.94285714285714L214.17579408543264,60.514285714285734L214.38526834611173,59.77714285714283L214.45509309967142,60.6342857142857L214.5249178532311,62.48571428571427L214.5947426067908,62.76000000000002L214.6645673603505,62.81142857142859L214.87404162102956,63.0685714285714L214.94386637458928,63.0685714285714L215.01369112814896,63.15428571428573L215.08351588170865,63.47999999999999L215.15334063526836,65.57142857142856L215.36281489594742,65.15999999999997L215.4326396495071,65.91428571428568L215.50246440306682,65.69142857142859L215.5722891566265,64.28571428571428L215.6421139101862,65.58857142857144L215.85158817086528,65.58857142857144L215.92141292442497,63.34285714285715L215.99123767798466,63.24L216.06106243154434,63.05142857142858L216.13088718510406,63.92571428571427L216.34036144578315,63.37714285714284L216.4101861993428,63.01714285714283L216.48001095290252,63.49714285714287L216.5498357064622,64.86857142857141L216.61966046002192,66.42857142857142L216.82913472070098,66.37714285714284L216.89895947426066,66.08571428571429L216.96878422782038,66.94285714285715L217.03860898138007,66.08571428571429L217.10843373493978,66.73714285714286L217.31790799561884,66.94285714285715L217.38773274917853,66.35999999999999L217.45755750273824,66.60000000000002L217.52738225629793,66.77142857142857L217.5972070098576,67.2857142857143L217.8066812705367,67.26857142857142L217.8765060240964,66.47999999999999L217.94633077765607,67.06285714285713L218.01615553121576,67.66285714285712L218.08598028477547,67.74857142857147L218.29545454545456,68.02285714285713L218.36527929901422,67.91999999999999L218.43510405257393,68.21142857142857L218.50492880613362,67.38857142857145L218.57475355969333,67.40571428571425L218.7842278203724,67.14857142857144L218.85405257393208,66.0685714285714L218.9238773274918,66.85714285714283L218.99370208105148,67.78285714285715L219.0635268346112,66.58285714285714L219.27300109529025,66.25714285714284L219.34282584884994,65.91428571428568L219.41265060240966,65.50285714285718L219.48247535596934,65.46857142857141L219.552300109529,65.79428571428573L219.76177437020812,66.30857142857141L219.8315991237678,65.84571428571431L219.90142387732752,67.47428571428571L219.97124863088717,67.38857142857145L220.04107338444686,67.68L220.25054764512598,66.70285714285711L220.32037239868563,66.95999999999998L220.39019715224535,66.5142857142857L220.46002190580504,66.75428571428569L220.52984665936472,66.9085714285714L220.7393209200438,67.16571428571427L220.8091456736035,66.66857142857143L220.8789704271632,67.59428571428575L220.9487951807229,66.68571428571428L221.01861993428258,67.61142857142855L221.22809419496167,67.26857142857142L221.29791894852136,66.95999999999998L221.36774370208104,66.89142857142858L221.43756845564076,66.35999999999999L221.50739320920042,66.56571428571428L221.71686746987953,67.13142857142859L221.78669222343922,66.72L221.8565169769989,66.75428571428569L221.9263417305586,67.40571428571425L221.99616648411828,67.02857142857144L222.2056407447974,66.61714285714285L222.27546549835705,66.85714285714283L222.34529025191674,66.84L222.41511500547645,67.2857142857143L222.48493975903614,67.74857142857147L222.69441401971523,67.73142857142858L222.7642387732749,67.97142857142856L222.8340635268346,67.91999999999999L222.9038882803943,68.07428571428571L222.973713033954,68.70857142857142L223.1831872946331,69.44571428571425L223.25301204819277,69.82285714285715L223.32283680175246,71.07428571428574L223.39266155531217,71.63999999999999L223.46248630887183,70.49142857142854L223.67196056955092,70.57714285714286L223.74178532311063,70.68L223.81161007667032,70.62857142857143L223.88143483023,70.74857142857141L223.9512595837897,71.88000000000002L224.16073384446878,72.12L224.2305585980285,72.72000000000003L224.30038335158815,73.43999999999997L224.37020810514787,73.21714285714287L224.44003285870755,73.61142857142858L224.6495071193866,74.41714285714286L224.71933187294633,75.2742857142857L224.789156626506,75.36000000000001L224.85898138006573,73.93714285714285L224.92880613362541,75.12000000000003L225.13828039430447,74.31428571428572L225.2081051478642,74.43428571428569L225.27792990142387,75.87428571428569L225.3477546549836,73.98857142857142L225.41757940854328,74.02285714285716L225.62705366922233,76.02857142857141L225.69687842278205,76.2342857142857L225.76670317634174,75.68571428571428L225.83652792990142,76.56000000000003L225.9063526834611,76.2342857142857L226.1158269441402,76.07999999999998L226.1856516976999,75.37714285714284L226.25547645125957,74.70857142857145L226.32530120481928,76.0457142857143L226.39512595837897,75.99428571428572L226.60460021905803,76.38857142857142L226.67442497261774,77.29714285714286L226.74424972617743,77.48571428571427L226.81407447973714,78.37714285714284L226.88389923329683,78L227.0933734939759,78.15428571428572L227.1631982475356,77.33142857142855L227.2330230010953,77.31428571428575L227.302847754655,76.85142857142858L227.3726725082147,75.82285714285717L227.58214676889375,75.37714285714284L227.65197152245347,74.55428571428573L227.72179627601315,75.12000000000003L227.7916210295728,75.84L227.86144578313252,76.11428571428573L228.0709200438116,75.1714285714286L228.14074479737133,74.89714285714285L228.21056955093098,74.4L228.28039430449067,73.7657142857143L228.35021905805039,73.9542857142857L228.55969331872947,73.92000000000002L228.62951807228916,74.05714285714285L228.69934282584884,74.00571428571428L228.76916757940853,73.26857142857145L228.83899233296825,72.7885714285714L229.0484665936473,72.85714285714286L229.11829134720702,72.96000000000001L229.1881161007667,69.77142857142857L229.2579408543264,75.72000000000003L229.3277656078861,77.0228571428571L229.53723986856517,76.56000000000003L229.60706462212488,77.0228571428571L229.67688937568457,77.0228571428571L229.74671412924425,76.85142857142858L229.81653888280394,76.45714285714288L230.02601314348303,75.89142857142858L230.0958378970427,76.37142857142854L230.1656626506024,76.09714285714287L230.2354874041621,76.95428571428573L230.3053121577218,76.85142857142858L230.5147864184009,76.57714285714283L230.58461117196055,78.41142857142859L230.65443592552026,79.33714285714285L230.72426067907995,79.57714285714286L230.79408543263966,79.14857142857144L231.00355969331872,78.82285714285712L231.0733844468784,79.06285714285713L231.14320920043812,79.07999999999998L231.2130339539978,79.7142857142857L231.28285870755752,80.26285714285711L231.49233296823658,80.55428571428575L231.56215772179627,80.46857142857141L231.63198247535598,81.03428571428572L231.70180722891567,82.47428571428571L231.77163198247536,81.6514285714286L231.98110624315444,81.87428571428572L232.05093099671413,81.77142857142857L232.12075575027382,81.11999999999998L232.1905805038335,79.33714285714285L232.26040525739322,78.92571428571426L232.4698795180723,79.25142857142859L232.53970427163196,79.33714285714285L232.60952902519168,79.25142857142859L232.67935377875136,79.66285714285712L232.74917853231108,79.62857142857143L232.95865279299014,80.4857142857143L233.02847754654982,79.98857142857145L233.09830230010954,79.59428571428572L233.16812705366922,79.61142857142855L233.23795180722894,79.47428571428571L233.447426067908,79.44L233.51725082146768,78.41142857142859L233.5870755750274,78.68571428571428L233.65690032858708,78.2742857142857L233.72672508214677,79.38857142857142L233.93619934282586,78.70285714285717L234.00602409638554,79.0457142857143L234.07584884994526,78.51428571428568L234.14567360350492,78.58285714285714L234.2154983570646,77.96571428571426L234.42497261774372,77.86285714285717L234.49479737130338,77.45142857142858L234.5646221248631,78.05142857142857L234.63444687842278,78.92571428571426L234.70427163198246,78.56571428571425L234.91374589266155,78.39428571428573L234.98357064622124,78.46285714285716L235.05339539978095,78.85714285714289L235.12322015334064,78.77142857142854L235.19304490690033,78.39428571428573L235.4025191675794,77.96571428571426L235.4723439211391,77.63999999999999L235.54216867469881,77.7942857142857L235.6119934282585,78.96000000000004L235.68181818181816,79.76571428571427L235.89129244249727,79.16571428571427L235.96111719605696,80.1085714285714L236.03094194961668,80.12571428571428L236.10076670317633,80.0914285714286L236.17059145673602,79.47428571428571L236.38006571741514,79.73142857142858L236.4498904709748,80.50285714285718L236.51971522453448,79.98857142857145L236.5895399780942,80.41714285714284L236.65936473165388,80.55428571428575L236.86883899233297,81.18857142857144L236.93866374589265,80.91428571428568L237.00848849945234,80.36571428571426L237.07831325301206,80.0057142857143L237.14813800657174,79.57714285714286L237.35761226725083,78.54857142857145L237.42743702081052,78.08571428571429L237.4972617743702,77.7942857142857L237.56708652792992,77.74285714285713L237.63691128148957,77.63999999999999L237.8463855421687,75.56571428571431L237.91621029572838,74.00571428571428L237.98603504928806,75.2057142857143L238.05585980284775,77.12571428571425L238.12568455640744,77.26285714285717L238.33515881708655,77.76000000000002" fill="none" stroke="#af516c" stroke-linejoin="round" stroke-linecap="round" stroke-width="2"></path></g></g></svg>