<svg xmlns="http://www.w3.org/2000/svg" viewBox="0 0 304 270"><style>/* <![CDATA[ */.chart-title{font-size:20px;fill:#43423e}.chart-subtitle{font-size:15px;fill:#74736c}.chart-source{font-size:10px;fill-opacity:.4}.axis .domain{fill:none;stroke:#74736c}.tick line{fill:none;stroke:#000;stroke-opacity:.2}.tick text{fill-opacity:.6;font-size:12px}.y.axis .tick line{stroke-dasharray:1}.y.axis .domain{fill:none;stroke-opacity:0}.y.axis .highlight-line{fill:none;stroke:#74736c}/* ]]> */</style><text class="chart-title" y="22">向非金融中小企業贷款</text><text class="chart-subtitle" y="42">未付金额(英镑)</text><text class="chart-source" y="265">来源:英格兰银行/彭博. 2018年5月1日</text><g transform="translate(1,100)"><g class="x axis" transform="translate(0,120)" fill="none" font-size="10" font-family="sans-serif" text-anchor="middle"><path class="domain" stroke="#000" d="M0.5,0V0.5H255.5V0"></path><g class="tick" opacity="1" transform="translate(0.5,0)"><line stroke="#000" y2="6"></line><text fill="#000" y="9" dy="0.71em">2012</text></g><g class="tick" opacity="1" transform="translate(36.99980445834963,0)"><line stroke="#000" y2="6"></line><text fill="#000" y="9" dy="0.71em">2013</text></g><g class="tick" opacity="1" transform="translate(73.39988267500978,0)"><line stroke="#000" y2="6"></line><text fill="#000" y="9" dy="0.71em">2014</text></g><g class="tick" opacity="1" transform="translate(109.79996089166993,0)"><line stroke="#000" y2="6"></line><text fill="#000" y="9" dy="0.71em">2015</text></g><g class="tick" opacity="1" transform="translate(146.20003910833006,0)"><line stroke="#000" y2="6"></line><text fill="#000" y="9" dy="0.71em">2016</text></g><g class="tick" opacity="1" transform="translate(182.6998435666797,0)"><line stroke="#000" y2="6"></line><text fill="#000" y="9" dy="0.71em">2017</text></g><g class="tick" opacity="1" transform="translate(219.09992178333985,0)"><line stroke="#000" y2="6"></line><text fill="#000" y="9" dy="0.71em">2018</text></g><g class="tick" opacity="1" transform="translate(255.5,0)"><line stroke="#000" y2="6"></line><text fill="#000" y="9" dy="0.71em">2019</text></g></g><g class="y axis" transform="translate(255,0)" fill="none" font-size="10" font-family="sans-serif" text-anchor="start"><path class="domain" stroke="#000" d="M0,120.5H0.5V0.5H0"></path><g class="tick" opacity="1" transform="translate(0,90.5)"><line stroke="#000" x2="-255"></line><text fill="#000" x="3" dy="0.32em">165</text></g><g class="tick" opacity="1" transform="translate(0,53)"><line stroke="#000" x2="-255"></line><text fill="#000" x="3" dy="0.32em">170</text></g><g class="tick" opacity="1" transform="translate(0,15.5)"><line stroke="#000" x2="-255"></line><text fill="#000" x="3" dy="0.32em">175</text></g></g><g><path d="M36.433320297223304,5.460000000000065L39.52483378959718,7.117500000000092L42.31716855690262,5.107500000000087L45.40868204927649,11.94749999999992L48.400469299960896,27.04499999999996L51.49198279233477,56.10749999999996L54.48377004301916,49.5975L57.57528353539304,51.86249999999994L60.66679702776691,61.44750000000009L63.65858427845131,65.87999999999994L66.75009777082518,73.09500000000007L69.74188502150959,75.05250000000004L72.83339851388345,80.76750000000004L75.92491200625733,38.940000000000055L78.71724677356278,37.08749999999995L81.80876026593664,53.25749999999999L84.80054751662104,51.13500000000009L87.89206100899492,40.0650000000001L90.88384825967931,39.43500000000007L93.97536175205319,51.457499999999925L97.06687524442707,56.36999999999993L100.05866249511146,43.69499999999995L103.15017598748533,56.76000000000009L106.14196323816974,49.425000000000026L109.23347673054361,74.13749999999993L112.32499022291748,71.8500000000001L115.11732499022291,73.35750000000004L118.20883848259679,66.4725L121.20062573328119,55.957500000000095L124.29213922565506,98.69999999999997L127.28392647633946,98.85000000000005L130.37543996871332,90.27000000000001L133.4669534610872,96.12750000000005L136.4587407117716,97.20000000000006L139.5502542041455,95.06999999999991L142.5420414548299,104.51250000000002L145.63355494720375,94.94999999999997L148.72506843957763,103.38749999999997L151.61712944857254,114.64500000000001L154.70864294094642,118.1924999999999L157.70043019163083,117.96000000000006L160.79194368400468,113.24249999999992L163.7837309346891,116.57250000000005L166.87524442706297,112.81500000000001L169.96675791943684,116.26500000000007L172.95854517012125,99.96000000000002L176.0500586624951,102.61499999999991L179.04184591317951,101.03250000000003L182.1333594055534,84.14999999999999L185.22487289792727,89.9775000000001L188.01720766523272,81.68999999999997L191.10872115760657,92.33250000000005L194.10050840829095,95.73000000000008L197.19202190066486,94.29750000000006L200.18380915134924,85.2900000000001L203.27532264372311,85.58250000000001L206.366836136097,91.51499999999999L209.35862338678137,83.99250000000009L212.45013687915525,86.47500000000001L215.44192412983966,84.27749999999996L218.5334376222135,87.4799999999999L221.6249511145874,87.39749999999994L224.41728588189284,82.32750000000003L227.50879937426672,81.59249999999993" fill="none" stroke="#af516c" stroke-linejoin="round" stroke-linecap="round" stroke-width="2"></path></g></g></svg>