<svg xmlns="http://www.w3.org/2000/svg" viewBox="0 0 304 270"><style>/* <![CDATA[ */.chart-title{font-size:20px;fill:#43423e}.chart-subtitle{font-size:15px;fill:#74736c}.chart-source{font-size:10px;fill-opacity:.4}.axis .domain{fill:none;stroke:#74736c}.tick line{fill:none;stroke:#000;stroke-opacity:.2}.tick text{fill-opacity:.6;font-size:12px}.y.axis .tick line{stroke-dasharray:1}.y.axis .domain{fill:none;stroke-opacity:0}.y.axis .highlight-line{fill:none;stroke:#74736c}/* ]]> */</style><text class="chart-title" y="22">向非金融企业贷款</text><text class="chart-subtitle" y="42">未付金额(英镑)</text><text class="chart-source" y="265">来源:英格兰银行/彭博. 2018年5月1日</text><g transform="translate(1,100)"><g class="x axis" transform="translate(0,120)" fill="none" font-size="10" font-family="sans-serif" text-anchor="middle"><path class="domain" stroke="#000" d="M0.5,0V0.5H255.5V0"></path><g class="tick" opacity="1" transform="translate(0.5,0)"><line stroke="#000" y2="6"></line><text fill="#000" y="9" dy="0.71em">2012</text></g><g class="tick" opacity="1" transform="translate(36.99980445834963,0)"><line stroke="#000" y2="6"></line><text fill="#000" y="9" dy="0.71em">2013</text></g><g class="tick" opacity="1" transform="translate(73.39988267500978,0)"><line stroke="#000" y2="6"></line><text fill="#000" y="9" dy="0.71em">2014</text></g><g class="tick" opacity="1" transform="translate(109.79996089166993,0)"><line stroke="#000" y2="6"></line><text fill="#000" y="9" dy="0.71em">2015</text></g><g class="tick" opacity="1" transform="translate(146.20003910833006,0)"><line stroke="#000" y2="6"></line><text fill="#000" y="9" dy="0.71em">2016</text></g><g class="tick" opacity="1" transform="translate(182.6998435666797,0)"><line stroke="#000" y2="6"></line><text fill="#000" y="9" dy="0.71em">2017</text></g><g class="tick" opacity="1" transform="translate(219.09992178333985,0)"><line stroke="#000" y2="6"></line><text fill="#000" y="9" dy="0.71em">2018</text></g><g class="tick" opacity="1" transform="translate(255.5,0)"><line stroke="#000" y2="6"></line><text fill="#000" y="9" dy="0.71em">2019</text></g></g><g class="y axis" transform="translate(255,0)" fill="none" font-size="10" font-family="sans-serif" text-anchor="start"><path class="domain" stroke="#000" d="M0,120.5H0.5V0.5H0"></path><g class="tick" opacity="1" transform="translate(0,115.5)"><line stroke="#000" x2="-255"></line><text fill="#000" x="3" dy="0.32em">430</text></g><g class="tick" opacity="1" transform="translate(0,90.5)"><line stroke="#000" x2="-255"></line><text fill="#000" x="3" dy="0.32em">440</text></g><g class="tick" opacity="1" transform="translate(0,65.5)"><line stroke="#000" x2="-255"></line><text fill="#000" x="3" dy="0.32em">450</text></g><g class="tick" opacity="1" transform="translate(0,40.5)"><line stroke="#000" x2="-255"></line><text fill="#000" x="3" dy="0.32em">460</text></g><g class="tick" opacity="1" transform="translate(0,15.5)"><line stroke="#000" x2="-255"></line><text fill="#000" x="3" dy="0.32em">470</text></g></g><g><path d="M36.433320297223304,9.727500000000049L39.52483378959718,2.434999999999974L42.31716855690262,6.332500000000039L45.40868204927649,7.502499999999941L48.400469299960896,17.662499999999994L51.49198279233477,35.204999999999984L54.48377004301916,39.922499999999985L57.57528353539304,36.69250000000005L60.66679702776691,52.27000000000004L63.65858427845131,53.14250000000001L66.75009777082518,56.11000000000004L69.74188502150959,62.164999999999964L72.83339851388345,69.52749999999995L75.92491200625733,70.505L78.71724677356278,71.47999999999996L81.80876026593664,82.27000000000004L84.80054751662104,86.85749999999999L87.89206100899492,76.29750000000001L90.88384825967931,87.30000000000004L93.97536175205319,81.14000000000004L97.06687524442707,77.35L100.05866249511146,84.465L103.15017598748533,84.02749999999997L106.14196323816974,84.41999999999993L109.23347673054361,101.785L112.32499022291748,97.99750000000003L115.11732499022291,97.96750000000003L118.20883848259679,87.69750000000002L121.20062573328119,102.70499999999998L124.29213922565506,102.07750000000004L127.28392647633946,119.20500000000004L130.37543996871332,116.59750000000003L133.4669534610872,111.20000000000005L136.4587407117716,113.81249999999994L139.5502542041455,108.84500000000003L142.5420414548299,110.93000000000004L145.63355494720375,116.14500000000007L148.72506843957763,96.77999999999997L151.61712944857254,86.60499999999999L154.70864294094642,93.70500000000007L157.70043019163083,97.14749999999995L160.79194368400468,91.76000000000002L163.7837309346891,82.50500000000002L166.87524442706297,75.91999999999999L169.96675791943684,75.97750000000005L172.95854517012125,69.195L176.0500586624951,58.20999999999999L179.04184591317951,63.55000000000004L182.1333594055534,67.35L185.22487289792727,56.23000000000004L188.01720766523272,58.809999999999995L191.10872115760657,53.92499999999998L194.10050840829095,50.29750000000007L197.19202190066486,41.33750000000006L200.18380915134924,38.34999999999994L203.27532264372311,15.065000000000026L206.366836136097,30.835000000000008L209.35862338678137,21.897500000000036L212.45013687915525,19.497499999999945L215.44192412983966,24.697500000000048L218.5334376222135,26.267500000000013L221.6249511145874,33.49249999999998L224.41728588189284,21.90250000000006L227.50879937426672,12.507499999999965" fill="none" stroke="#af516c" stroke-linejoin="round" stroke-linecap="round" stroke-width="2"></path></g></g></svg>