<svg xmlns="http://www.w3.org/2000/svg" viewBox="0 0 304 270"><style>/* <![CDATA[ */.chart-title{font-size:20px;fill:#43423e}.chart-subtitle{font-size:15px;fill:#74736c}.chart-source{font-size:10px;fill-opacity:.4}.axis .domain{fill:none;stroke:#74736c}.tick line{fill:none;stroke:#000;stroke-opacity:.2}.tick text{fill-opacity:.6;font-size:12px}.y.axis .tick line{stroke-dasharray:1}.y.axis .domain{fill:none;stroke-opacity:0}.y.axis .highlight-line{fill:none;stroke:#74736c}/* ]]> */</style><text class="chart-title" y="22">Leu vs euro</text><text class="chart-subtitle" y="42">Leu per €</text><text class="chart-source" y="265">来源:彭博. 2018年5月7日</text><g transform="translate(1,100)"><g class="x axis" transform="translate(0,120)" fill="none" font-size="10" font-family="sans-serif" text-anchor="middle"><path class="domain" stroke="#000" d="M0.5,0V0.5H255.5V0"></path><g class="tick" opacity="1" transform="translate(0.5,0)"><line stroke="#000" y2="6"></line><text fill="#000" y="9" dy="0.71em">2014</text></g><g class="tick" opacity="1" transform="translate(57.18392204628502,0)"><line stroke="#000" y2="6"></line><text fill="#000" y="9" dy="0.71em">2015</text></g><g class="tick" opacity="1" transform="translate(113.86784409257004,0)"><line stroke="#000" y2="6"></line><text fill="#000" y="9" dy="0.71em">2016</text></g><g class="tick" opacity="1" transform="translate(170.7070645554202,0)"><line stroke="#000" y2="6"></line><text fill="#000" y="9" dy="0.71em">2017</text></g><g class="tick" opacity="1" transform="translate(227.39098660170524,0)"><line stroke="#000" y2="6"></line><text fill="#000" y="9" dy="0.71em">2018</text></g></g><g class="y axis" transform="translate(255,0)" fill="none" font-size="10" font-family="sans-serif" text-anchor="start"><path class="domain" stroke="#000" d="M0,120.5H0.5V0.5H0"></path><g class="tick" opacity="1" transform="translate(0,120.5)"><line stroke="#000" x2="-255"></line><text fill="#000" x="3" dy="0.32em">4.0</text></g><g class="tick" opacity="1" transform="translate(0,96.49999999999997)"><line stroke="#000" x2="-255"></line><text fill="#000" x="3" dy="0.32em">4.2</text></g><g class="tick" opacity="1" transform="translate(0,72.49999999999996)"><line stroke="#000" x2="-255"></line><text fill="#000" x="3" dy="0.32em">4.4</text></g><g class="tick" opacity="1" transform="translate(0,48.50000000000004)"><line stroke="#000" x2="-255"></line><text fill="#000" x="3" dy="0.32em">4.6</text></g><g class="tick" opacity="1" transform="translate(0,24.50000000000003)"><line stroke="#000" x2="-255"></line><text fill="#000" x="3" dy="0.32em">4.8</text></g><g class="tick" opacity="1" transform="translate(0,0.5)"><line stroke="#000" x2="-255"></line><text fill="#000" x="3" dy="0.32em">5.0</text></g></g><g><path d="M0.05176613885505481,64.44L0.20706455542021923,60.72000000000003L0.3623629719853837,60.779999999999994L0.8282582216808769,60.09599999999999L0.9835566382460414,59.94000000000003L1.138855054811206,59.78399999999997L1.2941534713763703,55.10400000000001L1.4494518879415348,54.85199999999995L1.915347137637028,57.108000000000025L2.0706455542021924,56.46000000000004L2.2259439707673567,57.24000000000004L2.381242387332521,56.57999999999998L2.5365408038976858,56.00400000000004L3.002436053593179,55.70399999999999L3.1577344701583434,56.123999999999974L3.3130328867235077,56.48399999999999L3.468331303288672,56.244000000000014L3.6236297198538368,55.79999999999998L4.0895249695493305,54.54000000000005L4.244823386114494,56.06400000000001L4.400121802679659,56.616L4.555420219244824,58.164000000000016L4.710718635809988,60.18000000000001L5.176613885505481,61.35600000000004L5.331912302070646,63.84L5.48721071863581,64.83600000000003L5.642509135200974,63.876000000000026L5.797807551766139,62.795999999999985L6.2637028014616325,64.04399999999995L6.419001218026796,63.19200000000002L6.574299634591961,61.55999999999999L6.729598051157125,61.320000000000014L6.88489646772229,60.900000000000034L7.350791717417783,61.464L7.506090133982948,62.22000000000005L7.661388550548112,58.33200000000005L7.816686967113276,57.89999999999999L7.97198538367844,58.679999999999986L8.437880633373934,58.583999999999996L8.5931790499391,58.64399999999996L8.748477466504262,57.89999999999999L8.903775883069427,61.320000000000014L9.059074299634592,59.66400000000004L9.524969549330084,56.39999999999997L9.680267965895249,59.05199999999997L9.835566382460414,60.659999999999954L9.990864799025578,60.69599999999998L10.146163215590743,59.81999999999999L10.612058465286236,60.44400000000003L10.7673568818514,59.532000000000025L10.922655298416565,58.704000000000036L11.07795371498173,58.536L11.233252131546893,59.18399999999998L11.699147381242387,58.764L11.854445797807552,59.94000000000003L12.009744214372716,60.63600000000001L12.16504263093788,61.58400000000004L12.320341047503044,62.04000000000004L12.786236297198538,63.08399999999995L12.941534713763701,63.34799999999998L13.096833130328866,63.108000000000004L13.25213154689403,63.91200000000005L13.407429963459196,64.524L13.873325213154688,64.62L14.028623629719853,64.40399999999997L14.183922046285018,63.972000000000016L14.339220462850182,63.73200000000004L14.494518879415347,64.83600000000003L14.96041412911084,64.02000000000001L15.115712545676004,64.88400000000001L15.27101096224117,64.78800000000004L15.426309378806335,64.75200000000001L15.581607795371498,64.21199999999999L16.047503045066993,63.89999999999997L16.202801461632156,63.552000000000035L16.358099878197322,63.92400000000002L16.513398294762485,64.44L16.66869671132765,64.51200000000003L17.13459196102314,64.38000000000002L17.289890377588307,64.10400000000003L17.44518879415347,64.16399999999999L17.600487210718637,66.14399999999996L17.7557856272838,65.83200000000005L18.221680876979296,65.88000000000005L18.37697929354446,66.20400000000004L18.53227771010962,67.47600000000006L18.687576126674784,68.01599999999996L18.84287454323995,68.40000000000003L19.308769792935443,67.19999999999996L19.46406820950061,68.02800000000005L19.619366626065773,68.87999999999998L19.77466504263094,67.68L19.929963459196102,67.91999999999999L20.395858708891595,68.69999999999997L20.551157125456758,68.07600000000005L20.706455542021924,67.44000000000003L20.861753958587087,67.62000000000003L21.017052375152254,68.22000000000003L21.482947624847746,68.54400000000001L21.638246041412913,67.59599999999999L21.793544457978076,68.66399999999996L21.94884287454324,70.19999999999999L22.1041412911084,71.17199999999997L22.570036540803898,71.54399999999995L22.72533495736906,72.624L22.880633373934227,72.624L23.03593179049939,72.68399999999997L23.191230207064557,74.09999999999997L23.657125456760046,72.624L23.812423873325212,72.42000000000004L23.967722289890375,72.17999999999996L24.12302070645554,72.81599999999997L24.278319123020708,73.49999999999997L24.7442143727162,73.57200000000003L24.899512789281367,73.80000000000003L25.05481120584653,72.48000000000002L25.210109622411697,72.99599999999998L25.365408038976856,72.97200000000004L25.831303288672352,72.66000000000003L25.986601705237515,72.12L26.14190012180268,72.71999999999998L26.297198538367844,72.98400000000001L26.45249695493301,72.30000000000001L26.9183922046285,72.99599999999998L27.073690621193666,72.936L27.22898903775883,73.49999999999997L27.384287454323996,73.30799999999999L27.53958587088916,73.20000000000005L28.005481120584655,73.83600000000004L28.160779537149818,73.49999999999997L28.316077953714984,73.44000000000001L28.471376370280147,73.38000000000005L28.62667478684531,73.51199999999994L29.092570036540803,73.55999999999995L29.24786845310597,73.49999999999997L29.403166869671132,72.81599999999997L29.5584652862363,71.46000000000004L29.71376370280146,69.65999999999997L30.179658952496958,69.54000000000005L30.334957369062117,69.37200000000001L30.490255785627284,67.40400000000001L30.645554202192447,66.9L30.800852618757613,65.16000000000003L31.266747868453105,66.28800000000005L31.422046285018272,67.02000000000005L31.577344701583435,70.01999999999998L31.7326431181486,71.67599999999996L31.88794153471376,72.53999999999998L32.35383678440926,73.59599999999998L32.50913520097442,71.14800000000002L32.664433617539586,71.88000000000002L32.81973203410475,68.66399999999996L32.97503045066991,68.364L33.44092570036541,68.40000000000003L33.59622411693057,66.9L33.75152253349574,67.26000000000002L33.9068209500609,66.70800000000003L34.06211936662607,66.61200000000005L34.528014616321556,67.08000000000001L34.68331303288672,67.26000000000002L34.83861144945189,67.59599999999999L34.99390986601705,67.51199999999997L35.149208282582215,67.91999999999999L35.61510353227771,68.17200000000003L35.770401948842874,68.33999999999996L35.92570036540804,70.01999999999998L36.08099878197321,71.78400000000003L36.23629719853837,72.01200000000003L36.70219244823386,72.45599999999996L36.857490864799026,72.49199999999999L37.012789281364185,72.82799999999995L37.16808769792936,71.39999999999998L37.32338611449452,72.09599999999995L37.78928136419002,72.61200000000002L37.94457978075518,70.66799999999998L38.099878197320336,72.06000000000003L38.2551766138855,72.27599999999995L38.41047503045067,71.81999999999995L38.87637028014616,69.89999999999995L39.03166869671133,69.47999999999996L39.186967113276495,69.75599999999997L39.342265529841654,69.99600000000004L39.49756394640682,69.696L39.96345919610231,70.71599999999997L40.11875761266747,70.27200000000005L40.274056029232646,69.20399999999998L40.429354445797806,71.03999999999996L40.58465286236297,71.95199999999997L41.050548112058465,71.844L41.20584652862363,71.88000000000002L41.36114494518879,71.75999999999999L41.51644336175396,70.86000000000006L41.671741778319124,69.744L42.137637028014616,70.97999999999999L42.29293544457978,70.68000000000005L42.44823386114494,71.00400000000005L42.603532277710116,70.21199999999996L42.758830694275275,70.38L43.22472594397077,70.82400000000004L43.380024360535934,71.28000000000003L43.53532277710109,71.16L43.69062119366626,71.57999999999998L43.84591961023143,71.41200000000005L44.31181485992692,71.74800000000002L44.467113276492086,70.43999999999997L44.62241169305725,68.64000000000001L44.77771010962241,69.62399999999995L44.93300852618757,70.12799999999996L45.39890377588307,70.19999999999999L45.55420219244823,69.99600000000004L45.7095006090134,69.11999999999995L45.86479902557856,69.34799999999996L46.02009744214373,69.43199999999997L46.48599269183922,68.94000000000005L46.64129110840438,69.45600000000002L46.79658952496955,69.38399999999999L46.951887941534714,69.60000000000001L47.10718635809988,70.74000000000001L47.57308160779537,70.01999999999998L47.72838002436054,70.25999999999996L47.8836784409257,69.65999999999997L48.038976857490866,68.69999999999997L48.19427527405603,67.76400000000002L48.66017052375152,68.86800000000001L48.81546894031669,68.87999999999998L48.97076735688185,68.29199999999997L49.12606577344702,68.46000000000001L49.28136419001218,68.82000000000002L49.747259439707676,67.70399999999995L49.902557856272836,67.76400000000002L50.057856272838,66.59999999999997L50.21315468940317,66.9L50.36845310596833,67.55999999999997L50.83434835566383,67.97999999999995L50.98964677222899,68.00399999999999L51.14494518879415,69.96000000000002L51.30024360535932,69.47999999999996L51.45554202192449,68.15999999999995L51.92143727161998,67.80000000000004L52.07673568818514,68.66399999999996L52.232034104750305,68.90400000000002L52.387332521315464,68.412L52.54263093788064,67.62000000000003L53.00852618757612,67.10399999999996L53.1638246041413,67.44000000000003L53.319123020706456,66.41999999999996L53.474421437271616,66.14399999999996L53.62971985383678,60.563999999999965L54.095615103532275,62.11199999999998L54.25091352009744,62.33999999999998L54.40621193666261,62.75999999999996L54.561510353227774,62.93999999999997L54.716808769792934,63.47999999999999L55.182704019488426,63.360000000000056L55.33800243605359,61.70399999999997L55.49330085261875,64.07999999999998L55.648599269183926,64.63199999999998L55.803897685749085,64.62L56.269792935444585,63.47999999999999L56.425091352009744,61.440000000000055L56.58038976857491,62.04000000000004L56.73568818514007,62.00400000000002L56.89098660170524,59.208000000000034L57.35688185140073,60.44400000000003L57.512180267965896,60.18000000000001L57.66747868453106,60.28799999999997L57.82277710109622,61.55999999999999L57.97807551766139,60.900000000000034L58.44397076735688,61.619999999999955L58.59926918392204,60.900000000000034L58.75456760048721,60.155999999999956L58.90986601705237,59.52000000000005L59.06516443361754,59.772L59.53105968331303,59.67600000000001L59.6863580998782,58.44000000000001L59.84165651644336,59.78399999999997L59.99695493300853,60.86400000000001L60.15225334957369,62.00400000000002L60.61814859926918,63.00000000000004L60.77344701583435,64.48799999999999L60.92874543239951,65.76L61.08404384896468,67.02000000000005L61.23934226552984,67.68L61.70523751522534,70.83600000000001L61.8605359317905,71.12399999999997L62.01583434835566,71.46000000000004L62.17113276492083,70.04400000000004L62.326431181485994,70.25999999999996L62.792326431181486,68.51999999999997L62.94762484774665,67.73999999999998L63.10292326431182,66.41999999999996L63.25822168087698,67.40400000000001L63.413520097442145,66.66000000000004L63.87941534713763,66.56400000000005L64.0347137637028,65.77199999999998L64.19001218026797,66.084L64.34531059683313,66.51599999999995L64.50060901339829,64.77599999999995L64.9665042630938,66.02400000000003L65.12180267965896,66.82799999999997L65.27710109622411,69.02399999999997L65.43239951278929,68.26800000000003L65.58769792935443,68.15999999999995L66.05359317904994,66.27599999999998L66.2088915956151,64.85999999999997L66.36419001218027,65.81999999999996L66.51948842874543,66.53999999999999L66.6747868453106,66.41999999999996L67.1406820950061,67.13999999999999L67.29598051157124,66.40799999999999L67.45127892813642,66.53999999999999L67.60657734470159,66.9L67.76187576126675,66.768L68.22777101096224,67.35600000000002L68.38306942752742,66.66000000000004L68.53836784409256,65.70000000000005L68.69366626065774,68.77200000000002L68.84896467722291,67.51199999999997L69.31485992691839,70.79999999999998L69.47015834348356,71.06400000000001L69.62545676004872,70.00800000000001L69.78075517661388,68.44800000000004L69.93605359317905,69.27600000000001L70.40194884287455,71.70000000000002L70.5572472594397,70.43999999999997L70.71254567600486,69.89999999999995L70.86784409257004,69.89999999999995L71.0231425091352,70.50000000000004L71.48903775883069,69.89999999999995L71.64433617539586,70.35599999999995L71.79963459196102,72.30000000000001L71.95493300852618,72.38400000000001L72.11023142509136,70.74000000000001L72.57612667478685,71.16L72.73142509135201,70.59600000000003L72.88672350791718,69.05999999999999L73.04202192448233,70.79999999999998L73.1973203410475,69.04800000000002L73.663215590743,67.47600000000006L73.81851400730817,67.81200000000001L73.97381242387333,69.29999999999995L74.12911084043849,69.60000000000001L74.28440925700365,70.14000000000003L74.75030450669914,70.56L74.90560292326431,74.42399999999995L75.06090133982948,70.95600000000005L75.21619975639464,69.38399999999999L75.3714981729598,69.89999999999995L75.8373934226553,68.06399999999996L75.99269183922046,68.15999999999995L76.14799025578563,66.77999999999997L76.3032886723508,67.32L76.45858708891595,66.636L76.92448233861145,66.036L77.07978075517661,64.02000000000001L77.23507917174177,64.67999999999996L77.39037758830695,65.89200000000002L77.5456760048721,67.86000000000001L78.0115712545676,65.80799999999999L78.16686967113276,66.52800000000002L78.32216808769793,66.41999999999996L78.47746650426309,66.35999999999999L78.63276492082827,65.20800000000001L79.09866017052376,65.56800000000003L79.25395858708892,65.05199999999995L79.40925700365408,66.75600000000003L79.56455542021925,66.73199999999997L79.71985383678441,66.9L80.1857490864799,66.86399999999999L80.34104750304508,67.09199999999998L80.49634591961023,69.15599999999998L80.6516443361754,67.68L80.80694275274057,65.10000000000005L81.27283800243606,63.407999999999944L81.42813641900122,62.75999999999996L81.58343483556638,63.89999999999997L81.73873325213155,64.33200000000002L81.89403166869671,62.579999999999956L82.3599269183922,61.26000000000005L82.51522533495738,62.39999999999995L82.67052375152252,61.619999999999955L82.8258221680877,61.35600000000004L82.98112058465287,60.51599999999997L83.44701583434835,61.35600000000004L83.60231425091352,63.00000000000004L83.7576126674787,63.27600000000004L83.91291108404384,66.02400000000003L84.06820950060902,64.22399999999996L84.53410475030451,59.70000000000006L84.68940316686967,63.012000000000015L84.84470158343484,62.699999999999996L85,62.579999999999956L85.15529841656516,64.38000000000002L85.62119366626065,61.60799999999998L85.77649208282583,62.01599999999999L85.93179049939098,61.739999999999995L86.08708891595614,63.39599999999997L86.24238733252132,66.95999999999998L86.70828258221681,69.42L86.86358099878197,70.428L87.01887941534714,68.05199999999999L87.1741778319123,70.07999999999996L87.32947624847746,69.744L87.79537149817295,70.608L87.95066991473813,69.96000000000002L88.10596833130329,69.29999999999995L88.26126674786846,69.36000000000004L88.4165651644336,68.90400000000002L88.88246041412911,69.96000000000002L89.03775883069427,70.14000000000003L89.19305724725945,70.19999999999999L89.3483556638246,71.63999999999994L89.50365408038977,70.97999999999999L89.96954933008527,70.81199999999995L90.12484774665042,70.58399999999995L90.28014616321559,71.01600000000002L90.43544457978076,70.54800000000003L90.59074299634592,70.78800000000001L91.05663824604142,70.61999999999998L91.21193666260658,70.476L91.36723507917173,70.97999999999999L91.52253349573691,70.64400000000003L91.67783191230208,68.77200000000002L92.14372716199756,68.54400000000001L92.29902557856273,68.62800000000004L92.4543239951279,68.22000000000003L92.60962241169305,69.11999999999995L92.76492082825823,67.5L93.23081607795372,68.54400000000001L93.38611449451888,67.68L93.54141291108404,66.84000000000005L93.69671132764921,67.44000000000003L93.85200974421437,68.76000000000005L94.31790499390986,68.24399999999997L94.47320341047504,67.37999999999997L94.62850182704018,67.58400000000002L94.78380024360536,69.38399999999999L94.93909866017053,68.69999999999997L95.40499390986602,68.66399999999996L95.56029232643118,68.964L95.71559074299635,69.63600000000002L95.8708891595615,70.61999999999998L96.02618757612667,69.73200000000003L96.49208282582217,70.09200000000004L96.64738124238734,69.924L96.8026796589525,69.63600000000002L96.95797807551766,69.46799999999999L97.11327649208283,69.28799999999998L97.57917174177831,69.744L97.73447015834348,69.25199999999997L97.88976857490866,69.50400000000002L98.0450669914738,69.57599999999996L98.20036540803898,70.79999999999998L98.66626065773447,69.99600000000004L98.82155907429963,69.88799999999998L98.9768574908648,69.73200000000003L99.13215590742998,70.25999999999996L99.28745432399512,69.65999999999997L99.75334957369061,70.33200000000001L99.90864799025579,69.93599999999998L100.06394640682095,70.10400000000001L100.21924482338612,70.16399999999997L100.37454323995128,70.19999999999999L100.84043848964679,70.51200000000001L100.99573690621193,70.35599999999995L101.1510353227771,70.03199999999995L101.30633373934226,69.60000000000001L101.46163215590742,70.14000000000003L101.92752740560293,69.24L102.08282582216809,68.66399999999996L102.23812423873325,68.37599999999998L102.39342265529842,68.916L102.54872107186358,67.71600000000004L103.01461632155907,67.44000000000003L103.16991473812423,66.98400000000004L103.32521315468941,67.86000000000001L103.48051157125457,67.19999999999996L103.63580998781974,67.68L104.10170523751523,68.232L104.25700365408039,67.87199999999999L104.41230207064555,66.35999999999999L104.56760048721073,65.172L104.72289890377589,64.94399999999999L105.18879415347138,64.76399999999998L105.34409257003655,66.84000000000005L105.4993909866017,67.5L105.65468940316687,67.19999999999996L105.80998781973204,67.26000000000002L106.27588306942752,67.42799999999995L106.4311814859927,67.19999999999996L106.58647990255785,66.64799999999997L106.74177831912301,67.65599999999995L106.89707673568819,66.01199999999994L107.36297198538368,66.30000000000003L107.51827040194884,65.94000000000001L107.673568818514,66.56400000000005L107.82886723507917,66.86399999999999L107.98416565164433,65.92800000000004L108.45006090133982,65.10000000000005L108.605359317905,63.96000000000004L108.76065773447016,64.40399999999997L108.91595615103532,63.972000000000016L109.07125456760049,61.943999999999946L109.53714981729598,62.351999999999954L109.69244823386114,61.65599999999998L109.84774665042632,60.51599999999997L110.00304506699146,57.86399999999997L110.15834348355664,57.324000000000055L110.62423873325213,59.35200000000002L110.7795371498173,60.59999999999999L110.93483556638246,57.852L111.09013398294762,58.20000000000004L111.24543239951278,58.64399999999996L111.71132764920827,58.44000000000001L111.86662606577345,57.48000000000001L112.02192448233862,56.90399999999997L112.17722289890378,56.46000000000004L112.33252131546894,56.55600000000003L112.79841656516443,56.759999999999984L112.95371498172959,55.19999999999999L113.10901339829476,56.50800000000004L113.26431181485994,58.043999999999976L113.88550548112059,56.99999999999996L114.04080389768575,57.75600000000001L114.19610231425091,57.15600000000002L114.35140073081608,56.52000000000001L114.50669914738124,56.93999999999999L114.97259439707673,56.16L115.12789281364189,56.41200000000005L115.28319123020707,55.79999999999998L115.43848964677223,55.860000000000056L115.5937880633374,55.067999999999984L116.05968331303289,55.860000000000056L116.21498172959805,55.89599999999997L116.37028014616321,55.82400000000004L116.52557856272838,56.46000000000004L116.68087697929354,56.13600000000005L117.14677222898904,56.57999999999998L117.30207064555421,56.28000000000004L117.45736906211937,55.067999999999984L117.61266747868453,54.89999999999995L117.7679658952497,54.00000000000003L118.2338611449452,57.21599999999999L118.38915956151035,58.043999999999976L118.54445797807551,58.476000000000035L118.69975639464069,59.12400000000002L118.85505481120585,60.779999999999994L119.32095006090134,62.31600000000004L119.47624847746651,61.30800000000004L119.63154689403166,62.75999999999996L119.78684531059683,62.795999999999985L119.942143727162,62.93999999999997L120.40803897685748,63.71999999999996L120.56333739342266,64.58399999999997L120.71863580998783,64.64400000000005L120.87393422655298,64.22399999999996L121.02923264311815,61.860000000000035L121.49512789281364,63.02399999999999L121.6504263093788,62.75999999999996L121.80572472594397,62.66399999999997L121.96102314250913,63.69600000000002L122.1163215590743,63.89999999999997L122.58221680876979,64.16399999999999L122.73751522533496,63.84L122.89281364190012,65.24400000000003L123.04811205846528,64.44L123.20341047503045,64.74000000000004L123.66930572472594,64.49999999999996L123.8246041412911,64.05600000000004L123.97990255785628,64.69200000000004L124.13520097442144,64.31999999999995L124.2904993909866,64.02000000000001L124.75639464068209,63.92400000000002L124.91169305724726,63.00000000000004L125.06699147381242,62.280000000000015L125.2222898903776,62.88L125.37758830694274,63.18000000000005L125.84348355663825,63.744000000000014L125.9987819732034,63.96000000000004L126.15408038976858,64.344L126.30937880633374,64.31999999999995L126.4646772228989,64.38000000000002L126.9305724725944,64.48799999999999L127.08587088915955,64.116L127.24116930572472,63.96000000000004L127.3964677222899,63.648000000000025L127.55176613885504,63.78000000000004L128.01766138855055,64.25999999999999L128.1729598051157,64.25999999999999L128.3282582216809,63.84L128.48355663824603,63.744000000000014L128.6388550548112,64.09200000000006L129.1047503045067,63.86399999999995L129.26004872107188,63.60000000000003L129.41534713763704,63.527999999999984L129.5706455542022,63.240000000000016L129.72594397076733,62.592000000000034L130.19183922046284,62.496000000000045L130.34713763702803,62.77200000000004L130.5024360535932,62.483999999999966L130.65773447015835,62.33999999999998L130.8130328867235,62.88L131.278928136419,62.39999999999995L131.43422655298417,63.311999999999955L131.58952496954933,64.49999999999996L131.74482338611452,62.93999999999997L131.90012180267965,62.39999999999995L132.36601705237516,61.58400000000004L132.52131546894032,61.24799999999997L132.67661388550547,59.45999999999998L132.83191230207066,59.55599999999997L132.98721071863582,60.59999999999999L133.4531059683313,61.50000000000002L133.60840438489646,61.619999999999955L133.76370280146165,60.779999999999994L133.9190012180268,60.360000000000014L134.07429963459197,60.97199999999997L134.54019488428744,61.55999999999999L134.69549330085263,61.65599999999998L134.8507917174178,58.64399999999996L135.00609013398295,59.65199999999996L135.1613885505481,58.10399999999994L135.6272838002436,58.27199999999998L135.78258221680878,58.98000000000003L135.93788063337394,59.65199999999996L136.0931790499391,59.16000000000004L136.24847746650428,59.24400000000006L136.71437271619976,59.58000000000002L136.86967113276492,57.86399999999997L137.02496954933008,57.58799999999997L137.18026796589527,58.10399999999994L137.33556638246043,57.79200000000003L137.8014616321559,58.88400000000004L137.95676004872107,59.087999999999994L138.11205846528622,59.30400000000002L138.2673568818514,58.91999999999996L138.42265529841657,58.02000000000003L138.88855054811205,58.139999999999965L139.0438489646772,57.02400000000001L139.1991473812424,55.89599999999997L139.35444579780756,55.18800000000002L139.50974421437272,54.62399999999995L139.9756394640682,55.68000000000005L140.13093788063335,55.24799999999999L140.28623629719854,57.02400000000001L140.4415347137637,58.90799999999999L140.59683313032886,56.472000000000016L141.06272838002434,56.52000000000001L141.21802679658953,56.60400000000003L141.3733252131547,56.639999999999944L141.52862362971985,57.13199999999997L141.68392204628503,57.60000000000005L142.1498172959805,58.056000000000054L142.30511571254567,56.90399999999997L142.46041412911083,57.66000000000002L142.615712545676,57.947999999999986L142.77101096224118,59.112000000000045L143.23690621193668,60.94800000000003L143.39220462850182,61.236L143.54750304506697,61.14000000000001L143.70280146163216,61.739999999999995L143.85809987819732,62.46000000000002L144.32399512789283,63.744000000000014L144.47929354445796,63.50400000000004L144.63459196102315,63.71999999999996L144.7898903775883,65.18399999999997L144.94518879415347,65.19600000000004L145.41108404384897,65.56800000000003L145.5663824604141,64.18800000000005L145.7216808769793,64.69200000000004L145.87697929354445,64.38000000000002L146.0322777101096,65.124L146.49817295980512,65.42400000000004L146.6534713763703,65.60400000000004L146.80876979293544,65.66400000000002L146.9640682095006,65.03999999999998L147.11936662606578,65.18399999999997L147.58526187576126,64.95599999999996L147.74056029232645,64.87200000000004L147.89585870889158,65.00399999999996L148.05115712545674,64.94399999999999L148.20645554202193,64.78800000000004L148.67235079171743,64.81199999999998L148.8276492082826,64.85999999999997L148.98294762484772,62.916000000000025L149.1382460414129,63.50400000000004L149.29354445797807,63.76799999999996L149.75943970767358,65.52000000000004L149.91473812423874,64.98000000000002L150.0700365408039,65.58L150.22533495736906,65.74800000000003L150.38063337393422,65.14800000000005L150.84652862362972,65.66400000000002L151.00182704019488,65.24400000000003L151.15712545676007,65.63999999999996L151.3124238733252,65.72399999999999L151.46772228989036,66.23999999999995L151.93361753958587,66.14399999999996L152.08891595615106,65.77199999999998L152.24421437271621,66.33600000000004L152.39951278928135,66.30000000000003L152.55481120584653,66.66000000000004L153.020706455542,66.38400000000004L153.1760048721072,66.30000000000003L153.33130328867236,66.35999999999999L153.48660170523752,66.38400000000004L153.64190012180268,66.09599999999998L154.10779537149818,66.17999999999998L154.26309378806334,66.01199999999994L154.4183922046285,66.26400000000001L154.5736906211937,66.14399999999996L154.72898903775882,65.84400000000002L155.19488428745433,65.99999999999997L155.3501827040195,65.988L155.50548112058465,66.12000000000002L155.66077953714984,65.24400000000003L155.81607795371497,66.85200000000002L156.28197320341047,65.84400000000002L156.43727161997563,65.03999999999998L156.59257003654082,64.69200000000004L156.74786845310598,62.74799999999999L156.90316686967114,58.44000000000001L157.36906211936662,60.62400000000004L157.5243605359318,61.79999999999996L157.67965895249696,60.047999999999995L157.83495736906212,60.023999999999944L157.99025578562728,58.992000000000004L158.45615103532276,58.34400000000002L158.61144945188795,59.58000000000002L158.7667478684531,60.12000000000004L158.92204628501827,59.772L159.07734470158346,59.099999999999966L159.54323995127893,59.37599999999996L159.6985383678441,60.900000000000034L159.85383678440925,60.264000000000024L160.00913520097444,59.81999999999999L160.1644336175396,59.25600000000003L160.63032886723508,59.436000000000035L160.78562728380024,60.13200000000001L160.9409257003654,60.12000000000004L161.09622411693059,60.264000000000024L161.25152253349574,60.47999999999995L161.71741778319122,60.13200000000001L161.87271619975638,58.85999999999999L162.02801461632157,59.436000000000035L162.18331303288673,59.315999999999995L162.3386114494519,57.78000000000006L162.80450669914737,58.139999999999965L162.95980511571253,58.62000000000002L163.11510353227771,57.407999999999966L163.27040194884287,58.24800000000003L163.42570036540803,58.380000000000045L163.8915956151035,58.704000000000036L164.0468940316687,58.78800000000005L164.20219244823386,59.436000000000035L164.35749086479902,58.559999999999945L164.5127892813642,58.28399999999995L164.97868453105968,58.380000000000045L165.13398294762484,58.84800000000002L165.28928136419,60.18000000000001L165.44457978075516,59.099999999999966L165.59987819732035,58.63199999999999L166.06577344701583,60.143999999999984L166.221071863581,59.78399999999997L166.37637028014615,60.228L166.53166869671134,60.01199999999997L166.6869671132765,59.724000000000004L167.152862362972,60.228L167.30816077953713,58.967999999999954L167.46345919610232,57.53999999999998L167.61875761266748,57.420000000000044L167.77405602923264,58.62000000000002L168.23995127892815,57.719999999999985L168.39524969549328,58.49999999999998L168.55054811205846,58.28399999999995L168.70584652862362,56.70000000000002L168.86114494518878,55.97999999999999L169.48233861144945,55.860000000000056L169.6376370280146,54.96000000000002L169.79293544457977,55.860000000000056L169.94823386114496,55.46400000000003L170.41412911084046,55.09200000000004L170.5694275274056,57.179999999999964L170.72472594397075,58.800000000000026L170.8800243605359,59.099999999999966L171.0353227771011,59.18399999999998L171.5012180267966,60.97199999999997L171.65651644336177,60.33599999999996L171.8118148599269,60.59999999999999L171.96711327649209,60.72000000000003L172.12241169305724,60.32399999999999L172.58830694275275,59.87999999999996L172.7436053593179,59.87999999999996L172.89890377588307,60.34800000000004L173.05420219244823,60L173.2095006090134,60.239999999999974L173.6753958587089,59.90400000000001L173.83069427527406,59.831999999999965L173.98599269183921,59.976000000000056L174.14129110840437,60.25200000000005L174.29658952496953,57.348L174.76248477466504,60L174.91778319123023,60.59999999999999L175.0730816077954,55.09200000000004L175.22838002436052,57.420000000000044L175.3836784409257,57.083999999999975L175.84957369062118,59.42399999999996L176.00487210718637,61.464L176.16017052375153,61.37999999999998L176.31546894031666,60.396000000000036L176.47076735688185,60.47999999999995L176.93666260657736,59.91599999999998L177.09196102314252,59.44800000000001L177.24725943970768,58.62000000000002L177.40255785627284,57.13199999999997L177.557856272838,57.04800000000006L178.0237515225335,57.420000000000044L178.17904993909866,58.31999999999997L178.33434835566382,57.86399999999997L178.489646772229,57.97200000000004L178.64494518879414,56.81999999999995L179.11084043848965,58.260000000000005L179.2661388550548,57.275999999999954L179.42143727162,57.12L179.57673568818515,57.35999999999997L179.73203410475028,55.96800000000002L180.1979293544458,55.860000000000056L180.35322777101098,54.971999999999994L180.50852618757614,55.115999999999985L180.6638246041413,54.26400000000004L180.81912302070643,54.26400000000004L181.28501827040193,53.59200000000001L181.44031668696712,54.80399999999996L181.59561510353228,53.85600000000004L181.75091352009744,53.19599999999997L181.90621193666263,53.80800000000005L182.3721071863581,52.51199999999997L182.52740560292327,52.94400000000003L182.68270401948843,53.04000000000002L182.8380024360536,53.29199999999997L182.99330085261877,54.012L183.45919610231425,53.688L183.6144945188794,53.46000000000001L183.76979293544457,53.33999999999996L183.92509135200976,53.82000000000002L184.08038976857492,53.53200000000004L184.5462850182704,54.26400000000004L184.70158343483556,54.839999999999975L184.85688185140074,56.53199999999998L185.0121802679659,57.21599999999999L185.16747868453106,57.48000000000001L185.63337393422654,58.83599999999994L185.7886723507917,58.20000000000004L185.9439707673569,57.91199999999996L186.09926918392205,57.311999999999976L186.2545676004872,57.06000000000003L186.72046285018268,58.75200000000003L186.87576126674787,56.95199999999996L187.03105968331303,55.14000000000003L187.1863580998782,55.01999999999998L187.34165651644338,55.77600000000004L187.80755176613886,56.57999999999998L187.96285018270402,57.179999999999964L188.11814859926918,55.94399999999996L188.27344701583434,55.94399999999996L188.42874543239952,55.29599999999999L188.894640682095,54.07199999999996L189.04993909866016,54.012L189.20523751522532,54.54000000000005L189.3605359317905,54.31200000000004L189.51583434835567,53.82000000000002L189.98172959805115,54.19200000000001L190.1370280146163,54.00000000000003L190.2923264311815,53.58000000000004L190.44762484774665,54.372000000000014L190.6029232643118,54.36000000000004L191.0688185140073,53.76000000000005L191.22411693057245,54.13200000000003L191.37941534713764,51.77999999999997L191.5347137637028,51.900000000000006L191.69001218026796,52.860000000000014L192.15590742996346,52.72800000000001L192.31120584652862,53.58000000000004L192.46650426309378,53.87999999999998L192.62180267965894,53.71199999999995L192.77710109622413,52.62000000000003L193.24299634591964,52.08000000000001L193.39829476248477,51.27599999999998L193.55359317904993,52.06799999999994L193.70889159561509,51.635999999999996L193.86419001218027,51.77999999999997L194.33008526187578,51.72L194.4853836784409,52.10399999999996L194.64068209500607,51.53999999999999L194.79598051157126,52.139999999999986L194.95127892813642,52.572000000000045L195.41717417783192,52.65599999999995L195.57247259439708,52.02000000000005L195.72777101096224,50.700000000000045L195.8830694275274,49.74000000000004L196.03836784409256,49.968000000000046L196.50426309378807,48.67199999999997L196.65956151035323,48.28800000000001L196.8148599269184,48.29999999999998L196.97015834348355,50.99999999999997L197.1254567600487,51.40799999999999L197.5913520097442,50.86799999999997L197.7466504263094,52.31999999999999L197.90194884287453,54.21600000000005L198.0572472594397,51.624000000000024L198.21254567600488,52.39200000000004L198.67844092570036,51.23999999999995L198.83373934226555,49.884000000000015L198.9890377588307,49.043999999999954L199.14433617539584,49.02000000000001L199.29963459196102,51.17999999999998L199.76552984165653,51.56400000000005L199.9208282582217,51.48000000000003L200.07612667478685,52.34400000000005L200.231425091352,52.02000000000005L200.38672350791717,52.35600000000002L200.85261875761267,52.64399999999998L201.00791717417783,52.632000000000005L201.163215590743,51.86399999999999L201.31851400730815,51.74400000000006L201.4738124238733,51.587999999999994L201.93970767356882,52.62000000000003L202.09500609013398,52.29600000000005L202.25030450669917,52.044L202.40560292326433,52.34400000000005L202.56090133982946,52.78799999999997L203.02679658952496,52.73999999999998L203.18209500609015,53.33999999999996L203.3373934226553,52.70399999999995L203.49269183922047,52.764000000000024L203.6479902557856,52.5L204.1138855054811,52.559999999999974L204.2691839220463,52.30800000000002L204.42448233861145,51.77999999999997L204.5797807551766,51.059999999999945L204.73507917174177,51.17999999999998L205.20097442143728,51.21600000000001L205.35627283800244,51.23999999999995L205.5115712545676,49.824000000000055L205.6668696711328,49.98000000000002L205.82216808769795,49.355999999999966L206.28806333739342,49.775999999999954L206.44336175395858,49.884000000000015L206.59866017052374,49.56000000000003L206.75395858708893,49.94399999999999L206.9092570036541,48.24000000000001L207.37515225334957,48.347999999999985L207.53045066991473,49.139999999999944L207.68574908647992,48.93599999999999L207.84104750304508,48.25199999999998L207.99634591961023,48.56400000000001L208.4622411693057,48.888000000000005L208.6175395858709,48.744000000000014L208.77283800243606,48.56400000000001L208.92813641900122,48.25199999999998L209.08343483556638,47.79599999999999L209.54933008526186,48.39599999999997L209.70462850182705,47.879999999999995L209.8599269183922,47.79599999999999L210.01522533495736,47.79599999999999L210.17052375152255,47.77200000000005L210.63641900121803,48.24000000000001L210.7917174177832,47.84399999999998L210.94701583434835,48.33600000000001L211.10231425091354,48.29999999999998L211.2576126674787,48.26399999999995L211.72350791717417,48.108000000000004L211.87880633373933,47.928L212.0341047503045,48.22800000000004L212.18940316686968,47.78400000000002L212.34470158343484,48.56400000000001L212.81059683313032,49.74000000000004L212.96589524969548,49.60800000000003L213.12119366626067,50.59199999999997L213.27649208282583,51.12000000000002L213.43179049939098,50.74800000000003L213.89768574908646,51.56400000000005L214.05298416565162,49.620000000000005L214.2082825822168,49.78800000000004L214.36358099878197,49.49999999999996L214.51887941534713,49.74000000000004L214.9847746650426,49.98000000000002L215.1400730816078,49.920000000000044L215.29537149817295,49.487999999999985L215.4506699147381,48.18000000000005L215.6059683313033,48.02399999999999L216.0718635809988,48.347999999999985L216.22716199756394,48.144000000000034L216.3824604141291,48.108000000000004L216.53775883069426,48.311999999999955L216.69305724725945,46.943999999999946L217.15895249695495,48.09600000000003L217.31425091352008,47.567999999999984L217.46954933008524,47.49600000000004L217.62484774665043,48.071999999999974L217.7801461632156,48.744000000000014L218.2460414129111,49.10400000000003L218.40133982947623,44.06400000000005L218.55663824604142,45.14399999999998L218.71193666260658,43.260000000000005L218.86723507917173,42.528000000000006L219.33313032886724,41.880000000000024L219.4884287454324,42.79200000000003L219.64372716199756,43.463999999999956L219.79902557856272,43.44000000000001L219.95432399512788,43.34400000000002L220.4202192448234,42.28800000000004L220.57551766138857,42.44399999999999L220.7308160779537,41.928000000000026L220.88611449451886,41.74800000000002L221.04141291108405,43.30799999999999L221.50730816077953,43.24800000000003L221.66260657734472,42.98400000000001L221.81790499390985,42.756L221.973203410475,43.24800000000003L222.1285018270402,44.051999999999964L222.5943970767357,44.24400000000006L222.74969549330086,44.52000000000005L222.90499390986602,44.23199999999997L223.06029232643118,44.70000000000006L223.21559074299634,44.07600000000002L223.68148599269185,44.087999999999994L223.836784409257,44.44800000000001L223.99208282582217,44.20800000000003L224.14738124238733,44.291999999999945L224.30267965895248,45.360000000000014L224.768574908648,46.12800000000004L224.92387332521315,45.72000000000003L225.07917174177834,44.96399999999997L225.23447015834347,43.932000000000045L225.38976857490863,43.29600000000002L225.85566382460414,43.859999999999985L226.01096224116932,43.584L226.16626065773448,42.10800000000003L226.32155907429964,41.388000000000005L226.4768574908648,40.00800000000001L226.94275274056028,38.46000000000001L227.09805115712547,42.94799999999998L227.25334957369063,45.323999999999984L227.4086479902558,44.16000000000004L227.56394640682095,44.30400000000003L228.02984165651645,41.928000000000026L228.1851400730816,42.44399999999999L228.34043848964677,43.24800000000003L228.49573690621196,43.164000000000016L228.6510353227771,44.01599999999995L229.1169305724726,43.34400000000002L229.27222898903776,41.13600000000005L229.42752740560292,42.528000000000006L229.5828258221681,41.66399999999999L229.73812423873326,40.619999999999976L230.20401948842874,39.93599999999998L230.3593179049939,39.94800000000005L230.5146163215591,42.33600000000003L230.66991473812425,39.00000000000003L230.8252131546894,40.608000000000004L231.2911084043849,41.43599999999999L231.44640682095007,41.73600000000005L231.60170523751523,41.880000000000024L231.7570036540804,41.784000000000034L231.91230207064555,42.39599999999999L232.37819732034103,43.536L232.53349573690622,41.855999999999966L232.68879415347138,41.28000000000003L232.84409257003654,41.388000000000005L232.99939098660172,41.86800000000005L233.4652862362972,41.388000000000005L233.62058465286236,40.715999999999966L233.77588306942752,40.72800000000004L233.9311814859927,40.416000000000025L234.08647990255787,40.644000000000034L234.55237515225335,40.619999999999976L234.7076735688185,40.76399999999995L234.86297198538367,40.89599999999997L235.01827040194885,41.31600000000006L235.173568818514,41.639999999999944L235.6394640682095,41.01600000000002L235.79476248477465,40.35599999999995L235.95006090133984,41.21999999999997L236.105359317905,40.907999999999944L236.26065773447016,40.656000000000006L236.72655298416564,40.811999999999955L236.8818514007308,40.63199999999995L237.03714981729598,40.847999999999985L237.19244823386114,41.196000000000026L237.3477466504263,40.97999999999999L237.81364190012178,40.56L237.96894031668697,39.27600000000001L238.12423873325213,40.583999999999946L238.2795371498173,39.88799999999998L238.43483556638247,39.56399999999999L238.90073081607795,39.99600000000004L239.0560292326431,40.14000000000003L239.21132764920827,39.828L239.36662606577343,39.85199999999995L239.52192448233862,40.43999999999997L239.98781973203413,41.73600000000005L240.14311814859926,41.56800000000001L240.29841656516442,41.616L240.4537149817296,40.78800000000001L240.60901339829476,41.47200000000001L241.07490864799027,40.70399999999999L241.2302070645554,40.94399999999996L241.3855054811206,40.307999999999964L241.54080389768575,40.40400000000005L241.6961023142509,40.56L242.16199756394641,40.379999999999995L242.31729598051155,41.208L242.47259439707673,40.583999999999946L242.6278928136419,40.82400000000004L242.78319123020705,40.70399999999999L243.24908647990256,43.403999999999996L243.40438489646775,42.68399999999997L243.55968331303288,41.66399999999999L243.71498172959804,41.01600000000002L243.87028014616322,41.02799999999999L244.33617539585873,40.97999999999999L244.4914738124239,41.70000000000002L244.64677222898902,42.420000000000044L244.80207064555418,40.72800000000004L244.95736906211937,40.428L245.42326431181488,40.66799999999998L245.57856272838004,41.06400000000001L245.73386114494517,40.40400000000005L245.88915956151035,40.05600000000001L246.0444579780755,40.87200000000003L246.51035322777102,41.06400000000001" fill="none" stroke="#af516c" stroke-linejoin="round" stroke-linecap="round" stroke-width="2"></path></g></g></svg>