<svg xmlns="http://www.w3.org/2000/svg" viewBox="0 0 304 270"><style>/* <![CDATA[ */.chart-title{font-size:20px;fill:#43423e}.chart-subtitle{font-size:15px;fill:#74736c}.chart-source{font-size:10px;fill-opacity:.4}.axis .domain{fill:none;stroke:#74736c}.tick line{fill:none;stroke:#000;stroke-opacity:.2}.tick text{fill-opacity:.6;font-size:12px}.y.axis .tick line{stroke-dasharray:1}.y.axis .domain{fill:none;stroke-opacity:0}.y.axis .highlight-line{fill:none;stroke:#74736c}/* ]]> */</style><text class="chart-title" y="22">李克强指数</text><text class="chart-subtitle" y="42">年增长％</text><text class="chart-source" y="265">来源:彭博. 2018年4月23日</text><g transform="translate(1,100)"><g class="x axis" transform="translate(0,120)" fill="none" font-size="10" font-family="sans-serif" text-anchor="middle"><path class="domain" stroke="#000" d="M0.5,0V0.5H255.5V0"></path><g class="tick" opacity="1" transform="translate(18.703598670056717,0)"><line stroke="#000" y2="6"></line><text fill="#000" y="9" dy="0.71em">2006</text></g><g class="tick" opacity="1" transform="translate(55.110796010170155,0)"><line stroke="#000" y2="6"></line><text fill="#000" y="9" dy="0.71em">2008</text></g><g class="tick" opacity="1" transform="translate(91.56786622335224,0)"><line stroke="#000" y2="6"></line><text fill="#000" y="9" dy="0.71em">2010</text></g><g class="tick" opacity="1" transform="translate(127.97506356346567,0)"><line stroke="#000" y2="6"></line><text fill="#000" y="9" dy="0.71em">2012</text></g><g class="tick" opacity="1" transform="translate(164.43213377664776,0)"><line stroke="#000" y2="6"></line><text fill="#000" y="9" dy="0.71em">2014</text></g><g class="tick" opacity="1" transform="translate(200.8393311167612,0)"><line stroke="#000" y2="6"></line><text fill="#000" y="9" dy="0.71em">2016</text></g><g class="tick" opacity="1" transform="translate(237.29640132994328,0)"><line stroke="#000" y2="6"></line><text fill="#000" y="9" dy="0.71em">2018</text></g></g><g class="y axis" transform="translate(255,0)" fill="none" font-size="10" font-family="sans-serif" text-anchor="start"><path class="domain" stroke="#000" d="M0,120.5H0.5V0.5H0"></path><g class="tick" opacity="1" transform="translate(0,102.03846153846153)"><line stroke="#000" x2="-255"></line><text fill="#000" x="3" dy="0.32em">5</text></g><g class="tick" opacity="1" transform="translate(0,78.96153846153845)"><line stroke="#000" x2="-255"></line><text fill="#000" x="3" dy="0.32em">10</text></g><g class="tick" opacity="1" transform="translate(0,55.88461538461539)"><line stroke="#000" x2="-255"></line><text fill="#000" x="3" dy="0.32em">15</text></g><g class="tick" opacity="1" transform="translate(0,32.80769230769231)"><line stroke="#000" x2="-255"></line><text fill="#000" x="3" dy="0.32em">20</text></g><g class="tick" opacity="1" transform="translate(0,9.730769230769226)"><line stroke="#000" x2="-255"></line><text fill="#000" x="3" dy="0.32em">25</text></g></g><g><path d="M1.512810483082339,59.53846153846154L2.9092509290044983,79.2923076923077L4.4553099941326035,70.43076923076923L5.95149618619206,70.43076923076923L7.497555251320164,68.76923076923077L8.993741443379621,69.96923076923076L10.539800508507724,67.1076923076923L12.08585957363583,75.6L13.582045765695286,73.93846153846154L15.128104830823391,78.46153846153845L16.624291022882847,72.09230769230768L18.170350088010952,64.47692307692307L19.716409153139058,80.95384615384614L21.112849599061217,75.78461538461539L22.658908664189322,71.07692307692308L24.15509485624878,68.95384615384614L25.701153921376882,67.01538461538462L27.197340113436336,65.16923076923077L28.74339917856444,65.53846153846153L30.289458243692547,58.615384615384606L31.785644435752005,62.723076923076924L33.33170350088011,62.215384615384615L34.827889692939564,66.09230769230768L36.37394875806767,64.47692307692307L37.920007823195775,44.769230769230774L39.316448269117934,52.246153846153845L40.86250733424604,65.72307692307692L42.358693526305494,60.18461538461538L43.9047525914336,56.815384615384616L45.40093878349306,55.153846153846146L46.946997848621166,55.33846153846153L48.49305691374927,58.66153846153847L49.989243105808725,59.95384615384615L51.53530217093683,61.753846153846155L53.031488362996285,61.98461538461538L54.57754742812438,65.53846153846153L56.12360649325249,74.12307692307692L57.5699198122433,71.3076923076923L59.115978877371404,57.18461538461539L60.612165069430866,67.1076923076923L62.15822413455897,69.6L63.654410326618425,77.95384615384616L65.20046939174654,76.84615384615384L66.74652845687463,82.15384615384616L68.24271464893408,88.66153846153846L69.7887737140622,105.36923076923077L71.28495990612166,113.4L72.83101897124975,112.61538461538461L74.37707803637787,96.13846153846154L75.77351848230002,93.36923076923077L77.31957754742812,77.67692307692307L78.81576373948758,81.64615384615385L80.36182280461568,78.09230769230768L81.85800899667514,56.676923076923075L83.40406806180326,54.923076923076934L84.95012712693135,45.87692307692308L86.4463133189908,43.29230769230769L87.99237238411891,25.56923076923077L89.48855857617836,0.8307692307692349L91.03461764130648,0.9230769230769198L92.58067670643457,8.307692307692307L93.97711715235674,25.799999999999997L95.52317621748485,43.476923076923086L97.01936240954429,32.400000000000006L98.5654214746724,36.184615384615384L100.06160766673186,60.18461538461538L101.60766673185996,63.50769230769231L103.15372579698807,62.4L104.64991198904752,73.19999999999999L106.19597105417563,75.13846153846154L107.69215724623508,69.41538461538461L109.2382163113632,73.66153846153847L110.7842753764913,67.38461538461539L112.18071582241346,63.87692307692308L113.72677488754155,57.50769230769231L115.222961079601,65.72307692307692L116.76902014472913,65.63076923076923L118.26520633678858,58.33846153846154L119.81126540191669,63.04615384615385L121.35732446704479,69.50769230769231L122.85351065910424,66.46153846153847L124.39956972423235,71.44615384615385L125.8957559162918,75.87692307692308L127.44181498141991,70.43076923076923L128.987874046548,82.8923076923077L130.43418736553883,78.73846153846154L131.9802464306669,80.76923076923077L133.47643262272638,91.84615384615384L135.02249168785448,88.61538461538461L136.51867787991395,98.03076923076924L138.06473694504206,96.83076923076923L139.61079601017016,97.01538461538462L141.1069822022296,96.64615384615385L142.6530412673577,87.13846153846154L144.14922745941718,81.96923076923076L145.69528652454528,82.06153846153846L147.2413455896734,85.66153846153847L148.63778603559555,96.0923076923077L150.18384510072366,94.61538461538461L151.6800312927831,90.64615384615385L153.2260903579112,97.1076923076923L154.72227654997064,89.26153846153846L156.26833561509875,82.7076923076923L157.81439468022688,69.50769230769231L159.31058087228632,78L160.85663993741446,78.64615384615385L162.3528261294739,84.55384615384617L163.89888519460197,82.33846153846153L165.4449442597301,91.38461538461539L166.84138470565225,93.78461538461539L168.38744377078035,94.43076923076923L169.88362996283982,97.24615384615385L171.42968902796792,90.87692307692308L172.9258752200274,91.24615384615385L174.4719342851555,97.33846153846153L176.01799335028358,106.8923076923077L177.51417954234304,98.35384615384615L179.06023860747115,103.66153846153847L180.55642479953062,104.67692307692307L182.10248386465872,106.70769230769231L183.6485429297868,101.67692307692307L185.044983375709,107.53846153846153L186.5910424408371,116.26153846153846L188.08722863289654,106.01538461538462L189.63328769802465,110.53846153846153L191.12947389008409,112.01538461538462L192.6755329552122,113.03076923076924L194.22159202034032,110.35384615384615L195.71777821239976,119.26153846153846L197.26383727752787,117.87692307692308L198.7600234695873,113.63076923076923L200.30608253471542,114.32307692307693L201.85214159984355,108.6L203.29845491883435,107.86153846153846L204.84451398396246,94.24615384615385L206.34070017602193,105.96923076923076L207.88675924115,104.12307692307692L209.38294543320944,98.86153846153846L210.92900449833758,90.73846153846154L212.47506356346568,83.07692307692307L213.97124975552512,79.1076923076923L215.51730882065326,75.78461538461539L217.0134950127127,74.12307692307692L218.5595540778408,75.13846153846154L220.1056131429689,78.23076923076923L221.50205358889104,65.3076923076923L223.04811265401915,70.24615384615385L224.54429884607862,76.38461538461539L226.09035791120672,76.56923076923077L227.5865441032662,73.1076923076923L229.1326031683943,66.36923076923077L230.67866223352237,79.2L232.17484842558184,80.4L233.72090749070995,87.6923076923077L235.21709368276942,89.81538461538462L236.76315274789752,91.01538461538462L238.3092118130256,72.83076923076922L239.7056522589478,80.03076923076924L241.2517113240759,95.03076923076924" fill="none" stroke="#af516c" stroke-linejoin="round" stroke-linecap="round" stroke-width="2"></path></g></g></svg>