<svg xmlns="http://www.w3.org/2000/svg" viewBox="0 0 304 270"><style>/* <![CDATA[ */.chart-title{font-size:20px;fill:#43423e}.chart-subtitle{font-size:15px;fill:#74736c}.chart-source{font-size:10px;fill-opacity:.4}.axis .domain{fill:none;stroke:#74736c}.tick line{fill:none;stroke:#000;stroke-opacity:.2}.tick text{fill-opacity:.6;font-size:12px}.y.axis .tick line{stroke-dasharray:1}.y.axis .domain{fill:none;stroke-opacity:0}.y.axis .highlight-line{fill:none;stroke:#74736c}/* ]]> */</style><text class="chart-title" y="22">制造业产出</text><text class="chart-subtitle" y="42">年增长％</text><text class="chart-source" y="265">来源:英国国家统计局╱彭博. 2018年4月11日</text><g transform="translate(1,100)"><g class="x axis" transform="translate(0,120)" fill="none" font-size="10" font-family="sans-serif" text-anchor="middle"><path class="domain" stroke="#000" d="M0.5,0V0.5H255.5V0"></path><g class="tick" opacity="1" transform="translate(18.703598670056717,0)"><line stroke="#000" y2="6"></line><text fill="#000" y="9" dy="0.71em">2006</text></g><g class="tick" opacity="1" transform="translate(55.110796010170155,0)"><line stroke="#000" y2="6"></line><text fill="#000" y="9" dy="0.71em">2008</text></g><g class="tick" opacity="1" transform="translate(91.56786622335224,0)"><line stroke="#000" y2="6"></line><text fill="#000" y="9" dy="0.71em">2010</text></g><g class="tick" opacity="1" transform="translate(127.97506356346567,0)"><line stroke="#000" y2="6"></line><text fill="#000" y="9" dy="0.71em">2012</text></g><g class="tick" opacity="1" transform="translate(164.43213377664776,0)"><line stroke="#000" y2="6"></line><text fill="#000" y="9" dy="0.71em">2014</text></g><g class="tick" opacity="1" transform="translate(200.8393311167612,0)"><line stroke="#000" y2="6"></line><text fill="#000" y="9" dy="0.71em">2016</text></g><g class="tick" opacity="1" transform="translate(237.29640132994328,0)"><line stroke="#000" y2="6"></line><text fill="#000" y="9" dy="0.71em">2018</text></g></g><g class="y axis" transform="translate(255,0)" fill="none" font-size="10" font-family="sans-serif" text-anchor="start"><path class="domain" stroke="#000" d="M0,120.5H0.5V0.5H0"></path><g class="tick" opacity="1" transform="translate(0,97.64285714285714)"><line stroke="#000" x2="-255"></line><text fill="#000" x="3" dy="0.32em">-10</text></g><g class="tick" opacity="1" transform="translate(0,69.07142857142858)"><line stroke="#000" x2="-255"></line><text fill="#000" x="3" dy="0.32em">-5</text></g><g class="tick" opacity="1" transform="translate(0,40.5)"><line stroke="#000" x2="-255"></line><text fill="#000" x="3" dy="0.32em">0</text></g><g class="tick" opacity="1" transform="translate(0,11.92857142857143)"><line stroke="#000" x2="-255"></line><text fill="#000" x="3" dy="0.32em">5</text></g><line class="highlight-line" x1="0" y1="40" x2="-255" y2="40"></line></g><g><path d="M1.512810483082339,36.57142857142857L2.9092509290044983,35.428571428571416L4.4553099941326035,60.57142857142857L5.95149618619206,43.428571428571416L7.497555251320164,41.14285714285714L8.993741443379621,35.428571428571416L10.539800508507724,25.714285714285722L12.08585957363583,29.714285714285722L13.582045765695286,46.85714285714285L15.128104830823391,43.428571428571416L16.624291022882847,40.57142857142857L18.170350088010952,38.85714285714286L19.716409153139058,36L21.112849599061217,37.14285714285714L22.658908664189322,18.85714285714286L24.15509485624878,32.571428571428555L25.701153921376882,30.285714285714278L27.197340113436336,31.428571428571416L28.74339917856444,30.85714285714286L30.289458243692547,26.85714285714286L31.785644435752005,18.285714285714292L33.33170350088011,18.285714285714292L34.827889692939564,22.85714285714286L36.37394875806767,28L37.920007823195775,21.714285714285722L39.316448269117934,33.14285714285714L40.86250733424604,34.85714285714285L42.358693526305494,33.71428571428571L43.9047525914336,32L45.40093878349306,37.14285714285714L46.946997848621166,39.42857142857143L48.49305691374927,35.428571428571416L49.989243105808725,42.85714285714285L51.53530217093683,43.428571428571416L53.031488362996285,41.14285714285714L54.57754742812438,41.14285714285714L56.12360649325249,41.14285714285714L57.5699198122433,30.85714285714286L59.115978877371404,43.999999999999986L60.612165069430866,42.28571428571428L62.15822413455897,49.71428571428571L63.654410326618425,54.28571428571428L65.20046939174654,49.71428571428571L66.74652845687463,56L68.24271464893408,60L69.7887737140622,64L71.28495990612166,85.71428571428572L72.83101897124975,94.28571428571429L74.37707803637787,114.28571428571429L75.77351848230002,115.42857142857143L77.31957754742812,104L78.81576373948758,98.85714285714286L80.36182280461568,106.85714285714286L81.85800899667514,99.42857142857143L83.40406806180326,99.42857142857143L84.95012712693135,103.42857142857143L86.4463133189908,86.28571428571428L87.99237238411891,81.71428571428571L89.48855857617836,57.14285714285714L91.03461764130648,48.57142857142857L92.58067670643457,33.71428571428571L93.97711715235674,25.714285714285722L95.52317621748485,16.000000000000014L97.01936240954429,25.14285714285714L98.5654214746724,13.142857142857153L100.06160766673186,8.57142857142857L101.60766673185996,9.714285714285708L103.15372579698807,0.5714285714285836L104.64991198904752,8.57142857142857L106.19597105417563,4.571428571428584L107.69215724623508,9.714285714285708L109.2382163113632,13.714285714285708L110.7842753764913,5.714285714285722L112.18071582241346,10.285714285714292L113.72677488754155,24.571428571428584L115.222961079601,24.571428571428584L116.76902014472913,16.57142857142857L118.26520633678858,26.85714285714286L119.81126540191669,29.714285714285722L121.35732446704479,33.14285714285714L122.85351065910424,34.85714285714285L124.39956972423235,43.428571428571416L125.8957559162918,42.28571428571428L127.44181498141991,34.28571428571428L128.987874046548,33.71428571428571L130.43418736553883,42.85714285714285L131.9802464306669,43.999999999999986L133.47643262272638,49.14285714285714L135.02249168785448,48L136.51867787991395,58.28571428571428L138.06473694504206,42.85714285714285L139.61079601017016,49.14285714285714L141.1069822022296,46.85714285714285L142.6530412673577,53.71428571428571L144.14922745941718,55.428571428571416L145.69528652454528,54.85714285714285L147.2413455896734,65.14285714285714L148.63778603559555,60.57142857142857L150.18384510072366,49.71428571428571L151.6800312927831,48.57142857142857L153.2260903579112,54.28571428571428L154.72227654997064,33.14285714285714L156.26833561509875,48.57142857142857L157.81439468022688,45.71428571428571L159.31058087228632,41.71428571428571L160.85663993741446,31.428571428571416L162.3528261294739,33.71428571428571L163.89888519460197,33.71428571428571L165.4449442597301,26.285714285714306L166.84138470565225,19.42857142857143L168.38744377078035,24.571428571428584L169.88362996283982,16.000000000000014L171.42968902796792,25.714285714285722L172.9258752200274,28L174.4719342851555,24L176.01799335028358,21.714285714285722L177.51417954234304,23.428571428571445L179.06023860747115,27.428571428571445L180.55642479953062,19.42857142857143L182.10248386465872,24.571428571428584L183.6485429297868,30.85714285714286L185.044983375709,32.571428571428555L186.5910424408371,32.571428571428555L188.08722863289654,40L189.63328769802465,37.14285714285714L191.12947389008409,38.85714285714286L192.6755329552122,48L194.22159202034032,44.57142857142857L195.71777821239976,40L197.26383727752787,40L198.7600234695873,49.14285714285714L200.30608253471542,47.42857142857143L201.85214159984355,38.85714285714286L203.29845491883435,46.28571428571428L204.84451398396246,48.57142857142857L206.34070017602193,31.428571428571416L207.88675924115,31.428571428571416L209.38294543320944,36.57142857142857L210.92900449833758,33.14285714285714L212.47506356346568,33.14285714285714L213.97124975552512,37.14285714285714L215.51730882065326,39.42857142857143L217.0134950127127,28L218.5595540778408,12.57142857142857L220.1056131429689,24L221.50205358889104,22.285714285714278L223.04811265401915,24.571428571428584L224.54429884607862,38.28571428571428L226.09035791120672,32L227.5865441032662,26.85714285714286L229.1326031683943,21.14285714285714L230.67866223352237,23.428571428571445L232.17484842558184,22.85714285714286L233.72090749070995,13.714285714285708L235.21709368276942,21.714285714285722L236.76315274789752,34.85714285714285L238.3092118130256,27.428571428571445L239.7056522589478,25.714285714285722" fill="none" stroke="#af516c" stroke-linejoin="round" stroke-linecap="round" stroke-width="2"></path></g></g></svg>