<svg xmlns="http://www.w3.org/2000/svg" viewBox="0 0 304 270"><style>/* <![CDATA[ */.chart-title{font-size:20px;fill:#43423e}.chart-subtitle{font-size:15px;fill:#74736c}.chart-source{font-size:10px;fill-opacity:.4}.axis .domain{fill:none;stroke:#74736c}.tick line{fill:none;stroke:#000;stroke-opacity:.2}.tick text{fill-opacity:.6;font-size:12px}.y.axis .tick line{stroke-dasharray:1}.y.axis .domain{fill:none;stroke-opacity:0}.y.axis .highlight-line{fill:none;stroke:#74736c}/* ]]> */</style><text class="chart-title" y="22">制造业活动</text><text class="chart-subtitle" y="42">数值大于50代表扩张</text><text class="chart-source" y="265">来源:Markit╱彭博. 2018年5月1日</text><g transform="translate(1,100)"><g class="x axis" transform="translate(0,120)" fill="none" font-size="10" font-family="sans-serif" text-anchor="middle"><path class="domain" stroke="#000" d="M0.5,0V0.5H255.5V0"></path><g class="tick" opacity="1" transform="translate(59.57750631844987,0)"><line stroke="#000" y2="6"></line><text fill="#000" y="9" dy="0.71em">2016</text></g><g class="tick" opacity="1" transform="translate(138.20429654591405,0)"><line stroke="#000" y2="6"></line><text fill="#000" y="9" dy="0.71em">2017</text></g><g class="tick" opacity="1" transform="translate(216.6162594776748,0)"><line stroke="#000" y2="6"></line><text fill="#000" y="9" dy="0.71em">2018</text></g></g><g class="y axis" transform="translate(255,0)" fill="none" font-size="10" font-family="sans-serif" text-anchor="start"><path class="domain" stroke="#000" d="M0,120.5H0.5V0.5H0"></path><g class="tick" opacity="1" transform="translate(0,120.5)"><line stroke="#000" x2="-255"></line><text fill="#000" x="3" dy="0.32em">48</text></g><g class="tick" opacity="1" transform="translate(0,98.68181818181819)"><line stroke="#000" x2="-255"></line><text fill="#000" x="3" dy="0.32em">50</text></g><g class="tick" opacity="1" transform="translate(0,76.86363636363636)"><line stroke="#000" x2="-255"></line><text fill="#000" x="3" dy="0.32em">52</text></g><g class="tick" opacity="1" transform="translate(0,55.04545454545455)"><line stroke="#000" x2="-255"></line><text fill="#000" x="3" dy="0.32em">54</text></g><g class="tick" opacity="1" transform="translate(0,33.22727272727272)"><line stroke="#000" x2="-255"></line><text fill="#000" x="3" dy="0.32em">56</text></g><g class="tick" opacity="1" transform="translate(0,11.409090909090907)"><line stroke="#000" x2="-255"></line><text fill="#000" x="3" dy="0.32em">58</text></g></g><g><path d="M12.961246840775063,74.18181818181816L19.406065711878686,77.45454545454547L26.06571187868576,70.9090909090909L32.72535804549284,80.72727272727272L39.17017691659646,80.72727272727272L45.82982308340354,51.27272727272731L52.27464195450716,73.09090909090912L58.93428812131424,87.27272727272728L65.59393428812132,74.18181818181816L71.82392586352148,89.45454545454548L78.48357203032856,86.18181818181816L84.92839090143218,98.18181818181819L91.58803706823926,90.54545454545452L98.03285593934288,63.27272727272724L104.69250210614996,114.54545454545455L111.35214827295704,63.27272727272724L117.79696714406066,37.09090909090908L124.45661331086774,56.72727272727276L130.90143218197136,63.27272727272724L137.56107834877844,37.09090909090908L144.22072451558552,41.454545454545425L150.23588879528225,49.09090909090909L156.8955349620893,53.45454545454544L163.34035383319292,13.090909090909122L170,26.18181818181816L176.44481887110362,50.1818181818182L183.1044650379107,40.3636363636364L189.76411120471778,24.00000000000003L196.2089300758214,32.72727272727272L202.86857624262848,30.54545454545452L209.3133951137321,7.636363636363669L215.97304128053918,32.72727272727272L222.63268744734626,43.63636363636364L228.64785172704296,44.72727272727275L235.30749789385004,44.72727272727275L241.75231676495366,55.636363636363654" fill="none" stroke="#af516c" stroke-linejoin="round" stroke-linecap="round" stroke-width="2"></path></g></g></svg>