<svg xmlns="http://www.w3.org/2000/svg" viewBox="0 0 304 270"><style>/* <![CDATA[ */.chart-title{font-size:20px;fill:#43423e}.chart-subtitle{font-size:15px;fill:#74736c}.chart-source{font-size:10px;fill-opacity:.4}.axis .domain{fill:none;stroke:#74736c}.tick line{fill:none;stroke:#000;stroke-opacity:.2}.tick text{fill-opacity:.6;font-size:12px}.y.axis .tick line{stroke-dasharray:1}.y.axis .domain{fill:none;stroke-opacity:0}.y.axis .highlight-line{fill:none;stroke:#74736c}/* ]]> */</style><text class="chart-title" y="22">每月住房抵押贷款核准数</text><text class="chart-subtitle" y="42">千</text><text class="chart-source" y="265">来源:英格兰银行╱彭博. 2018年5月1日</text><g transform="translate(1,100)"><g class="x axis" transform="translate(0,120)" fill="none" font-size="10" font-family="sans-serif" text-anchor="middle"><path class="domain" stroke="#000" d="M0.5,0V0.5H255.5V0"></path><g class="tick" opacity="1" transform="translate(18.703598670056717,0)"><line stroke="#000" y2="6"></line><text fill="#000" y="9" dy="0.71em">2006</text></g><g class="tick" opacity="1" transform="translate(55.110796010170155,0)"><line stroke="#000" y2="6"></line><text fill="#000" y="9" dy="0.71em">2008</text></g><g class="tick" opacity="1" transform="translate(91.56786622335224,0)"><line stroke="#000" y2="6"></line><text fill="#000" y="9" dy="0.71em">2010</text></g><g class="tick" opacity="1" transform="translate(127.97506356346567,0)"><line stroke="#000" y2="6"></line><text fill="#000" y="9" dy="0.71em">2012</text></g><g class="tick" opacity="1" transform="translate(164.43213377664776,0)"><line stroke="#000" y2="6"></line><text fill="#000" y="9" dy="0.71em">2014</text></g><g class="tick" opacity="1" transform="translate(200.8393311167612,0)"><line stroke="#000" y2="6"></line><text fill="#000" y="9" dy="0.71em">2016</text></g><g class="tick" opacity="1" transform="translate(237.29640132994328,0)"><line stroke="#000" y2="6"></line><text fill="#000" y="9" dy="0.71em">2018</text></g></g><g class="y axis" transform="translate(255,0)" fill="none" font-size="10" font-family="sans-serif" text-anchor="start"><path class="domain" stroke="#000" d="M0,120.5H0.5V0.5H0"></path><g class="tick" opacity="1" transform="translate(0,103.86633663366337)"><line stroke="#000" x2="-255"></line><text fill="#000" x="3" dy="0.32em">40</text></g><g class="tick" opacity="1" transform="translate(0,80.10396039603961)"><line stroke="#000" x2="-255"></line><text fill="#000" x="3" dy="0.32em">60</text></g><g class="tick" opacity="1" transform="translate(0,56.34158415841584)"><line stroke="#000" x2="-255"></line><text fill="#000" x="3" dy="0.32em">80</text></g><g class="tick" opacity="1" transform="translate(0,32.579207920792086)"><line stroke="#000" x2="-255"></line><text fill="#000" x="3" dy="0.32em">100</text></g><g class="tick" opacity="1" transform="translate(0,8.816831683168317)"><line stroke="#000" x2="-255"></line><text fill="#000" x="3" dy="0.32em">120</text></g></g><g><path d="M1.512810483082339,53.95366336633664L2.9092509290044983,48.257821782178226L4.4553099941326035,41.31089108910891L5.95149618619206,35.6590099009901L7.497555251320164,38.32514851485149L8.993741443379621,38.3560396039604L10.539800508507724,34.147722772277234L12.08585957363583,28.41623762376237L13.582045765695286,27.09267326732673L15.128104830823391,20.52000000000001L16.624291022882847,17.972673267326726L18.170350088010952,3.835247524752461L19.716409153139058,8.629306930693076L21.112849599061217,15.257821782178212L22.658908664189322,11.285940594059397L24.15509485624878,21.24831683168317L25.701153921376882,13.423366336633663L27.197340113436336,9.539405940594051L28.74339917856444,10.993663366336634L30.289458243692547,9.677227722772273L31.785644435752005,4.500594059405927L33.33170350088011,0.7164356435643384L34.827889692939564,0.9433663366336589L36.37394875806767,7.391287128712875L37.920007823195775,9.931485148514852L39.316448269117934,9.444356435643556L40.86250733424604,14.221782178217822L42.358693526305494,22.48871287128712L43.9047525914336,14.560396039603958L45.40093878349306,15.160396039603967L46.946997848621166,16.776237623762384L48.49305691374927,22.73227722772276L49.989243105808725,33.22455445544554L51.53530217093683,48.09386138613861L53.031488362996285,56.471287128712866L54.57754742812438,62.36079207920792L56.12360649325249,66.07247524752475L57.5699198122433,66.69742574257425L59.115978877371404,78.69029702970298L60.612165069430866,84.01188118811882L62.15822413455897,102.46217821782179L63.654410326618425,108.83881188118812L65.20046939174654,111.57623762376237L66.74652845687463,112.19881188118812L68.24271464893408,112.32000000000001L69.7887737140622,113.33584158415842L71.28495990612166,119.67683168316832L72.83101897124975,113.26930693069306L74.37707803637787,112.30099009900991L75.77351848230002,102.59881188118811L77.31957754742812,100.77861386138613L78.81576373948758,97.11683168316833L80.36182280461568,94.47683168316831L81.85800899667514,90.64752475247525L83.40406806180326,87.45980198019802L84.95012712693135,88.30693069306932L86.4463133189908,84.91841584158416L87.99237238411891,84.11762376237624L89.48855857617836,82.92356435643563L91.03461764130648,81.89821782178217L92.58067670643457,95.88831683168317L93.97711715235674,94.2819801980198L95.52317621748485,92.40950495049505L97.01936240954429,91.16673267326732L98.5654214746724,91.43049504950496L100.06160766673186,92.1849504950495L101.60766673185996,92.83366336633664L103.15372579698807,94.5219801980198L104.64991198904752,95.25029702970296L106.19597105417563,95.35247524752475L107.69215724623508,95.84079207920792L109.2382163113632,101.4629702970297L110.7842753764913,99.94455445544554L112.18071582241346,94.68356435643565L113.72677488754155,93.43247524752476L115.222961079601,96.12L116.76902014472913,94.96039603960395L118.26520633678858,92.2039603960396L119.81126540191669,90.64871287128713L121.35732446704479,87.84356435643565L122.85351065910424,90.2649504950495L124.39956972423235,89.38336633663366L125.8957559162918,89.0839603960396L127.44181498141991,89.4819801980198L128.987874046548,84.86970297029703L130.43418736553883,91.42930693069307L131.9802464306669,89.86574257425742L133.47643262272638,89.19564356435643L135.02249168785448,92.28L136.51867787991395,93.98257425742574L138.06473694504206,94.7120792079208L139.61079601017016,93.7069306930693L141.1069822022296,91.26178217821783L142.6530412673577,88.64673267326732L144.14922745941718,87.60950495049505L145.69528652454528,86.21702970297031L147.2413455896734,88.79643564356435L148.63778603559555,88.66336633663366L150.18384510072366,86.1790099009901L151.6800312927831,84.22930693069307L153.2260903579112,80.87049504950495L154.72227654997064,81.07722772277228L156.26833561509875,78.53584158415842L157.81439468022688,75.98257425742574L159.31058087228632,70.96158415841583L160.85663993741446,69.34693069306931L162.3528261294739,67.07405940594059L163.89888519460197,65.70415841584159L165.4449442597301,63.05702970297028L166.84138470565225,67.84039603960397L168.38744377078035,69.89108910891089L169.88362996283982,73.5481188118812L171.42968902796792,77.06495049504952L172.9258752200274,70.26297029702971L174.4719342851555,71.09584158415842L176.01799335028358,73.50534653465347L177.51417954234304,76.7619801980198L179.06023860747115,79.2261386138614L180.55642479953062,80.28831683168318L182.10248386465872,79.59445544554455L183.6485429297868,80.56158415841584L185.044983375709,77.96079207920792L186.5910424408371,76.41029702970297L188.08722863289654,68.79564356435645L189.63328769802465,73.83326732673268L191.12947389008409,69.41584158415841L192.6755329552122,66.4229702970297L194.22159202034032,64.99841584158415L195.71777821239976,66.58217821782179L197.26383727752787,67.48871287128713L198.7600234695873,67.35920792079207L200.30608253471542,66.55841584158415L201.85214159984355,64.80237623762378L203.29845491883435,65.10891089108911L204.84451398396246,66.67960396039604L206.34070017602193,69.69029702970298L207.88675924115,70.41742574257427L209.38294543320944,72.550099009901L210.92900449833758,76.27366336633663L212.47506356346568,77.77425742574258L213.97124975552512,74.48316831683168L215.51730882065326,70.49346534653463L217.0134950127127,70.43881188118812L218.5595540778408,70.18217821782177L220.1056131429689,69.20673267326733L221.50205358889104,69.49663366336634L223.04811265401915,70.65861386138614L224.54429884607862,71.58059405940594L226.09035791120672,72.44079207920792L227.5865441032662,72.50138613861387L229.1326031683943,68.74930693069308L230.67866223352237,71.20871287128713L232.17484842558184,72.48356435643565L233.72090749070995,73.97465346534653L235.21709368276942,74.08990099009901L236.76315274789752,78.30534653465347L238.3092118130256,71.26574257425742L239.7056522589478,75.11168316831683L241.2517113240759,76.14178217821782" fill="none" stroke="#af516c" stroke-linejoin="round" stroke-linecap="round" stroke-width="2"></path></g></g></svg>