<svg xmlns="http://www.w3.org/2000/svg" viewBox="0 0 304 270"><style>/* <![CDATA[ */.chart-title{font-size:20px;fill:#43423e}.chart-subtitle{font-size:15px;fill:#74736c}.chart-source{font-size:10px;fill-opacity:.4}.axis .domain{fill:none;stroke:#74736c}.tick line{fill:none;stroke:#000;stroke-opacity:.2}.tick text{fill-opacity:.6;font-size:12px}.y.axis .tick line{stroke-dasharray:1}.y.axis .domain{fill:none;stroke-opacity:0}.y.axis .highlight-line{fill:none;stroke:#74736c}/* ]]> */</style><text class="chart-title" y="22">新建楼房面积</text><text class="chart-subtitle" y="42">同比增长率％</text><text class="chart-source" y="265">来源:彭博. 2018年4月18日</text><g transform="translate(1,100)"><g class="x axis" transform="translate(0,120)" fill="none" font-size="10" font-family="sans-serif" text-anchor="middle"><path class="domain" stroke="#000" d="M0.5,0V0.5H255.5V0"></path><g class="tick" opacity="1" transform="translate(0.5,0)"><line stroke="#000" y2="6"></line><text fill="#000" y="9" dy="0.71em">2006</text></g><g class="tick" opacity="1" transform="translate(39.70598146588037,0)"><line stroke="#000" y2="6"></line><text fill="#000" y="9" dy="0.71em">2008</text></g><g class="tick" opacity="1" transform="translate(78.9656697556866,0)"><line stroke="#000" y2="6"></line><text fill="#000" y="9" dy="0.71em">2010</text></g><g class="tick" opacity="1" transform="translate(118.17165122156698,0)"><line stroke="#000" y2="6"></line><text fill="#000" y="9" dy="0.71em">2012</text></g><g class="tick" opacity="1" transform="translate(157.4313395113732,0)"><line stroke="#000" y2="6"></line><text fill="#000" y="9" dy="0.71em">2014</text></g><g class="tick" opacity="1" transform="translate(196.63732097725358,0)"><line stroke="#000" y2="6"></line><text fill="#000" y="9" dy="0.71em">2016</text></g><g class="tick" opacity="1" transform="translate(235.89700926705981,0)"><line stroke="#000" y2="6"></line><text fill="#000" y="9" dy="0.71em">2018</text></g></g><g class="y axis" transform="translate(255,0)" fill="none" font-size="10" font-family="sans-serif" text-anchor="start"><path class="domain" stroke="#000" d="M0,120.5H0.5V0.5H0"></path><g class="tick" opacity="1" transform="translate(0,103.50884955752213)"><line stroke="#000" x2="-255"></line><text fill="#000" x="3" dy="0.32em">0</text></g><g class="tick" opacity="1" transform="translate(0,76.96017699115043)"><line stroke="#000" x2="-255"></line><text fill="#000" x="3" dy="0.32em">50</text></g><g class="tick" opacity="1" transform="translate(0,50.411504424778755)"><line stroke="#000" x2="-255"></line><text fill="#000" x="3" dy="0.32em">100</text></g><g class="tick" opacity="1" transform="translate(0,23.862831858407077)"><line stroke="#000" x2="-255"></line><text fill="#000" x="3" dy="0.32em">150</text></g><line class="highlight-line" x1="0" y1="103.00884955752213" x2="-255" y2="103.00884955752213"></line></g><g><path d="M14.626158382476833,87.87079646017699L16.2910699241786,93.13805309734514L17.902274641954506,93.98761061946902L19.567186183656275,96.80176991150442L24.40080033698399,92.68141592920354L26.012005054759896,89.70265486725663L27.676916596461666,88.29026548672567L29.288121314237575,91.05663716814159L30.953032855939345,84.329203539823L32.61794439764111,87.0849557522124L34.22914911541702,91.67256637168141L35.89406065711879,84.80176991150444L37.5052653748947,89.29380530973452L39.17017691659646,96.63185840707965L44.05749789385004,90.04778761061948L45.668702611625946,98.80353982300885L47.333614153327716,93.67964601769911L48.94481887110362,94.15221238938054L50.60973041280539,107.36283185840708L52.27464195450716,104.39469026548673L53.885846672283066,110.01238938053098L55.550758213984835,114.270796460177L57.16196293176074,111.33451327433629L58.82687447346251,107.97345132743362L63.660488626790226,112.4495575221239L65.27169334456613,110.35221238938053L66.93660488626792,112.67787610619469L68.54780960404382,96.59469026548672L70.21272114574558,102.84955752212389L71.87763268744735,90.10619469026548L73.48883740522325,73.11504424778761L75.15374894692502,73.68318584070798L76.76495366470093,0.20707964601770357L78.4298652064027,84.9132743362832L83.26347935973041,56.739823008849555L84.87468407750632,64.3646017699115L86.53959561920809,48.92920353982301L88.150800336984,73.93274336283186L89.81571187868576,67.84778761061946L91.48062342038754,73.36991150442478L93.09182813816344,79.50796460176991L94.7567396798652,75.88141592920354L96.36794439764111,112.26902654867257L98.03285593934288,100.51858407079646L102.8664700926706,92.66548672566371L104.4776748104465,88.74159292035398L106.14258635214827,91.22123893805309L107.75379106992419,90.88141592920354L109.41870261162595,84.93451327433628L111.08361415332773,86.03893805309734L112.69481887110364,98.2778761061947L114.35973041280539,101.84070796460176L115.9709351305813,98.17699115044248L117.63584667228307,113.01769911504425L122.52316764953665,105.21769911504425L124.13437236731255,110.74513274336283L125.79928390901432,105.45132743362832L127.41048862679023,111.66902654867256L129.075400168492,117.19646017699115L130.74031171019377,95.6283185840708L132.3515164279697,115.76814159292036L134.01642796967144,106.42300884955752L135.62763268744735,99.25486725663717L137.29254422914912,103.74690265486726L142.12615838247683,113.7504424778761L143.73736310025274,95.28849557522125L145.4022746419545,103.82654867256637L147.0134793597304,95.48495575221239L148.67839090143218,78.99823008849557L150.34330244313395,113.70265486725664L151.95450716090986,81.07964601769912L153.61941870261163,104.82477876106195L155.23062342038753,71.87787610619469L156.8955349620893,84.3929203539823L161.72914911541702,114.63185840707965L163.34035383319292,110.95221238938053L165.0052653748947,107.19823008849558L166.6164700926706,107.95221238938053L168.28138163437237,98.66548672566373L169.94629317607414,99.69557522123894L171.55749789385004,103.10442477876106L173.2224094355518,80.25132743362832L174.83361415332772,119.5858407079646L176.4985256950295,116.88318584070797L181.3321398483572,113.36283185840708L182.9433445661331,110.93628318584071L184.60825610783488,109.78938053097345L186.21946082561078,110.99469026548672L187.88437236731255,114.31327433628319L189.54928390901432,111.88141592920354L191.16048862679023,94.89026548672567L192.825400168492,116.0070796460177L194.4366048862679,114.1008849557522L196.1015164279697,106.58230088495576L200.98883740522325,88.74690265486726L202.60004212299916,89.2778761061947L204.26495366470093,97.35929203539823L205.87615838247683,100.4070796460177L207.5410699241786,98.7079646017699L209.20598146588037,101.2778761061947L210.81718618365628,113.31504424778761L212.48209772535805,92.41592920353982L214.09330244313395,101.2566371681416L215.75821398483572,96.35575221238938L220.59182813816344,96.0424778761062L222.20303285593934,97.62477876106195L223.8679443976411,100.22654867256637L225.47914911541702,95.5646017699115L227.14406065711879,105.61592920353982L228.80897219882056,100.2L230.42017691659646,102.28141592920355L232.08508845829823,105.26548672566372L233.69629317607414,93.00530973451328L235.3612047177759,98.4212389380531L240.19481887110362,93.56814159292036" fill="none" stroke="#af516c" stroke-linejoin="round" stroke-linecap="round" stroke-width="2"></path></g></g></svg>