<svg xmlns="http://www.w3.org/2000/svg" viewBox="0 0 304 270"><style>/* <![CDATA[ */.chart-title{font-size:20px;fill:#43423e}.chart-subtitle{font-size:15px;fill:#74736c}.chart-source{font-size:10px;fill-opacity:.4}.axis .domain{fill:none;stroke:#74736c}.tick line{fill:none;stroke:#000;stroke-opacity:.2}.tick text{fill-opacity:.6;font-size:12px}.y.axis .tick line{stroke-dasharray:1}.y.axis .domain{fill:none;stroke-opacity:0}.y.axis .highlight-line{fill:none;stroke:#74736c}/* ]]> */</style><text class="chart-title" y="22">就业人数</text><text class="chart-subtitle" y="42">百万</text><text class="chart-source" y="265">来源:英国国家统计局╱彭博. 2018年4月17日</text><g transform="translate(1,100)"><g class="x axis" transform="translate(0,120)" fill="none" font-size="10" font-family="sans-serif" text-anchor="middle"><path class="domain" stroke="#000" d="M0.5,0V0.5H255.5V0"></path><g class="tick" opacity="1" transform="translate(18.703598670056717,0)"><line stroke="#000" y2="6"></line><text fill="#000" y="9" dy="0.71em">2006</text></g><g class="tick" opacity="1" transform="translate(55.110796010170155,0)"><line stroke="#000" y2="6"></line><text fill="#000" y="9" dy="0.71em">2008</text></g><g class="tick" opacity="1" transform="translate(91.56786622335224,0)"><line stroke="#000" y2="6"></line><text fill="#000" y="9" dy="0.71em">2010</text></g><g class="tick" opacity="1" transform="translate(127.97506356346567,0)"><line stroke="#000" y2="6"></line><text fill="#000" y="9" dy="0.71em">2012</text></g><g class="tick" opacity="1" transform="translate(164.43213377664776,0)"><line stroke="#000" y2="6"></line><text fill="#000" y="9" dy="0.71em">2014</text></g><g class="tick" opacity="1" transform="translate(200.8393311167612,0)"><line stroke="#000" y2="6"></line><text fill="#000" y="9" dy="0.71em">2016</text></g><g class="tick" opacity="1" transform="translate(237.29640132994328,0)"><line stroke="#000" y2="6"></line><text fill="#000" y="9" dy="0.71em">2018</text></g></g><g class="y axis" transform="translate(255,0)" fill="none" font-size="10" font-family="sans-serif" text-anchor="start"><path class="domain" stroke="#000" d="M0,120.5H0.5V0.5H0"></path><g class="tick" opacity="1" transform="translate(0,120.5)"><line stroke="#000" x2="-255"></line><text fill="#000" x="3" dy="0.32em">28</text></g><g class="tick" opacity="1" transform="translate(0,96.5)"><line stroke="#000" x2="-255"></line><text fill="#000" x="3" dy="0.32em">29</text></g><g class="tick" opacity="1" transform="translate(0,72.5)"><line stroke="#000" x2="-255"></line><text fill="#000" x="3" dy="0.32em">30</text></g><g class="tick" opacity="1" transform="translate(0,48.5)"><line stroke="#000" x2="-255"></line><text fill="#000" x="3" dy="0.32em">31</text></g><g class="tick" opacity="1" transform="translate(0,24.5)"><line stroke="#000" x2="-255"></line><text fill="#000" x="3" dy="0.32em">32</text></g><g class="tick" opacity="1" transform="translate(0,0.5)"><line stroke="#000" x2="-255"></line><text fill="#000" x="3" dy="0.32em">33</text></g></g><g><path d="M1.512810483082339,102.57600000000002L2.9092509290044983,100.94399999999999L4.4553099941326035,101.06399999999996L5.95149618619206,101.78399999999999L7.497555251320164,101.27999999999997L8.993741443379621,100.75200000000001L10.539800508507724,99.47999999999999L12.08585957363583,98.25600000000003L13.582045765695286,97.72799999999998L15.128104830823391,98.088L16.624291022882847,98.88000000000002L18.170350088010952,98.88000000000002L19.716409153139058,97.58399999999997L21.112849599061217,96.28800000000001L22.658908664189322,94.84800000000004L24.15509485624878,93.95999999999998L25.701153921376882,94.48800000000003L27.197340113436336,93.45599999999996L28.74339917856444,92.63999999999999L30.289458243692547,90.624L31.785644435752005,91.608L33.33170350088011,91.464L34.827889692939564,91.10399999999998L36.37394875806767,90.86400000000003L37.920007823195775,91.15199999999996L39.316448269117934,91.79999999999998L40.86250733424604,91.34400000000002L42.358693526305494,90.43200000000002L43.9047525914336,88.464L45.40093878349306,88.27200000000002L46.946997848621166,87.55199999999999L48.49305691374927,86.97599999999997L49.989243105808725,85.91999999999996L51.53530217093683,84.72000000000003L53.031488362996285,83.35199999999998L54.57754742812438,82.17599999999999L56.12360649325249,81.26399999999998L57.5699198122433,79.77600000000004L59.115978877371404,79.58399999999997L60.612165069430866,79.05600000000001L62.15822413455897,78.02400000000003L63.654410326618425,78.67199999999997L65.20046939174654,79.29599999999996L66.74652845687463,81.31200000000004L68.24271464893408,82.08000000000004L69.7887737140622,83.16L71.28495990612166,82.65599999999998L72.83101897124975,83.32800000000003L74.37707803637787,83.06399999999996L75.77351848230002,85.70400000000004L77.31957754742812,87.21600000000001L78.81576373948758,89.47200000000004L80.36182280461568,92.27999999999997L81.85800899667514,93.912L83.40406806180326,95.56799999999998L84.95012712693135,94.17599999999999L86.4463133189908,94.34400000000002L87.99237238411891,93.98400000000001L89.48855857617836,93.79200000000003L91.03461764130648,93.55199999999999L92.58067670643457,94.63200000000003L93.97711715235674,95.42399999999998L95.52317621748485,95.68799999999996L97.01936240954429,94.84800000000004L98.5654214746724,92.54400000000004L100.06160766673186,91.392L101.60766673185996,88.20000000000002L103.15372579698807,87.86400000000003L104.64991198904752,86.75999999999996L106.19597105417563,88.608L107.69215724623508,89.18400000000003L109.2382163113632,88.22399999999996L110.7842753764913,86.61600000000004L112.18071582241346,85.392L113.72677488754155,85.41600000000003L115.222961079601,85.536L116.76902014472913,84.81599999999997L118.26520633678858,85.27200000000002L119.81126540191669,87.72000000000003L121.35732446704479,88.82400000000001L122.85351065910424,89.35199999999998L124.39956972423235,88.87199999999999L125.8957559162918,88.22399999999996L127.44181498141991,87.84L128.987874046548,87.57600000000002L130.43418736553883,86.73600000000002L131.9802464306669,84.95999999999998L133.47643262272638,84.11999999999998L135.02249168785448,82.58399999999997L136.51867787991395,80.088L138.06473694504206,78.11999999999998L139.61079601017016,77.25600000000003L141.1069822022296,77.78399999999999L142.6530412673577,78.11999999999998L144.14922745941718,75.50400000000002L145.69528652454528,74.25600000000003L147.2413455896734,74.61600000000004L148.63778603559555,76.43999999999997L150.18384510072366,75.79200000000003L151.6800312927831,74.80800000000002L153.2260903579112,75.47999999999999L154.72227654997064,73.43999999999997L156.26833561509875,72.09600000000003L157.81439468022688,71.35199999999998L159.31058087228632,69.43200000000002L160.85663993741446,66.696L162.3528261294739,64.68L163.89888519460197,65.04000000000002L165.4449442597301,64.05600000000001L166.84138470565225,60.21600000000001L168.38744377078035,59.112000000000016L169.88362996283982,56.68799999999997L171.42968902796792,54.360000000000014L172.9258752200274,54.98400000000001L174.4719342851555,55.103999999999985L176.01799335028358,53.063999999999965L177.51417954234304,52.03199999999998L179.06023860747115,51.79200000000003L180.55642479953062,51.57600000000002L182.10248386465872,49.391999999999996L183.6485429297868,47.80800000000002L185.044983375709,45.19199999999998L186.5910424408371,44.063999999999965L188.08722863289654,44.97599999999997L189.63328769802465,46.79999999999998L191.12947389008409,45.168000000000035L192.6755329552122,43.416000000000025L194.22159202034032,42.72000000000003L195.71777821239976,40.22399999999996L197.26383727752787,37.99199999999996L198.7600234695873,35.855999999999995L200.30608253471542,35.32800000000003L201.85214159984355,35.11200000000002L203.29845491883435,35.20799999999997L204.84451398396246,34.416000000000025L206.34070017602193,34.00800000000004L207.88675924115,31.536L209.38294543320944,30.360000000000014L210.92900449833758,29.831999999999965L212.47506356346568,29.087999999999994L213.97124975552512,29.304000000000002L215.51730882065326,29.880000000000024L217.0134950127127,28.991999999999962L218.5595540778408,28.175999999999988L220.1056131429689,27.695999999999998L221.50205358889104,27.95999999999998L223.04811265401915,25.27200000000002L224.54429884607862,25.103999999999985L226.09035791120672,23.760000000000048L227.5865441032662,22.24799999999999L229.1326031683943,20.735999999999933L230.67866223352237,21.480000000000075L232.17484842558184,22.58400000000006L233.72090749070995,22.08000000000004L235.21709368276942,19.031999999999982L236.76315274789752,20.472000000000037L238.3092118130256,18.04800000000006L239.7056522589478,17.71199999999999" fill="none" stroke="#af516c" stroke-linejoin="round" stroke-linecap="round" stroke-width="2"></path></g></g></svg>