<svg xmlns="http://www.w3.org/2000/svg" viewBox="0 0 304 270"><style>/* <![CDATA[ */.chart-title{font-size:20px;fill:#43423e}.chart-subtitle{font-size:15px;fill:#74736c}.chart-source{font-size:10px;fill-opacity:.4}.axis .domain{fill:none;stroke:#74736c}.tick line{fill:none;stroke:#000;stroke-opacity:.2}.tick text{fill-opacity:.6;font-size:12px}.y.axis .tick line{stroke-dasharray:1}.y.axis .domain{fill:none;stroke-opacity:0}.y.axis .highlight-line{fill:none;stroke:#74736c}/* ]]> */</style><text class="chart-title" y="22">每小時生产力</text><text class="chart-subtitle" y="42">季变化，非农业部门</text><text class="chart-source" y="265">来源:彭博. 2018年5月3日</text><g transform="translate(1,100)"><g class="x axis" transform="translate(0,120)" fill="none" font-size="10" font-family="sans-serif" text-anchor="middle"><path class="domain" stroke="#000" d="M0.5,0V0.5H255.5V0"></path><g class="tick" opacity="1" transform="translate(18.703598670056717,0)"><line stroke="#000" y2="6"></line><text fill="#000" y="9" dy="0.71em">2006</text></g><g class="tick" opacity="1" transform="translate(55.110796010170155,0)"><line stroke="#000" y2="6"></line><text fill="#000" y="9" dy="0.71em">2008</text></g><g class="tick" opacity="1" transform="translate(91.56786622335224,0)"><line stroke="#000" y2="6"></line><text fill="#000" y="9" dy="0.71em">2010</text></g><g class="tick" opacity="1" transform="translate(127.97506356346567,0)"><line stroke="#000" y2="6"></line><text fill="#000" y="9" dy="0.71em">2012</text></g><g class="tick" opacity="1" transform="translate(164.43213377664776,0)"><line stroke="#000" y2="6"></line><text fill="#000" y="9" dy="0.71em">2014</text></g><g class="tick" opacity="1" transform="translate(200.8393311167612,0)"><line stroke="#000" y2="6"></line><text fill="#000" y="9" dy="0.71em">2016</text></g><g class="tick" opacity="1" transform="translate(237.29640132994328,0)"><line stroke="#000" y2="6"></line><text fill="#000" y="9" dy="0.71em">2018</text></g></g><g class="y axis" transform="translate(255,0)" fill="none" font-size="10" font-family="sans-serif" text-anchor="start"><path class="domain" stroke="#000" d="M0,120.5H0.5V0.5H0"></path><g class="tick" opacity="1" transform="translate(0,120.5)"><line stroke="#000" x2="-255"></line><text fill="#000" x="3" dy="0.32em">-4</text></g><g class="tick" opacity="1" transform="translate(0,100.5)"><line stroke="#000" x2="-255"></line><text fill="#000" x="3" dy="0.32em">-2</text></g><g class="tick" opacity="1" transform="translate(0,80.5)"><line stroke="#000" x2="-255"></line><text fill="#000" x="3" dy="0.32em">0</text></g><g class="tick" opacity="1" transform="translate(0,60.5)"><line stroke="#000" x2="-255"></line><text fill="#000" x="3" dy="0.32em">2</text></g><g class="tick" opacity="1" transform="translate(0,40.5)"><line stroke="#000" x2="-255"></line><text fill="#000" x="3" dy="0.32em">4</text></g><g class="tick" opacity="1" transform="translate(0,20.5)"><line stroke="#000" x2="-255"></line><text fill="#000" x="3" dy="0.32em">6</text></g><g class="tick" opacity="1" transform="translate(0,0.5)"><line stroke="#000" x2="-255"></line><text fill="#000" x="3" dy="0.32em">8</text></g><line class="highlight-line" x1="0" y1="80" x2="-255" y2="80"></line></g><g><path d="M4.4553099941326035,35L8.993741443379621,84L13.582045765695286,50L18.170350088010952,78L22.658908664189322,56L27.197340113436336,84L31.785644435752005,97L36.37394875806767,50L40.86250733424604,76L45.40093878349306,55L49.989243105808725,31L54.57754742812438,62.99999999999999L59.115978877371404,118L63.654410326618425,39.000000000000014L68.24271464893408,69L72.83101897124975,106L77.31957754742812,50L81.85800899667514,0L86.4463133189908,21.999999999999986L91.03461764130648,31L95.52317621748485,59L100.06160766673186,66L104.64991198904752,60L109.2382163113632,62.99999999999999L113.72677488754155,113L118.26520633678858,67L122.85351065910424,87L127.44181498141991,52L131.9802464306669,74L136.51867787991395,57L141.1069822022296,88L145.69528652454528,97L150.18384510072366,71L154.72227654997064,86L159.31058087228632,64L163.89888519460197,39.000000000000014L168.38744377078035,112L172.9258752200274,55L177.51417954234304,38.000000000000014L182.10248386465872,101L186.5910424408371,50L191.12947389008409,67L195.71777821239976,68L200.30608253471542,107L204.84451398396246,91L209.38294543320944,70L213.97124975552512,56L218.5595540778408,68L223.04811265401915,78L227.5865441032662,62.99999999999999L232.17484842558184,54.000000000000014L236.76315274789752,77L241.2517113240759,73" fill="none" stroke="#af516c" stroke-linejoin="round" stroke-linecap="round" stroke-width="2"></path></g></g></svg>