<svg xmlns="http://www.w3.org/2000/svg" viewBox="0 0 304 270"><style>/* <![CDATA[ */.chart-title{font-size:20px;fill:#43423e}.chart-subtitle{font-size:15px;fill:#74736c}.chart-source{font-size:10px;fill-opacity:.4}.axis .domain{fill:none;stroke:#74736c}.tick line{fill:none;stroke:#000;stroke-opacity:.2}.tick text{fill-opacity:.6;font-size:12px}.y.axis .tick line{stroke-dasharray:1}.y.axis .domain{fill:none;stroke-opacity:0}.y.axis .highlight-line{fill:none;stroke:#74736c}/* ]]> */</style><text class="chart-title" y="22">工作产出</text><text class="chart-subtitle" y="42">年增长％</text><text class="chart-source" y="265">来源:英国国家统计局╱彭博. 2018年4月6日</text><g transform="translate(1,100)"><g class="x axis" transform="translate(0,120)" fill="none" font-size="10" font-family="sans-serif" text-anchor="middle"><path class="domain" stroke="#000" d="M0.5,0V0.5H255.5V0"></path><g class="tick" opacity="1" transform="translate(20.102990732940185,0)"><line stroke="#000" y2="6"></line><text fill="#000" y="9" dy="0.71em">2006</text></g><g class="tick" opacity="1" transform="translate(59.308972198820555,0)"><line stroke="#000" y2="6"></line><text fill="#000" y="9" dy="0.71em">2008</text></g><g class="tick" opacity="1" transform="translate(98.56866048862679,0)"><line stroke="#000" y2="6"></line><text fill="#000" y="9" dy="0.71em">2010</text></g><g class="tick" opacity="1" transform="translate(137.77464195450716,0)"><line stroke="#000" y2="6"></line><text fill="#000" y="9" dy="0.71em">2012</text></g><g class="tick" opacity="1" transform="translate(177.0343302443134,0)"><line stroke="#000" y2="6"></line><text fill="#000" y="9" dy="0.71em">2014</text></g><g class="tick" opacity="1" transform="translate(216.24031171019377,0)"><line stroke="#000" y2="6"></line><text fill="#000" y="9" dy="0.71em">2016</text></g><g class="tick" opacity="1" transform="translate(255.5,0)"><line stroke="#000" y2="6"></line><text fill="#000" y="9" dy="0.71em">2018</text></g></g><g class="y axis" transform="translate(255,0)" fill="none" font-size="10" font-family="sans-serif" text-anchor="start"><path class="domain" stroke="#000" d="M0,120.5H0.5V0.5H0"></path><g class="tick" opacity="1" transform="translate(0,108.5)"><line stroke="#000" x2="-255"></line><text fill="#000" x="3" dy="0.32em">-4</text></g><g class="tick" opacity="1" transform="translate(0,84.5)"><line stroke="#000" x2="-255"></line><text fill="#000" x="3" dy="0.32em">-2</text></g><g class="tick" opacity="1" transform="translate(0,60.5)"><line stroke="#000" x2="-255"></line><text fill="#000" x="3" dy="0.32em">0</text></g><g class="tick" opacity="1" transform="translate(0,36.5)"><line stroke="#000" x2="-255"></line><text fill="#000" x="3" dy="0.32em">2</text></g><g class="tick" opacity="1" transform="translate(0,12.5)"><line stroke="#000" x2="-255"></line><text fill="#000" x="3" dy="0.32em">4</text></g><line class="highlight-line" x1="0" y1="60" x2="-255" y2="60"></line></g><g><path d="M4.797809604043808,51.599999999999994L9.68513058129739,43.2L14.626158382476833,31.200000000000003L19.567186183656275,3.6000000000000085L24.40080033698399,15.600000000000009L29.288121314237575,32.400000000000006L34.22914911541702,46.8L39.17017691659646,67.19999999999999L44.003791069924176,49.19999999999999L48.89111204717776,45.599999999999994L53.8321398483572,40.80000000000001L58.77316764953665,40.80000000000001L63.660488626790226,51.599999999999994L68.54780960404382,61.199999999999996L73.48883740522325,76.80000000000001L78.4298652064027,104.4L83.26347935973041,120L88.150800336984,103.2L93.09182813816344,90L98.03285593934288,63.599999999999994L102.8664700926706,36L107.75379106992419,43.2L112.69481887110364,42L117.63584667228307,37.19999999999999L122.46946082561078,51.599999999999994L127.35678180286438,52.80000000000001L132.2978096040438,45.599999999999994L137.23883740522325,54L142.12615838247683,49.19999999999999L147.0134793597304,60L151.95450716090986,55.19999999999999L156.8955349620893,63.599999999999994L161.72914911541702,60L166.6164700926706,50.400000000000006L171.55749789385004,62.400000000000006L176.4985256950295,52.80000000000001L181.3321398483572,57.599999999999994L186.21946082561078,51.599999999999994L191.16048862679023,44.400000000000006L196.1015164279697,36L200.9351305812974,45.599999999999994L205.82245155855097,40.80000000000001L210.7634793597304,52.80000000000001L215.70450716090986,58.8L220.59182813816344,51.599999999999994L225.47914911541702,62.400000000000006L230.42017691659646,54L235.3612047177759,48L240.19481887110362,49.19999999999999L245.0821398483572,49.19999999999999L250.02316764953665,48L254.9641954507161,55.19999999999999" fill="none" stroke="#af516c" stroke-linejoin="round" stroke-linecap="round" stroke-width="2"></path></g></g></svg>