<svg xmlns="http://www.w3.org/2000/svg" viewBox="0 0 304 270"><style>/* <![CDATA[ */.chart-title{font-size:20px;fill:#43423e}.chart-subtitle{font-size:15px;fill:#74736c}.chart-source{font-size:10px;fill-opacity:.4}.axis .domain{fill:none;stroke:#74736c}.tick line{fill:none;stroke:#000;stroke-opacity:.2}.tick text{fill-opacity:.6;font-size:12px}.y.axis .tick line{stroke-dasharray:1}.y.axis .domain{fill:none;stroke-opacity:0}.y.axis .highlight-line{fill:none;stroke:#74736c}/* ]]> */</style><text class="chart-title" y="22">就业率</text><text class="chart-subtitle" y="42">百万</text><text class="chart-source" y="265">来源:美国劳工部统计局╱彭博. 2018年5月4日</text><g transform="translate(1,100)"><g class="x axis" transform="translate(0,120)" fill="none" font-size="10" font-family="sans-serif" text-anchor="middle"><path class="domain" stroke="#000" d="M0.5,0V0.5H255.5V0"></path><g class="tick" opacity="1" transform="translate(18.703598670056717,0)"><line stroke="#000" y2="6"></line><text fill="#000" y="9" dy="0.71em">2006</text></g><g class="tick" opacity="1" transform="translate(55.110796010170155,0)"><line stroke="#000" y2="6"></line><text fill="#000" y="9" dy="0.71em">2008</text></g><g class="tick" opacity="1" transform="translate(91.56786622335224,0)"><line stroke="#000" y2="6"></line><text fill="#000" y="9" dy="0.71em">2010</text></g><g class="tick" opacity="1" transform="translate(127.97506356346567,0)"><line stroke="#000" y2="6"></line><text fill="#000" y="9" dy="0.71em">2012</text></g><g class="tick" opacity="1" transform="translate(164.43213377664776,0)"><line stroke="#000" y2="6"></line><text fill="#000" y="9" dy="0.71em">2014</text></g><g class="tick" opacity="1" transform="translate(200.8393311167612,0)"><line stroke="#000" y2="6"></line><text fill="#000" y="9" dy="0.71em">2016</text></g><g class="tick" opacity="1" transform="translate(237.29640132994328,0)"><line stroke="#000" y2="6"></line><text fill="#000" y="9" dy="0.71em">2018</text></g></g><g class="y axis" transform="translate(255,0)" fill="none" font-size="10" font-family="sans-serif" text-anchor="start"><path class="domain" stroke="#000" d="M0,120.5H0.5V0.5H0"></path><g class="tick" opacity="1" transform="translate(0,114.5)"><line stroke="#000" x2="-255"></line><text fill="#000" x="3" dy="0.32em">130</text></g><g class="tick" opacity="1" transform="translate(0,84.5)"><line stroke="#000" x2="-255"></line><text fill="#000" x="3" dy="0.32em">135</text></g><g class="tick" opacity="1" transform="translate(0,54.5)"><line stroke="#000" x2="-255"></line><text fill="#000" x="3" dy="0.32em">140</text></g><g class="tick" opacity="1" transform="translate(0,24.5)"><line stroke="#000" x2="-255"></line><text fill="#000" x="3" dy="0.32em">145</text></g></g><g><path d="M1.512810483082339,97.21199999999999L2.9092509290044983,95.74799999999999L4.4553099941326035,94.91999999999996L5.95149618619206,92.77199999999993L7.497555251320164,91.73999999999995L8.993741443379621,90.25800000000004L10.539800508507724,88.03199999999998L12.08585957363583,86.856L13.582045765695286,86.45999999999998L15.128104830823391,85.94400000000007L16.624291022882847,83.92199999999997L18.170350088010952,82.99199999999996L19.716409153139058,81.30000000000007L21.112849599061217,79.428L22.658908664189322,77.64600000000002L24.15509485624878,76.63799999999998L25.701153921376882,76.45199999999994L27.197340113436336,75.97800000000007L28.74339917856444,74.74199999999996L30.289458243692547,73.66799999999995L31.785644435752005,72.77999999999997L33.33170350088011,72.70799999999997L34.827889692939564,71.45999999999998L36.37394875806767,70.42199999999997L37.920007823195775,69.01799999999992L39.316448269117934,68.50800000000004L40.86250733424604,67.22400000000005L42.358693526305494,66.87000000000006L43.9047525914336,65.95199999999994L45.40093878349306,65.48999999999995L46.946997848621166,65.66999999999996L48.49305691374927,65.83800000000008L49.989243105808725,65.26200000000006L51.53530217093683,64.79400000000004L53.031488362996285,64.15800000000007L54.57754742812438,63.53399999999999L56.12360649325249,63.48599999999993L57.5699198122433,63.97200000000004L59.115978877371404,64.30200000000008L60.612165069430866,65.67599999999999L62.15822413455897,66.77999999999997L63.654410326618425,67.70399999999995L65.20046939174654,68.98200000000008L66.74652845687463,70.644L68.24271464893408,73.30200000000008L69.7887737140622,76.15200000000004L71.28495990612166,80.70599999999996L72.83101897124975,84.94799999999992L74.37707803637787,89.66999999999996L75.77351848230002,93.894L77.31957754742812,98.70599999999996L78.81576373948758,102.93L80.36182280461568,105.05399999999992L81.85800899667514,107.86800000000005L83.40406806180326,109.91999999999996L84.95012712693135,111.09599999999995L86.4463133189908,112.47000000000003L87.99237238411891,113.72400000000005L89.48855857617836,113.65200000000004L91.03461764130648,115.31399999999996L92.58067670643457,115.20599999999996L93.97711715235674,115.644L95.52317621748485,114.48599999999993L97.01936240954429,113.16000000000008L98.5654214746724,110.02799999999996L100.06160766673186,110.86800000000005L101.60766673185996,111.33600000000007L103.15372579698807,111.43200000000002L104.64991198904752,111.80999999999995L106.19597105417563,110.20799999999997L107.69215724623508,109.43400000000003L109.2382163113632,108.99599999999998L110.7842753764913,108.73200000000008L112.18071582241346,107.63999999999999L113.72677488754155,106.11600000000004L115.222961079601,104.178L116.76902014472913,103.69200000000006L118.26520633678858,102.28800000000001L119.81126540191669,101.856L121.35732446704479,101.18400000000003L122.85351065910424,99.786L124.39956972423235,98.53199999999998L125.8957559162918,97.66199999999992L127.44181498141991,96.45599999999996L128.987874046548,94.36800000000005L130.43418736553883,92.97000000000003L131.9802464306669,91.38599999999997L133.47643262272638,90.95399999999995L135.02249168785448,90.25200000000001L136.51867787991395,89.84399999999994L138.06473694504206,88.90800000000007L139.61079601017016,87.87000000000006L141.1069822022296,86.70599999999996L142.6530412673577,85.78800000000001L144.14922745941718,85.00800000000004L145.69528652454528,83.55000000000007L147.2413455896734,82.30799999999994L148.63778603559555,80.71800000000002L150.18384510072366,79.78199999999998L151.6800312927831,78.70799999999997L153.2260903579112,77.26799999999992L154.72227654997064,76.32L156.26833561509875,75.65400000000005L157.81439468022688,74.09399999999994L159.31058087228632,72.88799999999998L160.85663993741446,71.62799999999993L162.3528261294739,70.30200000000008L163.89888519460197,69.74399999999997L165.4449442597301,68.69999999999993L166.84138470565225,67.608L168.38744377078035,66.04200000000003L169.88362996283982,64.17599999999999L171.42968902796792,62.66399999999993L172.9258752200274,60.82800000000003L174.4719342851555,59.65200000000004L176.01799335028358,58.296000000000056L177.51417954234304,56.59199999999992L179.06023860747115,55.061999999999955L180.55642479953062,53.22000000000003L182.10248386465872,51.714L183.6485429297868,50.44799999999992L185.044983375709,48.84599999999995L186.5910424408371,48.37799999999993L188.08722863289654,46.686000000000035L189.63328769802465,44.730000000000075L191.12947389008409,43.58400000000006L192.6755329552122,42.04800000000006L194.22159202034032,41.063999999999965L195.71777821239976,40.536L197.26383727752787,38.43000000000001L198.7600234695873,36.84599999999995L200.30608253471542,35.442000000000064L201.85214159984355,34.82400000000001L203.29845491883435,33.28199999999998L204.84451398396246,31.87200000000007L206.34070017602193,30.82800000000003L207.88675924115,30.62400000000008L209.38294543320944,28.91399999999993L210.92900449833758,26.964L212.47506356346568,25.91399999999993L213.97124975552512,24.33000000000004L215.51730882065326,23.489999999999952L217.0134950127127,22.45799999999997L218.5595540778408,21.37799999999993L220.1056131429689,19.824000000000012L221.50205358889104,18.62400000000008L223.04811265401915,18.186000000000035L224.54429884607862,17.135999999999967L226.09035791120672,16.20599999999996L227.5865441032662,14.771999999999935L229.1326031683943,13.631999999999948L230.67866223352237,12.305999999999926L232.17484842558184,12.222000000000037L233.72090749070995,10.595999999999947L235.21709368276942,9.300000000000068L236.76315274789752,8.25L238.3092118130256,7.194000000000074L239.7056522589478,5.25L241.2517113240759,4.440000000000055L242.74789751613537,3.4559999999999604" fill="none" stroke="#af516c" stroke-linejoin="round" stroke-linecap="round" stroke-width="2"></path></g></g></svg>