<svg xmlns="http://www.w3.org/2000/svg" viewBox="0 0 304 270"><style>/* <![CDATA[ */.chart-title{font-size:20px;fill:#43423e}.chart-subtitle{font-size:15px;fill:#74736c}.chart-source{font-size:10px;fill-opacity:.4}.axis .domain{fill:none;stroke:#74736c}.tick line{fill:none;stroke:#000;stroke-opacity:.2}.tick text{fill-opacity:.6;font-size:12px}.y.axis .tick line{stroke-dasharray:1}.y.axis .domain{fill:none;stroke-opacity:0}.y.axis .highlight-line{fill:none;stroke:#74736c}/* ]]> */</style><text class="chart-title" y="22">个人消费支出</text><text class="chart-subtitle" y="42">年增长％</text><text class="chart-source" y="265">来源:彭博. 2018年4月30日</text><g transform="translate(1,100)"><g class="x axis" transform="translate(0,120)" fill="none" font-size="10" font-family="sans-serif" text-anchor="middle"><path class="domain" stroke="#000" d="M0.5,0V0.5H255.5V0"></path><g class="tick" opacity="1" transform="translate(18.703598670056717,0)"><line stroke="#000" y2="6"></line><text fill="#000" y="9" dy="0.71em">2006</text></g><g class="tick" opacity="1" transform="translate(55.110796010170155,0)"><line stroke="#000" y2="6"></line><text fill="#000" y="9" dy="0.71em">2008</text></g><g class="tick" opacity="1" transform="translate(91.56786622335224,0)"><line stroke="#000" y2="6"></line><text fill="#000" y="9" dy="0.71em">2010</text></g><g class="tick" opacity="1" transform="translate(127.97506356346567,0)"><line stroke="#000" y2="6"></line><text fill="#000" y="9" dy="0.71em">2012</text></g><g class="tick" opacity="1" transform="translate(164.43213377664776,0)"><line stroke="#000" y2="6"></line><text fill="#000" y="9" dy="0.71em">2014</text></g><g class="tick" opacity="1" transform="translate(200.8393311167612,0)"><line stroke="#000" y2="6"></line><text fill="#000" y="9" dy="0.71em">2016</text></g><g class="tick" opacity="1" transform="translate(237.29640132994328,0)"><line stroke="#000" y2="6"></line><text fill="#000" y="9" dy="0.71em">2018</text></g></g><g class="y axis" transform="translate(255,0)" fill="none" font-size="10" font-family="sans-serif" text-anchor="start"><path class="domain" stroke="#000" d="M0,120.5H0.5V0.5H0"></path><g class="tick" opacity="1" transform="translate(0,120.5)"><line stroke="#000" x2="-255"></line><text fill="#000" x="3" dy="0.32em">0</text></g><g class="tick" opacity="1" transform="translate(0,80.5)"><line stroke="#000" x2="-255"></line><text fill="#000" x="3" dy="0.32em">1</text></g><g class="tick" opacity="1" transform="translate(0,40.5)"><line stroke="#000" x2="-255"></line><text fill="#000" x="3" dy="0.32em">2</text></g><g class="tick" opacity="1" transform="translate(0,0.5)"><line stroke="#000" x2="-255"></line><text fill="#000" x="3" dy="0.32em">3</text></g><line class="highlight-line" x1="0" y1="120" x2="-255" y2="120"></line></g><g><path d="M1.512810483082339,32.928399999999996L2.9092509290044983,33.2696L4.4553099941326035,30.94919999999999L5.95149618619206,35.813199999999995L7.497555251320164,32.27719999999999L8.993741443379621,37.87520000000001L10.539800508507724,38.494L12.08585957363583,37.454800000000006L13.582045765695286,35.542L15.128104830823391,31.520399999999995L16.624291022882847,28.38000000000001L18.170350088010952,28.9448L19.716409153139058,33.737999999999985L21.112849599061217,35.28399999999999L22.658908664189322,35.44840000000001L24.15509485624878,30.356400000000008L25.701153921376882,32.1716L27.197340113436336,24.970399999999998L28.74339917856444,26.319599999999994L30.289458243692547,21.974400000000003L31.785644435752005,24.3052L33.33170350088011,29.147199999999998L34.827889692939564,37.23280000000001L36.37394875806767,34.6028L37.920007823195775,25.9632L39.316448269117934,22.00800000000001L40.86250733424604,28.574399999999997L42.358693526305494,34.94840000000001L43.9047525914336,38.626000000000005L45.40093878349306,42.02799999999999L46.946997848621166,40.7696L48.49305691374927,42.278000000000006L49.989243105808725,38.171199999999985L51.53530217093683,34.1836L53.031488362996285,29.103999999999985L54.57754742812438,26.93480000000001L56.12360649325249,34.1648L57.5699198122433,39.10799999999999L59.115978877371404,33.233999999999995L60.612165069430866,32.155199999999994L62.15822413455897,28.7252L63.654410326618425,27.1712L65.20046939174654,27.596799999999988L66.74652845687463,29.60839999999999L68.24271464893408,35.69720000000001L69.7887737140622,46.08240000000001L71.28495990612166,52.964L72.83101897124975,63.9592L74.37707803637787,71.0084L75.77351848230002,71.7176L77.31957754742812,75.85079999999999L78.81576373948758,70.342L80.36182280461568,73.88159999999999L81.85800899667514,76.3168L83.40406806180326,81.1428L84.95012712693135,81.1488L86.4463133189908,78.8596L87.99237238411891,66.8068L89.48855857617836,63.136399999999995L91.03461764130648,60.138L92.58067670643457,57.617999999999995L93.97711715235674,58.324L95.52317621748485,57.5556L97.01936240954429,66.90039999999999L98.5654214746724,66.23400000000001L100.06160766673186,67.4264L101.60766673185996,65.8348L103.15372579698807,66.7784L104.64991198904752,72.25880000000001L106.19597105417563,81.106L107.69215724623508,80.3044L109.2382163113632,82.11L110.7842753764913,80.2804L112.18071582241346,76.66559999999998L113.72677488754155,76.5292L115.222961079601,67.6352L116.76902014472913,62.8356L118.26520633678858,61.592400000000005L119.81126540191669,56.9676L121.35732446704479,52.37519999999999L122.85351065910424,51.341599999999985L124.39956972423235,48.63239999999999L125.8957559162918,46.2676L127.44181498141991,41.7444L128.987874046548,36.23440000000001L130.43418736553883,37.711600000000004L131.9802464306669,35.75519999999999L133.47643262272638,38.85479999999998L135.02249168785448,43.607600000000005L136.51867787991395,44.061199999999985L138.06473694504206,46.599599999999995L139.61079601017016,52.801199999999994L141.1069822022296,50.8728L142.6530412673577,46.47839999999999L144.14922745941718,48.9932L145.69528652454528,51.07960000000001L147.2413455896734,53.192400000000006L148.63778603559555,53.6288L150.18384510072366,57.78399999999999L151.6800312927831,62.294L153.2260903579112,62.670399999999994L154.72227654997064,62.01559999999999L156.26833561509875,62.3072L157.81439468022688,59.822399999999995L159.31058087228632,60.1984L160.85663993741446,62.8144L162.3528261294739,60.25280000000001L163.89888519460197,58.013600000000004L165.4449442597301,61.2924L166.84138470565225,63.6336L168.38744377078035,59.4168L169.88362996283982,54.8108L171.42968902796792,52.2064L172.9258752200274,53.01719999999999L174.4719342851555,50.22600000000001L176.01799335028358,52.712L177.51417954234304,51.8472L179.06023860747115,55.3788L180.55642479953062,58.36399999999999L182.10248386465872,60.8268L183.6485429297868,65.46119999999999L185.044983375709,64.268L186.5910424408371,65.344L188.08722863289654,66.81280000000001L189.63328769802465,68.6492L191.12947389008409,67.8964L192.6755329552122,69.83279999999999L194.22159202034032,68.1612L195.71777821239976,66.4944L197.26383727752787,68.6088L198.7600234695873,66.74L200.30608253471542,65.1868L201.85214159984355,55.52239999999999L203.29845491883435,51.8344L204.84451398396246,54.8484L206.34070017602193,51.676L207.88675924115,49.971599999999995L209.38294543320944,51.3848L210.92900449833758,48.693200000000004L212.47506356346568,43.656400000000005L213.97124975552512,46.59079999999999L215.51730882065326,43.41759999999999L217.0134950127127,47.338800000000006L218.5595540778408,45.22879999999999L220.1056131429689,44.52080000000001L221.50205358889104,45.5296L223.04811265401915,55.5676L224.54429884607862,56.89600000000001L226.09035791120672,60.962399999999995L227.5865441032662,59.80199999999999L229.1326031683943,63.502L230.67866223352237,68.0648L232.17484842558184,65.93520000000001L233.72090749070995,61.21360000000001L235.21709368276942,59.738L236.76315274789752,59.041599999999995L238.3092118130256,58.7516L239.7056522589478,57.147600000000004L241.2517113240759,44.717600000000004" fill="none" stroke="#af516c" stroke-linejoin="round" stroke-linecap="round" stroke-width="2"></path></g></g></svg>