<svg xmlns="http://www.w3.org/2000/svg" viewBox="0 0 304 270"><style>/* <![CDATA[ */.chart-title{font-size:20px;fill:#43423e}.chart-subtitle{font-size:15px;fill:#74736c}.chart-source{font-size:10px;fill-opacity:.4}.axis .domain{fill:none;stroke:#74736c}.tick line{fill:none;stroke:#000;stroke-opacity:.2}.tick text{fill-opacity:.6;font-size:12px}.y.axis .tick line{stroke-dasharray:1}.y.axis .domain{fill:none;stroke-opacity:0}.y.axis .highlight-line{fill:none;stroke:#74736c}/* ]]> */</style><text class="chart-title" y="22">生产产出</text><text class="chart-subtitle" y="42">年增长％</text><text class="chart-source" y="265">来源:英国国家统计局╱彭博. 2018年4月11日</text><g transform="translate(1,100)"><g class="x axis" transform="translate(0,120)" fill="none" font-size="10" font-family="sans-serif" text-anchor="middle"><path class="domain" stroke="#000" d="M0.5,0V0.5H255.5V0"></path><g class="tick" opacity="1" transform="translate(18.703598670056717,0)"><line stroke="#000" y2="6"></line><text fill="#000" y="9" dy="0.71em">2006</text></g><g class="tick" opacity="1" transform="translate(55.110796010170155,0)"><line stroke="#000" y2="6"></line><text fill="#000" y="9" dy="0.71em">2008</text></g><g class="tick" opacity="1" transform="translate(91.56786622335224,0)"><line stroke="#000" y2="6"></line><text fill="#000" y="9" dy="0.71em">2010</text></g><g class="tick" opacity="1" transform="translate(127.97506356346567,0)"><line stroke="#000" y2="6"></line><text fill="#000" y="9" dy="0.71em">2012</text></g><g class="tick" opacity="1" transform="translate(164.43213377664776,0)"><line stroke="#000" y2="6"></line><text fill="#000" y="9" dy="0.71em">2014</text></g><g class="tick" opacity="1" transform="translate(200.8393311167612,0)"><line stroke="#000" y2="6"></line><text fill="#000" y="9" dy="0.71em">2016</text></g><g class="tick" opacity="1" transform="translate(237.29640132994328,0)"><line stroke="#000" y2="6"></line><text fill="#000" y="9" dy="0.71em">2018</text></g></g><g class="y axis" transform="translate(255,0)" fill="none" font-size="10" font-family="sans-serif" text-anchor="start"><path class="domain" stroke="#000" d="M0,120.5H0.5V0.5H0"></path><g class="tick" opacity="1" transform="translate(0,107.16666666666667)"><line stroke="#000" x2="-255"></line><text fill="#000" x="3" dy="0.32em">-10</text></g><g class="tick" opacity="1" transform="translate(0,73.83333333333334)"><line stroke="#000" x2="-255"></line><text fill="#000" x="3" dy="0.32em">-5</text></g><g class="tick" opacity="1" transform="translate(0,40.5)"><line stroke="#000" x2="-255"></line><text fill="#000" x="3" dy="0.32em">0</text></g><g class="tick" opacity="1" transform="translate(0,7.166666666666671)"><line stroke="#000" x2="-255"></line><text fill="#000" x="3" dy="0.32em">5</text></g><line class="highlight-line" x1="0" y1="40" x2="-255" y2="40"></line></g><g><path d="M1.512810483082339,41.33333333333333L2.9092509290044983,38.66666666666667L4.4553099941326035,64.66666666666666L5.95149618619206,47.33333333333333L7.497555251320164,42.000000000000014L8.993741443379621,43.33333333333334L10.539800508507724,36.66666666666667L12.08585957363583,41.33333333333333L13.582045765695286,46.66666666666666L15.128104830823391,49.33333333333333L16.624291022882847,44L18.170350088010952,37.33333333333333L19.716409153139058,34.66666666666666L21.112849599061217,39.33333333333334L22.658908664189322,24.666666666666657L24.15509485624878,43.33333333333334L25.701153921376882,44.66666666666667L27.197340113436336,40.66666666666667L28.74339917856444,42.66666666666667L30.289458243692547,31.33333333333333L31.785644435752005,25.333333333333343L33.33170350088011,28L34.827889692939564,32.66666666666667L36.37394875806767,45.33333333333333L37.920007823195775,38L39.316448269117934,39.33333333333334L40.86250733424604,40.66666666666667L42.358693526305494,39.33333333333334L43.9047525914336,28L45.40093878349306,40L46.946997848621166,36L48.49305691374927,38L49.989243105808725,46L51.53530217093683,37.33333333333333L53.031488362996285,39.33333333333334L54.57754742812438,34.66666666666666L56.12360649325249,40.66666666666667L57.5699198122433,36L59.115978877371404,47.999999999999986L60.612165069430866,36.66666666666667L62.15822413455897,54L63.654410326618425,51.33333333333333L65.20046939174654,53.33333333333333L66.74652845687463,51.33333333333333L68.24271464893408,52L69.7887737140622,67.33333333333334L71.28495990612166,90.66666666666666L72.83101897124975,96.66666666666667L74.37707803637787,114L75.77351848230002,115.33333333333334L77.31957754742812,107.33333333333333L78.81576373948758,105.33333333333334L80.36182280461568,110L81.85800899667514,102L83.40406806180326,96L84.95012712693135,116L86.4463133189908,104L87.99237238411891,90L89.48855857617836,64.66666666666666L91.03461764130648,57.99999999999999L92.58067670643457,38L93.97711715235674,30.666666666666657L95.52317621748485,14.666666666666671L97.01936240954429,26L98.5654214746724,15.333333333333329L100.06160766673186,24.666666666666657L101.60766673185996,26L103.15372579698807,4.000000000000014L104.64991198904752,9.333333333333329L106.19597105417563,10.666666666666686L107.69215724623508,13.333333333333343L109.2382163113632,12.666666666666657L110.7842753764913,11.333333333333329L112.18071582241346,30.666666666666657L113.72677488754155,44.66666666666667L115.222961079601,47.33333333333333L116.76902014472913,43.33333333333334L118.26520633678858,37.33333333333333L119.81126540191669,41.33333333333333L121.35732446704479,48.66666666666667L122.85351065910424,52L124.39956972423235,53.33333333333333L125.8957559162918,57.99999999999999L127.44181498141991,57.99999999999999L128.987874046548,62.00000000000001L130.43418736553883,50.66666666666666L131.9802464306669,56L133.47643262272638,54.66666666666666L135.02249168785448,54L136.51867787991395,64.66666666666666L138.06473694504206,46L139.61079601017016,47.33333333333333L141.1069822022296,68.66666666666666L142.6530412673577,73.33333333333334L144.14922745941718,63.333333333333336L145.69528652454528,59.333333333333336L147.2413455896734,63.333333333333336L148.63778603559555,61.33333333333333L150.18384510072366,52.66666666666667L151.6800312927831,52L153.2260903579112,53.33333333333333L154.72227654997064,36.66666666666667L156.26833561509875,54.66666666666666L157.81439468022688,54.66666666666666L159.31058087228632,24.666666666666657L160.85663993741446,21.33333333333333L162.3528261294739,29.333333333333343L163.89888519460197,30.666666666666657L165.4449442597301,28L166.84138470565225,25.333333333333343L168.38744377078035,28L169.88362996283982,26L171.42968902796792,30L172.9258752200274,34L174.4719342851555,30L176.01799335028358,29.333333333333343L177.51417954234304,32L179.06023860747115,30.666666666666657L180.55642479953062,29.333333333333343L182.10248386465872,33.33333333333333L183.6485429297868,31.33333333333333L185.044983375709,32L186.5910424408371,28.66666666666667L188.08722863289654,29.333333333333343L189.63328769802465,27.33333333333333L191.12947389008409,28L192.6755329552122,36.66666666666667L194.22159202034032,28.66666666666667L195.71777821239976,30L197.26383727752787,30L198.7600234695873,38.66666666666667L200.30608253471542,42.000000000000014L201.85214159984355,36L203.29845491883435,40.66666666666667L204.84451398396246,40.66666666666667L206.34070017602193,24L207.88675924115,30.666666666666657L209.38294543320944,32.66666666666667L210.92900449833758,26.66666666666667L212.47506356346568,33.33333333333333L213.97124975552512,36.66666666666667L215.51730882065326,42.66666666666667L217.0134950127127,21.33333333333333L218.5595540778408,8L220.1056131429689,16L221.50205358889104,20.666666666666657L223.04811265401915,28L224.54429884607862,43.33333333333334L226.09035791120672,35.33333333333334L227.5865441032662,29.333333333333343L229.1326031683943,28L230.67866223352237,26.66666666666667L232.17484842558184,21.33333333333333L233.72090749070995,13.333333333333343L235.21709368276942,26L236.76315274789752,42.66666666666667L238.3092118130256,32L239.7056522589478,25.333333333333343" fill="none" stroke="#af516c" stroke-linejoin="round" stroke-linecap="round" stroke-width="2"></path></g></g></svg>