<svg xmlns="http://www.w3.org/2000/svg" viewBox="0 0 304 270"><style>/* <![CDATA[ */.chart-title{font-size:20px;fill:#43423e}.chart-subtitle{font-size:15px;fill:#74736c}.chart-source{font-size:10px;fill-opacity:.4}.axis .domain{fill:none;stroke:#74736c}.tick line{fill:none;stroke:#000;stroke-opacity:.2}.tick text{fill-opacity:.6;font-size:12px}.y.axis .tick line{stroke-dasharray:1}.y.axis .domain{fill:none;stroke-opacity:0}.y.axis .highlight-line{fill:none;stroke:#74736c}/* ]]> */</style><text class="chart-title" y="22">公部门净借款</text><text class="chart-subtitle" y="42">Ex. fin. interventions &amp; banks, 12 mth sum, £bn</text><text class="chart-source" y="265">来源:英国国家统计局╱彭博. 2018年4月24日</text><g transform="translate(1,100)"><g class="x axis" transform="translate(0,120)" fill="none" font-size="10" font-family="sans-serif" text-anchor="middle"><path class="domain" stroke="#000" d="M0.5,0V0.5H255.5V0"></path><g class="tick" opacity="1" transform="translate(18.703598670056717,0)"><line stroke="#000" y2="6"></line><text fill="#000" y="9" dy="0.71em">2006</text></g><g class="tick" opacity="1" transform="translate(55.110796010170155,0)"><line stroke="#000" y2="6"></line><text fill="#000" y="9" dy="0.71em">2008</text></g><g class="tick" opacity="1" transform="translate(91.56786622335224,0)"><line stroke="#000" y2="6"></line><text fill="#000" y="9" dy="0.71em">2010</text></g><g class="tick" opacity="1" transform="translate(127.97506356346567,0)"><line stroke="#000" y2="6"></line><text fill="#000" y="9" dy="0.71em">2012</text></g><g class="tick" opacity="1" transform="translate(164.43213377664776,0)"><line stroke="#000" y2="6"></line><text fill="#000" y="9" dy="0.71em">2014</text></g><g class="tick" opacity="1" transform="translate(200.8393311167612,0)"><line stroke="#000" y2="6"></line><text fill="#000" y="9" dy="0.71em">2016</text></g><g class="tick" opacity="1" transform="translate(237.29640132994328,0)"><line stroke="#000" y2="6"></line><text fill="#000" y="9" dy="0.71em">2018</text></g></g><g class="y axis" transform="translate(255,0)" fill="none" font-size="10" font-family="sans-serif" text-anchor="start"><path class="domain" stroke="#000" d="M0,120.5H0.5V0.5H0"></path><g class="tick" opacity="1" transform="translate(0,115.54132231404958)"><line stroke="#000" x2="-255"></line><text fill="#000" x="3" dy="0.32em">40</text></g><g class="tick" opacity="1" transform="translate(0,95.70661157024793)"><line stroke="#000" x2="-255"></line><text fill="#000" x="3" dy="0.32em">60</text></g><g class="tick" opacity="1" transform="translate(0,75.87190082644628)"><line stroke="#000" x2="-255"></line><text fill="#000" x="3" dy="0.32em">80</text></g><g class="tick" opacity="1" transform="translate(0,56.03719008264463)"><line stroke="#000" x2="-255"></line><text fill="#000" x="3" dy="0.32em">100</text></g><g class="tick" opacity="1" transform="translate(0,36.20247933884298)"><line stroke="#000" x2="-255"></line><text fill="#000" x="3" dy="0.32em">120</text></g><g class="tick" opacity="1" transform="translate(0,16.367768595041326)"><line stroke="#000" x2="-255"></line><text fill="#000" x="3" dy="0.32em">140</text></g></g><g><path d="M1.512810483082339,112.88330578512397L2.9092509290044983,110.81057851239669L4.4553099941326035,108.96495867768594L5.95149618619206,112.21090909090908L7.497555251320164,113.78776859504131L8.993741443379621,111.33917355371901L10.539800508507724,112.5292561983471L12.08585957363583,112.5699173553719L13.582045765695286,113.63801652892562L15.128104830823391,114.01785123966941L16.624291022882847,111.26380165289257L18.170350088010952,111.00694214876033L19.716409153139058,113.20165289256198L21.112849599061217,113.00727272727272L22.658908664189322,113.61123966942148L24.15509485624878,113.51702479338843L25.701153921376882,112.90611570247934L27.197340113436336,113.56462809917355L28.74339917856444,113.56462809917355L30.289458243692547,114.26479338842974L31.785644435752005,112.58280991735536L33.33170350088011,113.01818181818183L34.827889692939564,113.79173553719009L36.37394875806767,114.67140495867768L37.920007823195775,116.68264462809917L39.316448269117934,119.19570247933885L40.86250733424604,117.16066115702479L42.358693526305494,118.28231404958677L43.9047525914336,118.14247933884297L45.40093878349306,117.71603305785123L46.946997848621166,117.97289256198346L48.49305691374927,116.24826446280991L49.989243105808725,117.75966942148762L51.53530217093683,115.66809917355373L53.031488362996285,116.31371900826447L54.57754742812438,115.44892561983471L56.12360649325249,116.5795041322314L57.5699198122433,113.82545454545455L59.115978877371404,112.21487603305785L60.612165069430866,109.12859504132231L62.15822413455897,106.52033057851239L63.654410326618425,103.89619834710743L65.20046939174654,101.3404958677686L66.74652845687463,98.02611570247934L68.24271464893408,91.2109090909091L69.7887737140622,86.67471074380165L71.28495990612166,80.09454545454545L72.83101897124975,70.23471074380164L74.37707803637787,58.02049586776859L75.77351848230002,50.32561983471072L77.31957754742812,42.153719008264446L78.81576373948758,38.19570247933885L80.36182280461568,32.52297520661159L81.85800899667514,23.14809917355373L83.40406806180326,17.528925619834723L84.95012712693135,14.439669421487608L86.4463133189908,11.469421487603341L87.99237238411891,7.791074380165313L89.48855857617836,6.171570247933886L91.03461764130648,0.5494214876032828L92.58067670643457,0.18347107438015087L93.97711715235674,1.800991735537167L95.52317621748485,2.9494214876033027L97.01936240954429,4.527272727272731L98.5654214746724,4.668099173553713L100.06160766673186,8.840330578512393L101.60766673185996,8.720330578512375L103.15372579698807,8.982148760330574L104.64991198904752,9.434380165289241L106.19597105417563,9.388760330578506L107.69215724623508,8.182809917355343L109.2382163113632,11.836363636363643L110.7842753764913,18.405619834710734L112.18071582241346,18.70512396694214L113.72677488754155,18.77454545454546L115.222961079601,16.48661157024793L116.76902014472913,20.299834710743795L118.26520633678858,22.59471074380167L119.81126540191669,27.08925619834713L121.35732446704479,29.113388429752064L122.85351065910424,30.55140495867768L124.39956972423235,32.108429752066115L125.8957559162918,36.5890909090909L127.44181498141991,40.22082644628101L128.987874046548,40.38446280991734L130.43418736553883,39.328264462809926L131.9802464306669,39.44231404958677L133.47643262272638,29.4595041322314L135.02249168785448,25.574876033057862L136.51867787991395,25.944793388429744L138.06473694504206,27.980826446280986L139.61079601017016,27.222148760330555L141.1069822022296,27.946115702479318L142.6530412673577,28.679008264462794L144.14922745941718,27.710082644628102L145.69528652454528,27.413553719008263L147.2413455896734,28.64132231404959L148.63778603559555,31.36165289256199L150.18384510072366,34.85157024793389L151.6800312927831,45.74677685950412L153.2260903579112,49.53024793388428L154.72227654997064,50.216528925619826L156.26833561509875,48.997685950413214L157.81439468022688,50.42975206611568L159.31058087228632,51.873719008264445L160.85663993741446,52.56297520661158L162.3528261294739,53.19669421487605L163.89888519460197,56.227438016528936L165.4449442597301,56.20661157024793L166.84138470565225,54.381818181818176L168.38744377078035,57.25685950413222L169.88362996283982,56.74413223140496L171.42968902796792,55.82975206611569L172.9258752200274,56.214545454545444L174.4719342851555,56.44561983471074L176.01799335028358,56.44363636363639L177.51417954234304,55.853553719008275L179.06023860747115,56.04198347107438L180.55642479953062,58.70677685950413L182.10248386465872,57.539504132231414L183.6485429297868,61.038347107438014L185.044983375709,63.83107438016529L186.5910424408371,63.937190082644626L188.08722863289654,65.29586776859504L189.63328769802465,68.32760330578513L191.12947389008409,68.90776859504132L192.6755329552122,70.43702479338843L194.22159202034032,70.48760330578513L195.71777821239976,72.17057851239669L197.26383727752787,73.03537190082646L198.7600234695873,72.70314049586776L200.30608253471542,77.44661157024794L201.85214159984355,80.69355371900828L203.29845491883435,81.37586776859506L204.84451398396246,82.29322314049588L206.34070017602193,82.59669421487602L207.88675924115,83.06181818181818L209.38294543320944,85.98446280991737L210.92900449833758,87.50380165289256L212.47506356346568,89.24330578512397L213.97124975552512,90.51669421487603L215.51730882065326,93.35603305785123L217.0134950127127,95.76297520661157L218.5595540778408,97.89818181818181L220.1056131429689,100.65024793388432L221.50205358889104,106.5193388429752L223.04811265401915,108.9401652892562L224.54429884607862,108.86082644628098L226.09035791120672,108.88661157024794L227.5865441032662,107.67371900826446L229.1326031683943,108.87570247933884L230.67866223352237,111.44330578512395L232.17484842558184,113.00628099173554L233.72090749070995,112.74842975206612L235.21709368276942,113.52396694214876L236.76315274789752,115.8902479338843L238.3092118130256,113.97719008264463L239.7056522589478,111.6495867768595L241.2517113240759,112.42809917355372" fill="none" stroke="#af516c" stroke-linejoin="round" stroke-linecap="round" stroke-width="2"></path></g></g></svg>