<svg xmlns="http://www.w3.org/2000/svg" viewBox="0 0 304 270"><style>/* <![CDATA[ */.chart-title{font-size:20px;fill:#43423e}.chart-subtitle{font-size:15px;fill:#74736c}.chart-source{font-size:10px;fill-opacity:.4}.axis .domain{fill:none;stroke:#74736c}.tick line{fill:none;stroke:#000;stroke-opacity:.2}.tick text{fill-opacity:.6;font-size:12px}.y.axis .tick line{stroke-dasharray:1}.y.axis .domain{fill:none;stroke-opacity:0}.y.axis .highlight-line{fill:none;stroke:#74736c}/* ]]> */</style><text class="chart-title" y="22">Public sector net debt</text><text class="chart-subtitle" y="42">占GDP的比例％</text><text class="chart-source" y="265">来源:英国国家统计局╱彭博. 2018年4月24日</text><g transform="translate(1,100)"><g class="x axis" transform="translate(0,120)" fill="none" font-size="10" font-family="sans-serif" text-anchor="middle"><path class="domain" stroke="#000" d="M0.5,0V0.5H255.5V0"></path><g class="tick" opacity="1" transform="translate(18.703598670056717,0)"><line stroke="#000" y2="6"></line><text fill="#000" y="9" dy="0.71em">2006</text></g><g class="tick" opacity="1" transform="translate(55.110796010170155,0)"><line stroke="#000" y2="6"></line><text fill="#000" y="9" dy="0.71em">2008</text></g><g class="tick" opacity="1" transform="translate(91.56786622335224,0)"><line stroke="#000" y2="6"></line><text fill="#000" y="9" dy="0.71em">2010</text></g><g class="tick" opacity="1" transform="translate(127.97506356346567,0)"><line stroke="#000" y2="6"></line><text fill="#000" y="9" dy="0.71em">2012</text></g><g class="tick" opacity="1" transform="translate(164.43213377664776,0)"><line stroke="#000" y2="6"></line><text fill="#000" y="9" dy="0.71em">2014</text></g><g class="tick" opacity="1" transform="translate(200.8393311167612,0)"><line stroke="#000" y2="6"></line><text fill="#000" y="9" dy="0.71em">2016</text></g><g class="tick" opacity="1" transform="translate(237.29640132994328,0)"><line stroke="#000" y2="6"></line><text fill="#000" y="9" dy="0.71em">2018</text></g></g><g class="y axis" transform="translate(255,0)" fill="none" font-size="10" font-family="sans-serif" text-anchor="start"><path class="domain" stroke="#000" d="M0,120.5H0.5V0.5H0"></path><g class="tick" opacity="1" transform="translate(0,101.21428571428571)"><line stroke="#000" x2="-255"></line><text fill="#000" x="3" dy="0.32em">40</text></g><g class="tick" opacity="1" transform="translate(0,79.78571428571428)"><line stroke="#000" x2="-255"></line><text fill="#000" x="3" dy="0.32em">50</text></g><g class="tick" opacity="1" transform="translate(0,58.357142857142854)"><line stroke="#000" x2="-255"></line><text fill="#000" x="3" dy="0.32em">60</text></g><g class="tick" opacity="1" transform="translate(0,36.92857142857143)"><line stroke="#000" x2="-255"></line><text fill="#000" x="3" dy="0.32em">70</text></g><g class="tick" opacity="1" transform="translate(0,15.5)"><line stroke="#000" x2="-255"></line><text fill="#000" x="3" dy="0.32em">80</text></g></g><g><path d="M1.512810483082339,117.85714285714286L2.9092509290044983,118.28571428571428L4.4553099941326035,116.35714285714285L5.95149618619206,116.78571428571429L7.497555251320164,116.57142857142857L8.993741443379621,115.07142857142858L10.539800508507724,116.57142857142857L12.08585957363583,116.14285714285715L13.582045765695286,114.85714285714286L15.128104830823391,115.71428571428571L16.624291022882847,114.64285714285714L18.170350088010952,112.5L19.716409153139058,116.14285714285715L21.112849599061217,116.14285714285715L22.658908664189322,114.21428571428571L24.15509485624878,114.64285714285714L25.701153921376882,113.78571428571429L27.197340113436336,112.07142857142857L28.74339917856444,114.21428571428571L30.289458243692547,113.78571428571429L31.785644435752005,112.5L33.33170350088011,113.78571428571429L34.827889692939564,112.92857142857143L36.37394875806767,111.21428571428571L37.920007823195775,114.42857142857143L39.316448269117934,114.64285714285714L40.86250733424604,112.5L42.358693526305494,113.14285714285714L43.9047525914336,112.5L45.40093878349306,111.21428571428571L46.946997848621166,113.14285714285714L48.49305691374927,112.71428571428572L49.989243105808725,111.64285714285714L51.53530217093683,112.5L53.031488362996285,111.42857142857143L54.57754742812438,109.5L56.12360649325249,112.71428571428572L57.5699198122433,112.28571428571428L59.115978877371404,110.57142857142857L60.612165069430866,110.35714285714286L62.15822413455897,108.64285714285715L63.654410326618425,106.07142857142857L65.20046939174654,102.21428571428572L66.74652845687463,100.5L68.24271464893408,94.92857142857142L69.7887737140622,93.64285714285715L71.28495990612166,91.5L72.83101897124975,84.42857142857143L74.37707803637787,84.42857142857143L75.77351848230002,83.14285714285714L77.31957754742812,79.07142857142857L78.81576373948758,76.71428571428571L80.36182280461568,73.71428571428572L81.85800899667514,70.07142857142858L83.40406806180326,69.42857142857143L84.95012712693135,69.21428571428571L86.4463133189908,66.85714285714286L87.99237238411891,66L89.48855857617836,64.28571428571428L91.03461764130648,56.785714285714285L92.58067670643457,52.071428571428555L93.97711715235674,51.42857142857143L95.52317621748485,48.000000000000014L97.01936240954429,47.57142857142857L98.5654214746724,46.07142857142857L100.06160766673186,43.499999999999986L101.60766673185996,43.499999999999986L103.15372579698807,42.85714285714285L104.64991198904752,40.07142857142857L106.19597105417563,40.07142857142857L107.69215724623508,38.14285714285714L109.2382163113632,34.92857142857143L110.7842753764913,37.071428571428555L112.18071582241346,36.42857142857143L113.72677488754155,33.428571428571416L115.222961079601,33.21428571428572L116.76902014472913,32.35714285714285L118.26520633678858,30.214285714285694L119.81126540191669,31.285714285714263L121.35732446704479,29.14285714285714L122.85351065910424,28.285714285714292L124.39956972423235,28.714285714285737L125.8957559162918,27.642857142857153L127.44181498141991,25.07142857142857L128.987874046548,27.642857142857153L130.43418736553883,27.214285714285722L131.9802464306669,25.500000000000014L133.47643262272638,25.928571428571416L135.02249168785448,25.07142857142857L136.51867787991395,23.14285714285714L138.06473694504206,23.57142857142857L139.61079601017016,23.785714285714263L141.1069822022296,22.071428571428555L142.6530412673577,21.42857142857143L144.14922745941718,20.142857142857153L145.69528652454528,18.000000000000014L147.2413455896734,20.785714285714292L148.63778603559555,20.57142857142857L150.18384510072366,18.000000000000014L151.6800312927831,18.214285714285722L153.2260903579112,16.714285714285708L154.72227654997064,15.642857142857139L156.26833561509875,16.714285714285708L157.81439468022688,16.714285714285708L159.31058087228632,15.428571428571445L160.85663993741446,16.07142857142857L162.3528261294739,15L163.89888519460197,13.285714285714292L165.4449442597301,15.428571428571445L166.84138470565225,15.428571428571445L168.38744377078035,13.92857142857143L169.88362996283982,13.92857142857143L171.42968902796792,12.857142857142847L172.9258752200274,11.357142857142861L174.4719342851555,12.214285714285722L176.01799335028358,12.214285714285722L177.51417954234304,10.500000000000014L179.06023860747115,10.285714285714278L180.55642479953062,9.642857142857153L182.10248386465872,7.5L183.6485429297868,10.285714285714278L185.044983375709,10.285714285714278L186.5910424408371,8.785714285714263L188.08722863289654,9.214285714285708L189.63328769802465,8.357142857142861L191.12947389008409,7.071428571428555L192.6755329552122,8.357142857142861L194.22159202034032,8.785714285714263L195.71777821239976,7.285714285714306L197.26383727752787,7.5L198.7600234695873,7.285714285714306L200.30608253471542,6.857142857142861L201.85214159984355,9.642857142857153L203.29845491883435,10.500000000000014L204.84451398396246,9.42857142857143L206.34070017602193,9.642857142857153L207.88675924115,9.42857142857143L209.38294543320944,9.000000000000014L210.92900449833758,10.928571428571416L212.47506356346568,10.714285714285722L213.97124975552512,9.42857142857143L215.51730882065326,9.857142857142847L217.0134950127127,8.357142857142861L218.5595540778408,5.142857142857153L220.1056131429689,7.5L221.50205358889104,6.428571428571431L223.04811265401915,3.642857142857139L224.54429884607862,4.714285714285722L226.09035791120672,3.4285714285714164L227.5865441032662,1.5000000000000142L229.1326031683943,1.7142857142857082L230.67866223352237,1.7142857142857082L232.17484842558184,0L233.72090749070995,0L235.21709368276942,5.999999999999986L236.76315274789752,3.857142857142861L238.3092118130256,6.214285714285737L239.7056522589478,4.499999999999986L241.2517113240759,1.5000000000000142" fill="none" stroke="#af516c" stroke-linejoin="round" stroke-linecap="round" stroke-width="2"></path></g></g></svg>