<svg xmlns="http://www.w3.org/2000/svg" viewBox="0 0 304 270"><style>/* <![CDATA[ */.chart-title{font-size:20px;fill:#43423e}.chart-subtitle{font-size:15px;fill:#74736c}.chart-source{font-size:10px;fill-opacity:.4}.axis .domain{fill:none;stroke:#74736c}.tick line{fill:none;stroke:#000;stroke-opacity:.2}.tick text{fill-opacity:.6;font-size:12px}.y.axis .tick line{stroke-dasharray:1}.y.axis .domain{fill:none;stroke-opacity:0}.y.axis .highlight-line{fill:none;stroke:#74736c}/* ]]> */</style><text class="chart-title" y="22">实质收益增长</text><text class="chart-subtitle" y="42">年增长％</text><text class="chart-source" y="265">来源:英国国家统计局╱彭博. 2018年4月18日</text><g transform="translate(1,100)"><g class="x axis" transform="translate(0,120)" fill="none" font-size="10" font-family="sans-serif" text-anchor="middle"><path class="domain" stroke="#000" d="M0.5,0V0.5H255.5V0"></path><g class="tick" opacity="1" transform="translate(18.703598670056717,0)"><line stroke="#000" y2="6"></line><text fill="#000" y="9" dy="0.71em">2006</text></g><g class="tick" opacity="1" transform="translate(55.110796010170155,0)"><line stroke="#000" y2="6"></line><text fill="#000" y="9" dy="0.71em">2008</text></g><g class="tick" opacity="1" transform="translate(91.56786622335224,0)"><line stroke="#000" y2="6"></line><text fill="#000" y="9" dy="0.71em">2010</text></g><g class="tick" opacity="1" transform="translate(127.97506356346567,0)"><line stroke="#000" y2="6"></line><text fill="#000" y="9" dy="0.71em">2012</text></g><g class="tick" opacity="1" transform="translate(164.43213377664776,0)"><line stroke="#000" y2="6"></line><text fill="#000" y="9" dy="0.71em">2014</text></g><g class="tick" opacity="1" transform="translate(200.8393311167612,0)"><line stroke="#000" y2="6"></line><text fill="#000" y="9" dy="0.71em">2016</text></g><g class="tick" opacity="1" transform="translate(237.29640132994328,0)"><line stroke="#000" y2="6"></line><text fill="#000" y="9" dy="0.71em">2018</text></g></g><g class="y axis" transform="translate(255,0)" fill="none" font-size="10" font-family="sans-serif" text-anchor="start"><path class="domain" stroke="#000" d="M0,120.5H0.5V0.5H0"></path><g class="tick" opacity="1" transform="translate(0,108.5)"><line stroke="#000" x2="-255"></line><text fill="#000" x="3" dy="0.32em">-2</text></g><g class="tick" opacity="1" transform="translate(0,84.5)"><line stroke="#000" x2="-255"></line><text fill="#000" x="3" dy="0.32em">0</text></g><g class="tick" opacity="1" transform="translate(0,60.5)"><line stroke="#000" x2="-255"></line><text fill="#000" x="3" dy="0.32em">2</text></g><g class="tick" opacity="1" transform="translate(0,36.5)"><line stroke="#000" x2="-255"></line><text fill="#000" x="3" dy="0.32em">4</text></g><g class="tick" opacity="1" transform="translate(0,12.5)"><line stroke="#000" x2="-255"></line><text fill="#000" x="3" dy="0.32em">6</text></g><line class="highlight-line" x1="0" y1="84" x2="-255" y2="84"></line></g><g class="chart-key" transform="translate(0, -35)"><g class="key-element" transform="translate(0,0)"><text x="28" font-size="12">定期周收益率</text><line x1="0" x2="25" y1="-5" y2="-5" stroke-width="2" fill="none" stroke="#af516c"></line></g><g class="key-element" transform="translate(0,20)"><text x="28" font-size="12">通胀(CPI)</text><line x1="0" x2="25" y1="-5" y2="-5" stroke-width="2" fill="none" stroke="#76acb8"></line></g></g><g><path d="M1.512810483082339,26.39999999999999L2.9092509290044983,24L4.4553099941326035,25.19999999999999L5.95149618619206,27.599999999999994L7.497555251320164,32.400000000000006L8.993741443379621,31.200000000000003L10.539800508507724,28.799999999999997L12.08585957363583,26.39999999999999L13.582045765695286,26.39999999999999L15.128104830823391,28.799999999999997L16.624291022882847,32.400000000000006L18.170350088010952,32.400000000000006L19.716409153139058,32.400000000000006L21.112849599061217,26.39999999999999L22.658908664189322,20.39999999999999L24.15509485624878,19.19999999999999L25.701153921376882,25.19999999999999L27.197340113436336,26.39999999999999L28.74339917856444,25.19999999999999L30.289458243692547,28.799999999999997L31.785644435752005,37.19999999999999L33.33170350088011,38.400000000000006L34.827889692939564,37.19999999999999L36.37394875806767,28.799999999999997L37.920007823195775,18L39.316448269117934,4.800000000000011L40.86250733424604,8.399999999999991L42.358693526305494,19.19999999999999L43.9047525914336,30L45.40093878349306,32.400000000000006L46.946997848621166,30L48.49305691374927,27.599999999999994L49.989243105808725,22.80000000000001L51.53530217093683,25.19999999999999L53.031488362996285,27.599999999999994L54.57754742812438,37.19999999999999L56.12360649325249,36L57.5699198122433,37.19999999999999L59.115978877371404,30L60.612165069430866,27.599999999999994L62.15822413455897,28.799999999999997L63.654410326618425,36L65.20046939174654,42L66.74652845687463,45.599999999999994L68.24271464893408,49.19999999999999L69.7887737140622,48L71.28495990612166,51.599999999999994L72.83101897124975,51.599999999999994L74.37707803637787,69.6L75.77351848230002,102L77.31957754742812,115.2L78.81576373948758,105.6L80.36182280461568,79.2L81.85800899667514,72L83.40406806180326,76.80000000000001L84.95012712693135,76.80000000000001L86.4463133189908,76.80000000000001L87.99237238411891,76.80000000000001L89.48855857617836,75.6L91.03461764130648,75.6L92.58067670643457,70.80000000000001L93.97711715235674,52.80000000000001L95.52317621748485,49.19999999999999L97.01936240954429,50.400000000000006L98.5654214746724,64.80000000000001L100.06160766673186,64.80000000000001L101.60766673185996,63.599999999999994L103.15372579698807,62.400000000000006L104.64991198904752,61.199999999999996L106.19597105417563,58.8L107.69215724623508,57.599999999999994L109.2382163113632,57.599999999999994L110.7842753764913,54L112.18071582241346,52.80000000000001L113.72677488754155,50.400000000000006L115.222961079601,54L116.76902014472913,56.4L118.26520633678858,55.19999999999999L119.81126540191669,52.80000000000001L121.35732446704479,52.80000000000001L122.85351065910424,57.599999999999994L124.39956972423235,61.199999999999996L125.8957559162918,61.199999999999996L127.44181498141991,61.199999999999996L128.987874046548,67.19999999999999L130.43418736553883,72L131.9802464306669,75.6L133.47643262272638,69.6L135.02249168785448,67.19999999999999L136.51867787991395,66L138.06473694504206,67.19999999999999L139.61079601017016,64.80000000000001L141.1069822022296,62.400000000000006L142.6530412673577,63.599999999999994L144.14922745941718,66L145.69528652454528,69.6L147.2413455896734,68.4L148.63778603559555,69.6L150.18384510072366,76.80000000000001L151.6800312927831,67.19999999999999L153.2260903579112,64.80000000000001L154.72227654997064,58.8L156.26833561509875,70.80000000000001L157.81439468022688,75.6L159.31058087228632,75.6L160.85663993741446,74.4L162.3528261294739,74.4L163.89888519460197,72L165.4449442597301,68.4L166.84138470565225,63.599999999999994L168.38744377078035,62.400000000000006L169.88362996283982,76.80000000000001L171.42968902796792,84L172.9258752200274,87.6L174.4719342851555,78L176.01799335028358,76.80000000000001L177.51417954234304,73.19999999999999L179.06023860747115,67.19999999999999L180.55642479953062,62.400000000000006L182.10248386465872,58.8L183.6485429297868,60L185.044983375709,61.199999999999996L186.5910424408371,55.19999999999999L188.08722863289654,50.400000000000006L189.63328769802465,45.599999999999994L191.12947389008409,51.599999999999994L192.6755329552122,48L194.22159202034032,46.8L195.71777821239976,46.8L197.26383727752787,54L198.7600234695873,58.8L200.30608253471542,60L201.85214159984355,56.4L203.29845491883435,58.8L204.84451398396246,57.599999999999994L206.34070017602193,57.599999999999994L207.88675924115,54L209.38294543320944,54L210.92900449833758,55.19999999999999L212.47506356346568,56.4L213.97124975552512,55.19999999999999L215.51730882065326,55.19999999999999L217.0134950127127,51.599999999999994L218.5595540778408,54L220.1056131429689,57.599999999999994L221.50205358889104,57.599999999999994L223.04811265401915,55.19999999999999L224.54429884607862,57.599999999999994L226.09035791120672,61.199999999999996L227.5865441032662,58.8L229.1326031683943,57.599999999999994L230.67866223352237,56.4L232.17484842558184,56.4L233.72090749070995,54L235.21709368276942,54L236.76315274789752,52.80000000000001L238.3092118130256,50.400000000000006L239.7056522589478,50.400000000000006" fill="none" stroke="#af516c" stroke-linejoin="round" stroke-linecap="round" stroke-width="2"></path><path d="M1.512810483082339,64.80000000000001L2.9092509290044983,63.599999999999994L4.4553099941326035,61.199999999999996L5.95149618619206,61.199999999999996L7.497555251320164,61.199999999999996L8.993741443379621,60L10.539800508507724,56.4L12.08585957363583,55.19999999999999L13.582045765695286,54L15.128104830823391,56.4L16.624291022882847,58.8L18.170350088010952,61.199999999999996L19.716409153139058,61.199999999999996L21.112849599061217,60L22.658908664189322,62.400000000000006L24.15509485624878,60L25.701153921376882,57.599999999999994L27.197340113436336,54L28.74339917856444,55.19999999999999L30.289458243692547,54L31.785644435752005,55.19999999999999L33.33170350088011,55.19999999999999L34.827889692939564,51.599999999999994L36.37394875806767,48L37.920007823195775,51.599999999999994L39.316448269117934,50.400000000000006L40.86250733424604,46.8L42.358693526305494,50.400000000000006L43.9047525914336,54L45.40093878349306,55.19999999999999L46.946997848621166,61.199999999999996L48.49305691374927,62.400000000000006L49.989243105808725,62.400000000000006L51.53530217093683,58.8L53.031488362996285,58.8L54.57754742812438,58.8L56.12360649325249,57.599999999999994L57.5699198122433,54L59.115978877371404,54L60.612165069430866,48L62.15822413455897,44.400000000000006L63.654410326618425,38.400000000000006L65.20046939174654,31.200000000000003L66.74652845687463,27.599999999999994L68.24271464893408,21.60000000000001L69.7887737140622,30L71.28495990612166,34.80000000000001L72.83101897124975,46.8L74.37707803637787,48L75.77351848230002,45.599999999999994L77.31957754742812,49.19999999999999L78.81576373948758,56.4L80.36182280461568,57.599999999999994L81.85800899667514,62.400000000000006L83.40406806180326,62.400000000000006L84.95012712693135,64.80000000000001L86.4463133189908,70.80000000000001L87.99237238411891,66L89.48855857617836,61.199999999999996L91.03461764130648,49.19999999999999L92.58067670643457,42L93.97711715235674,48L95.52317621748485,43.2L97.01936240954429,39.599999999999994L98.5654214746724,43.2L100.06160766673186,45.599999999999994L101.60766673185996,46.8L103.15372579698807,46.8L104.64991198904752,46.8L106.19597105417563,45.599999999999994L107.69215724623508,44.400000000000006L109.2382163113632,39.599999999999994L110.7842753764913,36L112.18071582241346,31.200000000000003L113.72677488754155,36L115.222961079601,30L116.76902014472913,30L118.26520633678858,33.60000000000001L119.81126540191669,31.200000000000003L121.35732446704479,30L122.85351065910424,21.60000000000001L124.39956972423235,24L125.8957559162918,26.39999999999999L127.44181498141991,33.60000000000001L128.987874046548,40.80000000000001L130.43418736553883,43.2L131.9802464306669,42L133.47643262272638,48L135.02249168785448,50.400000000000006L136.51867787991395,55.19999999999999L138.06473694504206,52.80000000000001L139.61079601017016,54L141.1069822022296,57.599999999999994L142.6530412673577,51.599999999999994L144.14922745941718,51.599999999999994L145.69528652454528,51.599999999999994L147.2413455896734,51.599999999999994L148.63778603559555,50.400000000000006L150.18384510072366,50.400000000000006L151.6800312927831,55.19999999999999L153.2260903579112,51.599999999999994L154.72227654997064,49.19999999999999L156.26833561509875,50.400000000000006L157.81439468022688,51.599999999999994L159.31058087228632,51.599999999999994L160.85663993741446,57.599999999999994L162.3528261294739,58.8L163.89888519460197,60L165.4449442597301,61.199999999999996L166.84138470565225,63.599999999999994L168.38744377078035,64.80000000000001L169.88362996283982,62.400000000000006L171.42968902796792,66L172.9258752200274,61.199999999999996L174.4719342851555,64.80000000000001L176.01799335028358,66L177.51417954234304,69.6L179.06023860747115,68.4L180.55642479953062,72L182.10248386465872,78L183.6485429297868,80.4L185.044983375709,84L186.5910424408371,84L188.08722863289654,85.2L189.63328769802465,82.8L191.12947389008409,84L192.6755329552122,82.8L194.22159202034032,84L195.71777821239976,85.2L197.26383727752787,85.2L198.7600234695873,82.8L200.30608253471542,81.6L201.85214159984355,80.4L203.29845491883435,80.4L204.84451398396246,78L206.34070017602193,80.4L207.88675924115,80.4L209.38294543320944,78L210.92900449833758,76.80000000000001L212.47506356346568,76.80000000000001L213.97124975552512,72L215.51730882065326,73.19999999999999L217.0134950127127,69.6L218.5595540778408,64.80000000000001L220.1056131429689,62.400000000000006L221.50205358889104,56.4L223.04811265401915,56.4L224.54429884607862,51.599999999999994L226.09035791120672,49.19999999999999L227.5865441032662,52.80000000000001L229.1326031683943,52.80000000000001L230.67866223352237,49.19999999999999L232.17484842558184,48L233.72090749070995,48L235.21709368276942,46.8L236.76315274789752,48L238.3092118130256,48L239.7056522589478,51.599999999999994L241.2517113240759,54" fill="none" stroke="#76acb8" stroke-linejoin="round" stroke-linecap="round" stroke-width="2"></path></g></g></svg>