<svg xmlns="http://www.w3.org/2000/svg" viewBox="0 0 304 270"><style>/* <![CDATA[ */.chart-title{font-size:20px;fill:#43423e}.chart-subtitle{font-size:15px;fill:#74736c}.chart-source{font-size:10px;fill-opacity:.4}.axis .domain{fill:none;stroke:#74736c}.tick line{fill:none;stroke:#000;stroke-opacity:.2}.tick text{fill-opacity:.6;font-size:12px}.y.axis .tick line{stroke-dasharray:1}.y.axis .domain{fill:none;stroke-opacity:0}.y.axis .highlight-line{fill:none;stroke:#74736c}/* ]]> */</style><text class="chart-title" y="22">地区平均房价</text><text class="chart-subtitle" y="42">英镑(千)</text><text class="chart-source" y="265">来源:英国土地登记局╱彭博. 2018年4月18日</text><g transform="translate(1,100)"><g class="x axis" transform="translate(0,120)" fill="none" font-size="10" font-family="sans-serif" text-anchor="middle"><path class="domain" stroke="#000" d="M0.5,0V0.5H255.5V0"></path><g class="tick" opacity="1" transform="translate(18.703598670056717,0)"><line stroke="#000" y2="6"></line><text fill="#000" y="9" dy="0.71em">2006</text></g><g class="tick" opacity="1" transform="translate(55.110796010170155,0)"><line stroke="#000" y2="6"></line><text fill="#000" y="9" dy="0.71em">2008</text></g><g class="tick" opacity="1" transform="translate(91.56786622335224,0)"><line stroke="#000" y2="6"></line><text fill="#000" y="9" dy="0.71em">2010</text></g><g class="tick" opacity="1" transform="translate(127.97506356346567,0)"><line stroke="#000" y2="6"></line><text fill="#000" y="9" dy="0.71em">2012</text></g><g class="tick" opacity="1" transform="translate(164.43213377664776,0)"><line stroke="#000" y2="6"></line><text fill="#000" y="9" dy="0.71em">2014</text></g><g class="tick" opacity="1" transform="translate(200.8393311167612,0)"><line stroke="#000" y2="6"></line><text fill="#000" y="9" dy="0.71em">2016</text></g><g class="tick" opacity="1" transform="translate(237.29640132994328,0)"><line stroke="#000" y2="6"></line><text fill="#000" y="9" dy="0.71em">2018</text></g></g><g class="y axis" transform="translate(255,0)" fill="none" font-size="10" font-family="sans-serif" text-anchor="start"><path class="domain" stroke="#000" d="M0,120.5H0.5V0.5H0"></path><g class="tick" opacity="1" transform="translate(0,91.46774193548387)"><line stroke="#000" x2="-255"></line><text fill="#000" x="3" dy="0.32em">200</text></g><g class="tick" opacity="1" transform="translate(0,59.20967741935484)"><line stroke="#000" x2="-255"></line><text fill="#000" x="3" dy="0.32em">300</text></g><g class="tick" opacity="1" transform="translate(0,26.951612903225808)"><line stroke="#000" x2="-255"></line><text fill="#000" x="3" dy="0.32em">400</text></g></g><g class="chart-key" transform="translate(0, -35)"><g class="key-element" transform="translate(0,0)"><text x="28" font-size="12">伦敦</text><line x1="0" x2="25" y1="-5" y2="-5" stroke-width="2" fill="none" stroke="#af516c"></line></g><g class="key-element" transform="translate(0,20)"><text x="28" font-size="12">东北</text><line x1="0" x2="25" y1="-5" y2="-5" stroke-width="2" fill="none" stroke="#76acb8"></line></g><g class="key-element" transform="translate(0,40)"><text x="28" font-size="12">英格兰和威尔斯</text><line x1="0" x2="25" y1="-5" y2="-5" stroke-width="2" fill="none" stroke="#ecafaf"></line></g></g><g><path d="M1.512810483082339,80.74261612903226L2.9092509290044983,80.47812580645162L4.4553099941326035,80.33792258064517L5.95149618619206,79.84405483870968L7.497555251320164,79.94964193548387L8.993741443379621,79.92103548387098L10.539800508507724,80.2882L12.08585957363583,80.0674612903226L13.582045765695286,79.94557741935483L15.128104830823391,80.28225161290322L16.624291022882847,79.17022258064516L18.170350088010952,78.54686451612903L19.716409153139058,78.3195L21.112849599061217,77.94725483870967L22.658908664189322,77.05366774193547L24.15509485624878,76.54319677419355L25.701153921376882,76.12866451612902L27.197340113436336,74.90865483870968L28.74339917856444,75.34673225806452L30.289458243692547,74.12664838709678L31.785644435752005,73.4785129032258L33.33170350088011,72.3559870967742L34.827889692939564,71.86442903225807L36.37394875806767,70.07994838709679L37.920007823195775,69.36950645161289L39.316448269117934,67.73694193548388L40.86250733424604,66.71949677419354L42.358693526305494,65.7431870967742L43.9047525914336,64.8664935483871L45.40093878349306,63.78039677419354L46.946997848621166,62.13358387096774L48.49305691374927,61.05622580645161L49.989243105808725,60.5526064516129L51.53530217093683,59.74093225806452L53.031488362996285,59.22977419354839L54.57754742812438,59.23612903225807L56.12360649325249,59.451990322580635L57.5699198122433,59.67993225806452L59.115978877371404,60.1898129032258L60.612165069430866,60.65436451612905L62.15822413455897,60.90303870967742L63.654410326618425,62.38398709677419L65.20046939174654,64.0822516129032L66.74652845687463,66.24399677419356L68.24271464893408,67.76282580645162L69.7887737140622,69.91348387096772L71.28495990612166,71.61114193548389L72.83101897124975,73.33179032258064L74.37707803637787,74.07724838709677L75.77351848230002,74.29776774193547L77.31957754742812,74.94064838709677L78.81576373948758,76.29399677419354L80.36182280461568,75.46029999999999L81.85800899667514,74.05783870967741L83.40406806180326,74.00021935483872L84.95012712693135,72.62636129032259L86.4463133189908,70.79636129032258L87.99237238411891,69.36959032258065L89.48855857617836,68.89170645161289L91.03461764130648,68.12718064516129L92.58067670643457,65.52746129032258L93.97711715235674,64.9156741935484L95.52317621748485,64.09371935483873L97.01936240954429,64.5483870967742L98.5654214746724,65.30297741935485L100.06160766673186,64.1175322580645L101.60766673185996,63.48317096774195L103.15372579698807,63.55320967741935L104.64991198904752,63.667661290322584L106.19597105417563,63.798477419354846L107.69215724623508,63.893025806451604L109.2382163113632,63.325174193548385L110.7842753764913,62.843148387096775L112.18071582241346,62.70180322580647L113.72677488754155,61.742477419354834L115.222961079601,60.75016451612904L116.76902014472913,64.38513225806452L118.26520633678858,63.6845806451613L119.81126540191669,62.52084193548386L121.35732446704479,62.31693548387097L122.85351065910424,62.04334838709678L124.39956972423235,61.820690322580646L125.8957559162918,61.096280645161286L127.44181498141991,61.22324516129032L128.987874046548,60.69273870967742L130.43418736553883,60.30886451612902L131.9802464306669,60.472770967741944L133.47643262272638,59.19287741935482L135.02249168785448,58.15886451612902L136.51867787991395,56.97252580645162L138.06473694504206,58.34956451612904L139.61079601017016,57.60865806451614L141.1069822022296,57.87221612903225L142.6530412673577,56.001129032258056L144.14922745941718,55.579548387096764L145.69528652454528,54.39900645161289L147.2413455896734,55.1097870967742L148.63778603559555,53.43911612903227L150.18384510072366,53.28498387096775L151.6800312927831,52.17629354838709L153.2260903579112,52.31033870967741L154.72227654997064,51.31605806451614L156.26833561509875,50.66616451612903L157.81439468022688,49.50633225806452L159.31058087228632,47.617403225806456L160.85663993741446,46.43811612903224L162.3528261294739,44.381096774193566L163.89888519460197,42.113906451612905L165.4449442597301,40.66884193548387L166.84138470565225,39.09454838709675L168.38744377078035,37.375951612903236L169.88362996283982,34.45287741935485L171.42968902796792,32.56118064516127L172.9258752200274,30.95508387096774L174.4719342851555,29.235570967741936L176.01799335028358,27.23766451612903L177.51417954234304,27.070654838709686L179.06023860747115,26.236935483870965L180.55642479953062,26.000825806451616L182.10248386465872,25.657122580645165L183.6485429297868,25.533090322580648L185.044983375709,24.016261290322575L186.5910424408371,23.47616451612903L188.08722863289654,23.073929032258064L189.63328769802465,21.82426451612902L191.12947389008409,20.60129354838709L192.6755329552122,18.650499999999994L194.22159202034032,17.23739677419354L195.71777821239976,15.487951612903231L197.26383727752787,13.978745161290334L198.7600234695873,11.690854838709697L200.30608253471542,10.467348387096791L201.85214159984355,7.954351612903224L203.29845491883435,7.001548387096761L204.84451398396246,4.267554838709671L206.34070017602193,6.744703225806461L207.88675924115,5.173374193548398L209.38294543320944,4.931167741935468L210.92900449833758,4.721141935483871L212.47506356346568,4.940393548387078L213.97124975552512,4.611400000000003L215.51730882065326,3.945490322580639L217.0134950127127,3.337661290322586L218.5595540778408,3.0242935483871065L220.1056131429689,2.244287096774201L221.50205358889104,1.0568161290322706L223.04811265401915,0.5004709677419328L224.54429884607862,0.5800322580645059L226.09035791120672,0.8668193548387109L227.5865441032662,0.9337096774193441L229.1326031683943,0.620348387096783L230.67866223352237,0.7274709677419366L232.17484842558184,0.7915806451613037L233.72090749070995,0.5757935483871108L235.21709368276942,0.8846677419354734L236.76315274789752,0.213832258064528L238.3092118130256,0.35869677419356094L239.7056522589478,2.665590322580641" fill="none" stroke="#af516c" stroke-linejoin="round" stroke-linecap="round" stroke-width="2"></path><path d="M1.512810483082339,119.64270967741935L2.9092509290044983,119.31989032258065L4.4553099941326035,119.06671935483871L5.95149618619206,118.94138064516129L7.497555251320164,118.58738064516129L8.993741443379621,118.39267741935484L10.539800508507724,117.99499032258065L12.08585957363583,117.44939354838709L13.582045765695286,117.39586451612902L15.128104830823391,117.2375935483871L16.624291022882847,116.77041612903226L18.170350088010952,116.62962258064516L19.716409153139058,115.96818387096774L21.112849599061217,115.97812258064516L22.658908664189322,115.47563870967741L24.15509485624878,115.55213225806452L25.701153921376882,115.5315129032258L27.197340113436336,115.16656774193548L28.74339917856444,115.11000967741936L30.289458243692547,115.23274838709678L31.785644435752005,114.18410967741936L33.33170350088011,113.99110967741936L34.827889692939564,114.39511612903226L36.37394875806767,113.11902258064517L37.920007823195775,112.94728387096774L39.316448269117934,112.88632580645161L40.86250733424604,112.85438064516129L42.358693526305494,112.71941612903225L43.9047525914336,112.77432258064516L45.40093878349306,112.51666451612903L46.946997848621166,112.11633548387097L48.49305691374927,112.53627741935483L49.989243105808725,112.13642903225806L51.53530217093683,111.99169677419356L53.031488362996285,111.85679999999999L54.57754742812438,111.66309032258064L56.12360649325249,112.00123548387096L57.5699198122433,111.77587741935484L59.115978877371404,112.4797935483871L60.612165069430866,112.42099677419355L62.15822413455897,112.35315161290323L63.654410326618425,113.19482903225807L65.20046939174654,114.19537096774194L66.74652845687463,114.6763935483871L68.24271464893408,115.75174838709677L69.7887737140622,116.22696451612903L71.28495990612166,116.55516451612903L72.83101897124975,117.38847096774194L74.37707803637787,117.31286129032257L75.77351848230002,117.62744193548387L77.31957754742812,117.85870967741936L78.81576373948758,118.0358935483871L80.36182280461568,117.88130322580645L81.85800899667514,117.76602580645161L83.40406806180326,117.63358709677419L84.95012712693135,117.46621935483871L86.4463133189908,116.78629032258064L87.99237238411891,116.64346129032258L89.48855857617836,116.47245483870968L91.03461764130648,115.7704129032258L92.58067670643457,116.85872258064516L93.97711715235674,116.11134838709677L95.52317621748485,116.00438064516129L97.01936240954429,116.4180064516129L98.5654214746724,116.81458387096774L100.06160766673186,116.89416774193549L101.60766673185996,116.83873870967741L103.15372579698807,116.43423225806451L104.64991198904752,117.30308709677419L106.19597105417563,116.10553870967742L107.69215724623508,117.66651290322581L109.2382163113632,117.48115806451612L110.7842753764913,117.71592580645161L112.18071582241346,117.75938709677419L113.72677488754155,118.4572064516129L115.222961079601,117.69564516129032L116.76902014472913,117.67331612903226L118.26520633678858,118.14392258064517L119.81126540191669,118.64378064516129L121.35732446704479,119.33963548387096L122.85351065910424,118.8935258064516L124.39956972423235,118.78677741935483L125.8957559162918,118.64067096774194L127.44181498141991,118.84206129032258L128.987874046548,119.00829032258065L130.43418736553883,118.68595161290322L131.9802464306669,118.20293548387097L133.47643262272638,118.80485806451613L135.02249168785448,119.00331935483871L136.51867787991395,118.8648L138.06473694504206,118.85678387096775L139.61079601017016,118.48160322580645L141.1069822022296,118.62048709677418L142.6530412673577,118.55042258064516L144.14922745941718,118.67171612903226L145.69528652454528,119.00202580645161L147.2413455896734,118.80183548387097L148.63778603559555,119.28463225806452L150.18384510072366,118.6594806451613L151.6800312927831,119.05677741935484L153.2260903579112,118.8930935483871L154.72227654997064,119.44632258064516L156.26833561509875,118.47812903225807L157.81439468022688,118.34004193548387L159.31058087228632,118.31340967741936L160.85663993741446,119.77034193548387L162.3528261294739,118.73083225806451L163.89888519460197,118.56603225806451L165.4449442597301,118.52768709677419L166.84138470565225,118.37314516129032L168.38744377078035,118.46305483870968L169.88362996283982,118.14157741935483L171.42968902796792,118.04817096774194L172.9258752200274,117.7520935483871L174.4719342851555,117.80155483870968L176.01799335028358,118.05620967741936L177.51417954234304,117.99260967741935L179.06023860747115,117.9699L180.55642479953062,118.01400967741935L182.10248386465872,117.84891612903226L183.6485429297868,117.69174516129033L185.044983375709,117.17168709677419L186.5910424408371,118.02346451612904L188.08722863289654,117.11072258064516L189.63328769802465,117.41983870967742L191.12947389008409,117.31298387096774L192.6755329552122,117.44861290322581L194.22159202034032,117.32707419354838L195.71777821239976,117.02684838709678L197.26383727752787,117.03514516129032L198.7600234695873,116.63849354838709L200.30608253471542,116.36491612903225L201.85214159984355,116.4347L203.29845491883435,116.35454838709677L204.84451398396246,116.30401612903226L206.34070017602193,116.75242580645161L207.88675924115,116.23892903225806L209.38294543320944,116.09847419354838L210.92900449833758,115.83776774193548L212.47506356346568,116.3746258064516L213.97124975552512,116.50782258064515L215.51730882065326,116.14877096774194L217.0134950127127,116.0403935483871L218.5595540778408,115.79819677419356L220.1056131429689,116.10686451612904L221.50205358889104,115.79542580645162L223.04811265401915,116.6381129032258L224.54429884607862,116.05003870967741L226.09035791120672,115.58612903225806L227.5865441032662,115.74038387096775L229.1326031683943,115.70518064516129L230.67866223352237,115.3395064516129L232.17484842558184,115.50764516129033L233.72090749070995,114.67009677419355L235.21709368276942,115.31374193548388L236.76315274789752,114.82720322580646L238.3092118130256,115.36989032258064L239.7056522589478,114.51919032258064" fill="none" stroke="#76acb8" stroke-linejoin="round" stroke-linecap="round" stroke-width="2"></path><path d="M1.512810483082339,104.94633870967742L2.9092509290044983,104.98514516129033L4.4553099941326035,104.63426129032258L5.95149618619206,104.09961612903226L7.497555251320164,103.5287935483871L8.993741443379621,103.20576129032257L10.539800508507724,102.6366677419355L12.08585957363583,102.40421935483872L13.582045765695286,102.49732580645161L15.128104830823391,102.65531612903226L16.624291022882847,102.46473225806452L18.170350088010952,102.1990935483871L19.716409153139058,102.4079193548387L21.112849599061217,102.2590870967742L22.658908664189322,101.89780322580646L24.15509485624878,100.93710967741936L25.701153921376882,100.44035161290323L27.197340113436336,99.91053870967743L28.74339917856444,99.32483870967742L30.289458243692547,98.85281935483872L31.785644435752005,98.64915483870968L33.33170350088011,98.45733870967742L34.827889692939564,98.1846129032258L36.37394875806767,97.4627L37.920007823195775,97.57625161290322L39.316448269117934,97.33448709677418L40.86250733424604,96.97051935483871L42.358693526305494,95.99535161290322L43.9047525914336,95.33490645161291L45.40093878349306,94.69728387096774L46.946997848621166,93.92763548387097L48.49305691374927,93.57643225806451L49.989243105808725,93.46506774193548L51.53530217093683,93.47243548387095L53.031488362996285,93.55682580645161L54.57754742812438,93.61731612903225L56.12360649325249,94.43399032258066L57.5699198122433,94.97862903225807L59.115978877371404,95.4673L60.612165069430866,95.32244516129032L62.15822413455897,95.10296129032258L63.654410326618425,95.85673870967743L65.20046939174654,96.39155161290323L66.74652845687463,97.67759032258064L68.24271464893408,99.10807741935483L69.7887737140622,100.29068387096774L71.28495990612166,101.86715483870967L72.83101897124975,102.64318064516128L74.37707803637787,103.67527419354839L75.77351848230002,104.21566774193548L77.31957754742812,104.72432258064516L78.81576373948758,104.26806774193548L80.36182280461568,103.61069032258065L81.85800899667514,103.09150967741935L83.40406806180326,102.09392258064517L84.95012712693135,101.49844193548387L86.4463133189908,101.00023548387097L87.99237238411891,100.63788064516129L89.48855857617836,100.47665161290323L91.03461764130648,100.04065806451614L92.58067670643457,100.04595161290324L93.97711715235674,99.80206774193549L95.52317621748485,99.89386774193548L97.01936240954429,99.25667096774193L98.5654214746724,98.9516935483871L100.06160766673186,98.69044193548388L101.60766673185996,98.0824193548387L103.15372579698807,98.02699032258064L104.64991198904752,98.18712258064517L106.19597105417563,98.83296774193549L107.69215724623508,99.49353548387097L109.2382163113632,99.54290322580644L110.7842753764913,100.04981612903225L112.18071582241346,100.2374741935484L113.72677488754155,100.52629677419355L115.222961079601,99.70305483870968L116.76902014472913,99.97522580645162L118.26520633678858,99.91980000000001L119.81126540191669,99.2092L121.35732446704479,99.14053225806451L122.85351065910424,99.2755193548387L124.39956972423235,99.83037096774193L125.8957559162918,99.7675L127.44181498141991,99.94519032258064L128.987874046548,100.14310322580644L130.43418736553883,100.16398387096774L131.9802464306669,100.11692258064517L133.47643262272638,99.40518387096773L135.02249168785448,99.25522903225806L136.51867787991395,98.71611612903226L138.06473694504206,98.40781612903226L139.61079601017016,98.30447419354839L141.1069822022296,98.49428387096773L142.6530412673577,98.86478064516129L144.14922745941718,98.75731612903226L145.69528652454528,98.8612L147.2413455896734,99.33419032258064L148.63778603559555,99.2556677419355L150.18384510072366,98.93092580645161L151.6800312927831,98.41947741935483L153.2260903579112,98.16048387096775L154.72227654997064,97.70124516129032L156.26833561509875,97.0584193548387L157.81439468022688,96.59566774193549L159.31058087228632,96.47848064516128L160.85663993741446,96.73957741935484L162.3528261294739,96.42558387096774L163.89888519460197,95.76627741935484L165.4449442597301,95.78617741935484L166.84138470565225,95.44348709677419L168.38744377078035,95.27485806451612L169.88362996283982,93.95504193548388L171.42968902796792,93.31321935483871L172.9258752200274,92.78658387096775L174.4719342851555,91.90665806451614L176.01799335028358,91.10294516129032L177.51417954234304,90.99956129032259L179.06023860747115,91.13341612903226L180.55642479953062,91.31059354838709L182.10248386465872,91.11679032258064L183.6485429297868,91.28128387096774L185.044983375709,91.12209354838708L186.5910424408371,91.15015483870968L188.08722863289654,90.33286451612904L189.63328769802465,89.61976129032257L191.12947389008409,89.11402258064516L192.6755329552122,87.99997419354838L194.22159202034032,87.29321612903226L195.71777821239976,87.12397096774194L197.26383727752787,87.01026451612903L198.7600234695873,86.46020322580645L200.30608253471542,86.12174193548387L201.85214159984355,85.92324516129031L203.29845491883435,85.77974516129032L204.84451398396246,85.1931064516129L206.34070017602193,84.8490129032258L207.88675924115,84.0154L209.38294543320944,83.34524193548387L210.92900449833758,82.61445161290322L212.47506356346568,82.54510322580646L213.97124975552512,82.65333870967741L215.51730882065326,82.88484516129031L217.0134950127127,82.56049032258063L218.5595540778408,82.2956L220.1056131429689,82.39555806451614L221.50205358889104,82.07913548387097L223.04811265401915,82.31629354838711L224.54429884607862,81.27794193548387L226.09035791120672,80.79442580645161L227.5865441032662,80.20178064516128L229.1326031683943,79.33026774193547L230.67866223352237,78.92289032258064L232.17484842558184,79.09618709677419L233.72090749070995,79.04438064516128L235.21709368276942,79.2468741935484L236.76315274789752,78.73628709677419L238.3092118130256,79.18166451612903L239.7056522589478,79.06154516129033" fill="none" stroke="#ecafaf" stroke-linejoin="round" stroke-linecap="round" stroke-width="2"></path></g></g></svg>