<svg xmlns="http://www.w3.org/2000/svg" viewBox="0 0 304 270"><style>/* <![CDATA[ */.chart-title{font-size:20px;fill:#43423e}.chart-subtitle{font-size:15px;fill:#74736c}.chart-source{font-size:10px;fill-opacity:.4}.axis .domain{fill:none;stroke:#74736c}.tick line{fill:none;stroke:#000;stroke-opacity:.2}.tick text{fill-opacity:.6;font-size:12px}.y.axis .tick line{stroke-dasharray:1}.y.axis .domain{fill:none;stroke-opacity:0}.y.axis .highlight-line{fill:none;stroke:#74736c}/* ]]> */</style><text class="chart-title" y="22">中国零售额</text><text class="chart-subtitle" y="42">年增长％</text><text class="chart-source" y="265">来源:CEIC╱国家统计局. 2018年1月18日</text><g transform="translate(1,100)"><g class="x axis" transform="translate(0,120)" fill="none" font-size="10" font-family="sans-serif" text-anchor="middle"><path class="domain" stroke="#000" d="M0.5,0V0.5H255.5V0"></path><g class="tick" opacity="1" transform="translate(11.117727583846682,0)"><line stroke="#000" y2="6"></line><text fill="#000" y="9" dy="0.71em">1995</text></g><g class="tick" opacity="1" transform="translate(64.23545516769337,0)"><line stroke="#000" y2="6"></line><text fill="#000" y="9" dy="0.71em">2000</text></g><g class="tick" opacity="1" transform="translate(117.38227241615331,0)"><line stroke="#000" y2="6"></line><text fill="#000" y="9" dy="0.71em">2005</text></g><g class="tick" opacity="1" transform="translate(170.5,0)"><line stroke="#000" y2="6"></line><text fill="#000" y="9" dy="0.71em">2010</text></g><g class="tick" opacity="1" transform="translate(223.6177275838467,0)"><line stroke="#000" y2="6"></line><text fill="#000" y="9" dy="0.71em">2015</text></g></g><g class="y axis" transform="translate(255,0)" fill="none" font-size="10" font-family="sans-serif" text-anchor="start"><path class="domain" stroke="#000" d="M0,120.5H0.5V0.5H0"></path><g class="tick" opacity="1" transform="translate(0,101.04054054054055)"><line stroke="#000" x2="-255"></line><text fill="#000" x="3" dy="0.32em">10</text></g><g class="tick" opacity="1" transform="translate(0,68.6081081081081)"><line stroke="#000" x2="-255"></line><text fill="#000" x="3" dy="0.32em">20</text></g><g class="tick" opacity="1" transform="translate(0,36.17567567567568)"><line stroke="#000" x2="-255"></line><text fill="#000" x="3" dy="0.32em">30</text></g><g class="tick" opacity="1" transform="translate(0,3.743243243243242)"><line stroke="#000" x2="-255"></line><text fill="#000" x="3" dy="0.32em">40</text></g></g><g><path d="M0.009696554871092859,61.62162162162162L0.9114761578827287,34.702702702702695L1.7259867670545288,55.45945945945947L2.6277663700661646,54.16216216216216L3.500456308464522,48.32432432432432L4.402235911476158,44.10810810810811L5.274925849874515,36L6.176705452886151,22.702702702702695L7.078485055897787,14.918918918918934L7.951174994296144,11.675675675675677L8.852954597307779,0L9.725644535706136,14.594594594594597L10.627424138717773,21.72972972972974L11.52920374172941,41.18918918918918L12.343714350901209,31.459459459459453L13.245493953912845,28.216216216216225L14.118183892311201,33.729729729729726L15.019963495322838,42.16216216216216L15.892653433721195,36.648648648648646L16.79443303673283,44.432432432432435L17.69621263974447,49.297297297297305L18.568902578142826,48.97297297297298L19.470682181154462,53.513513513513516L20.343372119552818,56.108108108108105L21.24515172256445,71.02702702702702L22.14693132557609,41.83783783783784L22.990531599361166,63.891891891891895L23.892311202372806,72.64864864864865L24.76500114077116,70.37837837837839L25.666780743782795,69.72972972972974L26.539470682181154,80.75675675675674L27.44125028519279,78.8108108108108L28.343029888204427,73.62162162162161L29.215719826602783,74.59459459459458L30.11749942961442,75.89189189189189L30.99018936801278,67.78378378378378L31.891968971024415,68.75675675675674L32.79374857403605,92.75675675675676L33.60825918320785,86.59459459459458L34.51003878621948,88.86486486486487L35.38272872461784,90.8108108108108L36.28450832762948,90.8108108108108L37.157198266027834,90.8108108108108L38.058977869039474,94.70270270270271L38.96075747205111,100.86486486486487L39.83344741044946,95.35135135135135L40.735227013461106,97.94594594594594L41.60791695185946,104.10810810810811L42.50969655487109,91.13513513513513L43.411476157882724,113.51351351351352L44.22598676705453,112.21621621621621L45.12776637006617,111.56756756756756L46.00045630846452,110.91891891891892L46.902235911476154,110.91891891891892L47.77492584987451,106.70270270270271L48.67670545288615,102.8108108108108L49.57848505589779,110.27027027027027L50.451174994296146,108.32432432432432L51.35295459730778,108.97297297297297L52.22564453570614,104.75675675675676L53.12742413871777,113.83783783783784L54.02920374172941,98.5945945945946L54.84371435090121,114.16216216216216L55.74549395391284,114.48648648648648L56.6181838923112,115.78378378378379L57.519963495322834,115.45945945945945L58.3926534337212,114.8108108108108L59.29443303673283,113.51351351351352L60.196212639744466,111.56756756756756L61.068902578142826,106.37837837837839L61.97068218115446,107.67567567567568L62.84337211955282,107.02702702702703L63.74515172256446,96.32432432432432L64.64693132557609,98.91891891891892L65.49053159936116,102.8108108108108L66.3923112023728,103.45945945945947L67.26500114077116,95.67567567567568L68.1667807437828,104.10810810810811L69.03947068218116,103.45945945945947L69.9412502851928,102.8108108108108L70.84302988820443,101.83783783783784L71.71571982660278,99.24324324324324L72.61749942961441,104.75675675675676L73.49018936801278,104.43243243243244L74.39196897102441,92.43243243243244L75.29374857403604,105.08108108108108L76.10825918320785,102.16216216216216L77.01003878621948,101.51351351351352L77.88272872461785,96.97297297297297L78.78450832762948,100.54054054054055L79.65719826602783,101.1891891891892L80.55897786903947,101.83783783783784L81.4607574720511,100.86486486486487L82.33344741044947,98.91891891891892L83.2352270134611,100.21621621621622L84.10791695185947,101.83783783783784L85.0096965548711,107.35135135135135L85.91147615788273,103.45945945945947L86.72598676705454,106.05405405405405L87.62776637006617,106.37837837837839L88.50045630846452,102.8108108108108L89.40223591147615,105.08108108108108L90.27492584987452,105.08108108108108L91.17670545288615,104.43243243243244L92.07848505589779,103.45945945945947L92.95117499429615,102.48648648648648L93.85295459730779,103.45945945945947L94.72564453570614,103.13513513513513L95.62742413871779,100.54054054054055L96.52920374172942,105.4054054054054L97.34371435090121,102.8108108108108L98.24549395391284,108L99.11818389231121,119.02702702702703L100.01996349532284,106.05405405405405L100.8926534337212,101.1891891891892L101.79443303673284,100.86486486486487L102.69621263974447,102.16216216216216L103.56890257814281,99.8918918918919L104.47068218115447,101.51351351351352L105.34337211955281,97.62162162162161L106.24515172256444,94.70270270270271L107.14693132557609,103.13513513513513L107.99053159936116,96.97297297297297L108.89231120237281,90.16216216216216L109.76500114077116,75.24324324324324L110.6667807437828,87.8918918918919L111.53947068218116,90.16216216216216L112.4412502851928,90.48648648648648L113.34302988820443,87.56756756756756L114.2157198266028,86.91891891891893L115.11749942961443,87.8918918918919L115.99018936801278,85.94594594594595L116.89196897102441,95.67567567567568L117.79374857403606,81.72972972972973L118.60825918320785,87.8918918918919L119.51003878621948,93.4054054054054L120.38272872461785,91.45945945945945L121.28450832762948,91.13513513513513L122.15719826602785,91.78378378378379L123.05897786903948,92.43243243243244L123.96075747205111,91.78378378378379L124.83344741044945,91.45945945945945L125.7352270134611,92.75675675675676L126.60791695185945,92.43243243243244L127.50969655487108,82.70270270270271L128.41147615788273,102.48648648648648L129.2259867670545,89.1891891891892L130.12776637006615,88.86486486486487L131.00045630846452,86.91891891891893L131.90223591147617,87.8918918918919L132.7749258498745,88.54054054054055L133.67670545288615,88.21621621621621L134.57848505589777,87.8918918918919L135.45117499429617,86.59459459459458L136.3529545973078,87.24324324324324L137.22564453570612,85.62162162162161L138.12742413871777,91.78378378378379L139.0292037417294,78.16216216216216L139.8437143509012,83.35135135135135L140.74549395391284,82.70270270270271L141.6181838923112,81.4054054054054L142.51996349532286,81.08108108108108L143.3926534337212,79.78378378378379L144.29443303673284,77.51351351351352L145.19621263974446,77.83783783783784L146.06890257814283,74.27027027027026L146.97068218115447,72L147.8433721195528,67.45945945945947L148.74515172256446,64.21621621621622L149.64693132557608,71.02702702702702L150.49053159936116,63.24324324324324L151.3923112023728,61.62162162162162L152.26500114077115,62.91891891891892L153.1667807437828,58.37837837837838L154.03947068218116,57.4054054054054L154.9412502851928,57.729729729729726L155.84302988820443,57.729729729729726L156.71571982660276,61.62162162162162L157.6174994296144,65.51351351351352L158.49018936801278,71.35135135135135L159.39196897102443,72.97297297297297L160.29374857403604,95.35135135135135L161.10825918320785,85.29729729729729L162.0100387862195,84.97297297297297L162.88272872461783,83.67567567567568L163.78450832762948,84.32432432432432L164.65719826602785,83.67567567567568L165.5589778690395,83.02702702702703L166.4607574720511,82.70270270270271L167.33344741044945,80.43243243243244L168.2352270134611,81.72972972972973L169.10791695185947,76.21621621621622L170.0096965548711,87.56756756756756L170.91147615788273,61.29729729729729L171.72598676705454,74.59459459459458L172.62776637006618,72.97297297297297L173.50045630846452,72.32432432432432L174.40223591147617,73.62162162162161L175.2749258498745,74.91891891891893L176.17670545288615,73.29729729729729L177.0784850558978,72L177.95117499429614,72.64864864864865L178.8529545973078,72.32432432432432L179.72564453570612,71.02702702702702L180.62742413871777,68.43243243243245L181.52920374172942,95.35135135135135L182.34371435090122,76.54054054054055L183.24549395391287,77.51351351351352L184.1181838923112,78.16216216216216L185.01996349532283,75.56756756756756L185.8926534337212,77.1891891891892L186.7944330367328,77.83783783783784L187.6962126397445,75.56756756756756L188.56890257814283,77.1891891891892L189.47068218115447,76.86486486486487L190.3433721195528,74.27027027027026L192.99053159936116,83.67567567567568L193.8923112023728,87.24324324324324L194.76500114077118,88.21621621621621L195.6667807437828,88.54054054054055L196.53947068218116,90.48648648648648L197.44125028519278,90.16216216216216L198.34302988820443,86.91891891891893L199.21571982660276,85.94594594594595L200.11749942961444,84.64864864864865L200.99018936801278,83.67567567567568L203.60825918320785,92.10810810810811L204.51003878621947,91.45945945945945L205.38272872461783,91.13513513513513L206.28450832762948,89.83783783783784L207.15719826602785,90.16216216216216L208.05897786903947,89.51351351351352L208.9607574720511,89.83783783783784L209.83344741044945,89.83783783783784L210.7352270134611,88.54054054054055L211.60791695185947,88.86486486486487L214.22598676705454,93.4054054054054L215.12776637006615,94.37837837837837L216.00045630846452,92.43243243243244L216.90223591147614,92.75675675675676L217.7749258498745,93.4054054054054L218.67670545288615,94.37837837837837L219.5784850558978,95.35135135135135L220.45117499429614,95.67567567567568L221.35295459730776,95.02702702702703L222.22564453570615,94.37837837837837L224.84371435090122,99.8918918918919L225.74549395391284,100.54054054054055L226.61818389231118,100.21621621621622L227.51996349532283,98.5945945945946L228.3926534337212,98.91891891891892L229.29443303673284,97.94594594594594L230.19621263974446,97.62162162162161L231.06890257814283,97.29729729729729L231.97068218115444,96.64864864864865L232.84337211955284,96.97297297297297L235.49053159936116,98.91891891891892L236.3923112023728,100.21621621621622L237.26500114077118,100.54054054054055L238.1667807437828,98.5945945945946L239.03947068218113,99.8918918918919L239.94125028519278,98.5945945945946L240.84302988820443,98.27027027027027L241.7157198266028,100.54054054054055L242.6174994296144,97.94594594594594L243.49018936801278,97.62162162162161L246.10825918320785,97.62162162162161L247.01003878621947,98.27027027027027L247.88272872461783,98.27027027027027L248.78450832762948,97.29729729729729L249.65719826602782,99.24324324324324L250.55897786903947,100.21621621621622L251.46075747205109,99.56756756756756L252.33344741044948,100.54054054054055L253.2352270134611,99.8918918918919L254.10791695185947,102.48648648648648" fill="none" stroke="#af516c" stroke-linejoin="round" stroke-linecap="round" stroke-width="2"></path></g></g></svg>