<svg xmlns="http://www.w3.org/2000/svg" viewBox="0 0 304 270"><style>/* <![CDATA[ */.chart-title{font-size:20px;fill:#43423e}.chart-subtitle{font-size:15px;fill:#74736c}.chart-source{font-size:10px;fill-opacity:.4}.axis .domain{fill:none;stroke:#74736c}.tick line{fill:none;stroke:#000;stroke-opacity:.2}.tick text{fill-opacity:.6;font-size:12px}.y.axis .tick line{stroke-dasharray:1}.y.axis .domain{fill:none;stroke-opacity:0}.y.axis .highlight-line{fill:none;stroke:#74736c}/* ]]> */</style><text class="chart-title" y="22">零售销货量</text><text class="chart-subtitle" y="42">年增长％</text><text class="chart-source" y="265">来源:英国国家统计局╱彭博. 2018年4月19日</text><g transform="translate(1,100)"><g class="x axis" transform="translate(0,120)" fill="none" font-size="10" font-family="sans-serif" text-anchor="middle"><path class="domain" stroke="#000" d="M0.5,0V0.5H255.5V0"></path><g class="tick" opacity="1" transform="translate(18.703598670056717,0)"><line stroke="#000" y2="6"></line><text fill="#000" y="9" dy="0.71em">2006</text></g><g class="tick" opacity="1" transform="translate(55.110796010170155,0)"><line stroke="#000" y2="6"></line><text fill="#000" y="9" dy="0.71em">2008</text></g><g class="tick" opacity="1" transform="translate(91.56786622335224,0)"><line stroke="#000" y2="6"></line><text fill="#000" y="9" dy="0.71em">2010</text></g><g class="tick" opacity="1" transform="translate(127.97506356346567,0)"><line stroke="#000" y2="6"></line><text fill="#000" y="9" dy="0.71em">2012</text></g><g class="tick" opacity="1" transform="translate(164.43213377664776,0)"><line stroke="#000" y2="6"></line><text fill="#000" y="9" dy="0.71em">2014</text></g><g class="tick" opacity="1" transform="translate(200.8393311167612,0)"><line stroke="#000" y2="6"></line><text fill="#000" y="9" dy="0.71em">2016</text></g><g class="tick" opacity="1" transform="translate(237.29640132994328,0)"><line stroke="#000" y2="6"></line><text fill="#000" y="9" dy="0.71em">2018</text></g></g><g class="y axis" transform="translate(255,0)" fill="none" font-size="10" font-family="sans-serif" text-anchor="start"><path class="domain" stroke="#000" d="M0,120.5H0.5V0.5H0"></path><g class="tick" opacity="1" transform="translate(0,120.5)"><line stroke="#000" x2="-255"></line><text fill="#000" x="3" dy="0.32em">-5</text></g><g class="tick" opacity="1" transform="translate(0,74.34615384615384)"><line stroke="#000" x2="-255"></line><text fill="#000" x="3" dy="0.32em">0</text></g><g class="tick" opacity="1" transform="translate(0,28.192307692307693)"><line stroke="#000" x2="-255"></line><text fill="#000" x="3" dy="0.32em">5</text></g><line class="highlight-line" x1="0" y1="73.84615384615384" x2="-255" y2="73.84615384615384"></line></g><g><path d="M1.512810483082339,46.153846153846146L2.9092509290044983,47.076923076923066L4.4553099941326035,54.46153846153847L5.95149618619206,61.84615384615385L7.497555251320164,71.07692307692308L8.993741443379621,68.30769230769232L10.539800508507724,67.38461538461539L12.08585957363583,69.23076923076923L13.582045765695286,73.84615384615384L15.128104830823391,61.84615384615385L16.624291022882847,59.07692307692308L18.170350088010952,56.30769230769231L19.716409153139058,66.46153846153847L21.112849599061217,63.69230769230769L22.658908664189322,58.153846153846146L24.15509485624878,53.53846153846153L25.701153921376882,43.38461538461537L27.197340113436336,47.076923076923066L28.74339917856444,47.076923076923066L30.289458243692547,46.153846153846146L31.785644435752005,57.230769230769226L33.33170350088011,50.769230769230774L34.827889692939564,54.46153846153847L36.37394875806767,42.46153846153845L37.920007823195775,51.69230769230769L39.316448269117934,39.69230769230769L40.86250733424604,41.53846153846153L42.358693526305494,39.69230769230769L43.9047525914336,49.846153846153854L45.40093878349306,52.61538461538461L46.946997848621166,47.076923076923066L48.49305691374927,44.30769230769231L49.989243105808725,36.92307692307692L51.53530217093683,53.53846153846153L53.031488362996285,50.769230769230774L54.57754742812438,68.30769230769232L56.12360649325249,48L57.5699198122433,39.69230769230769L59.115978877371404,59.07692307692308L60.612165069430866,73.84615384615384L62.15822413455897,38.76923076923076L63.654410326618425,73.84615384615384L65.20046939174654,82.15384615384616L66.74652845687463,82.15384615384616L68.24271464893408,82.15384615384616L69.7887737140622,84L71.28495990612166,92.3076923076923L72.83101897124975,72.92307692307693L74.37707803637787,82.15384615384616L75.77351848230002,111.6923076923077L77.31957754742812,88.61538461538461L78.81576373948758,68.30769230769232L80.36182280461568,105.23076923076923L81.85800899667514,61.84615384615385L83.40406806180326,57.230769230769226L84.95012712693135,57.230769230769226L86.4463133189908,58.153846153846146L87.99237238411891,49.846153846153854L89.48855857617836,46.153846153846146L91.03461764130648,59.07692307692308L92.58067670643457,89.53846153846155L93.97711715235674,48.92307692307692L95.52317621748485,62.76923076923077L97.01936240954429,66.46153846153847L98.5654214746724,60L100.06160766673186,69.23076923076923L101.60766673185996,66.46153846153847L103.15372579698807,68.30769230769232L104.64991198904752,79.38461538461539L106.19597105417563,77.53846153846155L107.69215724623508,80.3076923076923L109.2382163113632,90.46153846153845L110.7842753764913,47.076923076923066L112.18071582241346,81.23076923076923L113.72677488754155,74.76923076923077L115.222961079601,72L116.76902014472913,90.46153846153845L118.26520633678858,91.38461538461539L119.81126540191669,91.38461538461539L121.35732446704479,94.15384615384616L122.85351065910424,81.23076923076923L124.39956972423235,76.61538461538461L125.8957559162918,84L127.44181498141991,61.84615384615385L128.987874046548,75.6923076923077L130.43418736553883,74.76923076923077L131.9802464306669,64.61538461538461L133.47643262272638,86.76923076923077L135.02249168785448,60.92307692307692L136.51867787991395,53.53846153846153L138.06473694504206,60.92307692307692L139.61079601017016,56.30769230769231L141.1069822022296,56.30769230769231L142.6530412673577,68.30769230769232L144.14922745941718,60.92307692307692L145.69528652454528,67.38461538461539L147.2413455896734,66.46153846153847L148.63778603559555,48L150.18384510072366,79.38461538461539L151.6800312927831,67.38461538461539L153.2260903579112,60L154.72227654997064,59.07692307692308L156.26833561509875,52.61538461538461L157.81439468022688,60.92307692307692L159.31058087228632,51.69230769230769L160.85663993741446,55.38461538461539L162.3528261294739,50.769230769230774L163.89888519460197,48L165.4449442597301,47.076923076923066L166.84138470565225,60L168.38744377078035,27.692307692307693L169.88362996283982,23.07692307692308L171.42968902796792,35.07692307692308L172.9258752200274,40.61538461538461L174.4719342851555,45.230769230769226L176.01799335028358,37.84615384615384L177.51417954234304,50.769230769230774L179.06023860747115,36L180.55642479953062,29.538461538461533L182.10248386465872,25.846153846153854L183.6485429297868,42.46153846153845L185.044983375709,27.692307692307693L186.5910424408371,36L188.08722863289654,32.30769230769231L189.63328769802465,37.84615384615384L191.12947389008409,38.76923076923076L192.6755329552122,36.92307692307692L194.22159202034032,48L195.71777821239976,26.769230769230774L197.26383727752787,47.076923076923066L198.7600234695873,48.92307692307692L200.30608253471542,56.30769230769231L201.85214159984355,30.461538461538467L203.29845491883435,42.46153846153845L204.84451398396246,46.153846153846146L206.34070017602193,50.769230769230774L207.88675924115,27.692307692307693L209.38294543320944,45.230769230769226L210.92900449833758,26.769230769230774L212.47506356346568,19.384615384615387L213.97124975552512,36L215.51730882065326,5.538461538461533L217.0134950127127,16.615384615384627L218.5595540778408,31.384615384615387L220.1056131429689,45.230769230769226L221.50205358889104,41.53846153846153L223.04811265401915,45.230769230769226L224.54429884607862,36L226.09035791120672,66.46153846153847L227.5865441032662,49.846153846153854L229.1326031683943,60L230.67866223352237,49.846153846153854L232.17484842558184,60.92307692307692L233.72090749070995,74.76923076923077L235.21709368276942,62.76923076923077L236.76315274789752,62.76923076923077L238.3092118130256,60L239.7056522589478,62.76923076923077L241.2517113240759,63.69230769230769" fill="none" stroke="#af516c" stroke-linejoin="round" stroke-linecap="round" stroke-width="2"></path></g></g></svg>