<svg xmlns="http://www.w3.org/2000/svg" viewBox="0 0 304 270"><style>/* <![CDATA[ */.chart-title{font-size:20px;fill:#43423e}.chart-subtitle{font-size:15px;fill:#74736c}.chart-source{font-size:10px;fill-opacity:.4}.axis .domain{fill:none;stroke:#74736c}.tick line{fill:none;stroke:#000;stroke-opacity:.2}.tick text{fill-opacity:.6;font-size:12px}.y.axis .tick line{stroke-dasharray:1}.y.axis .domain{fill:none;stroke-opacity:0}.y.axis .highlight-line{fill:none;stroke:#74736c}/* ]]> */</style><text class="chart-title" y="22">Romania inflation forecast</text><text class="chart-subtitle" y="42">By date of forecast, annual % change</text><text class="chart-source" y="265">来源:彭博. 2018年5月7日</text><g transform="translate(1,100)"><g class="x axis" transform="translate(0,120)" fill="none" font-size="10" font-family="sans-serif" text-anchor="middle"><path class="domain" stroke="#000" d="M0.5,0V0.5H255.5V0"></path><g class="tick" opacity="1" transform="translate(0.5,0)"><line stroke="#000" y2="6"></line><text fill="#000" y="9" dy="0.71em">July</text></g><g class="tick" opacity="1" transform="translate(32.636986301369866,0)"><line stroke="#000" y2="6"></line><text fill="#000" y="9" dy="0.71em">October</text></g><g class="tick" opacity="1" transform="translate(64.77397260273973,0)"><line stroke="#000" y2="6"></line><text fill="#000" y="9" dy="0.71em">2017</text></g><g class="tick" opacity="1" transform="translate(96.2123287671233,0)"><line stroke="#000" y2="6"></line><text fill="#000" y="9" dy="0.71em">April</text></g><g class="tick" opacity="1" transform="translate(128,0)"><line stroke="#000" y2="6"></line><text fill="#000" y="9" dy="0.71em">July</text></g><g class="tick" opacity="1" transform="translate(160.13698630136986,0)"><line stroke="#000" y2="6"></line><text fill="#000" y="9" dy="0.71em">October</text></g><g class="tick" opacity="1" transform="translate(192.27397260273972,0)"><line stroke="#000" y2="6"></line><text fill="#000" y="9" dy="0.71em">2018</text></g><g class="tick" opacity="1" transform="translate(223.7123287671233,0)"><line stroke="#000" y2="6"></line><text fill="#000" y="9" dy="0.71em">April</text></g><g class="tick" opacity="1" transform="translate(255.5,0)"><line stroke="#000" y2="6"></line><text fill="#000" y="9" dy="0.71em">July</text></g></g><g class="y axis" transform="translate(255,0)" fill="none" font-size="10" font-family="sans-serif" text-anchor="start"><path class="domain" stroke="#000" d="M0,120.5H0.5V0.5H0"></path><g class="tick" opacity="1" transform="translate(0,120.5)"><line stroke="#000" x2="-255"></line><text fill="#000" x="3" dy="0.32em">1</text></g><g class="tick" opacity="1" transform="translate(0,90.5)"><line stroke="#000" x2="-255"></line><text fill="#000" x="3" dy="0.32em">2</text></g><g class="tick" opacity="1" transform="translate(0,60.5)"><line stroke="#000" x2="-255"></line><text fill="#000" x="3" dy="0.32em">3</text></g><g class="tick" opacity="1" transform="translate(0,30.5)"><line stroke="#000" x2="-255"></line><text fill="#000" x="3" dy="0.32em">4</text></g><g class="tick" opacity="1" transform="translate(0,0.5)"><line stroke="#000" x2="-255"></line><text fill="#000" x="3" dy="0.32em">5</text></g></g><g class="chart-key" transform="translate(0, -35)"><g class="key-element" transform="translate(0,0)"><text x="28" font-size="12">2017</text><line x1="0" x2="25" y1="-5" y2="-5" stroke-width="2" fill="none" stroke="#af516c"></line></g><g class="key-element" transform="translate(0,20)"><text x="28" font-size="12">2018</text><line x1="0" x2="25" y1="-5" y2="-5" stroke-width="2" fill="none" stroke="#76acb8"></line></g></g><g><path d="M21.773972602739725,75L22.123287671232877,75L23.17123287671233,75L23.52054794520548,75L23.86986301369863,75L24.21917808219178,75L24.56849315068493,75L25.616438356164384,75L25.965753424657535,75L26.315068493150683,75L26.664383561643838,75L27.013698630136986,75L28.061643835616437,75L28.41095890410959,75L28.76027397260274,75L29.109589041095887,75L29.458904109589042,75L30.506849315068493,78L30.85616438356164,78L31.205479452054796,78L31.554794520547944,78L31.9041095890411,78L32.95205479452054,78L33.301369863013704,78L33.65068493150685,78L34,78L34.34931506849315,78L35.397260273972606,78L35.74657534246575,78L36.0958904109589,78L36.44520547945205,78L36.794520547945204,78L37.842465753424655,78L38.1917808219178,78L38.54109589041096,78L38.89041095890411,78L39.23972602739726,78L40.28767123287671,78L40.636986301369866,78L40.986301369863014,78L41.33561643835616,78L41.68493150684932,78L42.73287671232877,78L43.082191780821915,78L43.43150684931507,78L43.78082191780822,78L44.13013698630137,78L45.178082191780824,78L45.52739726027397,78L45.87671232876713,78L46.226027397260275,78L46.57534246575342,78L47.62328767123288,78L47.97260273972603,78L48.321917808219176,78L48.67123287671233,78L49.02054794520548,78L50.06849315068493,78L50.417808219178085,78L50.76712328767123,78L51.11643835616438,90L51.465753424657535,90L52.513698630136986,90L52.863013698630134,90L53.21232876712329,90L53.56164383561644,90L53.91095890410959,90L54.95890410958904,90L55.30821917808219,90L55.657534246575345,90L56.00684931506849,90L56.35616438356164,90L57.4041095890411,90L57.75342465753425,90L58.102739726027394,90L58.45205479452055,90L58.8013698630137,93L59.84931506849315,93L60.1986301369863,93L60.54794520547945,93L60.897260273972606,93L61.24657534246575,93L62.294520547945204,91.5L62.64383561643836,91.5L62.99315068493151,91.5L63.342465753424655,91.5L63.6917808219178,91.5L64.73972602739725,91.5L65.08904109589042,91.5L65.43835616438356,93L65.78767123287672,93L66.13698630136986,93L67.18493150684931,93L67.53424657534246,93L67.8835616438356,93L68.23287671232876,93L68.58219178082193,93L69.63013698630137,93L69.97945205479452,93L70.32876712328768,93L70.67808219178082,93L71.02739726027397,93L72.07534246575344,93L72.42465753424658,93L72.77397260273973,93L73.12328767123287,93L73.47260273972603,93L74.52054794520548,93L74.86986301369862,94.5L75.21917808219177,94.5L75.56849315068494,94.5L75.91780821917808,94.5L76.96575342465754,94.5L77.31506849315069,94.5L77.66438356164383,94.5L78.01369863013699,94.5L78.36301369863013,94.5L79.41095890410959,94.5L79.76027397260275,94.5L80.10958904109589,94.5L80.45890410958904,94.5L80.8082191780822,94.5L81.85616438356163,94.5L82.2054794520548,94.5L82.55479452054794,94.5L82.9041095890411,94.5L83.25342465753425,99L84.30136986301369,99L84.65068493150685,99L85,99L85.34931506849314,99L85.69863013698631,99L86.74657534246576,99L87.0958904109589,99L87.44520547945206,99L87.7945205479452,99L88.14383561643835,100.5L89.19178082191782,100.5L89.54109589041096,100.5L89.89041095890411,100.5L90.23972602739727,100.5L90.58904109589041,100.5L91.63698630136986,100.5L91.98630136986301,100.5L92.33561643835615,100.5L92.68493150684932,102L93.03424657534246,102L94.08219178082192,102L94.43150684931507,102L94.78082191780821,102L95.13013698630137,102L95.47945205479452,102L96.52739726027397,102L96.87671232876713,102L97.22602739726028,105L97.57534246575342,105L97.92465753424658,105L98.97260273972603,105L99.32191780821917,105L99.67123287671234,105L100.02054794520548,105L100.36986301369863,105L101.41780821917808,105L101.76712328767123,105L102.11643835616438,105L102.46575342465754,105L102.81506849315069,105L103.86301369863014,105L104.2123287671233,105L104.56164383561644,105L104.91095890410959,105L105.26027397260273,105L106.3082191780822,105L106.65753424657535,105L107.0068493150685,105L107.35616438356165,105L107.70547945205479,105L108.75342465753424,105L109.1027397260274,105L109.45205479452054,105L109.8013698630137,105L110.15068493150686,105L111.1986301369863,105L111.54794520547945,105L111.8972602739726,105L112.24657534246575,105L112.5958904109589,105L113.64383561643837,105L113.9931506849315,105L114.34246575342466,105L114.6917808219178,105L115.04109589041096,109.5L116.08904109589041,109.5L116.43835616438355,109.5L116.78767123287672,109.5L117.13698630136987,109.5L117.48630136986301,109.5L118.53424657534246,109.5L118.88356164383562,109.5L119.23287671232876,109.5L119.58219178082192,109.5L119.93150684931506,109.5L120.97945205479452,109.5L121.32876712328768,109.5L121.67808219178082,109.5L122.02739726027397,109.5L122.37671232876713,109.5L123.42465753424656,109.5L123.77397260273973,109.5L124.12328767123289,109.5L124.47260273972603,109.5L124.82191780821918,109.5L125.86986301369863,114L126.21917808219177,114L126.56849315068493,114L126.91780821917807,114L127.26712328767124,114L128.31506849315068,114L128.66438356164386,114L129.013698630137,114L129.36301369863014,114L129.7123287671233,112.5L130.76027397260273,112.5L131.1095890410959,112.5L131.45890410958904,112.5L131.80821917808217,112.5L132.15753424657535,112.5L133.20547945205482,112.5L133.55479452054794,112.5L133.9041095890411,112.5L134.25342465753423,112.5L134.6027397260274,112.5L135.65068493150687,112.5L136,112.5L136.34931506849315,112.5L136.6986301369863,112.5L137.04794520547946,112.5L138.0958904109589,112.5L138.44520547945206,112.5L138.79452054794518,112.5L139.14383561643837,112.5L139.49315068493152,112.5L140.54109589041096,112.5L140.8904109589041,112.5L141.23972602739724,112.5L141.58904109589042,112.5L141.93835616438355,112.5L142.986301369863,112.5L143.33561643835617,112.5L143.68493150684932,112.5L144.03424657534248,112.5L144.3835616438356,114L145.43150684931507,114L145.7808219178082,114L146.13013698630138,114L146.47945205479454,114L146.82876712328766,114L147.87671232876713,114L148.22602739726025,114L148.57534246575344,114L148.92465753424656,114L149.27397260273972,114L150.32191780821918,115.5L150.6712328767123,115.5L151.0205479452055,115.5L151.36986301369862,115.5L151.71917808219177,115.5L152.7671232876712,115.5L153.1164383561644,115.5L153.46575342465755,115.5L153.81506849315068,115.5L154.16438356164383,115.5L155.21232876712327,115.5L155.56164383561645,115.5L155.91095890410958,115.5L156.26027397260273,115.5L156.60958904109592,115.5L157.65753424657532,115.5L158.0068493150685,115.5L158.35616438356163,115.5L158.7054794520548,115.5L159.05479452054794,115.5L160.1027397260274,115.5L160.45205479452056,115.5L160.8013698630137,115.5L161.15068493150685,114L161.5,114L162.54794520547946,114L162.8972602739726,114L163.24657534246575,114L163.59589041095893,114L163.94520547945206,114L164.99315068493152,114L165.34246575342465,114L165.6917808219178,114L166.04109589041096,114L166.3904109589041,114L167.43835616438358,114L167.7876712328767,114L168.13698630136986,114L168.486301369863,114L168.83561643835617,114L169.8835616438356,114L170.23287671232876,114L170.58219178082192,114L170.93150684931507,114L171.28082191780823,114L172.32876712328766,114L172.67808219178082,114L173.02739726027397,114L173.37671232876713,114L173.72602739726028,114L174.77397260273972,114L175.12328767123287,114L175.47260273972603,114L175.82191780821918,114L176.1712328767123,114L177.21917808219177,114L177.56849315068493,114L177.91780821917808,114L178.26712328767124,114L178.61643835616437,114L179.66438356164383,114L180.013698630137,114L180.36301369863014,114L180.7123287671233,114L181.06164383561642,114L182.1095890410959,114L182.45890410958904,114L182.8082191780822,114L183.15753424657532,114L183.5068493150685,114L184.55479452054794,114L184.9041095890411,114L185.25342465753425,114L185.60273972602738,114L185.95205479452056,114L187,114L187.34931506849315,114L187.6986301369863,114L188.04794520547944,114L188.39726027397262,114L189.44520547945206,114L189.7945205479452,114L190.14383561643834,114L190.49315068493152,114L190.84246575342468,114L191.8904109589041,112.5L192.23972602739727,112.5L192.5890410958904,111L192.93835616438358,111L193.2876712328767,111L194.33561643835617,111L194.68493150684932,111L195.03424657534245,111L195.38356164383563,111L195.73287671232876,111L196.78082191780823,111L197.13013698630135,111L197.4794520547945,111L197.8287671232877,111L198.17808219178082,111L199.22602739726028,111L199.5753424657534,111L199.9246575342466,111L200.27397260273972,111L200.62328767123287,111L201.67123287671234,111L202.02054794520546,111L202.36986301369865,111L202.71917808219177,111L203.06849315068493,111L204.11643835616437,111L204.46575342465752,111L204.8150684931507,111L205.16438356164383,111L205.513698630137,111L206.56164383561642,111L206.9109589041096,111L207.26027397260273,111L207.6095890410959,111L207.95890410958904,111L209.00684931506848,111L209.35616438356166,111L209.7054794520548,111L210.05479452054794,111L210.4041095890411,111L211.45205479452054,111L211.80136986301372,111L212.15068493150685,111L212.5,111L212.84931506849315,111L213.89726027397262,111L214.24657534246575,111L214.5958904109589,111L214.94520547945206,111L215.2945205479452,111L216.34246575342468,111L216.6917808219178,111L217.04109589041096,111L217.3904109589041,111L217.73972602739727,111L218.78767123287673,111L219.13698630136986,111L219.486301369863,111L219.83561643835617,111L220.18493150684932,111L221.23287671232876,111L221.58219178082192,111L221.93150684931507,111L222.28082191780823,111L222.63013698630138,111" fill="none" stroke="#af516c" stroke-linejoin="round" stroke-linecap="round" stroke-width="2"></path><path d="M21.773972602739725,66L22.123287671232877,66L23.17123287671233,66L23.52054794520548,66L23.86986301369863,66L24.21917808219178,66L24.56849315068493,66L25.616438356164384,66L25.965753424657535,66L26.315068493150683,66L26.664383561643838,66L27.013698630136986,66L28.061643835616437,66L28.41095890410959,66L28.76027397260274,66L29.109589041095887,66L29.458904109589042,66L30.506849315068493,63L30.85616438356164,63L31.205479452054796,63L31.554794520547944,63L31.9041095890411,63L32.95205479452054,63L33.301369863013704,63L33.65068493150685,63L34,63L34.34931506849315,63L35.397260273972606,63L35.74657534246575,63L36.0958904109589,63L36.44520547945205,63L36.794520547945204,63L37.842465753424655,63L38.1917808219178,63L38.54109589041096,63L38.89041095890411,63L39.23972602739726,63L40.28767123287671,63L40.636986301369866,63L40.986301369863014,63L41.33561643835616,63L41.68493150684932,63L42.73287671232877,63L43.082191780821915,63L43.43150684931507,63L43.78082191780822,63L44.13013698630137,63L45.178082191780824,63L45.52739726027397,63L45.87671232876713,63L46.226027397260275,63L46.57534246575342,63L47.62328767123288,63L47.97260273972603,63L48.321917808219176,63L48.67123287671233,63L49.02054794520548,63L50.06849315068493,63L50.417808219178085,63L50.76712328767123,63L51.11643835616438,63L51.465753424657535,63L52.513698630136986,63L52.863013698630134,63L53.21232876712329,63L53.56164383561644,63L53.91095890410959,63L54.95890410958904,63L55.30821917808219,63L55.657534246575345,63L56.00684931506849,63L56.35616438356164,63L57.4041095890411,63L57.75342465753425,63L58.102739726027394,63L58.45205479452055,63L58.8013698630137,63L59.84931506849315,63L60.1986301369863,63L60.54794520547945,63L60.897260273972606,63L61.24657534246575,63L62.294520547945204,63L62.64383561643836,63L62.99315068493151,63L63.342465753424655,63L63.6917808219178,63L64.73972602739725,63L65.08904109589042,63L65.43835616438356,61.49999999999999L65.78767123287672,61.49999999999999L66.13698630136986,61.49999999999999L67.18493150684931,61.49999999999999L67.53424657534246,61.49999999999999L67.8835616438356,61.49999999999999L68.23287671232876,61.49999999999999L68.58219178082193,61.49999999999999L69.63013698630137,61.49999999999999L69.97945205479452,61.49999999999999L70.32876712328768,61.49999999999999L70.67808219178082,61.49999999999999L71.02739726027397,61.49999999999999L72.07534246575344,61.49999999999999L72.42465753424658,61.49999999999999L72.77397260273973,61.49999999999999L73.12328767123287,61.49999999999999L73.47260273972603,61.49999999999999L74.52054794520548,61.49999999999999L74.86986301369862,63L75.21917808219177,63L75.56849315068494,63L75.91780821917808,63L76.96575342465754,63L77.31506849315069,63L77.66438356164383,63L78.01369863013699,63L78.36301369863013,63L79.41095890410959,63L79.76027397260275,63L80.10958904109589,63L80.45890410958904,63L80.8082191780822,63L81.85616438356163,63L82.2054794520548,63L82.55479452054794,63L82.9041095890411,63L83.25342465753425,63L84.30136986301369,63L84.65068493150685,61.49999999999999L85,61.49999999999999L85.34931506849314,63L85.69863013698631,63L86.74657534246576,63L87.0958904109589,63L87.44520547945206,63L87.7945205479452,63L88.14383561643835,63L89.19178082191782,63L89.54109589041096,63L89.89041095890411,63L90.23972602739727,63L90.58904109589041,63L91.63698630136986,63L91.98630136986301,63L92.33561643835615,63L92.68493150684932,63L93.03424657534246,63L94.08219178082192,63L94.43150684931507,63L94.78082191780821,63L95.13013698630137,63L95.47945205479452,63L96.52739726027397,63L96.87671232876713,63L97.22602739726028,63L97.57534246575342,63L97.92465753424658,63L98.97260273972603,63L99.32191780821917,63L99.67123287671234,63L100.02054794520548,63L100.36986301369863,63L101.41780821917808,63L101.76712328767123,63L102.11643835616438,63L102.46575342465754,63L102.81506849315069,63L103.86301369863014,63L104.2123287671233,63L104.56164383561644,63L104.91095890410959,63L105.26027397260273,63L106.3082191780822,63L106.65753424657535,63L107.0068493150685,63L107.35616438356165,63L107.70547945205479,63L108.75342465753424,63L109.1027397260274,63L109.45205479452054,63L109.8013698630137,63L110.15068493150686,63L111.1986301369863,63L111.54794520547945,63L111.8972602739726,63L112.24657534246575,63L112.5958904109589,63L113.64383561643837,63L113.9931506849315,63L114.34246575342466,63L114.6917808219178,63L115.04109589041096,61.49999999999999L116.08904109589041,61.49999999999999L116.43835616438355,61.49999999999999L116.78767123287672,61.49999999999999L117.13698630136987,61.49999999999999L117.48630136986301,61.49999999999999L118.53424657534246,61.49999999999999L118.88356164383562,61.49999999999999L119.23287671232876,61.49999999999999L119.58219178082192,61.49999999999999L119.93150684931506,61.49999999999999L120.97945205479452,61.49999999999999L121.32876712328768,61.49999999999999L121.67808219178082,61.49999999999999L122.02739726027397,61.49999999999999L122.37671232876713,61.49999999999999L123.42465753424656,61.49999999999999L123.77397260273973,61.49999999999999L124.12328767123289,61.49999999999999L124.47260273972603,61.49999999999999L124.82191780821918,61.49999999999999L125.86986301369863,60L126.21917808219177,60L126.56849315068493,60L126.91780821917807,60L127.26712328767124,60L128.31506849315068,60L128.66438356164386,60L129.013698630137,60L129.36301369863014,60L129.7123287671233,60L130.76027397260273,60L131.1095890410959,60L131.45890410958904,60L131.80821917808217,60L132.15753424657535,60L133.20547945205482,60L133.55479452054794,60L133.9041095890411,60L134.25342465753423,60L134.6027397260274,60L135.65068493150687,60L136,60L136.34931506849315,60L136.6986301369863,60L137.04794520547946,60L138.0958904109589,60L138.44520547945206,60L138.79452054794518,60L139.14383561643837,60L139.49315068493152,60L140.54109589041096,60L140.8904109589041,60L141.23972602739724,60L141.58904109589042,60L141.93835616438355,60L142.986301369863,60L143.33561643835617,60L143.68493150684932,60L144.03424657534248,60L144.3835616438356,60L145.43150684931507,60L145.7808219178082,60L146.13013698630138,60L146.47945205479454,60L146.82876712328766,60L147.87671232876713,60L148.22602739726025,60L148.57534246575344,60L148.92465753424656,61.49999999999999L149.27397260273972,61.49999999999999L150.32191780821918,63L150.6712328767123,63L151.0205479452055,63L151.36986301369862,63L151.71917808219177,63L152.7671232876712,63L153.1164383561644,63L153.46575342465755,63L153.81506849315068,63L154.16438356164383,63L155.21232876712327,63L155.56164383561645,63L155.91095890410958,63L156.26027397260273,63L156.60958904109592,63L157.65753424657532,63L158.0068493150685,63L158.35616438356163,63L158.7054794520548,63L159.05479452054794,63L160.1027397260274,63L160.45205479452056,63L160.8013698630137,63L161.15068493150685,63L161.5,63L162.54794520547946,63L162.8972602739726,63L163.24657534246575,63L163.59589041095893,63L163.94520547945206,63L164.99315068493152,63L165.34246575342465,63L165.6917808219178,63L166.04109589041096,63L166.3904109589041,63L167.43835616438358,63L167.7876712328767,63L168.13698630136986,63L168.486301369863,63L168.83561643835617,63L169.8835616438356,63L170.23287671232876,63L170.58219178082192,63L170.93150684931507,63L171.28082191780823,60L172.32876712328766,60L172.67808219178082,60L173.02739726027397,60L173.37671232876713,60L173.72602739726028,60L174.77397260273972,60L175.12328767123287,60L175.47260273972603,60L175.82191780821918,60L176.1712328767123,60L177.21917808219177,60L177.56849315068493,60L177.91780821917808,60L178.26712328767124,60L178.61643835616437,60L179.66438356164383,57L180.013698630137,57L180.36301369863014,57L180.7123287671233,57L181.06164383561642,57L182.1095890410959,57L182.45890410958904,57L182.8082191780822,57L183.15753424657532,57L183.5068493150685,57L184.55479452054794,57L184.9041095890411,57L185.25342465753425,57L185.60273972602738,57L185.95205479452056,54L187,54L187.34931506849315,54L187.6986301369863,54L188.04794520547944,54L188.39726027397262,54L189.44520547945206,54L189.7945205479452,54L190.14383561643834,54L190.49315068493152,54L190.84246575342468,54L191.8904109589041,48L192.23972602739727,48L192.5890410958904,46.5L192.93835616438358,46.5L193.2876712328767,46.5L194.33561643835617,46.5L194.68493150684932,46.5L195.03424657534245,46.5L195.38356164383563,46.5L195.73287671232876,43.5L196.78082191780823,43.5L197.13013698630135,43.5L197.4794520547945,43.5L197.8287671232877,43.5L198.17808219178082,43.5L199.22602739726028,43.5L199.5753424657534,43.5L199.9246575342466,43.5L200.27397260273972,43.5L200.62328767123287,43.5L201.67123287671234,43.5L202.02054794520546,43.5L202.36986301369865,43.5L202.71917808219177,43.5L203.06849315068493,43.5L204.11643835616437,43.5L204.46575342465752,43.5L204.8150684931507,43.5L205.16438356164383,43.5L205.513698630137,43.5L206.56164383561642,43.5L206.9109589041096,43.5L207.26027397260273,43.5L207.6095890410959,43.5L207.95890410958904,43.5L209.00684931506848,43.5L209.35616438356166,43.5L209.7054794520548,43.5L210.05479452054794,30L210.4041095890411,27.000000000000014L211.45205479452054,27.000000000000014L211.80136986301372,27.000000000000014L212.15068493150685,27.000000000000014L212.5,27.000000000000014L212.84931506849315,27.000000000000014L213.89726027397262,27.000000000000014L214.24657534246575,27.000000000000014L214.5958904109589,27.000000000000014L214.94520547945206,27.000000000000014L215.2945205479452,30L216.34246575342468,30L216.6917808219178,30L217.04109589041096,30L217.3904109589041,30L217.73972602739727,27.000000000000014L218.78767123287673,27.000000000000014L219.13698630136986,27.000000000000014L219.486301369863,27.000000000000014L219.83561643835617,27.000000000000014L220.18493150684932,27.000000000000014L221.23287671232876,27.000000000000014L221.58219178082192,27.000000000000014L221.93150684931507,27.000000000000014L222.28082191780823,27.000000000000014L222.63013698630138,27.000000000000014L223.67808219178082,27.000000000000014L224.02739726027397,27.000000000000014L224.3767123287671,27.000000000000014L224.72602739726028,27.000000000000014L225.0753424657534,27.000000000000014L226.12328767123287,27.000000000000014L226.47260273972603,27.000000000000014L226.82191780821918,27.000000000000014L227.17123287671234,27.000000000000014L227.52054794520546,27.000000000000014L228.56849315068493,27.000000000000014L228.91780821917808,27.000000000000014L229.26712328767124,27.000000000000014L229.6164383561644,27.000000000000014L229.96575342465752,27.000000000000014L231.013698630137,27.000000000000014L231.3630136986301,27.000000000000014L231.7123287671233,27.000000000000014L232.06164383561645,27.000000000000014L232.41095890410958,27.000000000000014L233.45890410958904,27.000000000000014L233.8082191780822,27.000000000000014L234.15753424657535,27.000000000000014L234.50684931506848,27.000000000000014L234.85616438356163,27.000000000000014" fill="none" stroke="#76acb8" stroke-linejoin="round" stroke-linecap="round" stroke-width="2"></path></g></g></svg>