<svg xmlns="http://www.w3.org/2000/svg" viewBox="0 0 304 270"><style>/* <![CDATA[ */.chart-title{font-size:20px;fill:#43423e}.chart-subtitle{font-size:15px;fill:#74736c}.chart-source{font-size:10px;fill-opacity:.4}.axis .domain{fill:none;stroke:#74736c}.tick line{fill:none;stroke:#000;stroke-opacity:.2}.tick text{fill-opacity:.6;font-size:12px}.y.axis .tick line{stroke-dasharray:1}.y.axis .domain{fill:none;stroke-opacity:0}.y.axis .highlight-line{fill:none;stroke:#74736c}/* ]]> */</style><text class="chart-title" y="22">Romania current account forecast</text><text class="chart-subtitle" y="42">By date of forecast, % of GDP</text><text class="chart-source" y="265">来源:彭博. 2018年5月4日</text><g transform="translate(1,100)"><g class="x axis" transform="translate(0,120)" fill="none" font-size="10" font-family="sans-serif" text-anchor="middle"><path class="domain" stroke="#000" d="M0.5,0V0.5H255.5V0"></path><g class="tick" opacity="1" transform="translate(0.5,0)"><line stroke="#000" y2="6"></line><text fill="#000" y="9" dy="0.71em">July</text></g><g class="tick" opacity="1" transform="translate(32.636986301369866,0)"><line stroke="#000" y2="6"></line><text fill="#000" y="9" dy="0.71em">October</text></g><g class="tick" opacity="1" transform="translate(64.77397260273973,0)"><line stroke="#000" y2="6"></line><text fill="#000" y="9" dy="0.71em">2017</text></g><g class="tick" opacity="1" transform="translate(96.2123287671233,0)"><line stroke="#000" y2="6"></line><text fill="#000" y="9" dy="0.71em">April</text></g><g class="tick" opacity="1" transform="translate(128,0)"><line stroke="#000" y2="6"></line><text fill="#000" y="9" dy="0.71em">July</text></g><g class="tick" opacity="1" transform="translate(160.13698630136986,0)"><line stroke="#000" y2="6"></line><text fill="#000" y="9" dy="0.71em">October</text></g><g class="tick" opacity="1" transform="translate(192.27397260273972,0)"><line stroke="#000" y2="6"></line><text fill="#000" y="9" dy="0.71em">2018</text></g><g class="tick" opacity="1" transform="translate(223.7123287671233,0)"><line stroke="#000" y2="6"></line><text fill="#000" y="9" dy="0.71em">April</text></g><g class="tick" opacity="1" transform="translate(255.5,0)"><line stroke="#000" y2="6"></line><text fill="#000" y="9" dy="0.71em">July</text></g></g><g class="y axis" transform="translate(255,0)" fill="none" font-size="10" font-family="sans-serif" text-anchor="start"><path class="domain" stroke="#000" d="M0,120.5H0.5V0.5H0"></path><g class="tick" opacity="1" transform="translate(0,120.5)"><line stroke="#000" x2="-255"></line><text fill="#000" x="3" dy="0.32em">-4.0</text></g><g class="tick" opacity="1" transform="translate(0,90.5)"><line stroke="#000" x2="-255"></line><text fill="#000" x="3" dy="0.32em">-3.5</text></g><g class="tick" opacity="1" transform="translate(0,60.5)"><line stroke="#000" x2="-255"></line><text fill="#000" x="3" dy="0.32em">-3.0</text></g><g class="tick" opacity="1" transform="translate(0,30.5)"><line stroke="#000" x2="-255"></line><text fill="#000" x="3" dy="0.32em">-2.5</text></g><g class="tick" opacity="1" transform="translate(0,0.5)"><line stroke="#000" x2="-255"></line><text fill="#000" x="3" dy="0.32em">-2.0</text></g></g><g class="chart-key" transform="translate(0, -35)"><g class="key-element" transform="translate(0,0)"><text x="28" font-size="12">2017</text><line x1="0" x2="25" y1="-5" y2="-5" stroke-width="2" fill="none" stroke="#af516c"></line></g><g class="key-element" transform="translate(0,20)"><text x="28" font-size="12">2018</text><line x1="0" x2="25" y1="-5" y2="-5" stroke-width="2" fill="none" stroke="#76acb8"></line></g></g><g><path d="M21.773972602739725,47.999999999999986L22.123287671232877,47.999999999999986L23.17123287671233,47.999999999999986L23.52054794520548,47.999999999999986L23.86986301369863,47.999999999999986L24.21917808219178,47.999999999999986L24.56849315068493,47.999999999999986L25.616438356164384,47.999999999999986L25.965753424657535,47.999999999999986L26.315068493150683,47.999999999999986L26.664383561643838,47.999999999999986L27.013698630136986,47.999999999999986L28.061643835616437,47.999999999999986L28.41095890410959,47.999999999999986L28.76027397260274,47.999999999999986L29.109589041095887,47.999999999999986L29.458904109589042,47.999999999999986L30.506849315068493,45L30.85616438356164,45L31.205479452054796,45L31.554794520547944,45L31.9041095890411,45L32.95205479452054,45L33.301369863013704,45L33.65068493150685,45L34,45L34.34931506849315,45L35.397260273972606,45L35.74657534246575,45L36.0958904109589,45L36.44520547945205,45L36.794520547945204,45L37.842465753424655,45L38.1917808219178,45L38.54109589041096,45L38.89041095890411,45L39.23972602739726,45L40.28767123287671,45L40.636986301369866,45L40.986301369863014,45L41.33561643835616,45L41.68493150684932,45L42.73287671232877,45L43.082191780821915,45L43.43150684931507,45L43.78082191780822,45L44.13013698630137,45L45.178082191780824,45L45.52739726027397,45L45.87671232876713,45L46.226027397260275,45L46.57534246575342,45L47.62328767123288,45L47.97260273972603,45L48.321917808219176,45L48.67123287671233,45L49.02054794520548,45L50.06849315068493,45L50.417808219178085,45L50.76712328767123,45L51.11643835616438,62.999999999999986L51.465753424657535,62.999999999999986L52.513698630136986,62.999999999999986L52.863013698630134,62.999999999999986L53.21232876712329,62.999999999999986L53.56164383561644,62.999999999999986L53.91095890410959,62.999999999999986L54.95890410958904,62.999999999999986L55.30821917808219,62.999999999999986L55.657534246575345,62.999999999999986L56.00684931506849,62.999999999999986L56.35616438356164,62.999999999999986L57.4041095890411,62.999999999999986L57.75342465753425,62.999999999999986L58.102739726027394,62.999999999999986L58.45205479452055,62.999999999999986L58.8013698630137,62.999999999999986L59.84931506849315,62.999999999999986L60.1986301369863,62.999999999999986L60.54794520547945,62.999999999999986L60.897260273972606,62.999999999999986L61.24657534246575,62.999999999999986L62.294520547945204,66L62.64383561643836,66L62.99315068493151,66L63.342465753424655,66L63.6917808219178,66L64.73972602739725,66L65.08904109589042,66L65.43835616438356,66L65.78767123287672,66L66.13698630136986,66L67.18493150684931,66L67.53424657534246,66L67.8835616438356,66L68.23287671232876,66L68.58219178082193,66L69.63013698630137,66L69.97945205479452,66L70.32876712328768,66L70.67808219178082,66L71.02739726027397,66L72.07534246575344,66L72.42465753424658,66L72.77397260273973,66L73.12328767123287,66L73.47260273972603,66L74.52054794520548,66L74.86986301369862,66L75.21917808219177,66L75.56849315068494,66L75.91780821917808,66L76.96575342465754,66L77.31506849315069,66L77.66438356164383,66L78.01369863013699,66L78.36301369863013,66L79.41095890410959,66L79.76027397260275,66L80.10958904109589,66L80.45890410958904,66L80.8082191780822,66L81.85616438356163,66L82.2054794520548,66L82.55479452054794,66L82.9041095890411,66L83.25342465753425,60L84.30136986301369,60L84.65068493150685,60L85,60L85.34931506849314,60L85.69863013698631,60L86.74657534246576,60L87.0958904109589,60L87.44520547945206,60L87.7945205479452,60L88.14383561643835,60L89.19178082191782,60L89.54109589041096,60L89.89041095890411,60L90.23972602739727,60L90.58904109589041,60L91.63698630136986,60L91.98630136986301,60L92.33561643835615,60L92.68493150684932,60L93.03424657534246,60L94.08219178082192,60L94.43150684931507,60L94.78082191780821,60L95.13013698630137,60L95.47945205479452,60L96.52739726027397,60L96.87671232876713,60L97.22602739726028,60L97.57534246575342,60L97.92465753424658,60L98.97260273972603,60L99.32191780821917,60L99.67123287671234,60L100.02054794520548,60L100.36986301369863,60L101.41780821917808,60L101.76712328767123,60L102.11643835616438,60L102.46575342465754,60L102.81506849315069,60L103.86301369863014,60L104.2123287671233,60L104.56164383561644,60L104.91095890410959,60L105.26027397260273,60L106.3082191780822,60L106.65753424657535,60L107.0068493150685,60L107.35616438356165,60L107.70547945205479,60L108.75342465753424,60L109.1027397260274,60L109.45205479452054,60L109.8013698630137,60L110.15068493150686,60L111.1986301369863,60L111.54794520547945,60L111.8972602739726,60L112.24657534246575,60L112.5958904109589,60L113.64383561643837,60L113.9931506849315,60L114.34246575342466,60L114.6917808219178,60L115.04109589041096,57.000000000000014L116.08904109589041,57.000000000000014L116.43835616438355,57.000000000000014L116.78767123287672,60L117.13698630136987,60L117.48630136986301,60L118.53424657534246,60L118.88356164383562,60L119.23287671232876,60L119.58219178082192,60L119.93150684931506,60L120.97945205479452,60L121.32876712328768,60L121.67808219178082,60L122.02739726027397,60L122.37671232876713,60L123.42465753424656,60L123.77397260273973,60L124.12328767123289,60L124.47260273972603,60L124.82191780821918,60L125.86986301369863,60L126.21917808219177,60L126.56849315068493,60L126.91780821917807,60L127.26712328767124,60L128.31506849315068,60L128.66438356164386,60L129.013698630137,60L129.36301369863014,60L129.7123287671233,60L130.76027397260273,60L131.1095890410959,60L131.45890410958904,60L131.80821917808217,60L132.15753424657535,60L133.20547945205482,60L133.55479452054794,60L133.9041095890411,60L134.25342465753423,60L134.6027397260274,60L135.65068493150687,60L136,60L136.34931506849315,60L136.6986301369863,60L137.04794520547946,60L138.0958904109589,60L138.44520547945206,60L138.79452054794518,60L139.14383561643837,60L139.49315068493152,60L140.54109589041096,60L140.8904109589041,60L141.23972602739724,60L141.58904109589042,60L141.93835616438355,60L142.986301369863,60L143.33561643835617,60L143.68493150684932,60L144.03424657534248,60L144.3835616438356,60L145.43150684931507,60L145.7808219178082,60L146.13013698630138,60L146.47945205479454,60L146.82876712328766,60L147.87671232876713,60L148.22602739726025,60L148.57534246575344,60L148.92465753424656,60L149.27397260273972,60L150.32191780821918,60L150.6712328767123,60L151.0205479452055,60L151.36986301369862,60L151.71917808219177,60L152.7671232876712,60L153.1164383561644,60L153.46575342465755,60L153.81506849315068,60L154.16438356164383,60L155.21232876712327,60L155.56164383561645,60L155.91095890410958,60L156.26027397260273,60L156.60958904109592,60L157.65753424657532,60L158.0068493150685,60L158.35616438356163,60L158.7054794520548,60L159.05479452054794,60L160.1027397260274,60L160.45205479452056,60L160.8013698630137,60L161.15068493150685,60L161.5,60L162.54794520547946,60L162.8972602739726,60L163.24657534246575,60L163.59589041095893,60L163.94520547945206,60L164.99315068493152,60L165.34246575342465,60L165.6917808219178,60L166.04109589041096,60L166.3904109589041,60L167.43835616438358,60L167.7876712328767,60L168.13698630136986,60L168.486301369863,60L168.83561643835617,60L169.8835616438356,60L170.23287671232876,60L170.58219178082192,60L170.93150684931507,60L171.28082191780823,60L172.32876712328766,60L172.67808219178082,60L173.02739726027397,60L173.37671232876713,60L173.72602739726028,60L174.77397260273972,60L175.12328767123287,60L175.47260273972603,60L175.82191780821918,60L176.1712328767123,60L177.21917808219177,60L177.56849315068493,60L177.91780821917808,60L178.26712328767124,60L178.61643835616437,60L179.66438356164383,66L180.013698630137,66L180.36301369863014,66L180.7123287671233,66L181.06164383561642,66L182.1095890410959,66L182.45890410958904,66L182.8082191780822,66L183.15753424657532,66L183.5068493150685,66L184.55479452054794,66L184.9041095890411,66L185.25342465753425,66L185.60273972602738,66L185.95205479452056,66L187,66L187.34931506849315,66L187.6986301369863,66L188.04794520547944,66L188.39726027397262,66L189.44520547945206,66L189.7945205479452,66L190.14383561643834,66L190.49315068493152,66L190.84246575342468,66L191.8904109589041,66L192.23972602739727,66L192.5890410958904,66L192.93835616438358,66L193.2876712328767,66L194.33561643835617,66L194.68493150684932,66L195.03424657534245,66L195.38356164383563,66L195.73287671232876,66L196.78082191780823,66L197.13013698630135,66L197.4794520547945,66L197.8287671232877,66L198.17808219178082,66L199.22602739726028,66L199.5753424657534,66L199.9246575342466,66L200.27397260273972,66L200.62328767123287,66L201.67123287671234,66L202.02054794520546,66L202.36986301369865,66L202.71917808219177,66L203.06849315068493,66L204.11643835616437,66L204.46575342465752,66L204.8150684931507,66L205.16438356164383,66L205.513698630137,66L206.56164383561642,66L206.9109589041096,66L207.26027397260273,66L207.6095890410959,66L207.95890410958904,66L209.00684931506848,66L209.35616438356166,66L209.7054794520548,66L210.05479452054794,66L210.4041095890411,66L211.45205479452054,66L211.80136986301372,66L212.15068493150685,66L212.5,66L212.84931506849315,66L213.89726027397262,66L214.24657534246575,66L214.5958904109589,66L214.94520547945206,66L215.2945205479452,66L216.34246575342468,66L216.6917808219178,66L217.04109589041096,66L217.3904109589041,66L217.73972602739727,66L218.78767123287673,66L219.13698630136986,66L219.486301369863,66L219.83561643835617,66L220.18493150684932,66L221.23287671232876,66L221.58219178082192,66L221.93150684931507,66L222.28082191780823,66L222.63013698630138,66" fill="none" stroke="#af516c" stroke-linejoin="round" stroke-linecap="round" stroke-width="2"></path><path d="M21.773972602739725,72.00000000000001L22.123287671232877,72.00000000000001L23.17123287671233,72.00000000000001L23.52054794520548,72.00000000000001L23.86986301369863,72.00000000000001L24.21917808219178,72.00000000000001L24.56849315068493,72.00000000000001L25.616438356164384,72.00000000000001L25.965753424657535,72.00000000000001L26.315068493150683,72.00000000000001L26.664383561643838,72.00000000000001L27.013698630136986,72.00000000000001L28.061643835616437,72.00000000000001L28.41095890410959,72.00000000000001L28.76027397260274,72.00000000000001L29.109589041095887,72.00000000000001L29.458904109589042,72.00000000000001L30.506849315068493,72.00000000000001L30.85616438356164,72.00000000000001L31.205479452054796,72.00000000000001L31.554794520547944,72.00000000000001L31.9041095890411,72.00000000000001L32.95205479452054,72.00000000000001L33.301369863013704,72.00000000000001L33.65068493150685,72.00000000000001L34,72.00000000000001L34.34931506849315,72.00000000000001L35.397260273972606,72.00000000000001L35.74657534246575,72.00000000000001L36.0958904109589,72.00000000000001L36.44520547945205,72.00000000000001L36.794520547945204,72.00000000000001L37.842465753424655,72.00000000000001L38.1917808219178,72.00000000000001L38.54109589041096,72.00000000000001L38.89041095890411,72.00000000000001L39.23972602739726,72.00000000000001L40.28767123287671,72.00000000000001L40.636986301369866,72.00000000000001L40.986301369863014,72.00000000000001L41.33561643835616,72.00000000000001L41.68493150684932,72.00000000000001L42.73287671232877,72.00000000000001L43.082191780821915,72.00000000000001L43.43150684931507,72.00000000000001L43.78082191780822,72.00000000000001L44.13013698630137,72.00000000000001L45.178082191780824,72.00000000000001L45.52739726027397,72.00000000000001L45.87671232876713,72.00000000000001L46.226027397260275,72.00000000000001L46.57534246575342,72.00000000000001L47.62328767123288,72.00000000000001L47.97260273972603,72.00000000000001L48.321917808219176,72.00000000000001L48.67123287671233,72.00000000000001L49.02054794520548,72.00000000000001L50.06849315068493,72.00000000000001L50.417808219178085,72.00000000000001L50.76712328767123,72.00000000000001L51.11643835616438,66L51.465753424657535,66L52.513698630136986,66L52.863013698630134,66L53.21232876712329,66L53.56164383561644,66L53.91095890410959,66L54.95890410958904,66L55.30821917808219,66L55.657534246575345,66L56.00684931506849,66L56.35616438356164,66L57.4041095890411,66L57.75342465753425,66L58.102739726027394,66L58.45205479452055,66L58.8013698630137,66L59.84931506849315,66L60.1986301369863,66L60.54794520547945,66L60.897260273972606,66L61.24657534246575,66L62.294520547945204,66L62.64383561643836,66L62.99315068493151,66L63.342465753424655,66L63.6917808219178,66L64.73972602739725,66L65.08904109589042,66L65.43835616438356,66L65.78767123287672,66L66.13698630136986,66L67.18493150684931,66L67.53424657534246,66L67.8835616438356,66L68.23287671232876,66L68.58219178082193,66L69.63013698630137,66L69.97945205479452,66L70.32876712328768,66L70.67808219178082,66L71.02739726027397,66L72.07534246575344,66L72.42465753424658,66L72.77397260273973,66L73.12328767123287,66L73.47260273972603,66L74.52054794520548,66L74.86986301369862,54L75.21917808219177,54L75.56849315068494,54L75.91780821917808,66L76.96575342465754,66L77.31506849315069,66L77.66438356164383,66L78.01369863013699,66L78.36301369863013,66L79.41095890410959,66L79.76027397260275,66L80.10958904109589,66L80.45890410958904,66L80.8082191780822,66L81.85616438356163,66L82.2054794520548,66L82.55479452054794,66L82.9041095890411,66L83.25342465753425,69L84.30136986301369,69L84.65068493150685,69L85,69L85.34931506849314,69L85.69863013698631,69L86.74657534246576,69L87.0958904109589,69L87.44520547945206,69L87.7945205479452,69L88.14383561643835,69L89.19178082191782,69L89.54109589041096,69L89.89041095890411,69L90.23972602739727,69L90.58904109589041,69L91.63698630136986,69L91.98630136986301,69L92.33561643835615,69L92.68493150684932,69L93.03424657534246,69L94.08219178082192,54L94.43150684931507,54L94.78082191780821,54L95.13013698630137,54L95.47945205479452,54L96.52739726027397,54L96.87671232876713,54L97.22602739726028,54L97.57534246575342,54L97.92465753424658,54L98.97260273972603,54L99.32191780821917,54L99.67123287671234,54L100.02054794520548,54L100.36986301369863,54L101.41780821917808,54L101.76712328767123,54L102.11643835616438,54L102.46575342465754,54L102.81506849315069,54L103.86301369863014,54L104.2123287671233,54L104.56164383561644,54L104.91095890410959,54L105.26027397260273,54L106.3082191780822,54L106.65753424657535,54L107.0068493150685,54L107.35616438356165,54L107.70547945205479,54L108.75342465753424,54L109.1027397260274,54L109.45205479452054,54L109.8013698630137,54L110.15068493150686,54L111.1986301369863,54L111.54794520547945,54L111.8972602739726,54L112.24657534246575,54L112.5958904109589,54L113.64383561643837,54L113.9931506849315,54L114.34246575342466,54L114.6917808219178,54L115.04109589041096,72.00000000000001L116.08904109589041,72.00000000000001L116.43835616438355,72.00000000000001L116.78767123287672,72.00000000000001L117.13698630136987,72.00000000000001L117.48630136986301,72.00000000000001L118.53424657534246,72.00000000000001L118.88356164383562,72.00000000000001L119.23287671232876,72.00000000000001L119.58219178082192,72.00000000000001L119.93150684931506,72.00000000000001L120.97945205479452,72.00000000000001L121.32876712328768,72.00000000000001L121.67808219178082,72.00000000000001L122.02739726027397,72.00000000000001L122.37671232876713,72.00000000000001L123.42465753424656,72.00000000000001L123.77397260273973,72.00000000000001L124.12328767123289,72.00000000000001L124.47260273972603,72.00000000000001L124.82191780821918,72.00000000000001L125.86986301369863,72.00000000000001L126.21917808219177,72.00000000000001L126.56849315068493,72.00000000000001L126.91780821917807,72.00000000000001L127.26712328767124,72.00000000000001L128.31506849315068,72.00000000000001L128.66438356164386,72.00000000000001L129.013698630137,72.00000000000001L129.36301369863014,72.00000000000001L129.7123287671233,72.00000000000001L130.76027397260273,72.00000000000001L131.1095890410959,72.00000000000001L131.45890410958904,72.00000000000001L131.80821917808217,72.00000000000001L132.15753424657535,72.00000000000001L133.20547945205482,72.00000000000001L133.55479452054794,72.00000000000001L133.9041095890411,72.00000000000001L134.25342465753423,72.00000000000001L134.6027397260274,72.00000000000001L135.65068493150687,72.00000000000001L136,72.00000000000001L136.34931506849315,72.00000000000001L136.6986301369863,72.00000000000001L137.04794520547946,72.00000000000001L138.0958904109589,72.00000000000001L138.44520547945206,72.00000000000001L138.79452054794518,72.00000000000001L139.14383561643837,72.00000000000001L139.49315068493152,72.00000000000001L140.54109589041096,72.00000000000001L140.8904109589041,72.00000000000001L141.23972602739724,72.00000000000001L141.58904109589042,72.00000000000001L141.93835616438355,72.00000000000001L142.986301369863,72.00000000000001L143.33561643835617,72.00000000000001L143.68493150684932,72.00000000000001L144.03424657534248,72.00000000000001L144.3835616438356,72.00000000000001L145.43150684931507,72.00000000000001L145.7808219178082,72.00000000000001L146.13013698630138,72.00000000000001L146.47945205479454,72.00000000000001L146.82876712328766,72.00000000000001L147.87671232876713,72.00000000000001L148.22602739726025,72.00000000000001L148.57534246575344,72.00000000000001L148.92465753424656,77.99999999999999L149.27397260273972,77.99999999999999L150.32191780821918,77.99999999999999L150.6712328767123,77.99999999999999L151.0205479452055,77.99999999999999L151.36986301369862,77.99999999999999L151.71917808219177,77.99999999999999L152.7671232876712,77.99999999999999L153.1164383561644,77.99999999999999L153.46575342465755,77.99999999999999L153.81506849315068,77.99999999999999L154.16438356164383,77.99999999999999L155.21232876712327,77.99999999999999L155.56164383561645,77.99999999999999L155.91095890410958,77.99999999999999L156.26027397260273,77.99999999999999L156.60958904109592,77.99999999999999L157.65753424657532,77.99999999999999L158.0068493150685,77.99999999999999L158.35616438356163,77.99999999999999L158.7054794520548,77.99999999999999L159.05479452054794,77.99999999999999L160.1027397260274,77.99999999999999L160.45205479452056,77.99999999999999L160.8013698630137,77.99999999999999L161.15068493150685,77.99999999999999L161.5,77.99999999999999L162.54794520547946,77.99999999999999L162.8972602739726,77.99999999999999L163.24657534246575,77.99999999999999L163.59589041095893,77.99999999999999L163.94520547945206,77.99999999999999L164.99315068493152,77.99999999999999L165.34246575342465,77.99999999999999L165.6917808219178,77.99999999999999L166.04109589041096,77.99999999999999L166.3904109589041,77.99999999999999L167.43835616438358,77.99999999999999L167.7876712328767,77.99999999999999L168.13698630136986,77.99999999999999L168.486301369863,77.99999999999999L168.83561643835617,77.99999999999999L169.8835616438356,77.99999999999999L170.23287671232876,77.99999999999999L170.58219178082192,77.99999999999999L170.93150684931507,77.99999999999999L171.28082191780823,77.99999999999999L172.32876712328766,77.99999999999999L172.67808219178082,77.99999999999999L173.02739726027397,77.99999999999999L173.37671232876713,77.99999999999999L173.72602739726028,77.99999999999999L174.77397260273972,77.99999999999999L175.12328767123287,77.99999999999999L175.47260273972603,77.99999999999999L175.82191780821918,77.99999999999999L176.1712328767123,77.99999999999999L177.21917808219177,77.99999999999999L177.56849315068493,77.99999999999999L177.91780821917808,77.99999999999999L178.26712328767124,77.99999999999999L178.61643835616437,77.99999999999999L179.66438356164383,90L180.013698630137,90L180.36301369863014,90L180.7123287671233,90L181.06164383561642,90L182.1095890410959,90L182.45890410958904,90L182.8082191780822,90L183.15753424657532,90L183.5068493150685,90L184.55479452054794,90L184.9041095890411,90L185.25342465753425,90L185.60273972602738,90L185.95205479452056,90L187,90L187.34931506849315,90L187.6986301369863,90L188.04794520547944,90L188.39726027397262,90L189.44520547945206,90L189.7945205479452,90L190.14383561643834,90L190.49315068493152,90L190.84246575342468,90L191.8904109589041,90L192.23972602739727,90L192.5890410958904,90L192.93835616438358,90L193.2876712328767,90L194.33561643835617,90L194.68493150684932,90L195.03424657534245,90L195.38356164383563,90L195.73287671232876,90L196.78082191780823,90L197.13013698630135,90L197.4794520547945,90L197.8287671232877,90L198.17808219178082,90L199.22602739726028,90L199.5753424657534,90L199.9246575342466,90L200.27397260273972,90L200.62328767123287,90L201.67123287671234,90L202.02054794520546,90L202.36986301369865,90L202.71917808219177,90L203.06849315068493,90L204.11643835616437,90L204.46575342465752,90L204.8150684931507,90L205.16438356164383,90L205.513698630137,90L206.56164383561642,90L206.9109589041096,90L207.26027397260273,90L207.6095890410959,90L207.95890410958904,90L209.00684931506848,90L209.35616438356166,90L209.7054794520548,90L210.05479452054794,105L210.4041095890411,105L211.45205479452054,105L211.80136986301372,105L212.15068493150685,105L212.5,105L212.84931506849315,105L213.89726027397262,105L214.24657534246575,105L214.5958904109589,105L214.94520547945206,105L215.2945205479452,105L216.34246575342468,105L216.6917808219178,105L217.04109589041096,105L217.3904109589041,105L217.73972602739727,105L218.78767123287673,105L219.13698630136986,105L219.486301369863,105L219.83561643835617,105L220.18493150684932,105L221.23287671232876,105L221.58219178082192,105L221.93150684931507,105L222.28082191780823,107.99999999999999L222.63013698630138,107.99999999999999L223.67808219178082,107.99999999999999L224.02739726027397,107.99999999999999L224.3767123287671,107.99999999999999L224.72602739726028,107.99999999999999L225.0753424657534,107.99999999999999L226.12328767123287,107.99999999999999L226.47260273972603,107.99999999999999L226.82191780821918,107.99999999999999L227.17123287671234,107.99999999999999L227.52054794520546,107.99999999999999L228.56849315068493,107.99999999999999L228.91780821917808,107.99999999999999L229.26712328767124,107.99999999999999L229.6164383561644,107.99999999999999L229.96575342465752,107.99999999999999L231.013698630137,107.99999999999999L231.3630136986301,107.99999999999999L231.7123287671233,107.99999999999999L232.06164383561645,107.99999999999999L232.41095890410958,107.99999999999999L233.45890410958904,107.99999999999999L233.8082191780822,107.99999999999999L234.15753424657535,107.99999999999999L234.50684931506848,107.99999999999999L234.85616438356163,107.99999999999999" fill="none" stroke="#76acb8" stroke-linejoin="round" stroke-linecap="round" stroke-width="2"></path></g></g></svg>