<svg xmlns="http://www.w3.org/2000/svg" viewBox="0 0 304 270"><style>/* <![CDATA[ */.chart-title{font-size:20px;fill:#43423e}.chart-subtitle{font-size:15px;fill:#74736c}.chart-source{font-size:10px;fill-opacity:.4}.axis .domain{fill:none;stroke:#74736c}.tick line{fill:none;stroke:#000;stroke-opacity:.2}.tick text{fill-opacity:.6;font-size:12px}.y.axis .tick line{stroke-dasharray:1}.y.axis .domain{fill:none;stroke-opacity:0}.y.axis .highlight-line{fill:none;stroke:#74736c}/* ]]> */</style><text class="chart-title" y="22">Romania GDP forecast</text><text class="chart-subtitle" y="42">By date of forecast, annual % change</text><text class="chart-source" y="265">来源:彭博. 2018年5月7日</text><g transform="translate(1,100)"><g class="x axis" transform="translate(0,120)" fill="none" font-size="10" font-family="sans-serif" text-anchor="middle"><path class="domain" stroke="#000" d="M0.5,0V0.5H255.5V0"></path><g class="tick" opacity="1" transform="translate(0.5,0)"><line stroke="#000" y2="6"></line><text fill="#000" y="9" dy="0.71em">July</text></g><g class="tick" opacity="1" transform="translate(32.636986301369866,0)"><line stroke="#000" y2="6"></line><text fill="#000" y="9" dy="0.71em">October</text></g><g class="tick" opacity="1" transform="translate(64.77397260273973,0)"><line stroke="#000" y2="6"></line><text fill="#000" y="9" dy="0.71em">2017</text></g><g class="tick" opacity="1" transform="translate(96.2123287671233,0)"><line stroke="#000" y2="6"></line><text fill="#000" y="9" dy="0.71em">April</text></g><g class="tick" opacity="1" transform="translate(128,0)"><line stroke="#000" y2="6"></line><text fill="#000" y="9" dy="0.71em">July</text></g><g class="tick" opacity="1" transform="translate(160.13698630136986,0)"><line stroke="#000" y2="6"></line><text fill="#000" y="9" dy="0.71em">October</text></g><g class="tick" opacity="1" transform="translate(192.27397260273972,0)"><line stroke="#000" y2="6"></line><text fill="#000" y="9" dy="0.71em">2018</text></g><g class="tick" opacity="1" transform="translate(223.7123287671233,0)"><line stroke="#000" y2="6"></line><text fill="#000" y="9" dy="0.71em">April</text></g><g class="tick" opacity="1" transform="translate(255.5,0)"><line stroke="#000" y2="6"></line><text fill="#000" y="9" dy="0.71em">July</text></g></g><g class="y axis" transform="translate(255,0)" fill="none" font-size="10" font-family="sans-serif" text-anchor="start"><path class="domain" stroke="#000" d="M0,120.5H0.5V0.5H0"></path><g class="tick" opacity="1" transform="translate(0,120.5)"><line stroke="#000" x2="-255"></line><text fill="#000" x="3" dy="0.32em">3</text></g><g class="tick" opacity="1" transform="translate(0,90.5)"><line stroke="#000" x2="-255"></line><text fill="#000" x="3" dy="0.32em">4</text></g><g class="tick" opacity="1" transform="translate(0,60.5)"><line stroke="#000" x2="-255"></line><text fill="#000" x="3" dy="0.32em">5</text></g><g class="tick" opacity="1" transform="translate(0,30.5)"><line stroke="#000" x2="-255"></line><text fill="#000" x="3" dy="0.32em">6</text></g><g class="tick" opacity="1" transform="translate(0,0.5)"><line stroke="#000" x2="-255"></line><text fill="#000" x="3" dy="0.32em">7</text></g></g><g class="chart-key" transform="translate(0, -35)"><g class="key-element" transform="translate(0,0)"><text x="28" font-size="12">2017</text><line x1="0" x2="25" y1="-5" y2="-5" stroke-width="2" fill="none" stroke="#af516c"></line></g><g class="key-element" transform="translate(0,20)"><text x="28" font-size="12">2018</text><line x1="0" x2="25" y1="-5" y2="-5" stroke-width="2" fill="none" stroke="#76acb8"></line></g></g><g><path d="M21.773972602739725,105L22.123287671232877,108L23.17123287671233,108L23.52054794520548,108L23.86986301369863,108L24.21917808219178,108L24.56849315068493,108L25.616438356164384,108L25.965753424657535,108L26.315068493150683,108L26.664383561643838,108L27.013698630136986,108L28.061643835616437,108L28.41095890410959,108L28.76027397260274,108L29.109589041095887,108L29.458904109589042,108L30.506849315068493,108L30.85616438356164,108L31.205479452054796,108L31.554794520547944,108L31.9041095890411,108L32.95205479452054,108L33.301369863013704,108L33.65068493150685,108L34,108L34.34931506849315,108L35.397260273972606,108L35.74657534246575,108L36.0958904109589,108L36.44520547945205,108L36.794520547945204,108L37.842465753424655,108L38.1917808219178,108L38.54109589041096,108L38.89041095890411,108L39.23972602739726,108L40.28767123287671,108L40.636986301369866,108L40.986301369863014,108L41.33561643835616,108L41.68493150684932,108L42.73287671232877,108L43.082191780821915,108L43.43150684931507,108L43.78082191780822,108L44.13013698630137,108L45.178082191780824,108L45.52739726027397,108L45.87671232876713,108L46.226027397260275,108L46.57534246575342,108L47.62328767123288,108L47.97260273972603,108L48.321917808219176,108L48.67123287671233,108L49.02054794520548,108L50.06849315068493,108L50.417808219178085,108L50.76712328767123,108L51.11643835616438,105L51.465753424657535,105L52.513698630136986,105L52.863013698630134,105L53.21232876712329,105L53.56164383561644,105L53.91095890410959,105L54.95890410958904,105L55.30821917808219,105L55.657534246575345,105L56.00684931506849,105L56.35616438356164,105L57.4041095890411,105L57.75342465753425,105L58.102739726027394,105L58.45205479452055,105L58.8013698630137,105L59.84931506849315,105L60.1986301369863,105L60.54794520547945,105L60.897260273972606,105L61.24657534246575,105L62.294520547945204,105L62.64383561643836,105L62.99315068493151,105L63.342465753424655,105L63.6917808219178,105L64.73972602739725,105L65.08904109589042,105L65.43835616438356,105L65.78767123287672,105L66.13698630136986,105L67.18493150684931,105L67.53424657534246,105L67.8835616438356,105L68.23287671232876,105L68.58219178082193,105L69.63013698630137,105L69.97945205479452,105L70.32876712328768,105L70.67808219178082,105L71.02739726027397,105L72.07534246575344,105L72.42465753424658,105L72.77397260273973,105L73.12328767123287,105L73.47260273972603,105L74.52054794520548,105L74.86986301369862,105L75.21917808219177,105L75.56849315068494,105L75.91780821917808,105L76.96575342465754,105L77.31506849315069,105L77.66438356164383,105L78.01369863013699,105L78.36301369863013,105L79.41095890410959,105L79.76027397260275,105L80.10958904109589,105L80.45890410958904,105L80.8082191780822,105L81.85616438356163,105L82.2054794520548,105L82.55479452054794,105L82.9041095890411,105L83.25342465753425,99L84.30136986301369,99L84.65068493150685,99L85,99L85.34931506849314,99L85.69863013698631,99L86.74657534246576,99L87.0958904109589,99L87.44520547945206,99L87.7945205479452,99L88.14383561643835,99L89.19178082191782,99L89.54109589041096,99L89.89041095890411,99L90.23972602739727,99L90.58904109589041,99L91.63698630136986,99L91.98630136986301,99L92.33561643835615,99L92.68493150684932,99L93.03424657534246,99L94.08219178082192,99L94.43150684931507,99L94.78082191780821,99L95.13013698630137,99L95.47945205479452,99L96.52739726027397,99L96.87671232876713,99L97.22602739726028,99L97.57534246575342,99L97.92465753424658,99L98.97260273972603,99L99.32191780821917,99L99.67123287671234,99L100.02054794520548,99L100.36986301369863,99L101.41780821917808,99L101.76712328767123,99L102.11643835616438,99L102.46575342465754,99L102.81506849315069,99L103.86301369863014,99L104.2123287671233,99L104.56164383561644,99L104.91095890410959,99L105.26027397260273,99L106.3082191780822,97.5L106.65753424657535,97.5L107.0068493150685,97.5L107.35616438356165,97.5L107.70547945205479,97.5L108.75342465753424,97.5L109.1027397260274,97.5L109.45205479452054,97.5L109.8013698630137,97.5L110.15068493150686,97.5L111.1986301369863,97.5L111.54794520547945,97.5L111.8972602739726,97.5L112.24657534246575,97.5L112.5958904109589,97.5L113.64383561643837,97.5L113.9931506849315,97.5L114.34246575342466,97.5L114.6917808219178,97.5L115.04109589041096,90L116.08904109589041,90L116.43835616438355,90L116.78767123287672,90L117.13698630136987,90L117.48630136986301,90L118.53424657534246,90L118.88356164383562,90L119.23287671232876,90L119.58219178082192,90L119.93150684931506,90L120.97945205479452,90L121.32876712328768,90L121.67808219178082,90L122.02739726027397,90L122.37671232876713,90L123.42465753424656,90L123.77397260273973,90L124.12328767123289,90L124.47260273972603,90L124.82191780821918,90L125.86986301369863,90L126.21917808219177,90L126.56849315068493,90L126.91780821917807,90L127.26712328767124,85.49999999999999L128.31506849315068,85.49999999999999L128.66438356164386,85.49999999999999L129.013698630137,85.49999999999999L129.36301369863014,85.49999999999999L129.7123287671233,85.49999999999999L130.76027397260273,85.49999999999999L131.1095890410959,85.49999999999999L131.45890410958904,85.49999999999999L131.80821917808217,85.49999999999999L132.15753424657535,85.49999999999999L133.20547945205482,85.49999999999999L133.55479452054794,85.49999999999999L133.9041095890411,85.49999999999999L134.25342465753423,85.49999999999999L134.6027397260274,85.49999999999999L135.65068493150687,85.49999999999999L136,85.49999999999999L136.34931506849315,85.49999999999999L136.6986301369863,85.49999999999999L137.04794520547946,85.49999999999999L138.0958904109589,85.49999999999999L138.44520547945206,85.49999999999999L138.79452054794518,85.49999999999999L139.14383561643837,85.49999999999999L139.49315068493152,85.49999999999999L140.54109589041096,85.49999999999999L140.8904109589041,85.49999999999999L141.23972602739724,85.49999999999999L141.58904109589042,85.49999999999999L141.93835616438355,85.49999999999999L142.986301369863,85.49999999999999L143.33561643835617,85.49999999999999L143.68493150684932,85.49999999999999L144.03424657534248,85.49999999999999L144.3835616438356,85.49999999999999L145.43150684931507,85.49999999999999L145.7808219178082,85.49999999999999L146.13013698630138,85.49999999999999L146.47945205479454,85.49999999999999L146.82876712328766,85.49999999999999L147.87671232876713,85.49999999999999L148.22602739726025,85.49999999999999L148.57534246575344,85.49999999999999L148.92465753424656,62.999999999999986L149.27397260273972,62.999999999999986L150.32191780821918,61.49999999999999L150.6712328767123,61.49999999999999L151.0205479452055,61.49999999999999L151.36986301369862,61.49999999999999L151.71917808219177,60L152.7671232876712,60L153.1164383561644,60L153.46575342465755,60L153.81506849315068,60L154.16438356164383,60L155.21232876712327,60L155.56164383561645,60L155.91095890410958,60L156.26027397260273,60L156.60958904109592,60L157.65753424657532,60L158.0068493150685,60L158.35616438356163,60L158.7054794520548,60L159.05479452054794,60L160.1027397260274,60L160.45205479452056,60L160.8013698630137,60L161.15068493150685,60L161.5,60L162.54794520547946,60L162.8972602739726,60L163.24657534246575,60L163.59589041095893,60L163.94520547945206,60L164.99315068493152,60L165.34246575342465,60L165.6917808219178,60L166.04109589041096,60L166.3904109589041,60L167.43835616438358,60L167.7876712328767,60L168.13698630136986,60L168.486301369863,60L168.83561643835617,60L169.8835616438356,60L170.23287671232876,60L170.58219178082192,60L170.93150684931507,60L171.28082191780823,60L172.32876712328766,60L172.67808219178082,60L173.02739726027397,60L173.37671232876713,60L173.72602739726028,60L174.77397260273972,60L175.12328767123287,60L175.47260273972603,60L175.82191780821918,60L176.1712328767123,60L177.21917808219177,60L177.56849315068493,60L177.91780821917808,60L178.26712328767124,60L178.61643835616437,60L179.66438356164383,45L180.013698630137,45L180.36301369863014,45L180.7123287671233,45L181.06164383561642,45L182.1095890410959,45L182.45890410958904,45L182.8082191780822,45L183.15753424657532,45L183.5068493150685,39L184.55479452054794,39L184.9041095890411,39L185.25342465753425,39L185.60273972602738,39L185.95205479452056,39L187,39L187.34931506849315,39L187.6986301369863,39L188.04794520547944,39L188.39726027397262,39L189.44520547945206,39L189.7945205479452,39L190.14383561643834,39L190.49315068493152,39L190.84246575342468,39L191.8904109589041,19.500000000000014L192.23972602739727,19.500000000000014L192.5890410958904,15L192.93835616438358,15L193.2876712328767,15L194.33561643835617,15L194.68493150684932,15L195.03424657534245,15L195.38356164383563,15L195.73287671232876,15L196.78082191780823,15L197.13013698630135,15L197.4794520547945,15L197.8287671232877,15L198.17808219178082,15L199.22602739726028,15L199.5753424657534,15L199.9246575342466,15L200.27397260273972,15L200.62328767123287,15L201.67123287671234,15L202.02054794520546,15L202.36986301369865,15L202.71917808219177,15L203.06849315068493,15L204.11643835616437,15L204.46575342465752,15L204.8150684931507,15L205.16438356164383,15L205.513698630137,15L206.56164383561642,15L206.9109589041096,15L207.26027397260273,15L207.6095890410959,15L207.95890410958904,15L209.00684931506848,15L209.35616438356166,15L209.7054794520548,15L210.05479452054794,15L210.4041095890411,15L211.45205479452054,15L211.80136986301372,15L212.15068493150685,15L212.5,15L212.84931506849315,15L213.89726027397262,15L214.24657534246575,15L214.5958904109589,15L214.94520547945206,15L215.2945205479452,15L216.34246575342468,15L216.6917808219178,15L217.04109589041096,15L217.3904109589041,15L217.73972602739727,15L218.78767123287673,15L219.13698630136986,15L219.486301369863,15L219.83561643835617,15L220.18493150684932,10.499999999999986L221.23287671232876,10.499999999999986L221.58219178082192,10.499999999999986L221.93150684931507,10.499999999999986L222.28082191780823,2.999999999999986L222.63013698630138,2.999999999999986" fill="none" stroke="#af516c" stroke-linejoin="round" stroke-linecap="round" stroke-width="2"></path><path d="M21.773972602739725,105L22.123287671232877,105L23.17123287671233,105L23.52054794520548,105L23.86986301369863,105L24.21917808219178,105L24.56849315068493,105L25.616438356164384,105L25.965753424657535,105L26.315068493150683,105L26.664383561643838,105L27.013698630136986,105L28.061643835616437,105L28.41095890410959,105L28.76027397260274,105L29.109589041095887,105L29.458904109589042,105L30.506849315068493,105L30.85616438356164,105L31.205479452054796,105L31.554794520547944,105L31.9041095890411,105L32.95205479452054,105L33.301369863013704,105L33.65068493150685,105L34,105L34.34931506849315,105L35.397260273972606,105L35.74657534246575,105L36.0958904109589,105L36.44520547945205,105L36.794520547945204,105L37.842465753424655,105L38.1917808219178,105L38.54109589041096,105L38.89041095890411,105L39.23972602739726,105L40.28767123287671,105L40.636986301369866,105L40.986301369863014,105L41.33561643835616,105L41.68493150684932,105L42.73287671232877,105L43.082191780821915,105L43.43150684931507,105L43.78082191780822,105L44.13013698630137,105L45.178082191780824,105L45.52739726027397,105L45.87671232876713,105L46.226027397260275,105L46.57534246575342,105L47.62328767123288,105L47.97260273972603,105L48.321917808219176,105L48.67123287671233,105L49.02054794520548,105L50.06849315068493,105L50.417808219178085,105L50.76712328767123,105L51.11643835616438,114L51.465753424657535,114L52.513698630136986,114L52.863013698630134,114L53.21232876712329,114L53.56164383561644,114L53.91095890410959,114L54.95890410958904,114L55.30821917808219,114L55.657534246575345,114L56.00684931506849,114L56.35616438356164,114L57.4041095890411,114L57.75342465753425,114L58.102739726027394,114L58.45205479452055,114L58.8013698630137,114L59.84931506849315,114L60.1986301369863,114L60.54794520547945,114L60.897260273972606,114L61.24657534246575,114L62.294520547945204,114L62.64383561643836,114L62.99315068493151,114L63.342465753424655,114L63.6917808219178,114L64.73972602739725,114L65.08904109589042,114L65.43835616438356,112.5L65.78767123287672,112.5L66.13698630136986,112.5L67.18493150684931,112.5L67.53424657534246,112.5L67.8835616438356,112.5L68.23287671232876,112.5L68.58219178082193,112.5L69.63013698630137,112.5L69.97945205479452,112.5L70.32876712328768,112.5L70.67808219178082,112.5L71.02739726027397,112.5L72.07534246575344,112.5L72.42465753424658,112.5L72.77397260273973,112.5L73.12328767123287,112.5L73.47260273972603,112.5L74.52054794520548,112.5L74.86986301369862,114L75.21917808219177,114L75.56849315068494,114L75.91780821917808,112.5L76.96575342465754,112.5L77.31506849315069,112.5L77.66438356164383,112.5L78.01369863013699,112.5L78.36301369863013,112.5L79.41095890410959,112.5L79.76027397260275,112.5L80.10958904109589,112.5L80.45890410958904,112.5L80.8082191780822,112.5L81.85616438356163,112.5L82.2054794520548,112.5L82.55479452054794,112.5L82.9041095890411,112.5L83.25342465753425,111L84.30136986301369,111L84.65068493150685,111L85,111L85.34931506849314,111L85.69863013698631,111L86.74657534246576,111L87.0958904109589,111L87.44520547945206,111L87.7945205479452,111L88.14383561643835,111L89.19178082191782,111L89.54109589041096,111L89.89041095890411,111L90.23972602739727,111L90.58904109589041,111L91.63698630136986,111L91.98630136986301,111L92.33561643835615,111L92.68493150684932,111L93.03424657534246,111L94.08219178082192,111L94.43150684931507,111L94.78082191780821,111L95.13013698630137,111L95.47945205479452,111L96.52739726027397,111L96.87671232876713,109.5L97.22602739726028,108L97.57534246575342,108L97.92465753424658,108L98.97260273972603,108L99.32191780821917,108L99.67123287671234,108L100.02054794520548,108L100.36986301369863,108L101.41780821917808,108L101.76712328767123,108L102.11643835616438,108L102.46575342465754,108L102.81506849315069,108L103.86301369863014,108L104.2123287671233,108L104.56164383561644,108L104.91095890410959,108L105.26027397260273,106.5L106.3082191780822,106.5L106.65753424657535,106.5L107.0068493150685,106.5L107.35616438356165,106.5L107.70547945205479,106.5L108.75342465753424,106.5L109.1027397260274,106.5L109.45205479452054,106.5L109.8013698630137,106.5L110.15068493150686,106.5L111.1986301369863,106.5L111.54794520547945,106.5L111.8972602739726,106.5L112.24657534246575,106.5L112.5958904109589,106.5L113.64383561643837,106.5L113.9931506849315,106.5L114.34246575342466,106.5L114.6917808219178,106.5L115.04109589041096,108L116.08904109589041,108L116.43835616438355,108L116.78767123287672,108L117.13698630136987,108L117.48630136986301,108L118.53424657534246,108L118.88356164383562,108L119.23287671232876,108L119.58219178082192,108L119.93150684931506,108L120.97945205479452,108L121.32876712328768,108L121.67808219178082,108L122.02739726027397,108L122.37671232876713,108L123.42465753424656,108L123.77397260273973,108L124.12328767123289,108L124.47260273972603,108L124.82191780821918,108L125.86986301369863,105L126.21917808219177,105L126.56849315068493,105L126.91780821917807,105L127.26712328767124,105L128.31506849315068,105L128.66438356164386,105L129.013698630137,105L129.36301369863014,105L129.7123287671233,105L130.76027397260273,105L131.1095890410959,105L131.45890410958904,105L131.80821917808217,105L132.15753424657535,105L133.20547945205482,105L133.55479452054794,105L133.9041095890411,105L134.25342465753423,105L134.6027397260274,105L135.65068493150687,105L136,105L136.34931506849315,105L136.6986301369863,105L137.04794520547946,105L138.0958904109589,105L138.44520547945206,105L138.79452054794518,105L139.14383561643837,105L139.49315068493152,105L140.54109589041096,105L140.8904109589041,105L141.23972602739724,105L141.58904109589042,105L141.93835616438355,105L142.986301369863,105L143.33561643835617,105L143.68493150684932,105L144.03424657534248,105L144.3835616438356,105L145.43150684931507,105L145.7808219178082,105L146.13013698630138,105L146.47945205479454,105L146.82876712328766,105L147.87671232876713,105L148.22602739726025,105L148.57534246575344,105L148.92465753424656,105L149.27397260273972,105L150.32191780821918,105L150.6712328767123,105L151.0205479452055,105L151.36986301369862,105L151.71917808219177,105L152.7671232876712,105L153.1164383561644,105L153.46575342465755,105L153.81506849315068,105L154.16438356164383,105L155.21232876712327,105L155.56164383561645,105L155.91095890410958,105L156.26027397260273,105L156.60958904109592,105L157.65753424657532,105L158.0068493150685,105L158.35616438356163,105L158.7054794520548,105L159.05479452054794,105L160.1027397260274,105L160.45205479452056,105L160.8013698630137,105L161.15068493150685,105L161.5,105L162.54794520547946,105L162.8972602739726,105L163.24657534246575,105L163.59589041095893,105L163.94520547945206,105L164.99315068493152,105L165.34246575342465,105L165.6917808219178,105L166.04109589041096,105L166.3904109589041,105L167.43835616438358,105L167.7876712328767,105L168.13698630136986,105L168.486301369863,105L168.83561643835617,99L169.8835616438356,99L170.23287671232876,99L170.58219178082192,99L170.93150684931507,99L171.28082191780823,99L172.32876712328766,99L172.67808219178082,99L173.02739726027397,99L173.37671232876713,99L173.72602739726028,99L174.77397260273972,99L175.12328767123287,99L175.47260273972603,99L175.82191780821918,99L176.1712328767123,99L177.21917808219177,99L177.56849315068493,99L177.91780821917808,99L178.26712328767124,99L178.61643835616437,99L179.66438356164383,96L180.013698630137,96L180.36301369863014,96L180.7123287671233,94.5L181.06164383561642,94.5L182.1095890410959,94.5L182.45890410958904,94.5L182.8082191780822,94.5L183.15753424657532,94.5L183.5068493150685,94.5L184.55479452054794,94.5L184.9041095890411,94.5L185.25342465753425,94.5L185.60273972602738,94.5L185.95205479452056,94.5L187,94.5L187.34931506849315,94.5L187.6986301369863,94.5L188.04794520547944,94.5L188.39726027397262,94.5L189.44520547945206,94.5L189.7945205479452,94.5L190.14383561643834,94.5L190.49315068493152,94.5L190.84246575342468,94.5L191.8904109589041,91.5L192.23972602739727,91.5L192.5890410958904,87.00000000000001L192.93835616438358,87.00000000000001L193.2876712328767,87.00000000000001L194.33561643835617,87.00000000000001L194.68493150684932,87.00000000000001L195.03424657534245,87.00000000000001L195.38356164383563,87.00000000000001L195.73287671232876,87.00000000000001L196.78082191780823,87.00000000000001L197.13013698630135,87.00000000000001L197.4794520547945,87.00000000000001L197.8287671232877,87.00000000000001L198.17808219178082,87.00000000000001L199.22602739726028,87.00000000000001L199.5753424657534,87.00000000000001L199.9246575342466,87.00000000000001L200.27397260273972,87.00000000000001L200.62328767123287,87.00000000000001L201.67123287671234,87.00000000000001L202.02054794520546,87.00000000000001L202.36986301369865,87.00000000000001L202.71917808219177,87.00000000000001L203.06849315068493,87.00000000000001L204.11643835616437,87.00000000000001L204.46575342465752,87.00000000000001L204.8150684931507,87.00000000000001L205.16438356164383,87.00000000000001L205.513698630137,87.00000000000001L206.56164383561642,87.00000000000001L206.9109589041096,87.00000000000001L207.26027397260273,87.00000000000001L207.6095890410959,87.00000000000001L207.95890410958904,87.00000000000001L209.00684931506848,87.00000000000001L209.35616438356166,87.00000000000001L209.7054794520548,87.00000000000001L210.05479452054794,84L210.4041095890411,84L211.45205479452054,84L211.80136986301372,84L212.15068493150685,84L212.5,84L212.84931506849315,84L213.89726027397262,84L214.24657534246575,84L214.5958904109589,84L214.94520547945206,84L215.2945205479452,84L216.34246575342468,84L216.6917808219178,84L217.04109589041096,84L217.3904109589041,84L217.73972602739727,84L218.78767123287673,84L219.13698630136986,84L219.486301369863,84L219.83561643835617,84L220.18493150684932,84L221.23287671232876,84L221.58219178082192,84L221.93150684931507,84L222.28082191780823,84L222.63013698630138,84L223.67808219178082,84L224.02739726027397,84L224.3767123287671,84L224.72602739726028,84L225.0753424657534,84L226.12328767123287,84L226.47260273972603,84L226.82191780821918,84L227.17123287671234,84L227.52054794520546,84L228.56849315068493,84L228.91780821917808,84L229.26712328767124,84L229.6164383561644,84L229.96575342465752,84L231.013698630137,84L231.3630136986301,84L231.7123287671233,84L232.06164383561645,84L232.41095890410958,84L233.45890410958904,84L233.8082191780822,84L234.15753424657535,84L234.50684931506848,84L234.85616438356163,84" fill="none" stroke="#76acb8" stroke-linejoin="round" stroke-linecap="round" stroke-width="2"></path></g></g></svg>