<svg xmlns="http://www.w3.org/2000/svg" viewBox="0 0 304 270"><style>/* <![CDATA[ */.chart-title{font-size:20px;fill:#43423e}.chart-subtitle{font-size:15px;fill:#74736c}.chart-source{font-size:10px;fill-opacity:.4}.axis .domain{fill:none;stroke:#74736c}.tick line{fill:none;stroke:#000;stroke-opacity:.2}.tick text{fill-opacity:.6;font-size:12px}.y.axis .tick line{stroke-dasharray:1}.y.axis .domain{fill:none;stroke-opacity:0}.y.axis .highlight-line{fill:none;stroke:#74736c}/* ]]> */</style><text class="chart-title" y="22">Rouble vs US dollar</text><text class="chart-subtitle" y="42">Rb per $</text><text class="chart-source" y="265">来源:彭博. 2018年5月7日</text><g transform="translate(1,100)"><g class="x axis" transform="translate(0,120)" fill="none" font-size="10" font-family="sans-serif" text-anchor="middle"><path class="domain" stroke="#000" d="M0.5,0V0.5H255.5V0"></path><g class="tick" opacity="1" transform="translate(0.5,0)"><line stroke="#000" y2="6"></line><text fill="#000" y="9" dy="0.71em">2014</text></g><g class="tick" opacity="1" transform="translate(57.18392204628502,0)"><line stroke="#000" y2="6"></line><text fill="#000" y="9" dy="0.71em">2015</text></g><g class="tick" opacity="1" transform="translate(113.86784409257004,0)"><line stroke="#000" y2="6"></line><text fill="#000" y="9" dy="0.71em">2016</text></g><g class="tick" opacity="1" transform="translate(170.7070645554202,0)"><line stroke="#000" y2="6"></line><text fill="#000" y="9" dy="0.71em">2017</text></g><g class="tick" opacity="1" transform="translate(227.39098660170524,0)"><line stroke="#000" y2="6"></line><text fill="#000" y="9" dy="0.71em">2018</text></g></g><g class="y axis" transform="translate(255,0)" fill="none" font-size="10" font-family="sans-serif" text-anchor="start"><path class="domain" stroke="#000" d="M0,120.5H0.5V0.5H0"></path><g class="tick" opacity="1" transform="translate(0,101.67647058823529)"><line stroke="#000" x2="-255"></line><text fill="#000" x="3" dy="0.32em">40</text></g><g class="tick" opacity="1" transform="translate(0,78.1470588235294)"><line stroke="#000" x2="-255"></line><text fill="#000" x="3" dy="0.32em">50</text></g><g class="tick" opacity="1" transform="translate(0,54.61764705882352)"><line stroke="#000" x2="-255"></line><text fill="#000" x="3" dy="0.32em">60</text></g><g class="tick" opacity="1" transform="translate(0,31.088235294117652)"><line stroke="#000" x2="-255"></line><text fill="#000" x="3" dy="0.32em">70</text></g><g class="tick" opacity="1" transform="translate(0,7.558823529411768)"><line stroke="#000" x2="-255"></line><text fill="#000" x="3" dy="0.32em">80</text></g></g><g><path d="M0.05176613885505481,117.98823529411766L0.20706455542021923,117.43835294117646L0.3623629719853837,117.18376470588235L0.8282582216808769,117.09717647058824L0.9835566382460414,117.30611764705883L1.138855054811206,117.18070588235294L1.2941534713763703,117.10329411764707L1.4494518879415348,117.51482352941177L1.915347137637028,116.98776470588236L2.0706455542021924,116.90611764705882L2.2259439707673567,116.78305882352942L2.381242387332521,116.66564705882354L2.5365408038976858,116.3395294117647L3.002436053593179,115.84941176470588L3.1577344701583434,115.4355294117647L3.3130328867235077,115.4009411764706L3.468331303288672,115.08423529411765L3.6236297198538368,113.99576470588235L4.0895249695493305,113.5764705882353L4.244823386114494,113.32988235294117L4.400121802679659,112.73647058823529L4.555420219244824,113.25858823529413L4.710718635809988,112.57952941176471L5.176613885505481,111.88282352941175L5.331912302070646,112.79623529411765L5.48721071863581,113.14941176470589L5.642509135200974,113.73458823529413L5.797807551766139,113.51364705882352L6.2637028014616325,113.51105882352941L6.419001218026796,113.55764705882353L6.574299634591961,113.34211764705883L6.729598051157125,112.54282352941176L6.88489646772229,112.55270588235294L7.350791717417783,112.35835294117646L7.506090133982948,111.89999999999999L7.661388550548112,111.40117647058824L7.816686967113276,111.11035294117647L7.97198538367844,111.68823529411765L8.437880633373934,111.83082352941177L8.5931790499391,111.3649411764706L8.748477466504262,110.54188235294117L8.903775883069427,110.32941176470588L9.059074299634592,110.908L9.524969549330084,109.22141176470589L9.680267965895249,110.34517647058824L9.835566382460414,110.34376470588235L9.990864799025578,110.16329411764707L10.146163215590743,109.53505882352941L10.612058465286236,109.76188235294119L10.7673568818514,109.37623529411765L10.922655298416565,109.40070588235294L11.07795371498173,109.30941176470589L11.233252131546893,109.09976470588236L11.699147381242387,109.95811764705883L11.854445797807552,110.00870588235294L12.009744214372716,110.67176470588235L12.16504263093788,110.18211764705882L12.320341047503044,110.0164705882353L12.786236297198538,110.30329411764706L12.941534713763701,111.53058823529412L13.096833130328866,111.69905882352941L13.25213154689403,111.47811764705882L13.407429963459196,111.14682352941176L13.873325213154688,112.53317647058823L14.028623629719853,112.75364705882352L14.183922046285018,111.95764705882354L14.339220462850182,111.58423529411763L14.494518879415347,112.30070588235294L14.96041412911084,111.43929411764705L15.115712545676004,111.34517647058823L15.27101096224117,111.40917647058824L15.426309378806335,111.71317647058822L15.581607795371498,111.42588235294119L16.047503045066993,110.77905882352941L16.202801461632156,110.15576470588236L16.358099878197322,110.60070588235294L16.513398294762485,111.50023529411764L16.66869671132765,111.59152941176471L17.13459196102314,111.30705882352942L17.289890377588307,111.31482352941175L17.44518879415347,111.34705882352941L17.600487210718637,111.21035294117648L17.7557856272838,110.49764705882353L18.221680876979296,110.87670588235294L18.37697929354446,111.41223529411765L18.53227771010962,111.38070588235293L18.687576126674784,111.43294117647059L18.84287454323995,110.96988235294117L19.308769792935443,111.21199999999999L19.46406820950061,112.03270588235294L19.619366626065773,113.07717647058824L19.77466504263094,112.87388235294118L19.929963459196102,112.40705882352943L20.395858708891595,112.73223529411764L20.551157125456758,113.31576470588234L20.706455542021924,113.83999999999999L20.861753958587087,113.49011764705882L21.017052375152254,113.52117647058823L21.482947624847746,114.012L21.638246041412913,114.06705882352941L21.793544457978076,114.38588235294117L21.94884287454324,114.48635294117648L22.1041412911084,114.92635294117646L22.570036540803898,114.83529411764705L22.72533495736906,114.33458823529412L22.880633373934227,113.95294117647059L23.03593179049939,113.74870588235295L23.191230207064557,113.18258823529412L23.657125456760046,113.14870588235294L23.812423873325212,112.80964705882353L23.967722289890375,112.87882352941176L24.12302070645554,113.67129411764705L24.278319123020708,114.31905882352942L24.7442143727162,114.52729411764706L24.899512789281367,114.47223529411765L25.05481120584653,114.40917647058824L25.210109622411697,114.53364705882353L25.365408038976856,114.33411764705882L25.831303288672352,113.76776470588236L25.986601705237515,113.37647058823529L26.14190012180268,114.03270588235294L26.297198538367844,114.4075294117647L26.45249695493301,114.18635294117648L26.9183922046285,114.92141176470588L27.073690621193666,115.83529411764705L27.22898903775883,115.86541176470588L27.384287454323996,115.96094117647058L27.53958587088916,115.94023529411764L28.005481120584655,115.33576470588235L28.160779537149818,114.52141176470587L28.316077953714984,114.48164705882353L28.471376370280147,114.66305882352941L28.62667478684531,114.19035294117647L29.092570036540803,114.27882352941177L29.24786845310597,114.67647058823529L29.403166869671132,115.32611764705882L29.5584652862363,115.32823529411765L29.71376370280146,114.76941176470588L30.179658952496958,114.51717647058824L30.334957369062117,114.37270588235295L30.490255785627284,114.31811764705883L30.645554202192447,112.54541176470589L30.800852618757613,112.62517647058823L31.266747868453105,112.43623529411765L31.422046285018272,113.02517647058824L31.577344701583435,113.32376470588235L31.7326431181486,113.00988235294119L31.88794153471376,112.6035294117647L32.35383678440926,111.75905882352941L32.50913520097442,111.63600000000001L32.664433617539586,111.49435294117647L32.81973203410475,111.32541176470588L32.97503045066991,111.084L33.44092570036541,110.9844705882353L33.59622411693057,110.4950588235294L33.75152253349574,110.18541176470589L33.9068209500609,109.84164705882353L34.06211936662607,110.15388235294117L34.528014616321556,110.72752941176469L34.68331303288672,110.22541176470588L34.83861144945189,110.61105882352942L34.99390986601705,110.73764705882353L35.149208282582215,110.15105882352941L35.61510353227771,110.45976470588235L35.770401948842874,110.17694117647059L35.92570036540804,109.90776470588236L36.08099878197321,110.41811764705884L36.23629719853837,110.33576470588235L36.70219244823386,110.2009411764706L36.857490864799026,110.16399999999999L37.012789281364185,110.19058823529413L37.16808769792936,108.88305882352941L37.32338611449452,107.95552941176472L37.78928136419002,107.55364705882351L37.94457978075518,107.17294117647059L38.099878197320336,108.59411764705884L38.2551766138855,108.2444705882353L38.41047503045067,108.12705882352941L38.87637028014616,108.33176470588235L39.03166869671133,108.12682352941175L39.186967113276495,107.47082352941176L39.342265529841654,106.99317647058822L39.49756394640682,106.46588235294116L39.96345919610231,105.10235294117648L40.11875761266747,105.23764705882353L40.274056029232646,105.00235294117647L40.429354445797806,104.772L40.58465286236297,104.87670588235295L41.050548112058465,104.25294117647059L41.20584652862363,104.4924705882353L41.36114494518879,105.44423529411765L41.51644336175396,104.744L41.671741778319124,103.13035294117647L42.137637028014616,102.4764705882353L42.29293544457978,102.11694117647059L42.44823386114494,101.90658823529411L42.603532277710116,102.07176470588234L42.758830694275275,101.32211764705883L43.22472594397077,101.58352941176472L43.380024360535934,101.30305882352943L43.53532277710109,100.83011764705883L43.69062119366626,100.91929411764707L43.84591961023143,100.31717647058824L44.31181485992692,99.98847058823529L44.467113276492086,99.13835294117648L44.62241169305725,99.5475294117647L44.77771010962241,99.14682352941176L44.93300852618757,99.65741176470587L45.39890377588307,98.91388235294119L45.55420219244823,99.03576470588236L45.7095006090134,98.00894117647059L45.86479902557856,97.11035294117647L46.02009744214373,96.92117647058822L46.48599269183922,95.83105882352942L46.64129110840438,95.38941176470588L46.79658952496955,94.47152941176469L46.951887941534714,97.64235294117647L47.10718635809988,94.09529411764706L47.57308160779537,92.95976470588235L47.72838002436054,92.4470588235294L47.8836784409257,89.70635294117648L48.038976857490866,85.62917647058823L48.19427527405603,85.35717647058824L48.66017052375152,87.96682352941176L48.81546894031669,85.4315294117647L48.97076735688185,88.024L49.12606577344702,85.78564705882353L49.28136419001218,83.97411764705882L49.747259439707676,84.23529411764704L49.902557856272836,85.04823529411765L50.057856272838,85.33976470588235L50.21315468940317,86.38541176470588L50.36845310596833,87.44823529411765L50.83434835566383,89.79670588235294L50.98964677222899,86.95505882352941L51.14494518879415,84.56917647058822L51.30024360535932,80.98211764705883L51.45554202192449,78.90117647058824L51.92143727161998,73.76964705882352L52.07673568818514,68.30352941176471L52.232034104750305,70.17576470588236L52.387332521315464,67.16376470588236L52.54263093788064,70.84282352941176L53.00852618757612,68.71435294117649L53.1638246041413,67.6675294117647L53.319123020706456,66.24000000000001L53.474421437271616,64.1934117647059L53.62971985383678,58.1635294117647L54.095615103532275,44.14776470588234L54.25091352009744,35.495764705882365L54.40621193666261,50.37058823529411L54.561510353227774,50.30235294117648L54.716808769792934,55.019294117647064L55.182704019488426,64.36305882352943L55.33800243605359,66.56164705882352L55.49330085261875,68.70117647058824L55.648599269183926,72.73835294117647L55.803897685749085,69.41152941176469L56.269792935444585,57.659058823529406L56.425091352009744,62.63670588235294L56.58038976857491,58.235294117647065L56.73568818514007,59.28988235294117L56.89098660170524,57.05882352941176L57.35688185140073,50.31341176470589L57.512180267965896,46.84305882352942L57.66747868453106,47.294117647058826L57.82277710109622,53.831764705882364L57.97807551766139,49.31929411764706L58.44397076735688,46.726823529411774L58.59926918392204,41.859058823529395L58.75456760048721,43.17105882352942L58.90986601705237,42.000941176470576L59.06516443361754,41.632941176470595L59.53105968331303,42.63576470588235L59.6863580998782,41.77882352941177L59.84165651644336,41.881647058823546L59.99695493300853,44.293411764705894L60.15225334957369,45.39858823529413L60.61814859926918,34.22729411764706L60.77344701583435,36.418352941176465L60.92874543239951,35.848941176470575L61.08404384896468,33.01600000000002L61.23934226552984,31.843294117647048L61.70523751522534,34.534117647058835L61.8605359317905,41.82023529411765L62.01583434835566,35.529411764705856L62.17113276492083,38.600941176470585L62.326431181485994,37.98352941176472L62.792326431181486,40.505882352941185L62.94762484774665,41.265176470588244L63.10292326431182,41.93811764705883L63.25822168087698,41.44541176470588L63.413520097442145,46.01952941176471L63.87941534713763,46.58682352941176L64.0347137637028,46.45129411764705L64.19001218026797,50.435529411764705L64.34531059683313,49.63529411764705L64.50060901339829,49.26941176470588L64.9665042630938,45.401176470588226L65.12180267965896,47.28823529411764L65.27710109622411,50.77364705882353L65.43239951278929,51.345882352941175L65.58769792935443,49.99176470588236L66.05359317904994,48.150352941176465L66.2088915956151,49.66588235294117L66.36419001218027,49.82023529411765L66.51948842874543,52.01294117647059L66.6747868453106,53.105882352941165L67.1406820950061,53.28588235294117L67.29598051157124,48.337647058823535L67.45127892813642,50.1430588235294L67.60657734470159,51.11529411764705L67.76187576126675,48.86L68.22777101096224,48.95223529411763L68.38306942752742,50.706823529411764L68.53836784409256,55.4164705882353L68.69366626065774,53.90870588235295L68.84896467722291,55.78023529411766L69.31485992691839,57.060470588235304L69.47015834348356,59.44799999999999L69.62545676004872,60.16847058823529L69.78075517661388,60.41082352941176L69.93605359317905,59.17835294117647L70.40194884287455,59.967058823529406L70.5572472594397,58.38564705882352L70.71254567600486,59.75482352941177L70.86784409257004,62.111058823529405L71.0231425091352,61.950117647058825L71.48903775883069,64.79294117647058L71.64433617539586,65.80470588235293L71.79963459196102,69.0475294117647L71.95493300852618,73.0190588235294L72.11023142509136,69.20988235294118L72.57612667478685,72.28658823529412L72.73142509135201,75.41764705882353L72.88672350791718,78.28094117647058L73.04202192448233,78.09482352941177L73.1973203410475,73.02588235294118L73.663215590743,69.68235294117648L73.81851400730817,68.94705882352942L73.97381242387333,72.49035294117647L74.12911084043849,75.72941176470589L74.28440925700365,75.58941176470589L74.75030450669914,72.89317647058823L74.90560292326431,74.51270588235295L75.06090133982948,75.26823529411763L75.21619975639464,73.9115294117647L75.3714981729598,73.14117647058825L75.8373934226553,72.64752941176471L75.99269183922046,76.44823529411764L76.14799025578563,75.72329411764707L76.3032886723508,76.90188235294119L76.45858708891595,75.49764705882353L76.92448233861145,74.71764705882353L77.07978075517661,77.70705882352942L77.23507917174177,79.24917647058824L77.39037758830695,77.48588235294118L77.5456760048721,78.74823529411765L78.0115712545676,79.77529411764706L78.16686967113276,78.71482352941177L78.32216808769793,78.18729411764706L78.47746650426309,77.68635294117647L78.63276492082827,77.64211764705883L79.09866017052376,77.60282352941178L79.25395858708892,75.66423529411765L79.40925700365408,73.07976470588235L79.56455542021925,71.28258823529411L79.71985383678441,72.14L80.1857490864799,69.23764705882354L80.34104750304508,70.95105882352942L80.49634591961023,67.52164705882353L80.6516443361754,62.52164705882353L80.80694275274057,63.2329411764706L81.27283800243606,63.534352941176465L81.42813641900122,64.58188235294116L81.58343483556638,67.39882352941177L81.73873325213155,66.4404705882353L81.89403166869671,65.34588235294117L82.3599269183922,66.99764705882353L82.51522533495738,68.7364705882353L82.67052375152252,69.07435294117647L82.8258221680877,69.52117647058824L82.98112058465287,68.15058823529412L83.44701583434835,68.38517647058823L83.60231425091352,68.58917647058823L83.7576126674787,67.14752941176471L83.91291108404384,66.58894117647058L84.06820950060902,66.3378823529412L84.53410475030451,64.11976470588235L84.68940316686967,65.07882352941175L84.84470158343484,63.90023529411765L85,64.66376470588236L85.15529841656516,63.60117647058824L85.62119366626065,61.46988235294117L85.77649208282583,61.857882352941175L85.93179049939098,60.05905882352941L86.08708891595614,60.78776470588236L86.24238733252132,62.544705882352936L86.70828258221681,62.23623529411765L86.86358099878197,62.557176470588225L87.01887941534714,61.30282352941176L87.1741778319123,61.24823529411765L87.32947624847746,61.29670588235294L87.79537149817295,61.26117647058824L87.95066991473813,61.24635294117647L88.10596833130329,60.137411764705874L88.26126674786846,59.08941176470588L88.4165651644336,57.431764705882344L88.88246041412911,54.931529411764714L89.03775883069427,54.10211764705882L89.19305724725945,57.23341176470587L89.3483556638246,54.752941176470586L89.50365408038977,50.10588235294118L89.96954933008527,45.76376470588234L90.12484774665042,46.82894117647058L90.28014616321559,45.94117647058823L90.43544457978076,44.6458823529412L90.59074299634592,44.65952941176471L91.05663824604142,47.179529411764705L91.21193666260658,44.063529411764705L91.36723507917173,44.14635294117649L91.52253349573691,43.06494117647058L91.67783191230208,42.47882352941177L92.14372716199756,41.1898823529412L92.29902557856273,40.40988235294117L92.4543239951279,38.536941176470606L92.60962241169305,35.17364705882355L92.76492082825823,32.525176470588235L93.23081607795372,28.501882352941166L93.38611449451888,32.887294117647045L93.54141291108404,33.11505882352941L93.69671132764921,40.25176470588235L93.85200974421437,41.86635294117647L94.31790499390986,44.176705882352934L94.47320341047504,38.422352941176456L94.62850182704018,37.76023529411765L94.78380024360536,38.91764705882355L94.93909866017053,34.129411764705864L95.40499390986602,32.6494117647059L95.56029232643118,35.41976470588234L95.71559074299635,34.000000000000014L95.8708891595615,35.96305882352941L96.02618757612667,35.30023529411764L96.49208282582217,36.39082352941176L96.64738124238734,38.20894117647059L96.8026796589525,41.40047058823531L96.95797807551766,41.20235294117646L97.11327649208283,38.83529411764704L97.57917174177831,39.95788235294118L97.73447015834348,40.0985882352941L97.88976857490866,38.295294117647046L98.0450669914738,39.88094117647057L98.20036540803898,41.3894117647059L98.66626065773447,39.363999999999976L98.82155907429963,40.174352941176465L98.9768574908648,41.501411764705864L99.13215590742998,40.74894117647058L99.28745432399512,39.09411764705881L99.75334957369061,43.424235294117636L99.90864799025579,46.044470588235285L100.06394640682095,47.58282352941177L100.21924482338612,50.83435294117646L100.37454323995128,50.55176470588235L100.84043848964679,49.37552941176472L100.99573690621193,46.88635294117647L101.1510353227771,47.90752941176471L101.30633373934226,50.88164705882352L101.46163215590742,51.10588235294118L101.92752740560293,48.625176470588244L102.08282582216809,49.1364705882353L102.23812423873325,47.031294117647064L102.39342265529842,48.1195294117647L102.54872107186358,48.54117647058824L103.01461632155907,47.03999999999999L103.16991473812423,41.94329411764707L103.32521315468941,44.89882352941177L103.48051157125457,43.81976470588236L103.63580998781974,44.812235294117656L104.10170523751523,45.51670588235294L104.25700365408039,48.011294117647054L104.41230207064555,46.588705882352926L104.56760048721073,46.14517647058824L104.72289890377589,43.51764705882354L105.18879415347138,43.222823529411755L105.34409257003655,43.391764705882366L105.4993909866017,41.34658823529412L105.65468940316687,38.37552941176472L105.80998781973204,38.25858823529413L106.27588306942752,41.5710588235294L106.4311814859927,41.99694117647057L106.58647990255785,42.90870588235293L106.74177831912301,43.48447058823531L106.89707673568819,42.96470588235296L107.36297198538368,40.39529411764707L107.51827040194884,41.27694117647059L107.673568818514,41.09129411764708L107.82886723507917,40.41670588235293L107.98416565164433,38.991294117647044L108.45006090133982,39.01364705882352L108.605359317905,38.429411764705875L108.76065773447016,36.74517647058822L108.91595615103532,36.47623529411763L109.07125456760049,35.19764705882355L109.53714981729598,31.89129411764705L109.69244823386114,31.85764705882353L109.84774665042632,32.19435294117646L110.00304506699146,33.47458823529411L110.15834348355664,29.693882352941174L110.62423873325213,29.546117647058836L110.7795371498173,30.70352941176472L110.93483556638246,29.65270588235296L111.09013398294762,27.73482352941177L111.24543239951278,28.81670588235295L111.71132764920827,27.597647058823526L111.86662606577345,27.635058823529405L112.02192448233862,31.18870588235295L112.17722289890378,29.91529411764705L112.33252131546894,29.01317647058825L112.79841656516443,25.342588235294116L112.95371498172959,25.164705882352933L113.10901339829476,23.002352941176454L113.26431181485994,24.656705882352952L113.88550548112059,23.654117647058825L114.04080389768575,22.694823529411778L114.19610231425091,19.59105882352941L114.35140073081608,19.367764705882365L114.50669914738124,19.41764705882352L114.97259439707673,16.024705882352947L115.12789281364189,14.202117647058827L115.28319123020707,14.916941176470573L115.43848964677223,16.341882352941184L115.5937880633374,12.459058823529432L116.05968331303289,8.665176470588236L116.21498172959805,10.047058823529397L116.37028014616321,3.697176470588218L116.52557856272838,1.295058823529402L116.68087697929354,11.495294117647049L117.14677222898904,6.704941176470584L117.30207064555421,9.812470588235286L117.45736906211937,11.583529411764701L117.61266747868453,15.764705882352956L117.7679658952497,17.53741176470588L118.2338611449452,13.345882352941175L118.38915956151035,7.445882352941197L118.54445797807551,14.589882352941174L118.69975639464069,14.467764705882331L118.85505481120585,12.855058823529419L119.32095006090134,11.811058823529422L119.47624847746651,7.789411764705889L119.63154689403166,8.804705882352948L119.78684531059683,6.931058823529426L119.942143727162,10.202823529411774L120.40803897685748,14.18470588235293L120.56333739342266,11.83482352941175L120.71863580998783,18.82352941176471L120.87393422655298,15.52329411764704L121.02923264311815,14.117647058823536L121.49512789281364,18.415529411764695L121.6504263093788,15.798117647058831L121.80572472594397,17.01670588235295L121.96102314250913,18.058823529411754L122.1163215590743,15.723529411764716L122.58221680876979,18.374823529411742L122.73751522533496,22.76117647058824L122.89281364190012,23.40423529411764L123.04811205846528,23.355529411764707L123.20341047503045,26.17647058823529L123.66930572472594,27.101176470588243L123.8246041412911,23.857882352941175L123.97990255785628,28.00588235294117L124.13520097442144,27.308941176470597L124.2904993909866,31.275529411764722L124.75639464068209,30.505882352941185L124.91169305724726,28.35552941176472L125.06699147381242,32.42188235294118L125.2222898903776,35.0054117647059L125.37758830694274,34.7294117647059L125.84348355663825,35.68235294117649L125.9987819732034,36.51552941176469L126.15408038976858,33.734117647058824L126.30937880633374,33.975764705882355L126.4646772228989,34.88235294117648L126.9305724725944,34.00376470588236L127.08587088915955,34.71576470588235L127.24116930572472,34.61482352941175L127.3964677222899,37.89317647058826L127.55176613885504,36.041176470588226L128.01766138855055,33.94117647058823L128.1729598051157,34.09623529411765L128.3282582216809,36.08000000000001L128.48355663824603,34.89882352941176L128.6388550548112,37.36823529411765L129.1047503045067,38.37858823529413L129.26004872107188,40.88141176470589L129.41534713763704,39.35011764705881L129.5706455542022,39.75529411764707L129.72594397076733,38.85247058823528L130.19183922046284,39.48070588235295L130.34713763702803,40.28282352941176L130.5024360535932,41.952L130.65773447015835,38.23058823529412L130.8130328867235,38.747058823529414L131.278928136419,38.67764705882354L131.43422655298417,41.33200000000002L131.58952496954933,42.05882352941177L131.74482338611452,42.95341176470589L131.90012180267965,42.900941176470596L132.36601705237516,41.791294117647084L132.52131546894032,39.168235294117665L132.67661388550547,38.3870588235294L132.83191230207066,40.21364705882354L132.98721071863582,39.604941176470575L133.4531059683313,38.74117647058824L133.60840438489646,39.37647058823529L133.76370280146165,42.25764705882354L133.9190012180268,42.57529411764705L134.07429963459197,41.288235294117655L134.54019488428744,42.51552941176472L134.69549330085263,42.84047058823529L134.8507917174178,39.556470588235285L135.00609013398295,38.198352941176495L135.1613885505481,38.03035294117646L135.6272838002436,37.35623529411765L135.78258221680878,39.48094117647058L135.93788063337394,41.45129411764705L136.0931790499391,40.328941176470565L136.24847746650428,40.14470588235294L136.71437271619976,41.092L136.86967113276492,38.300235294117655L137.02496954933008,37.388235294117635L137.18026796589527,37.815294117647056L137.33556638246043,41.63600000000001L137.8014616321559,41.70705882352941L137.95676004872107,43.186588235294096L138.11205846528622,45.59105882352941L138.2673568818514,43.948705882352954L138.42265529841657,41.2L138.88855054811205,40.91364705882353L139.0438489646772,39.86917647058823L139.1991473812424,41.10588235294118L139.35444579780756,40.69364705882353L139.50974421437272,42.931294117647056L139.9756394640682,43.83717647058822L140.13093788063335,44.919058823529426L140.28623629719854,42.75811764705884L140.4415347137637,45.50329411764707L140.59683313032886,42.069176470588246L141.06272838002434,41.09811764705883L141.21802679658953,43.85552941176469L141.3733252131547,45.36776470588235L141.52862362971985,45.0035294117647L141.68392204628503,45.23623529411765L142.1498172959805,44.408235294117674L142.30511571254567,43.74258823529411L142.46041412911083,43.82941176470588L142.615712545676,43.29482352941177L142.77101096224118,45.03176470588235L143.23690621193668,44.13082352941177L143.39220462850182,45.188235294117646L143.54750304506697,44.83764705882352L143.70280146163216,47.24352941176471L143.85809987819732,45.446588235294115L144.32399512789283,47.419294117647055L144.47929354445796,45.86376470588236L144.63459196102315,45.105882352941194L144.7898903775883,43.9550588235294L144.94518879415347,42.82729411764706L145.41108404384897,41.314352941176466L145.5663824604141,40.18188235294116L145.7216808769793,40.470588235294116L145.87697929354445,37.87388235294118L146.0322777101096,40.1305882352941L146.49817295980512,37.68352941176471L146.6534713763703,38.054352941176475L146.80876979293544,39.44917647058824L146.9640682095006,40.7404705882353L147.11936662606578,41.24964705882351L147.58526187576126,43.253176470588215L147.74056029232645,42.99129411764706L147.89585870889158,42.52917647058824L148.05115712545674,43.8905882352941L148.20645554202193,42.923294117647075L148.67235079171743,44.60682352941174L148.8276492082826,45.06988235294118L148.98294762484772,44.34117647058824L149.1382460414129,45.59388235294119L149.29354445797807,44.9470588235294L149.75943970767358,42.79717647058823L149.91473812423874,43.261176470588225L150.0700365408039,41.7435294117647L150.22533495736906,42.25247058823531L150.38063337393422,43.321882352941174L150.84652862362972,42.97811764705881L151.00182704019488,41.41882352941175L151.15712545676007,41.421411764705894L151.3124238733252,39.95411764705884L151.46772228989036,41.981882352941156L151.93361753958587,42.49764705882353L152.08891595615106,43.434588235294115L152.24421437271621,44.22823529411764L152.39951278928135,44.646117647058816L152.55481120584653,42.7505882352941L153.020706455542,43.28588235294119L153.1760048721072,41.61458823529412L153.33130328867236,41.979529411764716L153.48660170523752,42.976941176470575L153.64190012180268,41.682352941176475L154.10779537149818,43.204705882352926L154.26309378806334,42.8458823529412L154.4183922046285,44.87082352941175L154.5736906211937,45.5529411764706L154.72898903775882,44.51858823529412L155.19488428745433,44.78517647058824L155.3501827040195,45.49717647058824L155.50548112058465,46.87058823529412L155.66077953714984,46.86541176470588L155.81607795371497,47.343529411764706L156.28197320341047,48.618352941176454L156.43727161997563,47.67976470588235L156.59257003654082,48.65552941176472L156.74786845310598,49.22235294117647L156.90316686967114,48.668235294117636L157.36906211936662,49.59317647058825L157.5243605359318,47.788235294117655L157.67965895249696,46.72141176470588L157.83495736906212,47.00776470588235L157.99025578562728,47.15929411764705L158.45615103532276,46.764235294117654L158.61144945188795,48.14964705882353L158.7667478684531,48.79764705882353L158.92204628501827,48.39058823529413L159.07734470158346,48.53411764705882L159.54323995127893,48.87764705882354L159.6985383678441,49.14682352941176L159.85383678440925,47.47694117647059L160.00913520097444,47.70588235294116L160.1644336175396,47.28705882352942L160.63032886723508,46.13576470588235L160.78562728380024,46.341882352941184L160.9409257003654,45.8635294117647L161.09622411693059,45.61529411764705L161.25152253349574,43.65388235294117L161.71741778319122,45.53741176470588L161.87271619975638,45.14964705882352L162.02801461632157,45.148941176470586L162.18331303288673,40.723529411764716L162.3386114494519,40.384L162.80450669914737,40L162.95980511571253,43.85905882352942L163.11510353227771,42.948470588235296L163.27040194884287,42.64870588235294L163.42570036540803,42.402117647058816L163.8915956151035,44.761882352941186L164.0468940316687,45.407294117647055L164.20219244823386,44.08211764705881L164.35749086479902,43.549176470588236L164.5127892813642,42.756470588235274L164.97868453105968,42.65482352941174L165.13398294762484,42.10423529411766L165.28928136419,44.45458823529411L165.44457978075516,44.77152941176472L165.59987819732035,45.19129411764705L166.06577344701583,45.13882352941175L166.221071863581,45.03835294117647L166.37637028014615,46.45905882352942L166.53166869671134,46.30823529411765L166.6869671132765,48.3209411764706L167.152862362972,51.73058823529412L167.30816077953713,52.56376470588235L167.46345919610232,49.09741176470587L167.61875761266748,49.89764705882352L167.77405602923264,49.25882352941177L168.23995127892815,49.63364705882353L168.39524969549328,50.718823529411765L168.55054811205846,51.2555294117647L168.70584652862362,51.8305882352941L168.86114494518878,50.85764705882352L169.3270401948843,51.81411764705882L169.48233861144945,52.576470588235296L169.6376370280146,52.97811764705882L169.79293544457977,53.58635294117647L169.94823386114496,50.5L170.41412911084046,51.412000000000006L170.5694275274056,51.96117647058824L170.72472594397075,53.244000000000014L170.8800243605359,55.65929411764705L171.0353227771011,55.00211764705884L171.5012180267966,53.78894117647059L171.65651644336177,53.75058823529412L171.8118148599269,54.65811764705883L171.96711327649209,55.552470588235295L172.12241169305724,55.110117647058814L172.58830694275275,54.40517647058823L172.7436053593179,55.512941176470605L172.89890377588307,55.25976470588235L173.05420219244823,54.38188235294116L173.2095006090134,55.04282352941178L173.6753958587089,55.17176470588235L173.83069427527406,55.82635294117647L173.98599269183921,55.20423529411764L174.14129110840437,53.31717647058824L174.29658952496953,54.40658823529412L174.76248477466504,54.32658823529411L174.91778319123023,53.66870588235294L175.0730816077954,53.78447058823531L175.22838002436052,55.50447058823529L175.3836784409257,56.46423529411766L175.84957369062118,56.6289411764706L176.00487210718637,55.324705882352944L176.16017052375153,56.05270588235295L176.31546894031666,56.65411764705884L176.47076735688185,58.08988235294118L176.93666260657736,58.9329411764706L177.09196102314252,61.035294117647055L177.24725943970768,60.67929411764705L177.40255785627284,59.72847058823529L177.557856272838,58.13764705882353L178.0237515225335,58.87388235294117L178.17904993909866,60.17929411764706L178.33434835566382,58.719764705882355L178.489646772229,59.354588235294116L178.64494518879414,57.8844705882353L179.11084043848965,58.524235294117645L179.2661388550548,57.930823529411775L179.42143727162,58.07176470588236L179.57673568818515,56.81058823529412L179.73203410475028,58.265882352941176L180.1979293544458,58.20941176470587L180.35322777101098,58.37835294117647L180.50852618757614,56.69647058823529L180.6638246041413,55.81294117647059L180.81912302070643,56.51176470588236L181.28501827040193,56.92564705882352L181.44031668696712,55.99270588235295L181.59561510353228,57.736941176470594L181.75091352009744,59.2750588235294L181.90621193666263,60.74894117647059L182.3721071863581,60.38894117647059L182.52740560292327,59.55388235294118L182.68270401948843,59.402352941176474L182.8380024360536,60.350588235294126L182.99330085261877,61.330823529411774L183.45919610231425,61.47647058823529L183.6144945188794,61.06047058823529L183.76979293544457,62.070588235294125L183.92509135200976,63.28541176470588L184.08038976857492,62.95364705882352L184.5462850182704,63.29741176470589L184.70158343483556,63.5084705882353L184.85688185140074,62.707058823529415L185.0121802679659,62.80399999999999L185.16747868453106,60.55294117647058L185.63337393422654,60.77223529411765L185.7886723507917,61.263999999999996L185.9439707673569,62.103764705882355L186.09926918392205,62.86188235294117L186.2545676004872,63.097647058823526L186.72046285018268,63.73905882352942L186.87576126674787,62.91905882352941L187.03105968331303,62.22682352941176L187.1863580998782,63.17694117647059L187.34165651644338,61.958352941176486L187.80755176613886,63.96141176470587L187.96285018270402,63.204941176470584L188.11814859926918,60.874352941176475L188.27344701583434,61.08917647058823L188.42874543239952,61.34588235294118L188.894640682095,61.19576470588236L189.04993909866016,61.08400000000001L189.20523751522532,60.28399999999999L189.3605359317905,57.92023529411766L189.51583434835567,58.97223529411765L189.98172959805115,58.09529411764706L190.1370280146163,57.84776470588234L190.2923264311815,60.091529411764704L190.44762484774665,61.01176470588235L190.6029232643118,60.972L191.0688185140073,62.66611764705882L191.22411693057245,62.160235294117655L191.37941534713764,60.90070588235295L191.5347137637028,59.886117647058825L191.69001218026796,61.42941176470589L192.15590742996346,62.0315294117647L192.31120584652862,62.77129411764705L192.46650426309378,62.38305882352941L192.62180267965894,61.438352941176475L192.77710109622413,62.318588235294115L193.24299634591964,62.34611764705883L193.39829476248477,62.19270588235294L193.55359317904993,62.07717647058824L193.70889159561509,62.57647058823529L193.86419001218027,62.034588235294116L194.33008526187578,62.07905882352941L194.4853836784409,62.357882352941175L194.64068209500607,60.95882352941177L194.79598051157126,61.38258823529412L194.95127892813642,61.08682352941177L195.41717417783192,61.02000000000001L195.57247259439708,61.185647058823534L195.72777101096224,60.24776470588235L195.8830694275274,59.177647058823524L196.03836784409256,59.694117647058825L196.50426309378807,57.70352941176471L196.65956151035323,55.096941176470594L196.8148599269184,53.45364705882352L196.97015834348355,54.14376470588235L197.1254567600487,55.40776470588234L197.5913520097442,56.90282352941176L197.7466504263094,55.478588235294126L197.90194884287453,55.87058823529412L198.0572472594397,55.48400000000001L198.21254567600488,56.771764705882354L198.67844092570036,55.94447058823529L198.83373934226555,55.457411764705896L198.9890377588307,54.148235294117654L199.14433617539584,53.79435294117647L199.29963459196102,53.21411764705881L199.76552984165653,53.54329411764705L199.9208282582217,52.18894117647059L200.07612667478685,54.16070588235293L200.231425091352,54.598352941176486L200.38672350791717,56.44023529411765L200.85261875761267,55.67270588235294L201.00791717417783,55.352941176470594L201.163215590743,56.506588235294124L201.31851400730815,56.704235294117645L201.4738124238733,55.62941176470588L201.93970767356882,54.05741176470589L202.09500609013398,54.35929411764705L202.25030450669917,55.4795294117647L202.40560292326433,55.22470588235295L202.56090133982946,55.156235294117664L203.02679658952496,54.640235294117645L203.18209500609015,53.30988235294117L203.3373934226553,52.79599999999999L203.49269183922047,53.30000000000001L203.6479902557856,54.19176470588236L204.1138855054811,54.04305882352941L204.2691839220463,54.43482352941176L204.42448233861145,53.91905882352941L204.5797807551766,53.823529411764696L204.73507917174177,54.496941176470585L205.20097442143728,54.3604705882353L205.35627283800244,54.80964705882353L205.5115712545676,55.568L205.6668696711328,55.956705882352935L205.82216808769795,56.58282352941176L206.28806333739342,56.128705882352946L206.44336175395858,56.294117647058826L206.59866017052374,56.325647058823535L206.75395858708893,56.088235294117645L206.9092570036541,57.42117647058825L207.37515225334957,57.780235294117645L207.53045066991473,56.88517647058824L207.68574908647992,57.610117647058814L207.84104750304508,58.74117647058825L207.99634591961023,60.048235294117646L208.4622411693057,59.22305882352942L208.6175395858709,59.933176470588236L208.77283800243606,60.29529411764707L208.92813641900122,61.432235294117646L209.08343483556638,60.307764705882356L209.54933008526186,60.660941176470594L209.70462850182705,59.60588235294119L209.8599269183922,58.96635294117647L210.01522533495736,59.98776470588234L210.17052375152255,59.92141176470588L210.63641900121803,58.58000000000001L210.7917174177832,58.55411764705883L210.94701583434835,58.36141176470589L211.10231425091354,59.01294117647059L211.2576126674787,59.993176470588246L211.72350791717417,59.88517647058824L211.87880633373933,59.202823529411766L212.0341047503045,58.34705882352941L212.18940316686968,59.01129411764706L212.34470158343484,59.871764705882356L212.81059683313032,59.143058823529415L212.96589524969548,58.96164705882354L213.12119366626067,59.59623529411765L213.27649208282583,59.461176470588235L213.43179049939098,58.47976470588237L213.89768574908646,58.138352941176464L214.05298416565162,58.882117647058834L214.2082825822168,59.262352941176474L214.36358099878197,59.49388235294117L214.51887941534713,60.37411764705882L214.9847746650426,60.54282352941176L215.1400730816078,60.350823529411755L215.29537149817295,60.06776470588234L215.4506699147381,60.51788235294118L215.6059683313033,60.01341176470588L216.0718635809988,59.90400000000001L216.22716199756394,59.652705882352954L216.3824604141291,59.401411764705884L216.53775883069426,59.18094117647058L216.69305724725945,58.59411764705884L217.15895249695495,58.89058823529412L217.31425091352008,58.01764705882352L217.46954933008524,58.38376470588235L217.62484774665043,58.37200000000001L217.7801461632156,56.337882352941186L218.2460414129111,58.17341176470589L218.40133982947623,55.58282352941177L218.55663824604142,55.91882352941177L218.71193666260658,55.79670588235294L218.86723507917173,56.095764705882345L219.33313032886724,55.53999999999999L219.4884287454324,53.026117647058825L219.64372716199756,53.608235294117634L219.79902557856272,54.84541176470589L219.95432399512788,56.40823529411765L220.4202192448234,55.576470588235296L220.57551766138857,56.11035294117646L220.7308160779537,57.849882352941165L220.88611449451886,57.750352941176466L221.04141291108405,57.767529411764706L221.50730816077953,57.65623529411765L221.66260657734472,57.837411764705884L221.81790499390985,57.32988235294118L221.973203410475,57.806588235294114L222.1285018270402,56.717411764705886L222.5943970767357,56.93811764705883L222.74969549330086,57.05200000000001L222.90499390986602,56.0089411764706L223.06029232643118,56.05905882352941L223.21559074299634,56.17200000000001L223.68148599269185,56.67552941176471L223.836784409257,55.95694117647059L223.99208282582217,57.44094117647059L224.14738124238733,56.784470588235294L224.30267965895248,57.031058823529406L224.768574908648,57.19011764705882L224.92387332521315,57.000235294117644L225.07917174177834,57.1035294117647L225.23447015834347,57.788000000000004L225.38976857490863,58.10188235294118L225.85566382460414,58.81999999999999L226.01096224116932,59.62894117647059L226.16626065773448,59.39058823529412L226.32155907429964,59.92635294117647L226.4768574908648,59.55552941176471L227.09805115712547,60.00376470588236L227.25334957369063,60.81976470588235L227.4086479902558,61.29176470588236L227.56394640682095,61.341882352941184L228.02984165651645,60.87882352941177L228.1851400730816,61.47788235294118L228.34043848964677,61.04776470588236L228.49573690621196,62.422117647058826L228.6510353227771,62.123529411764714L229.1169305724726,62.661647058823526L229.27222898903776,62.2569411764706L229.42752740560292,61.50682352941176L229.5828258221681,62.308L229.73812423873326,61.84117647058823L230.20401948842874,62.38988235294118L230.3593179049939,62.62823529411764L230.5146163215591,63.169411764705885L230.66991473812425,63.747058823529414L230.8252131546894,62.96470588235294L231.2911084043849,62.788L231.44640682095007,62.62776470588235L231.60170523751523,63.077176470588235L231.7570036540804,63.62376470588236L231.91230207064555,62.256235294117644L232.37819732034103,60.451529411764696L232.53349573690622,61.508705882352935L232.68879415347138,59.056235294117656L232.84409257003654,57.844941176470584L232.99939098660172,57.94917647058823L233.4652862362972,59.37905882352942L233.62058465286236,59.67670588235294L233.77588306942752,61.82211764705882L233.9311814859927,62.60658823529411L234.08647990255787,62.549882352941175L234.55237515225335,62.38305882352941L234.7076735688185,62.237647058823526L234.86297198538367,61.76470588235294L235.01827040194885,62.388941176470595L235.173568818514,63.223294117647065L235.6394640682095,64.37435294117645L235.79476248477465,62.83811764705883L235.95006090133984,62.703529411764706L236.105359317905,61.59670588235295L236.26065773447016,61.61435294117648L236.72655298416564,62.57764705882353L236.8818514007308,61.98235294117647L237.03714981729598,61.55223529411765L237.19244823386114,60.94423529411765L237.3477466504263,61.96447058823529L237.81364190012178,61.39411764705883L237.96894031668697,61.028L238.12423873325213,60.80117647058823L238.2795371498173,60.14588235294117L238.43483556638247,59.955294117647064L238.90073081607795,59.36000000000001L239.0560292326431,59.82305882352941L239.21132764920827,61.49199999999999L239.36662606577343,60.55670588235295L239.52192448233862,60.46752941176471L239.98781973203413,60.73811764705882L240.14311814859926,60.13788235294117L240.29841656516442,59.36447058823529L240.4537149817296,60.518352941176474L240.60901339829476,60.37411764705882L241.07490864799027,60.07270588235295L241.2302070645554,59.78L241.3855054811206,60.14588235294117L241.54080389768575,59.51788235294117L241.6961023142509,58.580941176470596L242.16199756394641,52.85647058823528L242.31729598051155,46.90682352941178L242.47259439707673,48.39858823529413L242.6278928136419,49.4884705882353L242.78319123020705,49.01529411764706L243.24908647990256,51.44635294117647L243.40438489646775,50.53694117647059L243.55968331303288,52.07341176470588L243.71498172959804,51.85905882352942L243.87028014616322,50.88047058823531L244.33617539585873,49.7L244.4914738124239,50.53482352941177L244.64677222898902,48.42964705882352L244.80207064555418,47.71952941176471L244.95736906211937,49.03694117647058L245.42326431181488,47.10847058823528L245.57856272838004,45.56658823529412L245.73386114494517,44.60235294117648L245.88915956151035,47.056705882352944L246.0444579780755,48.33552941176471L246.51035322777102,47.62729411764707" fill="none" stroke="#af516c" stroke-linejoin="round" stroke-linecap="round" stroke-width="2"></path></g></g></svg>