<svg xmlns="http://www.w3.org/2000/svg" viewBox="0 0 304 270"><style>/* <![CDATA[ */.chart-title{font-size:20px;fill:#43423e}.chart-subtitle{font-size:15px;fill:#74736c}.chart-source{font-size:10px;fill-opacity:.4}.axis .domain{fill:none;stroke:#74736c}.tick line{fill:none;stroke:#000;stroke-opacity:.2}.tick text{fill-opacity:.6;font-size:12px}.y.axis .tick line{stroke-dasharray:1}.y.axis .domain{fill:none;stroke-opacity:0}.y.axis .highlight-line{fill:none;stroke:#74736c}/* ]]> */</style><text class="chart-title" y="22">Russia GDP forecast</text><text class="chart-subtitle" y="42">By date of forecast, annual % change</text><text class="chart-source" y="265">来源:彭博. 2018年5月4日</text><g transform="translate(1,100)"><g class="x axis" transform="translate(0,120)" fill="none" font-size="10" font-family="sans-serif" text-anchor="middle"><path class="domain" stroke="#000" d="M0.5,0V0.5H255.5V0"></path><g class="tick" opacity="1" transform="translate(0.5,0)"><line stroke="#000" y2="6"></line><text fill="#000" y="9" dy="0.71em">July</text></g><g class="tick" opacity="1" transform="translate(32.636986301369866,0)"><line stroke="#000" y2="6"></line><text fill="#000" y="9" dy="0.71em">October</text></g><g class="tick" opacity="1" transform="translate(64.77397260273973,0)"><line stroke="#000" y2="6"></line><text fill="#000" y="9" dy="0.71em">2017</text></g><g class="tick" opacity="1" transform="translate(96.2123287671233,0)"><line stroke="#000" y2="6"></line><text fill="#000" y="9" dy="0.71em">April</text></g><g class="tick" opacity="1" transform="translate(128,0)"><line stroke="#000" y2="6"></line><text fill="#000" y="9" dy="0.71em">July</text></g><g class="tick" opacity="1" transform="translate(160.13698630136986,0)"><line stroke="#000" y2="6"></line><text fill="#000" y="9" dy="0.71em">October</text></g><g class="tick" opacity="1" transform="translate(192.27397260273972,0)"><line stroke="#000" y2="6"></line><text fill="#000" y="9" dy="0.71em">2018</text></g><g class="tick" opacity="1" transform="translate(223.7123287671233,0)"><line stroke="#000" y2="6"></line><text fill="#000" y="9" dy="0.71em">April</text></g><g class="tick" opacity="1" transform="translate(255.5,0)"><line stroke="#000" y2="6"></line><text fill="#000" y="9" dy="0.71em">July</text></g></g><g class="y axis" transform="translate(255,0)" fill="none" font-size="10" font-family="sans-serif" text-anchor="start"><path class="domain" stroke="#000" d="M0,120.5H0.5V0.5H0"></path><g class="tick" opacity="1" transform="translate(0,120.5)"><line stroke="#000" x2="-255"></line><text fill="#000" x="3" dy="0.32em">1.0</text></g><g class="tick" opacity="1" transform="translate(0,96.5)"><line stroke="#000" x2="-255"></line><text fill="#000" x="3" dy="0.32em">1.2</text></g><g class="tick" opacity="1" transform="translate(0,72.50000000000001)"><line stroke="#000" x2="-255"></line><text fill="#000" x="3" dy="0.32em">1.4</text></g><g class="tick" opacity="1" transform="translate(0,48.499999999999986)"><line stroke="#000" x2="-255"></line><text fill="#000" x="3" dy="0.32em">1.6</text></g><g class="tick" opacity="1" transform="translate(0,24.5)"><line stroke="#000" x2="-255"></line><text fill="#000" x="3" dy="0.32em">1.8</text></g><g class="tick" opacity="1" transform="translate(0,0.5)"><line stroke="#000" x2="-255"></line><text fill="#000" x="3" dy="0.32em">2.0</text></g></g><g class="chart-key" transform="translate(0, -35)"><g class="key-element" transform="translate(0,0)"><text x="28" font-size="12">2017</text><line x1="0" x2="25" y1="-5" y2="-5" stroke-width="2" fill="none" stroke="#af516c"></line></g><g class="key-element" transform="translate(0,20)"><text x="28" font-size="12">2018</text><line x1="0" x2="25" y1="-5" y2="-5" stroke-width="2" fill="none" stroke="#76acb8"></line></g></g><g><path d="M21.773972602739725,84L22.123287671232877,84L23.17123287671233,84L23.52054794520548,84L23.86986301369863,84L24.21917808219178,84L24.56849315068493,84L25.616438356164384,84L25.965753424657535,84L26.315068493150683,84L26.664383561643838,84L27.013698630136986,84L28.061643835616437,84L28.41095890410959,84L28.76027397260274,84L29.109589041095887,84L29.458904109589042,84L30.506849315068493,84L30.85616438356164,84L31.205479452054796,84L31.554794520547944,90L31.9041095890411,90L32.95205479452054,90L33.301369863013704,90L33.65068493150685,90L34,90L34.34931506849315,90L35.397260273972606,90L35.74657534246575,90L36.0958904109589,90L36.44520547945205,90L36.794520547945204,90L37.842465753424655,90L38.1917808219178,90L38.54109589041096,90L38.89041095890411,90L39.23972602739726,90L40.28767123287671,90L40.636986301369866,84L40.986301369863014,84L41.33561643835616,96L41.68493150684932,96L42.73287671232877,96L43.082191780821915,96L43.43150684931507,96L43.78082191780822,96L44.13013698630137,96L45.178082191780824,96L45.52739726027397,96L45.87671232876713,96L46.226027397260275,96L46.57534246575342,96L47.62328767123288,96L47.97260273972603,96L48.321917808219176,96L48.67123287671233,96L49.02054794520548,96L50.06849315068493,96L50.417808219178085,96L50.76712328767123,96L51.11643835616438,96L51.465753424657535,96L52.513698630136986,96L52.863013698630134,96L53.21232876712329,96L53.56164383561644,96L53.91095890410959,96L54.95890410958904,84L55.30821917808219,84L55.657534246575345,84L56.00684931506849,90L56.35616438356164,96L57.4041095890411,96L57.75342465753425,96L58.102739726027394,96L58.45205479452055,96L58.8013698630137,96L59.84931506849315,96L60.1986301369863,96L60.54794520547945,96L60.897260273972606,107.99999999999999L61.24657534246575,107.99999999999999L62.294520547945204,107.99999999999999L62.64383561643836,107.99999999999999L62.99315068493151,107.99999999999999L63.342465753424655,107.99999999999999L63.6917808219178,107.99999999999999L64.73972602739725,107.99999999999999L65.08904109589042,107.99999999999999L65.43835616438356,107.99999999999999L65.78767123287672,107.99999999999999L66.13698630136986,107.99999999999999L67.18493150684931,107.99999999999999L67.53424657534246,107.99999999999999L67.8835616438356,107.99999999999999L68.23287671232876,107.99999999999999L68.58219178082193,107.99999999999999L69.63013698630137,107.99999999999999L69.97945205479452,107.99999999999999L70.32876712328768,107.99999999999999L70.67808219178082,107.99999999999999L71.02739726027397,107.99999999999999L72.07534246575344,107.99999999999999L72.42465753424658,107.99999999999999L72.77397260273973,107.99999999999999L73.12328767123287,107.99999999999999L73.47260273972603,107.99999999999999L74.52054794520548,102.00000000000001L74.86986301369862,102.00000000000001L75.21917808219177,107.99999999999999L75.56849315068494,107.99999999999999L75.91780821917808,102.00000000000001L76.96575342465754,102.00000000000001L77.31506849315069,102.00000000000001L77.66438356164383,102.00000000000001L78.01369863013699,107.99999999999999L78.36301369863013,107.99999999999999L79.41095890410959,107.99999999999999L79.76027397260275,107.99999999999999L80.10958904109589,107.99999999999999L80.45890410958904,102.00000000000001L80.8082191780822,102.00000000000001L81.85616438356163,102.00000000000001L82.2054794520548,102.00000000000001L82.55479452054794,102.00000000000001L82.9041095890411,107.99999999999999L83.25342465753425,107.99999999999999L84.30136986301369,107.99999999999999L84.65068493150685,107.99999999999999L85,107.99999999999999L85.34931506849314,107.99999999999999L85.69863013698631,107.99999999999999L86.74657534246576,107.99999999999999L87.0958904109589,107.99999999999999L87.44520547945206,107.99999999999999L87.7945205479452,107.99999999999999L88.14383561643835,107.99999999999999L89.19178082191782,107.99999999999999L89.54109589041096,107.99999999999999L89.89041095890411,107.99999999999999L90.23972602739727,107.99999999999999L90.58904109589041,107.99999999999999L91.63698630136986,107.99999999999999L91.98630136986301,107.99999999999999L92.33561643835615,107.99999999999999L92.68493150684932,107.99999999999999L93.03424657534246,107.99999999999999L94.08219178082192,107.99999999999999L94.43150684931507,107.99999999999999L94.78082191780821,102.00000000000001L95.13013698630137,96L95.47945205479452,96L96.52739726027397,96L96.87671232876713,96L97.22602739726028,96L97.57534246575342,96L97.92465753424658,96L98.97260273972603,96L99.32191780821917,96L99.67123287671234,96L100.02054794520548,96L100.36986301369863,96L101.41780821917808,96L101.76712328767123,96L102.11643835616438,96L102.46575342465754,96L102.81506849315069,96L103.86301369863014,96L104.2123287671233,96L104.56164383561644,96L104.91095890410959,96L105.26027397260273,96L106.3082191780822,96L106.65753424657535,96L107.0068493150685,96L107.35616438356165,96L107.70547945205479,96L108.75342465753424,96L109.1027397260274,96L109.45205479452054,96L109.8013698630137,96L110.15068493150686,96L111.1986301369863,96L111.54794520547945,96L111.8972602739726,96L112.24657534246575,96L112.5958904109589,96L113.64383561643837,96L113.9931506849315,96L114.34246575342466,96L114.6917808219178,96L115.04109589041096,96L116.08904109589041,96L116.43835616438355,96L116.78767123287672,96L117.13698630136987,96L117.48630136986301,96L118.53424657534246,96L118.88356164383562,96L119.23287671232876,96L119.58219178082192,96L119.93150684931506,96L120.97945205479452,96L121.32876712328768,96L121.67808219178082,96L122.02739726027397,96L122.37671232876713,96L123.42465753424656,96L123.77397260273973,96L124.12328767123289,96L124.47260273972603,96L124.82191780821918,96L125.86986301369863,96L126.21917808219177,96L126.56849315068493,96L126.91780821917807,96L127.26712328767124,96L128.31506849315068,84L128.66438356164386,84L129.013698630137,84L129.36301369863014,84L129.7123287671233,84L130.76027397260273,84L131.1095890410959,84L131.45890410958904,84L131.80821917808217,84L132.15753424657535,84L133.20547945205482,84L133.55479452054794,84L133.9041095890411,84L134.25342465753423,84L134.6027397260274,84L135.65068493150687,84L136,84L136.34931506849315,84L136.6986301369863,84L137.04794520547946,84L138.0958904109589,84L138.44520547945206,84L138.79452054794518,84L139.14383561643837,84L139.49315068493152,84L140.54109589041096,72.00000000000001L140.8904109589041,72.00000000000001L141.23972602739724,72.00000000000001L141.58904109589042,72.00000000000001L141.93835616438355,72.00000000000001L142.986301369863,72.00000000000001L143.33561643835617,72.00000000000001L143.68493150684932,72.00000000000001L144.03424657534248,72.00000000000001L144.3835616438356,72.00000000000001L145.43150684931507,72.00000000000001L145.7808219178082,72.00000000000001L146.13013698630138,72.00000000000001L146.47945205479454,72.00000000000001L146.82876712328766,72.00000000000001L147.87671232876713,72.00000000000001L148.22602739726025,72.00000000000001L148.57534246575344,72.00000000000001L148.92465753424656,60L149.27397260273972,60L150.32191780821918,60L150.6712328767123,60L151.0205479452055,60L151.36986301369862,60L151.71917808219177,54L152.7671232876712,54L153.1164383561644,54L153.46575342465755,54L153.81506849315068,47.999999999999986L154.16438356164383,47.999999999999986L155.21232876712327,47.999999999999986L155.56164383561645,47.999999999999986L155.91095890410958,47.999999999999986L156.26027397260273,47.999999999999986L156.60958904109592,47.999999999999986L157.65753424657532,47.999999999999986L158.0068493150685,47.999999999999986L158.35616438356163,47.999999999999986L158.7054794520548,36L159.05479452054794,36L160.1027397260274,36L160.45205479452056,36L160.8013698630137,36L161.15068493150685,36L161.5,36L162.54794520547946,30L162.8972602739726,30L163.24657534246575,30L163.59589041095893,30L163.94520547945206,24L164.99315068493152,24L165.34246575342465,24L165.6917808219178,24L166.04109589041096,24L166.3904109589041,24L167.43835616438358,24L167.7876712328767,24L168.13698630136986,24L168.486301369863,24L168.83561643835617,24L169.8835616438356,24L170.23287671232876,24L170.58219178082192,24L170.93150684931507,24L171.28082191780823,24L172.32876712328766,24L172.67808219178082,24L173.02739726027397,24L173.37671232876713,24L173.72602739726028,24L174.77397260273972,17.999999999999986L175.12328767123287,17.999999999999986L175.47260273972603,17.999999999999986L175.82191780821918,17.999999999999986L176.1712328767123,17.999999999999986L177.21917808219177,17.999999999999986L177.56849315068493,17.999999999999986L177.91780821917808,17.999999999999986L178.26712328767124,17.999999999999986L178.61643835616437,17.999999999999986L179.66438356164383,24L180.013698630137,24L180.36301369863014,24L180.7123287671233,24L181.06164383561642,24L182.1095890410959,24L182.45890410958904,24L182.8082191780822,24L183.15753424657532,24L183.5068493150685,24L184.55479452054794,24L184.9041095890411,24L185.25342465753425,24L185.60273972602738,24L185.95205479452056,24L187,24L187.34931506849315,24L187.6986301369863,24L188.04794520547944,24L188.39726027397262,24L189.44520547945206,24L189.7945205479452,24L190.14383561643834,24L190.49315068493152,24L190.84246575342468,24L191.8904109589041,24L192.23972602739727,24L192.5890410958904,24L192.93835616438358,24L193.2876712328767,24L194.33561643835617,24L194.68493150684932,24L195.03424657534245,24L195.38356164383563,24L195.73287671232876,24L196.78082191780823,24L197.13013698630135,24L197.4794520547945,24L197.8287671232877,24L198.17808219178082,24L199.22602739726028,24L199.5753424657534,24L199.9246575342466,24L200.27397260273972,24L200.62328767123287,24L201.67123287671234,30L202.02054794520546,30L202.36986301369865,36L202.71917808219177,36L203.06849315068493,36L204.11643835616437,36L204.46575342465752,36L204.8150684931507,36L205.16438356164383,36L205.513698630137,36L206.56164383561642,36L206.9109589041096,36L207.26027397260273,36L207.6095890410959,36L207.95890410958904,36L209.00684931506848,36L209.35616438356166,36L209.7054794520548,36L210.05479452054794,60L210.4041095890411,60L211.45205479452054,60L211.80136986301372,60L212.15068493150685,60L212.5,60L212.84931506849315,60L213.89726027397262,60L214.24657534246575,60L214.5958904109589,60L214.94520547945206,60L215.2945205479452,60L216.34246575342468,60L216.6917808219178,60L217.04109589041096,60L217.3904109589041,60L217.73972602739727,60L218.78767123287673,60L219.13698630136986,60L219.486301369863,60L219.83561643835617,60L220.18493150684932,60L221.23287671232876,60L221.58219178082192,60L221.93150684931507,60L222.28082191780823,60L222.63013698630138,60" fill="none" stroke="#af516c" stroke-linejoin="round" stroke-linecap="round" stroke-width="2"></path><path d="M21.773972602739725,60L22.123287671232877,60L23.17123287671233,60L23.52054794520548,60L23.86986301369863,60L24.21917808219178,60L24.56849315068493,60L25.616438356164384,60L25.965753424657535,60L26.315068493150683,60L26.664383561643838,60L27.013698630136986,60L28.061643835616437,60L28.41095890410959,60L28.76027397260274,60L29.109589041095887,60L29.458904109589042,60L30.506849315068493,60L30.85616438356164,60L31.205479452054796,60L31.554794520547944,60L31.9041095890411,60L32.95205479452054,60L33.301369863013704,60L33.65068493150685,60L34,60L34.34931506849315,60L35.397260273972606,60L35.74657534246575,60L36.0958904109589,60L36.44520547945205,60L36.794520547945204,60L37.842465753424655,60L38.1917808219178,60L38.54109589041096,60L38.89041095890411,60L39.23972602739726,60L40.28767123287671,60L40.636986301369866,60L40.986301369863014,60L41.33561643835616,60L41.68493150684932,60L42.73287671232877,60L43.082191780821915,60L43.43150684931507,60L43.78082191780822,60L44.13013698630137,60L45.178082191780824,60L45.52739726027397,60L45.87671232876713,60L46.226027397260275,60L46.57534246575342,60L47.62328767123288,60L47.97260273972603,60L48.321917808219176,60L48.67123287671233,60L49.02054794520548,60L50.06849315068493,60L50.417808219178085,60L50.76712328767123,60L51.11643835616438,60L51.465753424657535,60L52.513698630136986,60L52.863013698630134,60L53.21232876712329,60L53.56164383561644,60L53.91095890410959,60L54.95890410958904,60L55.30821917808219,60L55.657534246575345,60L56.00684931506849,60L56.35616438356164,60L57.4041095890411,60L57.75342465753425,60L58.102739726027394,60L58.45205479452055,60L58.8013698630137,60L59.84931506849315,60L60.1986301369863,60L60.54794520547945,60L60.897260273972606,60L61.24657534246575,60L62.294520547945204,60L62.64383561643836,60L62.99315068493151,60L63.342465753424655,60L63.6917808219178,60L64.73972602739725,60L65.08904109589042,60L65.43835616438356,60L65.78767123287672,60L66.13698630136986,60L67.18493150684931,60L67.53424657534246,60L67.8835616438356,60L68.23287671232876,60L68.58219178082193,60L69.63013698630137,60L69.97945205479452,60L70.32876712328768,60L70.67808219178082,60L71.02739726027397,60L72.07534246575344,60L72.42465753424658,60L72.77397260273973,60L73.12328767123287,60L73.47260273972603,60L74.52054794520548,60L74.86986301369862,60L75.21917808219177,60L75.56849315068494,60L75.91780821917808,60L76.96575342465754,60L77.31506849315069,60L77.66438356164383,60L78.01369863013699,60L78.36301369863013,60L79.41095890410959,60L79.76027397260275,60L80.10958904109589,60L80.45890410958904,60L80.8082191780822,60L81.85616438356163,60L82.2054794520548,60L82.55479452054794,60L82.9041095890411,60L83.25342465753425,60L84.30136986301369,60L84.65068493150685,60L85,60L85.34931506849314,60L85.69863013698631,60L86.74657534246576,60L87.0958904109589,60L87.44520547945206,60L87.7945205479452,60L88.14383561643835,60L89.19178082191782,60L89.54109589041096,60L89.89041095890411,60L90.23972602739727,60L90.58904109589041,60L91.63698630136986,60L91.98630136986301,60L92.33561643835615,60L92.68493150684932,60L93.03424657534246,60L94.08219178082192,60L94.43150684931507,60L94.78082191780821,60L95.13013698630137,60L95.47945205479452,60L96.52739726027397,54L96.87671232876713,54L97.22602739726028,54L97.57534246575342,54L97.92465753424658,54L98.97260273972603,54L99.32191780821917,54L99.67123287671234,54L100.02054794520548,54L100.36986301369863,54L101.41780821917808,54L101.76712328767123,54L102.11643835616438,54L102.46575342465754,54L102.81506849315069,47.999999999999986L103.86301369863014,47.999999999999986L104.2123287671233,47.999999999999986L104.56164383561644,47.999999999999986L104.91095890410959,60L105.26027397260273,60L106.3082191780822,60L106.65753424657535,60L107.0068493150685,60L107.35616438356165,60L107.70547945205479,60L108.75342465753424,60L109.1027397260274,60L109.45205479452054,60L109.8013698630137,60L110.15068493150686,60L111.1986301369863,60L111.54794520547945,60L111.8972602739726,60L112.24657534246575,60L112.5958904109589,60L113.64383561643837,60L113.9931506849315,60L114.34246575342466,60L114.6917808219178,60L115.04109589041096,60L116.08904109589041,60L116.43835616438355,60L116.78767123287672,60L117.13698630136987,60L117.48630136986301,60L118.53424657534246,47.999999999999986L118.88356164383562,47.999999999999986L119.23287671232876,47.999999999999986L119.58219178082192,47.999999999999986L119.93150684931506,47.999999999999986L120.97945205479452,54L121.32876712328768,54L121.67808219178082,54L122.02739726027397,54L122.37671232876713,54L123.42465753424656,54L123.77397260273973,54L124.12328767123289,54L124.47260273972603,54L124.82191780821918,54L125.86986301369863,54L126.21917808219177,54L126.56849315068493,54L126.91780821917807,60L127.26712328767124,60L128.31506849315068,60L128.66438356164386,60L129.013698630137,60L129.36301369863014,60L129.7123287671233,60L130.76027397260273,60L131.1095890410959,60L131.45890410958904,60L131.80821917808217,60L132.15753424657535,60L133.20547945205482,60L133.55479452054794,60L133.9041095890411,60L134.25342465753423,60L134.6027397260274,60L135.65068493150687,60L136,60L136.34931506849315,60L136.6986301369863,60L137.04794520547946,60L138.0958904109589,60L138.44520547945206,60L138.79452054794518,60L139.14383561643837,60L139.49315068493152,60L140.54109589041096,60L140.8904109589041,60L141.23972602739724,60L141.58904109589042,60L141.93835616438355,60L142.986301369863,60L143.33561643835617,60L143.68493150684932,60L144.03424657534248,60L144.3835616438356,60L145.43150684931507,60L145.7808219178082,60L146.13013698630138,60L146.47945205479454,60L146.82876712328766,60L147.87671232876713,60L148.22602739726025,60L148.57534246575344,60L148.92465753424656,47.999999999999986L149.27397260273972,47.999999999999986L150.32191780821918,47.999999999999986L150.6712328767123,47.999999999999986L151.0205479452055,47.999999999999986L151.36986301369862,47.999999999999986L151.71917808219177,47.999999999999986L152.7671232876712,47.999999999999986L153.1164383561644,47.999999999999986L153.46575342465755,47.999999999999986L153.81506849315068,47.999999999999986L154.16438356164383,47.999999999999986L155.21232876712327,47.999999999999986L155.56164383561645,47.999999999999986L155.91095890410958,47.999999999999986L156.26027397260273,47.999999999999986L156.60958904109592,42.000000000000014L157.65753424657532,42.000000000000014L158.0068493150685,42.000000000000014L158.35616438356163,36L158.7054794520548,36L159.05479452054794,36L160.1027397260274,36L160.45205479452056,36L160.8013698630137,36L161.15068493150685,36L161.5,36L162.54794520547946,36L162.8972602739726,36L163.24657534246575,36L163.59589041095893,36L163.94520547945206,36L164.99315068493152,36L165.34246575342465,36L165.6917808219178,36L166.04109589041096,36L166.3904109589041,36L167.43835616438358,36L167.7876712328767,36L168.13698630136986,36L168.486301369863,24L168.83561643835617,24L169.8835616438356,24L170.23287671232876,24L170.58219178082192,24L170.93150684931507,24L171.28082191780823,24L172.32876712328766,24L172.67808219178082,24L173.02739726027397,24L173.37671232876713,24L173.72602739726028,24L174.77397260273972,24L175.12328767123287,24L175.47260273972603,24L175.82191780821918,24L176.1712328767123,24L177.21917808219177,24L177.56849315068493,24L177.91780821917808,24L178.26712328767124,24L178.61643835616437,24L179.66438356164383,17.999999999999986L180.013698630137,17.999999999999986L180.36301369863014,17.999999999999986L180.7123287671233,17.999999999999986L181.06164383561642,17.999999999999986L182.1095890410959,24L182.45890410958904,24L182.8082191780822,24L183.15753424657532,24L183.5068493150685,24L184.55479452054794,24L184.9041095890411,24L185.25342465753425,24L185.60273972602738,24L185.95205479452056,24L187,24L187.34931506849315,24L187.6986301369863,24L188.04794520547944,12.000000000000014L188.39726027397262,12.000000000000014L189.44520547945206,12.000000000000014L189.7945205479452,12.000000000000014L190.14383561643834,12.000000000000014L190.49315068493152,12.000000000000014L190.84246575342468,12.000000000000014L191.8904109589041,12.000000000000014L192.23972602739727,12.000000000000014L192.5890410958904,17.999999999999986L192.93835616438358,17.999999999999986L193.2876712328767,17.999999999999986L194.33561643835617,17.999999999999986L194.68493150684932,17.999999999999986L195.03424657534245,17.999999999999986L195.38356164383563,17.999999999999986L195.73287671232876,17.999999999999986L196.78082191780823,17.999999999999986L197.13013698630135,17.999999999999986L197.4794520547945,17.999999999999986L197.8287671232877,17.999999999999986L198.17808219178082,17.999999999999986L199.22602739726028,17.999999999999986L199.5753424657534,17.999999999999986L199.9246575342466,17.999999999999986L200.27397260273972,12.000000000000014L200.62328767123287,12.000000000000014L201.67123287671234,12.000000000000014L202.02054794520546,12.000000000000014L202.36986301369865,12.000000000000014L202.71917808219177,12.000000000000014L203.06849315068493,12.000000000000014L204.11643835616437,12.000000000000014L204.46575342465752,12.000000000000014L204.8150684931507,12.000000000000014L205.16438356164383,12.000000000000014L205.513698630137,12.000000000000014L206.56164383561642,12.000000000000014L206.9109589041096,12.000000000000014L207.26027397260273,12.000000000000014L207.6095890410959,12.000000000000014L207.95890410958904,12.000000000000014L209.00684931506848,12.000000000000014L209.35616438356166,12.000000000000014L209.7054794520548,12.000000000000014L210.05479452054794,24L210.4041095890411,24L211.45205479452054,24L211.80136986301372,24L212.15068493150685,24L212.5,24L212.84931506849315,24L213.89726027397262,24L214.24657534246575,24L214.5958904109589,24L214.94520547945206,24L215.2945205479452,24L216.34246575342468,24L216.6917808219178,24L217.04109589041096,24L217.3904109589041,24L217.73972602739727,24L218.78767123287673,24L219.13698630136986,24L219.486301369863,24L219.83561643835617,24L220.18493150684932,17.999999999999986L221.23287671232876,17.999999999999986L221.58219178082192,17.999999999999986L221.93150684931507,17.999999999999986L222.28082191780823,24L222.63013698630138,24L223.67808219178082,12.000000000000014L224.02739726027397,12.000000000000014L224.3767123287671,12.000000000000014L224.72602739726028,12.000000000000014L225.0753424657534,12.000000000000014L226.12328767123287,12.000000000000014L226.47260273972603,12.000000000000014L226.82191780821918,12.000000000000014L227.17123287671234,12.000000000000014L227.52054794520546,12.000000000000014L228.56849315068493,12.000000000000014L228.91780821917808,12.000000000000014L229.26712328767124,12.000000000000014L229.6164383561644,12.000000000000014L229.96575342465752,12.000000000000014L231.013698630137,12.000000000000014L231.3630136986301,12.000000000000014L231.7123287671233,12.000000000000014L232.06164383561645,24L232.41095890410958,24L233.45890410958904,24L233.8082191780822,24L234.15753424657535,24L234.50684931506848,24L234.85616438356163,24" fill="none" stroke="#76acb8" stroke-linejoin="round" stroke-linecap="round" stroke-width="2"></path></g></g></svg>