<svg xmlns="http://www.w3.org/2000/svg" viewBox="0 0 304 270"><style>/* <![CDATA[ */.chart-title{font-size:20px;fill:#43423e}.chart-subtitle{font-size:15px;fill:#74736c}.chart-source{font-size:10px;fill-opacity:.4}.axis .domain{fill:none;stroke:#74736c}.tick line{fill:none;stroke:#000;stroke-opacity:.2}.tick text{fill-opacity:.6;font-size:12px}.y.axis .tick line{stroke-dasharray:1}.y.axis .domain{fill:none;stroke-opacity:0}.y.axis .highlight-line{fill:none;stroke:#74736c}/* ]]> */</style><text class="chart-title" y="22">Russian national wealth funds</text><text class="chart-subtitle" y="42">10亿美元</text><text class="chart-source" y="265">来源:彭博. 2018年1月10日</text><g transform="translate(1,100)"><g class="x axis" transform="translate(0,120)" fill="none" font-size="10" font-family="sans-serif" text-anchor="middle"><path class="domain" stroke="#000" d="M0.5,0V0.5H255.5V0"></path><g class="tick" opacity="1" transform="translate(0.5,0)"><line stroke="#000" y2="6"></line><text fill="#000" y="9" dy="0.71em">2008</text></g><g class="tick" opacity="1" transform="translate(46.89248382279741,0)"><line stroke="#000" y2="6"></line><text fill="#000" y="9" dy="0.71em">2010</text></g><g class="tick" opacity="1" transform="translate(93.22150323544051,0)"><line stroke="#000" y2="6"></line><text fill="#000" y="9" dy="0.71em">2012</text></g><g class="tick" opacity="1" transform="translate(139.6139870582379,0)"><line stroke="#000" y2="6"></line><text fill="#000" y="9" dy="0.71em">2014</text></g><g class="tick" opacity="1" transform="translate(185.94300647088102,0)"><line stroke="#000" y2="6"></line><text fill="#000" y="9" dy="0.71em">2016</text></g><g class="tick" opacity="1" transform="translate(232.33549029367845,0)"><line stroke="#000" y2="6"></line><text fill="#000" y="9" dy="0.71em">2018</text></g></g><g class="y axis" transform="translate(255,0)" fill="none" font-size="10" font-family="sans-serif" text-anchor="start"><path class="domain" stroke="#000" d="M0,120.5H0.5V0.5H0"></path><g class="tick" opacity="1" transform="translate(0,120.5)"><line stroke="#000" x2="-255"></line><text fill="#000" x="3" dy="0.32em">0</text></g><g class="tick" opacity="1" transform="translate(0,78.54195804195805)"><line stroke="#000" x2="-255"></line><text fill="#000" x="3" dy="0.32em">50</text></g><g class="tick" opacity="1" transform="translate(0,36.583916083916094)"><line stroke="#000" x2="-255"></line><text fill="#000" x="3" dy="0.32em">100</text></g><line class="highlight-line" x1="0" y1="120" x2="-255" y2="120"></line></g><g class="chart-key" transform="translate(0, -35)"><g class="key-element" transform="translate(0,0)"><text x="28" font-size="12">Wellbeing Fund</text><line x1="0" x2="25" y1="-5" y2="-5" stroke-width="2" fill="none" stroke="#af516c"></line></g><g class="key-element" transform="translate(0,20)"><text x="28" font-size="12">Reserve Fund</text><line x1="0" x2="25" y1="-5" y2="-5" stroke-width="2" fill="none" stroke="#76acb8"></line></g></g><g><path d="M1.9250871080139373,93.14685314685315L3.7655550024888007,92.96223776223776L5.732951717272274,92.3916083916084L7.636884021901443,92.54265734265735L9.604280736684919,92.64335664335664L11.508213041314086,92.43356643356643L13.475609756097562,92.56783216783217L15.443006470881036,93.21398601398602L17.346938775510207,79.14965034965036L19.31433549029368,67.28391608391608L21.21826779492285,55.904895104895104L23.18566450970632,46.17902097902099L25.153061224489797,49.11608391608392L26.930064708810352,49.62797202797202L28.897461423593825,48.075524475524475L30.801393728222997,47.58041958041957L32.768790443006466,44.593006993006995L34.67272274763564,44.534265734265716L36.640119462419115,44.458741258741256L38.60751617720259,43.8965034965035L40.51144848183176,42.914685314685315L42.47884519661523,41.63916083916085L44.3827775012444,42.05034965034966L46.350174216027874,43.16643356643357L48.31757093081135,43.946853146853144L50.0945744151319,44.786013986013984L52.06197112991538,44.82797202797204L53.96590343454455,45.45734265734265L55.933300149328026,48L57.83723245395719,48.27692307692308L59.80462916874067,45.95244755244755L61.772025883524144,46.892307692307696L63.67595818815331,44.86153846153846L65.64335490293678,44.40839160839161L67.54728720756596,45.969230769230776L69.51468392234942,45.78461538461539L71.4820806371329,44.34965034965035L73.25908412145345,43.686713286713285L75.22648083623695,42.96503496503496L77.1304131408661,40.83356643356643L79.09780985564957,42.34405594405594L81.00174216027875,42.209790209790214L82.96913887506221,42.209790209790214L84.9365355898457,42.26853146853148L86.84046789447486,45.57482517482518L88.80786460925833,43.476923076923086L90.71179691388751,45.93566433566433L92.67919362867097,47.169230769230765L94.64659034345446,45.87692307692308L96.48705823792932,44.60979020979022L98.4544549527128,44.89510489510491L100.35838725734196,45.13846153846154L102.32578397212544,48.268531468531464L104.2297162767546,48.13426573426574L106.19711299153808,48.4951048951049L108.16450970632155,47.958041958041974L110.06844201095072,46.48111888111889L112.0358387257342,46.83356643356643L113.93977103036336,46.5986013986014L115.90716774514684,45.65874125874126L117.87456445993031,45.13846153846154L119.65156794425087,46.48111888111889L121.61896465903435,47.194405594405595L123.52289696366351,46.76643356643358L125.49029367844699,47.22797202797203L127.39422598307615,47.43776223776223L129.36162269785964,47.076923076923066L131.3290194126431,47.18601398601399L133.23295171727227,46.12867132867133L135.20034843205573,45.532867132867125L137.10428073668493,46.1034965034965L139.0716774514684,45.62517482517484L141.03907416625188,46.66573426573426L142.81607765057242,46.78321678321679L144.7834743653559,46.57342657342657L146.68740666998508,46.47272727272727L148.65480338476854,46.72447552447552L150.5587356893977,46.204195804195805L152.52613240418117,47.44615384615385L154.49352911896466,48.41118881118881L156.39746142359382,50.18181818181819L158.36485813837731,51.406993006993005L160.26879044300648,52.892307692307696L162.23618715778994,54.54545454545455L164.2035838725734,57.88531468531468L165.98058735689398,57.13006993006993L167.94798407167744,57.60839160839162L169.8519163763066,55.946853146853144L171.8193130910901,56.341258741258734L173.72324539571926,56.517482517482506L175.69064211050275,57.432167832167835L177.6580388252862,58.10349650349651L179.56197112991538,58.18741258741259L181.52936784469884,58.36363636363636L183.43330014932803,59.395804195804196L185.4006968641115,59.81538461538462L187.36809357889499,60.293706293706286L189.20856147336983,60.13426573426573L191.1759581881533,58.590209790209784L193.07989049278248,58.01958041958042L195.04728720756594,58.74965034965036L196.9512195121951,58.94265734265734L198.9186162269786,59.4041958041958L200.88601294176206,58.98461538461539L202.78994524639126,58.64895104895105L204.75734196117472,59.41258741258741L206.66127426580388,60.2013986013986L208.62867098058734,59.68951048951049L210.5960676953708,59.1944055944056L212.37307117969138,59.07692307692308L214.34046789447487,58.46433566433567L216.24440019910404,58.26293706293706L218.2117969138875,57.75104895104895L220.1157292185167,57.71748251748252L222.08312593330015,57.297902097902096L224.05052264808361,56.76083916083916L225.95445495271278,59.10209790209792L227.92185166749624,61.795804195804195L229.82578397212544,63.82657342657343L231.79318068690893,65.32867132867133L233.7605774016924,64.3972027972028L235.53758088601293,64.24615384615385L237.50497760079642,64.71608391608393L239.4089099054256,66.37762237762237" fill="none" stroke="#af516c" stroke-linejoin="round" stroke-linecap="round" stroke-width="2"></path><path d="M1.9250871080139373,14.945454545454538L3.7655550024888007,12.746853146853141L5.732951717272274,10.506293706293718L7.636884021901443,11.076923076923066L9.604280736684919,11.479720279720283L11.508213041314086,10.657342657342653L13.475609756097562,11.17762237762237L15.443006470881036,0.3356643356643474L17.346938775510207,1.6951048951049046L19.31433549029368,7.048951048951054L21.21826779492285,8.702097902097904L23.18566450970632,4.959440559440566L25.153061224489797,4.749650349650352L26.930064708810352,5.597202797202783L28.897461423593825,18.411188811188808L30.801393728222997,30.369230769230768L32.768790443006466,35.28671328671328L34.67272274763564,40.68251748251748L36.640119462419115,45.709090909090904L38.60751617720259,48.05034965034966L40.51144848183176,55.91328671328671L42.47884519661523,55.23356643356642L44.3827775012444,57.00419580419582L46.350174216027874,69.21398601398602L48.31757093081135,69.72587412587413L50.0945744151319,70.57342657342657L52.06197112991538,75.6083916083916L53.96590343454455,85.93846153846154L55.933300149328026,87.04615384615384L57.83723245395719,87.0041958041958L59.80462916874067,85.93846153846154L61.772025883524144,86.36643356643357L63.67595818815331,85.26713286713286L65.64335490293678,84.91468531468531L67.54728720756596,85.69510489510489L69.51468392234942,98.65174825174824L71.4820806371329,98.21538461538461L73.25908412145345,98.08111888111888L75.22648083623695,97.9048951048951L77.1304131408661,97.25034965034965L79.09780985564957,97.7034965034965L81.00174216027875,97.67832167832168L82.96913887506221,97.72027972027972L84.9365355898457,97.54405594405594L86.84046789447486,98.3076923076923L88.80786460925833,97.82937062937063L90.71179691388751,98.51748251748252L92.67919362867097,98.84475524475525L94.64659034345446,68.5090909090909L96.48705823792932,67.63636363636364L98.4544549527128,67.73706293706294L100.35838725734196,67.83776223776223L102.32578397212544,69.47412587412587L104.2297162767546,69.23076923076923L106.19711299153808,69.75944055944056L108.16450970632155,69.24755244755245L110.06844201095072,68.42517482517482L112.0358387257342,68.51748251748252L113.93977103036336,68.47552447552448L115.90716774514684,67.9048951048951L117.87456445993031,47.63076923076923L119.65156794425087,48.93986013986013L121.61896465903435,49.56923076923076L123.52289696366351,48.77202797202797L125.49029367844699,49.18321678321678L127.39422598307615,48.914685314685315L129.36162269785964,48.37762237762237L131.3290194126431,48.35244755244756L133.23295171727227,47.46293706293707L135.20034843205573,46.86713286713285L137.10428073668493,47.05174825174825L139.0716774514684,46.67412587412588L141.03907416625188,46.88391608391609L142.81607765057242,46.71608391608392L144.7834743653559,46.60699300699302L146.68740666998508,46.204195804195805L148.65480338476854,46.88391608391609L150.5587356893977,46.71608391608392L152.52613240418117,47.303496503496504L154.49352911896466,43.03216783216783L156.39746142359382,44.47552447552448L158.36485813837731,44.85314685314685L160.26879044300648,45.365034965034965L162.23618715778994,46.229370629370635L164.2035838725734,48.59580419580419L165.98058735689398,55.34265734265733L167.94798407167744,56.47552447552447L169.8519163763066,55.87972027972029L171.8193130910901,56.01398601398601L173.72324539571926,55.52727272727273L175.69064211050275,58.8L177.6580388252862,60.67972027972028L179.56197112991538,60.83076923076922L181.52936784469884,64.85874125874128L183.43330014932803,70.19580419580419L185.4006968641115,78.08391608391608L187.36809357889499,78.27692307692308L189.20856147336983,78.12587412587413L191.1759581881533,77.53846153846153L193.07989049278248,82.27132867132867L195.04728720756594,87.6083916083916L196.9512195121951,87.92727272727274L198.9186162269786,87.96083916083916L200.88601294176206,92.97902097902097L202.78994524639126,92.92867132867133L204.75734196117472,93.43216783216783L206.66127426580388,93.73426573426573L208.62867098058734,106.54825174825174L210.5960676953708,106.42237762237762L212.37307117969138,106.51468531468531L214.34046789447487,106.413986013986L216.24440019910404,106.28811188811189L218.2117969138875,106.15384615384616L220.1157292185167,105.97762237762238L222.08312593330015,105.80979020979021L224.05052264808361,105.68391608391609L225.95445495271278,105.72587412587413L227.92185166749624,105.85174825174825L229.82578397212544,105.6923076923077L231.79318068690893,120" fill="none" stroke="#76acb8" stroke-linejoin="round" stroke-linecap="round" stroke-width="2"></path></g></g></svg>