<svg xmlns="http://www.w3.org/2000/svg" viewBox="0 0 304 270"><style>/* <![CDATA[ */.chart-title{font-size:20px;fill:#43423e}.chart-subtitle{font-size:15px;fill:#74736c}.chart-source{font-size:10px;fill-opacity:.4}.axis .domain{fill:none;stroke:#74736c}.tick line{fill:none;stroke:#000;stroke-opacity:.2}.tick text{fill-opacity:.6;font-size:12px}.y.axis .tick line{stroke-dasharray:1}.y.axis .domain{fill:none;stroke-opacity:0}.y.axis .highlight-line{fill:none;stroke:#74736c}/* ]]> */</style><text class="chart-title" y="22">Russia inflation forecast</text><text class="chart-subtitle" y="42">By date of forecast, annual % change</text><text class="chart-source" y="265">来源:彭博. 2018年5月4日</text><g transform="translate(1,100)"><g class="x axis" transform="translate(0,120)" fill="none" font-size="10" font-family="sans-serif" text-anchor="middle"><path class="domain" stroke="#000" d="M0.5,0V0.5H255.5V0"></path><g class="tick" opacity="1" transform="translate(0.5,0)"><line stroke="#000" y2="6"></line><text fill="#000" y="9" dy="0.71em">July</text></g><g class="tick" opacity="1" transform="translate(32.636986301369866,0)"><line stroke="#000" y2="6"></line><text fill="#000" y="9" dy="0.71em">October</text></g><g class="tick" opacity="1" transform="translate(64.77397260273973,0)"><line stroke="#000" y2="6"></line><text fill="#000" y="9" dy="0.71em">2017</text></g><g class="tick" opacity="1" transform="translate(96.2123287671233,0)"><line stroke="#000" y2="6"></line><text fill="#000" y="9" dy="0.71em">April</text></g><g class="tick" opacity="1" transform="translate(128,0)"><line stroke="#000" y2="6"></line><text fill="#000" y="9" dy="0.71em">July</text></g><g class="tick" opacity="1" transform="translate(160.13698630136986,0)"><line stroke="#000" y2="6"></line><text fill="#000" y="9" dy="0.71em">October</text></g><g class="tick" opacity="1" transform="translate(192.27397260273972,0)"><line stroke="#000" y2="6"></line><text fill="#000" y="9" dy="0.71em">2018</text></g><g class="tick" opacity="1" transform="translate(223.7123287671233,0)"><line stroke="#000" y2="6"></line><text fill="#000" y="9" dy="0.71em">April</text></g><g class="tick" opacity="1" transform="translate(255.5,0)"><line stroke="#000" y2="6"></line><text fill="#000" y="9" dy="0.71em">July</text></g></g><g class="y axis" transform="translate(255,0)" fill="none" font-size="10" font-family="sans-serif" text-anchor="start"><path class="domain" stroke="#000" d="M0,120.5H0.5V0.5H0"></path><g class="tick" opacity="1" transform="translate(0,120.5)"><line stroke="#000" x2="-255"></line><text fill="#000" x="3" dy="0.32em">3</text></g><g class="tick" opacity="1" transform="translate(0,80.5)"><line stroke="#000" x2="-255"></line><text fill="#000" x="3" dy="0.32em">4</text></g><g class="tick" opacity="1" transform="translate(0,40.5)"><line stroke="#000" x2="-255"></line><text fill="#000" x="3" dy="0.32em">5</text></g><g class="tick" opacity="1" transform="translate(0,0.5)"><line stroke="#000" x2="-255"></line><text fill="#000" x="3" dy="0.32em">6</text></g></g><g class="chart-key" transform="translate(0, -35)"><g class="key-element" transform="translate(0,0)"><text x="28" font-size="12">2017</text><line x1="0" x2="25" y1="-5" y2="-5" stroke-width="2" fill="none" stroke="#af516c"></line></g><g class="key-element" transform="translate(0,20)"><text x="28" font-size="12">2018</text><line x1="0" x2="25" y1="-5" y2="-5" stroke-width="2" fill="none" stroke="#76acb8"></line></g></g><g><path d="M21.773972602739725,20L22.123287671232877,20L23.17123287671233,20L23.52054794520548,20L23.86986301369863,20L24.21917808219178,20L24.56849315068493,20L25.616438356164384,20L25.965753424657535,20L26.315068493150683,20L26.664383561643838,20L27.013698630136986,20L28.061643835616437,20L28.41095890410959,20L28.76027397260274,20L29.109589041095887,20L29.458904109589042,20L30.506849315068493,20L30.85616438356164,20L31.205479452054796,20L31.554794520547944,20L31.9041095890411,20L32.95205479452054,20L33.301369863013704,20L33.65068493150685,20L34,20L34.34931506849315,20L35.397260273972606,20L35.74657534246575,20L36.0958904109589,20L36.44520547945205,20L36.794520547945204,20L37.842465753424655,20L38.1917808219178,20L38.54109589041096,20L38.89041095890411,20L39.23972602739726,20L40.28767123287671,20L40.636986301369866,20L40.986301369863014,20L41.33561643835616,23.999999999999986L41.68493150684932,21.999999999999986L42.73287671232877,21.999999999999986L43.082191780821915,21.999999999999986L43.43150684931507,21.999999999999986L43.78082191780822,21.999999999999986L44.13013698630137,21.999999999999986L45.178082191780824,30L45.52739726027397,30L45.87671232876713,30L46.226027397260275,30L46.57534246575342,30L47.62328767123288,30L47.97260273972603,30L48.321917808219176,30L48.67123287671233,30L49.02054794520548,30L50.06849315068493,30L50.417808219178085,30L50.76712328767123,32L51.11643835616438,28L51.465753424657535,28L52.513698630136986,30L52.863013698630134,30L53.21232876712329,30L53.56164383561644,30L53.91095890410959,30L54.95890410958904,30L55.30821917808219,30L55.657534246575345,30L56.00684931506849,32L56.35616438356164,33.999999999999986L57.4041095890411,33.999999999999986L57.75342465753425,33.999999999999986L58.102739726027394,33.999999999999986L58.45205479452055,33.999999999999986L58.8013698630137,33.999999999999986L59.84931506849315,33.999999999999986L60.1986301369863,33.999999999999986L60.54794520547945,33.999999999999986L60.897260273972606,38.000000000000014L61.24657534246575,38.000000000000014L62.294520547945204,38.000000000000014L62.64383561643836,38.000000000000014L62.99315068493151,38.000000000000014L63.342465753424655,38.000000000000014L63.6917808219178,38.000000000000014L64.73972602739725,40L65.08904109589042,40L65.43835616438356,40L65.78767123287672,40L66.13698630136986,40L67.18493150684931,40L67.53424657534246,40L67.8835616438356,40L68.23287671232876,40L68.58219178082193,40L69.63013698630137,40L69.97945205479452,40L70.32876712328768,40L70.67808219178082,40L71.02739726027397,40L72.07534246575344,40L72.42465753424658,40L72.77397260273973,40L73.12328767123287,40L73.47260273972603,40L74.52054794520548,43.999999999999986L74.86986301369862,43.999999999999986L75.21917808219177,43.999999999999986L75.56849315068494,43.999999999999986L75.91780821917808,43.999999999999986L76.96575342465754,43.999999999999986L77.31506849315069,43.999999999999986L77.66438356164383,43.999999999999986L78.01369863013699,43.999999999999986L78.36301369863013,43.999999999999986L79.41095890410959,43.999999999999986L79.76027397260275,43.999999999999986L80.10958904109589,43.999999999999986L80.45890410958904,46.000000000000014L80.8082191780822,46.000000000000014L81.85616438356163,46.000000000000014L82.2054794520548,46.000000000000014L82.55479452054794,46.000000000000014L82.9041095890411,48L83.25342465753425,48L84.30136986301369,48L84.65068493150685,48L85,48L85.34931506849314,48L85.69863013698631,48L86.74657534246576,48L87.0958904109589,48L87.44520547945206,48L87.7945205479452,48L88.14383561643835,48L89.19178082191782,48L89.54109589041096,48L89.89041095890411,48L90.23972602739727,48L90.58904109589041,48L91.63698630136986,48L91.98630136986301,48L92.33561643835615,48L92.68493150684932,48L93.03424657534246,48L94.08219178082192,48L94.43150684931507,48L94.78082191780821,50L95.13013698630137,63.999999999999986L95.47945205479452,63.999999999999986L96.52739726027397,63.999999999999986L96.87671232876713,63.999999999999986L97.22602739726028,63.999999999999986L97.57534246575342,63.999999999999986L97.92465753424658,63.999999999999986L98.97260273972603,63.999999999999986L99.32191780821917,63.999999999999986L99.67123287671234,63.999999999999986L100.02054794520548,63.999999999999986L100.36986301369863,63.999999999999986L101.41780821917808,63.999999999999986L101.76712328767123,63.999999999999986L102.11643835616438,63.999999999999986L102.46575342465754,63.999999999999986L102.81506849315069,63.999999999999986L103.86301369863014,63.999999999999986L104.2123287671233,63.999999999999986L104.56164383561644,63.999999999999986L104.91095890410959,68L105.26027397260273,68L106.3082191780822,68L106.65753424657535,68L107.0068493150685,68L107.35616438356165,68L107.70547945205479,68L108.75342465753424,68L109.1027397260274,68L109.45205479452054,68L109.8013698630137,68L110.15068493150686,68L111.1986301369863,68L111.54794520547945,68L111.8972602739726,68L112.24657534246575,68L112.5958904109589,68L113.64383561643837,68L113.9931506849315,68L114.34246575342466,68L114.6917808219178,68L115.04109589041096,68L116.08904109589041,68L116.43835616438355,68L116.78767123287672,68L117.13698630136987,68L117.48630136986301,68L118.53424657534246,68L118.88356164383562,68L119.23287671232876,68L119.58219178082192,68L119.93150684931506,68L120.97945205479452,68L121.32876712328768,68L121.67808219178082,68L122.02739726027397,68L122.37671232876713,68L123.42465753424656,68L123.77397260273973,68L124.12328767123289,68L124.47260273972603,68L124.82191780821918,68L125.86986301369863,68L126.21917808219177,68L126.56849315068493,68L126.91780821917807,70L127.26712328767124,70L128.31506849315068,72L128.66438356164386,72L129.013698630137,72L129.36301369863014,72L129.7123287671233,72L130.76027397260273,72L131.1095890410959,72L131.45890410958904,72L131.80821917808217,72L132.15753424657535,72L133.20547945205482,72L133.55479452054794,72L133.9041095890411,72L134.25342465753423,72L134.6027397260274,70L135.65068493150687,70L136,70L136.34931506849315,70L136.6986301369863,68L137.04794520547946,68L138.0958904109589,68L138.44520547945206,68L138.79452054794518,68L139.14383561643837,68L139.49315068493152,68L140.54109589041096,68L140.8904109589041,68L141.23972602739724,68L141.58904109589042,68L141.93835616438355,68L142.986301369863,68L143.33561643835617,68L143.68493150684932,68L144.03424657534248,68L144.3835616438356,68L145.43150684931507,68L145.7808219178082,68L146.13013698630138,68L146.47945205479454,68L146.82876712328766,68L147.87671232876713,68L148.22602739726025,68L148.57534246575344,68L148.92465753424656,68L149.27397260273972,68L150.32191780821918,70L150.6712328767123,70L151.0205479452055,70L151.36986301369862,70L151.71917808219177,72L152.7671232876712,72L153.1164383561644,72L153.46575342465755,72L153.81506849315068,72L154.16438356164383,72L155.21232876712327,72L155.56164383561645,72L155.91095890410958,72L156.26027397260273,72L156.60958904109592,72L157.65753424657532,72L158.0068493150685,72L158.35616438356163,76.00000000000001L158.7054794520548,80L159.05479452054794,80L160.1027397260274,80L160.45205479452056,80L160.8013698630137,80L161.15068493150685,80L161.5,80L162.54794520547946,80L162.8972602739726,80L163.24657534246575,80L163.59589041095893,80L163.94520547945206,80L164.99315068493152,80L165.34246575342465,80L165.6917808219178,80L166.04109589041096,80L166.3904109589041,80L167.43835616438358,80L167.7876712328767,80L168.13698630136986,80L168.486301369863,84L168.83561643835617,84L169.8835616438356,84L170.23287671232876,84L170.58219178082192,84L170.93150684931507,84L171.28082191780823,84L172.32876712328766,86L172.67808219178082,86L173.02739726027397,86L173.37671232876713,86L173.72602739726028,88L174.77397260273972,88L175.12328767123287,88L175.47260273972603,88L175.82191780821918,88L176.1712328767123,88L177.21917808219177,88L177.56849315068493,88L177.91780821917808,88L178.26712328767124,88L178.61643835616437,88L179.66438356164383,88L180.013698630137,88L180.36301369863014,88L180.7123287671233,88L181.06164383561642,88L182.1095890410959,92L182.45890410958904,92L182.8082191780822,92L183.15753424657532,92L183.5068493150685,92L184.55479452054794,92L184.9041095890411,92L185.25342465753425,92L185.60273972602738,92L185.95205479452056,92L187,92L187.34931506849315,92L187.6986301369863,92L188.04794520547944,92L188.39726027397262,92L189.44520547945206,92L189.7945205479452,92L190.14383561643834,92L190.49315068493152,92L190.84246575342468,92L191.8904109589041,92L192.23972602739727,92L192.5890410958904,92L192.93835616438358,92L193.2876712328767,92L194.33561643835617,92L194.68493150684932,92L195.03424657534245,92L195.38356164383563,92L195.73287671232876,92L196.78082191780823,92L197.13013698630135,92L197.4794520547945,92L197.8287671232877,92L198.17808219178082,92L199.22602739726028,92L199.5753424657534,92L199.9246575342466,92L200.27397260273972,92L200.62328767123287,92L201.67123287671234,92L202.02054794520546,92L202.36986301369865,92L202.71917808219177,92L203.06849315068493,92L204.11643835616437,92L204.46575342465752,92L204.8150684931507,92L205.16438356164383,92L205.513698630137,92L206.56164383561642,92L206.9109589041096,92L207.26027397260273,92L207.6095890410959,92L207.95890410958904,92L209.00684931506848,92L209.35616438356166,92L209.7054794520548,92L210.05479452054794,92L210.4041095890411,92L211.45205479452054,92L211.80136986301372,92L212.15068493150685,92L212.5,92L212.84931506849315,92L213.89726027397262,92L214.24657534246575,92L214.5958904109589,92L214.94520547945206,92L215.2945205479452,92L216.34246575342468,92L216.6917808219178,92L217.04109589041096,92L217.3904109589041,92L217.73972602739727,92L218.78767123287673,92L219.13698630136986,92L219.486301369863,92L219.83561643835617,92L220.18493150684932,92L221.23287671232876,92L221.58219178082192,92L221.93150684931507,92L222.28082191780823,92L222.63013698630138,92" fill="none" stroke="#af516c" stroke-linejoin="round" stroke-linecap="round" stroke-width="2"></path><path d="M21.773972602739725,33.999999999999986L22.123287671232877,33.999999999999986L23.17123287671233,33.999999999999986L23.52054794520548,33.999999999999986L23.86986301369863,33.999999999999986L24.21917808219178,33.999999999999986L24.56849315068493,33.999999999999986L25.616438356164384,33.999999999999986L25.965753424657535,33.999999999999986L26.315068493150683,33.999999999999986L26.664383561643838,33.999999999999986L27.013698630136986,33.999999999999986L28.061643835616437,33.999999999999986L28.41095890410959,33.999999999999986L28.76027397260274,33.999999999999986L29.109589041095887,33.999999999999986L29.458904109589042,33.999999999999986L30.506849315068493,33.999999999999986L30.85616438356164,33.999999999999986L31.205479452054796,33.999999999999986L31.554794520547944,32L31.9041095890411,32L32.95205479452054,33.999999999999986L33.301369863013704,33.999999999999986L33.65068493150685,33.999999999999986L34,33.999999999999986L34.34931506849315,33.999999999999986L35.397260273972606,33.999999999999986L35.74657534246575,33.999999999999986L36.0958904109589,33.999999999999986L36.44520547945205,33.999999999999986L36.794520547945204,33.999999999999986L37.842465753424655,33.999999999999986L38.1917808219178,33.999999999999986L38.54109589041096,33.999999999999986L38.89041095890411,33.999999999999986L39.23972602739726,33.999999999999986L40.28767123287671,33.999999999999986L40.636986301369866,33.999999999999986L40.986301369863014,33.999999999999986L41.33561643835616,40L41.68493150684932,40L42.73287671232877,40L43.082191780821915,40L43.43150684931507,40L43.78082191780822,40L44.13013698630137,40L45.178082191780824,42.80000000000001L45.52739726027397,42.80000000000001L45.87671232876713,42.80000000000001L46.226027397260275,42.80000000000001L46.57534246575342,42.80000000000001L47.62328767123288,42.80000000000001L47.97260273972603,42.80000000000001L48.321917808219176,42.80000000000001L48.67123287671233,42.80000000000001L49.02054794520548,42.80000000000001L50.06849315068493,42.80000000000001L50.417808219178085,42.80000000000001L50.76712328767123,45.19999999999999L51.11643835616438,60L51.465753424657535,60L52.513698630136986,60L52.863013698630134,60L53.21232876712329,60L53.56164383561644,60L53.91095890410959,60L54.95890410958904,60L55.30821917808219,60L55.657534246575345,60L56.00684931506849,60L56.35616438356164,60L57.4041095890411,60L57.75342465753425,60L58.102739726027394,60L58.45205479452055,60L58.8013698630137,60L59.84931506849315,60L60.1986301369863,60L60.54794520547945,60L60.897260273972606,63.999999999999986L61.24657534246575,63.999999999999986L62.294520547945204,63.999999999999986L62.64383561643836,63.999999999999986L62.99315068493151,63.999999999999986L63.342465753424655,63.999999999999986L63.6917808219178,63.999999999999986L64.73972602739725,63.999999999999986L65.08904109589042,63.999999999999986L65.43835616438356,63.999999999999986L65.78767123287672,63.999999999999986L66.13698630136986,63.999999999999986L67.18493150684931,63.999999999999986L67.53424657534246,63.999999999999986L67.8835616438356,63.999999999999986L68.23287671232876,63.999999999999986L68.58219178082193,63.999999999999986L69.63013698630137,63.999999999999986L69.97945205479452,63.999999999999986L70.32876712328768,63.999999999999986L70.67808219178082,63.999999999999986L71.02739726027397,63.999999999999986L72.07534246575344,63.999999999999986L72.42465753424658,63.999999999999986L72.77397260273973,63.999999999999986L73.12328767123287,63.999999999999986L73.47260273972603,63.999999999999986L74.52054794520548,63.999999999999986L74.86986301369862,64.4L75.21917808219177,64.4L75.56849315068494,64.4L75.91780821917808,64.4L76.96575342465754,64.4L77.31506849315069,64.4L77.66438356164383,64.4L78.01369863013699,64.4L78.36301369863013,64.4L79.41095890410959,64.4L79.76027397260275,64.4L80.10958904109589,64.4L80.45890410958904,64.4L80.8082191780822,64.4L81.85616438356163,64.4L82.2054794520548,64.4L82.55479452054794,64.4L82.9041095890411,64.4L83.25342465753425,64.4L84.30136986301369,64.4L84.65068493150685,64.4L85,64.4L85.34931506849314,65.19999999999999L85.69863013698631,65.19999999999999L86.74657534246576,68L87.0958904109589,68L87.44520547945206,68L87.7945205479452,68L88.14383561643835,68L89.19178082191782,68L89.54109589041096,68L89.89041095890411,68L90.23972602739727,68L90.58904109589041,68L91.63698630136986,68L91.98630136986301,68L92.33561643835615,68L92.68493150684932,68L93.03424657534246,68L94.08219178082192,68L94.43150684931507,68L94.78082191780821,68L95.13013698630137,68L95.47945205479452,68L96.52739726027397,68L96.87671232876713,68L97.22602739726028,68L97.57534246575342,68L97.92465753424658,68L98.97260273972603,68L99.32191780821917,68L99.67123287671234,68L100.02054794520548,68L100.36986301369863,68L101.41780821917808,68L101.76712328767123,68L102.11643835616438,68L102.46575342465754,68L102.81506849315069,68L103.86301369863014,68L104.2123287671233,68L104.56164383561644,68L104.91095890410959,70L105.26027397260273,70L106.3082191780822,70L106.65753424657535,70L107.0068493150685,70L107.35616438356165,70L107.70547945205479,68L108.75342465753424,68L109.1027397260274,68L109.45205479452054,68L109.8013698630137,68L110.15068493150686,68L111.1986301369863,68L111.54794520547945,68L111.8972602739726,68L112.24657534246575,68L112.5958904109589,68L113.64383561643837,68L113.9931506849315,68L114.34246575342466,68L114.6917808219178,72L115.04109589041096,72L116.08904109589041,72L116.43835616438355,72L116.78767123287672,72L117.13698630136987,72L117.48630136986301,72L118.53424657534246,72L118.88356164383562,72L119.23287671232876,72L119.58219178082192,72L119.93150684931506,72L120.97945205479452,73.99999999999999L121.32876712328768,73.99999999999999L121.67808219178082,73.99999999999999L122.02739726027397,73.99999999999999L122.37671232876713,73.99999999999999L123.42465753424656,73.99999999999999L123.77397260273973,73.99999999999999L124.12328767123289,73.99999999999999L124.47260273972603,73.99999999999999L124.82191780821918,73.99999999999999L125.86986301369863,73.99999999999999L126.21917808219177,73.99999999999999L126.56849315068493,73.99999999999999L126.91780821917807,76.00000000000001L127.26712328767124,76.00000000000001L128.31506849315068,76.00000000000001L128.66438356164386,76.00000000000001L129.013698630137,76.00000000000001L129.36301369863014,76.00000000000001L129.7123287671233,76.00000000000001L130.76027397260273,76.00000000000001L131.1095890410959,76.00000000000001L131.45890410958904,76.00000000000001L131.80821917808217,76.00000000000001L132.15753424657535,76.00000000000001L133.20547945205482,76.00000000000001L133.55479452054794,76.00000000000001L133.9041095890411,76.00000000000001L134.25342465753423,76.00000000000001L134.6027397260274,76.00000000000001L135.65068493150687,76.00000000000001L136,76.00000000000001L136.34931506849315,76.00000000000001L136.6986301369863,76.00000000000001L137.04794520547946,76.00000000000001L138.0958904109589,76.00000000000001L138.44520547945206,76.00000000000001L138.79452054794518,76.00000000000001L139.14383561643837,76.00000000000001L139.49315068493152,76.00000000000001L140.54109589041096,76.00000000000001L140.8904109589041,76.00000000000001L141.23972602739724,76.00000000000001L141.58904109589042,76.00000000000001L141.93835616438355,76.00000000000001L142.986301369863,76.00000000000001L143.33561643835617,76.00000000000001L143.68493150684932,76.00000000000001L144.03424657534248,76.00000000000001L144.3835616438356,76.00000000000001L145.43150684931507,76.00000000000001L145.7808219178082,76.00000000000001L146.13013698630138,76.00000000000001L146.47945205479454,76.00000000000001L146.82876712328766,76.00000000000001L147.87671232876713,76.00000000000001L148.22602739726025,76.00000000000001L148.57534246575344,76.00000000000001L148.92465753424656,76.00000000000001L149.27397260273972,76.00000000000001L150.32191780821918,76.00000000000001L150.6712328767123,76.00000000000001L151.0205479452055,76.00000000000001L151.36986301369862,76.00000000000001L151.71917808219177,76.00000000000001L152.7671232876712,76.00000000000001L153.1164383561644,76.00000000000001L153.46575342465755,76.00000000000001L153.81506849315068,76.00000000000001L154.16438356164383,76.00000000000001L155.21232876712327,76.00000000000001L155.56164383561645,76.00000000000001L155.91095890410958,76.00000000000001L156.26027397260273,76.00000000000001L156.60958904109592,76.00000000000001L157.65753424657532,76.00000000000001L158.0068493150685,76.00000000000001L158.35616438356163,76.00000000000001L158.7054794520548,80L159.05479452054794,80L160.1027397260274,80L160.45205479452056,80L160.8013698630137,80L161.15068493150685,80L161.5,80L162.54794520547946,80L162.8972602739726,80L163.24657534246575,80L163.59589041095893,80L163.94520547945206,80L164.99315068493152,80L165.34246575342465,80L165.6917808219178,80L166.04109589041096,80L166.3904109589041,80L167.43835616438358,80L167.7876712328767,80L168.13698630136986,80L168.486301369863,80L168.83561643835617,80L169.8835616438356,80L170.23287671232876,80L170.58219178082192,80L170.93150684931507,80L171.28082191780823,80L172.32876712328766,84L172.67808219178082,84L173.02739726027397,84L173.37671232876713,84L173.72602739726028,84L174.77397260273972,82L175.12328767123287,82L175.47260273972603,82L175.82191780821918,82L176.1712328767123,82L177.21917808219177,82L177.56849315068493,82L177.91780821917808,82L178.26712328767124,82L178.61643835616437,80L179.66438356164383,82L180.013698630137,82L180.36301369863014,82L180.7123287671233,82L181.06164383561642,82L182.1095890410959,86L182.45890410958904,86L182.8082191780822,86L183.15753424657532,86L183.5068493150685,86L184.55479452054794,86L184.9041095890411,86L185.25342465753425,86L185.60273972602738,90L185.95205479452056,90L187,90L187.34931506849315,90L187.6986301369863,90L188.04794520547944,92L188.39726027397262,92L189.44520547945206,92L189.7945205479452,92L190.14383561643834,92L190.49315068493152,92L190.84246575342468,92L191.8904109589041,92L192.23972602739727,92L192.5890410958904,92L192.93835616438358,92L193.2876712328767,92L194.33561643835617,92L194.68493150684932,92L195.03424657534245,92L195.38356164383563,92L195.73287671232876,92L196.78082191780823,92L197.13013698630135,92L197.4794520547945,92L197.8287671232877,92L198.17808219178082,92L199.22602739726028,92L199.5753424657534,92L199.9246575342466,92L200.27397260273972,98L200.62328767123287,98L201.67123287671234,100L202.02054794520546,100L202.36986301369865,100L202.71917808219177,100L203.06849315068493,100L204.11643835616437,100L204.46575342465752,100L204.8150684931507,100L205.16438356164383,100L205.513698630137,100L206.56164383561642,100L206.9109589041096,100L207.26027397260273,100L207.6095890410959,100L207.95890410958904,100L209.00684931506848,100L209.35616438356166,100L209.7054794520548,100L210.05479452054794,100L210.4041095890411,100L211.45205479452054,100L211.80136986301372,100L212.15068493150685,100L212.5,100L212.84931506849315,100L213.89726027397262,100L214.24657534246575,100L214.5958904109589,100L214.94520547945206,100L215.2945205479452,100L216.34246575342468,100L216.6917808219178,100L217.04109589041096,100L217.3904109589041,100L217.73972602739727,100L218.78767123287673,100L219.13698630136986,100L219.486301369863,100L219.83561643835617,102L220.18493150684932,102L221.23287671232876,102L221.58219178082192,102L221.93150684931507,102L222.28082191780823,112L222.63013698630138,112L223.67808219178082,114L224.02739726027397,116L224.3767123287671,116L224.72602739726028,116L225.0753424657534,116L226.12328767123287,116L226.47260273972603,116L226.82191780821918,116L227.17123287671234,116L227.52054794520546,116L228.56849315068493,118L228.91780821917808,118L229.26712328767124,118L229.6164383561644,118L229.96575342465752,118L231.013698630137,118L231.3630136986301,118L231.7123287671233,118L232.06164383561645,120L232.41095890410958,120L233.45890410958904,120L233.8082191780822,120L234.15753424657535,120L234.50684931506848,120L234.85616438356163,120" fill="none" stroke="#76acb8" stroke-linejoin="round" stroke-linecap="round" stroke-width="2"></path></g></g></svg>