<svg xmlns="http://www.w3.org/2000/svg" viewBox="0 0 304 270"><style>/* <![CDATA[ */.chart-title{font-size:20px;fill:#43423e}.chart-subtitle{font-size:15px;fill:#74736c}.chart-source{font-size:10px;fill-opacity:.4}.axis .domain{fill:none;stroke:#74736c}.tick line{fill:none;stroke:#000;stroke-opacity:.2}.tick text{fill-opacity:.6;font-size:12px}.y.axis .tick line{stroke-dasharray:1}.y.axis .domain{fill:none;stroke-opacity:0}.y.axis .highlight-line{fill:none;stroke:#74736c}/* ]]> */</style><text class="chart-title" y="22">Russia current account forecast</text><text class="chart-subtitle" y="42">By date of forecast, % of GDP</text><text class="chart-source" y="265">来源:彭博. 2018年5月4日</text><g transform="translate(1,100)"><g class="x axis" transform="translate(0,120)" fill="none" font-size="10" font-family="sans-serif" text-anchor="middle"><path class="domain" stroke="#000" d="M0.5,0V0.5H255.5V0"></path><g class="tick" opacity="1" transform="translate(0.5,0)"><line stroke="#000" y2="6"></line><text fill="#000" y="9" dy="0.71em">July</text></g><g class="tick" opacity="1" transform="translate(32.636986301369866,0)"><line stroke="#000" y2="6"></line><text fill="#000" y="9" dy="0.71em">October</text></g><g class="tick" opacity="1" transform="translate(64.77397260273973,0)"><line stroke="#000" y2="6"></line><text fill="#000" y="9" dy="0.71em">2017</text></g><g class="tick" opacity="1" transform="translate(96.2123287671233,0)"><line stroke="#000" y2="6"></line><text fill="#000" y="9" dy="0.71em">April</text></g><g class="tick" opacity="1" transform="translate(128,0)"><line stroke="#000" y2="6"></line><text fill="#000" y="9" dy="0.71em">July</text></g><g class="tick" opacity="1" transform="translate(160.13698630136986,0)"><line stroke="#000" y2="6"></line><text fill="#000" y="9" dy="0.71em">October</text></g><g class="tick" opacity="1" transform="translate(192.27397260273972,0)"><line stroke="#000" y2="6"></line><text fill="#000" y="9" dy="0.71em">2018</text></g><g class="tick" opacity="1" transform="translate(223.7123287671233,0)"><line stroke="#000" y2="6"></line><text fill="#000" y="9" dy="0.71em">April</text></g><g class="tick" opacity="1" transform="translate(255.5,0)"><line stroke="#000" y2="6"></line><text fill="#000" y="9" dy="0.71em">July</text></g></g><g class="y axis" transform="translate(255,0)" fill="none" font-size="10" font-family="sans-serif" text-anchor="start"><path class="domain" stroke="#000" d="M0,120.5H0.5V0.5H0"></path><g class="tick" opacity="1" transform="translate(0,120.5)"><line stroke="#000" x2="-255"></line><text fill="#000" x="3" dy="0.32em">1</text></g><g class="tick" opacity="1" transform="translate(0,80.5)"><line stroke="#000" x2="-255"></line><text fill="#000" x="3" dy="0.32em">2</text></g><g class="tick" opacity="1" transform="translate(0,40.5)"><line stroke="#000" x2="-255"></line><text fill="#000" x="3" dy="0.32em">3</text></g><g class="tick" opacity="1" transform="translate(0,0.5)"><line stroke="#000" x2="-255"></line><text fill="#000" x="3" dy="0.32em">4</text></g></g><g class="chart-key" transform="translate(0, -35)"><g class="key-element" transform="translate(0,0)"><text x="28" font-size="12">2017</text><line x1="0" x2="25" y1="-5" y2="-5" stroke-width="2" fill="none" stroke="#af516c"></line></g><g class="key-element" transform="translate(0,20)"><text x="28" font-size="12">2018</text><line x1="0" x2="25" y1="-5" y2="-5" stroke-width="2" fill="none" stroke="#76acb8"></line></g></g><g><path d="M21.773972602739725,21.999999999999986L22.123287671232877,21.999999999999986L23.17123287671233,18L23.52054794520548,18L23.86986301369863,18L24.21917808219178,18L24.56849315068493,18L25.616438356164384,18L25.965753424657535,18L26.315068493150683,18L26.664383561643838,18L27.013698630136986,18L28.061643835616437,18L28.41095890410959,18L28.76027397260274,18L29.109589041095887,18L29.458904109589042,18L30.506849315068493,18L30.85616438356164,18L31.205479452054796,18L31.554794520547944,30L31.9041095890411,30L32.95205479452054,38.000000000000014L33.301369863013704,38.000000000000014L33.65068493150685,38.000000000000014L34,38.000000000000014L34.34931506849315,38.000000000000014L35.397260273972606,38.000000000000014L35.74657534246575,38.000000000000014L36.0958904109589,38.000000000000014L36.44520547945205,38.000000000000014L36.794520547945204,38.000000000000014L37.842465753424655,38.000000000000014L38.1917808219178,38.000000000000014L38.54109589041096,38.000000000000014L38.89041095890411,38.000000000000014L39.23972602739726,38.000000000000014L40.28767123287671,38.000000000000014L40.636986301369866,35.999999999999986L40.986301369863014,35.999999999999986L41.33561643835616,32L41.68493150684932,32L42.73287671232877,32L43.082191780821915,32L43.43150684931507,32L43.78082191780822,32L44.13013698630137,32L45.178082191780824,26L45.52739726027397,26L45.87671232876713,26L46.226027397260275,26L46.57534246575342,26L47.62328767123288,26L47.97260273972603,26L48.321917808219176,26L48.67123287671233,26L49.02054794520548,26L50.06849315068493,26L50.417808219178085,26L50.76712328767123,24.000000000000014L51.11643835616438,34L51.465753424657535,34L52.513698630136986,34L52.863013698630134,34L53.21232876712329,34L53.56164383561644,34L53.91095890410959,34L54.95890410958904,38.000000000000014L55.30821917808219,46L55.657534246575345,46L56.00684931506849,46L56.35616438356164,46L57.4041095890411,46L57.75342465753425,46L58.102739726027394,46L58.45205479452055,46L58.8013698630137,46L59.84931506849315,46L60.1986301369863,46L60.54794520547945,46L60.897260273972606,38.000000000000014L61.24657534246575,38.000000000000014L62.294520547945204,38.000000000000014L62.64383561643836,38.000000000000014L62.99315068493151,38.000000000000014L63.342465753424655,38.000000000000014L63.6917808219178,38.000000000000014L64.73972602739725,40L65.08904109589042,40L65.43835616438356,40L65.78767123287672,40L66.13698630136986,40L67.18493150684931,40L67.53424657534246,40L67.8835616438356,40L68.23287671232876,40L68.58219178082193,40L69.63013698630137,40L69.97945205479452,40L70.32876712328768,40L70.67808219178082,40L71.02739726027397,40L72.07534246575344,40L72.42465753424658,40L72.77397260273973,40L73.12328767123287,40L73.47260273972603,40L74.52054794520548,60L74.86986301369862,60L75.21917808219177,60L75.56849315068494,60L75.91780821917808,60L76.96575342465754,60L77.31506849315069,60L77.66438356164383,60L78.01369863013699,60L78.36301369863013,60L79.41095890410959,60L79.76027397260275,60L80.10958904109589,64L80.45890410958904,64L80.8082191780822,64L81.85616438356163,64L82.2054794520548,64L82.55479452054794,64L82.9041095890411,58.00000000000001L83.25342465753425,58.00000000000001L84.30136986301369,58.00000000000001L84.65068493150685,58.00000000000001L85,58.00000000000001L85.34931506849314,58.00000000000001L85.69863013698631,58.00000000000001L86.74657534246576,54.000000000000014L87.0958904109589,54.000000000000014L87.44520547945206,51.999999999999986L87.7945205479452,51.999999999999986L88.14383561643835,51.999999999999986L89.19178082191782,51.999999999999986L89.54109589041096,51.999999999999986L89.89041095890411,51.999999999999986L90.23972602739727,51.999999999999986L90.58904109589041,51.999999999999986L91.63698630136986,51.999999999999986L91.98630136986301,51.999999999999986L92.33561643835615,51.999999999999986L92.68493150684932,51.999999999999986L93.03424657534246,51.999999999999986L94.08219178082192,51.999999999999986L94.43150684931507,51.999999999999986L94.78082191780821,51.999999999999986L95.13013698630137,56L95.47945205479452,56L96.52739726027397,56L96.87671232876713,56L97.22602739726028,56L97.57534246575342,56L97.92465753424658,56L98.97260273972603,56L99.32191780821917,56L99.67123287671234,56L100.02054794520548,56L100.36986301369863,56L101.41780821917808,56L101.76712328767123,56L102.11643835616438,56L102.46575342465754,56L102.81506849315069,56L103.86301369863014,56L104.2123287671233,56L104.56164383561644,56L104.91095890410959,56L105.26027397260273,56L106.3082191780822,56L106.65753424657535,56L107.0068493150685,56L107.35616438356165,56L107.70547945205479,56L108.75342465753424,56L109.1027397260274,56L109.45205479452054,56L109.8013698630137,56L110.15068493150686,56L111.1986301369863,56L111.54794520547945,56L111.8972602739726,56L112.24657534246575,56L112.5958904109589,56L113.64383561643837,56L113.9931506849315,56L114.34246575342466,56L114.6917808219178,58.00000000000001L115.04109589041096,58.00000000000001L116.08904109589041,58.00000000000001L116.43835616438355,58.00000000000001L116.78767123287672,60L117.13698630136987,60L117.48630136986301,60L118.53424657534246,54.000000000000014L118.88356164383562,54.000000000000014L119.23287671232876,54.000000000000014L119.58219178082192,54.000000000000014L119.93150684931506,54.000000000000014L120.97945205479452,54.000000000000014L121.32876712328768,54.000000000000014L121.67808219178082,54.000000000000014L122.02739726027397,54.000000000000014L122.37671232876713,54.000000000000014L123.42465753424656,54.000000000000014L123.77397260273973,54.000000000000014L124.12328767123289,54.000000000000014L124.47260273972603,54.000000000000014L124.82191780821918,54.000000000000014L125.86986301369863,54.000000000000014L126.21917808219177,54.000000000000014L126.56849315068493,54.000000000000014L126.91780821917807,56L127.26712328767124,56L128.31506849315068,58.00000000000001L128.66438356164386,58.00000000000001L129.013698630137,58.00000000000001L129.36301369863014,58.00000000000001L129.7123287671233,58.00000000000001L130.76027397260273,58.00000000000001L131.1095890410959,58.00000000000001L131.45890410958904,58.00000000000001L131.80821917808217,58.00000000000001L132.15753424657535,58.00000000000001L133.20547945205482,58.00000000000001L133.55479452054794,58.00000000000001L133.9041095890411,58.00000000000001L134.25342465753423,58.00000000000001L134.6027397260274,58.00000000000001L135.65068493150687,58.00000000000001L136,58.00000000000001L136.34931506849315,58.00000000000001L136.6986301369863,60L137.04794520547946,60L138.0958904109589,64L138.44520547945206,64L138.79452054794518,64L139.14383561643837,64L139.49315068493152,64L140.54109589041096,56L140.8904109589041,56L141.23972602739724,56L141.58904109589042,56L141.93835616438355,56L142.986301369863,56L143.33561643835617,56L143.68493150684932,56L144.03424657534248,56L144.3835616438356,64L145.43150684931507,64L145.7808219178082,64L146.13013698630138,64L146.47945205479454,64L146.82876712328766,56L147.87671232876713,56L148.22602739726025,56L148.57534246575344,56L148.92465753424656,64L149.27397260273972,64L150.32191780821918,68L150.6712328767123,68L151.0205479452055,68L151.36986301369862,68L151.71917808219177,68L152.7671232876712,68L153.1164383561644,68L153.46575342465755,68L153.81506849315068,68L154.16438356164383,68L155.21232876712327,68L155.56164383561645,68L155.91095890410958,68L156.26027397260273,68L156.60958904109592,68L157.65753424657532,68L158.0068493150685,68L158.35616438356163,68L158.7054794520548,72L159.05479452054794,72L160.1027397260274,72L160.45205479452056,72L160.8013698630137,72L161.15068493150685,72L161.5,72L162.54794520547946,72L162.8972602739726,72L163.24657534246575,72L163.59589041095893,72L163.94520547945206,72L164.99315068493152,72L165.34246575342465,72L165.6917808219178,72L166.04109589041096,72L166.3904109589041,72L167.43835616438358,72L167.7876712328767,72L168.13698630136986,72L168.486301369863,72L168.83561643835617,72L169.8835616438356,72L170.23287671232876,72L170.58219178082192,72L170.93150684931507,72L171.28082191780823,72L172.32876712328766,72L172.67808219178082,72L173.02739726027397,72L173.37671232876713,72L173.72602739726028,72L174.77397260273972,72L175.12328767123287,72L175.47260273972603,72L175.82191780821918,72L176.1712328767123,72L177.21917808219177,72L177.56849315068493,72L177.91780821917808,72L178.26712328767124,72L178.61643835616437,72L179.66438356164383,72L180.013698630137,72L180.36301369863014,72L180.7123287671233,72L181.06164383561642,72L182.1095890410959,72L182.45890410958904,72L182.8082191780822,72L183.15753424657532,72L183.5068493150685,72L184.55479452054794,72L184.9041095890411,72L185.25342465753425,72L185.60273972602738,72L185.95205479452056,72L187,72L187.34931506849315,72L187.6986301369863,72L188.04794520547944,68L188.39726027397262,68L189.44520547945206,68L189.7945205479452,68L190.14383561643834,68L190.49315068493152,68L190.84246575342468,68L191.8904109589041,68L192.23972602739727,68L192.5890410958904,68L192.93835616438358,68L193.2876712328767,68L194.33561643835617,68L194.68493150684932,68L195.03424657534245,68L195.38356164383563,68L195.73287671232876,68L196.78082191780823,68L197.13013698630135,68L197.4794520547945,68L197.8287671232877,68L198.17808219178082,68L199.22602739726028,68L199.5753424657534,68L199.9246575342466,68L200.27397260273972,60L200.62328767123287,60L201.67123287671234,60L202.02054794520546,60L202.36986301369865,60L202.71917808219177,60L203.06849315068493,60L204.11643835616437,60L204.46575342465752,60L204.8150684931507,60L205.16438356164383,60L205.513698630137,60L206.56164383561642,60L206.9109589041096,60L207.26027397260273,60L207.6095890410959,60L207.95890410958904,60L209.00684931506848,60L209.35616438356166,60L209.7054794520548,60L210.05479452054794,60L210.4041095890411,60L211.45205479452054,60L211.80136986301372,60L212.15068493150685,60L212.5,60L212.84931506849315,60L213.89726027397262,60L214.24657534246575,60L214.5958904109589,60L214.94520547945206,60L215.2945205479452,60L216.34246575342468,60L216.6917808219178,60L217.04109589041096,60L217.3904109589041,60L217.73972602739727,60L218.78767123287673,60L219.13698630136986,60L219.486301369863,60L219.83561643835617,60L220.18493150684932,60L221.23287671232876,60L221.58219178082192,60L221.93150684931507,60L222.28082191780823,60L222.63013698630138,60" fill="none" stroke="#af516c" stroke-linejoin="round" stroke-linecap="round" stroke-width="2"></path><path d="M21.773972602739725,24.000000000000014L22.123287671232877,24.000000000000014L23.17123287671233,20L23.52054794520548,20L23.86986301369863,20L24.21917808219178,20L24.56849315068493,20L25.616438356164384,20L25.965753424657535,20L26.315068493150683,20L26.664383561643838,20L27.013698630136986,20L28.061643835616437,20L28.41095890410959,20L28.76027397260274,20L29.109589041095887,20L29.458904109589042,20L30.506849315068493,20L30.85616438356164,20L31.205479452054796,20L31.554794520547944,20L31.9041095890411,20L32.95205479452054,28L33.301369863013704,28L33.65068493150685,28L34,28L34.34931506849315,28L35.397260273972606,28L35.74657534246575,28L36.0958904109589,28L36.44520547945205,28L36.794520547945204,28L37.842465753424655,28L38.1917808219178,28L38.54109589041096,28L38.89041095890411,28L39.23972602739726,28L40.28767123287671,28L40.636986301369866,28L40.986301369863014,28L41.33561643835616,40L41.68493150684932,40L42.73287671232877,40L43.082191780821915,40L43.43150684931507,40L43.78082191780822,40L44.13013698630137,40L45.178082191780824,40L45.52739726027397,40L45.87671232876713,40L46.226027397260275,40L46.57534246575342,40L47.62328767123288,40L47.97260273972603,40L48.321917808219176,40L48.67123287671233,40L49.02054794520548,40L50.06849315068493,40L50.417808219178085,40L50.76712328767123,30L51.11643835616438,51.999999999999986L51.465753424657535,51.999999999999986L52.513698630136986,51.999999999999986L52.863013698630134,51.999999999999986L53.21232876712329,51.999999999999986L53.56164383561644,51.999999999999986L53.91095890410959,51.999999999999986L54.95890410958904,54.000000000000014L55.30821917808219,54.000000000000014L55.657534246575345,54.000000000000014L56.00684931506849,54.000000000000014L56.35616438356164,54.000000000000014L57.4041095890411,54.000000000000014L57.75342465753425,54.000000000000014L58.102739726027394,54.000000000000014L58.45205479452055,54.000000000000014L58.8013698630137,54.000000000000014L59.84931506849315,54.000000000000014L60.1986301369863,54.000000000000014L60.54794520547945,54.000000000000014L60.897260273972606,64L61.24657534246575,64L62.294520547945204,64L62.64383561643836,64L62.99315068493151,64L63.342465753424655,64L63.6917808219178,64L64.73972602739725,60L65.08904109589042,60L65.43835616438356,60L65.78767123287672,60L66.13698630136986,60L67.18493150684931,60L67.53424657534246,60L67.8835616438356,60L68.23287671232876,60L68.58219178082193,60L69.63013698630137,60L69.97945205479452,60L70.32876712328768,60L70.67808219178082,60L71.02739726027397,60L72.07534246575344,60L72.42465753424658,60L72.77397260273973,60L73.12328767123287,56L73.47260273972603,56L74.52054794520548,48L74.86986301369862,51.999999999999986L75.21917808219177,51.999999999999986L75.56849315068494,51.999999999999986L75.91780821917808,56L76.96575342465754,56L77.31506849315069,56L77.66438356164383,56L78.01369863013699,56L78.36301369863013,56L79.41095890410959,56L79.76027397260275,56L80.10958904109589,64L80.45890410958904,64L80.8082191780822,64L81.85616438356163,64L82.2054794520548,64L82.55479452054794,64L82.9041095890411,68L83.25342465753425,68L84.30136986301369,68L84.65068493150685,68L85,68L85.34931506849314,68L85.69863013698631,68L86.74657534246576,61.99999999999999L87.0958904109589,61.99999999999999L87.44520547945206,60L87.7945205479452,60L88.14383561643835,60L89.19178082191782,61.99999999999999L89.54109589041096,61.99999999999999L89.89041095890411,61.99999999999999L90.23972602739727,61.99999999999999L90.58904109589041,61.99999999999999L91.63698630136986,61.99999999999999L91.98630136986301,61.99999999999999L92.33561643835615,61.99999999999999L92.68493150684932,61.99999999999999L93.03424657534246,61.99999999999999L94.08219178082192,61.99999999999999L94.43150684931507,61.99999999999999L94.78082191780821,60L95.13013698630137,60L95.47945205479452,60L96.52739726027397,64L96.87671232876713,64L97.22602739726028,64L97.57534246575342,64L97.92465753424658,64L98.97260273972603,64L99.32191780821917,64L99.67123287671234,64L100.02054794520548,64L100.36986301369863,64L101.41780821917808,64L101.76712328767123,64L102.11643835616438,64L102.46575342465754,64L102.81506849315069,64L103.86301369863014,64L104.2123287671233,64L104.56164383561644,64L104.91095890410959,61.99999999999999L105.26027397260273,61.99999999999999L106.3082191780822,60L106.65753424657535,60L107.0068493150685,60L107.35616438356165,60L107.70547945205479,60L108.75342465753424,60L109.1027397260274,60L109.45205479452054,60L109.8013698630137,60L110.15068493150686,60L111.1986301369863,60L111.54794520547945,60L111.8972602739726,60L112.24657534246575,60L112.5958904109589,60L113.64383561643837,60L113.9931506849315,60L114.34246575342466,60L114.6917808219178,60L115.04109589041096,60L116.08904109589041,60L116.43835616438355,60L116.78767123287672,60L117.13698630136987,60L117.48630136986301,60L118.53424657534246,60L118.88356164383562,60L119.23287671232876,60L119.58219178082192,60L119.93150684931506,60L120.97945205479452,60L121.32876712328768,60L121.67808219178082,60L122.02739726027397,60L122.37671232876713,60L123.42465753424656,60L123.77397260273973,60L124.12328767123289,60L124.47260273972603,60L124.82191780821918,60L125.86986301369863,60L126.21917808219177,60L126.56849315068493,60L126.91780821917807,61.99999999999999L127.26712328767124,61.99999999999999L128.31506849315068,64L128.66438356164386,64L129.013698630137,64L129.36301369863014,64L129.7123287671233,64L130.76027397260273,64L131.1095890410959,64L131.45890410958904,64L131.80821917808217,64L132.15753424657535,64L133.20547945205482,64L133.55479452054794,64L133.9041095890411,64L134.25342465753423,64L134.6027397260274,64L135.65068493150687,64L136,64L136.34931506849315,64L136.6986301369863,68L137.04794520547946,68L138.0958904109589,68L138.44520547945206,68L138.79452054794518,68L139.14383561643837,68L139.49315068493152,68L140.54109589041096,64L140.8904109589041,64L141.23972602739724,64L141.58904109589042,64L141.93835616438355,64L142.986301369863,64L143.33561643835617,64L143.68493150684932,64L144.03424657534248,64L144.3835616438356,64L145.43150684931507,64L145.7808219178082,64L146.13013698630138,64L146.47945205479454,64L146.82876712328766,61.99999999999999L147.87671232876713,61.99999999999999L148.22602739726025,61.99999999999999L148.57534246575344,61.99999999999999L148.92465753424656,68L149.27397260273972,68L150.32191780821918,72L150.6712328767123,72L151.0205479452055,72L151.36986301369862,72L151.71917808219177,72L152.7671232876712,76L153.1164383561644,76L153.46575342465755,76L153.81506849315068,76L154.16438356164383,76L155.21232876712327,76L155.56164383561645,76L155.91095890410958,76L156.26027397260273,76L156.60958904109592,76L157.65753424657532,76L158.0068493150685,76L158.35616438356163,76L158.7054794520548,80L159.05479452054794,80L160.1027397260274,80L160.45205479452056,80L160.8013698630137,80L161.15068493150685,80L161.5,80L162.54794520547946,76L162.8972602739726,76L163.24657534246575,76L163.59589041095893,76L163.94520547945206,76L164.99315068493152,76L165.34246575342465,76L165.6917808219178,76L166.04109589041096,76L166.3904109589041,76L167.43835616438358,76L167.7876712328767,76L168.13698630136986,76L168.486301369863,80L168.83561643835617,80L169.8835616438356,80L170.23287671232876,80L170.58219178082192,80L170.93150684931507,80L171.28082191780823,80L172.32876712328766,80L172.67808219178082,80L173.02739726027397,80L173.37671232876713,80L173.72602739726028,80L174.77397260273972,80L175.12328767123287,80L175.47260273972603,80L175.82191780821918,80L176.1712328767123,80L177.21917808219177,80L177.56849315068493,80L177.91780821917808,80L178.26712328767124,80L178.61643835616437,80L179.66438356164383,82L180.013698630137,82L180.36301369863014,82L180.7123287671233,82L181.06164383561642,82L182.1095890410959,84L182.45890410958904,84L182.8082191780822,84L183.15753424657532,84L183.5068493150685,82L184.55479452054794,82L184.9041095890411,82L185.25342465753425,82L185.60273972602738,82L185.95205479452056,82L187,82L187.34931506849315,82L187.6986301369863,82L188.04794520547944,74L188.39726027397262,74L189.44520547945206,74L189.7945205479452,74L190.14383561643834,74L190.49315068493152,74L190.84246575342468,74L191.8904109589041,74L192.23972602739727,74L192.5890410958904,72L192.93835616438358,72L193.2876712328767,72L194.33561643835617,72L194.68493150684932,72L195.03424657534245,72L195.38356164383563,72L195.73287671232876,72L196.78082191780823,72L197.13013698630135,72L197.4794520547945,72L197.8287671232877,72L198.17808219178082,72L199.22602739726028,72L199.5753424657534,72L199.9246575342466,72L200.27397260273972,58.00000000000001L200.62328767123287,58.00000000000001L201.67123287671234,61.99999999999999L202.02054794520546,61.99999999999999L202.36986301369865,61.99999999999999L202.71917808219177,61.99999999999999L203.06849315068493,61.99999999999999L204.11643835616437,61.99999999999999L204.46575342465752,61.99999999999999L204.8150684931507,61.99999999999999L205.16438356164383,61.99999999999999L205.513698630137,61.99999999999999L206.56164383561642,61.99999999999999L206.9109589041096,61.99999999999999L207.26027397260273,61.99999999999999L207.6095890410959,61.99999999999999L207.95890410958904,61.99999999999999L209.00684931506848,61.99999999999999L209.35616438356166,61.99999999999999L209.7054794520548,61.99999999999999L210.05479452054794,51.999999999999986L210.4041095890411,51.999999999999986L211.45205479452054,51.999999999999986L211.80136986301372,51.999999999999986L212.15068493150685,51.999999999999986L212.5,51.999999999999986L212.84931506849315,50L213.89726027397262,44L214.24657534246575,44L214.5958904109589,44L214.94520547945206,44L215.2945205479452,44L216.34246575342468,44L216.6917808219178,44L217.04109589041096,44L217.3904109589041,44L217.73972602739727,44L218.78767123287673,44L219.13698630136986,44L219.486301369863,44L219.83561643835617,44L220.18493150684932,44L221.23287671232876,44L221.58219178082192,44L221.93150684931507,44L222.28082191780823,42L222.63013698630138,42L223.67808219178082,40L224.02739726027397,40L224.3767123287671,40L224.72602739726028,40L225.0753424657534,40L226.12328767123287,40L226.47260273972603,40L226.82191780821918,40L227.17123287671234,40L227.52054794520546,40L228.56849315068493,40L228.91780821917808,40L229.26712328767124,40L229.6164383561644,40L229.96575342465752,40L231.013698630137,40L231.3630136986301,40L231.7123287671233,40L232.06164383561645,40L232.41095890410958,40L233.45890410958904,38.39999999999999L233.8082191780822,38.39999999999999L234.15753424657535,38.39999999999999L234.50684931506848,38.39999999999999L234.85616438356163,38.39999999999999" fill="none" stroke="#76acb8" stroke-linejoin="round" stroke-linecap="round" stroke-width="2"></path></g></g></svg>