<svg xmlns="http://www.w3.org/2000/svg" viewBox="0 0 304 270"><style>/* <![CDATA[ */.chart-title{font-size:20px;fill:#43423e}.chart-subtitle{font-size:15px;fill:#74736c}.chart-source{font-size:10px;fill-opacity:.4}.axis .domain{fill:none;stroke:#74736c}.tick line{fill:none;stroke:#000;stroke-opacity:.2}.tick text{fill-opacity:.6;font-size:12px}.y.axis .tick line{stroke-dasharray:1}.y.axis .domain{fill:none;stroke-opacity:0}.y.axis .highlight-line{fill:none;stroke:#74736c}/* ]]> */</style><text class="chart-title" y="22">S&amp;P/Case-Shiller national house price index</text><text class="chart-subtitle" y="42"> </text><text class="chart-source" y="265">来源:联邦准备银行经济资料库. 2018年4月24日</text><g transform="translate(1,100)"><g class="x axis" transform="translate(0,120)" fill="none" font-size="10" font-family="sans-serif" text-anchor="middle"><path class="domain" stroke="#000" d="M0.5,0V0.5H255.5V0"></path><g class="tick" opacity="1" transform="translate(18.703598670056717,0)"><line stroke="#000" y2="6"></line><text fill="#000" y="9" dy="0.71em">2006</text></g><g class="tick" opacity="1" transform="translate(55.110796010170155,0)"><line stroke="#000" y2="6"></line><text fill="#000" y="9" dy="0.71em">2008</text></g><g class="tick" opacity="1" transform="translate(91.56786622335224,0)"><line stroke="#000" y2="6"></line><text fill="#000" y="9" dy="0.71em">2010</text></g><g class="tick" opacity="1" transform="translate(127.97506356346567,0)"><line stroke="#000" y2="6"></line><text fill="#000" y="9" dy="0.71em">2012</text></g><g class="tick" opacity="1" transform="translate(164.43213377664776,0)"><line stroke="#000" y2="6"></line><text fill="#000" y="9" dy="0.71em">2014</text></g><g class="tick" opacity="1" transform="translate(200.8393311167612,0)"><line stroke="#000" y2="6"></line><text fill="#000" y="9" dy="0.71em">2016</text></g><g class="tick" opacity="1" transform="translate(237.29640132994328,0)"><line stroke="#000" y2="6"></line><text fill="#000" y="9" dy="0.71em">2018</text></g></g><g class="y axis" transform="translate(255,0)" fill="none" font-size="10" font-family="sans-serif" text-anchor="start"><path class="domain" stroke="#000" d="M0,120.5H0.5V0.5H0"></path><g class="tick" opacity="1" transform="translate(0,107.57692307692308)"><line stroke="#000" x2="-255"></line><text fill="#000" x="3" dy="0.32em">140</text></g><g class="tick" opacity="1" transform="translate(0,70.65384615384616)"><line stroke="#000" x2="-255"></line><text fill="#000" x="3" dy="0.32em">160</text></g><g class="tick" opacity="1" transform="translate(0,33.730769230769226)"><line stroke="#000" x2="-255"></line><text fill="#000" x="3" dy="0.32em">180</text></g></g><g><path d="M1.5626833561509876,66.58707692307689L2.959123802073147,61.69476923076924L4.505182867201252,57.230769230769226L6.001369059260709,52.53784615384615L7.547428124388813,47.976L9.043614316448268,44.13046153846159L10.589673381576374,40.75938461538462L12.135732446704479,37.64123076923079L13.631918638763935,35.531076923076895L15.17797770389204,33.82707692307687L16.674163895951498,33.025846153846175L18.220222961079603,31.69476923076924L19.76628202620771,30.4541538461538L21.162722472129865,28.14830769230771L22.70878153725797,26.49230769230769L24.204967729317424,25.140923076923073L25.75102679444553,24.82892307692309L27.247212986504987,24.710769230769216L28.793272051633092,25.08184615384613L30.339331116761198,25.464000000000013L31.835517308820652,25.731692307692285L33.381576373948754,26.514461538461532L34.877762566008215,27.2566153846154L36.42382163113632,28.20184615384612L37.969880696264426,28.65969230769231L39.36632114218658,29.171076923076896L40.91238020731468,29.283692307692306L42.408566399374145,29.737846153846164L43.95462546450225,30.371076923076913L45.450811656561704,31.37907692307695L46.99687072168981,32.780307692307645L48.542929786817915,34.83323076923075L50.039115978877376,37.76861538461539L51.58517504400548,42.13846153846151L53.081361236064936,45.50584615384615L54.62742030119304,49.67999999999999L56.173479366321146,53.1636923076923L57.61979268531195,55.54338461538458L59.165851750440055,56.61784615384617L60.66203794249951,57.175384615384615L62.208097007627615,58.06153846153845L63.704283199687076,59.57723076923074L65.25034226481517,62.226461538461514L66.79640132994328,66.59815384615382L68.29258752200275,71.68246153846154L69.83864658713084,77.39261538461537L71.3348327791903,83.90030769230769L72.88089184431841,89.77292307692309L74.4269509094465,92.99076923076925L75.82339135536867,95.02523076923079L77.36945042049676,94.2276923076923L78.86563661255623,91.95876923076924L80.41169567768434,88.96061538461541L81.90788186974379,87.21415384615386L83.4539409348719,87.36923076923074L85,89.29107692307694L86.49618619205947,91.20923076923077L88.04224525718756,92.39261538461537L89.53843144924701,94.73723076923078L91.08449051437512,97.8406153846154L92.63054957950322,101.43323076923073L94.02699002542539,100.44184615384617L95.57304909055348,97.12246153846155L97.06923528261295,94.11138461538462L98.61529434774106,92.8873846153846L100.1114805398005,93.15692307692309L101.65753960492862,95.26338461538461L103.2035986700567,98.616L104.69978486211618,101.32615384615383L106.24584392724428,103.72800000000001L107.74203011930373,105.91384615384617L109.28808918443184,108.8436923076923L110.83414824955995,111.24923076923075L112.2305886954821,111.15692307692309L113.7766477606102,108.63876923076924L115.27283395266967,105.81415384615386L116.81889301779776,103.50461538461538L118.31507920985722,102.77907692307691L119.86113827498534,103.80923076923075L121.40719734011343,106.79446153846155L122.9033835321729,110.03999999999998L124.449442597301,113.25784615384613L125.94562878936046,116.02153846153846L127.49168785448856,117.85846153846154L129.03774691961667,118.16492307692307L130.48406023860747,114.69969230769229L132.03011930373557,109.8683076923077L133.52630549579501,105.1070769230769L135.07236456092315,101.19876923076923L136.5685507529826,99.15323076923076L138.11460981811072,98.37415384615385L139.6606688832388,99.01292307692309L141.15685507529824,99.72923076923078L142.70291414042637,99.73846153846155L144.1991003324858,99.90830769230773L145.74515939761395,99.09046153846155L147.29121846274202,97.52492307692307L148.6876589086642,92.34830769230773L150.2337179737923,86.78215384615386L151.72990416585176,81.44123076923077L153.27596323097984,76.70400000000001L154.7721494230393,73.27384615384615L156.31820848816741,71.232L157.86426755329552,70.71507692307694L159.360453745355,70.92553846153848L160.90651281048306,71.27261538461538L162.40269900254253,71.41846153846154L163.94875806767064,71.24676923076925L165.49481713279874,70.31261538461541L166.8912575787209,67.87938461538462L168.43731664384902,64.59692307692309L169.93350283590848,61.43446153846156L171.4795619010366,58.62092307692305L172.97574809309603,56.92430769230769L174.52180715822414,56.340923076923076L176.06786622335224,56.717538461538474L177.56405241541168,57.32307692307694L179.1101114805398,57.77723076923075L180.60629767259925,58.131692307692305L182.1523567377274,58.513846153846146L183.69841580285546,57.799384615384604L185.09485624877763,55.10215384615387L186.6409153139057,51.6258461538462L188.13710150596518,48.14953846153844L189.68316057109328,45.1956923076923L191.17934676315275,43.268307692307715L192.72540582828086,42.443076923076944L194.27146489340896,42.230769230769226L195.7676510854684,42.208615384615385L197.3137101505965,42.022153846153856L198.80989634265597,42.059076923076944L200.35595540778408,42.204923076923066L201.90201447291219,41.75261538461535L203.348327791903,39.31938461538462L204.89438685703112,35.8283076923077L206.39057304909056,32.39815384615386L207.93663211421864,29.451692307692312L209.4328183062781,27.372923076923072L210.9788773714062,26.16738461538462L212.52493643653432,25.611692307692294L214.0211226285938,25.46030769230768L215.56718169372186,25.04307692307691L217.06336788578133,24.694153846153796L218.60942695090944,24.227076923076908L220.15548601603754,23.501538461538445L221.5519264619597,20.693538461538466L223.09798552708781,16.96246153846151L224.59417171914728,13.259076923076947L226.1402307842754,10.04861538461536L227.63641697633486,7.713230769230762L229.18247604146293,6.155076923076933L230.72853510659104,5.278153846153856L232.2247212986505,4.776000000000039L233.7707803637786,4.0800000000000125L235.26696655583805,3.374769230769232L236.8130256209662,3.3581538461538685L238.35908468609426,1.8221538461538387" fill="none" stroke="#af516c" stroke-linejoin="round" stroke-linecap="round" stroke-width="2"></path></g></g></svg>