<svg xmlns="http://www.w3.org/2000/svg" viewBox="0 0 304 270"><style>/* <![CDATA[ */.chart-title{font-size:20px;fill:#43423e}.chart-subtitle{font-size:15px;fill:#74736c}.chart-source{font-size:10px;fill-opacity:.4}.axis .domain{fill:none;stroke:#74736c}.tick line{fill:none;stroke:#000;stroke-opacity:.2}.tick text{fill-opacity:.6;font-size:12px}.y.axis .tick line{stroke-dasharray:1}.y.axis .domain{fill:none;stroke-opacity:0}.y.axis .highlight-line{fill:none;stroke:#74736c}/* ]]> */</style><text class="chart-title" y="22">新房销售</text><text class="chart-subtitle" y="42">千</text><text class="chart-source" y="265">来源:彭博. 2018年4月24日</text><g transform="translate(1,100)"><g class="x axis" transform="translate(0,120)" fill="none" font-size="10" font-family="sans-serif" text-anchor="middle"><path class="domain" stroke="#000" d="M0.5,0V0.5H255.5V0"></path><g class="tick" opacity="1" transform="translate(18.703598670056717,0)"><line stroke="#000" y2="6"></line><text fill="#000" y="9" dy="0.71em">2006</text></g><g class="tick" opacity="1" transform="translate(55.110796010170155,0)"><line stroke="#000" y2="6"></line><text fill="#000" y="9" dy="0.71em">2008</text></g><g class="tick" opacity="1" transform="translate(91.56786622335224,0)"><line stroke="#000" y2="6"></line><text fill="#000" y="9" dy="0.71em">2010</text></g><g class="tick" opacity="1" transform="translate(127.97506356346567,0)"><line stroke="#000" y2="6"></line><text fill="#000" y="9" dy="0.71em">2012</text></g><g class="tick" opacity="1" transform="translate(164.43213377664776,0)"><line stroke="#000" y2="6"></line><text fill="#000" y="9" dy="0.71em">2014</text></g><g class="tick" opacity="1" transform="translate(200.8393311167612,0)"><line stroke="#000" y2="6"></line><text fill="#000" y="9" dy="0.71em">2016</text></g><g class="tick" opacity="1" transform="translate(237.29640132994328,0)"><line stroke="#000" y2="6"></line><text fill="#000" y="9" dy="0.71em">2018</text></g></g><g class="y axis" transform="translate(255,0)" fill="none" font-size="10" font-family="sans-serif" text-anchor="start"><path class="domain" stroke="#000" d="M0,120.5H0.5V0.5H0"></path><g class="tick" opacity="1" transform="translate(0,106.55898123324397)"><line stroke="#000" x2="-255"></line><text fill="#000" x="3" dy="0.32em">400</text></g><g class="tick" opacity="1" transform="translate(0,85.1112600536193)"><line stroke="#000" x2="-255"></line><text fill="#000" x="3" dy="0.32em">600</text></g><g class="tick" opacity="1" transform="translate(0,63.66353887399464)"><line stroke="#000" x2="-255"></line><text fill="#000" x="3" dy="0.32em">800</text></g><g class="tick" opacity="1" transform="translate(0,42.215817694369974)"><line stroke="#000" x2="-255"></line><text fill="#000" x="3" dy="0.32em">1,000</text></g><g class="tick" opacity="1" transform="translate(0,20.76809651474531)"><line stroke="#000" x2="-255"></line><text fill="#000" x="3" dy="0.32em">1,200</text></g></g><g><path d="M1.512810483082339,19.94638069705094L2.9092509290044983,7.506702412868634L4.4553099941326035,6.541554959785515L5.95149618619206,13.833780160857899L7.497555251320164,11.045576407506701L8.993741443379621,12.332439678284175L10.539800508507724,0L12.08585957363583,14.369973190348531L13.582045765695286,15.549597855227887L15.128104830823391,5.683646112600542L16.624291022882847,18.766756032171585L18.170350088010952,16.08579088471849L19.716409153139058,23.056300268096507L21.112849599061217,35.174262734584445L22.658908664189322,29.276139410187668L24.15509485624878,28.5254691689008L25.701153921376882,32.493297587131366L27.197340113436336,33.78016085790884L28.74339917856444,45.46916890080428L30.289458243692547,37.96246648793566L31.785644435752005,40L33.33170350088011,48.04289544235925L34.827889692939564,41.394101876675606L36.37394875806767,41.930294906166225L37.920007823195775,53.40482573726541L39.316448269117934,60.160857908847184L40.86250733424604,59.62466487935657L42.358693526305494,53.83378016085791L43.9047525914336,58.65951742627346L45.40093878349306,63.9142091152815L46.946997848621166,65.52278820375335L48.49305691374927,73.9946380697051L49.989243105808725,75.3887399463807L51.53530217093683,70.99195710455764L53.031488362996285,80.21447721179624L54.57754742812438,82.57372654155495L56.12360649325249,81.71581769436997L57.5699198122433,85.36193029490616L59.115978877371404,91.58176943699732L60.612165069430866,91.4745308310992L62.15822413455897,94.90616621983915L63.654410326618425,96.72922252010724L65.20046939174654,97.80160857908847L66.74652845687463,102.30563002680965L68.24271464893408,102.5201072386059L69.7887737140622,106.80965147453082L71.28495990612166,107.23860589812332L72.83101897124975,108.5254691689008L74.37707803637787,112.92225201072387L75.77351848230002,109.06166219839142L77.31957754742812,112.60053619302948L78.81576373948758,112.81501340482573L80.36182280461568,108.63270777479893L81.85800899667514,106.80965147453082L83.40406806180326,104.87935656836461L84.95012712693135,104.12868632707774L86.4463133189908,107.5603217158177L87.99237238411891,106.48793565683646L89.48855857617836,108.73994638069705L91.03461764130648,111.20643431635389L92.58067670643457,111.95710455764075L93.97711715235674,112.92225201072387L95.52317621748485,108.09651474530831L97.01936240954429,103.69973190348526L98.5654214746724,118.92761394101876L100.06160766673186,116.24664879356568L101.60766673185996,118.6058981233244L103.15372579698807,118.71313672922253L104.64991198904752,114.95978552278821L106.19597105417563,117.7479892761394L107.69215724623508,118.17694369973191L109.2382163113632,113.99463806970509L110.7842753764913,116.03217158176943L112.18071582241346,120L113.72677488754155,116.7828418230563L115.222961079601,115.71045576407506L116.76902014472913,116.24664879356568L118.26520633678858,116.67560321715818L119.81126540191669,117.21179624664879L121.35732446704479,116.89008042895442L122.85351065910424,116.3538873994638L124.39956972423235,115.06702412868633L125.8957559162918,113.78016085790884L127.44181498141991,112.38605898123325L128.987874046548,113.02949061662198L130.43418736553883,109.70509383378015L131.9802464306669,110.99195710455764L133.47643262272638,110.99195710455764L135.02249168785448,109.27613941018767L136.51867787991395,110.3485254691689L138.06473694504206,109.38337801608579L139.61079601017016,108.73994638069705L141.1069822022296,107.66756032171583L142.6530412673577,110.56300268096514L144.14922745941718,106.91689008042896L145.69528652454528,106.16621983914209L147.2413455896734,101.55495978552278L148.63778603559555,101.87667560321717L150.18384510072366,100.80428954423593L151.6800312927831,100.58981233243968L153.2260903579112,102.84182305630027L154.72227654997064,99.30294906166219L156.26833561509875,108.63270777479893L157.81439468022688,108.20375335120643L159.31058087228632,106.16621983914209L160.85663993741446,101.34048257372655L162.3528261294739,101.1260053619303L163.89888519460197,101.66219839142092L165.4449442597301,101.01876675603216L166.84138470565225,103.59249329758713L168.38744377078035,104.98659517426273L169.88362996283982,105.95174262734585L171.42968902796792,100.48257372654156L172.9258752200274,104.343163538874L174.4719342851555,105.84450402144772L176.01799335028358,100.80428954423593L177.51417954234304,98.98123324396784L179.06023860747115,98.12332439678283L180.55642479953062,101.1260053619303L182.10248386465872,96.19302949061662L183.6485429297868,92.8686327077748L185.044983375709,90.0804289544236L186.5910424408371,97.37265415549598L188.08722863289654,95.33512064343164L189.63328769802465,94.90616621983915L191.12947389008409,97.9088471849866L192.6755329552122,95.54959785522789L194.22159202034032,93.94101876675603L195.71777821239976,99.51742627345845L197.26383727752787,97.26541554959786L198.7600234695873,94.47721179624665L200.30608253471542,91.4745308310992L201.85214159984355,93.19034852546918L203.29845491883435,92.65415549597856L204.84451398396246,91.79624664879356L206.34070017602193,88.2573726541555L207.88675924115,88.90080428954423L209.38294543320944,89.00804289544236L210.92900449833758,81.71581769436997L212.47506356346568,88.15013404825737L213.97124975552512,87.828418230563L215.51730882065326,87.07774798927613L217.0134950127127,86.8632707774799L218.5595540778408,90.18766756032171L220.1056131429689,84.71849865951742L221.50205358889104,83.00268096514745L223.04811265401915,80.53619302949062L224.54429884607862,85.68364611260054L226.09035791120672,83.96782841823057L227.5865441032662,82.57372654155495L229.1326031683943,88.47184986595174L230.67866223352237,89.00804289544236L232.17484842558184,80.4289544235925L233.72090749070995,82.89544235924933L235.21709368276942,72.70777479892762L236.76315274789752,79.89276139410188L238.3092118130256,79.89276139410188L239.7056522589478,77.42627345844504L241.2517113240759,74.53083109919571" fill="none" stroke="#af516c" stroke-linejoin="round" stroke-linecap="round" stroke-width="2"></path></g></g></svg>