<svg xmlns="http://www.w3.org/2000/svg" viewBox="0 0 304 270"><style>/* <![CDATA[ */.chart-title{font-size:20px;fill:#43423e}.chart-subtitle{font-size:15px;fill:#74736c}.chart-source{font-size:10px;fill-opacity:.4}.axis .domain{fill:none;stroke:#74736c}.tick line{fill:none;stroke:#000;stroke-opacity:.2}.tick text{fill-opacity:.6;font-size:12px}.y.axis .tick line{stroke-dasharray:1}.y.axis .domain{fill:none;stroke-opacity:0}.y.axis .highlight-line{fill:none;stroke:#74736c}/* ]]> */</style><text class="chart-title" y="22">Services output</text><text class="chart-subtitle" y="42">年增长％</text><text class="chart-source" y="265">来源:英国国家统计局╱彭博. 2018年4月27日</text><g transform="translate(1,100)"><g class="x axis" transform="translate(0,120)" fill="none" font-size="10" font-family="sans-serif" text-anchor="middle"><path class="domain" stroke="#000" d="M0.5,0V0.5H255.5V0"></path><g class="tick" opacity="1" transform="translate(18.703598670056717,0)"><line stroke="#000" y2="6"></line><text fill="#000" y="9" dy="0.71em">2006</text></g><g class="tick" opacity="1" transform="translate(55.110796010170155,0)"><line stroke="#000" y2="6"></line><text fill="#000" y="9" dy="0.71em">2008</text></g><g class="tick" opacity="1" transform="translate(91.56786622335224,0)"><line stroke="#000" y2="6"></line><text fill="#000" y="9" dy="0.71em">2010</text></g><g class="tick" opacity="1" transform="translate(127.97506356346567,0)"><line stroke="#000" y2="6"></line><text fill="#000" y="9" dy="0.71em">2012</text></g><g class="tick" opacity="1" transform="translate(164.43213377664776,0)"><line stroke="#000" y2="6"></line><text fill="#000" y="9" dy="0.71em">2014</text></g><g class="tick" opacity="1" transform="translate(200.8393311167612,0)"><line stroke="#000" y2="6"></line><text fill="#000" y="9" dy="0.71em">2016</text></g><g class="tick" opacity="1" transform="translate(237.29640132994328,0)"><line stroke="#000" y2="6"></line><text fill="#000" y="9" dy="0.71em">2018</text></g></g><g class="y axis" transform="translate(255,0)" fill="none" font-size="10" font-family="sans-serif" text-anchor="start"><path class="domain" stroke="#000" d="M0,120.5H0.5V0.5H0"></path><g class="tick" opacity="1" transform="translate(0,120.5)"><line stroke="#000" x2="-255"></line><text fill="#000" x="3" dy="0.32em">-5</text></g><g class="tick" opacity="1" transform="translate(0,74.34615384615384)"><line stroke="#000" x2="-255"></line><text fill="#000" x="3" dy="0.32em">0</text></g><g class="tick" opacity="1" transform="translate(0,28.192307692307693)"><line stroke="#000" x2="-255"></line><text fill="#000" x="3" dy="0.32em">5</text></g><line class="highlight-line" x1="0" y1="73.84615384615384" x2="-255" y2="73.84615384615384"></line></g><g><path d="M1.512810483082339,45.230769230769226L2.9092509290044983,49.846153846153854L4.4553099941326035,53.53846153846153L5.95149618619206,39.69230769230769L7.497555251320164,43.38461538461537L8.993741443379621,42.46153846153845L10.539800508507724,29.538461538461533L12.08585957363583,26.769230769230774L13.582045765695286,23.07692307692308L15.128104830823391,14.769230769230774L16.624291022882847,7.384615384615387L18.170350088010952,2.7692307692307736L19.716409153139058,23.07692307692308L21.112849599061217,21.23076923076924L22.658908664189322,18.461538461538467L24.15509485624878,37.84615384615384L25.701153921376882,31.384615384615387L27.197340113436336,34.153846153846146L28.74339917856444,51.69230769230769L30.289458243692547,50.769230769230774L31.785644435752005,55.38461538461539L33.33170350088011,66.46153846153847L34.827889692939564,72.92307692307693L36.37394875806767,70.15384615384616L37.920007823195775,64.61538461538461L39.316448269117934,56.30769230769231L40.86250733424604,54.46153846153847L42.358693526305494,48.92307692307692L43.9047525914336,54.46153846153847L45.40093878349306,53.53846153846153L46.946997848621166,44.30769230769231L48.49305691374927,45.230769230769226L49.989243105808725,42.46153846153845L51.53530217093683,40.61538461538461L53.031488362996285,36.92307692307692L54.57754742812438,41.53846153846153L56.12360649325249,39.69230769230769L57.5699198122433,45.230769230769226L59.115978877371404,53.53846153846153L60.612165069430866,50.769230769230774L62.15822413455897,58.153846153846146L63.654410326618425,62.76923076923077L65.20046939174654,72L66.74652845687463,76.61538461538461L68.24271464893408,87.6923076923077L69.7887737140622,93.23076923076923L71.28495990612166,102.46153846153847L72.83101897124975,103.38461538461539L74.37707803637787,106.15384615384616L75.77351848230002,110.76923076923077L77.31957754742812,113.53846153846153L78.81576373948758,108.92307692307692L80.36182280461568,109.84615384615384L81.85800899667514,108L83.40406806180326,97.84615384615384L84.95012712693135,98.76923076923077L86.4463133189908,90.46153846153845L87.99237238411891,84L89.48855857617836,79.38461538461539L91.03461764130648,79.38461538461539L92.58067670643457,84L93.97711715235674,72.92307692307693L95.52317621748485,61.84615384615385L97.01936240954429,72.92307692307693L98.5654214746724,62.76923076923077L100.06160766673186,56.30769230769231L101.60766673185996,61.84615384615385L103.15372579698807,58.153846153846146L104.64991198904752,57.230769230769226L106.19597105417563,53.53846153846153L107.69215724623508,52.61538461538461L109.2382163113632,62.76923076923077L110.7842753764913,51.69230769230769L112.18071582241346,55.38461538461539L113.72677488754155,53.53846153846153L115.222961079601,60L116.76902014472913,53.53846153846153L118.26520633678858,61.84615384615385L119.81126540191669,60L121.35732446704479,61.84615384615385L122.85351065910424,61.84615384615385L124.39956972423235,73.84615384615384L125.8957559162918,64.61538461538461L127.44181498141991,57.230769230769226L128.987874046548,50.769230769230774L130.43418736553883,60L131.9802464306669,58.153846153846146L133.47643262272638,53.53846153846153L135.02249168785448,50.769230769230774L136.51867787991395,60.92307692307692L138.06473694504206,46.153846153846146L139.61079601017016,37.84615384615384L141.1069822022296,46.153846153846146L142.6530412673577,34.153846153846146L144.14922745941718,46.153846153846146L145.69528652454528,49.846153846153854L147.2413455896734,55.38461538461539L148.63778603559555,46.153846153846146L150.18384510072366,54.46153846153847L151.6800312927831,50.769230769230774L153.2260903579112,60L154.72227654997064,48L156.26833561509875,62.76923076923077L157.81439468022688,65.53846153846153L159.31058087228632,60.92307692307692L160.85663993741446,60.92307692307692L162.3528261294739,58.153846153846146L163.89888519460197,58.153846153846146L165.4449442597301,53.53846153846153L166.84138470565225,55.38461538461539L168.38744377078035,48.92307692307692L169.88362996283982,45.230769230769226L171.42968902796792,43.38461538461537L172.9258752200274,42.46153846153845L174.4719342851555,39.69230769230769L176.01799335028358,41.53846153846153L177.51417954234304,38.76923076923076L179.06023860747115,34.153846153846146L180.55642479953062,35.07692307692308L182.10248386465872,30.461538461538467L183.6485429297868,39.69230769230769L185.044983375709,41.53846153846153L186.5910424408371,47.076923076923066L188.08722863289654,45.230769230769226L189.63328769802465,48.92307692307692L191.12947389008409,48L192.6755329552122,52.61538461538461L194.22159202034032,54.46153846153847L195.71777821239976,51.69230769230769L197.26383727752787,60L198.7600234695873,56.30769230769231L200.30608253471542,53.53846153846153L201.85214159984355,50.769230769230774L203.29845491883435,48L204.84451398396246,52.61538461538461L206.34070017602193,53.53846153846153L207.88675924115,52.61538461538461L209.38294543320944,52.61538461538461L210.92900449833758,50.769230769230774L212.47506356346568,47.076923076923066L213.97124975552512,48L215.51730882065326,48L217.0134950127127,50.769230769230774L218.5595540778408,52.61538461538461L220.1056131429689,54.46153846153847L221.50205358889104,60.92307692307692L223.04811265401915,53.53846153846153L224.54429884607862,59.07692307692308L226.09035791120672,56.30769230769231L227.5865441032662,56.30769230769231L229.1326031683943,59.07692307692308L230.67866223352237,61.84615384615385L232.17484842558184,64.61538461538461L233.72090749070995,65.53846153846153L235.21709368276942,61.84615384615385L236.76315274789752,62.76923076923077L238.3092118130256,61.84615384615385L239.7056522589478,61.84615384615385" fill="none" stroke="#af516c" stroke-linejoin="round" stroke-linecap="round" stroke-width="2"></path></g></g></svg>