<svg xmlns="http://www.w3.org/2000/svg" viewBox="0 0 304 270"><style>/* <![CDATA[ */.chart-title{font-size:20px;fill:#43423e}.chart-subtitle{font-size:15px;fill:#74736c}.chart-source{font-size:10px;fill-opacity:.4}.axis .domain{fill:none;stroke:#74736c}.tick line{fill:none;stroke:#000;stroke-opacity:.2}.tick text{fill-opacity:.6;font-size:12px}.y.axis .tick line{stroke-dasharray:1}.y.axis .domain{fill:none;stroke-opacity:0}.y.axis .highlight-line{fill:none;stroke:#74736c}/* ]]> */</style><text class="chart-title" y="22">服务业活动</text><text class="chart-subtitle" y="42">数值大于50代表扩张</text><text class="chart-source" y="265">来源:Markit╱彭博. 2018年5月3日</text><g transform="translate(1,100)"><g class="x axis" transform="translate(0,120)" fill="none" font-size="10" font-family="sans-serif" text-anchor="middle"><path class="domain" stroke="#000" d="M0.5,0V0.5H255.5V0"></path><g class="tick" opacity="1" transform="translate(59.57750631844987,0)"><line stroke="#000" y2="6"></line><text fill="#000" y="9" dy="0.71em">2016</text></g><g class="tick" opacity="1" transform="translate(138.20429654591405,0)"><line stroke="#000" y2="6"></line><text fill="#000" y="9" dy="0.71em">2017</text></g><g class="tick" opacity="1" transform="translate(216.6162594776748,0)"><line stroke="#000" y2="6"></line><text fill="#000" y="9" dy="0.71em">2018</text></g></g><g class="y axis" transform="translate(255,0)" fill="none" font-size="10" font-family="sans-serif" text-anchor="start"><path class="domain" stroke="#000" d="M0,120.5H0.5V0.5H0"></path><g class="tick" opacity="1" transform="translate(0,110.5)"><line stroke="#000" x2="-255"></line><text fill="#000" x="3" dy="0.32em">48</text></g><g class="tick" opacity="1" transform="translate(0,90.5)"><line stroke="#000" x2="-255"></line><text fill="#000" x="3" dy="0.32em">50</text></g><g class="tick" opacity="1" transform="translate(0,70.5)"><line stroke="#000" x2="-255"></line><text fill="#000" x="3" dy="0.32em">52</text></g><g class="tick" opacity="1" transform="translate(0,50.5)"><line stroke="#000" x2="-255"></line><text fill="#000" x="3" dy="0.32em">54</text></g><g class="tick" opacity="1" transform="translate(0,30.5)"><line stroke="#000" x2="-255"></line><text fill="#000" x="3" dy="0.32em">56</text></g><g class="tick" opacity="1" transform="translate(0,10.5)"><line stroke="#000" x2="-255"></line><text fill="#000" x="3" dy="0.32em">58</text></g></g><g><path d="M12.961246840775063,25L19.406065711878686,5L26.06571187868576,16.000000000000014L32.72535804549284,33.999999999999986L39.17017691659646,57.00000000000002L45.82982308340354,41.000000000000014L52.27464195450716,31.000000000000014L58.93428812131424,35L65.59393428812132,33.999999999999986L71.82392586352148,62.99999999999997L78.48357203032856,52.99999999999997L84.92839090143218,67.00000000000003L91.58803706823926,55L98.03285593934288,67.00000000000003L104.69250210614996,116.00000000000001L111.35214827295704,61.000000000000014L117.79696714406066,63.999999999999986L124.45661331086774,45L130.90143218197136,37.99999999999997L137.56107834877844,27.99999999999997L144.22072451558552,45L150.23588879528225,57.00000000000002L156.8955349620893,40L163.34035383319292,32.00000000000003L170,52.00000000000003L176.44481887110362,56.000000000000014L183.1044650379107,52.00000000000003L189.76411120471778,57.999999999999964L196.2089300758214,53.999999999999986L202.86857624262848,33.999999999999986L209.3133951137321,52.00000000000003L215.97304128053918,47.99999999999997L222.63268744734626,60L228.64785172704296,45L235.30749789385004,72.99999999999997L241.75231676495366,62.00000000000003" fill="none" stroke="#af516c" stroke-linejoin="round" stroke-linecap="round" stroke-width="2"></path></g></g></svg>