<svg xmlns="http://www.w3.org/2000/svg" viewBox="0 0 304 270"><style>/* <![CDATA[ */.chart-title{font-size:20px;fill:#43423e}.chart-subtitle{font-size:15px;fill:#74736c}.chart-source{font-size:10px;fill-opacity:.4}.axis .domain{fill:none;stroke:#74736c}.tick line{fill:none;stroke:#000;stroke-opacity:.2}.tick text{fill-opacity:.6;font-size:12px}.y.axis .tick line{stroke-dasharray:1}.y.axis .domain{fill:none;stroke-opacity:0}.y.axis .highlight-line{fill:none;stroke:#74736c}/* ]]> */</style><text class="chart-title" y="22">上证指数</text><text class="chart-subtitle" y="42"> </text><text class="chart-source" y="265">来源:CEIC. 2018年3月30日</text><g transform="translate(1,100)"><g class="x axis" transform="translate(0,120)" fill="none" font-size="10" font-family="sans-serif" text-anchor="middle"><path class="domain" stroke="#000" d="M0.5,0V0.5H255.5V0"></path><g class="tick" opacity="1" transform="translate(18.703598670056717,0)"><line stroke="#000" y2="6"></line><text fill="#000" y="9" dy="0.71em">2006</text></g><g class="tick" opacity="1" transform="translate(55.110796010170155,0)"><line stroke="#000" y2="6"></line><text fill="#000" y="9" dy="0.71em">2008</text></g><g class="tick" opacity="1" transform="translate(91.56786622335224,0)"><line stroke="#000" y2="6"></line><text fill="#000" y="9" dy="0.71em">2010</text></g><g class="tick" opacity="1" transform="translate(127.97506356346567,0)"><line stroke="#000" y2="6"></line><text fill="#000" y="9" dy="0.71em">2012</text></g><g class="tick" opacity="1" transform="translate(164.43213377664776,0)"><line stroke="#000" y2="6"></line><text fill="#000" y="9" dy="0.71em">2014</text></g><g class="tick" opacity="1" transform="translate(200.8393311167612,0)"><line stroke="#000" y2="6"></line><text fill="#000" y="9" dy="0.71em">2016</text></g><g class="tick" opacity="1" transform="translate(237.29640132994328,0)"><line stroke="#000" y2="6"></line><text fill="#000" y="9" dy="0.71em">2018</text></g></g><g class="y axis" transform="translate(255,0)" fill="none" font-size="10" font-family="sans-serif" text-anchor="start"><path class="domain" stroke="#000" d="M0,120.5H0.5V0.5H0"></path><g class="tick" opacity="1" transform="translate(0,97.45607763023493)"><line stroke="#000" x2="-255"></line><text fill="#000" x="3" dy="0.32em">2,000</text></g><g class="tick" opacity="1" transform="translate(0,72.94126659856997)"><line stroke="#000" x2="-255"></line><text fill="#000" x="3" dy="0.32em">3,000</text></g><g class="tick" opacity="1" transform="translate(0,48.426455566905005)"><line stroke="#000" x2="-255"></line><text fill="#000" x="3" dy="0.32em">4,000</text></g><g class="tick" opacity="1" transform="translate(0,23.911644535240043)"><line stroke="#000" x2="-255"></line><text fill="#000" x="3" dy="0.32em">5,000</text></g></g><g><path d="M1.5626833561509876,113.96935648621042L2.959123802073147,117.02782431052094L4.505182867201252,117.56935648621041L6.001369059260709,119.98185903983656L7.547428124388813,119.48665985699694L9.043614316448268,119.43542390194075L10.589673381576374,117.47987742594485L12.135732446704479,117.65613891726251L13.631918638763935,119.19542390194076L15.17797770389204,119.03754851889683L16.674163895951498,117.52253319713994L18.220222961079603,115.14484167517875L19.76628202620771,114.14022471910113L21.162722472129865,114.15812053115424L22.70878153725797,110.67897854954035L24.204967729317424,105.74954034729316L25.75102679444553,104.9917875383044L27.247212986504987,106.44992849846783L28.793272051633092,105.32445352400408L30.339331116761198,103.02545454545455L31.835517308820652,100.92772216547498L33.381576373948754,94.52200204290092L34.877762566008215,80.39705822267621L36.42382163113632,77.6791011235955L37.969880696264426,75.35681307456588L39.36632114218658,67.93103166496425L40.91238020731468,51.817691521961194L42.408566399374145,45.23840653728294L43.95462546450225,52.32196118488254L45.450811656561704,36.379244126659856L46.99687072168981,18.047068437180798L48.542929786817915,9.872114402451473L50.039115978877376,0.0056384065372725445L51.58517504400548,26.554933605720123L53.081361236064936,16.999550561797733L54.62742030119304,38.52772216547497L56.173479366321146,39.3820633299285L57.61979268531195,60.852870275791624L59.165851750440055,55.44980592441266L60.66203794249951,61.817773237997955L62.208097007627615,78.91072522982635L63.704283199687076,77.93944841675179L65.25034226481517,87.21462717058222L66.79640132994328,89.7541164453524L68.29258752200275,103.60473953013279L69.83864658713084,100.11456588355465L71.3348327791903,101.34888661899899L72.88089184431841,97.18504596527069L74.4269509094465,94.9250255362615L75.82339135536867,87.80690500510724L77.36945042049676,85.2485393258427L78.86563661255623,81.43991828396324L80.41169567768434,73.43754851889683L81.90788186974379,62.3396935648621L83.4539409348719,80.58631256384066L85,77.84849846782431L86.49618619205947,72.54300306435138L88.04224525718756,67.6535240040858L89.53843144924701,65.64723186925434L91.08449051437512,72.7038202247191L92.63054957950322,71.16796731358528L94.02699002542539,69.766455566905L95.57304909055348,75.6132379979571L97.06923528261295,82.43963227783452L98.61529434774106,87.19011235955057L100.1114805398005,81.32788559754852L101.65753960492862,81.29601634320736L103.2035986700567,80.88269662921348L104.69978486211618,72.96000000000001L106.24584392724428,76.84951991828396L107.74203011930373,77.14614913176712L109.28808918443184,77.57246169560776L110.83414824955995,74.76894790602655L112.2305886954821,74.20363636363636L113.7766477606102,74.610582226762L115.27283395266967,78.73005107252298L116.81889301779776,78.2738304392237L118.31507920985722,79.75329928498468L119.86113827498534,83.04784473953013L121.40719734011343,88.14986721144025L122.9033835321729,85.47701736465783L124.449442597301,88.78259448416752L125.94562878936046,92.0673340143003L127.49168785448856,89.78279877425945L129.03774691961667,86.45172625127682L130.48406023860747,90.5138304392237L132.03011930373557,87.24036772216547L133.52630549579501,87.83092951991827L135.07236456092315,91.4297037793667L136.5685507529826,94.41560776302349L138.11460981811072,95.79113381001022L139.6606688832388,94.84363636363636L141.15685507529824,95.26749744637385L142.70291414042637,97.44343207354444L144.1991003324858,90.35840653728295L145.74515939761395,87.50757916241062L147.29121846274202,87.99370786516855L148.6876589086642,91.15538304392237L150.2337179737923,92.59464759959143L151.72990416585176,89.58692543411644L153.27596323097984,97.46574055158325L154.7721494230393,97.10806945863126L156.31820848816741,94.54431052093973L157.86426755329552,92.67407558733402L159.360453745355,93.48453524004086L160.90651281048306,91.5505617977528L162.40269900254253,94.11284984678244L163.94875806767064,96.14512768130746L165.49481713279874,95.57589376915219L166.8912575787209,96.13948927477017L168.43731664384902,96.30986721144025L169.93350283590848,95.99485188968335L171.4795619010366,95.77127681307456L172.97574809309603,92.01487231869254L174.52180715822414,91.63146067415731L176.06786622335224,88.03587334014301L177.56405241541168,86.65544433094996L179.1101114805398,80.21638406537282L180.60629767259925,66.68813074565884L182.1523567377274,67.28433094994892L183.69841580285546,64.83432073544432L185.09485624877763,54.106639427987744L186.6409153139057,37.09948927477018L188.13710150596518,32.92976506639428L189.68316057109328,41.13045965270685L191.17934676315275,56.17005107252298L192.72540582828086,67.39146067415732L194.27146489340896,71.1473748723187L195.7676510854684,63.06288049029622L197.3137101505965,61.522369765066394L198.80989634265597,59.22337078651686L200.35595540778408,78.87395301327885L201.90201447291219,80.09037793667008L203.348327791903,72.34516853932584L204.89438685703112,73.95334014300306L206.39057304909056,74.48531154239019L207.93663211421864,74.16686414708886L209.4328183062781,72.94774259448417L210.9788773714062,70.34549540347294L212.52493643653432,72.32604698672114L214.0211226285938,69.97777323799797L215.56718169372186,66.31182839632277L217.06336788578133,69.90055158324822L218.60942695090944,68.53924412665985L220.15548601603754,66.5153013278856L221.5519264619597,66.98647599591419L223.09798552708781,68.64980592441268L224.59417171914728,69.56862104187948L226.1402307842754,67.72388151174668L227.63641697633486,65.74798774259449L229.18247604146293,63.59607763023494L230.72853510659104,63.887068437180794L232.2247212986505,62.798610827374866L233.7707803637786,64.66541368743616L235.26696655583805,64.91105209397344L236.8130256209662,60.65381001021451L238.35908468609426,66.08187946884576L239.75552513201643,68.30071501532176" fill="none" stroke="#af516c" stroke-linejoin="round" stroke-linecap="round" stroke-width="2"></path></g></g></svg>