<svg xmlns="http://www.w3.org/2000/svg" viewBox="0 0 304 270"><style>/* <![CDATA[ */.chart-title{font-size:20px;fill:#43423e}.chart-subtitle{font-size:15px;fill:#74736c}.chart-source{font-size:10px;fill-opacity:.4}.axis .domain{fill:none;stroke:#74736c}.tick line{fill:none;stroke:#000;stroke-opacity:.2}.tick text{fill-opacity:.6;font-size:12px}.y.axis .tick line{stroke-dasharray:1}.y.axis .domain{fill:none;stroke-opacity:0}.y.axis .highlight-line{fill:none;stroke:#74736c}/* ]]> */</style><text class="chart-title" y="22">Slovakia GDP forecast</text><text class="chart-subtitle" y="42">By date of forecast, annual % change</text><text class="chart-source" y="265">来源:彭博. 2018年5月7日</text><g transform="translate(1,100)"><g class="x axis" transform="translate(0,120)" fill="none" font-size="10" font-family="sans-serif" text-anchor="middle"><path class="domain" stroke="#000" d="M0.5,0V0.5H255.5V0"></path><g class="tick" opacity="1" transform="translate(0.5,0)"><line stroke="#000" y2="6"></line><text fill="#000" y="9" dy="0.71em">July</text></g><g class="tick" opacity="1" transform="translate(32.636986301369866,0)"><line stroke="#000" y2="6"></line><text fill="#000" y="9" dy="0.71em">October</text></g><g class="tick" opacity="1" transform="translate(64.77397260273973,0)"><line stroke="#000" y2="6"></line><text fill="#000" y="9" dy="0.71em">2017</text></g><g class="tick" opacity="1" transform="translate(96.2123287671233,0)"><line stroke="#000" y2="6"></line><text fill="#000" y="9" dy="0.71em">April</text></g><g class="tick" opacity="1" transform="translate(128,0)"><line stroke="#000" y2="6"></line><text fill="#000" y="9" dy="0.71em">July</text></g><g class="tick" opacity="1" transform="translate(160.13698630136986,0)"><line stroke="#000" y2="6"></line><text fill="#000" y="9" dy="0.71em">October</text></g><g class="tick" opacity="1" transform="translate(192.27397260273972,0)"><line stroke="#000" y2="6"></line><text fill="#000" y="9" dy="0.71em">2018</text></g><g class="tick" opacity="1" transform="translate(223.7123287671233,0)"><line stroke="#000" y2="6"></line><text fill="#000" y="9" dy="0.71em">April</text></g><g class="tick" opacity="1" transform="translate(255.5,0)"><line stroke="#000" y2="6"></line><text fill="#000" y="9" dy="0.71em">July</text></g></g><g class="y axis" transform="translate(255,0)" fill="none" font-size="10" font-family="sans-serif" text-anchor="start"><path class="domain" stroke="#000" d="M0,120.5H0.5V0.5H0"></path><g class="tick" opacity="1" transform="translate(0,120.5)"><line stroke="#000" x2="-255"></line><text fill="#000" x="3" dy="0.32em">3.0</text></g><g class="tick" opacity="1" transform="translate(0,96.49999999999997)"><line stroke="#000" x2="-255"></line><text fill="#000" x="3" dy="0.32em">3.2</text></g><g class="tick" opacity="1" transform="translate(0,72.50000000000001)"><line stroke="#000" x2="-255"></line><text fill="#000" x="3" dy="0.32em">3.4</text></g><g class="tick" opacity="1" transform="translate(0,48.499999999999986)"><line stroke="#000" x2="-255"></line><text fill="#000" x="3" dy="0.32em">3.6</text></g><g class="tick" opacity="1" transform="translate(0,24.50000000000003)"><line stroke="#000" x2="-255"></line><text fill="#000" x="3" dy="0.32em">3.8</text></g><g class="tick" opacity="1" transform="translate(0,0.5)"><line stroke="#000" x2="-255"></line><text fill="#000" x="3" dy="0.32em">4.0</text></g></g><g class="chart-key" transform="translate(0, -35)"><g class="key-element" transform="translate(0,0)"><text x="28" font-size="12">2017</text><line x1="0" x2="25" y1="-5" y2="-5" stroke-width="2" fill="none" stroke="#af516c"></line></g><g class="key-element" transform="translate(0,20)"><text x="28" font-size="12">2018</text><line x1="0" x2="25" y1="-5" y2="-5" stroke-width="2" fill="none" stroke="#76acb8"></line></g></g><g><path d="M21.773972602739725,102.00000000000001L22.123287671232877,102.00000000000001L23.17123287671233,102.00000000000001L23.52054794520548,102.00000000000001L23.86986301369863,102.00000000000001L24.21917808219178,102.00000000000001L24.56849315068493,102.00000000000001L25.616438356164384,102.00000000000001L25.965753424657535,102.00000000000001L26.315068493150683,102.00000000000001L26.664383561643838,102.00000000000001L27.013698630136986,102.00000000000001L28.061643835616437,102.00000000000001L28.41095890410959,102.00000000000001L28.76027397260274,102.00000000000001L29.109589041095887,102.00000000000001L29.458904109589042,102.00000000000001L30.506849315068493,107.99999999999999L30.85616438356164,107.99999999999999L31.205479452054796,107.99999999999999L31.554794520547944,107.99999999999999L31.9041095890411,107.99999999999999L32.95205479452054,107.99999999999999L33.301369863013704,107.99999999999999L33.65068493150685,107.99999999999999L34,107.99999999999999L34.34931506849315,107.99999999999999L35.397260273972606,107.99999999999999L35.74657534246575,107.99999999999999L36.0958904109589,107.99999999999999L36.44520547945205,107.99999999999999L36.794520547945204,107.99999999999999L37.842465753424655,107.99999999999999L38.1917808219178,107.99999999999999L38.54109589041096,107.99999999999999L38.89041095890411,107.99999999999999L39.23972602739726,107.99999999999999L40.28767123287671,107.99999999999999L40.636986301369866,107.99999999999999L40.986301369863014,107.99999999999999L41.33561643835616,107.99999999999999L41.68493150684932,107.99999999999999L42.73287671232877,95.99999999999997L43.082191780821915,95.99999999999997L43.43150684931507,95.99999999999997L43.78082191780822,95.99999999999997L44.13013698630137,95.99999999999997L45.178082191780824,95.99999999999997L45.52739726027397,95.99999999999997L45.87671232876713,95.99999999999997L46.226027397260275,95.99999999999997L46.57534246575342,95.99999999999997L47.62328767123288,95.99999999999997L47.97260273972603,95.99999999999997L48.321917808219176,95.99999999999997L48.67123287671233,95.99999999999997L49.02054794520548,95.99999999999997L50.06849315068493,95.99999999999997L50.417808219178085,95.99999999999997L50.76712328767123,95.99999999999997L51.11643835616438,95.99999999999997L51.465753424657535,107.99999999999999L52.513698630136986,107.99999999999999L52.863013698630134,107.99999999999999L53.21232876712329,107.99999999999999L53.56164383561644,107.99999999999999L53.91095890410959,107.99999999999999L54.95890410958904,107.99999999999999L55.30821917808219,107.99999999999999L55.657534246575345,107.99999999999999L56.00684931506849,107.99999999999999L56.35616438356164,107.99999999999999L57.4041095890411,107.99999999999999L57.75342465753425,107.99999999999999L58.102739726027394,107.99999999999999L58.45205479452055,107.99999999999999L58.8013698630137,107.99999999999999L59.84931506849315,107.99999999999999L60.1986301369863,107.99999999999999L60.54794520547945,107.99999999999999L60.897260273972606,107.99999999999999L61.24657534246575,107.99999999999999L62.294520547945204,114.00000000000003L62.64383561643836,114.00000000000003L62.99315068493151,114.00000000000003L63.342465753424655,114.00000000000003L63.6917808219178,114.00000000000003L64.73972602739725,114.00000000000003L65.08904109589042,114.00000000000003L65.43835616438356,114.00000000000003L65.78767123287672,114.00000000000003L66.13698630136986,114.00000000000003L67.18493150684931,114.00000000000003L67.53424657534246,114.00000000000003L67.8835616438356,114.00000000000003L68.23287671232876,114.00000000000003L68.58219178082193,114.00000000000003L69.63013698630137,114.00000000000003L69.97945205479452,114.00000000000003L70.32876712328768,114.00000000000003L70.67808219178082,114.00000000000003L71.02739726027397,114.00000000000003L72.07534246575344,114.00000000000003L72.42465753424658,114.00000000000003L72.77397260273973,114.00000000000003L73.12328767123287,114.00000000000003L73.47260273972603,114.00000000000003L74.52054794520548,114.00000000000003L74.86986301369862,114.00000000000003L75.21917808219177,114.00000000000003L75.56849315068494,114.00000000000003L75.91780821917808,114.00000000000003L76.96575342465754,114.00000000000003L77.31506849315069,114.00000000000003L77.66438356164383,114.00000000000003L78.01369863013699,114.00000000000003L78.36301369863013,114.00000000000003L79.41095890410959,114.00000000000003L79.76027397260275,114.00000000000003L80.10958904109589,114.00000000000003L80.45890410958904,114.00000000000003L80.8082191780822,114.00000000000003L81.85616438356163,114.00000000000003L82.2054794520548,114.00000000000003L82.55479452054794,114.00000000000003L82.9041095890411,114.00000000000003L83.25342465753425,102.00000000000001L84.30136986301369,102.00000000000001L84.65068493150685,102.00000000000001L85,102.00000000000001L85.34931506849314,102.00000000000001L85.69863013698631,102.00000000000001L86.74657534246576,102.00000000000001L87.0958904109589,102.00000000000001L87.44520547945206,102.00000000000001L87.7945205479452,102.00000000000001L88.14383561643835,102.00000000000001L89.19178082191782,102.00000000000001L89.54109589041096,102.00000000000001L89.89041095890411,102.00000000000001L90.23972602739727,102.00000000000001L90.58904109589041,102.00000000000001L91.63698630136986,102.00000000000001L91.98630136986301,102.00000000000001L92.33561643835615,102.00000000000001L92.68493150684932,102.00000000000001L93.03424657534246,102.00000000000001L94.08219178082192,107.99999999999999L94.43150684931507,107.99999999999999L94.78082191780821,107.99999999999999L95.13013698630137,107.99999999999999L95.47945205479452,107.99999999999999L96.52739726027397,107.99999999999999L96.87671232876713,107.99999999999999L97.22602739726028,107.99999999999999L97.57534246575342,107.99999999999999L97.92465753424658,107.99999999999999L98.97260273972603,107.99999999999999L99.32191780821917,107.99999999999999L99.67123287671234,107.99999999999999L100.02054794520548,107.99999999999999L100.36986301369863,107.99999999999999L101.41780821917808,107.99999999999999L101.76712328767123,107.99999999999999L102.11643835616438,107.99999999999999L102.46575342465754,107.99999999999999L102.81506849315069,107.99999999999999L103.86301369863014,107.99999999999999L104.2123287671233,107.99999999999999L104.56164383561644,107.99999999999999L104.91095890410959,107.99999999999999L105.26027397260273,107.99999999999999L106.3082191780822,107.99999999999999L106.65753424657535,107.99999999999999L107.0068493150685,107.99999999999999L107.35616438356165,107.99999999999999L107.70547945205479,107.99999999999999L108.75342465753424,107.99999999999999L109.1027397260274,107.99999999999999L109.45205479452054,107.99999999999999L109.8013698630137,107.99999999999999L110.15068493150686,107.99999999999999L111.1986301369863,107.99999999999999L111.54794520547945,107.99999999999999L111.8972602739726,107.99999999999999L112.24657534246575,107.99999999999999L112.5958904109589,107.99999999999999L113.64383561643837,107.99999999999999L113.9931506849315,107.99999999999999L114.34246575342466,107.99999999999999L114.6917808219178,107.99999999999999L115.04109589041096,95.99999999999997L116.08904109589041,95.99999999999997L116.43835616438355,95.99999999999997L116.78767123287672,95.99999999999997L117.13698630136987,95.99999999999997L117.48630136986301,95.99999999999997L118.53424657534246,95.99999999999997L118.88356164383562,95.99999999999997L119.23287671232876,95.99999999999997L119.58219178082192,95.99999999999997L119.93150684931506,95.99999999999997L120.97945205479452,95.99999999999997L121.32876712328768,95.99999999999997L121.67808219178082,95.99999999999997L122.02739726027397,95.99999999999997L122.37671232876713,95.99999999999997L123.42465753424656,95.99999999999997L123.77397260273973,95.99999999999997L124.12328767123289,95.99999999999997L124.47260273972603,95.99999999999997L124.82191780821918,95.99999999999997L125.86986301369863,95.99999999999997L126.21917808219177,95.99999999999997L126.56849315068493,95.99999999999997L126.91780821917807,95.99999999999997L127.26712328767124,95.99999999999997L128.31506849315068,95.99999999999997L128.66438356164386,95.99999999999997L129.013698630137,95.99999999999997L129.36301369863014,95.99999999999997L129.7123287671233,95.99999999999997L130.76027397260273,95.99999999999997L131.1095890410959,95.99999999999997L131.45890410958904,95.99999999999997L131.80821917808217,95.99999999999997L132.15753424657535,95.99999999999997L133.20547945205482,95.99999999999997L133.55479452054794,95.99999999999997L133.9041095890411,95.99999999999997L134.25342465753423,95.99999999999997L134.6027397260274,95.99999999999997L135.65068493150687,95.99999999999997L136,95.99999999999997L136.34931506849315,95.99999999999997L136.6986301369863,95.99999999999997L137.04794520547946,95.99999999999997L138.0958904109589,95.99999999999997L138.44520547945206,95.99999999999997L138.79452054794518,95.99999999999997L139.14383561643837,95.99999999999997L139.49315068493152,95.99999999999997L140.54109589041096,95.99999999999997L140.8904109589041,95.99999999999997L141.23972602739724,95.99999999999997L141.58904109589042,95.99999999999997L141.93835616438355,95.99999999999997L142.986301369863,95.99999999999997L143.33561643835617,95.99999999999997L143.68493150684932,95.99999999999997L144.03424657534248,95.99999999999997L144.3835616438356,95.99999999999997L145.43150684931507,95.99999999999997L145.7808219178082,95.99999999999997L146.13013698630138,95.99999999999997L146.47945205479454,95.99999999999997L146.82876712328766,95.99999999999997L147.87671232876713,95.99999999999997L148.22602739726025,95.99999999999997L148.57534246575344,95.99999999999997L148.92465753424656,84.00000000000003L149.27397260273972,84.00000000000003L150.32191780821918,84.00000000000003L150.6712328767123,84.00000000000003L151.0205479452055,84.00000000000003L151.36986301369862,84.00000000000003L151.71917808219177,84.00000000000003L152.7671232876712,84.00000000000003L153.1164383561644,84.00000000000003L153.46575342465755,84.00000000000003L153.81506849315068,84.00000000000003L154.16438356164383,84.00000000000003L155.21232876712327,84.00000000000003L155.56164383561645,84.00000000000003L155.91095890410958,84.00000000000003L156.26027397260273,84.00000000000003L156.60958904109592,84.00000000000003L157.65753424657532,84.00000000000003L158.0068493150685,84.00000000000003L158.35616438356163,84.00000000000003L158.7054794520548,84.00000000000003L159.05479452054794,84.00000000000003L160.1027397260274,84.00000000000003L160.45205479452056,84.00000000000003L160.8013698630137,84.00000000000003L161.15068493150685,84.00000000000003L161.5,84.00000000000003L162.54794520547946,84.00000000000003L162.8972602739726,84.00000000000003L163.24657534246575,84.00000000000003L163.59589041095893,84.00000000000003L163.94520547945206,84.00000000000003L164.99315068493152,84.00000000000003L165.34246575342465,84.00000000000003L165.6917808219178,84.00000000000003L166.04109589041096,84.00000000000003L166.3904109589041,84.00000000000003L167.43835616438358,84.00000000000003L167.7876712328767,84.00000000000003L168.13698630136986,84.00000000000003L168.486301369863,84.00000000000003L168.83561643835617,84.00000000000003L169.8835616438356,84.00000000000003L170.23287671232876,84.00000000000003L170.58219178082192,84.00000000000003L170.93150684931507,84.00000000000003L171.28082191780823,84.00000000000003L172.32876712328766,84.00000000000003L172.67808219178082,84.00000000000003L173.02739726027397,84.00000000000003L173.37671232876713,84.00000000000003L173.72602739726028,84.00000000000003L174.77397260273972,84.00000000000003L175.12328767123287,84.00000000000003L175.47260273972603,84.00000000000003L175.82191780821918,84.00000000000003L176.1712328767123,84.00000000000003L177.21917808219177,84.00000000000003L177.56849315068493,84.00000000000003L177.91780821917808,84.00000000000003L178.26712328767124,84.00000000000003L178.61643835616437,84.00000000000003L179.66438356164383,84.00000000000003L180.013698630137,84.00000000000003L180.36301369863014,84.00000000000003L180.7123287671233,84.00000000000003L181.06164383561642,84.00000000000003L182.1095890410959,84.00000000000003L182.45890410958904,84.00000000000003L182.8082191780822,84.00000000000003L183.15753424657532,84.00000000000003L183.5068493150685,84.00000000000003L184.55479452054794,84.00000000000003L184.9041095890411,84.00000000000003L185.25342465753425,84.00000000000003L185.60273972602738,84.00000000000003L185.95205479452056,84.00000000000003L187,84.00000000000003L187.34931506849315,84.00000000000003L187.6986301369863,84.00000000000003L188.04794520547944,84.00000000000003L188.39726027397262,84.00000000000003L189.44520547945206,84.00000000000003L189.7945205479452,84.00000000000003L190.14383561643834,84.00000000000003L190.49315068493152,84.00000000000003L190.84246575342468,84.00000000000003L191.8904109589041,84.00000000000003L192.23972602739727,84.00000000000003L192.5890410958904,84.00000000000003L192.93835616438358,84.00000000000003L193.2876712328767,84.00000000000003L194.33561643835617,84.00000000000003L194.68493150684932,84.00000000000003L195.03424657534245,84.00000000000003L195.38356164383563,84.00000000000003L195.73287671232876,84.00000000000003L196.78082191780823,84.00000000000003L197.13013698630135,84.00000000000003L197.4794520547945,84.00000000000003L197.8287671232877,84.00000000000003L198.17808219178082,84.00000000000003L199.22602739726028,84.00000000000003L199.5753424657534,84.00000000000003L199.9246575342466,84.00000000000003L200.27397260273972,84.00000000000003L200.62328767123287,84.00000000000003L201.67123287671234,84.00000000000003L202.02054794520546,84.00000000000003L202.36986301369865,84.00000000000003L202.71917808219177,84.00000000000003L203.06849315068493,84.00000000000003L204.11643835616437,84.00000000000003L204.46575342465752,84.00000000000003L204.8150684931507,84.00000000000003L205.16438356164383,84.00000000000003L205.513698630137,84.00000000000003L206.56164383561642,84.00000000000003L206.9109589041096,84.00000000000003L207.26027397260273,84.00000000000003L207.6095890410959,84.00000000000003L207.95890410958904,84.00000000000003L209.00684931506848,84.00000000000003L209.35616438356166,84.00000000000003L209.7054794520548,84.00000000000003L210.05479452054794,84.00000000000003L210.4041095890411,84.00000000000003L211.45205479452054,84.00000000000003L211.80136986301372,84.00000000000003L212.15068493150685,84.00000000000003L212.5,84.00000000000003L212.84931506849315,84.00000000000003L213.89726027397262,84.00000000000003L214.24657534246575,84.00000000000003L214.5958904109589,84.00000000000003L214.94520547945206,84.00000000000003L215.2945205479452,84.00000000000003L216.34246575342468,84.00000000000003L216.6917808219178,84.00000000000003L217.04109589041096,84.00000000000003L217.3904109589041,84.00000000000003L217.73972602739727,84.00000000000003L218.78767123287673,84.00000000000003L219.13698630136986,84.00000000000003L219.486301369863,84.00000000000003L219.83561643835617,84.00000000000003L220.18493150684932,84.00000000000003L221.23287671232876,84.00000000000003L221.58219178082192,84.00000000000003L221.93150684931507,84.00000000000003" fill="none" stroke="#af516c" stroke-linejoin="round" stroke-linecap="round" stroke-width="2"></path><path d="M21.773972602739725,107.99999999999999L22.123287671232877,107.99999999999999L23.17123287671233,107.99999999999999L23.52054794520548,107.99999999999999L23.86986301369863,107.99999999999999L24.21917808219178,107.99999999999999L24.56849315068493,107.99999999999999L25.616438356164384,107.99999999999999L25.965753424657535,107.99999999999999L26.315068493150683,107.99999999999999L26.664383561643838,107.99999999999999L27.013698630136986,107.99999999999999L28.061643835616437,107.99999999999999L28.41095890410959,107.99999999999999L28.76027397260274,107.99999999999999L29.109589041095887,107.99999999999999L29.458904109589042,107.99999999999999L30.506849315068493,95.99999999999997L30.85616438356164,95.99999999999997L31.205479452054796,95.99999999999997L31.554794520547944,95.99999999999997L31.9041095890411,95.99999999999997L32.95205479452054,95.99999999999997L33.301369863013704,95.99999999999997L33.65068493150685,95.99999999999997L34,95.99999999999997L34.34931506849315,95.99999999999997L35.397260273972606,95.99999999999997L35.74657534246575,95.99999999999997L36.0958904109589,95.99999999999997L36.44520547945205,95.99999999999997L36.794520547945204,95.99999999999997L37.842465753424655,95.99999999999997L38.1917808219178,95.99999999999997L38.54109589041096,95.99999999999997L38.89041095890411,95.99999999999997L39.23972602739726,95.99999999999997L40.28767123287671,95.99999999999997L40.636986301369866,95.99999999999997L40.986301369863014,95.99999999999997L41.33561643835616,95.99999999999997L41.68493150684932,95.99999999999997L42.73287671232877,95.99999999999997L43.082191780821915,95.99999999999997L43.43150684931507,95.99999999999997L43.78082191780822,95.99999999999997L44.13013698630137,95.99999999999997L45.178082191780824,95.99999999999997L45.52739726027397,95.99999999999997L45.87671232876713,95.99999999999997L46.226027397260275,95.99999999999997L46.57534246575342,95.99999999999997L47.62328767123288,95.99999999999997L47.97260273972603,95.99999999999997L48.321917808219176,120L48.67123287671233,120L49.02054794520548,120L50.06849315068493,120L50.417808219178085,120L50.76712328767123,120L51.11643835616438,120L51.465753424657535,120L52.513698630136986,120L52.863013698630134,120L53.21232876712329,120L53.56164383561644,120L53.91095890410959,120L54.95890410958904,120L55.30821917808219,120L55.657534246575345,120L56.00684931506849,120L56.35616438356164,120L57.4041095890411,120L57.75342465753425,120L58.102739726027394,120L58.45205479452055,120L58.8013698630137,120L59.84931506849315,120L60.1986301369863,120L60.54794520547945,120L60.897260273972606,120L61.24657534246575,120L62.294520547945204,95.99999999999997L62.64383561643836,95.99999999999997L62.99315068493151,95.99999999999997L63.342465753424655,95.99999999999997L63.6917808219178,95.99999999999997L64.73972602739725,95.99999999999997L65.08904109589042,95.99999999999997L65.43835616438356,95.99999999999997L65.78767123287672,95.99999999999997L66.13698630136986,95.99999999999997L67.18493150684931,95.99999999999997L67.53424657534246,95.99999999999997L67.8835616438356,95.99999999999997L68.23287671232876,95.99999999999997L68.58219178082193,95.99999999999997L69.63013698630137,95.99999999999997L69.97945205479452,95.99999999999997L70.32876712328768,95.99999999999997L70.67808219178082,95.99999999999997L71.02739726027397,95.99999999999997L72.07534246575344,95.99999999999997L72.42465753424658,95.99999999999997L72.77397260273973,95.99999999999997L73.12328767123287,95.99999999999997L73.47260273972603,95.99999999999997L74.52054794520548,95.99999999999997L74.86986301369862,107.99999999999999L75.21917808219177,107.99999999999999L75.56849315068494,107.99999999999999L75.91780821917808,107.99999999999999L76.96575342465754,107.99999999999999L77.31506849315069,107.99999999999999L77.66438356164383,107.99999999999999L78.01369863013699,107.99999999999999L78.36301369863013,107.99999999999999L79.41095890410959,107.99999999999999L79.76027397260275,107.99999999999999L80.10958904109589,107.99999999999999L80.45890410958904,107.99999999999999L80.8082191780822,107.99999999999999L81.85616438356163,107.99999999999999L82.2054794520548,107.99999999999999L82.55479452054794,107.99999999999999L82.9041095890411,107.99999999999999L83.25342465753425,65.99999999999997L84.30136986301369,65.99999999999997L84.65068493150685,65.99999999999997L85,65.99999999999997L85.34931506849314,65.99999999999997L85.69863013698631,65.99999999999997L86.74657534246576,65.99999999999997L87.0958904109589,65.99999999999997L87.44520547945206,65.99999999999997L87.7945205479452,65.99999999999997L88.14383561643835,65.99999999999997L89.19178082191782,65.99999999999997L89.54109589041096,65.99999999999997L89.89041095890411,65.99999999999997L90.23972602739727,65.99999999999997L90.58904109589041,65.99999999999997L91.63698630136986,65.99999999999997L91.98630136986301,65.99999999999997L92.33561643835615,65.99999999999997L92.68493150684932,65.99999999999997L93.03424657534246,65.99999999999997L94.08219178082192,60L94.43150684931507,60L94.78082191780821,60L95.13013698630137,60L95.47945205479452,60L96.52739726027397,60L96.87671232876713,60L97.22602739726028,60L97.57534246575342,60L97.92465753424658,60L98.97260273972603,60L99.32191780821917,60L99.67123287671234,60L100.02054794520548,60L100.36986301369863,60L101.41780821917808,60L101.76712328767123,60L102.11643835616438,60L102.46575342465754,60L102.81506849315069,60L103.86301369863014,60L104.2123287671233,60L104.56164383561644,60L104.91095890410959,60L105.26027397260273,60L106.3082191780822,60L106.65753424657535,60L107.0068493150685,60L107.35616438356165,60L107.70547945205479,60L108.75342465753424,60L109.1027397260274,60L109.45205479452054,60L109.8013698630137,60L110.15068493150686,60L111.1986301369863,60L111.54794520547945,60L111.8972602739726,60L112.24657534246575,60L112.5958904109589,60L113.64383561643837,60L113.9931506849315,60L114.34246575342466,60L114.6917808219178,60L115.04109589041096,60L116.08904109589041,60L116.43835616438355,60L116.78767123287672,60L117.13698630136987,60L117.48630136986301,60L118.53424657534246,60L118.88356164383562,60L119.23287671232876,60L119.58219178082192,60L119.93150684931506,60L120.97945205479452,60L121.32876712328768,60L121.67808219178082,60L122.02739726027397,60L122.37671232876713,60L123.42465753424656,60L123.77397260273973,60L124.12328767123289,60L124.47260273972603,60L124.82191780821918,60L125.86986301369863,60L126.21917808219177,60L126.56849315068493,60L126.91780821917807,60L127.26712328767124,60L128.31506849315068,60L128.66438356164386,60L129.013698630137,60L129.36301369863014,60L129.7123287671233,60L130.76027397260273,60L131.1095890410959,60L131.45890410958904,60L131.80821917808217,60L132.15753424657535,60L133.20547945205482,60L133.55479452054794,60L133.9041095890411,60L134.25342465753423,60L134.6027397260274,60L135.65068493150687,60L136,60L136.34931506849315,60L136.6986301369863,60L137.04794520547946,60L138.0958904109589,60L138.44520547945206,60L138.79452054794518,60L139.14383561643837,60L139.49315068493152,60L140.54109589041096,60L140.8904109589041,60L141.23972602739724,60L141.58904109589042,60L141.93835616438355,60L142.986301369863,60L143.33561643835617,60L143.68493150684932,60L144.03424657534248,60L144.3835616438356,60L145.43150684931507,60L145.7808219178082,60L146.13013698630138,60L146.47945205479454,60L146.82876712328766,60L147.87671232876713,60L148.22602739726025,60L148.57534246575344,60L148.92465753424656,47.999999999999986L149.27397260273972,47.999999999999986L150.32191780821918,47.999999999999986L150.6712328767123,47.999999999999986L151.0205479452055,47.999999999999986L151.36986301369862,47.999999999999986L151.71917808219177,47.999999999999986L152.7671232876712,47.999999999999986L153.1164383561644,47.999999999999986L153.46575342465755,47.999999999999986L153.81506849315068,47.999999999999986L154.16438356164383,47.999999999999986L155.21232876712327,47.999999999999986L155.56164383561645,47.999999999999986L155.91095890410958,47.999999999999986L156.26027397260273,47.999999999999986L156.60958904109592,47.999999999999986L157.65753424657532,47.999999999999986L158.0068493150685,47.999999999999986L158.35616438356163,47.999999999999986L158.7054794520548,47.999999999999986L159.05479452054794,47.999999999999986L160.1027397260274,47.999999999999986L160.45205479452056,47.999999999999986L160.8013698630137,47.999999999999986L161.15068493150685,47.999999999999986L161.5,47.999999999999986L162.54794520547946,47.999999999999986L162.8972602739726,47.999999999999986L163.24657534246575,47.999999999999986L163.59589041095893,47.999999999999986L163.94520547945206,47.999999999999986L164.99315068493152,47.999999999999986L165.34246575342465,47.999999999999986L165.6917808219178,47.999999999999986L166.04109589041096,47.999999999999986L166.3904109589041,47.999999999999986L167.43835616438358,47.999999999999986L167.7876712328767,47.999999999999986L168.13698630136986,47.999999999999986L168.486301369863,47.999999999999986L168.83561643835617,47.999999999999986L169.8835616438356,47.999999999999986L170.23287671232876,47.999999999999986L170.58219178082192,47.999999999999986L170.93150684931507,47.999999999999986L171.28082191780823,47.999999999999986L172.32876712328766,47.999999999999986L172.67808219178082,47.999999999999986L173.02739726027397,47.999999999999986L173.37671232876713,47.999999999999986L173.72602739726028,47.999999999999986L174.77397260273972,47.999999999999986L175.12328767123287,47.999999999999986L175.47260273972603,47.999999999999986L175.82191780821918,47.999999999999986L176.1712328767123,47.999999999999986L177.21917808219177,47.999999999999986L177.56849315068493,47.999999999999986L177.91780821917808,47.999999999999986L178.26712328767124,47.999999999999986L178.61643835616437,47.999999999999986L179.66438356164383,47.999999999999986L180.013698630137,47.999999999999986L180.36301369863014,47.999999999999986L180.7123287671233,47.999999999999986L181.06164383561642,47.999999999999986L182.1095890410959,47.999999999999986L182.45890410958904,47.999999999999986L182.8082191780822,47.999999999999986L183.15753424657532,47.999999999999986L183.5068493150685,47.999999999999986L184.55479452054794,47.999999999999986L184.9041095890411,47.999999999999986L185.25342465753425,47.999999999999986L185.60273972602738,47.999999999999986L185.95205479452056,47.999999999999986L187,47.999999999999986L187.34931506849315,47.999999999999986L187.6986301369863,47.999999999999986L188.04794520547944,47.999999999999986L188.39726027397262,47.999999999999986L189.44520547945206,47.999999999999986L189.7945205479452,47.999999999999986L190.14383561643834,47.999999999999986L190.49315068493152,47.999999999999986L190.84246575342468,47.999999999999986L191.8904109589041,47.999999999999986L192.23972602739727,47.999999999999986L192.5890410958904,47.999999999999986L192.93835616438358,47.999999999999986L193.2876712328767,47.999999999999986L194.33561643835617,47.999999999999986L194.68493150684932,47.999999999999986L195.03424657534245,47.999999999999986L195.38356164383563,47.999999999999986L195.73287671232876,47.999999999999986L196.78082191780823,47.999999999999986L197.13013698630135,47.999999999999986L197.4794520547945,47.999999999999986L197.8287671232877,47.999999999999986L198.17808219178082,47.999999999999986L199.22602739726028,47.999999999999986L199.5753424657534,47.999999999999986L199.9246575342466,47.999999999999986L200.27397260273972,47.999999999999986L200.62328767123287,47.999999999999986L201.67123287671234,47.999999999999986L202.02054794520546,47.999999999999986L202.36986301369865,47.999999999999986L202.71917808219177,47.999999999999986L203.06849315068493,47.999999999999986L204.11643835616437,47.999999999999986L204.46575342465752,47.999999999999986L204.8150684931507,47.999999999999986L205.16438356164383,47.999999999999986L205.513698630137,47.999999999999986L206.56164383561642,47.999999999999986L206.9109589041096,47.999999999999986L207.26027397260273,47.999999999999986L207.6095890410959,47.999999999999986L207.95890410958904,47.999999999999986L209.00684931506848,47.999999999999986L209.35616438356166,47.999999999999986L209.7054794520548,47.999999999999986L210.05479452054794,47.999999999999986L210.4041095890411,47.999999999999986L211.45205479452054,47.999999999999986L211.80136986301372,47.999999999999986L212.15068493150685,47.999999999999986L212.5,47.999999999999986L212.84931506849315,47.999999999999986L213.89726027397262,47.999999999999986L214.24657534246575,47.999999999999986L214.5958904109589,47.999999999999986L214.94520547945206,47.999999999999986L215.2945205479452,47.999999999999986L216.34246575342468,47.999999999999986L216.6917808219178,47.999999999999986L217.04109589041096,47.999999999999986L217.3904109589041,47.999999999999986L217.73972602739727,47.999999999999986L218.78767123287673,47.999999999999986L219.13698630136986,47.999999999999986L219.486301369863,47.999999999999986L219.83561643835617,47.999999999999986L220.18493150684932,47.999999999999986L221.23287671232876,47.999999999999986L221.58219178082192,47.999999999999986L221.93150684931507,47.999999999999986L222.28082191780823,47.999999999999986L222.63013698630138,47.999999999999986L223.67808219178082,47.999999999999986L224.02739726027397,47.999999999999986L224.3767123287671,47.999999999999986L224.72602739726028,47.999999999999986L225.0753424657534,47.999999999999986L226.12328767123287,47.999999999999986L226.47260273972603,47.999999999999986L226.82191780821918,47.999999999999986L227.17123287671234,47.999999999999986L227.52054794520546,47.999999999999986L228.56849315068493,47.999999999999986L228.91780821917808,47.999999999999986L229.26712328767124,47.999999999999986L229.6164383561644,47.999999999999986L229.96575342465752,47.999999999999986L231.013698630137,47.999999999999986L231.3630136986301,47.999999999999986L231.7123287671233,47.999999999999986L232.06164383561645,47.999999999999986L232.41095890410958,35.99999999999997L233.45890410958904,35.99999999999997L233.8082191780822,35.99999999999997L234.15753424657535,35.99999999999997L234.50684931506848,35.99999999999997L234.85616438356163,35.99999999999997L235.9041095890411,35.99999999999997" fill="none" stroke="#76acb8" stroke-linejoin="round" stroke-linecap="round" stroke-width="2"></path></g></g></svg>