<svg xmlns="http://www.w3.org/2000/svg" viewBox="0 0 304 270"><style>/* <![CDATA[ */.chart-title{font-size:20px;fill:#43423e}.chart-subtitle{font-size:15px;fill:#74736c}.chart-source{font-size:10px;fill-opacity:.4}.axis .domain{fill:none;stroke:#74736c}.tick line{fill:none;stroke:#000;stroke-opacity:.2}.tick text{fill-opacity:.6;font-size:12px}.y.axis .tick line{stroke-dasharray:1}.y.axis .domain{fill:none;stroke-opacity:0}.y.axis .highlight-line{fill:none;stroke:#74736c}/* ]]> */</style><text class="chart-title" y="22">Slovakia current account forecast</text><text class="chart-subtitle" y="42">By date of forecast, % of GDP</text><text class="chart-source" y="265">来源:彭博. 2018年5月4日</text><g transform="translate(1,100)"><g class="x axis" transform="translate(0,120)" fill="none" font-size="10" font-family="sans-serif" text-anchor="middle"><path class="domain" stroke="#000" d="M0.5,0V0.5H255.5V0"></path><g class="tick" opacity="1" transform="translate(0.5,0)"><line stroke="#000" y2="6"></line><text fill="#000" y="9" dy="0.71em">July</text></g><g class="tick" opacity="1" transform="translate(32.636986301369866,0)"><line stroke="#000" y2="6"></line><text fill="#000" y="9" dy="0.71em">October</text></g><g class="tick" opacity="1" transform="translate(64.77397260273973,0)"><line stroke="#000" y2="6"></line><text fill="#000" y="9" dy="0.71em">2017</text></g><g class="tick" opacity="1" transform="translate(96.2123287671233,0)"><line stroke="#000" y2="6"></line><text fill="#000" y="9" dy="0.71em">April</text></g><g class="tick" opacity="1" transform="translate(128,0)"><line stroke="#000" y2="6"></line><text fill="#000" y="9" dy="0.71em">July</text></g><g class="tick" opacity="1" transform="translate(160.13698630136986,0)"><line stroke="#000" y2="6"></line><text fill="#000" y="9" dy="0.71em">October</text></g><g class="tick" opacity="1" transform="translate(192.27397260273972,0)"><line stroke="#000" y2="6"></line><text fill="#000" y="9" dy="0.71em">2018</text></g><g class="tick" opacity="1" transform="translate(223.7123287671233,0)"><line stroke="#000" y2="6"></line><text fill="#000" y="9" dy="0.71em">April</text></g><g class="tick" opacity="1" transform="translate(255.5,0)"><line stroke="#000" y2="6"></line><text fill="#000" y="9" dy="0.71em">July</text></g></g><g class="y axis" transform="translate(255,0)" fill="none" font-size="10" font-family="sans-serif" text-anchor="start"><path class="domain" stroke="#000" d="M0,120.5H0.5V0.5H0"></path><g class="tick" opacity="1" transform="translate(0,120.5)"><line stroke="#000" x2="-255"></line><text fill="#000" x="3" dy="0.32em">-2</text></g><g class="tick" opacity="1" transform="translate(0,80.5)"><line stroke="#000" x2="-255"></line><text fill="#000" x="3" dy="0.32em">-1</text></g><g class="tick" opacity="1" transform="translate(0,40.5)"><line stroke="#000" x2="-255"></line><text fill="#000" x="3" dy="0.32em">0</text></g><g class="tick" opacity="1" transform="translate(0,0.5)"><line stroke="#000" x2="-255"></line><text fill="#000" x="3" dy="0.32em">1</text></g><line class="highlight-line" x1="0" y1="40" x2="-255" y2="40"></line></g><g class="chart-key" transform="translate(0, -35)"><g class="key-element" transform="translate(0,0)"><text x="28" font-size="12">2017</text><line x1="0" x2="25" y1="-5" y2="-5" stroke-width="2" fill="none" stroke="#af516c"></line></g><g class="key-element" transform="translate(0,20)"><text x="28" font-size="12">2018</text><line x1="0" x2="25" y1="-5" y2="-5" stroke-width="2" fill="none" stroke="#76acb8"></line></g></g><g><path d="M21.773972602739725,88L22.123287671232877,88L23.17123287671233,88L23.52054794520548,88L23.86986301369863,88L24.21917808219178,88L24.56849315068493,88L25.616438356164384,88L25.965753424657535,88L26.315068493150683,88L26.664383561643838,88L27.013698630136986,88L28.061643835616437,88L28.41095890410959,88L28.76027397260274,88L29.109589041095887,88L29.458904109589042,88L30.506849315068493,84L30.85616438356164,84L31.205479452054796,84L31.554794520547944,84L31.9041095890411,84L32.95205479452054,84L33.301369863013704,84L33.65068493150685,84L34,84L34.34931506849315,84L35.397260273972606,84L35.74657534246575,84L36.0958904109589,84L36.44520547945205,84L36.794520547945204,84L37.842465753424655,84L38.1917808219178,84L38.54109589041096,84L38.89041095890411,84L39.23972602739726,84L40.28767123287671,84L40.636986301369866,84L40.986301369863014,84L41.33561643835616,84L41.68493150684932,84L42.73287671232877,84L43.082191780821915,84L43.43150684931507,84L43.78082191780822,84L44.13013698630137,84L45.178082191780824,84L45.52739726027397,84L45.87671232876713,84L46.226027397260275,84L46.57534246575342,84L47.62328767123288,84L47.97260273972603,84L48.321917808219176,84L48.67123287671233,84L49.02054794520548,84L50.06849315068493,84L50.417808219178085,84L50.76712328767123,84L51.11643835616438,84L51.465753424657535,56L52.513698630136986,56L52.863013698630134,56L53.21232876712329,56L53.56164383561644,56L53.91095890410959,56L54.95890410958904,56L55.30821917808219,56L55.657534246575345,56L56.00684931506849,56L56.35616438356164,56L57.4041095890411,56L57.75342465753425,56L58.102739726027394,56L58.45205479452055,56L58.8013698630137,56L59.84931506849315,56L60.1986301369863,56L60.54794520547945,56L60.897260273972606,56L61.24657534246575,56L62.294520547945204,68L62.64383561643836,68L62.99315068493151,68L63.342465753424655,68L63.6917808219178,68L64.73972602739725,68L65.08904109589042,68L65.43835616438356,68L65.78767123287672,68L66.13698630136986,68L67.18493150684931,68L67.53424657534246,68L67.8835616438356,68L68.23287671232876,68L68.58219178082193,68L69.63013698630137,68L69.97945205479452,68L70.32876712328768,68L70.67808219178082,68L71.02739726027397,68L72.07534246575344,68L72.42465753424658,68L72.77397260273973,68L73.12328767123287,68L73.47260273972603,68L74.52054794520548,68L74.86986301369862,44L75.21917808219177,44L75.56849315068494,44L75.91780821917808,44L76.96575342465754,44L77.31506849315069,44L77.66438356164383,44L78.01369863013699,44L78.36301369863013,44L79.41095890410959,44L79.76027397260275,44L80.10958904109589,44L80.45890410958904,44L80.8082191780822,44L81.85616438356163,44L82.2054794520548,44L82.55479452054794,44L82.9041095890411,44L83.25342465753425,35.999999999999986L84.30136986301369,35.999999999999986L84.65068493150685,44L85,44L85.34931506849314,44L85.69863013698631,44L86.74657534246576,44L87.0958904109589,44L87.44520547945206,44L87.7945205479452,44L88.14383561643835,44L89.19178082191782,44L89.54109589041096,44L89.89041095890411,44L90.23972602739727,44L90.58904109589041,44L91.63698630136986,44L91.98630136986301,44L92.33561643835615,44L92.68493150684932,44L93.03424657534246,44L94.08219178082192,44L94.43150684931507,44L94.78082191780821,44L95.13013698630137,44L95.47945205479452,48L96.52739726027397,48L96.87671232876713,48L97.22602739726028,48L97.57534246575342,48L97.92465753424658,48L98.97260273972603,48L99.32191780821917,48L99.67123287671234,48L100.02054794520548,48L100.36986301369863,48L101.41780821917808,48L101.76712328767123,48L102.11643835616438,48L102.46575342465754,48L102.81506849315069,48L103.86301369863014,48L104.2123287671233,48L104.56164383561644,48L104.91095890410959,48L105.26027397260273,48L106.3082191780822,48L106.65753424657535,48L107.0068493150685,48L107.35616438356165,48L107.70547945205479,48L108.75342465753424,48L109.1027397260274,48L109.45205479452054,48L109.8013698630137,48L110.15068493150686,48L111.1986301369863,48L111.54794520547945,48L111.8972602739726,48L112.24657534246575,48L112.5958904109589,48L113.64383561643837,48L113.9931506849315,48L114.34246575342466,48L114.6917808219178,48L115.04109589041096,35.999999999999986L116.08904109589041,35.999999999999986L116.43835616438355,35.999999999999986L116.78767123287672,30L117.13698630136987,30L117.48630136986301,30L118.53424657534246,30L118.88356164383562,30L119.23287671232876,30L119.58219178082192,30L119.93150684931506,30L120.97945205479452,30L121.32876712328768,30L121.67808219178082,30L122.02739726027397,30L122.37671232876713,30L123.42465753424656,30L123.77397260273973,30L124.12328767123289,30L124.47260273972603,30L124.82191780821918,30L125.86986301369863,26L126.21917808219177,26L126.56849315068493,26L126.91780821917807,26L127.26712328767124,26L128.31506849315068,26L128.66438356164386,26L129.013698630137,26L129.36301369863014,26L129.7123287671233,26L130.76027397260273,26L131.1095890410959,26L131.45890410958904,26L131.80821917808217,26L132.15753424657535,26L133.20547945205482,26L133.55479452054794,26L133.9041095890411,26L134.25342465753423,26L134.6027397260274,26L135.65068493150687,26L136,26L136.34931506849315,26L136.6986301369863,26L137.04794520547946,26L138.0958904109589,26L138.44520547945206,26L138.79452054794518,26L139.14383561643837,26L139.49315068493152,26L140.54109589041096,26L140.8904109589041,26L141.23972602739724,26L141.58904109589042,26L141.93835616438355,26L142.986301369863,26L143.33561643835617,26L143.68493150684932,26L144.03424657534248,26L144.3835616438356,26L145.43150684931507,26L145.7808219178082,26L146.13013698630138,26L146.47945205479454,26L146.82876712328766,26L147.87671232876713,26L148.22602739726025,26L148.57534246575344,26L148.92465753424656,32L149.27397260273972,32L150.32191780821918,32L150.6712328767123,32L151.0205479452055,32L151.36986301369862,32L151.71917808219177,32L152.7671232876712,32L153.1164383561644,32L153.46575342465755,32L153.81506849315068,32L154.16438356164383,32L155.21232876712327,32L155.56164383561645,32L155.91095890410958,32L156.26027397260273,32L156.60958904109592,32L157.65753424657532,32L158.0068493150685,32L158.35616438356163,32L158.7054794520548,32L159.05479452054794,32L160.1027397260274,32L160.45205479452056,32L160.8013698630137,32L161.15068493150685,40L161.5,40L162.54794520547946,40L162.8972602739726,40L163.24657534246575,40L163.59589041095893,40L163.94520547945206,40L164.99315068493152,40L165.34246575342465,40L165.6917808219178,40L166.04109589041096,40L166.3904109589041,40L167.43835616438358,40L167.7876712328767,40L168.13698630136986,40L168.486301369863,40L168.83561643835617,40L169.8835616438356,40L170.23287671232876,44L170.58219178082192,44L170.93150684931507,44L171.28082191780823,44L172.32876712328766,44L172.67808219178082,44L173.02739726027397,44L173.37671232876713,44L173.72602739726028,44L174.77397260273972,44L175.12328767123287,44L175.47260273972603,44L175.82191780821918,44L176.1712328767123,44L177.21917808219177,44L177.56849315068493,44L177.91780821917808,44L178.26712328767124,44L178.61643835616437,44L179.66438356164383,52L180.013698630137,52L180.36301369863014,52L180.7123287671233,52L181.06164383561642,52L182.1095890410959,52L182.45890410958904,52L182.8082191780822,52L183.15753424657532,52L183.5068493150685,52L184.55479452054794,52L184.9041095890411,52L185.25342465753425,52L185.60273972602738,52L185.95205479452056,52L187,52L187.34931506849315,52L187.6986301369863,52L188.04794520547944,52L188.39726027397262,52L189.44520547945206,52L189.7945205479452,52L190.14383561643834,52L190.49315068493152,52L190.84246575342468,52L191.8904109589041,52L192.23972602739727,52L192.5890410958904,52L192.93835616438358,52L193.2876712328767,52L194.33561643835617,52L194.68493150684932,52L195.03424657534245,52L195.38356164383563,52L195.73287671232876,52L196.78082191780823,52L197.13013698630135,52L197.4794520547945,52L197.8287671232877,52L198.17808219178082,52L199.22602739726028,52L199.5753424657534,52L199.9246575342466,52L200.27397260273972,52L200.62328767123287,52L201.67123287671234,52L202.02054794520546,52L202.36986301369865,52L202.71917808219177,52L203.06849315068493,52L204.11643835616437,52L204.46575342465752,52L204.8150684931507,52L205.16438356164383,52L205.513698630137,52L206.56164383561642,52L206.9109589041096,52L207.26027397260273,52L207.6095890410959,52L207.95890410958904,52L209.00684931506848,52L209.35616438356166,52L209.7054794520548,52L210.05479452054794,52L210.4041095890411,52L211.45205479452054,52L211.80136986301372,52L212.15068493150685,52L212.5,52L212.84931506849315,52L213.89726027397262,52L214.24657534246575,52L214.5958904109589,52L214.94520547945206,52L215.2945205479452,52L216.34246575342468,52L216.6917808219178,52L217.04109589041096,52L217.3904109589041,52L217.73972602739727,52L218.78767123287673,52L219.13698630136986,52L219.486301369863,52L219.83561643835617,52L220.18493150684932,52L221.23287671232876,52L221.58219178082192,52L221.93150684931507,52" fill="none" stroke="#af516c" stroke-linejoin="round" stroke-linecap="round" stroke-width="2"></path><path d="M21.773972602739725,62L22.123287671232877,62L23.17123287671233,62L23.52054794520548,62L23.86986301369863,62L24.21917808219178,62L24.56849315068493,62L25.616438356164384,62L25.965753424657535,62L26.315068493150683,62L26.664383561643838,62L27.013698630136986,62L28.061643835616437,62L28.41095890410959,62L28.76027397260274,62L29.109589041095887,62L29.458904109589042,62L30.506849315068493,35.999999999999986L30.85616438356164,35.999999999999986L31.205479452054796,35.999999999999986L31.554794520547944,35.999999999999986L31.9041095890411,35.999999999999986L32.95205479452054,35.999999999999986L33.301369863013704,35.999999999999986L33.65068493150685,35.999999999999986L34,35.999999999999986L34.34931506849315,35.999999999999986L35.397260273972606,35.999999999999986L35.74657534246575,35.999999999999986L36.0958904109589,35.999999999999986L36.44520547945205,35.999999999999986L36.794520547945204,35.999999999999986L37.842465753424655,35.999999999999986L38.1917808219178,35.999999999999986L38.54109589041096,35.999999999999986L38.89041095890411,35.999999999999986L39.23972602739726,35.999999999999986L40.28767123287671,35.999999999999986L40.636986301369866,35.999999999999986L40.986301369863014,35.999999999999986L41.33561643835616,35.999999999999986L41.68493150684932,35.999999999999986L42.73287671232877,35.999999999999986L43.082191780821915,35.999999999999986L43.43150684931507,35.999999999999986L43.78082191780822,35.999999999999986L44.13013698630137,35.999999999999986L45.178082191780824,35.999999999999986L45.52739726027397,35.999999999999986L45.87671232876713,35.999999999999986L46.226027397260275,35.999999999999986L46.57534246575342,35.999999999999986L47.62328767123288,35.999999999999986L47.97260273972603,35.999999999999986L48.321917808219176,35.999999999999986L48.67123287671233,35.999999999999986L49.02054794520548,35.999999999999986L50.06849315068493,35.999999999999986L50.417808219178085,35.999999999999986L50.76712328767123,35.999999999999986L51.11643835616438,35.999999999999986L51.465753424657535,28L52.513698630136986,28L52.863013698630134,28L53.21232876712329,28L53.56164383561644,28L53.91095890410959,28L54.95890410958904,28L55.30821917808219,28L55.657534246575345,28L56.00684931506849,28L56.35616438356164,28L57.4041095890411,28L57.75342465753425,28L58.102739726027394,28L58.45205479452055,28L58.8013698630137,28L59.84931506849315,28L60.1986301369863,28L60.54794520547945,28L60.897260273972606,28L61.24657534246575,28L62.294520547945204,28L62.64383561643836,28L62.99315068493151,28L63.342465753424655,28L63.6917808219178,28L64.73972602739725,28L65.08904109589042,28L65.43835616438356,28L65.78767123287672,28L66.13698630136986,28L67.18493150684931,28L67.53424657534246,28L67.8835616438356,28L68.23287671232876,28L68.58219178082193,28L69.63013698630137,28L69.97945205479452,28L70.32876712328768,28L70.67808219178082,28L71.02739726027397,28L72.07534246575344,28L72.42465753424658,28L72.77397260273973,28L73.12328767123287,28L73.47260273972603,28L74.52054794520548,28L74.86986301369862,28L75.21917808219177,28L75.56849315068494,28L75.91780821917808,28L76.96575342465754,28L77.31506849315069,28L77.66438356164383,28L78.01369863013699,28L78.36301369863013,28L79.41095890410959,28L79.76027397260275,28L80.10958904109589,28L80.45890410958904,28L80.8082191780822,28L81.85616438356163,28L82.2054794520548,28L82.55479452054794,28L82.9041095890411,28L83.25342465753425,28L84.30136986301369,28L84.65068493150685,28L85,28L85.34931506849314,28L85.69863013698631,28L86.74657534246576,28L87.0958904109589,28L87.44520547945206,28L87.7945205479452,28L88.14383561643835,28L89.19178082191782,28L89.54109589041096,28L89.89041095890411,28L90.23972602739727,28L90.58904109589041,28L91.63698630136986,28L91.98630136986301,28L92.33561643835615,28L92.68493150684932,28L93.03424657534246,28L94.08219178082192,32L94.43150684931507,32L94.78082191780821,32L95.13013698630137,32L95.47945205479452,32L96.52739726027397,32L96.87671232876713,32L97.22602739726028,32L97.57534246575342,32L97.92465753424658,32L98.97260273972603,32L99.32191780821917,32L99.67123287671234,32L100.02054794520548,32L100.36986301369863,32L101.41780821917808,32L101.76712328767123,32L102.11643835616438,32L102.46575342465754,32L102.81506849315069,32L103.86301369863014,32L104.2123287671233,32L104.56164383561644,32L104.91095890410959,32L105.26027397260273,32L106.3082191780822,32L106.65753424657535,32L107.0068493150685,32L107.35616438356165,32L107.70547945205479,32L108.75342465753424,32L109.1027397260274,32L109.45205479452054,32L109.8013698630137,32L110.15068493150686,32L111.1986301369863,32L111.54794520547945,32L111.8972602739726,32L112.24657534246575,32L112.5958904109589,32L113.64383561643837,32L113.9931506849315,32L114.34246575342466,32L114.6917808219178,32L115.04109589041096,30L116.08904109589041,30L116.43835616438355,30L116.78767123287672,30L117.13698630136987,30L117.48630136986301,30L118.53424657534246,30L118.88356164383562,30L119.23287671232876,30L119.58219178082192,30L119.93150684931506,30L120.97945205479452,30L121.32876712328768,30L121.67808219178082,30L122.02739726027397,30L122.37671232876713,30L123.42465753424656,30L123.77397260273973,30L124.12328767123289,30L124.47260273972603,30L124.82191780821918,30L125.86986301369863,26L126.21917808219177,26L126.56849315068493,26L126.91780821917807,26L127.26712328767124,26L128.31506849315068,26L128.66438356164386,26L129.013698630137,26L129.36301369863014,26L129.7123287671233,26L130.76027397260273,26L131.1095890410959,26L131.45890410958904,26L131.80821917808217,26L132.15753424657535,26L133.20547945205482,26L133.55479452054794,26L133.9041095890411,26L134.25342465753423,26L134.6027397260274,26L135.65068493150687,26L136,26L136.34931506849315,26L136.6986301369863,26L137.04794520547946,26L138.0958904109589,26L138.44520547945206,26L138.79452054794518,26L139.14383561643837,26L139.49315068493152,26L140.54109589041096,26L140.8904109589041,26L141.23972602739724,26L141.58904109589042,26L141.93835616438355,26L142.986301369863,26L143.33561643835617,26L143.68493150684932,26L144.03424657534248,26L144.3835616438356,26L145.43150684931507,26L145.7808219178082,26L146.13013698630138,26L146.47945205479454,26L146.82876712328766,26L147.87671232876713,26L148.22602739726025,26L148.57534246575344,26L148.92465753424656,16L149.27397260273972,16L150.32191780821918,16L150.6712328767123,16L151.0205479452055,16L151.36986301369862,16L151.71917808219177,16L152.7671232876712,16L153.1164383561644,16L153.46575342465755,16L153.81506849315068,16L154.16438356164383,16L155.21232876712327,16L155.56164383561645,16L155.91095890410958,16L156.26027397260273,16L156.60958904109592,16L157.65753424657532,16L158.0068493150685,16L158.35616438356163,16L158.7054794520548,16L159.05479452054794,16L160.1027397260274,16L160.45205479452056,16L160.8013698630137,16L161.15068493150685,16L161.5,16L162.54794520547946,16L162.8972602739726,16L163.24657534246575,16L163.59589041095893,16L163.94520547945206,16L164.99315068493152,16L165.34246575342465,16L165.6917808219178,16L166.04109589041096,16L166.3904109589041,16L167.43835616438358,16L167.7876712328767,16L168.13698630136986,16L168.486301369863,16L168.83561643835617,16L169.8835616438356,16L170.23287671232876,16L170.58219178082192,16L170.93150684931507,16L171.28082191780823,16L172.32876712328766,16L172.67808219178082,16L173.02739726027397,16L173.37671232876713,16L173.72602739726028,16L174.77397260273972,16L175.12328767123287,16L175.47260273972603,16L175.82191780821918,16L176.1712328767123,16L177.21917808219177,16L177.56849315068493,16L177.91780821917808,16L178.26712328767124,16L178.61643835616437,16L179.66438356164383,42L180.013698630137,42L180.36301369863014,42L180.7123287671233,42L181.06164383561642,42L182.1095890410959,42L182.45890410958904,42L182.8082191780822,42L183.15753424657532,42L183.5068493150685,42L184.55479452054794,42L184.9041095890411,42L185.25342465753425,42L185.60273972602738,42L185.95205479452056,42L187,42L187.34931506849315,42L187.6986301369863,42L188.04794520547944,42L188.39726027397262,42L189.44520547945206,42L189.7945205479452,42L190.14383561643834,42L190.49315068493152,42L190.84246575342468,42L191.8904109589041,48L192.23972602739727,48L192.5890410958904,48L192.93835616438358,48L193.2876712328767,48L194.33561643835617,48L194.68493150684932,48L195.03424657534245,48L195.38356164383563,48L195.73287671232876,48L196.78082191780823,48L197.13013698630135,48L197.4794520547945,48L197.8287671232877,48L198.17808219178082,48L199.22602739726028,48L199.5753424657534,48L199.9246575342466,48L200.27397260273972,48L200.62328767123287,48L201.67123287671234,48L202.02054794520546,48L202.36986301369865,48L202.71917808219177,48L203.06849315068493,48L204.11643835616437,48L204.46575342465752,48L204.8150684931507,48L205.16438356164383,48L205.513698630137,48L206.56164383561642,48L206.9109589041096,48L207.26027397260273,48L207.6095890410959,48L207.95890410958904,48L209.00684931506848,48L209.35616438356166,48L209.7054794520548,48L210.05479452054794,62L210.4041095890411,62L211.45205479452054,62L211.80136986301372,62L212.15068493150685,62L212.5,62L212.84931506849315,62L213.89726027397262,62L214.24657534246575,62L214.5958904109589,62L214.94520547945206,62L215.2945205479452,62L216.34246575342468,62L216.6917808219178,62L217.04109589041096,62L217.3904109589041,62L217.73972602739727,62L218.78767123287673,62L219.13698630136986,62L219.486301369863,62L219.83561643835617,62L220.18493150684932,62L221.23287671232876,62L221.58219178082192,62L221.93150684931507,62L222.28082191780823,62L222.63013698630138,62L223.67808219178082,62L224.02739726027397,62L224.3767123287671,62L224.72602739726028,62L225.0753424657534,62L226.12328767123287,62L226.47260273972603,62L226.82191780821918,62L227.17123287671234,62L227.52054794520546,62L228.56849315068493,62L228.91780821917808,62L229.26712328767124,62L229.6164383561644,62L229.96575342465752,62L231.013698630137,62L231.3630136986301,62L231.7123287671233,62L232.06164383561645,62L232.41095890410958,62L233.45890410958904,62L233.8082191780822,62L234.15753424657535,62L234.50684931506848,62L234.85616438356163,62" fill="none" stroke="#76acb8" stroke-linejoin="round" stroke-linecap="round" stroke-width="2"></path></g></g></svg>