<svg xmlns="http://www.w3.org/2000/svg" viewBox="0 0 304 270"><style>/* <![CDATA[ */.chart-title{font-size:20px;fill:#43423e}.chart-subtitle{font-size:15px;fill:#74736c}.chart-source{font-size:10px;fill-opacity:.4}.axis .domain{fill:none;stroke:#74736c}.tick line{fill:none;stroke:#000;stroke-opacity:.2}.tick text{fill-opacity:.6;font-size:12px}.y.axis .tick line{stroke-dasharray:1}.y.axis .domain{fill:none;stroke-opacity:0}.y.axis .highlight-line{fill:none;stroke:#74736c}/* ]]> */</style><text class="chart-title" y="22">Slovakia inflation forecast</text><text class="chart-subtitle" y="42">By date of forecast, annual % change</text><text class="chart-source" y="265">来源:彭博. 2018年5月4日</text><g transform="translate(1,100)"><g class="x axis" transform="translate(0,120)" fill="none" font-size="10" font-family="sans-serif" text-anchor="middle"><path class="domain" stroke="#000" d="M0.5,0V0.5H255.5V0"></path><g class="tick" opacity="1" transform="translate(0.5,0)"><line stroke="#000" y2="6"></line><text fill="#000" y="9" dy="0.71em">July</text></g><g class="tick" opacity="1" transform="translate(32.636986301369866,0)"><line stroke="#000" y2="6"></line><text fill="#000" y="9" dy="0.71em">October</text></g><g class="tick" opacity="1" transform="translate(64.77397260273973,0)"><line stroke="#000" y2="6"></line><text fill="#000" y="9" dy="0.71em">2017</text></g><g class="tick" opacity="1" transform="translate(96.2123287671233,0)"><line stroke="#000" y2="6"></line><text fill="#000" y="9" dy="0.71em">April</text></g><g class="tick" opacity="1" transform="translate(128,0)"><line stroke="#000" y2="6"></line><text fill="#000" y="9" dy="0.71em">July</text></g><g class="tick" opacity="1" transform="translate(160.13698630136986,0)"><line stroke="#000" y2="6"></line><text fill="#000" y="9" dy="0.71em">October</text></g><g class="tick" opacity="1" transform="translate(192.27397260273972,0)"><line stroke="#000" y2="6"></line><text fill="#000" y="9" dy="0.71em">2018</text></g><g class="tick" opacity="1" transform="translate(223.7123287671233,0)"><line stroke="#000" y2="6"></line><text fill="#000" y="9" dy="0.71em">April</text></g><g class="tick" opacity="1" transform="translate(255.5,0)"><line stroke="#000" y2="6"></line><text fill="#000" y="9" dy="0.71em">July</text></g></g><g class="y axis" transform="translate(255,0)" fill="none" font-size="10" font-family="sans-serif" text-anchor="start"><path class="domain" stroke="#000" d="M0,120.5H0.5V0.5H0"></path><g class="tick" opacity="1" transform="translate(0,120.5)"><line stroke="#000" x2="-255"></line><text fill="#000" x="3" dy="0.32em">1.0</text></g><g class="tick" opacity="1" transform="translate(0,90.5)"><line stroke="#000" x2="-255"></line><text fill="#000" x="3" dy="0.32em">1.5</text></g><g class="tick" opacity="1" transform="translate(0,60.5)"><line stroke="#000" x2="-255"></line><text fill="#000" x="3" dy="0.32em">2.0</text></g><g class="tick" opacity="1" transform="translate(0,30.5)"><line stroke="#000" x2="-255"></line><text fill="#000" x="3" dy="0.32em">2.5</text></g><g class="tick" opacity="1" transform="translate(0,0.5)"><line stroke="#000" x2="-255"></line><text fill="#000" x="3" dy="0.32em">3.0</text></g></g><g class="chart-key" transform="translate(0, -35)"><g class="key-element" transform="translate(0,0)"><text x="28" font-size="12">2017</text><line x1="0" x2="25" y1="-5" y2="-5" stroke-width="2" fill="none" stroke="#af516c"></line></g><g class="key-element" transform="translate(0,20)"><text x="28" font-size="12">2018</text><line x1="0" x2="25" y1="-5" y2="-5" stroke-width="2" fill="none" stroke="#76acb8"></line></g></g><g><path d="M21.773972602739725,102L22.123287671232877,102L23.17123287671233,102L23.52054794520548,102L23.86986301369863,102L24.21917808219178,102L24.56849315068493,102L25.616438356164384,102L25.965753424657535,102L26.315068493150683,102L26.664383561643838,102L27.013698630136986,102L28.061643835616437,102L28.41095890410959,102L28.76027397260274,102L29.109589041095887,102L29.458904109589042,102L30.506849315068493,102L30.85616438356164,102L31.205479452054796,102L31.554794520547944,102L31.9041095890411,102L32.95205479452054,102L33.301369863013704,102L33.65068493150685,102L34,102L34.34931506849315,102L35.397260273972606,102L35.74657534246575,102L36.0958904109589,102L36.44520547945205,102L36.794520547945204,102L37.842465753424655,102L38.1917808219178,102L38.54109589041096,102L38.89041095890411,102L39.23972602739726,102L40.28767123287671,102L40.636986301369866,102L40.986301369863014,102L41.33561643835616,102L41.68493150684932,102L42.73287671232877,102L43.082191780821915,102L43.43150684931507,102L43.78082191780822,102L44.13013698630137,102L45.178082191780824,102L45.52739726027397,102L45.87671232876713,102L46.226027397260275,102L46.57534246575342,102L47.62328767123288,102L47.97260273972603,102L48.321917808219176,102L48.67123287671233,102L49.02054794520548,102L50.06849315068493,102L50.417808219178085,102L50.76712328767123,102L51.11643835616438,102L51.465753424657535,102L52.513698630136986,102L52.863013698630134,102L53.21232876712329,108L53.56164383561644,108L53.91095890410959,108L54.95890410958904,108L55.30821917808219,108L55.657534246575345,108L56.00684931506849,108L56.35616438356164,108L57.4041095890411,108L57.75342465753425,108L58.102739726027394,108L58.45205479452055,108L58.8013698630137,108L59.84931506849315,108L60.1986301369863,108L60.54794520547945,108L60.897260273972606,108L61.24657534246575,108L62.294520547945204,105L62.64383561643836,105L62.99315068493151,105L63.342465753424655,105L63.6917808219178,105L64.73972602739725,105L65.08904109589042,105L65.43835616438356,105L65.78767123287672,105L66.13698630136986,105L67.18493150684931,105L67.53424657534246,105L67.8835616438356,105L68.23287671232876,105L68.58219178082193,105L69.63013698630137,105L69.97945205479452,105L70.32876712328768,105L70.67808219178082,105L71.02739726027397,105L72.07534246575344,105L72.42465753424658,105L72.77397260273973,105L73.12328767123287,105L73.47260273972603,105L74.52054794520548,105L74.86986301369862,102L75.21917808219177,102L75.56849315068494,102L75.91780821917808,102L76.96575342465754,102L77.31506849315069,102L77.66438356164383,102L78.01369863013699,102L78.36301369863013,102L79.41095890410959,102L79.76027397260275,102L80.10958904109589,102L80.45890410958904,102L80.8082191780822,102L81.85616438356163,102L82.2054794520548,102L82.55479452054794,102L82.9041095890411,102L83.25342465753425,102L84.30136986301369,102L84.65068493150685,102L85,102L85.34931506849314,102L85.69863013698631,102L86.74657534246576,102L87.0958904109589,102L87.44520547945206,102L87.7945205479452,102L88.14383561643835,102L89.19178082191782,102L89.54109589041096,102L89.89041095890411,102L90.23972602739727,102L90.58904109589041,102L91.63698630136986,102L91.98630136986301,102L92.33561643835615,102L92.68493150684932,102L93.03424657534246,102L94.08219178082192,102L94.43150684931507,102L94.78082191780821,102L95.13013698630137,102L95.47945205479452,96L96.52739726027397,96L96.87671232876713,96L97.22602739726028,96L97.57534246575342,96L97.92465753424658,96L98.97260273972603,96L99.32191780821917,96L99.67123287671234,96L100.02054794520548,96L100.36986301369863,96L101.41780821917808,96L101.76712328767123,96L102.11643835616438,96L102.46575342465754,96L102.81506849315069,96L103.86301369863014,96L104.2123287671233,96L104.56164383561644,96L104.91095890410959,96L105.26027397260273,96L106.3082191780822,96L106.65753424657535,96L107.0068493150685,96L107.35616438356165,96L107.70547945205479,96L108.75342465753424,96L109.1027397260274,96L109.45205479452054,96L109.8013698630137,96L110.15068493150686,96L111.1986301369863,96L111.54794520547945,96L111.8972602739726,96L112.24657534246575,96L112.5958904109589,96L113.64383561643837,96L113.9931506849315,96L114.34246575342466,96L114.6917808219178,96L115.04109589041096,93L116.08904109589041,93L116.43835616438355,93L116.78767123287672,93L117.13698630136987,93L117.48630136986301,93L118.53424657534246,93L118.88356164383562,93L119.23287671232876,93L119.58219178082192,93L119.93150684931506,93L120.97945205479452,93L121.32876712328768,93L121.67808219178082,93L122.02739726027397,93L122.37671232876713,93L123.42465753424656,93L123.77397260273973,93L124.12328767123289,93L124.47260273972603,93L124.82191780821918,93L125.86986301369863,93L126.21917808219177,93L126.56849315068493,93L126.91780821917807,93L127.26712328767124,96L128.31506849315068,96L128.66438356164386,96L129.013698630137,96L129.36301369863014,96L129.7123287671233,96L130.76027397260273,96L131.1095890410959,96L131.45890410958904,96L131.80821917808217,96L132.15753424657535,96L133.20547945205482,96L133.55479452054794,96L133.9041095890411,96L134.25342465753423,96L134.6027397260274,96L135.65068493150687,96L136,96L136.34931506849315,96L136.6986301369863,96L137.04794520547946,96L138.0958904109589,96L138.44520547945206,96L138.79452054794518,96L139.14383561643837,96L139.49315068493152,96L140.54109589041096,96L140.8904109589041,96L141.23972602739724,96L141.58904109589042,96L141.93835616438355,96L142.986301369863,96L143.33561643835617,96L143.68493150684932,96L144.03424657534248,96L144.3835616438356,96L145.43150684931507,96L145.7808219178082,96L146.13013698630138,96L146.47945205479454,96L146.82876712328766,96L147.87671232876713,96L148.22602739726025,96L148.57534246575344,96L148.92465753424656,96L149.27397260273972,96L150.32191780821918,96L150.6712328767123,96L151.0205479452055,96L151.36986301369862,96L151.71917808219177,96L152.7671232876712,96L153.1164383561644,96L153.46575342465755,96L153.81506849315068,96L154.16438356164383,96L155.21232876712327,96L155.56164383561645,96L155.91095890410958,96L156.26027397260273,96L156.60958904109592,96L157.65753424657532,96L158.0068493150685,96L158.35616438356163,96L158.7054794520548,96L159.05479452054794,96L160.1027397260274,96L160.45205479452056,96L160.8013698630137,96L161.15068493150685,102L161.5,102L162.54794520547946,102L162.8972602739726,102L163.24657534246575,102L163.59589041095893,102L163.94520547945206,102L164.99315068493152,102L165.34246575342465,102L165.6917808219178,102L166.04109589041096,102L166.3904109589041,102L167.43835616438358,102L167.7876712328767,102L168.13698630136986,102L168.486301369863,102L168.83561643835617,102L169.8835616438356,102L170.23287671232876,102L170.58219178082192,102L170.93150684931507,102L171.28082191780823,102L172.32876712328766,102L172.67808219178082,102L173.02739726027397,102L173.37671232876713,102L173.72602739726028,102L174.77397260273972,102L175.12328767123287,102L175.47260273972603,102L175.82191780821918,102L176.1712328767123,102L177.21917808219177,102L177.56849315068493,102L177.91780821917808,102L178.26712328767124,102L178.61643835616437,102L179.66438356164383,102L180.013698630137,102L180.36301369863014,102L180.7123287671233,102L181.06164383561642,102L182.1095890410959,102L182.45890410958904,102L182.8082191780822,102L183.15753424657532,102L183.5068493150685,102L184.55479452054794,102L184.9041095890411,102L185.25342465753425,102L185.60273972602738,102L185.95205479452056,102L187,102L187.34931506849315,102L187.6986301369863,102L188.04794520547944,102L188.39726027397262,102L189.44520547945206,102L189.7945205479452,102L190.14383561643834,102L190.49315068493152,102L190.84246575342468,102L191.8904109589041,99L192.23972602739727,99L192.5890410958904,99L192.93835616438358,99L193.2876712328767,99L194.33561643835617,99L194.68493150684932,99L195.03424657534245,99L195.38356164383563,99L195.73287671232876,99L196.78082191780823,99L197.13013698630135,99L197.4794520547945,99L197.8287671232877,99L198.17808219178082,99L199.22602739726028,99L199.5753424657534,99L199.9246575342466,99L200.27397260273972,99L200.62328767123287,99L201.67123287671234,99L202.02054794520546,99L202.36986301369865,99L202.71917808219177,99L203.06849315068493,99L204.11643835616437,99L204.46575342465752,99L204.8150684931507,99L205.16438356164383,99L205.513698630137,99L206.56164383561642,99L206.9109589041096,99L207.26027397260273,99L207.6095890410959,99L207.95890410958904,99L209.00684931506848,99L209.35616438356166,99L209.7054794520548,99L210.05479452054794,99L210.4041095890411,99L211.45205479452054,99L211.80136986301372,99L212.15068493150685,99L212.5,99L212.84931506849315,99L213.89726027397262,99L214.24657534246575,99L214.5958904109589,99L214.94520547945206,99L215.2945205479452,99L216.34246575342468,99L216.6917808219178,99L217.04109589041096,99L217.3904109589041,99L217.73972602739727,99L218.78767123287673,99L219.13698630136986,99L219.486301369863,99L219.83561643835617,99L220.18493150684932,99L221.23287671232876,99L221.58219178082192,99L221.93150684931507,99" fill="none" stroke="#af516c" stroke-linejoin="round" stroke-linecap="round" stroke-width="2"></path><path d="M21.773972602739725,54L22.123287671232877,54L23.17123287671233,54L23.52054794520548,54L23.86986301369863,54L24.21917808219178,54L24.56849315068493,54L25.616438356164384,54L25.965753424657535,54L26.315068493150683,54L26.664383561643838,54L27.013698630136986,54L28.061643835616437,54L28.41095890410959,54L28.76027397260274,54L29.109589041095887,54L29.458904109589042,54L30.506849315068493,47.999999999999986L30.85616438356164,47.999999999999986L31.205479452054796,47.999999999999986L31.554794520547944,47.999999999999986L31.9041095890411,47.999999999999986L32.95205479452054,47.999999999999986L33.301369863013704,47.999999999999986L33.65068493150685,47.999999999999986L34,47.999999999999986L34.34931506849315,47.999999999999986L35.397260273972606,47.999999999999986L35.74657534246575,47.999999999999986L36.0958904109589,47.999999999999986L36.44520547945205,47.999999999999986L36.794520547945204,47.999999999999986L37.842465753424655,47.999999999999986L38.1917808219178,47.999999999999986L38.54109589041096,47.999999999999986L38.89041095890411,47.999999999999986L39.23972602739726,47.999999999999986L40.28767123287671,47.999999999999986L40.636986301369866,47.999999999999986L40.986301369863014,47.999999999999986L41.33561643835616,47.999999999999986L41.68493150684932,47.999999999999986L42.73287671232877,47.999999999999986L43.082191780821915,47.999999999999986L43.43150684931507,47.999999999999986L43.78082191780822,47.999999999999986L44.13013698630137,47.999999999999986L45.178082191780824,47.999999999999986L45.52739726027397,47.999999999999986L45.87671232876713,47.999999999999986L46.226027397260275,47.999999999999986L46.57534246575342,47.999999999999986L47.62328767123288,47.999999999999986L47.97260273972603,47.999999999999986L48.321917808219176,47.999999999999986L48.67123287671233,47.999999999999986L49.02054794520548,47.999999999999986L50.06849315068493,47.999999999999986L50.417808219178085,47.999999999999986L50.76712328767123,47.999999999999986L51.11643835616438,47.999999999999986L51.465753424657535,60L52.513698630136986,60L52.863013698630134,60L53.21232876712329,60L53.56164383561644,60L53.91095890410959,60L54.95890410958904,60L55.30821917808219,60L55.657534246575345,60L56.00684931506849,60L56.35616438356164,60L57.4041095890411,60L57.75342465753425,60L58.102739726027394,60L58.45205479452055,60L58.8013698630137,60L59.84931506849315,60L60.1986301369863,60L60.54794520547945,60L60.897260273972606,60L61.24657534246575,60L62.294520547945204,60L62.64383561643836,60L62.99315068493151,60L63.342465753424655,60L63.6917808219178,60L64.73972602739725,60L65.08904109589042,60L65.43835616438356,60L65.78767123287672,60L66.13698630136986,60L67.18493150684931,60L67.53424657534246,60L67.8835616438356,60L68.23287671232876,60L68.58219178082193,60L69.63013698630137,60L69.97945205479452,60L70.32876712328768,60L70.67808219178082,60L71.02739726027397,60L72.07534246575344,60L72.42465753424658,60L72.77397260273973,60L73.12328767123287,60L73.47260273972603,60L74.52054794520548,60L74.86986301369862,60L75.21917808219177,60L75.56849315068494,60L75.91780821917808,60L76.96575342465754,60L77.31506849315069,60L77.66438356164383,60L78.01369863013699,60L78.36301369863013,60L79.41095890410959,60L79.76027397260275,60L80.10958904109589,60L80.45890410958904,60L80.8082191780822,60L81.85616438356163,60L82.2054794520548,60L82.55479452054794,60L82.9041095890411,60L83.25342465753425,60L84.30136986301369,60L84.65068493150685,60L85,60L85.34931506849314,60L85.69863013698631,60L86.74657534246576,60L87.0958904109589,60L87.44520547945206,60L87.7945205479452,60L88.14383561643835,60L89.19178082191782,60L89.54109589041096,60L89.89041095890411,60L90.23972602739727,60L90.58904109589041,60L91.63698630136986,60L91.98630136986301,60L92.33561643835615,60L92.68493150684932,60L93.03424657534246,60L94.08219178082192,60L94.43150684931507,60L94.78082191780821,60L95.13013698630137,60L95.47945205479452,60L96.52739726027397,60L96.87671232876713,60L97.22602739726028,60L97.57534246575342,60L97.92465753424658,60L98.97260273972603,60L99.32191780821917,60L99.67123287671234,60L100.02054794520548,60L100.36986301369863,60L101.41780821917808,60L101.76712328767123,60L102.11643835616438,60L102.46575342465754,60L102.81506849315069,60L103.86301369863014,60L104.2123287671233,60L104.56164383561644,60L104.91095890410959,60L105.26027397260273,60L106.3082191780822,60L106.65753424657535,60L107.0068493150685,60L107.35616438356165,60L107.70547945205479,60L108.75342465753424,60L109.1027397260274,60L109.45205479452054,60L109.8013698630137,60L110.15068493150686,60L111.1986301369863,60L111.54794520547945,60L111.8972602739726,60L112.24657534246575,60L112.5958904109589,60L113.64383561643837,60L113.9931506849315,60L114.34246575342466,60L114.6917808219178,60L115.04109589041096,60L116.08904109589041,60L116.43835616438355,60L116.78767123287672,60L117.13698630136987,60L117.48630136986301,60L118.53424657534246,60L118.88356164383562,60L119.23287671232876,60L119.58219178082192,60L119.93150684931506,60L120.97945205479452,60L121.32876712328768,60L121.67808219178082,60L122.02739726027397,60L122.37671232876713,60L123.42465753424656,60L123.77397260273973,60L124.12328767123289,60L124.47260273972603,60L124.82191780821918,60L125.86986301369863,63L126.21917808219177,63L126.56849315068493,63L126.91780821917807,63L127.26712328767124,63L128.31506849315068,63L128.66438356164386,63L129.013698630137,63L129.36301369863014,63L129.7123287671233,63L130.76027397260273,63L131.1095890410959,63L131.45890410958904,63L131.80821917808217,63L132.15753424657535,63L133.20547945205482,63L133.55479452054794,63L133.9041095890411,63L134.25342465753423,63L134.6027397260274,63L135.65068493150687,63L136,63L136.34931506849315,63L136.6986301369863,63L137.04794520547946,63L138.0958904109589,60L138.44520547945206,60L138.79452054794518,60L139.14383561643837,60L139.49315068493152,60L140.54109589041096,60L140.8904109589041,60L141.23972602739724,60L141.58904109589042,60L141.93835616438355,60L142.986301369863,60L143.33561643835617,60L143.68493150684932,60L144.03424657534248,60L144.3835616438356,60L145.43150684931507,60L145.7808219178082,60L146.13013698630138,60L146.47945205479454,60L146.82876712328766,60L147.87671232876713,60L148.22602739726025,60L148.57534246575344,60L148.92465753424656,66L149.27397260273972,66L150.32191780821918,66L150.6712328767123,66L151.0205479452055,66L151.36986301369862,66L151.71917808219177,66L152.7671232876712,66L153.1164383561644,66L153.46575342465755,66L153.81506849315068,66L154.16438356164383,66L155.21232876712327,66L155.56164383561645,66L155.91095890410958,66L156.26027397260273,66L156.60958904109592,66L157.65753424657532,66L158.0068493150685,66L158.35616438356163,66L158.7054794520548,66L159.05479452054794,66L160.1027397260274,66L160.45205479452056,66L160.8013698630137,66L161.15068493150685,72L161.5,72L162.54794520547946,72L162.8972602739726,72L163.24657534246575,72L163.59589041095893,72L163.94520547945206,72L164.99315068493152,72L165.34246575342465,72L165.6917808219178,72L166.04109589041096,72L166.3904109589041,72L167.43835616438358,72L167.7876712328767,72L168.13698630136986,72L168.486301369863,72L168.83561643835617,72L169.8835616438356,72L170.23287671232876,72L170.58219178082192,72L170.93150684931507,72L171.28082191780823,72L172.32876712328766,72L172.67808219178082,72L173.02739726027397,72L173.37671232876713,72L173.72602739726028,72L174.77397260273972,72L175.12328767123287,72L175.47260273972603,72L175.82191780821918,72L176.1712328767123,72L177.21917808219177,72L177.56849315068493,72L177.91780821917808,72L178.26712328767124,72L178.61643835616437,72L179.66438356164383,72L180.013698630137,72L180.36301369863014,72L180.7123287671233,72L181.06164383561642,72L182.1095890410959,72L182.45890410958904,72L182.8082191780822,72L183.15753424657532,72L183.5068493150685,72L184.55479452054794,72L184.9041095890411,72L185.25342465753425,72L185.60273972602738,72L185.95205479452056,72L187,72L187.34931506849315,72L187.6986301369863,72L188.04794520547944,72L188.39726027397262,72L189.44520547945206,72L189.7945205479452,72L190.14383561643834,72L190.49315068493152,72L190.84246575342468,72L191.8904109589041,72L192.23972602739727,72L192.5890410958904,72L192.93835616438358,72L193.2876712328767,72L194.33561643835617,72L194.68493150684932,72L195.03424657534245,72L195.38356164383563,72L195.73287671232876,72L196.78082191780823,72L197.13013698630135,72L197.4794520547945,72L197.8287671232877,72L198.17808219178082,72L199.22602739726028,72L199.5753424657534,72L199.9246575342466,72L200.27397260273972,72L200.62328767123287,72L201.67123287671234,72L202.02054794520546,72L202.36986301369865,72L202.71917808219177,72L203.06849315068493,72L204.11643835616437,72L204.46575342465752,72L204.8150684931507,72L205.16438356164383,72L205.513698630137,72L206.56164383561642,72L206.9109589041096,72L207.26027397260273,72L207.6095890410959,72L207.95890410958904,72L209.00684931506848,72L209.35616438356166,72L209.7054794520548,72L210.05479452054794,72L210.4041095890411,72L211.45205479452054,72L211.80136986301372,72L212.15068493150685,72L212.5,72L212.84931506849315,72L213.89726027397262,72L214.24657534246575,72L214.5958904109589,72L214.94520547945206,72L215.2945205479452,72L216.34246575342468,72L216.6917808219178,72L217.04109589041096,72L217.3904109589041,72L217.73972602739727,72L218.78767123287673,72L219.13698630136986,72L219.486301369863,72L219.83561643835617,72L220.18493150684932,72L221.23287671232876,72L221.58219178082192,72L221.93150684931507,72L222.28082191780823,72L222.63013698630138,66L223.67808219178082,66L224.02739726027397,66L224.3767123287671,66L224.72602739726028,66L225.0753424657534,66L226.12328767123287,66L226.47260273972603,66L226.82191780821918,66L227.17123287671234,66L227.52054794520546,66L228.56849315068493,66L228.91780821917808,66L229.26712328767124,66L229.6164383561644,66L229.96575342465752,66L231.013698630137,66L231.3630136986301,66L231.7123287671233,66L232.06164383561645,66L232.41095890410958,66L233.45890410958904,60L233.8082191780822,60L234.15753424657535,60L234.50684931506848,60L234.85616438356163,60" fill="none" stroke="#76acb8" stroke-linejoin="round" stroke-linecap="round" stroke-width="2"></path></g></g></svg>