<svg xmlns="http://www.w3.org/2000/svg" viewBox="0 0 304 270"><style>/* <![CDATA[ */.chart-title{font-size:20px;fill:#43423e}.chart-subtitle{font-size:15px;fill:#74736c}.chart-source{font-size:10px;fill-opacity:.4}.axis .domain{fill:none;stroke:#74736c}.tick line{fill:none;stroke:#000;stroke-opacity:.2}.tick text{fill-opacity:.6;font-size:12px}.y.axis .tick line{stroke-dasharray:1}.y.axis .domain{fill:none;stroke-opacity:0}.y.axis .highlight-line{fill:none;stroke:#74736c}/* ]]> */</style><text class="chart-title" y="22">中国增长来源</text><text class="chart-subtitle" y="42">百分点</text><text class="chart-source" y="265">来源:CEIC，国家统计局. 2018年2月27日</text><g transform="translate(1,100)"><g class="x axis" transform="translate(0,120)" fill="none" font-size="10" font-family="sans-serif" text-anchor="middle"><path class="domain" stroke="#000" d="M0.5,0V0.5H255.5V0"></path><g class="tick" opacity="1" transform="translate(28.816093702464254,0)"><line stroke="#000" y2="6"></line><text fill="#000" y="9" dy="0.71em">2010</text></g><g class="tick" opacity="1" transform="translate(85.44828110739276,0)"><line stroke="#000" y2="6"></line><text fill="#000" y="9" dy="0.71em">2012</text></g><g class="tick" opacity="1" transform="translate(142.15804685123211,0)"><line stroke="#000" y2="6"></line><text fill="#000" y="9" dy="0.71em">2014</text></g><g class="tick" opacity="1" transform="translate(198.79023425616063,0)"><line stroke="#000" y2="6"></line><text fill="#000" y="9" dy="0.71em">2016</text></g><g class="tick" opacity="1" transform="translate(255.5,0)"><line stroke="#000" y2="6"></line><text fill="#000" y="9" dy="0.71em">2018</text></g></g><g class="y axis" transform="translate(255,0)" fill="none" font-size="10" font-family="sans-serif" text-anchor="start"><path class="domain" stroke="#000" d="M0,120.5H0.5V0.5H0"></path><g class="tick" opacity="1" transform="translate(0,120.5)"><line stroke="#000" x2="-255"></line><text fill="#000" x="3" dy="0.32em">-5</text></g><g class="tick" opacity="1" transform="translate(0,77.64285714285714)"><line stroke="#000" x2="-255"></line><text fill="#000" x="3" dy="0.32em">0</text></g><g class="tick" opacity="1" transform="translate(0,34.78571428571428)"><line stroke="#000" x2="-255"></line><text fill="#000" x="3" dy="0.32em">5</text></g><line class="highlight-line" x1="0" y1="77.14285714285714" x2="-255" y2="77.14285714285714"></line></g><g class="chart-key" transform="translate(0, -35)"><g class="key-element" transform="translate(0,0)"><text x="28" font-size="12">最终消费支出</text><line x1="0" x2="25" y1="-5" y2="-5" stroke-width="2" fill="none" stroke="#af516c"></line></g><g class="key-element" transform="translate(0,20)"><text x="28" font-size="12">资本形成总额</text><line x1="0" x2="25" y1="-5" y2="-5" stroke-width="2" fill="none" stroke="#76acb8"></line></g><g class="key-element" transform="translate(0,40)"><text x="28" font-size="12">净出口</text><line x1="0" x2="25" y1="-5" y2="-5" stroke-width="2" fill="none" stroke="#ecafaf"></line></g></g><g><path d="M4.602981442044418,40.28571428571428L11.740188621843625,44.571428571428555L18.877395801642837,42.85714285714285L25.937024642531185,31.94841360000001L32.919075144508675,12L40.05628232430788,34.28571428571428L47.193489504107085,40.28571428571428L54.253118344995436,36.20994762857143L61.235168846972925,24.85714285714286L68.37237602677213,33.82542857142859L75.50958320657135,34.28571428571428L82.56921204745969,26.530891457142857L89.62884088834804,22.285714285714292L96.76604806814726,36.85714285714286L103.90325524794646,41.14285714285714L110.96288408883481,40.17113382857144L117.9449345908123,40.28571428571428L125.0821417706115,48L132.2193489504107,47.14285714285715L139.27897779129904,45.88756422857142L146.26102829327655,30L153.39823547307577,42.85714285714285L160.53544265287496,46.420285714285725L167.5950714937633,46.62944802857143L174.5771219957408,38.682857142857145L181.71432917554,39.82285714285716L188.85153635533922,42.7217142857143L195.91116519622759,41.73222857142858L202.97079403711592,32.693142857142846L210.1080012169151,39.12514285714286L217.24520839671433,40.61828571428573L224.3048372376027,38.95285714285713L231.28688773958015,30.18342857142858L238.42409491937937,39.11399999999999L245.5613020991786,39.29142857142857L252.62093094006693,42.36685714285714" fill="none" stroke="#af516c" stroke-linejoin="round" stroke-linecap="round" stroke-width="2"></path><path d="M4.602981442044418,25.714285714285722L11.740188621843625,24.000000000000014L18.877395801642837,14.571428571428555L25.937024642531185,7.45801997142857L32.919075144508675,35.14285714285714L40.05628232430788,30L47.193489504107085,30.85714285714286L54.253118344995436,16.700721257142845L61.235168846972925,44.571428571428555L68.37237602677213,37.8162857142857L75.50958320657135,39.428571428571416L82.56921204745969,39.36785202857145L89.62884088834804,56.57142857142857L96.76604806814726,42.85714285714285L103.90325524794646,43.71428571428571L110.96288408883481,47.91566605714286L117.9449345908123,57.42857142857142L125.0821417706115,42L132.2193489504107,40.28571428571428L139.27897779129904,40.368012514285724L146.26102829327655,50.571428571428584L153.39823547307577,46.28571428571429L160.53544265287496,51.42857142857143L167.5950714937633,47.81747014285715L174.5771219957408,67.12285714285714L181.71432917554,57.34285714285714L188.85153635533922,52.00714285714285L195.91116519622759,52.46811428571429L202.97079403711592,55.95171428571429L210.1080012169151,52.16142857142856L217.24520839671433,51.87428571428572L224.3048372376027,52.39114285714285L231.28688773958015,65.78742857142858L238.42409491937937,56.67942857142857L245.5613020991786,56.62028571428572L252.62093094006693,58.158" fill="none" stroke="#76acb8" stroke-linejoin="round" stroke-linecap="round" stroke-width="2"></path><path d="M4.602981442044418,113.14285714285714L11.740188621843625,102L18.877395801642837,108L25.937024642531185,111.4394946L32.919075144508675,80.57142857142857L40.05628232430788,71.14285714285714L47.193489504107085,68.57142857142858L54.253118344995436,87.97824805714285L61.235168846972925,78L68.37237602677213,76.644L75.50958320657135,76.28571428571428L82.56921204745969,83.66449114285714L89.62884088834804,83.14285714285714L96.76604806814726,84.85714285714286L103.90325524794646,80.57142857142857L110.96288408883481,75.79909885714287L117.9449345908123,67.71428571428572L125.0821417706115,76.28571428571428L132.2193489504107,78L139.27897779129904,78.35651957142858L146.26102829327655,87.42857142857143L153.39823547307577,78.85714285714286L160.53544265287496,70.28571428571429L167.5950714937633,74.6153795142857L174.5771219957408,65.62285714285713L181.71432917554,74.26285714285714L188.85153635533922,77.55685714285714L195.91116519622759,77.91394285714284L202.97079403711592,85.35514285714285L210.1080012169151,82.71342857142857L217.24520839671433,81.50742857142856L224.3048372376027,82.656L231.28688773958015,76.31485714285715L238.42409491937937,76.49228571428571L245.5613020991786,76.374L252.62093094006693,71.76085714285713" fill="none" stroke="#ecafaf" stroke-linejoin="round" stroke-linecap="round" stroke-width="2"></path></g></g></svg>