<svg xmlns="http://www.w3.org/2000/svg" viewBox="0 0 304 270"><style>/* <![CDATA[ */.chart-title{font-size:20px;fill:#43423e}.chart-subtitle{font-size:15px;fill:#74736c}.chart-source{font-size:10px;fill-opacity:.4}.axis .domain{fill:none;stroke:#74736c}.tick line{fill:none;stroke:#000;stroke-opacity:.2}.tick text{fill-opacity:.6;font-size:12px}.y.axis .tick line{stroke-dasharray:1}.y.axis .domain{fill:none;stroke-opacity:0}.y.axis .highlight-line{fill:none;stroke:#74736c}/* ]]> */</style><text class="chart-title" y="22">英镑兑欧元：YTD</text><text class="chart-subtitle" y="42">每元英镑兑换等值欧元</text><text class="chart-source" y="265">来源:彭博. 2018年5月7日</text><g transform="translate(1,100)"><g class="x axis" transform="translate(0,120)" fill="none" font-size="10" font-family="sans-serif" text-anchor="middle"><path class="domain" stroke="#000" d="M0.5,0V0.5H255.5V0"></path><g class="tick" opacity="1" transform="translate(0.5,0)"><line stroke="#000" y2="6"></line><text fill="#000" y="9" dy="0.71em">2016</text></g><g class="tick" opacity="1" transform="translate(43.934065934065934,0)"><line stroke="#000" y2="6"></line><text fill="#000" y="9" dy="0.71em">February</text></g><g class="tick" opacity="1" transform="translate(84.56593406593406,0)"><line stroke="#000" y2="6"></line><text fill="#000" y="9" dy="0.71em">March</text></g><g class="tick" opacity="1" transform="translate(128,0)"><line stroke="#000" y2="6"></line><text fill="#000" y="9" dy="0.71em">April</text></g><g class="tick" opacity="1" transform="translate(170.03296703296704,0)"><line stroke="#000" y2="6"></line><text fill="#000" y="9" dy="0.71em">May</text></g><g class="tick" opacity="1" transform="translate(213.46703296703296,0)"><line stroke="#000" y2="6"></line><text fill="#000" y="9" dy="0.71em">June</text></g><g class="tick" opacity="1" transform="translate(255.5,0)"><line stroke="#000" y2="6"></line><text fill="#000" y="9" dy="0.71em">July</text></g></g><g class="y axis" transform="translate(255,0)" fill="none" font-size="10" font-family="sans-serif" text-anchor="start"><path class="domain" stroke="#000" d="M0,120.5H0.5V0.5H0"></path><g class="tick" opacity="1" transform="translate(0,120.5)"><line stroke="#000" x2="-255"></line><text fill="#000" x="3" dy="0.32em">1.0</text></g><g class="tick" opacity="1" transform="translate(0,96.5)"><line stroke="#000" x2="-255"></line><text fill="#000" x="3" dy="0.32em">1.2</text></g><g class="tick" opacity="1" transform="translate(0,72.50000000000001)"><line stroke="#000" x2="-255"></line><text fill="#000" x="3" dy="0.32em">1.4</text></g><g class="tick" opacity="1" transform="translate(0,48.499999999999986)"><line stroke="#000" x2="-255"></line><text fill="#000" x="3" dy="0.32em">1.6</text></g><g class="tick" opacity="1" transform="translate(0,24.5)"><line stroke="#000" x2="-255"></line><text fill="#000" x="3" dy="0.32em">1.8</text></g><g class="tick" opacity="1" transform="translate(0,0.5)"><line stroke="#000" x2="-255"></line><text fill="#000" x="3" dy="0.32em">2.0</text></g></g><g><path d="M0.46703296703296704,77.00399999999999L4.670329670329671,76.96799999999999L6.071428571428571,76.15200000000002L7.472527472527473,77.16L8.873626373626374,79.536L10.274725274725276,80.064L14.478021978021978,79.296L15.87912087912088,80.328L17.280219780219777,81.06L18.681318681318682,80.82L20.08241758241758,83.268L24.285714285714285,83.076L25.686813186813186,84.24L27.087912087912088,83.62800000000001L28.48901098901099,83.05199999999999L29.89010989010989,81.576L34.09340659340659,82.41600000000001L35.494505494505496,81.588L36.8956043956044,83.196L38.29670329670329,82.464L39.6978021978022,82.212L43.9010989010989,80.92799999999998L45.3021978021978,81.62400000000002L46.7032967032967,82.18800000000002L48.104395604395606,83.80799999999999L49.505494505494504,84.096L53.70879120879121,85.27199999999999L55.10989010989011,86.22000000000001L56.51098901098901,85.668L57.91208791208791,86.55600000000001L59.31318681318682,85.38L63.51648351648352,84.72L64.91758241758241,85.95599999999999L66.31868131868133,85.84800000000001L67.71978021978022,85.08000000000001L69.12087912087911,84.696L73.32417582417582,86.04L74.72527472527473,87.30000000000001L76.12637362637362,88.26L77.52747252747253,87.936L78.92857142857143,87.792L83.13186813186813,86.41199999999999L84.53296703296704,85.95599999999999L85.93406593406594,84.55200000000002L87.33516483516483,84.72L88.73626373626374,84.84L92.93956043956044,84.58800000000001L94.34065934065934,85.06799999999998L95.74175824175825,84.912L97.14285714285714,86.68799999999999L98.54395604395604,85.22399999999999L102.74725274725274,85.428L104.14835164835165,87.132L105.54945054945054,87.49200000000002L106.95054945054946,86.46L108.35164835164835,85.82400000000001L112.55494505494505,86.616L113.95604395604396,87.99600000000001L115.35714285714286,88.488L116.75824175824175,88.03200000000001L118.15934065934067,88.15199999999999L122.36263736263737,87.22800000000001L123.76373626373626,87.132L125.16483516483515,87.816L126.56593406593407,88.572L127.96703296703296,90.168L132.1703296703297,89.724L133.57142857142858,90.732L134.97252747252747,91.32000000000002L136.37362637362637,91.752L137.77472527472526,91.32000000000002L141.97802197802199,90.20400000000001L143.37912087912088,89.556L144.78021978021977,88.812L146.18131868131866,89.232L147.5824175824176,88.98L151.78571428571428,88.56L153.18681318681317,87.87599999999999L154.5879120879121,87.756L155.989010989011,87.73200000000001L157.3901098901099,85.94399999999999L161.5934065934066,85.77599999999998L162.9945054945055,85.14L164.3956043956044,85.86L165.7967032967033,85.572L167.1978021978022,86.868L171.40109890109892,87.336L172.8021978021978,88.284L174.2032967032967,88.56L175.6043956043956,87.6L177.0054945054945,88.17599999999999L181.2087912087912,88.104L182.6098901098901,87.612L184.01098901098902,88.272L185.4120879120879,87.576L186.8131868131868,87.576L191.0164835164835,87.336L192.41758241758242,86.64L193.8186813186813,83.80799999999999L195.2197802197802,83.484L196.62087912087912,84.936L200.82417582417582,85.09200000000001L202.22527472527472,82.35600000000002L203.62637362637363,81.9L205.02747252747253,82.72800000000001L206.42857142857144,82.15200000000002L210.63186813186812,82.25999999999999L212.03296703296704,83.86800000000001L213.43406593406593,85.38L214.83516483516485,84.78000000000002L216.23626373626374,86.71199999999999L220.43956043956044,87.36L221.84065934065936,86.34L223.24175824175825,87.25200000000001L224.64285714285714,86.67599999999999L226.04395604395603,87.91199999999999L230.24725274725276,88.392L231.64835164835165,88.88399999999999L233.04945054945054,88.60799999999999L234.45054945054943,88.16400000000002L235.85164835164835,87.23999999999998L240.05494505494505,84.168L241.45604395604394,83.62800000000001L242.85714285714283,83.77199999999999L244.25824175824178,83.13600000000001L245.65934065934067,92.16" fill="none" stroke="#af516c" stroke-linejoin="round" stroke-linecap="round" stroke-width="2"></path></g></g></svg>