<svg xmlns="http://www.w3.org/2000/svg" viewBox="0 0 304 270"><style>/* <![CDATA[ */.chart-title{font-size:20px;fill:#43423e}.chart-subtitle{font-size:15px;fill:#74736c}.chart-source{font-size:10px;fill-opacity:.4}.axis .domain{fill:none;stroke:#74736c}.tick line{fill:none;stroke:#000;stroke-opacity:.2}.tick text{fill-opacity:.6;font-size:12px}.y.axis .tick line{stroke-dasharray:1}.y.axis .domain{fill:none;stroke-opacity:0}.y.axis .highlight-line{fill:none;stroke:#74736c}/* ]]> */</style><text class="chart-title" y="22">Sterling since the EU referendum</text><text class="chart-subtitle" y="42">每元英镑兑换等值欧元</text><text class="chart-source" y="265">来源:彭博. 2018年5月7日</text><g transform="translate(1,100)"><g class="x axis" transform="translate(0,120)" fill="none" font-size="10" font-family="sans-serif" text-anchor="middle"><path class="domain" stroke="#000" d="M0.5,0V0.5H255.5V0"></path><g class="tick" opacity="1" transform="translate(0.5,0)"><line stroke="#000" y2="6"></line><text fill="#000" y="9" dy="0.71em">April</text></g><g class="tick" opacity="1" transform="translate(28.764311814859926,0)"><line stroke="#000" y2="6"></line><text fill="#000" y="9" dy="0.71em">July</text></g><g class="tick" opacity="1" transform="translate(57.33922046285018,0)"><line stroke="#000" y2="6"></line><text fill="#000" y="9" dy="0.71em">October</text></g><g class="tick" opacity="1" transform="translate(85.91412911084043,0)"><line stroke="#000" y2="6"></line><text fill="#000" y="9" dy="0.71em">2017</text></g><g class="tick" opacity="1" transform="translate(113.86784409257004,0)"><line stroke="#000" y2="6"></line><text fill="#000" y="9" dy="0.71em">April</text></g><g class="tick" opacity="1" transform="translate(142.13215590742996,0)"><line stroke="#000" y2="6"></line><text fill="#000" y="9" dy="0.71em">July</text></g><g class="tick" opacity="1" transform="translate(170.7070645554202,0)"><line stroke="#000" y2="6"></line><text fill="#000" y="9" dy="0.71em">October</text></g><g class="tick" opacity="1" transform="translate(199.28197320341047,0)"><line stroke="#000" y2="6"></line><text fill="#000" y="9" dy="0.71em">2018</text></g><g class="tick" opacity="1" transform="translate(227.23568818514008,0)"><line stroke="#000" y2="6"></line><text fill="#000" y="9" dy="0.71em">April</text></g><g class="tick" opacity="1" transform="translate(255.5,0)"><line stroke="#000" y2="6"></line><text fill="#000" y="9" dy="0.71em">July</text></g></g><g class="y axis" transform="translate(255,0)" fill="none" font-size="10" font-family="sans-serif" text-anchor="start"><path class="domain" stroke="#000" d="M0,120.5H0.5V0.5H0"></path><g class="tick" opacity="1" transform="translate(0,120.5)"><line stroke="#000" x2="-255"></line><text fill="#000" x="3" dy="0.32em">1.0</text></g><g class="tick" opacity="1" transform="translate(0,96.5)"><line stroke="#000" x2="-255"></line><text fill="#000" x="3" dy="0.32em">1.2</text></g><g class="tick" opacity="1" transform="translate(0,72.50000000000001)"><line stroke="#000" x2="-255"></line><text fill="#000" x="3" dy="0.32em">1.4</text></g><g class="tick" opacity="1" transform="translate(0,48.499999999999986)"><line stroke="#000" x2="-255"></line><text fill="#000" x="3" dy="0.32em">1.6</text></g><g class="tick" opacity="1" transform="translate(0,24.5)"><line stroke="#000" x2="-255"></line><text fill="#000" x="3" dy="0.32em">1.8</text></g><g class="tick" opacity="1" transform="translate(0,0.5)"><line stroke="#000" x2="-255"></line><text fill="#000" x="3" dy="0.32em">2.0</text></g></g><g><path d="M25.572472594397077,83.77199999999999L25.883069427527403,83.13600000000001L26.193666260657732,92.16L27.12545676004872,96.024L27.43605359317905,95.244L27.746650426309376,95.124L28.057247259439706,96.19200000000001L28.367844092570035,96.98400000000001L29.29963459196102,96.99600000000001L29.61023142509135,98.916L29.92082825822168,100.19999999999999L30.23142509135201,99.972L30.54202192448234,99.36000000000001L31.473812423873326,98.94L31.784409257003656,96.27600000000001L32.095006090133985,97.752L32.40560292326431,96.012L32.716199756394644,96.612L33.64799025578562,96.38399999999999L33.958587088915955,97.248L34.26918392204628,96.10799999999999L34.579780755176614,96.06L34.89037758830694,96.69600000000001L35.82216808769793,96.6L36.13276492082826,96.6L36.44336175395859,96.516L36.75395858708892,97.39199999999998L37.06455542021924,97.90800000000002L37.99634591961023,98.34000000000002L38.30694275274056,97.18800000000002L38.61753958587089,96.576L38.92813641900122,98.676L39.238733252131546,98.52L40.17052375152254,98.86800000000001L40.48112058465286,99.636L40.79171741778319,100.308L41.102314250913516,100.404L41.41291108404385,101.136L42.34470158343483,101.796L42.65529841656517,101.184L42.96589524969549,101.376L43.276492082825825,100.82400000000001L43.58708891595615,101.50800000000001L44.518879415347136,100.73999999999998L44.82947624847746,99.912L45.140073081607795,99.03599999999999L45.45066991473812,99.732L45.761266747868454,99.228L46.69305724725944,99.45599999999999L47.00365408038977,99.108L47.31425091352009,98.7L47.624847746650424,97.8L47.93544457978075,96.98400000000001L48.86723507917174,96.792L49.177831912302075,96.69600000000001L49.4884287454324,97.548L49.799025578562734,98.31599999999999L50.10962241169306,98.232L51.041412911084045,97.548L51.35200974421437,98.89200000000001L51.662606577344704,98.80799999999999L51.97320341047503,98.7L52.28380024360536,100.14L53.21559074299635,100.08000000000001L53.52618757612668,100.22399999999999L53.836784409257,100.22399999999999L54.14738124238733,99.972L54.45797807551766,101.4L55.38976857490865,101.65199999999999L55.70036540803898,100.644L56.01096224116931,100.728L56.321559074299635,101.328L56.63215590742997,101.48399999999998L57.563946406820946,102.54L57.87454323995128,103.668L58.185140073081605,103.46400000000001L58.49573690621194,104.244L58.806333739342264,106.752L59.738124238733256,106.81199999999998L60.04872107186358,108.396L60.359317904993915,106.908L60.669914738124234,107.00399999999999L60.98051157125457,106.69200000000001L61.91230207064555,107.08800000000001L62.222898903775885,105.61200000000001L62.53349573690621,105.64800000000001L62.844092570036544,105.456L63.15468940316687,105.132L64.08647990255785,105.048L64.39707673568819,105.67200000000001L64.70767356881852,105.276L65.01827040194884,106.05599999999998L65.32886723507917,106.57200000000002L66.26065773447016,106.2L66.57125456760048,107.11200000000001L66.88185140073082,106.96799999999999L67.19244823386114,105.36000000000001L67.50304506699148,105.156L68.43483556638246,105.252L68.7454323995128,105.156L69.05602923264311,103.548L69.36662606577345,101.68799999999999L69.67722289890378,100.728L70.60901339829476,100.404L70.9196102314251,100.584L71.23020706455542,100.34400000000001L71.54080389768575,99.756L71.85140073081608,100.128L72.78319123020705,98.964L73.0937880633374,99.72L73.40438489646772,98.54399999999998L73.71498172959805,98.436L74.02557856272837,98.64000000000001L74.95736906211937,99.636L75.26796589524969,99.228L75.57856272838004,98.28L75.88915956151035,98.28L76.19975639464067,96.78L77.13154689403167,98.05199999999999L77.44214372716199,98.064L77.75274056029232,99.096L78.06333739342266,97.70400000000001L78.37393422655299,97.09199999999998L79.30572472594397,96.96000000000001L79.6163215590743,97.044L79.92691839220463,96.9L80.23751522533495,96.9L80.54811205846529,96.636L81.47990255785626,97.02L81.79049939098661,97.13999999999999L82.10109622411693,97.788L82.41169305724726,98.77199999999999L82.72228989037758,99.012L83.65408038976857,99.012L83.9646772228989,99.216L84.27527405602923,99.12L84.58587088915957,99.708L84.89646772228988,99.228L85.82825822168088,99.07200000000002L86.1388550548112,98.86800000000001L86.44945188794154,99.012L86.76004872107187,99.47999999999999L87.07064555420219,100.03200000000001L88.00243605359319,101.952L88.3130328867235,101.55600000000001L88.62362971985384,101.48399999999998L88.93422655298417,102.49200000000002L89.2448233861145,102.588L90.17661388550549,103.61999999999999L90.48721071863581,100.94399999999999L90.79780755176614,101.58000000000001L91.10840438489646,101.112L91.4190012180268,101.26800000000001L92.35079171741778,100.27199999999999L92.66138855054812,99.996L92.97198538367844,98.952L93.28258221680876,98.532L93.5931790499391,99.24L94.52496954933008,99.924L94.83556638246041,100.21199999999999L95.14616321559075,98.952L95.45676004872108,100.25999999999999L95.7673568818514,101.08800000000001L96.69914738124238,100.82400000000001L97.00974421437272,99.47999999999999L97.32034104750304,99.33600000000001L97.63093788063338,99.264L97.9415347137637,99.144L98.8733252131547,98.172L99.18392204628502,98.55599999999998L99.49451887941535,98.94L99.80511571254567,99.58800000000001L100.115712545676,99.684L101.04750304506699,99.08399999999999L101.35809987819732,97.944L101.66869671132766,98.496L101.97929354445797,97.61999999999999L102.2898903775883,98.436L103.22168087697929,98.952L103.53227771010961,99.53999999999999L103.84287454323996,100.128L104.15347137637028,99.9L104.46406820950061,101.124L105.3958587088916,101.23199999999999L105.70645554202193,101.43599999999999L106.01705237515225,101.47199999999998L106.3276492082826,101.98799999999999L106.63824604141291,103.236L107.5700365408039,102.36L107.88063337393423,102.46799999999999L108.19123020706455,102.588L108.50182704019488,102.22800000000001L108.81242387332522,101.48399999999998L109.7442143727162,101.904L110.05481120584653,101.49600000000001L110.36540803897685,101.24400000000001L110.67600487210719,100.668L110.9866017052375,101.364L111.9183922046285,101.292L112.22898903775882,101.832L112.53958587088917,101.41199999999999L112.85018270401949,99.84L113.16077953714982,98.664L114.0925700365408,99.57600000000001L114.40316686967113,100.14L114.71376370280146,99.51599999999999L115.02436053593179,99.432L115.33495736906212,99.828L116.26674786845311,99.408L116.57734470158344,98.65200000000002L116.88794153471376,98.85600000000001L117.19853836784408,98.64000000000001L117.50913520097443,98.34000000000002L118.4409257003654,98.34000000000002L118.75152253349574,96.39599999999999L119.06211936662606,96.86399999999999L119.3727161997564,96.52799999999999L119.68331303288672,96.69600000000001L120.6151035322777,98.7L120.92570036540803,98.952L121.23629719853837,98.60400000000001L121.5468940316687,97.58399999999999L121.85749086479902,97.38000000000001L122.78928136419002,98.12400000000001L123.09987819732034,97.932L123.41047503045068,98.14800000000001L123.721071863581,98.80799999999999L124.03166869671132,98.364L124.96345919610232,97.86000000000001L125.27405602923264,97.25999999999999L125.58465286236297,97.16400000000002L125.8952496954933,97.61999999999999L126.20584652862364,98.52L127.13763702801462,99L127.44823386114494,100.128L127.75883069427526,100.51200000000001L128.0694275274056,100.10400000000001L128.38002436053594,100.392L129.31181485992693,101.172L129.62241169305724,100.86L129.9330085261876,101.24400000000001L130.2436053593179,101.46L130.55420219244823,102.48000000000002L131.48599269183921,101.97600000000001L131.79658952496956,102.048L132.10718635809988,102.43199999999999L132.4177831912302,102.108L132.72838002436055,102.84L133.6601705237515,102.40799999999999L133.97076735688185,102.624L134.2813641900122,101.904L134.5919610231425,101.388L134.90255785627284,103.404L135.83434835566382,104.412L136.14494518879414,103.476L136.4555420219245,103.584L136.76613885505483,102.66L137.07673568818512,103.03200000000001L138.0085261875761,102.87599999999999L138.31912302070646,103.88399999999999L138.62971985383678,103.85999999999999L138.94031668696712,103.548L139.25091352009744,103.63199999999999L140.18270401948845,103.45200000000001L140.49330085261875,104.37599999999999L140.8038976857491,103.67999999999998L141.1144945188794,103.572L141.42509135200973,103.22400000000002L142.35688185140074,103.32L142.66747868453106,103.368L142.97807551766138,103.272L143.28867235079173,103.74000000000001L143.59926918392205,104.37599999999999L144.53105968331303,104.4L144.84165651644335,105.55199999999999L145.1522533495737,104.544L145.46285018270402,103.77600000000001L145.77344701583436,102.91199999999999L146.70523751522535,103.524L147.01583434835567,104.568L147.326431181486,104.256L147.63702801461633,106.2L147.94762484774665,106.29599999999999L148.87941534713764,105.72L149.19001218026798,105.80399999999999L149.50060901339828,105.81599999999999L149.81120584652862,105.72L150.12180267965897,105.84000000000002L151.05359317904993,106.09200000000001L151.36419001218027,105.744L151.6747868453106,106.176L151.9853836784409,107.172L152.29598051157126,107.10000000000001L153.22777101096224,107.388L153.53836784409256,107.34L153.8489646772229,107.29199999999999L154.15956151035323,107.71199999999999L154.47015834348355,107.928L155.40194884287453,107.952L155.71254567600488,108.408L156.0231425091352,108.54L156.33373934226552,108.27600000000001L156.64433617539586,108.624L157.57612667478685,108.99600000000001L157.88672350791717,109.16399999999999L158.19732034104752,109.90799999999999L158.50791717417783,109.824L158.81851400730815,110.38799999999999L159.75030450669914,110.44799999999998L160.06090133982948,110.52000000000001L160.3714981729598,109.48800000000001L160.68209500609015,109.71599999999998L160.99269183922047,108.948L161.92448233861143,109.51200000000001L162.23507917174177,108.71999999999998L162.54567600487212,108.66L162.85627283800244,109.22399999999999L163.16686967113276,108.43199999999999L164.09866017052377,107.84400000000001L164.40925700365406,106.79999999999998L164.7198538367844,106.608L165.03045066991476,105.09599999999999L165.34104750304505,103.5L166.27283800243606,104.59199999999998L166.58343483556638,104.82L166.8940316686967,103.836L167.20462850182705,103.548L167.5152253349574,104.436L168.44701583434838,103.60799999999999L168.75761266747867,103.068L169.06820950060902,103.26L169.37880633373933,103.13999999999999L169.68940316686968,103.90799999999999L170.62119366626067,104.22L170.931790499391,104.736L171.2423873325213,104.79599999999999L171.55298416565165,105.576L171.86358099878197,106.32L172.79537149817295,105.696L173.1059683313033,105.82799999999999L173.41656516443362,106.2L173.72716199756394,105.468L174.0377588306943,105.132L174.96954933008527,105.20400000000001L175.2801461632156,105.48L175.5907429963459,105.576L175.90133982947626,106.764L176.21193666260658,105.64800000000001L177.14372716199756,105.20400000000001L177.4543239951279,106.02L177.76492082825823,105.312L178.07551766138855,104.46000000000001L178.3861144945189,104.28L179.31790499390985,103.968L179.6285018270402,103.13999999999999L179.93909866017054,103.21200000000002L180.24969549330083,105.576L180.56029232643118,104.82L181.49208282582217,103.85999999999999L181.80267965895248,103.63199999999999L182.11327649208283,104.256L182.42387332521315,104.49600000000001L182.73447015834347,104.304L183.66626065773445,105.09599999999999L183.9768574908648,106.09200000000001L184.28745432399512,105.94800000000001L184.59805115712547,105.48L184.9086479902558,105.40800000000002L185.84043848964677,104.63999999999999L186.1510353227771,104.66400000000002L186.46163215590744,104.736L186.77222898903776,105.24L187.08282582216808,105.876L188.0146163215591,105.684L188.3252131546894,104.80799999999999L188.63580998781973,104.17200000000001L188.94640682095007,103.668L189.25700365408036,104.076L190.18879415347138,103.67999999999998L190.4993909866017,103.596L190.80998781973204,103.75200000000001L191.12058465286236,102.66L191.4311814859927,103.45200000000001L192.3629719853837,103.992L192.67356881851398,103.89599999999999L192.98416565164433,103.85999999999999L193.29476248477468,103.16399999999999L193.605359317905,103.94400000000002L194.53714981729598,103.69200000000001L194.84774665042633,104.33999999999999L195.15834348355662,104.79599999999999L195.46894031668697,104.7L195.77953714981732,104.832L196.7113276492083,104.844L197.02192448233862,104.66400000000002L197.33252131546894,104.76L197.64311814859926,104.92800000000001L197.9537149817296,104.88000000000001L198.8855054811206,105.11999999999999L199.19610231425094,104.77199999999999L199.50669914738123,105.024L199.81729598051157,105.24L200.1278928136419,104.63999999999999L201.05968331303288,103.95600000000002L201.37028014616322,103.88399999999999L201.68087697929357,104.33999999999999L201.99147381242386,104.964L202.3020706455542,104.988L203.2338611449452,105.048L203.5444579780755,105.012L203.85505481120586,103.812L204.16565164433618,103.76400000000001L204.4762484774665,103.92000000000002L205.40803897685748,103.11599999999999L205.71863580998783,103.404L206.02923264311815,102.26400000000001L206.33982947624847,103.104L206.65042630937882,103.284L207.58221680876977,103.596L207.89281364190012,103.12799999999999L208.20341047503047,102.816L208.51400730816079,103.15199999999999L208.8246041412911,103.992L209.7563946406821,104.556L210.0669914738124,104.748L210.37758830694276,104.232L210.6881851400731,103.67999999999998L210.9987819732034,104.544L211.9305724725944,104.91600000000001L212.24116930572472,105.048L212.55176613885504,105.05999999999999L212.8623629719854,104.712L213.1729598051157,104.28L214.10475030450672,104.60399999999998L214.415347137637,103.87199999999999L214.72594397076736,104.03999999999999L215.03654080389768,104.19600000000001L215.347137637028,103.668L216.278928136419,103.92000000000002L216.58952496954933,103.572L216.90012180267965,104.59199999999998L217.21071863581,105.24L217.52131546894032,105.55199999999999L218.4531059683313,105.288L218.76370280146162,105.64800000000001L219.07429963459197,105.64800000000001L219.38489646772229,105.38400000000001L219.69549330085263,104.976L220.62728380024362,104.7L220.93788063337394,104.77199999999999L221.24847746650426,104.532L221.5590742996346,104.088L221.86967113276492,103.836L222.8014616321559,103.572L223.11205846528625,102.792L223.42265529841654,102.46799999999999L223.7332521315469,102.49200000000002L224.04384896467724,102.744L224.9756394640682,102.792L225.28623629719854,103.03200000000001L225.59683313032886,102.756L225.90742996345918,103.248L226.21802679658953,103.476L227.1498172959805,102.99600000000001L227.46041412911083,102.528L227.77101096224118,102.41999999999999L228.0816077953715,102.70800000000001L228.39220462850182,102.31200000000001L229.3239951278928,102.372L229.63459196102315,102.30000000000001L229.94518879415347,102.44399999999999L230.25578562728379,101.47199999999998L230.56638246041413,101.46L231.49817295980512,101.01600000000002L231.80876979293544,101.4L232.11936662606578,102.28800000000001L232.4299634591961,103.068L232.74056029232642,103.284L233.6723507917174,102.97200000000001L233.98294762484775,102.88799999999999L234.29354445797807,102.54L234.60414129110842,101.98799999999999L234.91473812423874,103.61999999999999L235.8465286236297,103.248L236.15712545676004,103.77600000000001L236.4677222898904,103.67999999999998L236.7783191230207,104.124L237.08891595615103,104.256L238.02070645554204,104.124" fill="none" stroke="#af516c" stroke-linejoin="round" stroke-linecap="round" stroke-width="2"></path></g></g></svg>