<svg xmlns="http://www.w3.org/2000/svg" viewBox="0 0 304 270"><style>/* <![CDATA[ */.chart-title{font-size:20px;fill:#43423e}.chart-subtitle{font-size:15px;fill:#74736c}.chart-source{font-size:10px;fill-opacity:.4}.axis .domain{fill:none;stroke:#74736c}.tick line{fill:none;stroke:#000;stroke-opacity:.2}.tick text{fill-opacity:.6;font-size:12px}.y.axis .tick line{stroke-dasharray:1}.y.axis .domain{fill:none;stroke-opacity:0}.y.axis .highlight-line{fill:none;stroke:#74736c}/* ]]> */</style><text class="chart-title" y="22">脱欧公投后英镑兑美元走势</text><text class="chart-subtitle" y="42">每元英镑兑换等值美元</text><text class="chart-source" y="265">来源:彭博. 2018年5月7日</text><g transform="translate(1,100)"><g class="x axis" transform="translate(0,120)" fill="none" font-size="10" font-family="sans-serif" text-anchor="middle"><path class="domain" stroke="#000" d="M0.5,0V0.5H255.5V0"></path><g class="tick" opacity="1" transform="translate(0.5,0)"><line stroke="#000" y2="6"></line><text fill="#000" y="9" dy="0.71em">April</text></g><g class="tick" opacity="1" transform="translate(28.764311814859926,0)"><line stroke="#000" y2="6"></line><text fill="#000" y="9" dy="0.71em">July</text></g><g class="tick" opacity="1" transform="translate(57.33922046285018,0)"><line stroke="#000" y2="6"></line><text fill="#000" y="9" dy="0.71em">October</text></g><g class="tick" opacity="1" transform="translate(85.91412911084043,0)"><line stroke="#000" y2="6"></line><text fill="#000" y="9" dy="0.71em">2017</text></g><g class="tick" opacity="1" transform="translate(113.86784409257004,0)"><line stroke="#000" y2="6"></line><text fill="#000" y="9" dy="0.71em">April</text></g><g class="tick" opacity="1" transform="translate(142.13215590742996,0)"><line stroke="#000" y2="6"></line><text fill="#000" y="9" dy="0.71em">July</text></g><g class="tick" opacity="1" transform="translate(170.7070645554202,0)"><line stroke="#000" y2="6"></line><text fill="#000" y="9" dy="0.71em">October</text></g><g class="tick" opacity="1" transform="translate(199.28197320341047,0)"><line stroke="#000" y2="6"></line><text fill="#000" y="9" dy="0.71em">2018</text></g><g class="tick" opacity="1" transform="translate(227.23568818514008,0)"><line stroke="#000" y2="6"></line><text fill="#000" y="9" dy="0.71em">April</text></g><g class="tick" opacity="1" transform="translate(255.5,0)"><line stroke="#000" y2="6"></line><text fill="#000" y="9" dy="0.71em">July</text></g></g><g class="y axis" transform="translate(255,0)" fill="none" font-size="10" font-family="sans-serif" text-anchor="start"><path class="domain" stroke="#000" d="M0,120.5H0.5V0.5H0"></path><g class="tick" opacity="1" transform="translate(0,120.5)"><line stroke="#000" x2="-255"></line><text fill="#000" x="3" dy="0.32em">1.0</text></g><g class="tick" opacity="1" transform="translate(0,96.5)"><line stroke="#000" x2="-255"></line><text fill="#000" x="3" dy="0.32em">1.2</text></g><g class="tick" opacity="1" transform="translate(0,72.50000000000001)"><line stroke="#000" x2="-255"></line><text fill="#000" x="3" dy="0.32em">1.4</text></g><g class="tick" opacity="1" transform="translate(0,48.499999999999986)"><line stroke="#000" x2="-255"></line><text fill="#000" x="3" dy="0.32em">1.6</text></g><g class="tick" opacity="1" transform="translate(0,24.5)"><line stroke="#000" x2="-255"></line><text fill="#000" x="3" dy="0.32em">1.8</text></g><g class="tick" opacity="1" transform="translate(0,0.5)"><line stroke="#000" x2="-255"></line><text fill="#000" x="3" dy="0.32em">2.0</text></g></g><g><path d="M25.572472594397077,63.51600000000001L25.883069427527403,61.476L26.193666260657732,75.85199999999999L27.12545676004872,81.3L27.43605359317905,79.872L27.746650426309376,78.852L28.057247259439706,80.268L28.367844092570035,80.79599999999999L29.29963459196102,80.556L29.61023142509135,83.73599999999999L29.92082825822168,84.828L30.23142509135201,85.10400000000001L30.54202192448234,84.55200000000002L31.473812423873326,84.024L31.784409257003656,81.036L32.095006090133985,82.236L32.40560292326431,79.88399999999999L32.716199756394644,81.69600000000001L33.64799025578562,80.94000000000001L33.958587088915955,82.668L34.26918392204628,81.504L34.579780755176614,81.20400000000001L34.89037758830694,82.69200000000001L35.82216808769793,82.32L36.13276492082826,82.44L36.44336175395859,81.324L36.75395858708892,82.032L37.06455542021924,81.24000000000001L37.99634591961023,81.85199999999999L38.30694275274056,79.71599999999998L38.61753958587089,80.1L38.92813641900122,82.71600000000001L39.238733252131546,83.12399999999998L40.17052375152254,83.52L40.48112058465286,83.964L40.79171741778319,83.88000000000001L41.102314250913516,84.52800000000002L41.41291108404385,84.96L42.34470158343483,85.44L42.65529841656517,83.44800000000001L42.96589524969549,83.496L43.276492082825825,81.98400000000001L43.58708891595615,83.1L44.518879415347136,82.35600000000002L44.82947624847746,81.62400000000002L45.140073081607795,81.21600000000001L45.45066991473812,81.69600000000001L45.761266747868454,82.35600000000002L46.69305724725944,82.72800000000001L47.00365408038977,83.03999999999999L47.31425091352009,82.344L47.624847746650424,80.784L47.93544457978075,80.47199999999998L48.86723507917174,80.352L49.177831912302075,78.72000000000001L49.4884287454324,79.90799999999999L49.799025578562734,80.46000000000001L50.10962241169306,80.79599999999999L51.041412911084045,79.95600000000002L51.35200974421437,81.68400000000001L51.662606577344704,81.17999999999998L51.97320341047503,81.13199999999999L52.28380024360536,83.976L53.21559074299635,83.64000000000001L53.52618757612668,84.144L53.836784409257,83.61600000000001L54.14738124238733,83.064L54.45797807551766,84.408L55.38976857490865,84.30000000000001L55.70036540803898,83.72399999999999L56.01096224116931,83.77199999999999L56.321559074299635,84.38400000000001L56.63215590742997,84.33599999999998L57.563946406820946,85.896L57.87454323995128,87.26400000000001L58.185140073081605,87.012L58.49573690621194,88.60799999999999L58.806333739342264,90.792L59.738124238733256,91.656L60.04872107186358,94.524L60.359317904993915,93.552L60.669914738124234,92.952L60.98051157125457,93.708L61.91230207064555,93.804L62.222898903775885,92.424L62.53349573690621,92.58000000000001L62.844092570036544,92.952L63.15468940316687,93.192L64.08647990255785,93.144L64.39707673568819,93.74400000000001L64.70767356881852,93.03600000000002L65.01827040194884,94.03200000000001L65.32886723507917,93.78L66.26065773447016,93.096L66.57125456760048,93.084L66.88185140073082,92.352L67.19244823386114,90.468L67.50304506699148,89.79599999999999L68.43483556638246,91.24799999999999L68.7454323995128,91.452L69.05602923264311,91.12800000000001L69.36662606577345,89.33999999999999L69.67722289890378,88.84799999999998L70.60901339829476,90.11999999999999L70.9196102314251,90.51599999999999L71.23020706455542,90.684L71.54080389768575,90.996L71.85140073081608,91.896L72.78319123020705,90.07199999999999L73.0937880633374,90.924L73.40438489646772,90.684L73.71498172959805,90.588L74.02557856272837,90.276L74.95736906211937,91.008L75.26796589524969,90.08399999999999L75.57856272838004,89.92800000000001L75.88915956151035,88.90799999999999L76.19975639464067,87.25200000000001L77.13154689403167,87.21599999999998L77.44214372716199,87.864L77.75274056029232,88.488L78.06333739342266,88.968L78.37393422655299,89.136L79.30572472594397,87.852L79.6163215590743,88.104L79.92691839220463,89.232L80.23751522533495,90.984L80.54811205846529,90.048L81.47990255785626,91.25999999999999L81.79049939098661,91.58399999999999L82.10109622411693,91.764L82.41169305724726,92.60400000000001L82.72228989037758,92.61600000000001L83.65408038976857,92.61600000000001L83.9646772228989,92.74799999999999L84.27527405602923,93.28800000000001L84.58587088915957,92.868L84.89646772228988,91.92L85.82825822168088,92.664L86.1388550548112,93.156L86.44945188794154,92.12400000000001L86.76004872107187,90.97200000000001L87.07064555420219,92.55600000000001L88.00243605359319,94.04400000000001L88.3130328867235,93.876L88.62362971985384,93.44399999999999L88.93422655298417,94.05600000000001L89.2448233861145,93.816L90.17661388550549,95.436L90.48721071863581,91.032L90.79780755176614,92.868L91.10840438489646,91.896L91.4190012180268,91.5L92.35079171741778,89.57999999999998L92.66138855054812,89.75999999999999L92.97198538367844,88.392L93.28258221680876,88.836L93.5931790499391,89.33999999999999L94.52496954933008,90.168L94.83556638246041,89.05199999999999L95.14616321559075,88.092L95.45676004872108,89.67600000000002L95.7673568818514,90.19200000000001L96.69914738124238,90.37199999999999L97.00974421437272,89.89199999999998L97.32034104750304,89.50800000000001L97.63093788063338,90.036L97.9415347137637,90.10800000000002L98.8733252131547,89.68800000000002L99.18392204628502,90.38400000000001L99.49451887941535,90.468L99.80511571254567,90.132L100.115712545676,91.05599999999998L101.04750304506699,90.444L101.35809987819732,90.32399999999998L101.66869671132766,90.6L101.97929354445797,89.328L102.2898903775883,90.456L103.22168087697929,90.696L103.53227771010961,91.44L103.84287454323996,92.484L104.15347137637028,92.79599999999999L104.46406820950061,92.50799999999998L105.3958587088916,93.168L105.70645554202193,93.6L106.01705237515225,93.98399999999998L106.3276492082826,94.02000000000001L106.63824604141291,93.99600000000001L107.5700365408039,93.372L107.88063337393423,94.16399999999999L108.19123020706455,92.50799999999998L108.50182704019488,91.68L108.81242387332522,91.24799999999999L109.7442143727162,91.70400000000001L110.05481120584653,90.264L110.36540803897685,90.18L110.67600487210719,89.748L110.9866017052375,90.32399999999998L111.9183922046285,89.292L112.22898903775882,90.6L112.53958587088917,90.792L112.85018270401949,90.38400000000001L113.16077953714982,89.4L114.0925700365408,90.168L114.40316686967113,90.72L114.71376370280146,90.20400000000001L115.02436053593179,90.36000000000001L115.33495736906212,91.54799999999999L116.26674786845311,91.02L116.57734470158344,90.10800000000002L116.88794153471376,89.52L117.19853836784408,89.964L117.50913520097443,89.724L118.4409257003654,89.22L118.75152253349574,85.908L119.06211936662606,86.67599999999999L119.3727161997564,86.24400000000001L119.68331303288672,86.196L120.6151035322777,86.448L120.92570036540803,85.896L121.23629719853837,85.82400000000001L121.5468940316687,85.152L121.85749086479902,84.58800000000001L122.78928136419002,85.368L123.09987819732034,84.732L123.41047503045068,85.596L123.721071863581,84.924L124.03166869671132,84.216L124.96345919610232,84.72L125.27405602923264,84.79199999999999L125.58465286236297,84.744L125.8952496954933,85.368L126.20584652862364,85.32000000000001L127.13763702801462,85.24799999999999L127.44823386114494,84.996L127.75883069427526,84.36000000000001L128.0694275274056,84.744L128.38002436053594,83.56800000000001L129.31181485992693,84L129.62241169305724,84.46799999999999L129.9330085261876,84.33599999999998L130.2436053593179,84.696L130.55420219244823,86.352L131.48599269183921,85.91999999999999L131.79658952496956,85.692L132.10718635809988,85.32000000000001L132.4177831912302,85.416L132.72838002436055,85.34400000000001L133.6601705237515,85.152L133.97076735688185,85.06799999999998L134.2813641900122,84.47999999999999L134.5919610231425,84.52800000000002L134.90255785627284,87.048L135.83434835566382,88.092L136.14494518879414,86.95200000000001L136.4555420219245,86.98799999999999L136.76613885505483,86.904L137.07673568818512,86.604L138.0085261875761,87.15599999999999L138.31912302070646,88.45199999999998L138.62971985383678,87.94799999999998L138.94031668696712,87.816L139.25091352009744,87.38399999999999L140.18270401948845,87.324L140.49330085261875,86.23199999999999L140.8038976857491,84.888L141.1144945188794,83.916L141.42509135200973,83.7L142.35688185140074,84.72L142.66747868453106,84.96L142.97807551766138,84.79199999999999L143.28867235079173,84.34800000000001L143.59926918392205,85.32000000000001L144.53105968331303,85.428L144.84165651644335,85.82400000000001L145.1522533495737,85.38L145.46285018270402,84.732L145.77344701583436,82.82399999999998L146.70523751522535,83.34000000000002L147.01583434835567,83.52L147.326431181486,83.73599999999999L147.63702801461633,84.32400000000001L147.94762484774665,84.03599999999999L148.87941534713764,83.664L149.19001218026798,83.7L149.50060901339828,82.536L149.81120584652862,83.208L150.12180267965897,82.368L151.05359317904993,81.42000000000002L151.36419001218027,81.564L151.6747868453106,81.324L151.9853836784409,82.344L152.29598051157126,83.52L153.22777101096224,83.57999999999998L153.53836784409256,84.096L153.8489646772229,83.952L154.15956151035323,84.27599999999998L154.47015834348355,83.832L155.40194884287453,84.432L155.71254567600488,85.572L156.0231425091352,85.308L156.33373934226552,85.584L156.64433617539586,85.56L157.57612667478685,85.19999999999999L157.88672350791717,86.112L158.19732034104752,86.4L158.50791717417783,86.388L158.81851400730815,85.416L159.75030450669914,84.80400000000002L160.06090133982948,84.984L160.3714981729598,84.9L160.68209500609015,84.84L160.99269183922047,84.58800000000001L161.92448233861143,84.828L162.23507917174177,83.60399999999998L162.54567600487212,83.484L162.85627283800244,82.788L163.16686967113276,81.6L164.09866017052377,82.044L164.40925700365406,80.604L164.7198538367844,81.468L165.03045066991476,79.21199999999999L165.34104750304505,76.87200000000001L166.27283800243606,78.06L166.58343483556638,77.964L166.8940316686967,78.06L167.20462850182705,77.03999999999999L167.5152253349574,77.952L168.44701583434838,78.408L168.75761266747867,78.50399999999999L169.06820950060902,79.356L169.37880633373933,78.696L169.68940316686968,79.22400000000002L170.62119366626067,80.68800000000002L170.931790499391,81.15599999999999L171.2423873325213,81.024L171.55298416565165,82.57199999999999L171.86358099878197,83.208L172.79537149817295,82.29599999999999L173.1059683313033,81.564L173.41656516443362,81.324L173.72716199756394,80.856L174.0377588306943,80.58L174.96954933008527,80.988L175.2801461632156,81.72L175.5907429963459,81.53999999999999L175.90133982947626,82.09199999999998L176.21193666260658,81.72L177.14372716199756,81.62400000000002L177.4543239951279,82.39199999999998L177.76492082825823,80.856L178.07551766138855,82.068L178.3861144945189,82.464L179.31790499390985,81.504L179.6285018270402,80.604L179.93909866017054,81.06L180.24969549330083,83.292L180.56029232643118,83.076L181.49208282582217,81.94800000000001L181.80267965895248,82.00800000000001L182.11327649208283,82.60800000000002L182.42387332521315,82.25999999999999L182.73447015834347,81.64800000000001L183.66626065773445,82.60800000000002L183.9768574908648,82.02L184.28745432399512,81.94800000000001L184.59805115712547,81.65999999999998L184.9086479902558,81.42000000000002L185.84043848964677,81.17999999999998L186.1510353227771,81.13199999999999L186.46163215590744,80.1L186.77222898903776,80.292L187.08282582216808,79.95600000000002L188.0146163215591,80.18400000000001L188.3252131546894,79.93200000000002L188.63580998781973,79.092L188.94640682095007,77.69999999999999L189.25700365408036,78.27599999999998L190.18879415347138,78.24000000000001L190.4993909866017,78.684L190.80998781973204,79.284L191.12058465286236,78.31200000000001L191.4311814859927,79.32000000000001L192.3629719853837,79.90799999999999L192.67356881851398,80.18400000000001L192.98416565164433,78.96L193.29476248477468,78.828L193.605359317905,80.16L194.53714981729598,79.404L194.84774665042633,79.38L195.15834348355662,79.48799999999999L195.46894031668697,79.368L195.77953714981732,79.64399999999999L196.7113276492083,79.548L197.02192448233862,79.512L197.33252131546894,79.19999999999999L197.64311814859926,78.684L197.9537149817296,77.84400000000001L198.8855054811206,77.964L199.19610231425094,76.92L199.50669914738123,77.808L199.81729598051157,77.388L200.1278928136419,77.148L201.05968331303288,77.184L201.37028014616322,77.51999999999998L201.68087697929357,77.916L201.99147381242386,77.54399999999998L202.3020706455542,75.264L203.2338611449452,74.49600000000001L203.5444579780755,74.49600000000001L203.85505481120586,74.02799999999999L204.16565164433618,73.272L204.4762484774665,73.70400000000001L205.40803897685748,72.15599999999999L205.71863580998783,72.00000000000001L206.02923264311815,69.096L206.33982947624847,70.29599999999999L206.65042630937882,70.08000000000001L207.58221680876977,71.112L207.89281364190012,70.23599999999999L208.20341047503047,69.708L208.51400730816079,68.832L208.8246041412911,70.584L209.7563946406821,72.49200000000002L210.0669914738124,72.612L210.37758830694276,73.42799999999998L210.6881851400731,73.04400000000001L210.9987819732034,74.076L211.9305724725944,73.94400000000002L212.24116930572472,73.272L212.55176613885504,72.012L212.8623629719854,70.81200000000001L213.1729598051157,71.68799999999999L214.10475030450672,72.00000000000001L214.415347137637,72.048L214.72594397076736,72.98400000000001L215.03654080389768,72.528L215.347137637028,72.348L216.278928136419,72.38399999999999L216.58952496954933,73.092L216.90012180267965,74.88000000000001L217.21071863581,74.68800000000002L217.52131546894032,74.37600000000002L218.4531059683313,73.812L218.76370280146162,73.344L219.07429963459197,73.248L219.38489646772229,74.268L219.69549330085263,73.8L220.62728380024362,73.12799999999999L220.93788063337394,72.45600000000002L221.24847746650426,72.45600000000002L221.5590742996346,72.756L221.86967113276492,72.69599999999998L222.8014616321559,71.71199999999999L223.11205846528625,72.024L223.42265529841654,70.308L223.7332521315469,70.84800000000001L224.04384896467724,70.416L224.9756394640682,69.252L225.28623629719854,70.11600000000001L225.59683313032886,71.07600000000001L225.90742996345918,71.784L226.21802679658953,71.82000000000001L227.1498172959805,71.47200000000001L227.46041412911083,71.316L227.77101096224118,71.052L228.0816077953715,71.96399999999998L228.39220462850182,70.896L229.3239951278928,70.428L229.63459196102315,69.888L229.94518879415347,69.876L230.25578562728379,69.264L230.56638246041413,69.144L231.49817295980512,67.932L231.80876979293544,68.54399999999998L232.11936662606578,69.564L232.4299634591961,70.95599999999999L232.74056029232642,72.00000000000001L233.6723507917174,72.71999999999998L233.98294762484775,72.26400000000001L234.29354445797807,72.816L234.60414129110842,72.97199999999998L234.91473812423874,74.62800000000001L235.8465286236297,74.844L236.15712545676004,76.632L236.4677222898904,77.08800000000001L236.7783191230207,77.10000000000001L237.08891595615103,77.628L238.02070645554204,77.53200000000001" fill="none" stroke="#af516c" stroke-linejoin="round" stroke-linecap="round" stroke-width="2"></path></g></g></svg>