<svg xmlns="http://www.w3.org/2000/svg" viewBox="0 0 304 270"><style>/* <![CDATA[ */.chart-title{font-size:20px;fill:#43423e}.chart-subtitle{font-size:15px;fill:#74736c}.chart-source{font-size:10px;fill-opacity:.4}.axis .domain{fill:none;stroke:#74736c}.tick line{fill:none;stroke:#000;stroke-opacity:.2}.tick text{fill-opacity:.6;font-size:12px}.y.axis .tick line{stroke-dasharray:1}.y.axis .domain{fill:none;stroke-opacity:0}.y.axis .highlight-line{fill:none;stroke:#74736c}/* ]]> */</style><text class="chart-title" y="22">英国经济规模</text><text class="chart-subtitle" y="42">每季(10亿英镑),2011价格计算</text><text class="chart-source" y="265">来源:英国国家统计局╱彭博. 2018年4月27日</text><g transform="translate(1,100)"><g class="x axis" transform="translate(0,120)" fill="none" font-size="10" font-family="sans-serif" text-anchor="middle"><path class="domain" stroke="#000" d="M0.5,0V0.5H255.5V0"></path><g class="tick" opacity="1" transform="translate(18.703598670056717,0)"><line stroke="#000" y2="6"></line><text fill="#000" y="9" dy="0.71em">2006</text></g><g class="tick" opacity="1" transform="translate(55.110796010170155,0)"><line stroke="#000" y2="6"></line><text fill="#000" y="9" dy="0.71em">2008</text></g><g class="tick" opacity="1" transform="translate(91.56786622335224,0)"><line stroke="#000" y2="6"></line><text fill="#000" y="9" dy="0.71em">2010</text></g><g class="tick" opacity="1" transform="translate(127.97506356346567,0)"><line stroke="#000" y2="6"></line><text fill="#000" y="9" dy="0.71em">2012</text></g><g class="tick" opacity="1" transform="translate(164.43213377664776,0)"><line stroke="#000" y2="6"></line><text fill="#000" y="9" dy="0.71em">2014</text></g><g class="tick" opacity="1" transform="translate(200.8393311167612,0)"><line stroke="#000" y2="6"></line><text fill="#000" y="9" dy="0.71em">2016</text></g><g class="tick" opacity="1" transform="translate(237.29640132994328,0)"><line stroke="#000" y2="6"></line><text fill="#000" y="9" dy="0.71em">2018</text></g></g><g class="y axis" transform="translate(255,0)" fill="none" font-size="10" font-family="sans-serif" text-anchor="start"><path class="domain" stroke="#000" d="M0,120.5H0.5V0.5H0"></path><g class="tick" opacity="1" transform="translate(0,107.48795180722891)"><line stroke="#000" x2="-255"></line><text fill="#000" x="3" dy="0.32em">420</text></g><g class="tick" opacity="1" transform="translate(0,78.57228915662651)"><line stroke="#000" x2="-255"></line><text fill="#000" x="3" dy="0.32em">440</text></g><g class="tick" opacity="1" transform="translate(0,49.6566265060241)"><line stroke="#000" x2="-255"></line><text fill="#000" x="3" dy="0.32em">460</text></g><g class="tick" opacity="1" transform="translate(0,20.740963855421683)"><line stroke="#000" x2="-255"></line><text fill="#000" x="3" dy="0.32em">480</text></g></g><g><path d="M4.4553099941326035,118.76674698795179L8.993741443379621,112.25204819277111L13.582045765695286,105.89493975903619L18.170350088010952,96.97156626506025L22.658908664189322,95.34650602409636L27.197340113436336,94.0930120481928L31.785644435752005,93.6014457831325L36.37394875806767,91.33734939759037L40.86250733424604,85.7190361445783L45.40093878349306,81.21975903614461L49.989243105808725,77.0284337349398L54.57754742812438,71.90602409638556L59.115978877371404,70.15807228915665L63.654410326618425,74.51277108433737L68.24271464893408,84.75469879518074L72.83101897124975,98.45493975903617L77.31957754742812,108.29638554216864L81.85800899667514,109.66120481927709L86.4463133189908,108.72289156626505L91.03461764130648,107.10795180722896L95.52317621748485,103.8419277108434L100.06160766673186,98.3493975903614L104.64991198904752,95.4910843373494L109.2382163113632,95.04433734939755L113.72677488754155,91.4096385542169L118.26520633678858,90.48722891566263L122.85351065910424,88.11325301204818L127.44181498141991,86.92337349397593L131.9802464306669,82.86795180722893L136.51867787991395,83.54168674698798L141.1069822022296,76.28240963855421L145.69528652454528,77.20771084337348L150.18384510072366,73.14072289156627L154.72227654997064,69.67518072289158L159.31058087228632,64.19421686746989L163.89888519460197,60.821204819277085L168.38744377078035,55.20867469879515L172.9258752200274,49.58746987951808L177.51417954234304,44.52867469879516L182.10248386465872,39.430843373494014L186.5910424408371,37.11903614457829L191.12947389008409,33.226987951807274L195.71777821239976,30.3903614457831L200.30608253471542,25.42698795180722L204.84451398396246,23.969638554216885L209.38294543320944,20.68481927710846L213.97124975552512,16.93301204819275L218.5595540778408,11.715180722891574L223.04811265401915,9.51036144578309L227.5865441032662,7.772530120481889L232.17484842558184,4.516626506024139L236.76315274789752,1.7566265060240625L241.2517113240759,1.0438554216867288" fill="none" stroke="#af516c" stroke-linejoin="round" stroke-linecap="round" stroke-width="2"></path></g></g></svg>