<svg xmlns="http://www.w3.org/2000/svg" viewBox="0 0 304 270"><style>/* <![CDATA[ */.chart-title{font-size:20px;fill:#43423e}.chart-subtitle{font-size:15px;fill:#74736c}.chart-source{font-size:10px;fill-opacity:.4}.axis .domain{fill:none;stroke:#74736c}.tick line{fill:none;stroke:#000;stroke-opacity:.2}.tick text{fill-opacity:.6;font-size:12px}.y.axis .tick line{stroke-dasharray:1}.y.axis .domain{fill:none;stroke-opacity:0}.y.axis .highlight-line{fill:none;stroke:#74736c}/* ]]> */</style><text class="chart-title" y="22">美国经济规模</text><text class="chart-subtitle" y="42">万亿美元，以不变价格计算</text><text class="chart-source" y="265">来源:美国经济分析局╱彭博. 2018年4月27日</text><g transform="translate(1,100)"><g class="x axis" transform="translate(0,120)" fill="none" font-size="10" font-family="sans-serif" text-anchor="middle"><path class="domain" stroke="#000" d="M0.5,0V0.5H255.5V0"></path><g class="tick" opacity="1" transform="translate(0.5,0)"><line stroke="#000" y2="6"></line><text fill="#000" y="9" dy="0.71em">2000</text></g><g class="tick" opacity="1" transform="translate(64.27618069815196,0)"><line stroke="#000" y2="6"></line><text fill="#000" y="9" dy="0.71em">2005</text></g><g class="tick" opacity="1" transform="translate(128.01745379876797,0)"><line stroke="#000" y2="6"></line><text fill="#000" y="9" dy="0.71em">2010</text></g><g class="tick" opacity="1" transform="translate(191.758726899384,0)"><line stroke="#000" y2="6"></line><text fill="#000" y="9" dy="0.71em">2015</text></g><g class="tick" opacity="1" transform="translate(255.5,0)"><line stroke="#000" y2="6"></line><text fill="#000" y="9" dy="0.71em">2020</text></g></g><g class="y axis" transform="translate(255,0)" fill="none" font-size="10" font-family="sans-serif" text-anchor="start"><path class="domain" stroke="#000" d="M0,120.5H0.5V0.5H0"></path><g class="tick" opacity="1" transform="translate(0,120.5)"><line stroke="#000" x2="-255"></line><text fill="#000" x="3" dy="0.32em">12</text></g><g class="tick" opacity="1" transform="translate(0,80.5)"><line stroke="#000" x2="-255"></line><text fill="#000" x="3" dy="0.32em">14</text></g><g class="tick" opacity="1" transform="translate(0,40.5)"><line stroke="#000" x2="-255"></line><text fill="#000" x="3" dy="0.32em">16</text></g><g class="tick" opacity="1" transform="translate(0,0.5)"><line stroke="#000" x2="-255"></line><text fill="#000" x="3" dy="0.32em">18</text></g></g><g><path d="M3.1533196440793976,112.81800000000001L6.329911019849418,108.15L9.541409993155375,107.84599999999998L12.752908966461327,106.41400000000002L15.894592744695414,107.134L19.071184120465436,105.794L22.28268309377139,106.59800000000001L25.494182067077347,105.894L28.635865845311432,103.55400000000003L31.812457221081452,102.13999999999999L35.0239561943874,100.884L38.23545516769336,100.72L41.37713894592744,99.376L44.553730321697465,96.95799999999998L47.76522929500342,92.55200000000002L50.97672826830938,89.42599999999999L54.153319644079396,87.86999999999999L57.32991101984942,85.87599999999998L60.541409993155376,83.384L63.752908966461334,80.99199999999999L66.8945927446954,78.018L70.07118412046543,76.54599999999999L73.28268309377138,74.16400000000003L76.49418206707735,72.532L79.63586584531143,69.07799999999997L82.81245722108144,68.20799999999998L86.0239561943874,67.94799999999998L89.23545516769336,65.66200000000002L92.37713894592744,65.47999999999999L95.55373032169747,63.22599999999998L98.76522929500342,61.23000000000001L101.97672826830939,60.16400000000001L105.15331964407939,62.21L108.32991101984942,60.732L111.54140999315537,62.16799999999999L114.75290896646133,68.46000000000001L117.89459274469542,72.5L121.07118412046543,72.88799999999998L124.28268309377138,71.95L127.49418206707735,69.162L130.63586584531143,67.90400000000002L133.81245722108144,65.08200000000002L137.0239561943874,63.09000000000001L140.23545516769337,61.22L143.37713894592744,62.37400000000001L146.55373032169746,60.20799999999998L149.76522929500342,59.577999999999996L152.97672826830936,56.19400000000002L156.1533196440794,54.17999999999999L159.32991101984942,52.75200000000001L162.54140999315538,52.38400000000003L165.75290896646132,52.31400000000001L168.89459274469542,50.16200000000002L172.07118412046543,49.567999999999984L175.28268309377137,47.17400000000001L178.49418206707736,44.122000000000014L181.63586584531143,44.848L184.81245722108144,41.28400000000002L188.0239561943874,37.209999999999965L191.23545516769335,35.59599999999996L194.37713894592747,32.99999999999997L197.55373032169746,30.781999999999954L200.76522929500342,29.448000000000008L203.9767282683094,29.048000000000016L207.15331964407937,28.567999999999998L210.32991101984942,26.730000000000018L213.54140999315536,24.43800000000003L216.75290896646135,22.971999999999966L219.89459274469542,21.935999999999964L223.07118412046543,19.37800000000003L226.2826830937714,16.721999999999966L229.49418206707733,14.269999999999996L232.63586584531143,12.284000000000006" fill="none" stroke="#af516c" stroke-linejoin="round" stroke-linecap="round" stroke-width="2"></path></g></g></svg>