<svg xmlns="http://www.w3.org/2000/svg" viewBox="0 0 304 270"><style>/* <![CDATA[ */.chart-title{font-size:20px;fill:#43423e}.chart-subtitle{font-size:15px;fill:#74736c}.chart-source{font-size:10px;fill-opacity:.4}.axis .domain{fill:none;stroke:#74736c}.tick line{fill:none;stroke:#000;stroke-opacity:.2}.tick text{fill-opacity:.6;font-size:12px}.y.axis .tick line{stroke-dasharray:1}.y.axis .domain{fill:none;stroke-opacity:0}.y.axis .highlight-line{fill:none;stroke:#74736c}/* ]]> */</style><text class="chart-title" y="22">贸易加权美元指数</text><text class="chart-subtitle" y="42">指数</text><text class="chart-source" y="265">来源:彭博. 2018年5月1日</text><g transform="translate(1,100)"><g class="x axis" transform="translate(0,120)" fill="none" font-size="10" font-family="sans-serif" text-anchor="middle"><path class="domain" stroke="#000" d="M0.5,0V0.5H255.5V0"></path><g class="tick" opacity="1" transform="translate(18.703598670056717,0)"><line stroke="#000" y2="6"></line><text fill="#000" y="9" dy="0.71em">2006</text></g><g class="tick" opacity="1" transform="translate(55.110796010170155,0)"><line stroke="#000" y2="6"></line><text fill="#000" y="9" dy="0.71em">2008</text></g><g class="tick" opacity="1" transform="translate(91.56786622335224,0)"><line stroke="#000" y2="6"></line><text fill="#000" y="9" dy="0.71em">2010</text></g><g class="tick" opacity="1" transform="translate(127.97506356346567,0)"><line stroke="#000" y2="6"></line><text fill="#000" y="9" dy="0.71em">2012</text></g><g class="tick" opacity="1" transform="translate(164.43213377664776,0)"><line stroke="#000" y2="6"></line><text fill="#000" y="9" dy="0.71em">2014</text></g><g class="tick" opacity="1" transform="translate(200.8393311167612,0)"><line stroke="#000" y2="6"></line><text fill="#000" y="9" dy="0.71em">2016</text></g><g class="tick" opacity="1" transform="translate(237.29640132994328,0)"><line stroke="#000" y2="6"></line><text fill="#000" y="9" dy="0.71em">2018</text></g></g><g class="y axis" transform="translate(255,0)" fill="none" font-size="10" font-family="sans-serif" text-anchor="start"><path class="domain" stroke="#000" d="M0,120.5H0.5V0.5H0"></path><g class="tick" opacity="1" transform="translate(0,109.25)"><line stroke="#000" x2="-255"></line><text fill="#000" x="3" dy="0.32em">80</text></g><g class="tick" opacity="1" transform="translate(0,71.75)"><line stroke="#000" x2="-255"></line><text fill="#000" x="3" dy="0.32em">90</text></g><g class="tick" opacity="1" transform="translate(0,34.25)"><line stroke="#000" x2="-255"></line><text fill="#000" x="3" dy="0.32em">100</text></g></g><g><path d="M1.512810483082339,84.19725000000001L2.9092509290044983,80.31525L4.4553099941326035,83.614125L5.95149618619206,77.45737499999998L7.497555251320164,73.14337500000002L8.993741443379621,67.08187499999997L10.539800508507724,62.61562500000002L12.08585957363583,67.336125L13.582045765695286,66.18674999999999L15.128104830823391,60.51974999999999L16.624291022882847,56.273250000000026L18.170350088010952,59.77912500000002L19.716409153139058,64.65487499999998L21.112849599061217,61.32562499999999L22.658908664189322,61.149375L24.15509485624878,65.03024999999997L25.701153921376882,77.97562499999998L27.197340113436336,73.75800000000001L28.74339917856444,70.65899999999999L30.289458243692547,72.90900000000002L31.785644435752005,72.41887500000001L33.33170350088011,70.78275L34.827889692939564,75.016125L36.37394875806767,76.533L37.920007823195775,70.472625L39.316448269117934,70.98112499999998L40.86250733424604,73.52737499999998L42.358693526305494,78.861L43.9047525914336,80.56575000000001L45.40093878349306,80.75287499999999L46.946997848621166,86.52037500000003L48.49305691374927,86.35837499999997L49.989243105808725,92.49562499999998L51.53530217093683,100.76250000000002L53.031488362996285,107.01262499999999L54.57754742812438,100.90574999999998L56.12360649325249,102.94725000000001L57.5699198122433,104.8365L59.115978877371404,114.20175L60.612165069430866,113.55375000000002L62.15822413455897,112.30837499999998L63.654410326618425,108.10500000000002L65.20046939174654,109.37399999999998L66.74652845687463,96.18600000000002L68.24271464893408,89.86725000000001L69.7887737140622,70.64812500000001L71.28495990612166,65.56575000000001L72.83101897124975,76.16174999999998L74.37707803637787,73.13625L75.77351848230002,63.754875L77.31957754742812,61.34812499999999L78.81576373948758,67.06575000000002L80.36182280461568,81.07124999999999L81.85800899667514,87.10987499999999L83.40406806180326,89.18512500000003L84.95012712693135,94.03312500000001L86.4463133189908,98.72700000000002L87.99237238411891,103.15462500000002L89.48855857617836,104.979375L91.03461764130648,101.35874999999999L92.58067670643457,99.59625L93.97711715235674,93.05475L95.52317621748485,94.44449999999998L97.01936240954429,93.85987500000002L98.5654214746724,81.35437500000002L100.06160766673186,79.46849999999998L101.60766673185996,89.06512499999998L103.15372579698807,92.13599999999998L104.64991198904752,96.02249999999998L106.19597105417563,107.16937500000002L107.69215724623508,104.954625L109.2382163113632,100.63649999999998L110.7842753764913,103.927875L112.18071582241346,107.23724999999999L113.72677488754155,111.928875L115.222961079601,116.86387500000002L116.76902014472913,115.85100000000003L118.26520633678858,116.039625L119.81126540191669,117.478125L121.35732446704479,117.07012499999999L122.85351065910424,108.35437499999998L124.39956972423235,106.98075L125.8957559162918,104.00587499999999L127.44181498141991,99.72825L128.987874046548,99.31950000000002L130.43418736553883,103.59450000000002L131.9802464306669,100.73625L133.47643262272638,101.52187500000002L135.02249168785448,96.864375L136.51867787991395,91.98750000000001L138.06473694504206,91.30462499999999L139.61079601017016,94.32862500000002L141.1069822022296,100.62600000000002L142.6530412673577,99.66450000000002L144.14922745941718,96.43950000000002L145.69528652454528,98.78849999999998L147.2413455896734,96.740625L148.63778603559555,91.63012500000002L150.18384510072366,85.67774999999997L151.6800312927831,85.93462499999998L153.2260903579112,83.08800000000002L154.72227654997064,85.95262499999998L156.26833561509875,81.764625L157.81439468022688,85.14674999999998L159.31058087228632,86.76262500000001L160.85663993741446,90.427125L162.3528261294739,86.16037500000002L163.89888519460197,85.404L165.4449442597301,81.02550000000002L166.84138470565225,81.88762499999997L168.38744377078035,82.89075000000003L169.88362996283982,84.61574999999999L171.42968902796792,84.64200000000002L172.9258752200274,83.83462500000002L174.4719342851555,83.96587500000001L176.01799335028358,79.04512499999998L177.51417954234304,70.65074999999999L179.06023860747115,65.29425L180.55642479953062,57.59474999999998L182.10248386465872,52.38374999999998L183.6485429297868,39.39224999999999L185.044983375709,32.651624999999996L186.5910424408371,21.519750000000016L188.08722863289654,24.473625000000027L189.63328769802465,31.58025000000002L191.12947389008409,28.85024999999999L192.6755329552122,20.224125000000015L194.22159202034032,19.430249999999987L195.71777821239976,20.733749999999986L197.26383727752787,22.553999999999974L198.7600234695873,10.626000000000019L200.30608253471542,10.104375000000019L201.85214159984355,4.722000000000023L203.29845491883435,14.044875000000005L204.84451398396246,20.940375000000017L206.34070017602193,28.404375L207.88675924115,26.776875000000018L209.38294543320944,27.149999999999977L210.92900449833758,21.52649999999997L212.47506356346568,25.280249999999995L213.97124975552512,23.72737499999998L215.51730882065326,15.949874999999992L217.0134950127127,7.758750000000006L218.5595540778408,0.03712500000000318L220.1056131429689,3.089250000000021L221.50205358889104,5.7135000000000105L223.04811265401915,3.9033749999999827L224.54429884607862,6.204750000000004L226.09035791120672,9.631875000000008L227.5865441032662,15.618375000000015L229.1326031683943,25.308749999999975L230.67866223352237,30.219374999999985L232.17484842558184,33.676875000000024L233.72090749070995,26.728499999999997L235.21709368276942,24.775874999999985L236.76315274789752,26.432999999999993L238.3092118130256,36.23774999999998L239.7056522589478,38.534625000000034L241.2517113240759,36.470624999999984L242.74789751613537,35.811375" fill="none" stroke="#af516c" stroke-linejoin="round" stroke-linecap="round" stroke-width="2"></path></g></g></svg>