<svg xmlns="http://www.w3.org/2000/svg" viewBox="0 0 304 270"><style>/* <![CDATA[ */.chart-title{font-size:20px;fill:#43423e}.chart-subtitle{font-size:15px;fill:#74736c}.chart-source{font-size:10px;fill-opacity:.4}.axis .domain{fill:none;stroke:#74736c}.tick line{fill:none;stroke:#000;stroke-opacity:.2}.tick text{fill-opacity:.6;font-size:12px}.y.axis .tick line{stroke-dasharray:1}.y.axis .domain{fill:none;stroke-opacity:0}.y.axis .highlight-line{fill:none;stroke:#74736c}/* ]]> */</style><text class="chart-title" y="22">UK 10-year gilt yield, June 2016</text><text class="chart-subtitle" y="42">％</text><text class="chart-source" y="265">来源:彭博. 2018年5月4日</text><g transform="translate(1,100)"><g class="x axis" transform="translate(0,120)" fill="none" font-size="10" font-family="sans-serif" text-anchor="middle"><path class="domain" stroke="#000" d="M0.5,0V0.5H255.5V0"></path><g class="tick" opacity="1" transform="translate(34.5,0)"><line stroke="#000" y2="6"></line><text fill="#000" y="9" dy="0.71em">Jun 05</text></g><g class="tick" opacity="1" transform="translate(94,0)"><line stroke="#000" y2="6"></line><text fill="#000" y="9" dy="0.71em">Jun 12</text></g><g class="tick" opacity="1" transform="translate(153.5,0)"><line stroke="#000" y2="6"></line><text fill="#000" y="9" dy="0.71em">Jun 19</text></g><g class="tick" opacity="1" transform="translate(213,0)"><line stroke="#000" y2="6"></line><text fill="#000" y="9" dy="0.71em">Jun 26</text></g></g><g class="y axis" transform="translate(255,0)" fill="none" font-size="10" font-family="sans-serif" text-anchor="start"><path class="domain" stroke="#000" d="M0,120.5H0.5V0.5H0"></path><g class="tick" opacity="1" transform="translate(0,120.5)"><line stroke="#000" x2="-255"></line><text fill="#000" x="3" dy="0.32em">0.0</text></g><g class="tick" opacity="1" transform="translate(0,90.5)"><line stroke="#000" x2="-255"></line><text fill="#000" x="3" dy="0.32em">0.5</text></g><g class="tick" opacity="1" transform="translate(0,60.5)"><line stroke="#000" x2="-255"></line><text fill="#000" x="3" dy="0.32em">1.0</text></g><g class="tick" opacity="1" transform="translate(0,30.5)"><line stroke="#000" x2="-255"></line><text fill="#000" x="3" dy="0.32em">1.5</text></g><g class="tick" opacity="1" transform="translate(0,0.5)"><line stroke="#000" x2="-255"></line><text fill="#000" x="3" dy="0.32em">2.0</text></g><line class="highlight-line" x1="0" y1="120" x2="-255" y2="120"></line></g><g><path d="M2.8333333333333335,37.68000000000001L11.333333333333334,39.42L19.833333333333332,43.44L45.333333333333336,43.260000000000005L53.833333333333336,44.099999999999994L62.33333333333333,44.879999999999995L70.83333333333334,45.480000000000004L79.33333333333333,46.14L104.83333333333333,47.519999999999996L113.33333333333333,51.480000000000004L121.83333333333334,52.86L130.33333333333331,53.46000000000001L138.83333333333331,51.42L164.33333333333334,45.78L172.83333333333334,42.900000000000006L181.33333333333334,41.34L189.83333333333334,37.68000000000001L198.33333333333334,54.959999999999994L223.83333333333334,64.02L232.33333333333334,62.46L240.83333333333331,63.18L249.33333333333331,68.16" fill="none" stroke="#af516c" stroke-linejoin="round" stroke-linecap="round" stroke-width="2"></path></g></g></svg>