<svg xmlns="http://www.w3.org/2000/svg" viewBox="0 0 304 270"><style>/* <![CDATA[ */.chart-title{font-size:20px;fill:#43423e}.chart-subtitle{font-size:15px;fill:#74736c}.chart-source{font-size:10px;fill-opacity:.4}.axis .domain{fill:none;stroke:#74736c}.tick line{fill:none;stroke:#000;stroke-opacity:.2}.tick text{fill-opacity:.6;font-size:12px}.y.axis .tick line{stroke-dasharray:1}.y.axis .domain{fill:none;stroke-opacity:0}.y.axis .highlight-line{fill:none;stroke:#74736c}/* ]]> */</style><text class="chart-title" y="22">UK brick deliveries</text><text class="chart-subtitle" y="42">Quartery data, millions</text><text class="chart-source" y="265">来源:CEIC╱国际结算银行. 2018年2月7日</text><g transform="translate(1,100)"><g class="x axis" transform="translate(0,120)" fill="none" font-size="10" font-family="sans-serif" text-anchor="middle"><path class="domain" stroke="#000" d="M0.5,0V0.5H255.5V0"></path><g class="tick" opacity="1" transform="translate(0.5,0)"><line stroke="#000" y2="6"></line><text fill="#000" y="9" dy="0.71em">2006</text></g><g class="tick" opacity="1" transform="translate(42.970910335386726,0)"><line stroke="#000" y2="6"></line><text fill="#000" y="9" dy="0.71em">2008</text></g><g class="tick" opacity="1" transform="translate(85.5,0)"><line stroke="#000" y2="6"></line><text fill="#000" y="9" dy="0.71em">2010</text></g><g class="tick" opacity="1" transform="translate(127.97091033538673,0)"><line stroke="#000" y2="6"></line><text fill="#000" y="9" dy="0.71em">2012</text></g><g class="tick" opacity="1" transform="translate(170.5,0)"><line stroke="#000" y2="6"></line><text fill="#000" y="9" dy="0.71em">2014</text></g><g class="tick" opacity="1" transform="translate(212.97091033538672,0)"><line stroke="#000" y2="6"></line><text fill="#000" y="9" dy="0.71em">2016</text></g><g class="tick" opacity="1" transform="translate(255.5,0)"><line stroke="#000" y2="6"></line><text fill="#000" y="9" dy="0.71em">2018</text></g></g><g class="y axis" transform="translate(255,0)" fill="none" font-size="10" font-family="sans-serif" text-anchor="start"><path class="domain" stroke="#000" d="M0,120.5H0.5V0.5H0"></path><g class="tick" opacity="1" transform="translate(0,120.5)"><line stroke="#000" x2="-255"></line><text fill="#000" x="3" dy="0.32em">300</text></g><g class="tick" opacity="1" transform="translate(0,87.2590027700831)"><line stroke="#000" x2="-255"></line><text fill="#000" x="3" dy="0.32em">400</text></g><g class="tick" opacity="1" transform="translate(0,54.0180055401662)"><line stroke="#000" x2="-255"></line><text fill="#000" x="3" dy="0.32em">500</text></g><g class="tick" opacity="1" transform="translate(0,20.777008310249315)"><line stroke="#000" x2="-255"></line><text fill="#000" x="3" dy="0.32em">600</text></g></g><g><path d="M3.4519735341090576,31.242216066481987L8.804471822952316,7.14614958448756L14.156970111795575,1.1910249307479148L19.451289071412273,38.46880886426591L24.687428701802418,29.727756232686986L30.039926990645675,0.22470914127424635L35.39242527948894,6.944044321329642L40.686744239105636,41.35412742382272L45.98106319872233,53.459833795013836L51.33356148756559,40.455623268698034L56.686059776408854,78.97429362880887L61.98037873602556,108.96897506925208L67.2165183664157,119.90160664819945L72.56901665525896,89.0001108033241L77.92151494410221,78.37329639889197L83.21583390371892,103.45795013850415L88.45197353410906,100.02548476454294L93.80447182295231,65.54559556786703L99.15697011179557,67.7680886426593L104.45128907141228,111.70537396121884L109.68742870180242,87.61063711911358L115.03992699064567,73.6407756232687L120.39242527948893,72.06548476454294L125.68674423910564,98.5180055401662L130.98106319872232,89.66027700831026L136.3335614875656,87.79379501385041L141.68605977640885,80.77130193905818L146.98037873602556,104.97174515235457L152.2165183664157,105.09373961218836L157.56901665525896,67.10792243767312L162.9215149441022,54.33939058171745L168.21583390371893,75.31545706371192L173.45197353410907,74.30526315789474L178.8044718229523,61.45695290858725L184.15697011179557,60.58437673130193L189.45128907141228,80.35545706371191L194.68742870180242,85.72986149584487L200.03992699064568,61.877451523545716L205.39242527948895,66.05950138504154L210.68674423910562,98.57950138504155L215.98106319872232,89.83180055401664L221.3335614875656,56.34382271468143L226.68605977640885,56.950803324099724L231.98037873602556,67.46493074792244L237.2165183664157,63.32609418282548L242.56901665525896,38.19390581717451L247.92151494410223,43.99745152354572L253.2158339037189,56.087867036011076" fill="none" stroke="#af516c" stroke-linejoin="round" stroke-linecap="round" stroke-width="2"></path></g></g></svg>