<svg xmlns="http://www.w3.org/2000/svg" viewBox="0 0 304 270"><style>/* <![CDATA[ */.chart-title{font-size:20px;fill:#43423e}.chart-subtitle{font-size:15px;fill:#74736c}.chart-source{font-size:10px;fill-opacity:.4}.axis .domain{fill:none;stroke:#74736c}.tick line{fill:none;stroke:#000;stroke-opacity:.2}.tick text{fill-opacity:.6;font-size:12px}.y.axis .tick line{stroke-dasharray:1}.y.axis .domain{fill:none;stroke-opacity:0}.y.axis .highlight-line{fill:none;stroke:#74736c}/* ]]> */</style><text class="chart-title" y="22">英国消费者信心</text><text class="chart-subtitle" y="42"> </text><text class="chart-source" y="265">来源:欧盟委员会╱彭博. 2018年4月27日</text><g transform="translate(1,100)"><g class="x axis" transform="translate(0,120)" fill="none" font-size="10" font-family="sans-serif" text-anchor="middle"><path class="domain" stroke="#000" d="M0.5,0V0.5H255.5V0"></path><g class="tick" opacity="1" transform="translate(18.703598670056717,0)"><line stroke="#000" y2="6"></line><text fill="#000" y="9" dy="0.71em">2006</text></g><g class="tick" opacity="1" transform="translate(55.110796010170155,0)"><line stroke="#000" y2="6"></line><text fill="#000" y="9" dy="0.71em">2008</text></g><g class="tick" opacity="1" transform="translate(91.56786622335224,0)"><line stroke="#000" y2="6"></line><text fill="#000" y="9" dy="0.71em">2010</text></g><g class="tick" opacity="1" transform="translate(127.97506356346567,0)"><line stroke="#000" y2="6"></line><text fill="#000" y="9" dy="0.71em">2012</text></g><g class="tick" opacity="1" transform="translate(164.43213377664776,0)"><line stroke="#000" y2="6"></line><text fill="#000" y="9" dy="0.71em">2014</text></g><g class="tick" opacity="1" transform="translate(200.8393311167612,0)"><line stroke="#000" y2="6"></line><text fill="#000" y="9" dy="0.71em">2016</text></g><g class="tick" opacity="1" transform="translate(237.29640132994328,0)"><line stroke="#000" y2="6"></line><text fill="#000" y="9" dy="0.71em">2018</text></g></g><g class="y axis" transform="translate(255,0)" fill="none" font-size="10" font-family="sans-serif" text-anchor="start"><path class="domain" stroke="#000" d="M0,120.5H0.5V0.5H0"></path><g class="tick" opacity="1" transform="translate(0,118.35714285714286)"><line stroke="#000" x2="-255"></line><text fill="#000" x="3" dy="0.32em">-40</text></g><g class="tick" opacity="1" transform="translate(0,96.92857142857143)"><line stroke="#000" x2="-255"></line><text fill="#000" x="3" dy="0.32em">-30</text></g><g class="tick" opacity="1" transform="translate(0,75.5)"><line stroke="#000" x2="-255"></line><text fill="#000" x="3" dy="0.32em">-20</text></g><g class="tick" opacity="1" transform="translate(0,54.07142857142857)"><line stroke="#000" x2="-255"></line><text fill="#000" x="3" dy="0.32em">-10</text></g><g class="tick" opacity="1" transform="translate(0,32.64285714285715)"><line stroke="#000" x2="-255"></line><text fill="#000" x="3" dy="0.32em">0</text></g><g class="tick" opacity="1" transform="translate(0,11.214285714285722)"><line stroke="#000" x2="-255"></line><text fill="#000" x="3" dy="0.32em">10</text></g><line class="highlight-line" x1="0" y1="32.14285714285715" x2="-255" y2="32.14285714285715"></line></g><g><path d="M1.512810483082339,14.142857142857139L2.9092509290044983,3L4.4553099941326035,6.428571428571431L5.95149618619206,7.071428571428555L7.497555251320164,22.285714285714292L8.993741443379621,19.714285714285722L10.539800508507724,12.642857142857139L12.08585957363583,16.500000000000014L13.582045765695286,12.42857142857143L15.128104830823391,23.35714285714286L16.624291022882847,15.857142857142861L18.170350088010952,18.85714285714286L19.716409153139058,14.571428571428555L21.112849599061217,11.142857142857139L22.658908664189322,7.714285714285708L24.15509485624878,10.5L25.701153921376882,13.92857142857143L27.197340113436336,5.571428571428584L28.74339917856444,14.571428571428555L30.289458243692547,16.928571428571416L31.785644435752005,13.714285714285708L33.33170350088011,15.857142857142861L34.827889692939564,21.85714285714286L36.37394875806767,27.214285714285722L37.920007823195775,28.285714285714292L39.316448269117934,27.857142857142847L40.86250733424604,28.285714285714292L42.358693526305494,23.35714285714286L43.9047525914336,24.000000000000014L45.40093878349306,18L46.946997848621166,39.85714285714286L48.49305691374927,24.85714285714286L49.989243105808725,35.571428571428584L51.53530217093683,36.42857142857143L53.031488362996285,36.64285714285714L54.57754742812438,46.928571428571416L56.12360649325249,69.64285714285714L57.5699198122433,72.42857142857143L59.115978877371404,73.5L60.612165069430866,81.42857142857142L62.15822413455897,95.35714285714286L63.654410326618425,100.5L65.20046939174654,110.57142857142857L66.74652845687463,112.5L68.24271464893408,101.35714285714285L69.7887737140622,119.14285714285714L71.28495990612166,111.85714285714286L72.83101897124975,90.85714285714286L74.37707803637787,103.71428571428571L75.77351848230002,92.57142857142857L77.31957754742812,88.71428571428571L78.81576373948758,87.21428571428571L80.36182280461568,80.57142857142857L81.85800899667514,87.21428571428571L83.40406806180326,84.42857142857143L84.95012712693135,85.07142857142857L86.4463133189908,67.71428571428572L87.99237238411891,52.92857142857143L89.48855857617836,63.642857142857146L91.03461764130648,57.64285714285714L92.58067670643457,69.21428571428572L93.97711715235674,64.28571428571428L95.52317621748485,65.14285714285714L97.01936240954429,72.64285714285714L98.5654214746724,70.28571428571429L100.06160766673186,73.28571428571428L101.60766673185996,58.28571428571428L103.15372579698807,66.85714285714286L104.64991198904752,66.21428571428572L106.19597105417563,61.5L107.69215724623508,62.14285714285714L109.2382163113632,48.21428571428572L110.7842753764913,91.5L112.18071582241346,84.64285714285714L113.72677488754155,91.07142857142857L115.222961079601,96.21428571428571L116.76902014472913,84.85714285714286L118.26520633678858,84.64285714285714L119.81126540191669,93.21428571428571L121.35732446704479,93.85714285714286L122.85351065910424,96.64285714285714L124.39956972423235,100.28571428571428L125.8957559162918,90.42857142857143L127.44181498141991,104.35714285714286L128.987874046548,81.85714285714286L130.43418736553883,93.42857142857143L131.9802464306669,98.57142857142857L133.47643262272638,94.71428571428572L135.02249168785448,97.92857142857143L136.51867787991395,88.5L138.06473694504206,85.92857142857143L139.61079601017016,93.64285714285714L141.1069822022296,102.85714285714286L142.6530412673577,103.07142857142858L144.14922745941718,90.21428571428572L145.69528652454528,97.07142857142857L147.2413455896734,84.21428571428572L148.63778603559555,83.35714285714286L150.18384510072366,80.35714285714286L151.6800312927831,82.07142857142857L153.2260903579112,80.35714285714286L154.72227654997064,71.78571428571428L156.26833561509875,74.14285714285714L157.81439468022688,60.21428571428572L159.31058087228632,62.78571428571429L160.85663993741446,55.28571428571429L162.3528261294739,58.71428571428571L163.89888519460197,69.42857142857143L165.4449442597301,54.21428571428572L166.84138470565225,55.71428571428572L168.38744377078035,44.78571428571429L169.88362996283982,36.21428571428571L171.42968902796792,33.85714285714286L172.9258752200274,33.42857142857143L174.4719342851555,34.5L176.01799335028358,28.499999999999986L177.51417954234304,31.928571428571416L179.06023860747115,37.071428571428555L180.55642479953062,33L182.10248386465872,32.57142857142857L183.6485429297868,26.14285714285714L185.044983375709,25.285714285714278L186.5910424408371,16.07142857142857L188.08722863289654,19.92857142857143L189.63328769802465,25.07142857142857L191.12947389008409,6.857142857142861L192.6755329552122,11.57142857142857L194.22159202034032,1.5000000000000142L195.71777821239976,5.999999999999986L197.26383727752787,12L198.7600234695873,13.285714285714292L200.30608253471542,12.857142857142847L201.85214159984355,7.071428571428555L203.29845491883435,10.5L204.84451398396246,12L206.34070017602193,19.5L207.88675924115,10.92857142857143L209.38294543320944,19.714285714285722L210.92900449833758,33.64285714285714L212.47506356346568,22.714285714285708L213.97124975552512,18.64285714285714L215.51730882065326,4.285714285714278L217.0134950127127,21.214285714285708L218.5595540778408,5.571428571428584L220.1056131429689,18.85714285714286L221.50205358889104,23.14285714285714L223.04811265401915,22.5L224.54429884607862,18.42857142857143L226.09035791120672,14.785714285714292L227.5865441032662,33L229.1326031683943,29.571428571428555L230.67866223352237,35.78571428571429L232.17484842558184,33L233.72090749070995,27.42857142857143L235.21709368276942,36.21428571428571L236.76315274789752,38.14285714285714L238.3092118130256,36.21428571428571L239.7056522589478,31.714285714285708L241.2517113240759,31.928571428571416L242.74789751613537,27.42857142857143" fill="none" stroke="#af516c" stroke-linejoin="round" stroke-linecap="round" stroke-width="2"></path></g></g></svg>