<svg xmlns="http://www.w3.org/2000/svg" viewBox="0 0 304 270"><style>/* <![CDATA[ */.chart-title{font-size:20px;fill:#43423e}.chart-subtitle{font-size:15px;fill:#74736c}.chart-source{font-size:10px;fill-opacity:.4}.axis .domain{fill:none;stroke:#74736c}.tick line{fill:none;stroke:#000;stroke-opacity:.2}.tick text{fill-opacity:.6;font-size:12px}.y.axis .tick line{stroke-dasharray:1}.y.axis .domain{fill:none;stroke-opacity:0}.y.axis .highlight-line{fill:none;stroke:#74736c}/* ]]> */</style><text class="chart-title" y="22">英国政府</text><text class="chart-subtitle" y="42">年增长％</text><text class="chart-source" y="265">来源:英国国家统计局╱彭博. 2018年4月24日</text><g transform="translate(1,100)"><g class="x axis" transform="translate(0,120)" fill="none" font-size="10" font-family="sans-serif" text-anchor="middle"><path class="domain" stroke="#000" d="M0.5,0V0.5H255.5V0"></path><g class="tick" opacity="1" transform="translate(18.703598670056717,0)"><line stroke="#000" y2="6"></line><text fill="#000" y="9" dy="0.71em">2006</text></g><g class="tick" opacity="1" transform="translate(55.110796010170155,0)"><line stroke="#000" y2="6"></line><text fill="#000" y="9" dy="0.71em">2008</text></g><g class="tick" opacity="1" transform="translate(91.56786622335224,0)"><line stroke="#000" y2="6"></line><text fill="#000" y="9" dy="0.71em">2010</text></g><g class="tick" opacity="1" transform="translate(127.97506356346567,0)"><line stroke="#000" y2="6"></line><text fill="#000" y="9" dy="0.71em">2012</text></g><g class="tick" opacity="1" transform="translate(164.43213377664776,0)"><line stroke="#000" y2="6"></line><text fill="#000" y="9" dy="0.71em">2014</text></g><g class="tick" opacity="1" transform="translate(200.8393311167612,0)"><line stroke="#000" y2="6"></line><text fill="#000" y="9" dy="0.71em">2016</text></g><g class="tick" opacity="1" transform="translate(237.29640132994328,0)"><line stroke="#000" y2="6"></line><text fill="#000" y="9" dy="0.71em">2018</text></g></g><g class="y axis" transform="translate(255,0)" fill="none" font-size="10" font-family="sans-serif" text-anchor="start"><path class="domain" stroke="#000" d="M0,120.5H0.5V0.5H0"></path><g class="tick" opacity="1" transform="translate(0,113)"><line stroke="#000" x2="-255"></line><text fill="#000" x="3" dy="0.32em">-10</text></g><g class="tick" opacity="1" transform="translate(0,75.5)"><line stroke="#000" x2="-255"></line><text fill="#000" x="3" dy="0.32em">0</text></g><g class="tick" opacity="1" transform="translate(0,38)"><line stroke="#000" x2="-255"></line><text fill="#000" x="3" dy="0.32em">10</text></g><g class="tick" opacity="1" transform="translate(0,0.5)"><line stroke="#000" x2="-255"></line><text fill="#000" x="3" dy="0.32em">20</text></g><line class="highlight-line" x1="0" y1="75" x2="-255" y2="75"></line></g><g><path d="M1.512810483082339,20.36954585930542L2.9092509290044983,58.66697703289883L4.4553099941326035,64.82343810632518L5.95149618619206,39.02192684882502L7.497555251320164,52.206897586745114L8.993741443379621,56.77075647117854L10.539800508507724,45.71735475434336L12.08585957363583,52.04468802698145L13.582045765695286,40.346499256377996L15.128104830823391,50.44904613448503L16.624291022882847,59.747183764726124L18.170350088010952,53.51308770281102L19.716409153139058,52.35726499522552L21.112849599061217,51.058292852185986L22.658908664189322,42.50012593189602L24.15509485624878,49.927540310099346L25.701153921376882,52.26083019722135L27.197340113436336,44.39034001351047L28.74339917856444,51.11518182043221L30.289458243692547,55.04727474972191L31.785644435752005,65.41759392590653L33.33170350088011,56.316439385804784L34.827889692939564,60.5912245909767L36.37394875806767,49.275854857262374L37.920007823195775,48.98952879581152L39.316448269117934,40.36028795079676L40.86250733424604,60.250318692780155L42.358693526305494,59.55015430063567L43.9047525914336,54.68133070109914L45.40093878349306,58.010435099406685L46.946997848621166,52.06539446125204L48.49305691374927,59.233158146201625L49.989243105808725,54.675652906486945L51.53530217093683,56.39766799631789L53.031488362996285,47.52725391899419L54.57754742812438,63.4773461199726L56.12360649325249,39.381536171712824L57.5699198122433,56.71746038516496L59.115978877371404,58.76800767137951L60.612165069430866,60.24699176694111L62.15822413455897,71.45071491838542L63.654410326618425,68.43710323881601L65.20046939174654,68.568796877056L66.74652845687463,78.30304785347137L68.24271464893408,75.39957378795951L69.7887737140622,88.45680666536737L71.28495990612166,95.26851691668932L72.83101897124975,101.83530333238393L74.37707803637787,106.70383817427386L75.77351848230002,110.13218098627351L77.31957754742812,118.0605134343672L78.81576373948758,94.44099151798771L80.36182280461568,115.33066760259722L81.85800899667514,95.44186729301234L83.40406806180326,97.4369340232859L84.95012712693135,91.67113015532941L86.4463133189908,99.16363636363637L87.99237238411891,82.60897030953885L89.48855857617836,74.51013690040756L91.03461764130648,70.36966025001917L92.58067670643457,85.16166845755592L93.97711715235674,51.98741249326871L95.52317621748485,3.162203279321915L97.01936240954429,35.505513997069485L98.5654214746724,29.398297704991705L100.06160766673186,37.40684194182796L101.60766673185996,55.47815617475061L103.15372579698807,49.24072564207094L104.64991198904752,40.14497823383084L106.19597105417563,60.782265552460544L107.69215724623508,57.14332307050044L109.2382163113632,53.09659090909091L110.7842753764913,23.898550142576L112.18071582241346,60.72236433207196L113.72677488754155,67.37749270428016L115.222961079601,82.0468393878785L116.76902014472913,48.85293528351032L118.26520633678858,55.20838233218872L119.81126540191669,45.72752043596731L121.35732446704479,48.27686915887851L122.85351065910424,59.06790108821926L124.39956972423235,52.12278216788431L125.8957559162918,51.19299643844488L127.44181498141991,49.25023262472264L128.987874046548,71.01698359960413L130.43418736553883,85.93597262952102L131.9802464306669,63.038016167795504L133.47643262272638,43.055226356956624L135.02249168785448,78.98599925079603L136.51867787991395,76.04720521871229L138.06473694504206,66.93980507926238L139.61079601017016,78.27153762268266L141.1069822022296,70.98314798389848L142.6530412673577,63.72286109094316L144.14922745941718,76.47540983606558L145.69528652454528,62.43330133285704L147.2413455896734,35.929439538340475L148.63778603559555,51.802420708172505L150.18384510072366,82.6439281658422L151.6800312927831,38.740062030403635L153.2260903579112,12.34026693170523L154.72227654997064,31.784730156596552L156.26833561509875,62.336447673152676L157.81439468022688,65.27581329561528L159.31058087228632,60.537329553125424L160.85663993741446,65.1946294991019L162.3528261294739,53.16056145960688L163.89888519460197,59.27644085371123L165.4449442597301,93.73129246313923L166.84138470565225,75.3555836510539L168.38744377078035,54.052049357488116L169.88362996283982,71.004361594073L171.42968902796792,105.02646039051886L172.9258752200274,95.5198770615295L174.4719342851555,60.452369554810915L176.01799335028358,53.77002363445379L177.51417954234304,64.38112054770778L179.06023860747115,20.101482351377115L180.55642479953062,48.30533893221356L182.10248386465872,63.252337611179065L183.6485429297868,37.2930870659621L185.044983375709,56.55883574239219L186.5910424408371,67.57494835960325L188.08722863289654,61.232905056556184L189.63328769802465,49.38560722944676L191.12947389008409,58.44826487026372L192.6755329552122,56.61324215221839L194.22159202034032,67.42745893999958L195.71777821239976,63.36988812338032L197.26383727752787,77.4280992693958L198.7600234695873,72.10658950905358L200.30608253471542,66.89600755870055L201.85214159984355,54.81324124142317L203.29845491883435,58.660007538635504L204.84451398396246,67.18536158099305L206.34070017602193,58.85494877302362L207.88675924115,60.88788710309682L209.38294543320944,52.958236658932705L210.92900449833758,53.301646430391315L212.47506356346568,48.50684152827968L213.97124975552512,51.15203841831L215.51730882065326,45.85530027430306L217.0134950127127,53.527323247916016L218.5595540778408,48.376099490348096L220.1056131429689,49.15558749550844L221.50205358889104,35.875984251968504L223.04811265401915,50.50631893176984L224.54429884607862,56.91083208805628L226.09035791120672,58.916747857554725L227.5865441032662,56.48139248779362L229.1326031683943,62.5548136336456L230.67866223352237,60.8854146914938L232.17484842558184,58.36359444348377L233.72090749070995,51.42288530271851L235.21709368276942,55.57361730293769L236.76315274789752,59.297775001378L238.3092118130256,86.70835014118596L239.7056522589478,69.00235490359614L241.2517113240759,63.50403543802541" fill="none" stroke="#af516c" stroke-linejoin="round" stroke-linecap="round" stroke-width="2"></path></g></g></svg>