<svg xmlns="http://www.w3.org/2000/svg" viewBox="0 0 304 270"><style>/* <![CDATA[ */.chart-title{font-size:20px;fill:#43423e}.chart-subtitle{font-size:15px;fill:#74736c}.chart-source{font-size:10px;fill-opacity:.4}.axis .domain{fill:none;stroke:#74736c}.tick line{fill:none;stroke:#000;stroke-opacity:.2}.tick text{fill-opacity:.6;font-size:12px}.y.axis .tick line{stroke-dasharray:1}.y.axis .domain{fill:none;stroke-opacity:0}.y.axis .highlight-line{fill:none;stroke:#74736c}/* ]]> */</style><text class="chart-title" y="22">英国GDP增长率</text><text class="chart-subtitle" y="42">同比增长率％</text><text class="chart-source" y="265">来源:英国国家统计局╱彭博. 2018年4月27日</text><g transform="translate(1,100)"><g class="x axis" transform="translate(0,120)" fill="none" font-size="10" font-family="sans-serif" text-anchor="middle"><path class="domain" stroke="#000" d="M0.5,0V0.5H255.5V0"></path><g class="tick" opacity="1" transform="translate(18.703598670056717,0)"><line stroke="#000" y2="6"></line><text fill="#000" y="9" dy="0.71em">2006</text></g><g class="tick" opacity="1" transform="translate(55.110796010170155,0)"><line stroke="#000" y2="6"></line><text fill="#000" y="9" dy="0.71em">2008</text></g><g class="tick" opacity="1" transform="translate(91.56786622335224,0)"><line stroke="#000" y2="6"></line><text fill="#000" y="9" dy="0.71em">2010</text></g><g class="tick" opacity="1" transform="translate(127.97506356346567,0)"><line stroke="#000" y2="6"></line><text fill="#000" y="9" dy="0.71em">2012</text></g><g class="tick" opacity="1" transform="translate(164.43213377664776,0)"><line stroke="#000" y2="6"></line><text fill="#000" y="9" dy="0.71em">2014</text></g><g class="tick" opacity="1" transform="translate(200.8393311167612,0)"><line stroke="#000" y2="6"></line><text fill="#000" y="9" dy="0.71em">2016</text></g><g class="tick" opacity="1" transform="translate(237.29640132994328,0)"><line stroke="#000" y2="6"></line><text fill="#000" y="9" dy="0.71em">2018</text></g></g><g class="y axis" transform="translate(255,0)" fill="none" font-size="10" font-family="sans-serif" text-anchor="start"><path class="domain" stroke="#000" d="M0,120.5H0.5V0.5H0"></path><g class="tick" opacity="1" transform="translate(0,120.5)"><line stroke="#000" x2="-255"></line><text fill="#000" x="3" dy="0.32em">-3</text></g><g class="tick" opacity="1" transform="translate(0,96.5)"><line stroke="#000" x2="-255"></line><text fill="#000" x="3" dy="0.32em">-2</text></g><g class="tick" opacity="1" transform="translate(0,72.5)"><line stroke="#000" x2="-255"></line><text fill="#000" x="3" dy="0.32em">-1</text></g><g class="tick" opacity="1" transform="translate(0,48.5)"><line stroke="#000" x2="-255"></line><text fill="#000" x="3" dy="0.32em">0</text></g><g class="tick" opacity="1" transform="translate(0,24.5)"><line stroke="#000" x2="-255"></line><text fill="#000" x="3" dy="0.32em">1</text></g><g class="tick" opacity="1" transform="translate(0,0.5)"><line stroke="#000" x2="-255"></line><text fill="#000" x="3" dy="0.32em">2</text></g><line class="highlight-line" x1="0" y1="48" x2="-255" y2="48"></line></g><g><path d="M4.4553099941326035,28.799999999999997L8.993741443379621,21.60000000000001L13.582045765695286,21.60000000000001L18.170350088010952,12L22.658908664189322,40.80000000000001L27.197340113436336,43.2L31.785644435752005,45.599999999999994L36.37394875806767,38.400000000000006L40.86250733424604,26.39999999999999L45.40093878349306,31.200000000000003L49.989243105808725,31.200000000000003L54.57754742812438,28.799999999999997L59.115978877371404,40.80000000000001L63.654410326618425,64.80000000000001L68.24271464893408,86.4L72.83101897124975,100.80000000000001L77.31957754742812,86.4L81.85800899667514,52.80000000000001L86.4463133189908,43.2L91.03461764130648,40.80000000000001L95.52317621748485,36L100.06160766673186,26.39999999999999L104.64991198904752,36L109.2382163113632,45.599999999999994L113.72677488754155,33.60000000000001L118.26520633678858,45.599999999999994L122.85351065910424,38.400000000000006L127.44181498141991,43.2L131.9802464306669,33.60000000000001L136.51867787991395,50.400000000000006L141.1069822022296,19.19999999999999L145.69528652454528,50.400000000000006L150.18384510072366,33.60000000000001L154.72227654997064,36L159.31058087228632,26.39999999999999L163.89888519460197,36L168.38744377078035,26.39999999999999L172.9258752200274,26.39999999999999L177.51417954234304,28.799999999999997L182.10248386465872,28.799999999999997L186.5910424408371,40.80000000000001L191.12947389008409,33.60000000000001L195.71777821239976,38.400000000000006L200.30608253471542,31.200000000000003L204.84451398396246,43.2L209.38294543320944,36L213.97124975552512,36L218.5595540778408,31.200000000000003L223.04811265401915,40.80000000000001L227.5865441032662,43.2L232.17484842558184,36L236.76315274789752,38.400000000000006L241.2517113240759,45.599999999999994" fill="none" stroke="#af516c" stroke-linejoin="round" stroke-linecap="round" stroke-width="2"></path></g></g></svg>