<svg xmlns="http://www.w3.org/2000/svg" viewBox="0 0 304 270"><style>/* <![CDATA[ */.chart-title{font-size:20px;fill:#43423e}.chart-subtitle{font-size:15px;fill:#74736c}.chart-source{font-size:10px;fill-opacity:.4}.axis .domain{fill:none;stroke:#74736c}.tick line{fill:none;stroke:#000;stroke-opacity:.2}.tick text{fill-opacity:.6;font-size:12px}.y.axis .tick line{stroke-dasharray:1}.y.axis .domain{fill:none;stroke-opacity:0}.y.axis .highlight-line{fill:none;stroke:#74736c}/* ]]> */</style><text class="chart-title" y="22">失业率</text><text class="chart-subtitle" y="42">占成人劳动人口的比例％</text><text class="chart-source" y="265">来源:英国国家统计局╱彭博. 2018年4月17日</text><g transform="translate(1,100)"><g class="x axis" transform="translate(0,120)" fill="none" font-size="10" font-family="sans-serif" text-anchor="middle"><path class="domain" stroke="#000" d="M0.5,0V0.5H255.5V0"></path><g class="tick" opacity="1" transform="translate(18.703598670056717,0)"><line stroke="#000" y2="6"></line><text fill="#000" y="9" dy="0.71em">2006</text></g><g class="tick" opacity="1" transform="translate(55.110796010170155,0)"><line stroke="#000" y2="6"></line><text fill="#000" y="9" dy="0.71em">2008</text></g><g class="tick" opacity="1" transform="translate(91.56786622335224,0)"><line stroke="#000" y2="6"></line><text fill="#000" y="9" dy="0.71em">2010</text></g><g class="tick" opacity="1" transform="translate(127.97506356346567,0)"><line stroke="#000" y2="6"></line><text fill="#000" y="9" dy="0.71em">2012</text></g><g class="tick" opacity="1" transform="translate(164.43213377664776,0)"><line stroke="#000" y2="6"></line><text fill="#000" y="9" dy="0.71em">2014</text></g><g class="tick" opacity="1" transform="translate(200.8393311167612,0)"><line stroke="#000" y2="6"></line><text fill="#000" y="9" dy="0.71em">2016</text></g><g class="tick" opacity="1" transform="translate(237.29640132994328,0)"><line stroke="#000" y2="6"></line><text fill="#000" y="9" dy="0.71em">2018</text></g></g><g class="y axis" transform="translate(255,0)" fill="none" font-size="10" font-family="sans-serif" text-anchor="start"><path class="domain" stroke="#000" d="M0,120.5H0.5V0.5H0"></path><g class="tick" opacity="1" transform="translate(0,120.5)"><line stroke="#000" x2="-255"></line><text fill="#000" x="3" dy="0.32em">4</text></g><g class="tick" opacity="1" transform="translate(0,96.5)"><line stroke="#000" x2="-255"></line><text fill="#000" x="3" dy="0.32em">5</text></g><g class="tick" opacity="1" transform="translate(0,72.5)"><line stroke="#000" x2="-255"></line><text fill="#000" x="3" dy="0.32em">6</text></g><g class="tick" opacity="1" transform="translate(0,48.5)"><line stroke="#000" x2="-255"></line><text fill="#000" x="3" dy="0.32em">7</text></g><g class="tick" opacity="1" transform="translate(0,24.5)"><line stroke="#000" x2="-255"></line><text fill="#000" x="3" dy="0.32em">8</text></g><g class="tick" opacity="1" transform="translate(0,0.5)"><line stroke="#000" x2="-255"></line><text fill="#000" x="3" dy="0.32em">9</text></g></g><g><path d="M1.512810483082339,103.19999999999999L2.9092509290044983,100.80000000000001L4.4553099941326035,103.19999999999999L5.95149618619206,103.19999999999999L7.497555251320164,100.80000000000001L8.993741443379621,100.80000000000001L10.539800508507724,103.19999999999999L12.08585957363583,103.19999999999999L13.582045765695286,103.19999999999999L15.128104830823391,98.39999999999999L16.624291022882847,93.60000000000001L18.170350088010952,93.60000000000001L19.716409153139058,93.60000000000001L21.112849599061217,91.19999999999999L22.658908664189322,91.19999999999999L24.15509485624878,88.80000000000001L25.701153921376882,86.39999999999999L27.197340113436336,84L28.74339917856444,84L30.289458243692547,84L31.785644435752005,84L33.33170350088011,84L34.827889692939564,86.39999999999999L36.37394875806767,84L37.920007823195775,84L39.316448269117934,84L40.86250733424604,84L42.358693526305494,84L43.9047525914336,86.39999999999999L45.40093878349306,86.39999999999999L46.946997848621166,88.80000000000001L48.49305691374927,88.80000000000001L49.989243105808725,88.80000000000001L51.53530217093683,91.19999999999999L53.031488362996285,91.19999999999999L54.57754742812438,91.19999999999999L56.12360649325249,91.19999999999999L57.5699198122433,91.19999999999999L59.115978877371404,91.19999999999999L60.612165069430866,88.80000000000001L62.15822413455897,91.19999999999999L63.654410326618425,86.39999999999999L65.20046939174654,84L66.74652845687463,79.19999999999999L68.24271464893408,74.39999999999999L69.7887737140622,72L71.28495990612166,67.19999999999999L72.83101897124975,62.39999999999999L74.37707803637787,60L75.77351848230002,55.19999999999999L77.31957754742812,45.60000000000001L78.81576373948758,40.80000000000001L80.36182280461568,33.60000000000001L81.85800899667514,28.799999999999997L83.40406806180326,26.39999999999999L84.95012712693135,26.39999999999999L86.4463133189908,28.799999999999997L87.99237238411891,26.39999999999999L89.48855857617836,28.799999999999997L91.03461764130648,28.799999999999997L92.58067670643457,31.200000000000003L93.97711715235674,26.39999999999999L95.52317621748485,24L97.01936240954429,24L98.5654214746724,26.39999999999999L100.06160766673186,26.39999999999999L101.60766673185996,28.799999999999997L103.15372579698807,28.799999999999997L104.64991198904752,28.799999999999997L106.19597105417563,26.39999999999999L107.69215724623508,26.39999999999999L109.2382163113632,26.39999999999999L110.7842753764913,26.39999999999999L112.18071582241346,28.799999999999997L113.72677488754155,28.799999999999997L115.222961079601,31.200000000000003L116.76902014472913,28.799999999999997L118.26520633678858,26.39999999999999L119.81126540191669,24L121.35732446704479,19.200000000000017L122.85351065910424,16.799999999999983L124.39956972423235,14.399999999999991L125.8957559162918,12L127.44181498141991,14.399999999999991L128.987874046548,16.799999999999983L130.43418736553883,16.799999999999983L131.9802464306669,19.200000000000017L133.47643262272638,19.200000000000017L135.02249168785448,21.60000000000001L136.51867787991395,24L138.06473694504206,24L139.61079601017016,26.39999999999999L141.1069822022296,26.39999999999999L142.6530412673577,26.39999999999999L144.14922745941718,28.799999999999997L145.69528652454528,28.799999999999997L147.2413455896734,28.799999999999997L148.63778603559555,24L150.18384510072366,28.799999999999997L151.6800312927831,28.799999999999997L153.2260903579112,28.799999999999997L154.72227654997064,31.200000000000003L156.26833561509875,31.200000000000003L157.81439468022688,31.200000000000003L159.31058087228632,33.60000000000001L160.85663993741446,38.39999999999999L162.3528261294739,43.2L163.89888519460197,43.2L165.4449442597301,43.2L166.84138470565225,50.39999999999999L168.38744377078035,52.80000000000001L169.88362996283982,57.60000000000001L171.42968902796792,62.39999999999999L172.9258752200274,64.80000000000001L174.4719342851555,69.60000000000001L176.01799335028358,72L177.51417954234304,72L179.06023860747115,72L180.55642479953062,74.39999999999999L182.10248386465872,79.19999999999999L183.6485429297868,79.19999999999999L185.044983375709,81.60000000000001L186.5910424408371,84L188.08722863289654,84L189.63328769802465,81.60000000000001L191.12947389008409,81.60000000000001L192.6755329552122,84L194.22159202034032,86.39999999999999L195.71777821239976,88.80000000000001L197.26383727752787,91.19999999999999L198.7600234695873,93.60000000000001L200.30608253471542,93.60000000000001L201.85214159984355,93.60000000000001L203.29845491883435,93.60000000000001L204.84451398396246,93.60000000000001L206.34070017602193,96L207.88675924115,98.39999999999999L209.38294543320944,98.39999999999999L210.92900449833758,98.39999999999999L212.47506356346568,96L213.97124975552512,100.80000000000001L215.51730882065326,100.80000000000001L217.0134950127127,100.80000000000001L218.5595540778408,100.80000000000001L220.1056131429689,103.19999999999999L221.50205358889104,103.19999999999999L223.04811265401915,105.60000000000001L224.54429884607862,105.60000000000001L226.09035791120672,108L227.5865441032662,110.39999999999999L229.1326031683943,112.80000000000001L230.67866223352237,112.80000000000001L232.17484842558184,112.80000000000001L233.72090749070995,112.80000000000001L235.21709368276942,112.80000000000001L236.76315274789752,110.39999999999999L238.3092118130256,112.80000000000001L239.7056522589478,115.19999999999999" fill="none" stroke="#af516c" stroke-linejoin="round" stroke-linecap="round" stroke-width="2"></path></g></g></svg>