<svg xmlns="http://www.w3.org/2000/svg" viewBox="0 0 304 270"><style>/* <![CDATA[ */.chart-title{font-size:20px;fill:#43423e}.chart-subtitle{font-size:15px;fill:#74736c}.chart-source{font-size:10px;fill-opacity:.4}.axis .domain{fill:none;stroke:#74736c}.tick line{fill:none;stroke:#000;stroke-opacity:.2}.tick text{fill-opacity:.6;font-size:12px}.y.axis .tick line{stroke-dasharray:1}.y.axis .domain{fill:none;stroke-opacity:0}.y.axis .highlight-line{fill:none;stroke:#74736c}/* ]]> */</style><text class="chart-title" y="22">每位劳工成本</text><text class="chart-subtitle" y="42">季变化，非农业部门</text><text class="chart-source" y="265">来源:彭博. 2018年5月3日</text><g transform="translate(1,100)"><g class="x axis" transform="translate(0,120)" fill="none" font-size="10" font-family="sans-serif" text-anchor="middle"><path class="domain" stroke="#000" d="M0.5,0V0.5H255.5V0"></path><g class="tick" opacity="1" transform="translate(18.703598670056717,0)"><line stroke="#000" y2="6"></line><text fill="#000" y="9" dy="0.71em">2006</text></g><g class="tick" opacity="1" transform="translate(55.110796010170155,0)"><line stroke="#000" y2="6"></line><text fill="#000" y="9" dy="0.71em">2008</text></g><g class="tick" opacity="1" transform="translate(91.56786622335224,0)"><line stroke="#000" y2="6"></line><text fill="#000" y="9" dy="0.71em">2010</text></g><g class="tick" opacity="1" transform="translate(127.97506356346567,0)"><line stroke="#000" y2="6"></line><text fill="#000" y="9" dy="0.71em">2012</text></g><g class="tick" opacity="1" transform="translate(164.43213377664776,0)"><line stroke="#000" y2="6"></line><text fill="#000" y="9" dy="0.71em">2014</text></g><g class="tick" opacity="1" transform="translate(200.8393311167612,0)"><line stroke="#000" y2="6"></line><text fill="#000" y="9" dy="0.71em">2016</text></g><g class="tick" opacity="1" transform="translate(237.29640132994328,0)"><line stroke="#000" y2="6"></line><text fill="#000" y="9" dy="0.71em">2018</text></g></g><g class="y axis" transform="translate(255,0)" fill="none" font-size="10" font-family="sans-serif" text-anchor="start"><path class="domain" stroke="#000" d="M0,120.5H0.5V0.5H0"></path><g class="tick" opacity="1" transform="translate(0,107.16666666666667)"><line stroke="#000" x2="-255"></line><text fill="#000" x="3" dy="0.32em">-10</text></g><g class="tick" opacity="1" transform="translate(0,84.94444444444444)"><line stroke="#000" x2="-255"></line><text fill="#000" x="3" dy="0.32em">-5</text></g><g class="tick" opacity="1" transform="translate(0,62.72222222222223)"><line stroke="#000" x2="-255"></line><text fill="#000" x="3" dy="0.32em">0</text></g><g class="tick" opacity="1" transform="translate(0,40.5)"><line stroke="#000" x2="-255"></line><text fill="#000" x="3" dy="0.32em">5</text></g><g class="tick" opacity="1" transform="translate(0,18.27777777777777)"><line stroke="#000" x2="-255"></line><text fill="#000" x="3" dy="0.32em">10</text></g><line class="highlight-line" x1="0" y1="62.22222222222223" x2="-255" y2="62.22222222222223"></line></g><g><path d="M4.4553099941326035,68L8.993741443379621,50.66666666666667L13.582045765695286,53.777777777777786L18.170350088010952,52L22.658908664189322,35.1111111111111L27.197340113436336,60L31.785644435752005,52L36.37394875806767,44.44444444444444L40.86250733424604,18.66666666666667L45.40093878349306,74.22222222222221L49.989243105808725,76.44444444444444L54.57754742812438,50.66666666666667L59.115978877371404,25.333333333333343L63.654410326618425,77.77777777777777L68.24271464893408,51.55555555555554L72.83101897124975,30.666666666666657L77.31957754742812,116.88888888888889L81.85800899667514,52.888888888888886L86.4463133189908,75.55555555555556L91.03461764130648,72.44444444444446L95.52317621748485,83.55555555555556L100.06160766673186,48L104.64991198904752,63.11111111111111L109.2382163113632,61.333333333333336L113.72677488754155,13.333333333333343L118.26520633678858,77.77777777777777L122.85351065910424,47.55555555555556L127.44181498141991,96.44444444444444L131.9802464306669,22.666666666666686L136.51867787991395,62.666666666666664L141.1069822022296,57.33333333333333L145.69528652454528,3.555555555555557L150.18384510072366,105.33333333333333L154.72227654997064,33.33333333333333L159.31058087228632,64.44444444444444L163.89888519460197,70.66666666666667L168.38744377078035,15.1111111111111L172.9258752200274,83.11111111111111L177.51417954234304,67.55555555555554L182.10248386465872,30.666666666666657L186.5910424408371,59.555555555555564L191.12947389008409,52L195.71777821239976,63.11111111111111L200.30608253471542,30.22222222222223L204.84451398396246,73.77777777777777L209.38294543320944,44.8888888888889L213.97124975552512,62.22222222222223L218.5595540778408,87.55555555555556L223.04811265401915,40.888888888888886L227.5865441032662,67.55555555555554L232.17484842558184,57.77777777777778L236.76315274789752,52.888888888888886L241.2517113240759,50.22222222222223" fill="none" stroke="#af516c" stroke-linejoin="round" stroke-linecap="round" stroke-width="2"></path></g></g></svg>