<svg xmlns="http://www.w3.org/2000/svg" viewBox="0 0 304 270"><style>/* <![CDATA[ */.chart-title{font-size:20px;fill:#43423e}.chart-subtitle{font-size:15px;fill:#74736c}.chart-source{font-size:10px;fill-opacity:.4}.axis .domain{fill:none;stroke:#74736c}.tick line{fill:none;stroke:#000;stroke-opacity:.2}.tick text{fill-opacity:.6;font-size:12px}.y.axis .tick line{stroke-dasharray:1}.y.axis .domain{fill:none;stroke-opacity:0}.y.axis .highlight-line{fill:none;stroke:#74736c}/* ]]> */</style><text class="chart-title" y="22">美国平均周薪增长</text><text class="chart-subtitle" y="42">英镑，月变化</text><text class="chart-source" y="265">来源:美国劳工部统计局╱彭博. 2018年5月4日</text><g transform="translate(1,100)"><g class="x axis" transform="translate(0,120)" fill="none" font-size="10" font-family="sans-serif" text-anchor="middle"><path class="domain" stroke="#000" d="M0.5,0V0.5H255.5V0"></path><g class="tick" opacity="1" transform="translate(0.5,0)"><line stroke="#000" y2="6"></line><text fill="#000" y="9" dy="0.71em">2006</text></g><g class="tick" opacity="1" transform="translate(39.70598146588037,0)"><line stroke="#000" y2="6"></line><text fill="#000" y="9" dy="0.71em">2008</text></g><g class="tick" opacity="1" transform="translate(78.9656697556866,0)"><line stroke="#000" y2="6"></line><text fill="#000" y="9" dy="0.71em">2010</text></g><g class="tick" opacity="1" transform="translate(118.17165122156698,0)"><line stroke="#000" y2="6"></line><text fill="#000" y="9" dy="0.71em">2012</text></g><g class="tick" opacity="1" transform="translate(157.4313395113732,0)"><line stroke="#000" y2="6"></line><text fill="#000" y="9" dy="0.71em">2014</text></g><g class="tick" opacity="1" transform="translate(196.63732097725358,0)"><line stroke="#000" y2="6"></line><text fill="#000" y="9" dy="0.71em">2016</text></g><g class="tick" opacity="1" transform="translate(235.89700926705981,0)"><line stroke="#000" y2="6"></line><text fill="#000" y="9" dy="0.71em">2018</text></g></g><g class="y axis" transform="translate(255,0)" fill="none" font-size="10" font-family="sans-serif" text-anchor="start"><path class="domain" stroke="#000" d="M0,120.5H0.5V0.5H0"></path><g class="tick" opacity="1" transform="translate(0,120.5)"><line stroke="#000" x2="-255"></line><text fill="#000" x="3" dy="0.32em">-1</text></g><g class="tick" opacity="1" transform="translate(0,80.5)"><line stroke="#000" x2="-255"></line><text fill="#000" x="3" dy="0.32em">0</text></g><g class="tick" opacity="1" transform="translate(0,40.5)"><line stroke="#000" x2="-255"></line><text fill="#000" x="3" dy="0.32em">1</text></g><g class="tick" opacity="1" transform="translate(0,0.5)"><line stroke="#000" x2="-255"></line><text fill="#000" x="3" dy="0.32em">2</text></g><line class="highlight-line" x1="0" y1="80" x2="-255" y2="80"></line></g><g><path d="M6.409014321819713,35.999999999999986L8.073925863521483,96L9.68513058129739,48L11.350042122999158,68L13.014953664700927,88L14.626158382476833,52L16.2910699241786,84L17.902274641954506,56L19.567186183656275,52L21.232097725358045,100L22.735888795282225,64L24.40080033698399,60L26.012005054759896,72L27.676916596461666,68L29.288121314237575,44L30.953032855939345,92L32.61794439764111,72L34.22914911541702,72L35.89406065711879,88L37.5052653748947,56L39.17017691659646,72L40.83508845829823,76L42.39258635214827,68L44.05749789385004,64L45.668702611625946,88L47.333614153327716,48L48.94481887110362,72L50.60973041280539,76L52.27464195450716,60L53.885846672283066,88L55.550758213984835,76L57.16196293176074,72L58.82687447346251,92L60.49178601516427,64L61.995577085088456,60L63.660488626790226,104L65.27169334456613,72L66.93660488626792,80L68.54780960404382,88L70.21272114574558,60L71.87763268744735,72L73.48883740522325,64L75.15374894692502,84L76.76495366470093,64L78.4298652064027,76L80.09477674810447,60L81.59856781802864,96L83.26347935973041,56L84.87468407750632,60L86.53959561920809,76L88.150800336984,80L89.81571187868576,56L91.48062342038754,76L93.09182813816344,60L94.7567396798652,68L96.36794439764111,92L98.03285593934288,64L99.69776748104465,76L101.20155855096883,68L102.8664700926706,80L104.4776748104465,60L106.14258635214827,68L107.75379106992419,88L109.41870261162595,52L111.08361415332773,100L112.69481887110364,60L114.35973041280539,64L115.9709351305813,84L117.63584667228307,72L119.30075821398484,64L120.85825610783488,76L122.52316764953665,68L124.13437236731255,72L125.79928390901432,104L127.41048862679023,56L129.075400168492,72L130.74031171019377,80L132.3515164279697,68L134.01642796967144,80L135.62763268744735,68L137.29254422914912,56L138.95745577085088,88L140.46124684077506,60L142.12615838247683,64L143.73736310025274,92L145.4022746419545,76L147.0134793597304,56L148.67839090143218,88L150.34330244313395,64L151.95450716090986,88L153.61941870261163,72L155.23062342038753,68L156.8955349620893,88L158.56044650379107,60L160.06423757371525,76L161.72914911541702,48L163.34035383319292,84L165.0052653748947,72L166.6164700926706,72L168.28138163437237,72L169.94629317607414,60L171.55749789385004,88L173.2224094355518,80L174.83361415332772,56L176.4985256950295,80L178.16343723673126,64L179.66722830665543,84L181.3321398483572,72L182.9433445661331,72L184.60825610783488,64L186.21946082561078,80L187.88437236731255,76L189.54928390901432,52L191.16048862679023,76L192.825400168492,80L194.4366048862679,72L196.1015164279697,64L197.76642796967144,64L199.32392586352148,92L200.98883740522325,80L202.60004212299916,68L204.26495366470093,72L205.87615838247683,72L207.5410699241786,68L209.20598146588037,88L210.81718618365628,60L212.48209772535805,64L214.09330244313395,88L215.75821398483572,60L217.4231255265375,72L218.9269165964617,68L220.59182813816344,84L222.20303285593934,60L223.8679443976411,72L225.47914911541702,72L227.14406065711879,68L228.80897219882056,72L230.42017691659646,72L232.08508845829823,76L233.69629317607414,56L235.3612047177759,64L237.02611625947767,80L238.52990732940188,64L240.19481887110362,72L241.80602358887953,76" fill="none" stroke="#af516c" stroke-linejoin="round" stroke-linecap="round" stroke-width="2"></path></g></g></svg>