<svg xmlns="http://www.w3.org/2000/svg" viewBox="0 0 304 270"><style>/* <![CDATA[ */.chart-title{font-size:20px;fill:#43423e}.chart-subtitle{font-size:15px;fill:#74736c}.chart-source{font-size:10px;fill-opacity:.4}.axis .domain{fill:none;stroke:#74736c}.tick line{fill:none;stroke:#000;stroke-opacity:.2}.tick text{fill-opacity:.6;font-size:12px}.y.axis .tick line{stroke-dasharray:1}.y.axis .domain{fill:none;stroke-opacity:0}.y.axis .highlight-line{fill:none;stroke:#74736c}/* ]]> */</style><text class="chart-title" y="22">美国平均工资增幅</text><text class="chart-subtitle" y="42">年增长％</text><text class="chart-source" y="265">来源:美国劳工部统计局╱彭博. 2018年4月11日</text><g transform="translate(1,100)"><g class="x axis" transform="translate(0,120)" fill="none" font-size="10" font-family="sans-serif" text-anchor="middle"><path class="domain" stroke="#000" d="M0.5,0V0.5H255.5V0"></path><g class="tick" opacity="1" transform="translate(21.735455167693363,0)"><line stroke="#000" y2="6"></line><text fill="#000" y="9" dy="0.71em">2008</text></g><g class="tick" opacity="1" transform="translate(64.26454483230664,0)"><line stroke="#000" y2="6"></line><text fill="#000" y="9" dy="0.71em">2010</text></g><g class="tick" opacity="1" transform="translate(106.73545516769336,0)"><line stroke="#000" y2="6"></line><text fill="#000" y="9" dy="0.71em">2012</text></g><g class="tick" opacity="1" transform="translate(149.26454483230665,0)"><line stroke="#000" y2="6"></line><text fill="#000" y="9" dy="0.71em">2014</text></g><g class="tick" opacity="1" transform="translate(191.73545516769335,0)"><line stroke="#000" y2="6"></line><text fill="#000" y="9" dy="0.71em">2016</text></g><g class="tick" opacity="1" transform="translate(234.26454483230663,0)"><line stroke="#000" y2="6"></line><text fill="#000" y="9" dy="0.71em">2018</text></g></g><g class="y axis" transform="translate(255,0)" fill="none" font-size="10" font-family="sans-serif" text-anchor="start"><path class="domain" stroke="#000" d="M0,120.5H0.5V0.5H0"></path><g class="tick" opacity="1" transform="translate(0,103.35714285714286)"><line stroke="#000" x2="-255"></line><text fill="#000" x="3" dy="0.32em">-2</text></g><g class="tick" opacity="1" transform="translate(0,69.07142857142858)"><line stroke="#000" x2="-255"></line><text fill="#000" x="3" dy="0.32em">0</text></g><g class="tick" opacity="1" transform="translate(0,34.78571428571428)"><line stroke="#000" x2="-255"></line><text fill="#000" x="3" dy="0.32em">2</text></g><g class="tick" opacity="1" transform="translate(0,0.5)"><line stroke="#000" x2="-255"></line><text fill="#000" x="3" dy="0.32em">4</text></g><line class="highlight-line" x1="0" y1="68.57142857142858" x2="-255" y2="68.57142857142858"></line></g><g><path d="M5.197353410905772,48L6.942733287702486,60L8.746292493725758,49.71428571428572L10.491672370522474,48L12.295231576545744,53.14285714285714L14.098790782569017,39.428571428571416L15.844170659365732,65.14285714285714L17.647729865389003,78.85714285714286L19.393109742185715,89.14285714285714L21.196668948208988,92.57142857142857L23.00022815423226,85.71428571428572L24.687428701802418,85.71428571428572L26.49098790782569,84L28.236367784622402,90.85714285714286L30.039926990645675,85.71428571428572L31.78530686744239,109.71428571428571L33.58886607346566,113.14285714285714L35.39242527948894,106.28571428571429L37.13780515628565,106.28571428571429L38.941364362308924,80.57142857142857L40.686744239105636,42.85714285714285L42.4903034451289,32.57142857142857L44.29386265115218,25.714285714285722L45.92288386949578,25.714285714285722L47.72644307551905,35.999999999999986L49.47182295231576,25.714285714285722L51.275382158339035,30.85714285714286L53.02076203513575,34.28571428571428L54.82432124115902,13.714285714285708L56.6278804471823,25.714285714285722L58.37326032397901,17.142857142857153L60.17681953000228,41.14285714285714L61.922199406798995,75.42857142857143L63.72575861282227,82.28571428571428L65.52931781884554,77.14285714285714L67.15833903718914,84L68.9618982432124,66.85714285714286L70.70727812000912,60L72.5108373260324,54.85714285714286L74.25621720282912,37.71428571428571L76.05977640885239,39.428571428571416L77.86333561487565,37.71428571428571L79.60871549167237,35.999999999999986L81.41227469769565,30.85714285714286L83.15765457449235,41.14285714285714L84.96121378051564,42.85714285714285L86.7647729865389,54.85714285714286L88.3937942048825,48L90.19735341090578,66.85714285714286L91.9427332877025,73.71428571428572L93.74629249372576,77.14285714285714L95.49167237052247,80.57142857142857L97.29523157654573,80.57142857142857L99.09879078256903,94.28571428571429L100.84417065936573,94.28571428571429L102.647729865389,87.42857142857143L104.39310974218571,82.28571428571428L106.19666894820898,80.57142857142857L108.00022815423226,75.42857142857143L109.68742870180242,77.14285714285714L111.49098790782568,65.14285714285714L113.2363677846224,66.85714285714286L115.03992699064567,73.71428571428572L116.7853068674424,58.28571428571428L118.58886607346567,63.42857142857143L120.39242527948893,60L122.13780515628565,68.57142857142858L123.94136436230892,78.85714285714286L125.68674423910564,66.85714285714286L127.49030344512892,58.28571428571428L129.29386265115218,66.85714285714286L130.9228838694958,65.14285714285714L132.72644307551906,56.57142857142857L134.47182295231576,58.28571428571428L136.27538215833903,51.42857142857143L138.02076203513576,56.57142857142857L139.82432124115903,65.14285714285714L141.6278804471823,51.42857142857143L143.37326032397903,53.14285714285714L145.1768195300023,44.571428571428555L146.922199406799,51.42857142857143L148.7257586128223,72L150.52931781884556,61.714285714285715L152.15833903718914,60L153.9618982432124,60L155.70727812000914,65.14285714285714L157.5108373260324,63.42857142857143L159.2562172028291,68.57142857142858L161.0597764088524,61.714285714285715L162.86333561487567,54.85714285714286L164.60871549167237,54.85714285714286L166.41227469769566,56.57142857142857L168.15765457449234,46.28571428571429L169.9612137805156,30.85714285714286L171.7647729865389,17.142857142857153L173.3937942048825,24.000000000000014L175.19735341090578,35.999999999999986L176.94273328770248,29.14285714285714L178.74629249372578,29.14285714285714L180.49167237052245,34.28571428571428L182.29523157654575,35.999999999999986L184.09879078256904,34.28571428571428L185.84417065936572,25.714285714285722L187.64772986538898,27.42857142857143L189.39310974218571,39.428571428571416L191.19666894820898,35.999999999999986L193.00022815423225,48L194.68742870180242,44.571428571428555L196.49098790782568,46.28571428571429L198.23636778462242,48L200.03992699064568,49.71428571428572L201.7853068674424,48L203.58886607346568,41.14285714285714L205.39242527948895,60L207.13780515628562,60L208.94136436230895,56.57142857142857L210.68674423910562,63.42857142857143L212.4903034451289,68.57142857142858L214.29386265115218,80.57142857142857L215.9228838694958,73.71428571428572L217.72644307551906,70.28571428571429L219.47182295231576,63.42857142857143L221.27538215833906,58.28571428571428L223.02076203513573,54.85714285714286L224.824321241159,56.57142857142857L226.62788044718232,53.14285714285714L228.373260323979,63.42857142857143L230.17681953000226,65.14285714285714L231.922199406799,54.85714285714286L233.72575861282226,54.85714285714286L235.52931781884553,58.28571428571428L237.15833903718914,58.28571428571428L238.96189824321243,53.14285714285714" fill="none" stroke="#af516c" stroke-linejoin="round" stroke-linecap="round" stroke-width="2"></path></g></g></svg>