<svg xmlns="http://www.w3.org/2000/svg" viewBox="0 0 304 270"><style>/* <![CDATA[ */.chart-title{font-size:20px;fill:#43423e}.chart-subtitle{font-size:15px;fill:#74736c}.chart-source{font-size:10px;fill-opacity:.4}.axis .domain{fill:none;stroke:#74736c}.tick line{fill:none;stroke:#000;stroke-opacity:.2}.tick text{fill-opacity:.6;font-size:12px}.y.axis .tick line{stroke-dasharray:1}.y.axis .domain{fill:none;stroke-opacity:0}.y.axis .highlight-line{fill:none;stroke:#74736c}/* ]]> */</style><text class="chart-title" y="22">美国消费者收入增长</text><text class="chart-subtitle" y="42">季度变化％</text><text class="chart-source" y="265">来源:彭博. 2018年4月27日</text><g transform="translate(1,100)"><g class="x axis" transform="translate(0,120)" fill="none" font-size="10" font-family="sans-serif" text-anchor="middle"><path class="domain" stroke="#000" d="M0.5,0V0.5H255.5V0"></path><g class="tick" opacity="1" transform="translate(18.703598670056717,0)"><line stroke="#000" y2="6"></line><text fill="#000" y="9" dy="0.71em">2006</text></g><g class="tick" opacity="1" transform="translate(55.110796010170155,0)"><line stroke="#000" y2="6"></line><text fill="#000" y="9" dy="0.71em">2008</text></g><g class="tick" opacity="1" transform="translate(91.56786622335224,0)"><line stroke="#000" y2="6"></line><text fill="#000" y="9" dy="0.71em">2010</text></g><g class="tick" opacity="1" transform="translate(127.97506356346567,0)"><line stroke="#000" y2="6"></line><text fill="#000" y="9" dy="0.71em">2012</text></g><g class="tick" opacity="1" transform="translate(164.43213377664776,0)"><line stroke="#000" y2="6"></line><text fill="#000" y="9" dy="0.71em">2014</text></g><g class="tick" opacity="1" transform="translate(200.8393311167612,0)"><line stroke="#000" y2="6"></line><text fill="#000" y="9" dy="0.71em">2016</text></g><g class="tick" opacity="1" transform="translate(237.29640132994328,0)"><line stroke="#000" y2="6"></line><text fill="#000" y="9" dy="0.71em">2018</text></g></g><g class="y axis" transform="translate(255,0)" fill="none" font-size="10" font-family="sans-serif" text-anchor="start"><path class="domain" stroke="#000" d="M0,120.5H0.5V0.5H0"></path><g class="tick" opacity="1" transform="translate(0,116.05555555555556)"><line stroke="#000" x2="-255"></line><text fill="#000" x="3" dy="0.32em">-15</text></g><g class="tick" opacity="1" transform="translate(0,93.83333333333334)"><line stroke="#000" x2="-255"></line><text fill="#000" x="3" dy="0.32em">-10</text></g><g class="tick" opacity="1" transform="translate(0,71.61111111111111)"><line stroke="#000" x2="-255"></line><text fill="#000" x="3" dy="0.32em">-5</text></g><g class="tick" opacity="1" transform="translate(0,49.388888888888886)"><line stroke="#000" x2="-255"></line><text fill="#000" x="3" dy="0.32em">0</text></g><g class="tick" opacity="1" transform="translate(0,27.16666666666667)"><line stroke="#000" x2="-255"></line><text fill="#000" x="3" dy="0.32em">5</text></g><g class="tick" opacity="1" transform="translate(0,4.944444444444457)"><line stroke="#000" x2="-255"></line><text fill="#000" x="3" dy="0.32em">10</text></g><line class="highlight-line" x1="0" y1="48.888888888888886" x2="-255" y2="48.888888888888886"></line></g><g><path d="M4.4553099941326035,65.77777777777777L8.993741443379621,34.66666666666666L13.582045765695286,39.55555555555556L18.170350088010952,34.22222222222223L22.658908664189322,6.666666666666671L27.197340113436336,46.22222222222223L31.785644435752005,43.999999999999986L36.37394875806767,25.333333333333343L40.86250733424604,37.333333333333314L45.40093878349306,45.33333333333333L49.989243105808725,43.999999999999986L54.57754742812438,47.55555555555556L59.115978877371404,36L63.654410326618425,10.222222222222229L68.24271464893408,88.44444444444444L72.83101897124975,37.333333333333314L77.31957754742812,52.44444444444446L81.85800899667514,36L86.4463133189908,68L91.03461764130648,51.111111111111114L95.52317621748485,47.111111111111114L100.06160766673186,25.333333333333343L104.64991198904752,40L109.2382163113632,36.44444444444444L113.72677488754155,26.66666666666667L118.26520633678858,51.55555555555554L122.85351065910424,39.55555555555556L127.44181498141991,48L131.9802464306669,19.111111111111114L136.51867787991395,35.1111111111111L141.1069822022296,49.77777777777777L145.69528652454528,0.4444444444444571L150.18384510072366,118.66666666666666L154.72227654997064,38.22222222222223L159.31058087228632,38.22222222222223L163.89888519460197,44.8888888888889L168.38744377078035,29.77777777777777L172.9258752200274,25.333333333333343L177.51417954234304,30.22222222222223L182.10248386465872,22.666666666666686L186.5910424408371,29.77777777777777L191.12947389008409,32L195.71777821239976,40.888888888888886L200.30608253471542,36L204.84451398396246,48L209.38294543320944,40.44444444444446L213.97124975552512,45.777777777777786L218.5595540778408,56.88888888888889L223.04811265401915,36L227.5865441032662,36.8888888888889L232.17484842558184,45.777777777777786L236.76315274789752,43.999999999999986L241.2517113240759,33.777777777777786" fill="none" stroke="#af516c" stroke-linejoin="round" stroke-linecap="round" stroke-width="2"></path></g></g></svg>