<svg xmlns="http://www.w3.org/2000/svg" viewBox="0 0 304 270"><style>/* <![CDATA[ */.chart-title{font-size:20px;fill:#43423e}.chart-subtitle{font-size:15px;fill:#74736c}.chart-source{font-size:10px;fill-opacity:.4}.axis .domain{fill:none;stroke:#74736c}.tick line{fill:none;stroke:#000;stroke-opacity:.2}.tick text{fill-opacity:.6;font-size:12px}.y.axis .tick line{stroke-dasharray:1}.y.axis .domain{fill:none;stroke-opacity:0}.y.axis .highlight-line{fill:none;stroke:#74736c}/* ]]> */</style><text class="chart-title" y="22">美国消费者信心指数</text><text class="chart-subtitle" y="42">净正值</text><text class="chart-source" y="265">来源:彭博. 2018年5月3日</text><g transform="translate(1,100)"><g class="x axis" transform="translate(0,120)" fill="none" font-size="10" font-family="sans-serif" text-anchor="middle"><path class="domain" stroke="#000" d="M0.5,0V0.5H255.5V0"></path><g class="tick" opacity="1" transform="translate(18.703598670056717,0)"><line stroke="#000" y2="6"></line><text fill="#000" y="9" dy="0.71em">2006</text></g><g class="tick" opacity="1" transform="translate(55.110796010170155,0)"><line stroke="#000" y2="6"></line><text fill="#000" y="9" dy="0.71em">2008</text></g><g class="tick" opacity="1" transform="translate(91.56786622335224,0)"><line stroke="#000" y2="6"></line><text fill="#000" y="9" dy="0.71em">2010</text></g><g class="tick" opacity="1" transform="translate(127.97506356346567,0)"><line stroke="#000" y2="6"></line><text fill="#000" y="9" dy="0.71em">2012</text></g><g class="tick" opacity="1" transform="translate(164.43213377664776,0)"><line stroke="#000" y2="6"></line><text fill="#000" y="9" dy="0.71em">2014</text></g><g class="tick" opacity="1" transform="translate(200.8393311167612,0)"><line stroke="#000" y2="6"></line><text fill="#000" y="9" dy="0.71em">2016</text></g><g class="tick" opacity="1" transform="translate(237.29640132994328,0)"><line stroke="#000" y2="6"></line><text fill="#000" y="9" dy="0.71em">2018</text></g></g><g class="y axis" transform="translate(255,0)" fill="none" font-size="10" font-family="sans-serif" text-anchor="start"><path class="domain" stroke="#000" d="M0,120.5H0.5V0.5H0"></path><g class="tick" opacity="1" transform="translate(0,97.16666666666667)"><line stroke="#000" x2="-255"></line><text fill="#000" x="3" dy="0.32em">30</text></g><g class="tick" opacity="1" transform="translate(0,63.833333333333336)"><line stroke="#000" x2="-255"></line><text fill="#000" x="3" dy="0.32em">40</text></g><g class="tick" opacity="1" transform="translate(0,30.5)"><line stroke="#000" x2="-255"></line><text fill="#000" x="3" dy="0.32em">50</text></g></g><g><path d="M0.06649716409153139,43.33333333333334L0.4156072755720712,46.66666666666666L0.7647173870526109,50L1.1138274985331509,43.33333333333334L1.4629376100136906,46.66666666666666L1.8120477214942303,46.66666666666666L2.1611578329747703,46.66666666666666L2.5102679444553098,46.66666666666666L2.8593780559358497,46.66666666666666L3.2084881674163896,43.33333333333334L3.557598278896929,43.33333333333334L3.906708390377469,46.66666666666666L4.255818501858009,50L4.604928613338549,56.666666666666664L4.954038724819089,60L5.303148836299629,56.666666666666664L5.652258947780169,56.666666666666664L6.001369059260709,63.333333333333336L6.350479170741248,56.666666666666664L6.699589282221788,60L7.048699393702328,53.33333333333333L7.397809505182868,50L7.746919616663408,50L8.096029728143947,43.33333333333334L8.445139839624487,46.66666666666666L8.794249951105026,50L9.143360062585566,46.66666666666666L9.492470174066106,46.66666666666666L9.841580285546645,46.66666666666666L10.190690397027186,43.33333333333334L10.539800508507724,50L10.888910619988266,43.33333333333334L11.238020731468804,40L11.587130842949344,46.66666666666666L11.936240954429884,50L12.285351065910424,53.33333333333333L12.634461177390964,63.333333333333336L12.983571288871504,66.66666666666667L13.332681400352044,66.66666666666667L13.681791511832584,63.333333333333336L14.030901623313122,60L14.380011734793664,60L14.729121846274202,60L15.078231957754744,63.333333333333336L15.427342069235282,63.333333333333336L15.776452180715822,60L16.12556229219636,60L16.4746724036769,53.33333333333333L16.823782515157443,53.33333333333333L17.17289262663798,53.33333333333333L17.52200273811852,46.66666666666666L17.87111284959906,46.66666666666666L18.220222961079603,46.66666666666666L18.569333072560138,43.33333333333334L18.91844318404068,53.33333333333333L19.26755329552122,43.33333333333334L19.61666340700176,46.66666666666666L19.965773518482298,53.33333333333333L20.31488362996284,50L20.66399374144338,53.33333333333333L21.01310385292392,50L21.36221396440446,46.66666666666666L21.711324075885,43.33333333333334L22.060434187365537,43.33333333333334L22.40954429884608,40L22.75865441032662,43.33333333333334L23.10776452180716,43.33333333333334L23.456874633287697,43.33333333333334L23.80598474476824,46.66666666666666L24.15509485624878,53.33333333333333L24.504204967729315,56.666666666666664L24.853315079209857,60L25.2024251906904,63.333333333333336L25.55153530217094,60L25.900645413651475,60L26.249755525132016,53.33333333333333L26.598865636612558,50L26.947975748093096,46.66666666666666L27.297085859573635,43.33333333333334L27.646195971054176,46.66666666666666L27.995306082534714,46.66666666666666L28.344416194015256,50L28.693526305495794,46.66666666666666L29.042636416976336,50L29.391746528456874,53.33333333333333L29.740856639937416,53.33333333333333L30.089966751417954,60L30.439076862898492,56.666666666666664L30.788186974379034,53.33333333333333L31.137297085859576,53.33333333333333L31.486407197340114,50L31.835517308820652,53.33333333333333L32.18462742030119,43.33333333333334L32.53373753178173,43.33333333333334L32.882847643262274,40L33.231957754742815,36.66666666666667L33.58106786622335,33.33333333333333L33.93017797770389,30L34.27928808918443,30L34.628398200664975,26.66666666666667L34.97750831214551,30L35.32661842362605,30L35.67572853510659,26.66666666666667L36.02483864658713,33.33333333333333L36.37394875806767,33.33333333333333L36.72305886954821,40L37.072168981028746,33.33333333333333L37.421279092509295,33.33333333333333L37.77038920398983,33.33333333333333L38.11949931547037,30L38.46860942695091,33.33333333333333L38.81771953843145,26.66666666666667L39.16682964991199,33.33333333333333L39.51593976139253,30L39.865049872873065,26.66666666666667L40.214159984353614,40L40.56327009583415,33.33333333333333L40.91238020731468,36.66666666666667L41.26149031879523,43.33333333333334L41.61060043027577,36.66666666666667L41.9597105417563,40L42.30882065323685,36.66666666666667L42.657930764717385,33.33333333333333L43.00704087619793,40L43.35615098767847,43.33333333333334L43.705261099159,53.33333333333333L44.05437121063955,56.666666666666664L44.403481322120086,53.33333333333333L44.75259143360062,53.33333333333333L45.10170154508117,50L45.450811656561704,40L45.799921768042246,43.33333333333334L46.14903187952279,50L46.49814199100332,40L46.847252102483864,43.33333333333334L47.196362213964406,46.66666666666666L47.54547232544494,46.66666666666666L47.89458243692548,63.333333333333336L48.243692548406024,63.333333333333336L48.592802659886566,60L48.9419127713671,60L49.29102288284764,56.666666666666664L49.640132994328184,46.66666666666666L49.989243105808725,50L50.33835321728926,53.33333333333333L50.6874633287698,50L51.03657344025034,60L51.385683551730885,53.33333333333333L51.73479366321142,56.666666666666664L52.08390377469196,56.666666666666664L52.4330138861725,63.333333333333336L52.78212399765304,63.333333333333336L53.13123410913358,70L53.48034422061412,70L53.829454332094656,60L54.178564443575205,70L54.52767455505574,63.333333333333336L54.87678466653628,63.333333333333336L55.22589477801682,70L55.57500488949736,70L55.9241150009779,76.66666666666666L56.27322511245844,86.66666666666666L56.622335223938975,90L56.971445335419524,93.33333333333334L57.32055544690006,93.33333333333334L57.66966555838059,86.66666666666666L58.01877566986114,80L58.36788578134168,83.33333333333333L58.71699589282221,80L59.06610600430276,83.33333333333333L59.415216115783295,86.66666666666666L59.76432622726384,93.33333333333334L60.11343633874438,96.66666666666667L60.46254645022491,100L60.81165656170546,106.66666666666667L61.160766673186,110L61.50987678466654,110L61.85898689614708,113.33333333333333L62.208097007627615,106.66666666666667L62.557207119108156,106.66666666666667L62.9063172305887,103.33333333333333L63.25542734206923,100L63.604537453549774,100L63.95364756503032,96.66666666666667L64.30275767651085,96.66666666666667L64.65186778799139,96.66666666666667L65.00097789947193,106.66666666666667L65.35008801095248,110L65.69919812243302,113.33333333333333L66.04830823391356,110L66.39741834539409,113.33333333333333L66.74652845687463,110L67.09563856835517,106.66666666666667L67.44474867983571,96.66666666666667L67.79385879131625,96.66666666666667L68.1429689027968,100L68.49207901427734,103.33333333333333L68.84118912575786,110L69.19029923723842,113.33333333333333L69.53940934871896,113.33333333333333L69.88851946019949,110L70.23762957168003,113.33333333333333L70.58673968316057,116.66666666666667L70.9358497946411,116.66666666666667L71.28495990612166,120L71.6340700176022,116.66666666666667L71.98318012908273,116.66666666666667L72.33229024056327,110L72.68140035204381,113.33333333333333L73.03051046352434,110L73.37962057500489,113.33333333333333L73.72873068648543,116.66666666666667L74.07784079796598,120L74.4269509094465,116.66666666666667L74.77606102092705,120L75.1251711324076,113.33333333333333L75.47428124388813,110L75.82339135536867,110L76.17250146684921,110L76.52161157832974,110L76.87072168981028,110L77.21983180129084,110L77.56894191277136,113.33333333333333L77.9180520242519,116.66666666666667L78.26716213573245,106.66666666666667L78.61627224721298,103.33333333333333L78.96538235869352,100L79.31449247017407,100L79.66360258165462,106.66666666666667L80.01271269313514,110L80.36182280461568,113.33333333333333L80.71093291609623,106.66666666666667L81.06004302757677,113.33333333333333L81.40915313905731,120L81.75826325053785,116.66666666666667L82.10737336201838,116.66666666666667L82.45648347349892,116.66666666666667L82.80559358497946,113.33333333333333L83.15470369646,110L83.50381380794055,113.33333333333333L83.85292391942109,106.66666666666667L84.20203403090161,106.66666666666667L84.55114414238216,106.66666666666667L84.9002542538627,103.33333333333333L85.24936436534325,110L85.59847447682378,110L85.94758458830432,106.66666666666667L86.29669469978487,106.66666666666667L86.64580481126539,106.66666666666667L86.99491492274595,110L87.34402503422649,113.33333333333333L87.69313514570702,113.33333333333333L88.04224525718756,113.33333333333333L88.3913553686681,106.66666666666667L88.74046548014863,103.33333333333333L89.08957559162918,110L89.43868570310973,106.66666666666667L89.78779581459025,106.66666666666667L90.1369059260708,103.33333333333333L90.48601603755134,100L90.83512614903188,103.33333333333333L91.18423626051242,100L91.53334637199296,110L91.8824564834735,110L92.23156659495403,110L92.58067670643457,113.33333333333333L92.92978681791513,110L93.27889692939566,113.33333333333333L93.6280070408762,113.33333333333333L93.97711715235674,113.33333333333333L94.32622726383727,110L94.67533737531781,103.33333333333333L95.02444748679837,103.33333333333333L95.3735575982789,103.33333333333333L95.72266770975943,103.33333333333333L96.07177782123998,106.66666666666667L96.42088793272052,113.33333333333333L96.76999804420105,110L97.1191081556816,110L97.46821826716214,110L97.81732837864267,103.33333333333333L98.16643849012321,103.33333333333333L98.51554860160375,103.33333333333333L98.8646587130843,103.33333333333333L99.21376882456484,106.66666666666667L99.56287893604538,100L99.9119890475259,100L100.26109915900645,100L100.61020927048699,103.33333333333333L100.95931938196755,106.66666666666667L101.30842949344807,110L101.65753960492862,113.33333333333333L102.00664971640916,106.66666666666667L102.35575982788968,106.66666666666667L102.70486993937024,103.33333333333333L103.05398005085078,103.33333333333333L103.40309016233131,100L103.75220027381185,103.33333333333333L104.1013103852924,106.66666666666667L104.45042049677292,103.33333333333333L104.79953060825348,110L105.14864071973402,106.66666666666667L105.49775083121455,106.66666666666667L105.84686094269509,106.66666666666667L106.19597105417563,106.66666666666667L106.54508116565617,106.66666666666667L106.89419127713671,106.66666666666667L107.24330138861725,106.66666666666667L107.5924115000978,103.33333333333333L107.94152161157832,103.33333333333333L108.29063172305887,100L108.63974183453942,100L108.98885194601995,103.33333333333333L109.33796205750049,103.33333333333333L109.68707216898103,96.66666666666667L110.03618228046156,103.33333333333333L110.3852923919421,103.33333333333333L110.73440250342266,100L111.08351261490319,106.66666666666667L111.43262272638373,102.33333333333333L111.78173283786427,96L112.13084294934481,96L112.47995306082534,104.33333333333334L112.8290631723059,110.66666666666666L113.17817328378644,111.33333333333333L113.52728339526696,108L113.8763935067475,104L114.22550361822805,101.66666666666666L114.57461372970859,101L114.92372384118913,105L115.27283395266967,106.66666666666667L115.6219440641502,108L115.97105417563074,112.33333333333333L116.32016428711128,110.66666666666666L116.66927439859182,108.33333333333333L117.01838451007237,106.66666666666667L117.36749462155291,103.33333333333333L117.71660473303345,104.66666666666666L118.06571484451398,103L118.41482495599452,105.66666666666666L118.76393506747507,103.33333333333333L119.1130451789556,102L119.46215529043614,108L119.81126540191669,109.33333333333334L120.16037551339721,112L120.50948562487777,110.66666666666666L120.85859573635831,108.33333333333333L121.20770584783884,111.66666666666667L121.55681595931938,112.33333333333333L121.90592607079992,112.33333333333333L122.25503618228045,117L122.604146293761,118.33333333333333L122.95325640524155,113.66666666666667L123.30236651672209,114.66666666666666L123.65147662820262,110.66666666666666L124.00058673968316,115.33333333333334L124.3496968511637,118.66666666666667L124.69880696264424,116L125.04791707412478,113.33333333333333L125.39702718560532,113.66666666666667L125.74613729708585,113.66666666666667L126.0952474085664,113.66666666666667L126.44435752004695,113L126.79346763152748,105L127.14257774300802,109L127.49168785448856,104.66666666666666L127.8407979659691,104.33333333333334L128.18990807744964,109L128.53901818893016,107.33333333333333L128.88812830041073,104.66666666666666L129.23723841189124,99.33333333333334L129.58634852337178,96L129.93545863485235,94L130.28456874633287,94.66666666666666L130.6336788578134,91L130.98278896929395,86.33333333333333L131.3318990807745,88L131.68100919225506,88L132.03011930373557,82.33333333333334L132.37922941521612,84.66666666666666L132.72833952669666,82.33333333333334L133.0774496381772,89.66666666666666L133.42655974965774,92.66666666666667L133.77566986113828,97.33333333333333L134.12477997261882,102.66666666666667L134.47389008409934,99.66666666666666L134.8230001955799,95.66666666666666L135.17211030706042,92.66666666666667L135.52122041854096,90.66666666666666L135.87033053002153,93.33333333333334L136.21944064150205,90.33333333333334L136.5685507529826,92.33333333333333L136.91766086446313,92.33333333333333L137.26677097594367,93.33333333333334L137.6158810874242,94L137.96499119890476,96.33333333333333L138.3141013103853,100L138.6632114218658,104L139.01232153334638,109L139.36143164482692,109L139.71054175630744,107.66666666666667L140.059651867788,100.33333333333334L140.40876197926852,98L140.75787209074906,96L141.1069822022296,91.33333333333333L141.45609231371014,94L141.8052024251907,88L142.15431253667123,87.66666666666666L142.50342264815177,88L142.8525327596323,87.33333333333334L143.20164287111285,85.33333333333334L143.5507529825934,86.66666666666666L143.89986309407394,85L144.24897320555448,86.33333333333333L144.598083317035,87.33333333333334L144.94719342851556,83L145.2963035399961,83.66666666666667L145.64541365147662,83L145.9945237629572,87.33333333333334L146.3436338744377,89.00000000000001L146.69274398591824,90.66666666666666L147.04185409739878,92.33333333333333L147.39096420887932,90.66666666666666L147.74007432035987,89.66666666666666L148.0891844318404,85.66666666666669L148.43829454332095,84.66666666666666L148.78740465480146,84L149.13651476628203,82.66666666666666L149.48562487776258,86.33333333333333L149.8347349892431,87.66666666666666L150.18384510072366,87L150.53295521220417,86.66666666666666L150.8820653236847,78.66666666666667L151.23117543516528,80L151.5802855466458,78.33333333333334L151.92939565812634,79.33333333333331L152.27850576960688,80.33333333333334L152.62761588108742,79.00000000000001L152.97672599256796,79.66666666666666L153.3258361040485,79.66666666666666L153.67494621552905,82.33333333333334L154.0240563270096,79.00000000000001L154.37316643849013,77L154.72227654997064,75.66666666666669L155.0713866614512,75.33333333333334L155.42049677293176,77.33333333333334L155.76960688441227,75.66666666666669L156.11871699589284,75L156.46782710737335,69L156.8169372188539,74.33333333333331L157.16604733033446,78L157.51515744181498,82.66666666666666L157.86426755329552,84L158.21337766477606,83.66666666666667L158.5624877762566,79.00000000000001L158.91159788773712,77L159.2607079992177,79.00000000000001L159.60981811069823,79.33333333333331L159.95892822217874,87L160.3080383336593,90L160.65714844513982,92.66666666666667L161.00625855662037,93L161.35536866810094,86.66666666666666L161.70447877958145,87.66666666666666L162.053588891062,85.99999999999999L162.40269900254253,82L162.75180911402308,81.66666666666667L163.10091922550362,79.00000000000001L163.45002933698416,75.66666666666669L163.7991394484647,77.66666666666666L164.14824955994524,77.33333333333334L164.49735967142578,81.66666666666667L164.84646978290633,81.66666666666667L165.19557989438687,83.33333333333333L165.5446900058674,85L165.89380011734792,81.33333333333333L166.2429102288285,81L166.592020340309,77.66666666666666L166.94113045178955,77.66666666666666L167.29024056327012,76L167.63935067475063,78.33333333333334L167.98846078623117,82.66666666666666L168.33757089771171,80L168.68668100919226,83.33333333333333L169.0357911206728,78.66666666666667L169.38490123215334,72.33333333333334L169.73401134363388,70.33333333333334L170.0831214551144,73L170.43223156659496,80.33333333333334L170.7813416780755,83L171.13045178955602,85.66666666666669L171.4795619010366,79.66666666666666L171.8286720125171,78.33333333333334L172.17778212399764,73L172.5268922354782,73L172.87600234695873,75.33333333333334L173.22511245843927,71.33333333333333L173.5742225699198,71.66666666666666L173.92333268140035,71.33333333333333L174.27244279288087,75.66666666666669L174.62155290436144,76L174.97066301584198,74L175.31977312732252,74.66666666666666L175.66888323880306,72.33333333333334L176.01799335028358,70.99999999999999L176.36710346176415,75L176.7162135732447,72.66666666666666L177.0653236847252,78.33333333333334L177.41443379620577,80.66666666666667L177.76354390768628,74L178.11265401916683,76L178.46176413064737,70.99999999999999L178.8108742421279,72.66666666666666L179.15998435360845,69.66666666666666L179.509094465089,69.33333333333333L179.85820457656953,68.33333333333333L180.20731468805005,60.99999999999999L180.55642479953062,64.00000000000001L180.90553491101116,59L181.25464502249167,57.666666666666664L181.60375513397224,53L181.95286524545276,54.33333333333333L182.3019753569333,51.33333333333333L182.65108546841387,45.33333333333333L183.00019557989438,47.66666666666666L183.34930569137492,39.000000000000014L183.69841580285546,45L184.047525914336,49.000000000000014L184.39663602581652,47.999999999999986L184.7457461372971,54.33333333333333L185.09485624877763,51.66666666666667L185.44396636025817,52.33333333333334L185.79307647173871,49.333333333333314L186.14218658321923,45L186.4912966946998,42.66666666666666L186.84040680618034,37L187.18951691766085,41.33333333333333L187.53862702914142,45.33333333333333L187.88773714062194,47.66666666666666L188.23684725210248,50.999999999999986L188.58595736358305,51.66666666666667L188.93506747506356,55.33333333333334L189.2841775865441,60.333333333333336L189.63328769802465,61.666666666666664L189.9823978095052,62.99999999999999L190.3315079209857,60.333333333333336L190.68061803246627,54.66666666666666L191.0297281439468,50L191.37883825542733,51.66666666666667L191.7279483669079,52.66666666666666L192.0770584783884,55.33333333333334L192.42616858986895,61.666666666666664L192.77527870134952,62.33333333333334L193.12438881283003,60.99999999999999L193.47349892431058,59.66666666666667L193.82260903579112,56.666666666666664L194.17171914727166,58.66666666666667L194.5208292587522,58.66666666666667L194.86993937023274,62.66666666666666L195.21904948171328,57.000000000000014L195.5681595931938,53.33333333333333L195.91726970467437,47.33333333333334L196.26637981615488,46L196.61548992763545,51.66666666666667L196.964600039116,54.000000000000014L197.3137101505965,59.66666666666667L197.66282026207708,57.99999999999999L198.0119303735576,59.33333333333332L198.36104048503813,60.333333333333336L198.7101505965187,64.66666666666666L199.05926070799921,62.99999999999999L199.40837081947976,60.333333333333336L199.7574809309603,55.999999999999986L200.10659104244084,51.33333333333333L200.45570115392138,49.333333333333314L200.80481126540192,48.66666666666667L201.15392137688247,50L201.50303148836298,47.999999999999986L201.85214159984355,49.333333333333314L202.20125171132406,48.33333333333333L202.5503618228046,49.000000000000014L202.89947193428517,49.333333333333314L203.2485820457657,51.33333333333333L203.59769215724623,50.66666666666667L203.94680226872677,49.000000000000014L204.2959123802073,51.33333333333333L204.64502249168785,54.000000000000014L204.9941326031684,54.66666666666666L205.34324271464894,51.33333333333333L205.69235282612945,53.66666666666667L206.04146293761002,52L206.39057304909056,56.666666666666664L206.73968316057108,57.666666666666664L207.08879327205165,54.66666666666666L207.43790338353216,56.666666666666664L207.78701349501273,52.66666666666666L208.13612360649324,51.66666666666667L208.48523371797378,56.333333333333336L208.83434382945435,49.333333333333314L209.18345394093487,50.33333333333334L209.5325640524154,51.66666666666667L209.88167416389595,47.66666666666666L210.2307842753765,53.66666666666667L210.57989438685703,53.66666666666667L210.92900449833758,53.33333333333333L211.27811460981812,57.33333333333334L211.62722472129863,51.33333333333333L211.9763348327792,45.66666666666667L212.32544494425974,52L212.67455505574026,50L213.02366516722083,55.999999999999986L213.37277527870134,59L213.72188539018188,57.99999999999999L214.07099550166242,58.66666666666667L214.42010561314297,56.333333333333336L214.7692157246235,59L215.11832583610405,50.33333333333334L215.4674359475846,47.999999999999986L215.8165460590651,46.33333333333333L216.16565617054567,45.33333333333333L216.51476628202622,47.33333333333334L216.86387639350673,47L217.2129865049873,46.33333333333333L217.5620966164678,45L217.91120672794835,40.999999999999986L218.26031683942892,43.33333333333334L218.60942695090944,45L218.95853706239,46.33333333333333L219.30764717387052,46L219.65675728535106,46L220.0058673968316,41.33333333333333L220.35497750831215,39.33333333333333L220.7040876197927,36.33333333333333L221.05319773127323,36.66666666666667L221.40230784275377,30.66666666666667L221.75141795423428,28L222.10052806571485,26.66666666666667L222.4496381771954,25.666666666666686L222.7987482886759,31L223.14785840015648,29.33333333333333L223.496968511637,26.66666666666667L223.84607862311753,30.33333333333333L224.1951887345981,27.333333333333343L224.54429884607862,27.000000000000014L224.89340895755916,31L225.2425190690397,29.33333333333333L225.59162918052024,27.000000000000014L225.94073929200076,25.999999999999986L226.28984940348133,30.33333333333333L226.63895951496187,30L226.98806962644238,32L227.33717973792295,34.66666666666666L227.68628984940347,35L228.035399960884,40L228.38451007236458,38L228.7336201838451,34.66666666666666L229.08273029532566,31.33333333333333L229.43184040680617,25.333333333333343L229.78095051828672,23L230.13006062976729,20.66666666666667L230.4791707412478,19.000000000000014L230.82828085272834,21.33333333333333L231.17739096420888,23.66666666666667L231.52650107568942,28L231.87561118716994,24.666666666666657L232.2247212986505,30.33333333333333L232.57383141013105,31.666666666666657L232.92294152161156,26.33333333333333L233.27205163309213,26.66666666666667L233.62116174457265,24.33333333333333L233.9702718560532,25L234.31938196753376,23L234.66849207901427,24.33333333333333L235.0176021904948,24.666666666666657L235.36671230197535,22.333333333333343L235.7158224134559,25.666666666666686L236.06493252493644,27.333333333333343L236.41404263641698,22L236.76315274789752,24.000000000000014L237.11226285937803,18.33333333333333L237.4613729708586,17.333333333333343L237.81048308233915,17.666666666666657L238.15959319381966,14.666666666666671L238.50870330530023,15.333333333333329L238.85781341678074,6.666666666666671L239.20692352826129,8L239.55603363974183,9.333333333333329L239.90514375122237,7.333333333333343L240.25425386270294,9.333333333333329L240.60336397418345,7.333333333333343L240.952474085664,7.333333333333343L241.30158419714454,5.999999999999986L241.65069430862508,3.3333333333333286L241.99980442010562,2.999999999999986L242.34891453158616,5L242.6980246430667,8.333333333333329" fill="none" stroke="#af516c" stroke-linejoin="round" stroke-linecap="round" stroke-width="2"></path></g></g></svg>