<svg xmlns="http://www.w3.org/2000/svg" viewBox="0 0 304 270"><style>/* <![CDATA[ */.chart-title{font-size:20px;fill:#43423e}.chart-subtitle{font-size:15px;fill:#74736c}.chart-source{font-size:10px;fill-opacity:.4}.axis .domain{fill:none;stroke:#74736c}.tick line{fill:none;stroke:#000;stroke-opacity:.2}.tick text{fill-opacity:.6;font-size:12px}.y.axis .tick line{stroke-dasharray:1}.y.axis .domain{fill:none;stroke-opacity:0}.y.axis .highlight-line{fill:none;stroke:#74736c}/* ]]> */</style><text class="chart-title" y="22">美国核心通胀</text><text class="chart-subtitle" y="42">年增长％</text><text class="chart-source" y="265">来源:美国劳工部统计局╱彭博. 2018年4月11日</text><g transform="translate(1,100)"><g class="x axis" transform="translate(0,120)" fill="none" font-size="10" font-family="sans-serif" text-anchor="middle"><path class="domain" stroke="#000" d="M0.5,0V0.5H255.5V0"></path><g class="tick" opacity="1" transform="translate(18.703598670056717,0)"><line stroke="#000" y2="6"></line><text fill="#000" y="9" dy="0.71em">2006</text></g><g class="tick" opacity="1" transform="translate(55.110796010170155,0)"><line stroke="#000" y2="6"></line><text fill="#000" y="9" dy="0.71em">2008</text></g><g class="tick" opacity="1" transform="translate(91.56786622335224,0)"><line stroke="#000" y2="6"></line><text fill="#000" y="9" dy="0.71em">2010</text></g><g class="tick" opacity="1" transform="translate(127.97506356346567,0)"><line stroke="#000" y2="6"></line><text fill="#000" y="9" dy="0.71em">2012</text></g><g class="tick" opacity="1" transform="translate(164.43213377664776,0)"><line stroke="#000" y2="6"></line><text fill="#000" y="9" dy="0.71em">2014</text></g><g class="tick" opacity="1" transform="translate(200.8393311167612,0)"><line stroke="#000" y2="6"></line><text fill="#000" y="9" dy="0.71em">2016</text></g><g class="tick" opacity="1" transform="translate(237.29640132994328,0)"><line stroke="#000" y2="6"></line><text fill="#000" y="9" dy="0.71em">2018</text></g></g><g class="y axis" transform="translate(255,0)" fill="none" font-size="10" font-family="sans-serif" text-anchor="start"><path class="domain" stroke="#000" d="M0,120.5H0.5V0.5H0"></path><g class="tick" opacity="1" transform="translate(0,120.5)"><line stroke="#000" x2="-255"></line><text fill="#000" x="3" dy="0.32em">0</text></g><g class="tick" opacity="1" transform="translate(0,80.5)"><line stroke="#000" x2="-255"></line><text fill="#000" x="3" dy="0.32em">1</text></g><g class="tick" opacity="1" transform="translate(0,40.5)"><line stroke="#000" x2="-255"></line><text fill="#000" x="3" dy="0.32em">2</text></g><g class="tick" opacity="1" transform="translate(0,0.5)"><line stroke="#000" x2="-255"></line><text fill="#000" x="3" dy="0.32em">3</text></g><line class="highlight-line" x1="0" y1="120" x2="-255" y2="120"></line></g><g><path d="M1.512810483082339,28L2.9092509290044983,24.000000000000014L4.4553099941326035,28L5.95149618619206,32L7.497555251320164,32L8.993741443379621,40L10.539800508507724,35.999999999999986L12.08585957363583,35.999999999999986L13.582045765695286,40L15.128104830823391,35.999999999999986L16.624291022882847,35.999999999999986L18.170350088010952,32L19.716409153139058,35.999999999999986L21.112849599061217,35.999999999999986L22.658908664189322,35.999999999999986L24.15509485624878,28L25.701153921376882,24.000000000000014L27.197340113436336,16L28.74339917856444,12L30.289458243692547,8.000000000000014L31.785644435752005,4L33.33170350088011,12L34.827889692939564,16L36.37394875806767,16L37.920007823195775,12L39.316448269117934,12L40.86250733424604,20L42.358693526305494,28L43.9047525914336,32L45.40093878349306,32L46.946997848621166,32L48.49305691374927,35.999999999999986L49.989243105808725,35.999999999999986L51.53530217093683,32L53.031488362996285,28L54.57754742812438,24.000000000000014L56.12360649325249,20L57.5699198122433,28L59.115978877371404,24.000000000000014L60.612165069430866,28L62.15822413455897,28L63.654410326618425,24.000000000000014L65.20046939174654,20L66.74652845687463,20L68.24271464893408,20L69.7887737140622,32L71.28495990612166,40L72.83101897124975,48L74.37707803637787,52L75.77351848230002,48L77.31957754742812,48L78.81576373948758,44L80.36182280461568,48L81.85800899667514,52L83.40406806180326,60L84.95012712693135,64L86.4463133189908,60L87.99237238411891,52L89.48855857617836,52L91.03461764130648,48L92.58067670643457,56L93.97711715235674,68L95.52317621748485,76L97.01936240954429,84L98.5654214746724,84L100.06160766673186,84L101.60766673185996,84L103.15372579698807,84L104.64991198904752,88L106.19597105417563,96L107.69215724623508,88L109.2382163113632,88L110.7842753764913,80L112.18071582241346,76L113.72677488754155,72L115.222961079601,68L116.76902014472913,60L118.26520633678858,56L119.81126540191669,48L121.35732446704479,40L122.85351065910424,40L124.39956972423235,35.999999999999986L125.8957559162918,32L127.44181498141991,32L128.987874046548,28L130.43418736553883,32L131.9802464306669,28L133.47643262272638,28L135.02249168785448,28L136.51867787991395,32L138.06473694504206,35.999999999999986L139.61079601017016,44L141.1069822022296,40L142.6530412673577,40L144.14922745941718,44L145.69528652454528,44L147.2413455896734,44L148.63778603559555,40L150.18384510072366,44L151.6800312927831,52L153.2260903579112,52L154.72227654997064,56L156.26833561509875,52L157.81439468022688,48L159.31058087228632,52L160.85663993741446,52L162.3528261294739,52L163.89888519460197,52L165.4449442597301,56L166.84138470565225,56L168.38744377078035,52L169.88362996283982,48L171.42968902796792,40L172.9258752200274,44L174.4719342851555,44L176.01799335028358,52L177.51417954234304,52L179.06023860747115,48L180.55642479953062,52L182.10248386465872,56L183.6485429297868,56L185.044983375709,52L186.5910424408371,48L188.08722863289654,48L189.63328769802465,52L191.12947389008409,48L192.6755329552122,48L194.22159202034032,48L195.71777821239976,44L197.26383727752787,44L198.7600234695873,40L200.30608253471542,35.999999999999986L201.85214159984355,32L203.29845491883435,28L204.84451398396246,32L206.34070017602193,35.999999999999986L207.88675924115,32L209.38294543320944,32L210.92900449833758,32L212.47506356346568,28L213.97124975552512,32L215.51730882065326,35.999999999999986L217.0134950127127,35.999999999999986L218.5595540778408,32L220.1056131429689,28L221.50205358889104,32L223.04811265401915,40L224.54429884607862,44L226.09035791120672,52L227.5865441032662,52L229.1326031683943,52L230.67866223352237,52L232.17484842558184,52L233.72090749070995,48L235.21709368276942,52L236.76315274789752,48L238.3092118130256,48L239.7056522589478,48L241.2517113240759,35.999999999999986" fill="none" stroke="#af516c" stroke-linejoin="round" stroke-linecap="round" stroke-width="2"></path></g></g></svg>