<svg xmlns="http://www.w3.org/2000/svg" viewBox="0 0 304 270"><style>/* <![CDATA[ */.chart-title{font-size:20px;fill:#43423e}.chart-subtitle{font-size:15px;fill:#74736c}.chart-source{font-size:10px;fill-opacity:.4}.axis .domain{fill:none;stroke:#74736c}.tick line{fill:none;stroke:#000;stroke-opacity:.2}.tick text{fill-opacity:.6;font-size:12px}.y.axis .tick line{stroke-dasharray:1}.y.axis .domain{fill:none;stroke-opacity:0}.y.axis .highlight-line{fill:none;stroke:#74736c}/* ]]> */</style><text class="chart-title" y="22">美国消费者通帐</text><text class="chart-subtitle" y="42">年增长％</text><text class="chart-source" y="265">来源:彭博. 2018年4月11日</text><g transform="translate(1,100)"><g class="x axis" transform="translate(0,120)" fill="none" font-size="10" font-family="sans-serif" text-anchor="middle"><path class="domain" stroke="#000" d="M0.5,0V0.5H255.5V0"></path><g class="tick" opacity="1" transform="translate(18.703598670056717,0)"><line stroke="#000" y2="6"></line><text fill="#000" y="9" dy="0.71em">2006</text></g><g class="tick" opacity="1" transform="translate(55.110796010170155,0)"><line stroke="#000" y2="6"></line><text fill="#000" y="9" dy="0.71em">2008</text></g><g class="tick" opacity="1" transform="translate(91.56786622335224,0)"><line stroke="#000" y2="6"></line><text fill="#000" y="9" dy="0.71em">2010</text></g><g class="tick" opacity="1" transform="translate(127.97506356346567,0)"><line stroke="#000" y2="6"></line><text fill="#000" y="9" dy="0.71em">2012</text></g><g class="tick" opacity="1" transform="translate(164.43213377664776,0)"><line stroke="#000" y2="6"></line><text fill="#000" y="9" dy="0.71em">2014</text></g><g class="tick" opacity="1" transform="translate(200.8393311167612,0)"><line stroke="#000" y2="6"></line><text fill="#000" y="9" dy="0.71em">2016</text></g><g class="tick" opacity="1" transform="translate(237.29640132994328,0)"><line stroke="#000" y2="6"></line><text fill="#000" y="9" dy="0.71em">2018</text></g></g><g class="y axis" transform="translate(255,0)" fill="none" font-size="10" font-family="sans-serif" text-anchor="start"><path class="domain" stroke="#000" d="M0,120.5H0.5V0.5H0"></path><g class="tick" opacity="1" transform="translate(0,107.16666666666667)"><line stroke="#000" x2="-255"></line><text fill="#000" x="3" dy="0.32em">-2</text></g><g class="tick" opacity="1" transform="translate(0,80.5)"><line stroke="#000" x2="-255"></line><text fill="#000" x="3" dy="0.32em">0</text></g><g class="tick" opacity="1" transform="translate(0,53.83333333333333)"><line stroke="#000" x2="-255"></line><text fill="#000" x="3" dy="0.32em">2</text></g><g class="tick" opacity="1" transform="translate(0,27.16666666666667)"><line stroke="#000" x2="-255"></line><text fill="#000" x="3" dy="0.32em">4</text></g><g class="tick" opacity="1" transform="translate(0,0.5)"><line stroke="#000" x2="-255"></line><text fill="#000" x="3" dy="0.32em">6</text></g><line class="highlight-line" x1="0" y1="80" x2="-255" y2="80"></line></g><g><path d="M1.512810483082339,40L2.9092509290044983,40L4.4553099941326035,38.66666666666667L5.95149618619206,33.33333333333333L7.497555251320164,42.66666666666667L8.993741443379621,46.66666666666666L10.539800508507724,37.33333333333333L12.08585957363583,32L13.582045765695286,17.33333333333333L15.128104830823391,22.66666666666667L16.624291022882847,33.33333333333333L18.170350088010952,34.66666666666666L19.716409153139058,26.66666666666667L21.112849599061217,32L22.658908664189322,34.66666666666666L24.15509485624878,33.33333333333333L25.701153921376882,24L27.197340113436336,22.66666666666667L28.74339917856444,25.333333333333343L30.289458243692547,29.333333333333343L31.785644435752005,52L33.33170350088011,62.66666666666667L34.827889692939564,53.33333333333333L36.37394875806767,46.66666666666666L37.920007823195775,52L39.316448269117934,47.999999999999986L40.86250733424604,42.66666666666667L42.358693526305494,45.33333333333333L43.9047525914336,44L45.40093878349306,44L46.946997848621166,47.999999999999986L48.49305691374927,53.33333333333333L49.989243105808725,42.66666666666667L51.53530217093683,33.33333333333333L53.031488362996285,22.66666666666667L54.57754742812438,25.333333333333343L56.12360649325249,22.66666666666667L57.5699198122433,26.66666666666667L59.115978877371404,26.66666666666667L60.612165069430866,28L62.15822413455897,24L63.654410326618425,13.333333333333343L65.20046939174654,5.333333333333343L66.74652845687463,8L68.24271464893408,14.666666666666671L69.7887737140622,30.666666666666657L71.28495990612166,65.33333333333334L72.83101897124975,78.66666666666666L74.37707803637787,80L75.77351848230002,77.33333333333333L77.31957754742812,85.33333333333333L78.81576373948758,89.33333333333334L80.36182280461568,97.33333333333334L81.85800899667514,98.66666666666666L83.40406806180326,108L84.95012712693135,100L86.4463133189908,97.33333333333334L87.99237238411891,82.66666666666666L89.48855857617836,56L91.03461764130648,44L92.58067670643457,45.33333333333333L93.97711715235674,52L95.52317621748485,49.33333333333333L97.01936240954429,50.66666666666666L98.5654214746724,53.33333333333333L100.06160766673186,65.33333333333334L101.60766673185996,64L103.15372579698807,65.33333333333334L104.64991198904752,65.33333333333334L106.19597105417563,64L107.69215724623508,65.33333333333334L109.2382163113632,60L110.7842753764913,58.66666666666667L112.18071582241346,52L113.72677488754155,44L115.222961079601,37.33333333333333L116.76902014472913,32L118.26520633678858,32L119.81126540191669,32L121.35732446704479,29.333333333333343L122.85351065910424,28L124.39956972423235,33.33333333333333L125.8957559162918,34.66666666666666L127.44181498141991,40L128.987874046548,41.33333333333333L130.43418736553883,41.33333333333333L131.9802464306669,44L133.47643262272638,49.33333333333333L135.02249168785448,57.33333333333333L136.51867787991395,57.33333333333333L138.06473694504206,61.33333333333333L139.61079601017016,57.33333333333333L141.1069822022296,53.33333333333333L142.6530412673577,50.66666666666666L144.14922745941718,56L145.69528652454528,57.33333333333333L147.2413455896734,58.66666666666667L148.63778603559555,53.33333333333333L150.18384510072366,60L151.6800312927831,65.33333333333334L153.2260903579112,61.33333333333333L154.72227654997064,56L156.26833561509875,53.33333333333333L157.81439468022688,60L159.31058087228632,64L160.85663993741446,66.66666666666667L162.3528261294739,64L163.89888519460197,60L165.4449442597301,58.66666666666667L166.84138470565225,65.33333333333334L168.38744377078035,60L169.88362996283982,53.33333333333333L171.42968902796792,52L172.9258752200274,52L174.4719342851555,53.33333333333333L176.01799335028358,57.33333333333333L177.51417954234304,57.33333333333333L179.06023860747115,57.33333333333333L180.55642479953062,62.66666666666667L182.10248386465872,69.33333333333334L183.6485429297868,81.33333333333334L185.044983375709,80L186.5910424408371,81.33333333333334L188.08722863289654,82.66666666666666L189.63328769802465,80L191.12947389008409,78.66666666666666L192.6755329552122,77.33333333333333L194.22159202034032,77.33333333333333L195.71777821239976,80L197.26383727752787,77.33333333333333L198.7600234695873,73.33333333333334L200.30608253471542,70.66666666666666L201.85214159984355,61.33333333333333L203.29845491883435,66.66666666666667L204.84451398396246,68L206.34070017602193,65.33333333333334L207.88675924115,66.66666666666667L209.38294543320944,66.66666666666667L210.92900449833758,69.33333333333334L212.47506356346568,65.33333333333334L213.97124975552512,60L215.51730882065326,58.66666666666667L217.0134950127127,57.33333333333333L218.5595540778408,52L220.1056131429689,46.66666666666666L221.50205358889104,44L223.04811265401915,47.999999999999986L224.54429884607862,50.66666666666666L226.09035791120672,54.66666666666666L227.5865441032662,58.66666666666667L229.1326031683943,57.33333333333333L230.67866223352237,54.66666666666666L232.17484842558184,50.66666666666666L233.72090749070995,53.33333333333333L235.21709368276942,50.66666666666666L236.76315274789752,52L238.3092118130256,52L239.7056522589478,50.66666666666666L241.2517113240759,47.999999999999986" fill="none" stroke="#af516c" stroke-linejoin="round" stroke-linecap="round" stroke-width="2"></path></g></g></svg>