<svg xmlns="http://www.w3.org/2000/svg" viewBox="0 0 304 270"><style>/* <![CDATA[ */.chart-title{font-size:20px;fill:#43423e}.chart-subtitle{font-size:15px;fill:#74736c}.chart-source{font-size:10px;fill-opacity:.4}.axis .domain{fill:none;stroke:#74736c}.tick line{fill:none;stroke:#000;stroke-opacity:.2}.tick text{fill-opacity:.6;font-size:12px}.y.axis .tick line{stroke-dasharray:1}.y.axis .domain{fill:none;stroke-opacity:0}.y.axis .highlight-line{fill:none;stroke:#74736c}/* ]]> */</style><text class="chart-title" y="22">美国生产力</text><text class="chart-subtitle" y="42">指数（2005年为基期100）</text><text class="chart-source" y="265">来源:美国劳工部统计局╱彭博. 2018年5月3日</text><g transform="translate(1,100)"><g class="x axis" transform="translate(0,120)" fill="none" font-size="10" font-family="sans-serif" text-anchor="middle"><path class="domain" stroke="#000" d="M0.5,0V0.5H255.5V0"></path><g class="tick" opacity="1" transform="translate(18.703598670056717,0)"><line stroke="#000" y2="6"></line><text fill="#000" y="9" dy="0.71em">2006</text></g><g class="tick" opacity="1" transform="translate(55.110796010170155,0)"><line stroke="#000" y2="6"></line><text fill="#000" y="9" dy="0.71em">2008</text></g><g class="tick" opacity="1" transform="translate(91.56786622335224,0)"><line stroke="#000" y2="6"></line><text fill="#000" y="9" dy="0.71em">2010</text></g><g class="tick" opacity="1" transform="translate(127.97506356346567,0)"><line stroke="#000" y2="6"></line><text fill="#000" y="9" dy="0.71em">2012</text></g><g class="tick" opacity="1" transform="translate(164.43213377664776,0)"><line stroke="#000" y2="6"></line><text fill="#000" y="9" dy="0.71em">2014</text></g><g class="tick" opacity="1" transform="translate(200.8393311167612,0)"><line stroke="#000" y2="6"></line><text fill="#000" y="9" dy="0.71em">2016</text></g><g class="tick" opacity="1" transform="translate(237.29640132994328,0)"><line stroke="#000" y2="6"></line><text fill="#000" y="9" dy="0.71em">2018</text></g></g><g class="y axis" transform="translate(255,0)" fill="none" font-size="10" font-family="sans-serif" text-anchor="start"><path class="domain" stroke="#000" d="M0,120.5H0.5V0.5H0"></path><g class="tick" opacity="1" transform="translate(0,106.38235294117646)"><line stroke="#000" x2="-255"></line><text fill="#000" x="3" dy="0.32em">95</text></g><g class="tick" opacity="1" transform="translate(0,71.08823529411765)"><line stroke="#000" x2="-255"></line><text fill="#000" x="3" dy="0.32em">100</text></g><g class="tick" opacity="1" transform="translate(0,35.79411764705881)"><line stroke="#000" x2="-255"></line><text fill="#000" x="3" dy="0.32em">105</text></g><g class="tick" opacity="1" transform="translate(0,0.5)"><line stroke="#000" x2="-255"></line><text fill="#000" x="3" dy="0.32em">110</text></g></g><g><path d="M4.4553099941326035,115.91999999999997L8.993741443379621,116.5764705882353L13.582045765695286,111.67058823529408L18.170350088010952,111.3811764705882L22.658908664189322,107.4423529411765L27.197340113436336,108.04235294117646L31.785644435752005,110.88705882352943L36.37394875806767,105.97411764705886L40.86250733424604,105.3741176470588L45.40093878349306,101.28L49.989243105808725,93.1764705882353L54.57754742812438,90.26117647058828L59.115978877371404,96.9247058823529L63.654410326618425,90.1411764705882L68.24271464893408,88.29882352941176L72.83101897124975,92.76000000000005L77.31957754742812,87.61411764705886L81.85800899667514,74.2517647058824L86.4463133189908,64.22117647058823L91.03461764130648,55.680000000000035L95.52317621748485,51.84705882352941L100.06160766673186,49.277647058823504L104.64991198904752,45.727058823529376L109.2382163113632,42.65647058823535L113.72677488754155,48.797647058823514L118.26520633678858,46.411764705882376L122.85351065910424,47.70352941176466L127.44181498141991,42.69882352941181L131.9802464306669,41.597647058823526L136.51867787991395,37.39764705882354L141.1069822022296,38.80235294117648L145.69528652454528,41.93647058823532L150.18384510072366,40.207058823529394L154.72227654997064,41.31529411764703L159.31058087228632,38.329411764705924L163.89888519460197,30.81882352941176L168.38744377078035,36.83294117647063L172.9258752200274,32.2235294117647L177.51417954234304,24.49411764705883L182.10248386465872,28.39764705882351L186.5910424408371,22.856470588235283L191.12947389008409,20.385882352941223L195.71777821239976,18.148235294117626L200.30608253471542,23.315294117647028L204.84451398396246,25.305882352941126L209.38294543320944,23.519999999999953L213.97124975552512,19.023529411764656L218.5595540778408,16.81411764705885L223.04811265401915,16.35529411764702L227.5865441032662,13.115294117647096L232.17484842558184,8.124705882352913L236.76315274789752,7.461176470588242L241.2517113240759,6.134117647058815" fill="none" stroke="#af516c" stroke-linejoin="round" stroke-linecap="round" stroke-width="2"></path></g></g></svg>