<svg xmlns="http://www.w3.org/2000/svg" viewBox="0 0 304 270"><style>/* <![CDATA[ */.chart-title{font-size:20px;fill:#43423e}.chart-subtitle{font-size:15px;fill:#74736c}.chart-source{font-size:10px;fill-opacity:.4}.axis .domain{fill:none;stroke:#74736c}.tick line{fill:none;stroke:#000;stroke-opacity:.2}.tick text{fill-opacity:.6;font-size:12px}.y.axis .tick line{stroke-dasharray:1}.y.axis .domain{fill:none;stroke-opacity:0}.y.axis .highlight-line{fill:none;stroke:#74736c}/* ]]> */</style><text class="chart-title" y="22">美国零售总额</text><text class="chart-subtitle" y="42">同比增长率％</text><text class="chart-source" y="265">来源:美国统计局╱彭博. 2018年4月16日</text><g transform="translate(1,100)"><g class="x axis" transform="translate(0,120)" fill="none" font-size="10" font-family="sans-serif" text-anchor="middle"><path class="domain" stroke="#000" d="M0.5,0V0.5H255.5V0"></path><g class="tick" opacity="1" transform="translate(18.703598670056717,0)"><line stroke="#000" y2="6"></line><text fill="#000" y="9" dy="0.71em">2006</text></g><g class="tick" opacity="1" transform="translate(55.110796010170155,0)"><line stroke="#000" y2="6"></line><text fill="#000" y="9" dy="0.71em">2008</text></g><g class="tick" opacity="1" transform="translate(91.56786622335224,0)"><line stroke="#000" y2="6"></line><text fill="#000" y="9" dy="0.71em">2010</text></g><g class="tick" opacity="1" transform="translate(127.97506356346567,0)"><line stroke="#000" y2="6"></line><text fill="#000" y="9" dy="0.71em">2012</text></g><g class="tick" opacity="1" transform="translate(164.43213377664776,0)"><line stroke="#000" y2="6"></line><text fill="#000" y="9" dy="0.71em">2014</text></g><g class="tick" opacity="1" transform="translate(200.8393311167612,0)"><line stroke="#000" y2="6"></line><text fill="#000" y="9" dy="0.71em">2016</text></g><g class="tick" opacity="1" transform="translate(237.29640132994328,0)"><line stroke="#000" y2="6"></line><text fill="#000" y="9" dy="0.71em">2018</text></g></g><g class="y axis" transform="translate(255,0)" fill="none" font-size="10" font-family="sans-serif" text-anchor="start"><path class="domain" stroke="#000" d="M0,120.5H0.5V0.5H0"></path><g class="tick" opacity="1" transform="translate(0,109.5909090909091)"><line stroke="#000" x2="-255"></line><text fill="#000" x="3" dy="0.32em">-10</text></g><g class="tick" opacity="1" transform="translate(0,82.31818181818181)"><line stroke="#000" x2="-255"></line><text fill="#000" x="3" dy="0.32em">-5</text></g><g class="tick" opacity="1" transform="translate(0,55.04545454545455)"><line stroke="#000" x2="-255"></line><text fill="#000" x="3" dy="0.32em">0</text></g><g class="tick" opacity="1" transform="translate(0,27.77272727272728)"><line stroke="#000" x2="-255"></line><text fill="#000" x="3" dy="0.32em">5</text></g><g class="tick" opacity="1" transform="translate(0,0.5)"><line stroke="#000" x2="-255"></line><text fill="#000" x="3" dy="0.32em">10</text></g><line class="highlight-line" x1="0" y1="54.54545454545455" x2="-255" y2="54.54545454545455"></line></g><g><path d="M1.512810483082339,19.63636363636364L2.9092509290044983,16.90909090909092L4.4553099941326035,26.181818181818187L5.95149618619206,13.63636363636364L7.497555251320164,27.818181818181827L8.993741443379621,4.36363636363636L10.539800508507724,6.545454545454547L12.08585957363583,13.09090909090908L13.582045765695286,22.363636363636374L15.128104830823391,25.090909090909093L16.624291022882847,22.363636363636374L18.170350088010952,28.90909090909092L19.716409153139058,7.636363636363626L21.112849599061217,19.090909090909093L22.658908664189322,17.454545454545453L24.15509485624878,21.272727272727266L25.701153921376882,18.545454545454533L27.197340113436336,32.72727272727272L28.74339917856444,34.90909090909091L30.289458243692547,26.72727272727272L31.785644435752005,30.54545454545456L33.33170350088011,32.18181818181817L34.827889692939564,35.999999999999986L36.37394875806767,28.36363636363636L37.920007823195775,45.27272727272728L39.316448269117934,40.363636363636374L40.86250733424604,36.54545454545455L42.358693526305494,41.45454545454545L43.9047525914336,32.72727272727272L45.40093878349306,38.727272727272734L46.946997848621166,38.727272727272734L48.49305691374927,38.727272727272734L49.989243105808725,32.72727272727272L51.53530217093683,28.90909090909092L53.031488362996285,25.090909090909093L54.57754742812438,38.18181818181819L56.12360649325249,37.09090909090909L57.5699198122433,43.09090909090909L59.115978877371404,46.90909090909091L60.612165069430866,44.18181818181819L62.15822413455897,47.45454545454545L63.654410326618425,42L65.20046939174654,46.90909090909091L66.74652845687463,52.90909090909091L68.24271464893408,64.36363636363637L69.7887737140622,87.27272727272728L71.28495990612166,110.18181818181817L72.83101897124975,116.72727272727273L74.37707803637787,110.18181818181817L75.77351848230002,107.45454545454545L77.31957754742812,117.27272727272727L78.81576373948758,115.63636363636363L80.36182280461568,115.0909090909091L81.85800899667514,108L83.40406806180326,104.72727272727272L84.95012712693135,91.63636363636364L86.4463133189908,96L87.99237238411891,72L89.48855857617836,46.90909090909091L91.03461764130648,31.63636363636364L92.58067670643457,39.272727272727266L93.97711715235674,36.54545454545455L95.52317621748485,13.63636363636364L97.01936240954429,12L98.5654214746724,21.818181818181813L100.06160766673186,31.63636363636364L101.60766673185996,31.63636363636364L103.15372579698807,39.272727272727266L104.64991198904752,20.727272727272734L106.19597105417563,19.090909090909093L107.69215724623508,18.545454545454533L109.2382163113632,18L110.7842753764913,14.181818181818187L112.18071582241346,10.36363636363636L113.72677488754155,18L115.222961079601,18.545454545454533L116.76902014472913,14.181818181818187L118.26520633678858,9.272727272727266L119.81126540191669,10.909090909090907L121.35732446704479,12.545454545454547L122.85351065910424,12L124.39956972423235,14.72727272727272L125.8957559162918,18.545454545454533L127.44181498141991,21.272727272727266L128.987874046548,20.181818181818173L130.43418736553883,18L131.9802464306669,20.727272727272734L133.47643262272638,26.72727272727272L135.02249168785448,27.27272727272728L136.51867787991395,36.54545454545455L138.06473694504206,33.81818181818181L139.61079601017016,28.90909090909092L141.1069822022296,28.90909090909092L142.6530412673577,32.72727272727272L144.14922745941718,32.72727272727272L145.69528652454528,30L147.2413455896734,31.09090909090908L148.63778603559555,32.18181818181817L150.18384510072366,38.18181818181819L151.6800312927831,37.636363636363626L153.2260903579112,34.36363636363636L154.72227654997064,26.72727272727272L156.26833561509875,25.63636363636364L157.81439468022688,33.272727272727266L159.31058087228632,38.727272727272734L160.85663993741446,35.999999999999986L162.3528261294739,36.54545454545455L163.89888519460197,36.54545454545455L165.4449442597301,45.81818181818181L166.84138470565225,44.72727272727272L168.38744377078035,33.81818181818181L169.88362996283982,26.72727272727272L171.42968902796792,27.818181818181827L172.9258752200274,29.45454545454544L174.4719342851555,31.63636363636364L176.01799335028358,25.63636363636364L177.51417954234304,26.72727272727272L179.06023860747115,27.818181818181827L180.55642479953062,27.27272727272728L182.10248386465872,33.272727272727266L183.6485429297868,32.18181818181817L185.044983375709,41.45454545454545L186.5910424408371,38.727272727272734L188.08722863289654,43.63636363636364L189.63328769802465,39.81818181818183L191.12947389008409,40.363636363636374L192.6755329552122,37.636363636363626L194.22159202034032,42L195.71777821239976,40.90909090909091L197.26383727752787,44.18181818181819L198.7600234695873,44.18181818181819L200.30608253471542,37.636363636363626L201.85214159984355,39.272727272727266L203.29845491883435,33.272727272727266L204.84451398396246,43.63636363636364L206.34070017602193,39.81818181818183L207.88675924115,43.09090909090909L209.38294543320944,37.09090909090909L210.92900449833758,42L212.47506356346568,41.45454545454545L213.97124975552512,38.18181818181819L215.51730882065326,33.272727272727266L217.0134950127127,35.999999999999986L218.5595540778408,34.90909090909091L220.1056131429689,22.909090909090907L221.50205358889104,28.90909090909092L223.04811265401915,27.818181818181827L224.54429884607862,30L226.09035791120672,31.63636363636364L227.5865441032662,38.18181818181819L229.1326031683943,34.36363636363636L230.67866223352237,35.45454545454545L232.17484842558184,27.27272727272728L233.72090749070995,27.27272727272728L235.21709368276942,22.363636363636374L236.76315274789752,26.72727272727272L238.3092118130256,33.81818181818181L239.7056522589478,32.18181818181817L241.2517113240759,30" fill="none" stroke="#af516c" stroke-linejoin="round" stroke-linecap="round" stroke-width="2"></path></g></g></svg>