<svg xmlns="http://www.w3.org/2000/svg" viewBox="0 0 304 270"><style>/* <![CDATA[ */.chart-title{font-size:20px;fill:#43423e}.chart-subtitle{font-size:15px;fill:#74736c}.chart-source{font-size:10px;fill-opacity:.4}.axis .domain{fill:none;stroke:#74736c}.tick line{fill:none;stroke:#000;stroke-opacity:.2}.tick text{fill-opacity:.6;font-size:12px}.y.axis .tick line{stroke-dasharray:1}.y.axis .domain{fill:none;stroke-opacity:0}.y.axis .highlight-line{fill:none;stroke:#74736c}/* ]]> */</style><text class="chart-title" y="22">美国失业率</text><text class="chart-subtitle" y="42">％，经季节调整</text><text class="chart-source" y="265">来源:美国劳工部统计局╱彭博. 2018年5月4日</text><g transform="translate(1,100)"><g class="x axis" transform="translate(0,120)" fill="none" font-size="10" font-family="sans-serif" text-anchor="middle"><path class="domain" stroke="#000" d="M0.5,0V0.5H255.5V0"></path><g class="tick" opacity="1" transform="translate(18.703598670056717,0)"><line stroke="#000" y2="6"></line><text fill="#000" y="9" dy="0.71em">2006</text></g><g class="tick" opacity="1" transform="translate(55.110796010170155,0)"><line stroke="#000" y2="6"></line><text fill="#000" y="9" dy="0.71em">2008</text></g><g class="tick" opacity="1" transform="translate(91.56786622335224,0)"><line stroke="#000" y2="6"></line><text fill="#000" y="9" dy="0.71em">2010</text></g><g class="tick" opacity="1" transform="translate(127.97506356346567,0)"><line stroke="#000" y2="6"></line><text fill="#000" y="9" dy="0.71em">2012</text></g><g class="tick" opacity="1" transform="translate(164.43213377664776,0)"><line stroke="#000" y2="6"></line><text fill="#000" y="9" dy="0.71em">2014</text></g><g class="tick" opacity="1" transform="translate(200.8393311167612,0)"><line stroke="#000" y2="6"></line><text fill="#000" y="9" dy="0.71em">2016</text></g><g class="tick" opacity="1" transform="translate(237.29640132994328,0)"><line stroke="#000" y2="6"></line><text fill="#000" y="9" dy="0.71em">2018</text></g></g><g class="y axis" transform="translate(255,0)" fill="none" font-size="10" font-family="sans-serif" text-anchor="start"><path class="domain" stroke="#000" d="M0,120.5H0.5V0.5H0"></path><g class="tick" opacity="1" transform="translate(0,103.35714285714286)"><line stroke="#000" x2="-255"></line><text fill="#000" x="3" dy="0.32em">4</text></g><g class="tick" opacity="1" transform="translate(0,69.07142857142858)"><line stroke="#000" x2="-255"></line><text fill="#000" x="3" dy="0.32em">6</text></g><g class="tick" opacity="1" transform="translate(0,34.78571428571428)"><line stroke="#000" x2="-255"></line><text fill="#000" x="3" dy="0.32em">8</text></g><g class="tick" opacity="1" transform="translate(0,0.5)"><line stroke="#000" x2="-255"></line><text fill="#000" x="3" dy="0.32em">10</text></g></g><g><path d="M1.512810483082339,80.57142857142857L2.9092509290044983,78.85714285714285L4.4553099941326035,82.28571428571428L5.95149618619206,82.28571428571428L7.497555251320164,84L8.993741443379621,85.71428571428572L10.539800508507724,85.71428571428572L12.08585957363583,87.42857142857142L13.582045765695286,85.71428571428572L15.128104830823391,85.71428571428572L16.624291022882847,85.71428571428572L18.170350088010952,87.42857142857142L19.716409153139058,90.85714285714286L21.112849599061217,89.14285714285714L22.658908664189322,90.85714285714286L24.15509485624878,90.85714285714286L25.701153921376882,92.57142857142858L27.197340113436336,92.57142857142858L28.74339917856444,90.85714285714286L30.289458243692547,90.85714285714286L31.785644435752005,94.28571428571429L33.33170350088011,96L34.827889692939564,94.28571428571429L36.37394875806767,96L37.920007823195775,92.57142857142858L39.316448269117934,94.28571428571429L40.86250733424604,96L42.358693526305494,94.28571428571429L43.9047525914336,96L45.40093878349306,92.57142857142858L46.946997848621166,90.85714285714286L48.49305691374927,92.57142857142858L49.989243105808725,90.85714285714286L51.53530217093683,90.85714285714286L53.031488362996285,90.85714285714286L54.57754742812438,85.71428571428572L56.12360649325249,85.71428571428572L57.5699198122433,87.42857142857142L59.115978877371404,84L60.612165069430866,85.71428571428572L62.15822413455897,78.85714285714285L63.654410326618425,75.42857142857143L65.20046939174654,72L66.74652845687463,66.85714285714286L68.24271464893408,66.85714285714286L69.7887737140622,60L71.28495990612166,54.85714285714286L72.83101897124975,46.28571428571429L74.37707803637787,37.71428571428571L75.77351848230002,29.14285714285714L77.31957754742812,22.285714285714306L78.81576373948758,17.142857142857153L80.36182280461568,10.285714285714278L81.85800899667514,8.57142857142857L83.40406806180326,8.57142857142857L84.95012712693135,6.857142857142861L86.4463133189908,3.4285714285714164L87.99237238411891,0L89.48855857617836,1.7142857142857082L91.03461764130648,1.7142857142857082L92.58067670643457,3.4285714285714164L93.97711715235674,3.4285714285714164L95.52317621748485,1.7142857142857082L97.01936240954429,1.7142857142857082L98.5654214746724,6.857142857142861L100.06160766673186,10.285714285714278L101.60766673185996,10.285714285714278L103.15372579698807,8.57142857142857L104.64991198904752,8.57142857142857L106.19597105417563,10.285714285714278L107.69215724623508,3.4285714285714164L109.2382163113632,11.999999999999986L110.7842753764913,15.428571428571445L112.18071582241346,17.142857142857153L113.72677488754155,17.142857142857153L115.222961079601,15.428571428571445L116.76902014472913,17.142857142857153L118.26520633678858,15.428571428571445L119.81126540191669,17.142857142857153L121.35732446704479,17.142857142857153L122.85351065910424,17.142857142857153L124.39956972423235,20.57142857142857L125.8957559162918,24.000000000000014L127.44181498141991,25.714285714285722L128.987874046548,29.14285714285714L130.43418736553883,29.14285714285714L131.9802464306669,30.85714285714286L133.47643262272638,30.85714285714286L135.02249168785448,30.85714285714286L136.51867787991395,30.85714285714286L138.06473694504206,30.85714285714286L139.61079601017016,32.57142857142857L141.1069822022296,37.71428571428571L142.6530412673577,37.71428571428571L144.14922745941718,39.428571428571416L145.69528652454528,35.999999999999986L147.2413455896734,34.28571428571428L148.63778603559555,39.428571428571416L150.18384510072366,42.85714285714285L151.6800312927831,41.14285714285714L153.2260903579112,42.85714285714285L154.72227654997064,42.85714285714285L156.26833561509875,46.28571428571429L157.81439468022688,48L159.31058087228632,48L160.85663993741446,48L162.3528261294739,53.14285714285714L163.89888519460197,56.57142857142857L165.4449442597301,58.28571428571429L166.84138470565225,56.57142857142857L168.38744377078035,56.57142857142857L169.88362996283982,63.42857142857143L171.42968902796792,63.42857142857143L172.9258752200274,66.85714285714286L174.4719342851555,65.14285714285714L176.01799335028358,65.14285714285714L177.51417954234304,70.28571428571428L179.06023860747115,73.71428571428572L180.55642479953062,72L182.10248386465872,75.42857142857143L183.6485429297868,73.71428571428572L185.044983375709,77.14285714285714L186.5910424408371,77.14285714285714L188.08722863289654,78.85714285714285L189.63328769802465,77.14285714285714L191.12947389008409,80.57142857142857L192.6755329552122,82.28571428571428L194.22159202034032,84L195.71777821239976,85.71428571428572L197.26383727752787,85.71428571428572L198.7600234695873,85.71428571428572L200.30608253471542,85.71428571428572L201.85214159984355,87.42857142857142L203.29845491883435,87.42857142857142L204.84451398396246,85.71428571428572L206.34070017602193,85.71428571428572L207.88675924115,90.85714285714286L209.38294543320944,87.42857142857142L210.92900449833758,87.42857142857142L212.47506356346568,87.42857142857142L213.97124975552512,85.71428571428572L215.51730882065326,87.42857142857142L217.0134950127127,92.57142857142858L218.5595540778408,90.85714285714286L220.1056131429689,89.14285714285714L221.50205358889104,90.85714285714286L223.04811265401915,94.28571428571429L224.54429884607862,96L226.09035791120672,97.71428571428572L227.5865441032662,97.71428571428572L229.1326031683943,97.71428571428572L230.67866223352237,96L232.17484842558184,99.42857142857142L233.72090749070995,101.14285714285715L235.21709368276942,101.14285714285715L236.76315274789752,101.14285714285715L238.3092118130256,101.14285714285715L239.7056522589478,101.14285714285715L241.2517113240759,101.14285714285715L242.74789751613537,104.57142857142857" fill="none" stroke="#af516c" stroke-linejoin="round" stroke-linecap="round" stroke-width="2"></path></g></g></svg>