<svg xmlns="http://www.w3.org/2000/svg" viewBox="0 0 304 270"><style>/* <![CDATA[ */.chart-title{font-size:20px;fill:#43423e}.chart-subtitle{font-size:15px;fill:#74736c}.chart-source{font-size:10px;fill-opacity:.4}.axis .domain{fill:none;stroke:#74736c}.tick line{fill:none;stroke:#000;stroke-opacity:.2}.tick text{fill-opacity:.6;font-size:12px}.y.axis .tick line{stroke-dasharray:1}.y.axis .domain{fill:none;stroke-opacity:0}.y.axis .highlight-line{fill:none;stroke:#74736c}/* ]]> */</style><text class="chart-title" y="22">日本薪资增长</text><text class="chart-subtitle" y="42">年增长％</text><text class="chart-source" y="265">来源:日本内务省╱彭博. 2018年4月27日</text><g transform="translate(1,100)"><g class="x axis" transform="translate(0,120)" fill="none" font-size="10" font-family="sans-serif" text-anchor="middle"><path class="domain" stroke="#000" d="M0.5,0V0.5H255.5V0"></path><g class="tick" opacity="1" transform="translate(0.5,0)"><line stroke="#000" y2="6"></line><text fill="#000" y="9" dy="0.71em">2006</text></g><g class="tick" opacity="1" transform="translate(39.70598146588037,0)"><line stroke="#000" y2="6"></line><text fill="#000" y="9" dy="0.71em">2008</text></g><g class="tick" opacity="1" transform="translate(78.9656697556866,0)"><line stroke="#000" y2="6"></line><text fill="#000" y="9" dy="0.71em">2010</text></g><g class="tick" opacity="1" transform="translate(118.17165122156698,0)"><line stroke="#000" y2="6"></line><text fill="#000" y="9" dy="0.71em">2012</text></g><g class="tick" opacity="1" transform="translate(157.4313395113732,0)"><line stroke="#000" y2="6"></line><text fill="#000" y="9" dy="0.71em">2014</text></g><g class="tick" opacity="1" transform="translate(196.63732097725358,0)"><line stroke="#000" y2="6"></line><text fill="#000" y="9" dy="0.71em">2016</text></g><g class="tick" opacity="1" transform="translate(235.89700926705981,0)"><line stroke="#000" y2="6"></line><text fill="#000" y="9" dy="0.71em">2018</text></g></g><g class="y axis" transform="translate(255,0)" fill="none" font-size="10" font-family="sans-serif" text-anchor="start"><path class="domain" stroke="#000" d="M0,120.5H0.5V0.5H0"></path><g class="tick" opacity="1" transform="translate(0,120.5)"><line stroke="#000" x2="-255"></line><text fill="#000" x="3" dy="0.32em">-8</text></g><g class="tick" opacity="1" transform="translate(0,98.68181818181819)"><line stroke="#000" x2="-255"></line><text fill="#000" x="3" dy="0.32em">-6</text></g><g class="tick" opacity="1" transform="translate(0,76.86363636363636)"><line stroke="#000" x2="-255"></line><text fill="#000" x="3" dy="0.32em">-4</text></g><g class="tick" opacity="1" transform="translate(0,55.04545454545455)"><line stroke="#000" x2="-255"></line><text fill="#000" x="3" dy="0.32em">-2</text></g><g class="tick" opacity="1" transform="translate(0,33.22727272727272)"><line stroke="#000" x2="-255"></line><text fill="#000" x="3" dy="0.32em">0</text></g><g class="tick" opacity="1" transform="translate(0,11.409090909090907)"><line stroke="#000" x2="-255"></line><text fill="#000" x="3" dy="0.32em">2</text></g><line class="highlight-line" x1="0" y1="32.72727272727272" x2="-255" y2="32.72727272727272"></line></g><g class="chart-key" transform="translate(0, -35)"><g class="key-element" transform="translate(0,0)"><text x="28" font-size="12">现金盈馀</text><line x1="0" x2="25" y1="-5" y2="-5" stroke-width="2" fill="none" stroke="#af516c"></line></g><g class="key-element" transform="translate(0,20)"><text x="28" font-size="12">实际盈馀</text><line x1="0" x2="25" y1="-5" y2="-5" stroke-width="2" fill="none" stroke="#76acb8"></line></g></g><g><path d="M1.62910699241786,33.81818181818181L3.1328980623420386,27.27272727272728L4.797809604043808,24L6.409014321819713,29.45454545454544L8.073925863521483,29.45454545454544L9.68513058129739,28.36363636363636L11.350042122999158,34.90909090909091L13.014953664700927,45.81818181818181L14.626158382476833,40.363636363636374L16.2910699241786,39.272727272727266L17.902274641954506,34.90909090909091L19.567186183656275,39.272727272727266L21.232097725358045,45.81818181818181L22.735888795282225,42.54545454545455L24.40080033698399,34.90909090909091L26.012005054759896,35.999999999999986L27.676916596461666,38.18181818181819L29.288121314237575,43.63636363636364L30.953032855939345,53.45454545454545L32.61794439764111,27.27272727272728L34.22914911541702,40.363636363636374L35.89406065711879,41.45454545454545L37.5052653748947,43.63636363636364L39.17017691659646,66.54545454545453L40.83508845829823,31.63636363636364L42.39258635214827,37.09090909090909L44.05749789385004,35.999999999999986L45.668702611625946,41.45454545454545L47.333614153327716,46.90909090909091L48.94481887110362,58.909090909090914L50.60973041280539,65.45454545454545L52.27464195450716,64.36363636363637L53.885846672283066,64.36363636363637L55.550758213984835,60L57.16196293176074,58.909090909090914L58.82687447346251,53.45454545454545L60.49178601516427,61.090909090909086L61.995577085088456,60L63.660488626790226,72L65.27169334456613,61.090909090909086L66.93660488626792,46.90909090909091L68.54780960404382,90.54545454545455L70.21272114574558,67.63636363636364L71.87763268744735,33.81818181818181L73.48883740522325,25.090909090909093L75.15374894692502,24L76.76495366470093,38.18181818181819L78.4298652064027,79.63636363636363L80.09477674810447,25.090909090909093L81.59856781802864,32.72727272727272L83.26347935973041,15.27272727272728L84.87468407750632,6.545454545454547L86.53959561920809,25.090909090909093L88.150800336984,4.36363636363636L89.81571187868576,5.454545454545453L91.48062342038754,17.454545454545453L93.09182813816344,12L94.7567396798652,26.181818181818187L96.36794439764111,29.45454545454544L98.03285593934288,28.36363636363636L99.69776748104465,24L101.20155855096883,26.181818181818187L102.8664700926706,29.45454545454544L104.4776748104465,43.63636363636364L106.14258635214827,18.545454545454533L107.75379106992419,37.09090909090909L109.41870261162595,39.272727272727266L111.08361415332773,40.363636363636374L112.69481887110364,39.272727272727266L114.35973041280539,31.63636363636364L115.9709351305813,29.45454545454544L117.63584667228307,30.54545454545456L119.30075821398484,46.90909090909091L120.85825610783488,34.90909090909091L122.52316764953665,30.54545454545456L124.13437236731255,38.18181818181819L125.79928390901432,49.09090909090909L127.41048862679023,38.18181818181819L129.075400168492,46.90909090909091L130.74031171019377,30.54545454545456L132.3515164279697,38.18181818181819L134.01642796967144,34.90909090909091L135.62763268744735,43.63636363636364L137.29254422914912,53.45454545454545L138.95745577085088,32.72727272727272L140.46124684077506,38.18181818181819L142.12615838247683,35.999999999999986L143.73736310025274,28.36363636363636L145.4022746419545,33.81818181818181L147.0134793597304,33.81818181818181L148.67839090143218,46.90909090909091L150.34330244313395,57.81818181818182L151.95450716090986,53.45454545454545L153.61941870261163,54.54545454545455L155.23062342038753,50.18181818181817L156.8955349620893,51.272727272727266L158.56044650379107,55.63636363636364L160.06423757371525,58.909090909090914L161.72914911541702,50.18181818181817L163.34035383319292,72L165.0052653748947,76.36363636363636L166.6164700926706,72L168.28138163437237,55.63636363636364L169.94629317607414,69.81818181818181L171.55749789385004,69.81818181818181L173.2224094355518,69.81818181818181L174.83361415332772,66.54545454545453L176.4985256950295,54.54545454545455L178.16343723673126,57.81818181818182L179.66722830665543,57.81818181818182L181.3321398483572,62.18181818181818L182.9433445661331,33.81818181818181L184.60825610783488,32.72727272727272L186.21946082561078,65.45454545454545L187.88437236731255,27.27272727272728L189.54928390901432,31.63636363636364L191.16048862679023,29.45454545454544L192.825400168492,28.36363636363636L194.4366048862679,37.09090909090909L196.1015164279697,34.90909090909091L197.76642796967144,32.72727272727272L199.32392586352148,29.45454545454544L200.98883740522325,15.27272727272728L202.60004212299916,28.36363636363636L204.26495366470093,28.36363636363636L205.87615838247683,10.909090909090907L207.5410699241786,13.09090909090908L209.20598146588037,26.181818181818187L210.81718618365628,24L212.48209772535805,32.72727272727272L214.09330244313395,32.72727272727272L215.75821398483572,31.63636363636364L217.4231255265375,33.81818181818181L218.9269165964617,32.72727272727272L220.59182813816344,35.999999999999986L222.20303285593934,32.72727272727272L223.8679443976411,32.72727272727272L225.47914911541702,33.81818181818181L227.14406065711879,44.72727272727272L228.80897219882056,33.81818181818181L230.42017691659646,33.81818181818181L232.08508845829823,33.81818181818181L233.69629317607414,31.63636363636364L235.3612047177759,35.999999999999986L237.02611625947767,39.272727272727266L238.52990732940188,41.45454545454545" fill="none" stroke="#af516c" stroke-linejoin="round" stroke-linecap="round" stroke-width="2"></path><path d="M1.62910699241786,33.87757580017963L3.1328980623420386,28.003691538240176L4.797809604043808,29.306531118178853L6.409014321819713,29.479023333902518L8.073925863521483,27.408839760867437L9.68513058129739,21.90826284467211L11.350042122999158,28.957737178076343L13.014953664700927,36.0425267062126L14.626158382476833,32.490769816973014L16.2910699241786,33.31544843496249L17.902274641954506,30.52515022954337L19.567186183656275,33.81040457638004L21.232097725358045,57.56166215122614L22.735888795282225,52.60725507374302L24.40080033698399,43.45551610513684L26.012005054759896,46.4142395861781L27.676916596461666,44.91992446567305L29.288121314237575,52.98037908481707L30.953032855939345,61.46354839078214L32.61794439764111,36.81708292058312L34.22914911541702,47.74195243380997L35.89406065711879,43.5947767976827L37.5052653748947,42.30024491164238L39.17017691659646,61.556549906909154L40.83508845829823,15.680590742159225L42.39258635214827,17.389571570906668L44.05749789385004,17.055515426684508L45.668702611625946,23.746990303897945L47.333614153327716,30.07087043430856L48.94481887110362,27.550648737173205L50.60973041280539,30.671451067454868L52.27464195450716,31.499549195265587L53.885846672283066,32.04797693058184L55.550758213984835,34.86716487406662L57.16196293176074,39.153227069176054L58.82687447346251,42.238838895185665L60.49178601516427,46.64982210075799L61.995577085088456,68.85271933306868L63.660488626790226,81.59444569837277L65.27169334456613,71.41446413011917L66.93660488626792,62.39088733759171L68.54780960404382,119.00873072305292L70.21272114574558,103.42133002272143L71.87763268744735,72.35349348185724L73.48883740522325,62.517820418106034L75.15374894692502,62.307883199602976L76.76495366470093,71.51145538338454L78.4298652064027,109.34174782910314L80.09477674810447,57.367527617455714L81.59856781802864,38.63961405549671L83.26347935973041,21.54501524248188L84.87468407750632,14.21823401286791L86.53959561920809,31.629533257440187L88.150800336984,11.994101552034508L89.81571187868576,17.578679758043364L91.48062342038754,29.784458760836642L93.09182813816344,23.448879887235947L94.7567396798652,27.299255178043097L96.36794439764111,30.453973863595536L98.03285593934288,32.37072764908041L99.69776748104465,30.603088083524653L101.20155855096883,30.704471491574978L102.8664700926706,34.7829066136067L104.4776748104465,48.874559140917086L106.14258635214827,22.20769066742497L107.75379106992419,40.13050895178792L109.41870261162595,34.59491241115748L111.08361415332773,36.772671086638965L112.69481887110364,36.87955003426309L114.35973041280539,32.72727272727272L115.9709351305813,35.26963732191217L117.63584667228307,31.341161561157207L119.30075821398484,45.16760446945253L120.85825610783488,33.96343033736807L122.52316764953665,24.72685026272022L124.13437236731255,31.76551912988012L125.79928390901432,46.56578321007841L127.41048862679023,39.80590052401841L129.075400168492,52.29687994931895L130.74031171019377,34.5982670081342L132.3515164279697,40.0010897104095L134.01642796967144,39.4279390713147L135.62763268744735,44.5278777859818L137.29254422914912,54.560484655115005L138.95745577085088,31.392010682096313L140.46124684077506,41.34894033929767L142.12615838247683,43.343053544163595L143.73736310025274,32.967499341045055L145.4022746419545,34.07186076043928L147.0134793597304,26.60946078914752L148.67839090143218,33.87633017258531L150.34330244313395,42.05843942218537L151.95450716090986,35.73037867931903L153.61941870261163,33.83052186408247L155.23062342038753,26.980431013128438L156.8955349620893,26.632808532249882L158.56044650379107,35.71783628685155L160.06423757371525,34.14101373546406L161.72914911541702,25.064386770603036L163.34035383319292,25.39874720925343L165.0052653748947,26.81194352560422L166.6164700926706,21.361028469854816L168.28138163437237,6.361895824977637L169.94629317607414,23.315602658595765L171.55749789385004,24.971897076264668L173.2224094355518,30.682150514177792L174.83361415332772,30.95311627295733L176.4985256950295,19.221352598836006L178.16343723673126,33.942996082669225L179.66722830665543,40.429668796969096L181.3321398483572,41.204104363596926L182.9433445661331,34.19910894239946L184.60825610783488,34.10683491915354L186.21946082561078,70.09192497336394L187.88437236731255,34.35284845200856L189.54928390901432,39.34681833135612L191.16048862679023,39.60868778651226L192.825400168492,35.91169356073361L194.4366048862679,43.51237432962134L196.1015164279697,44.73989986173588L197.76642796967144,32.8489806957639L199.32392586352148,23.796049436207753L200.98883740522325,16.197142989595818L202.60004212299916,33.0061044224699L204.26495366470093,33.29604701867473L205.87615838247683,17.179509108013477L207.5410699241786,19.5848595848595L209.20598146588037,31.764387280550693L210.81718618365628,32.026518729711654L212.48209772535805,31.212291818079493L214.09330244313395,28.3940089646878L215.75821398483572,26.47369203453505L217.4231255265375,28.994478575316947L218.9269165964617,30.439815617093558L220.59182813816344,32.8055582738038L222.20303285593934,27.069526528986017L223.8679443976411,26.264252179745185L225.47914911541702,28.224610338416284L227.14406065711879,39.07401855765079L228.80897219882056,25.75250947839595L230.42017691659646,22.717042794076164L232.08508845829823,30.1512879923675L233.69629317607414,23.2634878732882L235.3612047177759,23.739165527652702L237.02611625947767,25.246707034764313L238.52990732940188,22.01947187300054" fill="none" stroke="#76acb8" stroke-linejoin="round" stroke-linecap="round" stroke-width="2"></path></g></g></svg>