<svg xmlns="http://www.w3.org/2000/svg" viewBox="0 0 304 270"><style>/* <![CDATA[ */.chart-title{font-size:20px;fill:#43423e}.chart-subtitle{font-size:15px;fill:#74736c}.chart-source{font-size:10px;fill-opacity:.4}.axis .domain{fill:none;stroke:#74736c}.tick line{fill:none;stroke:#000;stroke-opacity:.2}.tick text{fill-opacity:.6;font-size:12px}.y.axis .tick line{stroke-dasharray:1}.y.axis .domain{fill:none;stroke-opacity:0}.y.axis .highlight-line{fill:none;stroke:#74736c}/* ]]> */</style><text class="chart-title" y="22">加权平均银行贷款利率</text><text class="chart-subtitle" y="42">％</text><text class="chart-source" y="265">来源:CEIC/People's Bank of China. 2018年2月14日</text><g transform="translate(1,100)"><g class="x axis" transform="translate(0,120)" fill="none" font-size="10" font-family="sans-serif" text-anchor="middle"><path class="domain" stroke="#000" d="M0.5,0V0.5H255.5V0"></path><g class="tick" opacity="1" transform="translate(28.816093702464254,0)"><line stroke="#000" y2="6"></line><text fill="#000" y="9" dy="0.71em">2010</text></g><g class="tick" opacity="1" transform="translate(85.44828110739276,0)"><line stroke="#000" y2="6"></line><text fill="#000" y="9" dy="0.71em">2012</text></g><g class="tick" opacity="1" transform="translate(142.15804685123211,0)"><line stroke="#000" y2="6"></line><text fill="#000" y="9" dy="0.71em">2014</text></g><g class="tick" opacity="1" transform="translate(198.79023425616063,0)"><line stroke="#000" y2="6"></line><text fill="#000" y="9" dy="0.71em">2016</text></g><g class="tick" opacity="1" transform="translate(255.5,0)"><line stroke="#000" y2="6"></line><text fill="#000" y="9" dy="0.71em">2018</text></g></g><g class="y axis" transform="translate(255,0)" fill="none" font-size="10" font-family="sans-serif" text-anchor="start"><path class="domain" stroke="#000" d="M0,120.5H0.5V0.5H0"></path><g class="tick" opacity="1" transform="translate(0,120.5)"><line stroke="#000" x2="-255"></line><text fill="#000" x="3" dy="0.32em">5</text></g><g class="tick" opacity="1" transform="translate(0,80.5)"><line stroke="#000" x2="-255"></line><text fill="#000" x="3" dy="0.32em">6</text></g><g class="tick" opacity="1" transform="translate(0,40.5)"><line stroke="#000" x2="-255"></line><text fill="#000" x="3" dy="0.32em">7</text></g><g class="tick" opacity="1" transform="translate(0,0.5)"><line stroke="#000" x2="-255"></line><text fill="#000" x="3" dy="0.32em">8</text></g></g><g><path d="M4.602981442044418,92L11.740188621843625,92L18.877395801642837,90.39999999999999L25.937024642531185,84.80000000000001L32.919075144508675,78.4L40.05628232430788,80.39999999999999L47.193489504107085,76.4L54.253118344995436,66.4L61.235168846972925,36.000000000000014L68.37237602677213,25.599999999999994L75.50958320657135,8.000000000000014L82.56921204745969,8.000000000000014L89.62884088834804,1.200000000000017L96.76604806814726,18L103.90325524794646,32.80000000000001L110.96288408883481,37.19999999999999L117.9449345908123,31.200000000000017L125.0821417706115,36.000000000000014L132.2193489504107,33.599999999999994L139.27897779129904,34.400000000000006L146.26102829327655,25.19999999999999L153.39823547307577,29.60000000000001L160.53544265287496,26.799999999999997L167.5950714937633,43.2L174.5771219957408,48.8L181.71432917554,61.6L188.85153635533922,79.60000000000001L195.91116519622759,94.4L202.97079403711592,93.2L210.1080012169151,96.8L217.24520839671433,93.99999999999999L224.3048372376027,102.39999999999998L231.28688773958015,94.80000000000001L238.42409491937937,91.6L245.5613020991786,85.6L252.62093094006693,88" fill="none" stroke="#af516c" stroke-linejoin="round" stroke-linecap="round" stroke-width="2"></path></g></g></svg>