<svg xmlns="http://www.w3.org/2000/svg" viewBox="0 0 304 270"><style>/* <![CDATA[ */.chart-title{font-size:20px;fill:#43423e}.chart-subtitle{font-size:15px;fill:#74736c}.chart-source{font-size:10px;fill-opacity:.4}.axis .domain{fill:none;stroke:#74736c}.tick line{fill:none;stroke:#000;stroke-opacity:.2}.tick text{fill-opacity:.6;font-size:12px}.y.axis .tick line{stroke-dasharray:1}.y.axis .domain{fill:none;stroke-opacity:0}.y.axis .highlight-line{fill:none;stroke:#74736c}/* ]]> */</style><text class="chart-title" y="22">经济生产力</text><text class="chart-subtitle" y="42">指数(以2012年为基期100)</text><text class="chart-source" y="265">来源:CEIC. 2017年7月5日</text><g transform="translate(1,100)"><g class="x axis" transform="translate(0,120)" fill="none" font-size="10" font-family="sans-serif" text-anchor="middle"><path class="domain" stroke="#000" d="M0.5,0V0.5H255.5V0"></path><g class="tick" opacity="1" transform="translate(0.5,0)"><line stroke="#000" y2="6"></line><text fill="#000" y="9" dy="0.71em">1990</text></g><g class="tick" opacity="1" transform="translate(46.029480786154295,0)"><line stroke="#000" y2="6"></line><text fill="#000" y="9" dy="0.71em">1995</text></g><g class="tick" opacity="1" transform="translate(91.55896157230859,0)"><line stroke="#000" y2="6"></line><text fill="#000" y="9" dy="0.71em">2000</text></g><g class="tick" opacity="1" transform="translate(137.11337635670284,0)"><line stroke="#000" y2="6"></line><text fill="#000" y="9" dy="0.71em">2005</text></g><g class="tick" opacity="1" transform="translate(182.64285714285714,0)"><line stroke="#000" y2="6"></line><text fill="#000" y="9" dy="0.71em">2010</text></g><g class="tick" opacity="1" transform="translate(228.17233792901143,0)"><line stroke="#000" y2="6"></line><text fill="#000" y="9" dy="0.71em">2015</text></g></g><g class="y axis" transform="translate(255,0)" fill="none" font-size="10" font-family="sans-serif" text-anchor="start"><path class="domain" stroke="#000" d="M0,120.5H0.5V0.5H0"></path><g class="tick" opacity="1" transform="translate(0,116.97058823529412)"><line stroke="#000" x2="-255"></line><text fill="#000" x="3" dy="0.32em">70</text></g><g class="tick" opacity="1" transform="translate(0,81.67647058823529)"><line stroke="#000" x2="-255"></line><text fill="#000" x="3" dy="0.32em">80</text></g><g class="tick" opacity="1" transform="translate(0,46.382352941176464)"><line stroke="#000" x2="-255"></line><text fill="#000" x="3" dy="0.32em">90</text></g><g class="tick" opacity="1" transform="translate(0,11.088235294117652)"><line stroke="#000" x2="-255"></line><text fill="#000" x="3" dy="0.32em">100</text></g></g><g class="chart-key" transform="translate(0, -35)"><g class="key-element" transform="translate(0,0)"><text x="28" font-size="12">每小時生产力</text><line x1="0" x2="25" y1="-5" y2="-5" stroke-width="2" fill="none" stroke="#af516c"></line></g><g class="key-element" transform="translate(0,20)"><text x="28" font-size="12">每份工作生产力</text><line x1="0" x2="25" y1="-5" y2="-5" stroke-width="2" fill="none" stroke="#76acb8"></line></g></g><g><path d="M1.4794172289038818,120L3.773345066979564,118.58823529411762L6.067272905055246,119.29411764705881L8.336266744890974,117.1764705882353L10.580326586486752,114.70588235294117L12.874254424562434,111.52941176470586L15.168182262638116,108.3529411764706L17.437176102473842,105.88235294117646L19.70616994230957,104.82352941176472L22.000097780385254,104.82352941176472L24.294025618460935,100.58823529411765L26.563019458296665,96.70588235294119L28.807079299892443,94.58823529411764L31.10100713796812,93.1764705882353L33.39493497604381,90.70588235294119L35.66392881587954,88.94117647058825L37.90798865747531,87.52941176470587L40.201916495550996,85.41176470588236L42.49584433362668,85.05882352941174L44.7648381734624,85.41176470588236L47.00889801505818,84.70588235294117L49.30282585313386,84.35294117647061L51.59675369120954,82.23529411764704L53.86574753104527,83.2941176470588L56.134741370881,80.11764705882354L58.428669208956684,80.11764705882354L60.722597047032366,79.05882352941178L62.991590886868096,78.70588235294116L65.23565072846387,78.3529411764706L67.52957856653954,77.29411764705884L69.82350640461524,76.23529411764704L72.09250024445097,72.70588235294116L74.33656008604673,72.00000000000001L76.63048792412242,69.88235294117646L78.92441576219811,68.82352941176471L81.19340960203384,64.58823529411764L83.43746944362961,64.58823529411764L85.73139728170528,64.23529411764707L88.02532511978097,60.352941176470566L90.2943189596167,56.470588235294116L92.56331279945243,48.70588235294116L94.85724063752812,50.470588235294116L97.1511684756038,50.470588235294116L99.42016231543953,52.58823529411768L101.66422215703531,47.29411764705884L103.95814999511099,47.64705882352942L106.25207783318666,45.176470588235276L108.52107167302239,43.764705882352956L110.76513151461818,42.00000000000003L113.05905935269385,38.470588235294144L115.35298719076954,37.764705882352956L117.62198103060527,36.35294117647058L119.86604087220104,32.823529411764696L122.15996871027673,30.35294117647058L124.4538965483524,27.882352941176492L126.72289038818813,23.294117647058812L128.99188422802385,24.705882352941188L131.28581206609954,22.235294117647044L133.57973990417523,22.941176470588232L135.84873374401096,25.764705882352928L138.09279358560673,23.64705882352942L140.38672142368242,18.70588235294116L142.68064926175808,16.588235294117652L144.9496431015938,10.941176470588204L147.1937029431896,11.647058823529392L149.48763078126527,11.29411764705884L151.78155861934096,11.29411764705884L154.05055245917669,10.941176470588204L156.29461230077246,7.764705882352956L158.58854013884815,7.058823529411768L160.8824679769238,5.294117647058812L163.15146181675954,2.823529411764696L165.42045565659527,6L167.71438349467098,4.235294117647072L170.00831133274667,9.882352941176464L172.2773051725824,15.882352941176464L174.52136501417817,16.235294117647044L176.81529285225383,15.882352941176464L179.10922069032952,13.764705882352956L181.37821453016525,13.411764705882348L183.62227437176102,10.588235294117652L185.9162022098367,9.529411764705884L188.2101300479124,8.117647058823508L190.47912388774813,8.823529411764696L192.7231837293439,7.764705882352956L195.01711156741956,4.235294117647072L197.31103940549525,5.647058823529392L199.58003324533098,6.35294117647058L201.8490270851667,7.4117647058823195L204.1429549232424,9.176470588235276L206.4368827613181,8.823529411764696L208.70587660115382,10.588235294117652L210.94993644274956,9.882352941176464L213.24386428082528,9.882352941176464L215.53779211890097,12.000000000000028L217.8067859587367,10.588235294117652L220.05084580033247,10.235294117647072L222.34477363840816,9.529411764705884L224.63870147648382,7.764705882352956L226.90769531631955,6.35294117647058L229.15175515791532,6.35294117647058L231.445682995991,4.235294117647072L233.7396108340667,3.529411764705884L236.00860467390243,7.058823529411768L238.27759851373816,5.294117647058812L240.57152635181382,4.235294117647072L242.8654541898895,3.882352941176464L245.13444802972523,2.1176470588235077L247.378507871321,4.235294117647072" fill="none" stroke="#af516c" stroke-linejoin="round" stroke-linecap="round" stroke-width="2"></path><path d="M1.4794172289038818,108.3529411764706L3.773345066979564,108.3529411764706L6.067272905055246,109.41176470588235L8.336266744890974,107.99999999999997L10.580326586486752,105.88235294117646L12.874254424562434,103.41176470588235L15.168182262638116,100.94117647058822L17.437176102473842,98.47058823529414L19.70616994230957,98.11764705882352L22.000097780385254,96L24.294025618460935,92.8235294117647L26.563019458296665,89.64705882352943L28.807079299892443,87.88235294117649L31.10100713796812,86.47058823529412L33.39493497604381,84.70588235294117L35.66392881587954,83.64705882352942L37.90798865747531,81.52941176470586L40.201916495550996,79.05882352941178L42.49584433362668,78.3529411764706L44.7648381734624,76.94117647058823L47.00889801505818,77.29411764705884L49.30282585313386,77.99999999999999L51.59675369120954,76.58823529411765L53.86574753104527,77.29411764705884L56.134741370881,74.11764705882354L58.428669208956684,73.05882352941177L60.722597047032366,72.00000000000001L62.991590886868096,72.3529411764706L65.23565072846387,71.29411764705884L67.52957856653954,69.88235294117646L69.82350640461524,69.17647058823528L72.09250024445097,66.00000000000001L74.33656008604673,63.88235294117645L76.63048792412242,62.11764705882351L78.92441576219811,61.411764705882376L81.19340960203384,60L83.43746944362961,58.94117647058824L85.73139728170528,59.29411764705881L88.02532511978097,54.70588235294119L90.2943189596167,50.470588235294116L92.56331279945243,47.99999999999997L94.85724063752812,46.235294117647044L97.1511684756038,46.94117647058823L99.42016231543953,46.58823529411765L101.66422215703531,42.70588235294116L103.95814999511099,42.70588235294116L106.25207783318666,39.882352941176464L108.52107167302239,40.23529411764707L110.76513151461818,39.176470588235276L113.05905935269385,38.470588235294144L115.35298719076954,35.64705882352939L117.62198103060527,35.64705882352939L119.86604087220104,32.11764705882351L122.15996871027673,29.64705882352942L124.4538965483524,27.176470588235304L126.72289038818813,24.705882352941188L128.99188422802385,24.705882352941188L131.28581206609954,22.941176470588232L133.57973990417523,23.294117647058812L135.84873374401096,24L138.09279358560673,22.58823529411768L140.38672142368242,18.35294117647061L142.68064926175808,15.176470588235276L144.9496431015938,8.823529411764696L147.1937029431896,10.235294117647072L149.48763078126527,11.29411764705884L151.78155861934096,12.000000000000028L154.05055245917669,10.588235294117652L156.29461230077246,6.705882352941188L158.58854013884815,6.35294117647058L160.8824679769238,4.94117647058826L163.15146181675954,4.588235294117624L165.42045565659527,4.235294117647072L167.71438349467098,7.058823529411768L170.00831133274667,10.941176470588204L172.2773051725824,18.70588235294116L174.52136501417817,22.941176470588232L176.81529285225383,20.470588235294116L179.10922069032952,20.117647058823536L181.37821453016525,19.764705882352928L183.62227437176102,15.882352941176464L185.9162022098367,14.470588235294088L188.2101300479124,13.764705882352956L190.47912388774813,12.000000000000028L192.7231837293439,12.70588235294116L195.01711156741956,12.70588235294116L197.31103940549525,10.235294117647072L199.58003324533098,10.588235294117652L201.8490270851667,10.941176470588204L204.1429549232424,12.70588235294116L206.4368827613181,9.176470588235276L208.70587660115382,12.70588235294116L210.94993644274956,10.235294117647072L213.24386428082528,10.588235294117652L215.53779211890097,10.588235294117652L217.8067859587367,11.29411764705884L220.05084580033247,10.235294117647072L222.34477363840816,8.470588235294144L224.63870147648382,6.35294117647058L226.90769531631955,4.588235294117624L229.15175515791532,6.35294117647058L231.445682995991,3.529411764705884L233.7396108340667,4.235294117647072L236.00860467390243,3.882352941176464L238.27759851373816,3.529411764705884L240.57152635181382,3.529411764705884L242.8654541898895,2.470588235294116L245.13444802972523,0.3529411764705799L247.378507871321,0.7058823529411882" fill="none" stroke="#76acb8" stroke-linejoin="round" stroke-linecap="round" stroke-width="2"></path></g></g></svg>